<?xml version="1.0" encoding="UTF-8"?>
<!DOCTYPE svg PUBLIC "-//W3C//DTD SVG 1.1//EN" "http://www.w3.org/Graphics/SVG/1.1/DTD/svg11.dtd">
<svg version="1.2" xmlns="http://www.w3.org/2000/svg" xmlns:xlink="http://www.w3.org/1999/xlink" x="0mm" y="0mm" width="32mm" height="27mm" viewBox="0 0 32 27">
<style type="text/css"><![CDATA[
text { font:12px Dialog; }
]]></style>
<line x1="16.2804689" y1="8.0876707" x2="12.9624216" y2="9.9699931" style="fill:none;stroke:rgb(68,68,68);stroke-width:0.217803;stroke-linecap:round;stroke-linejoin:round" />
<line x1="21.2101438" y1="10.0419226" x2="17.8442379" y2="8.0960667" style="fill:none;stroke:rgb(68,68,68);stroke-width:0.217803;stroke-linecap:round;stroke-linejoin:round" />
<line x1="5.5190739" y1="9.5879645" x2="8.862441" y2="7.6440814" style="fill:none;stroke:rgb(68,68,68);stroke-width:0.217803;stroke-linecap:round;stroke-linejoin:round" />
<line x1="8.862441" y1="7.6440814" x2="12.9624216" y2="9.9699931" style="fill:none;stroke:rgb(68,68,68);stroke-width:0.217803;stroke-linecap:round;stroke-linejoin:round" />
<line x1="12.5351604" y1="13.7625274" x2="12.5351604" y2="9.7276086" style="fill:none;stroke:rgb(68,68,68);stroke-width:0.217803;stroke-linecap:round;stroke-linejoin:round" />
<line x1="13.3896827" y1="13.7625274" x2="13.3896827" y2="9.7276086" style="fill:none;stroke:rgb(68,68,68);stroke-width:0.217803;stroke-linecap:round;stroke-linejoin:round" />
<line x1="21.2101438" y1="14.7892685" x2="21.2101438" y2="10.0419226" style="fill:none;stroke:rgb(68,68,68);stroke-width:0.217803;stroke-linecap:round;stroke-linejoin:round" />
<line x1="25.3342926" y1="7.6682497" x2="21.2101438" y2="10.0419226" style="fill:none;stroke:rgb(68,68,68);stroke-width:0.217803;stroke-linecap:round;stroke-linejoin:round" />
<line x1="25.3317687" y1="8.6556533" x2="22.064666" y2="10.5360494" style="fill:none;stroke:rgb(68,68,68);stroke-width:0.217803;stroke-linecap:round;stroke-linejoin:round" />
<line x1="4.7382922" y1="14.7892685" x2="4.7382922" y2="11.036327" style="fill:none;stroke:rgb(68,68,68);stroke-width:0.217803;stroke-linecap:round;stroke-linejoin:round" />
<line x1="0.6383117" y1="7.6682497" x2="3.9573087" y2="9.5897743" style="fill:none;stroke:rgb(68,68,68);stroke-width:0.217803;stroke-linecap:round;stroke-linejoin:round" />
<line x1="29.4101048" y1="14.8370296" x2="29.4101048" y2="10.0419226" style="fill:none;stroke:rgb(68,68,68);stroke-width:0.217803;stroke-linecap:round;stroke-linejoin:round" />
<line x1="28.5555826" y1="14.340801" x2="28.5555826" y2="10.5331391" style="fill:none;stroke:rgb(68,68,68);stroke-width:0.217803;stroke-linecap:round;stroke-linejoin:round" />
<line x1="8.862441" y1="2.8967355" x2="8.862441" y2="7.6440814" style="fill:none;stroke:rgb(68,68,68);stroke-width:0.217803;stroke-linecap:round;stroke-linejoin:round" />
<line x1="29.4101048" y1="10.0419226" x2="25.3342926" y2="7.6682497" style="fill:none;stroke:rgb(68,68,68);stroke-width:0.217803;stroke-linecap:round;stroke-linejoin:round" />
<line x1="21.2101438" y1="14.7892685" x2="25.3342926" y2="17.1629414" style="fill:none;stroke:rgb(68,68,68);stroke-width:0.217803;stroke-linecap:round;stroke-linejoin:round" />
<line x1="22.064666" y1="14.2951417" x2="25.3361062" y2="16.1780343" style="fill:none;stroke:rgb(68,68,68);stroke-width:0.217803;stroke-linecap:round;stroke-linejoin:round" />
<line x1="17.8244277" y1="16.6938203" x2="21.2101438" y2="14.7892685" style="fill:none;stroke:rgb(68,68,68);stroke-width:0.217803;stroke-linecap:round;stroke-linejoin:round" />
<line x1="25.3342926" y1="3.9533439" x2="25.3342926" y2="7.6682497" style="fill:none;stroke:rgb(68,68,68);stroke-width:0.217803;stroke-linecap:round;stroke-linejoin:round" />
<line x1="8.8382727" y1="17.1629414" x2="4.7382922" y2="14.7892685" style="fill:none;stroke:rgb(68,68,68);stroke-width:0.217803;stroke-linecap:round;stroke-linejoin:round" />
<line x1="8.8382727" y1="21.9822168" x2="8.8382727" y2="17.1629414" style="fill:none;stroke:rgb(68,68,68);stroke-width:0.217803;stroke-linecap:round;stroke-linejoin:round" />
<line x1="0.6383117" y1="2.8967355" x2="4.7624605" y2="0.5230626" style="fill:none;stroke:rgb(68,68,68);stroke-width:0.217803;stroke-linecap:round;stroke-linejoin:round" />
<line x1="4.7624605" y1="0.5230626" x2="8.862441" y2="2.8967355" style="fill:none;stroke:rgb(68,68,68);stroke-width:0.217803;stroke-linecap:round;stroke-linejoin:round" />
<line x1="12.1092724" y1="23.8402114" x2="8.8382727" y2="21.9822168" style="fill:none;stroke:rgb(68,68,68);stroke-width:0.217803;stroke-linecap:round;stroke-linejoin:round" />
<line x1="0.6383117" y1="7.6682497" x2="0.6383117" y2="2.8967355" style="fill:none;stroke:rgb(68,68,68);stroke-width:0.217803;stroke-linecap:round;stroke-linejoin:round" />
<line x1="29.4101048" y1="14.8370296" x2="25.3342926" y2="17.1629414" style="fill:none;stroke:rgb(68,68,68);stroke-width:0.217803;stroke-linecap:round;stroke-linejoin:round" />
<path d="M17.6548931,8.4206827 L17.3993292,8.4206827 L16.6628879,7.0312495 L16.6628879,8.4206827 L16.4699111,8.4206827 L16.4699111,6.86748 L16.7901483,6.86748 L17.4619163,8.1359115 L17.4619163,6.86748 L17.6548931,6.86748 Z" style="fill:rgb(68,68,68);stroke:none" />
<path d="M17.6580225,6.6892633 L17.4514851,6.6892633 L17.4514851,5.9288303 L16.6764484,5.9288303 L16.6764484,6.6892633 L16.4699111,6.6892633 L16.4699111,5.1360606 L16.6764484,5.1360606 L16.6764484,5.7452415 L17.4514851,5.7452415 L17.4514851,5.1360606 L17.6580225,5.1360606 Z" style="fill:rgb(68,68,68);stroke:none" />
<path d="M5.3307832,10.8185239 L5.0752193,10.8185239 L4.338778,9.4290908 L4.338778,10.8185239 L4.1458012,10.8185239 L4.1458012,9.2653213 L4.4660384,9.2653213 L5.1378064,10.5337527 L5.1378064,9.2653213 L5.3307832,9.2653213 Z" style="fill:rgb(68,68,68);stroke:none" />
<path d="M13.4876315,14.1910403 Q13.5825552,14.2953521 13.6331464,14.4466042 Q13.6837377,14.5978563 13.6837377,14.78979 Q13.6837377,14.9817237 13.6321033,15.1334974 Q13.580469,15.2852711 13.4876315,15.3864535 Q13.3916646,15.4918084 13.2607533,15.5450075 Q13.129842,15.5982065 12.9619,15.5982065 Q12.7981305,15.5982065 12.6640898,15.5439643 Q12.5300492,15.4897222 12.4361685,15.3864535 Q12.3422879,15.2831848 12.2916967,15.1329758 Q12.2411055,14.9827669 12.2411055,14.78979 Q12.2411055,14.5999426 12.2911751,14.449212 Q12.3412448,14.2984815 12.4372117,14.1910403 Q12.529006,14.0888147 12.6651329,14.0345726 Q12.8012598,13.9803305 12.9619,13.9803305 Q13.1287989,13.9803305 13.2617964,14.0350942 Q13.394794,14.0898579 13.4876315,14.1910403 Z M13.4688553,14.78979 Q13.4688553,14.4872858 13.33325,14.3229947 Q13.1976447,14.1587036 12.9629431,14.1587036 Q12.7261553,14.1587036 12.5910716,14.3229947 Q12.4559878,14.4872858 12.4559878,14.78979 Q12.4559878,15.0954236 12.5936794,15.2576284 Q12.7313709,15.4198333 12.9629431,15.4198333 Q13.1945153,15.4198333 13.3316853,15.2576284 Q13.4688553,15.0954236 13.4688553,14.78979 Z" style="fill:rgb(68,68,68);stroke:none" />
<path d="M17.634598,17.826886 Q17.5772265,17.8519208 17.5308077,17.8738263 Q17.484389,17.8957318 17.4092845,17.9197235 Q17.3456543,17.9395427 17.2710713,17.9536248 Q17.1964884,17.9677069 17.1067803,17.9677069 Q16.9377951,17.9677069 16.799582,17.9202451 Q16.6613689,17.8727832 16.5591433,17.7716008 Q16.459004,17.6725045 16.4026756,17.5196878 Q16.3463472,17.366871 16.3463472,17.1645061 Q16.3463472,16.9725724 16.4005894,16.8213203 Q16.4548315,16.6700682 16.5570571,16.5657564 Q16.6561533,16.4645739 16.7964527,16.4113749 Q16.936752,16.3581759 17.1078234,16.3581759 Q17.2329975,16.3581759 17.3576501,16.3884263 Q17.4823027,16.4186767 17.634598,16.4948243 L17.634598,16.7399571 L17.6189512,16.7399571 Q17.4906477,16.6325159 17.3644304,16.5834894 Q17.2382131,16.5344628 17.0942628,16.5344628 Q16.9763905,16.5344628 16.8819883,16.5725366 Q16.7875862,16.6106104 16.7135248,16.6909305 Q16.6415496,16.7691644 16.6013896,16.8886014 Q16.5612295,17.0080384 16.5612295,17.1645061 Q16.5612295,17.3282756 16.6055621,17.4461479 Q16.6498946,17.5640203 16.7197835,17.6380816 Q16.7928017,17.7152724 16.8903333,17.7523031 Q16.9878648,17.7893338 17.0963491,17.7893338 Q17.2455149,17.7893338 17.3759047,17.738221 Q17.5062944,17.6871082 17.6199943,17.5848826 L17.634598,17.5848826 Z" style="fill:rgb(68,68,68);stroke:none" />
<path d="M15.3759346,17.9395427 L15.1693972,17.9395427 L15.1693972,17.1791097 L14.3943606,17.1791097 L14.3943606,17.9395427 L14.1878232,17.9395427 L14.1878232,16.3863401 L14.3943606,16.3863401 L14.3943606,16.995521 L15.1693972,16.995521 L15.1693972,16.3863401 L15.3759346,16.3863401 Z" style="fill:rgb(68,68,68);stroke:none" />
<path d="M16.0992847,17.9567542 Q16.1293265,17.9836666 16.1487285,18.0243482 Q16.1681305,18.0650298 16.1681305,18.1294945 Q16.1681305,18.1933334 16.1449733,18.2465324 Q16.1218161,18.2997314 16.0798828,18.3391612 Q16.0329424,18.3829722 15.9694166,18.4039389 Q15.9058907,18.4249055 15.8301603,18.4249055 Q15.7525523,18.4249055 15.6774478,18.4064424 Q15.6023433,18.3879792 15.5541513,18.3660737 L15.5541513,18.2352667 L15.5635393,18.2352667 Q15.6167384,18.2703155 15.6887135,18.2934727 Q15.7606886,18.3166299 15.8276568,18.3166299 Q15.8670867,18.3166299 15.9115235,18.3034866 Q15.9559603,18.2903433 15.9834987,18.2646826 Q16.0122887,18.2371443 16.0263708,18.2039732 Q16.0404529,18.170802 16.0404529,18.1201065 Q16.0404529,18.0700368 16.0244932,18.0371786 Q16.0085335,18.0043204 15.9803693,17.9855443 Q15.9522051,17.9661423 15.9121494,17.9589447 Q15.8720936,17.9517472 15.8257792,17.9517472 L15.7694508,17.9517472 L15.7694508,17.8478527 L15.8132618,17.8478527 Q15.9083942,17.8478527 15.9650355,17.8081099 Q16.0216768,17.7683671 16.0216768,17.6920108 Q16.0216768,17.6582138 16.0072817,17.6328661 Q15.9928867,17.6075183 15.967226,17.5912457 Q15.9403136,17.574973 15.9096459,17.5687143 Q15.8789782,17.5624556 15.8401742,17.5624556 Q15.7807165,17.5624556 15.7137483,17.5837352 Q15.6467802,17.6050148 15.5873224,17.6438188 L15.5810637,17.6438188 L15.5810637,17.5130118 Q15.6255006,17.4911063 15.6996662,17.4726431 Q15.7738319,17.4541799 15.8433036,17.4541799 Q15.9115235,17.4541799 15.9634708,17.4666974 Q16.0154181,17.4792148 16.0573514,17.5067531 Q16.1024141,17.5367949 16.1255713,17.5793541 Q16.1487285,17.6219133 16.1487285,17.6788676 Q16.1487285,17.7564755 16.0939648,17.8143686 Q16.0392012,17.8722616 15.9647225,17.8872825 L15.9647225,17.8960447 Q15.9947643,17.9010517 16.0335683,17.9170114 Q16.0723723,17.9329711 16.0992847,17.9567542 Z" style="fill:rgb(68,68,68);stroke:none" />
<path d="M25.978418,3.5848484 Q25.9210465,3.6098832 25.8746277,3.6317887 Q25.828209,3.6536942 25.7531045,3.6776859 Q25.6894743,3.6975051 25.6148913,3.7115872 Q25.5403084,3.7256693 25.4506003,3.7256693 Q25.2816151,3.7256693 25.143402,3.6782075 Q25.0051889,3.6307456 24.9029633,3.5295632 Q24.802824,3.4304669 24.7464956,3.2776502 Q24.6901672,3.1248334 24.6901672,2.9224685 Q24.6901672,2.7305348 24.7444094,2.5792827 Q24.7986515,2.4280306 24.9008771,2.3237188 Q24.9999733,2.2225363 25.1402727,2.1693373 Q25.280572,2.1161383 25.4516434,2.1161383 Q25.5768175,2.1161383 25.7014701,2.1463887 Q25.8261227,2.1766391 25.978418,2.2527867 L25.978418,2.4979195 L25.9627712,2.4979195 Q25.8344677,2.3904783 25.7082504,2.3414518 Q25.5820331,2.2924252 25.4380828,2.2924252 Q25.3202105,2.2924252 25.2258083,2.330499 Q25.1314062,2.3685728 25.0573448,2.4488929 Q24.9853696,2.5271268 24.9452096,2.6465638 Q24.9050496,2.7660008 24.9050496,2.9224685 Q24.9050496,3.086238 24.9493821,3.2041103 Q24.9937146,3.3219827 25.0636035,3.3960441 Q25.1366217,3.4732348 25.2341533,3.5102655 Q25.3316848,3.5472962 25.4401691,3.5472962 Q25.589335,3.5472962 25.7197247,3.4961834 Q25.8501145,3.4450706 25.9638143,3.342845 L25.978418,3.342845 Z" style="fill:rgb(68,68,68);stroke:none" />
<path d="M27.3447461,3.6975051 L27.1382087,3.6975051 L27.1382087,2.9370721 L26.363172,2.9370721 L26.363172,3.6975051 L26.1566347,3.6975051 L26.1566347,2.1443025 L26.363172,2.1443025 L26.363172,2.7534834 L27.1382087,2.7534834 L27.1382087,2.1443025 L27.3447461,2.1443025 Z" style="fill:rgb(68,68,68);stroke:none" />
<path d="M28.0680962,3.7147166 Q28.098138,3.741629 28.11754,3.7823106 Q28.136942,3.8229922 28.136942,3.8874569 Q28.136942,3.9512958 28.1137848,4.0044948 Q28.0906276,4.0576938 28.0486942,4.0971237 Q28.0017539,4.1409346 27.938228,4.1619013 Q27.8747022,4.1828679 27.7989718,4.1828679 Q27.7213638,4.1828679 27.6462593,4.1644048 Q27.5711548,4.1459416 27.5229628,4.1240361 L27.5229628,3.9932291 L27.5323508,3.9932291 Q27.5855498,4.0282779 27.657525,4.0514351 Q27.7295001,4.0745923 27.7964683,4.0745923 Q27.8358982,4.0745923 27.880335,4.061449 Q27.9247718,4.0483057 27.9523101,4.022645 Q27.9811002,3.9951067 27.9951823,3.9619356 Q28.0092644,3.9287644 28.0092644,3.8780689 Q28.0092644,3.8279992 27.9933047,3.795141 Q27.977345,3.7622828 27.9491808,3.7435067 Q27.9210166,3.7241047 27.8809609,3.7169071 Q27.8409051,3.7097096 27.7945907,3.7097096 L27.7382623,3.7097096 L27.7382623,3.6058151 L27.7820733,3.6058151 Q27.8772056,3.6058151 27.9338469,3.5660723 Q27.9904883,3.5263295 27.9904883,3.4499733 Q27.9904883,3.4161762 27.9760932,3.3908285 Q27.9616982,3.3654807 27.9360375,3.3492081 Q27.909125,3.3329354 27.8784574,3.3266767 Q27.8477897,3.320418 27.8089857,3.320418 Q27.749528,3.320418 27.6825598,3.3416976 Q27.6155916,3.3629772 27.5561339,3.4017812 L27.5498752,3.4017812 L27.5498752,3.2709742 Q27.594312,3.2490687 27.6684777,3.2306055 Q27.7426434,3.2121423 27.8121151,3.2121423 Q27.880335,3.2121423 27.9322823,3.2246598 Q27.9842295,3.2371772 28.0261629,3.2647155 Q28.0712256,3.2947573 28.0943828,3.3373165 Q28.11754,3.3798757 28.11754,3.43683 Q28.11754,3.5144379 28.0627763,3.572331 Q28.0080126,3.630224 27.933534,3.6452449 L27.933534,3.6540071 Q27.9635758,3.6590141 28.0023798,3.6749738 Q28.0411838,3.6909335 28.0680962,3.7147166 Z" style="fill:rgb(68,68,68);stroke:none" />
<path d="M13.5346174,24.9479048 Q13.4772459,24.9729396 13.4308272,24.9948451 Q13.3844084,25.0167506 13.309304,25.0407423 Q13.2456738,25.0605615 13.1710908,25.0746436 Q13.0965079,25.0887257 13.0067997,25.0887257 Q12.8378146,25.0887257 12.6996015,25.0412639 Q12.5613884,24.993802 12.4591628,24.8926196 Q12.3590235,24.7935233 12.3026951,24.6407066 Q12.2463667,24.4878898 12.2463667,24.2855249 Q12.2463667,24.0935912 12.3006089,23.9423391 Q12.354851,23.791087 12.4570766,23.6867752 Q12.5561728,23.5855927 12.6964721,23.5323937 Q12.8367715,23.4791947 13.0078429,23.4791947 Q13.133017,23.4791947 13.2576696,23.5094451 Q13.3823222,23.5396955 13.5346174,23.6158431 L13.5346174,23.8609759 L13.5189707,23.8609759 Q13.3906672,23.7535347 13.2644499,23.7045082 Q13.1382326,23.6554816 12.9942823,23.6554816 Q12.87641,23.6554816 12.7820078,23.6935554 Q12.6876056,23.7316292 12.6135443,23.8119493 Q12.5415691,23.8901832 12.5014091,24.0096202 Q12.461249,24.1290572 12.461249,24.2855249 Q12.461249,24.4492944 12.5055815,24.5671667 Q12.5499141,24.6850391 12.619803,24.7591004 Q12.6928212,24.8362912 12.7903528,24.8733219 Q12.8878843,24.9103526 12.9963686,24.9103526 Q13.1455344,24.9103526 13.2759242,24.8592398 Q13.4063139,24.808127 13.5200138,24.7059014 L13.5346174,24.7059014 Z" style="fill:rgb(68,68,68);stroke:none" />
<path d="M14.9009455,25.0605615 L14.6944082,25.0605615 L14.6944082,24.3001285 L13.9193715,24.3001285 L13.9193715,25.0605615 L13.7128341,25.0605615 L13.7128341,23.5073589 L13.9193715,23.5073589 L13.9193715,24.1165398 L14.6944082,24.1165398 L14.6944082,23.5073589 L14.9009455,23.5073589 Z" style="fill:rgb(68,68,68);stroke:none" />
<path d="M15.6242957,25.077773 Q15.6543375,25.1046854 15.6737395,25.145367 Q15.6931415,25.1860486 15.6931415,25.2505133 Q15.6931415,25.3143522 15.6699843,25.3675512 Q15.6468271,25.4207502 15.6048937,25.46018 Q15.5579534,25.503991 15.4944275,25.5249577 Q15.4309016,25.5459243 15.3551713,25.5459243 Q15.2775633,25.5459243 15.2024588,25.5274612 Q15.1273543,25.508998 15.0791622,25.4870925 L15.0791622,25.3562855 L15.0885503,25.3562855 Q15.1417493,25.3913343 15.2137245,25.4144915 Q15.2856996,25.4376487 15.3526678,25.4376487 Q15.3920976,25.4376487 15.4365345,25.4245054 Q15.4809713,25.4113621 15.5085096,25.3857014 Q15.5372997,25.3581631 15.5513818,25.324992 Q15.5654638,25.2918208 15.5654638,25.2411253 Q15.5654638,25.1910556 15.5495041,25.1581974 Q15.5335444,25.1253392 15.5053803,25.106563 Q15.4772161,25.0871611 15.4371603,25.0799635 Q15.3971046,25.072766 15.3507902,25.072766 L15.2944618,25.072766 L15.2944618,24.9688715 L15.3382728,24.9688715 Q15.4334051,24.9688715 15.4900464,24.9291287 Q15.5466877,24.8893859 15.5466877,24.8130296 Q15.5466877,24.7792326 15.5322927,24.7538849 Q15.5178977,24.7285371 15.492237,24.7122645 Q15.4653245,24.6959918 15.4346569,24.6897331 Q15.4039892,24.6834744 15.3651852,24.6834744 Q15.3057275,24.6834744 15.2387593,24.704754 Q15.1717911,24.7260336 15.1123334,24.7648376 L15.1060747,24.7648376 L15.1060747,24.6340306 Q15.1505115,24.6121251 15.2246772,24.5936619 Q15.2988429,24.5751987 15.3683145,24.5751987 Q15.4365345,24.5751987 15.4884817,24.5877162 Q15.540429,24.6002336 15.5823624,24.6277719 Q15.6274251,24.6578137 15.6505823,24.7003729 Q15.6737395,24.7429321 15.6737395,24.7998864 Q15.6737395,24.8774943 15.6189758,24.9353874 Q15.5642121,24.9932804 15.4897335,25.0083013 L15.4897335,25.0170635 Q15.5197753,25.0220705 15.5585793,25.0380302 Q15.5973833,25.0539899 15.6242957,25.077773 Z" style="fill:rgb(68,68,68);stroke:none" />
<path d="M13.1726098,9.1883602 L12.7522333,9.1883602 L12.7522333,9.1090832 L12.9139166,9.1090832 L12.9139166,8.5885674 L12.7522333,8.5885674 L12.7522333,8.5176354 Q12.7850915,8.5176354 12.8226438,8.512159 Q12.860196,8.5066826 12.8794937,8.4962514 Q12.9034854,8.4832125 12.9173067,8.4631324 Q12.931128,8.4430524 12.9332143,8.4091511 L13.0140559,8.4091511 L13.0140559,9.1090832 L13.1726098,9.1090832 Z" style="fill:rgb(255,0,0);stroke:none" />
<path d="M20.3811036,10.6491001 Q20.4061384,10.6715272 20.4223067,10.7054285 Q20.4384751,10.7393299 20.4384751,10.7930504 Q20.4384751,10.8462494 20.4191774,10.890582 Q20.3998797,10.9349145 20.3649353,10.9677727 Q20.3258183,11.0042818 20.2728801,11.021754 Q20.2199419,11.0392263 20.1568332,11.0392263 Q20.0921599,11.0392263 20.0295728,11.0238403 Q19.9669857,11.0084543 19.9268257,10.9901997 L19.9268257,10.8811939 L19.9346491,10.8811939 Q19.9789816,10.9104012 20.0389609,10.9296989 Q20.0989402,10.9489966 20.154747,10.9489966 Q20.1876052,10.9489966 20.2246359,10.9380438 Q20.2616666,10.9270911 20.2846152,10.9057072 Q20.3086069,10.8827586 20.320342,10.855116 Q20.332077,10.8274733 20.332077,10.785227 Q20.332077,10.7435023 20.3187773,10.7161205 Q20.3054775,10.6887386 20.2820074,10.6730919 Q20.2585372,10.6569235 20.2251574,10.6509256 Q20.1917777,10.6449277 20.1531823,10.6449277 L20.106242,10.6449277 L20.106242,10.5583489 L20.1427511,10.5583489 Q20.2220281,10.5583489 20.2692292,10.5252299 Q20.3164303,10.4921109 20.3164303,10.4284807 Q20.3164303,10.4003165 20.3044344,10.3791934 Q20.2924386,10.3580702 20.2710546,10.3445097 Q20.2486276,10.3309492 20.2230712,10.3257336 Q20.1975148,10.320518 20.1651782,10.320518 Q20.1156301,10.320518 20.0598232,10.338251 Q20.0040164,10.355984 19.9544683,10.3883207 L19.9492527,10.3883207 L19.9492527,10.2793148 Q19.9862834,10.2610603 20.0480882,10.2456743 Q20.1098929,10.2302883 20.167786,10.2302883 Q20.2246359,10.2302883 20.2679253,10.2407195 Q20.3112147,10.2511506 20.3461591,10.2740992 Q20.3837114,10.2991341 20.4030091,10.3346001 Q20.4223067,10.3700661 20.4223067,10.417528 Q20.4223067,10.4822013 20.3766703,10.5304455 Q20.3310339,10.5786897 20.2689684,10.5912071 L20.2689684,10.5985089 Q20.2940032,10.6026814 20.3263399,10.6159812 Q20.3586766,10.6292809 20.3811036,10.6491001 Z" style="fill:rgb(255,0,0);stroke:none" />
<path d="M9.1216962,8.9644202 Q9.1216962,9.0186624 9.1018769,9.0682105 Q9.0820577,9.1177586 9.0476348,9.1516599 Q9.0100826,9.188169 8.9581874,9.2077275 Q8.9062923,9.227286 8.8379681,9.227286 Q8.7743379,9.227286 8.7154017,9.2139862 Q8.6564656,9.2006864 8.615784,9.1819103 L8.615784,9.0718614 L8.6230858,9.0718614 Q8.6658536,9.0989824 8.7232251,9.1180193 Q8.7805966,9.1370562 8.8358819,9.1370562 Q8.8729125,9.1370562 8.9075962,9.1266251 Q8.9422799,9.1161939 8.969401,9.0901159 Q8.9923496,9.0676889 9.0040846,9.0363954 Q9.0158197,9.0051018 9.0158197,8.9638987 Q9.0158197,8.9237386 9.0019984,8.896096 Q8.9881771,8.8684534 8.9636638,8.8517635 Q8.9365427,8.8319442 8.8976866,8.8238601 Q8.8588305,8.8157759 8.810847,8.8157759 Q8.7649498,8.8157759 8.7224428,8.8220346 Q8.6799357,8.8282933 8.6491637,8.834552 L8.6491637,8.4345163 L9.1164806,8.4345163 L9.1164806,8.5257891 L8.7498246,8.5257891 L8.7498246,8.7323265 Q8.7722517,8.7302402 8.7957218,8.7291971 Q8.819192,8.728154 8.8364034,8.728154 Q8.8995121,8.728154 8.9469739,8.738846 Q8.9944358,8.7495379 9.0340743,8.776659 Q9.075799,8.8053447 9.0987476,8.8507204 Q9.1216962,8.896096 9.1216962,8.9644202 Z" style="fill:rgb(255,0,0);stroke:none" />
<path d="M20.4414718,13.912319 L20.089941,14.5726127 L19.9783274,14.5726127 L20.3522852,13.8872842 L19.9100031,13.8872842 L19.9100031,13.7960113 L20.4414718,13.7960113 Z" style="fill:rgb(255,0,0);stroke:none" />
<path d="M26.6357867,7.25055 Q26.6357867,7.3512109 26.5572921,7.4179705 Q26.4787975,7.48473 26.359882,7.48473 Q26.2336648,7.48473 26.158821,7.4195351 Q26.0839773,7.3543403 26.0839773,7.2526363 Q26.0839773,7.1879629 26.1215296,7.1355463 Q26.1590818,7.0831296 26.227406,7.0523576 L26.227406,7.0492282 Q26.164819,7.0158485 26.1348293,6.97621 Q26.1048397,6.9365715 26.1048397,6.8771138 Q26.1048397,6.7894919 26.1768148,6.7310773 Q26.24879,6.6726627 26.359882,6.6726627 Q26.4761897,6.6726627 26.545557,6.7284695 Q26.6149244,6.7842763 26.6149244,6.8703335 Q26.6149244,6.923011 26.5820662,6.973863 Q26.5492079,7.024715 26.4855777,7.0534007 L26.4855777,7.0565301 Q26.558596,7.0878236 26.5971914,7.1337208 Q26.6357867,7.179618 26.6357867,7.25055 Z M26.5121773,6.8713766 Q26.5121773,6.8155698 26.4691486,6.7824508 Q26.42612,6.7493318 26.3593605,6.7493318 Q26.293644,6.7493318 26.2516585,6.7806254 Q26.209673,6.8119189 26.209673,6.8651179 Q26.209673,6.9026702 26.2307962,6.930052 Q26.2519193,6.9574339 26.2946872,6.9788178 Q26.3139848,6.9882058 26.3502332,7.0033311 Q26.3864815,7.0184563 26.4209044,7.0283659 Q26.4725388,6.993943 26.492358,6.9569123 Q26.5121773,6.9198816 26.5121773,6.8713766 Z M26.5283456,7.2604596 Q26.5283456,7.2124762 26.5072224,7.1835297 Q26.4860993,7.1545832 26.4245553,7.1253759 Q26.4000421,7.1139016 26.3708348,7.1039919 Q26.3416275,7.0940823 26.2931225,7.0763493 Q26.2461822,7.1019057 26.2177572,7.1457167 Q26.1893322,7.1895276 26.1893322,7.2448129 Q26.1893322,7.3152233 26.2378372,7.3611205 Q26.2863422,7.4070177 26.3609251,7.4070177 Q26.4370728,7.4070177 26.4827092,7.3679008 Q26.5283456,7.3287839 26.5283456,7.2604596 Z" style="fill:rgb(255,0,0);stroke:none" />
<path d="M6.0413393,14.1500467 Q6.0413393,14.2517508 6.0181299,14.3346786 Q5.9949206,14.4176065 5.9479803,14.4760211 Q5.9005184,14.5354788 5.8290648,14.5678155 Q5.7576112,14.6001522 5.6611228,14.6001522 Q5.6340017,14.6001522 5.61001,14.5972836 Q5.5860183,14.594415 5.5672422,14.5881563 L5.5672422,14.4885385 L5.5724578,14.4885385 Q5.587583,14.4963619 5.6152256,14.503403 Q5.6428682,14.510444 5.6767696,14.510444 Q5.7920341,14.510444 5.8574898,14.4413374 Q5.9229454,14.3722309 5.9333766,14.2507076 Q5.8848716,14.2799149 5.8421038,14.2924324 Q5.7993359,14.3049498 5.7487447,14.3049498 Q5.7007613,14.3049498 5.6619051,14.2955617 Q5.623049,14.2861736 5.5839321,14.2590526 Q5.5380349,14.2272375 5.5148255,14.1782109 Q5.4916161,14.1291844 5.4916161,14.0608602 Q5.4916161,13.9419447 5.56985,13.8673618 Q5.6480838,13.7927788 5.7607406,13.7927788 Q5.8170689,13.7927788 5.8650524,13.8102511 Q5.9130358,13.8277233 5.9490234,13.8626677 Q5.9933559,13.9059571 6.0173476,13.9740206 Q6.0413393,14.042084 6.0413393,14.1500467 Z M5.9359844,14.1276197 Q5.9359844,14.0467781 5.9192945,13.9977515 Q5.9026046,13.948725 5.8733973,13.9216039 Q5.848884,13.8981338 5.8207199,13.8879634 Q5.7925557,13.877793 5.7596975,13.877793 Q5.684593,13.877793 5.6410428,13.9247333 Q5.5974926,13.9716736 5.5974926,14.0566877 Q5.5974926,14.1062358 5.6115747,14.1375293 Q5.6256568,14.1688229 5.6590366,14.192293 Q5.6825067,14.2084614 5.7106709,14.2139377 Q5.7388351,14.2194141 5.773258,14.2194141 Q5.8139396,14.2194141 5.8556643,14.2084614 Q5.897389,14.1975086 5.9338982,14.1766463 Q5.9344197,14.1656935 5.9352021,14.1550016 Q5.9359844,14.1443096 5.9359844,14.1276197 Z" style="fill:rgb(255,0,0);stroke:none" />
<path d="M1.8766855,7.4650513 L1.4563089,7.4650513 L1.4563089,7.3857743 L1.6179922,7.3857743 L1.6179922,6.8652584 L1.4563089,6.8652584 L1.4563089,6.7943264 Q1.4891671,6.7943264 1.5267194,6.78885 Q1.5642716,6.7833737 1.5835693,6.7729425 Q1.607561,6.7599035 1.6213823,6.7398235 Q1.6352037,6.7197435 1.6372899,6.6858421 L1.7181315,6.6858421 L1.7181315,7.3857743 L1.8766855,7.3857743 Z M2.5990447,7.0764898 Q2.5990447,7.285635 2.533589,7.3834273 Q2.4681334,7.4812196 2.3304418,7.4812196 Q2.190664,7.4812196 2.1262515,7.3821234 Q2.0618389,7.2830272 2.0618389,7.0775329 Q2.0618389,6.870474 2.1270338,6.7716386 Q2.1922287,6.6728032 2.3304418,6.6728032 Q2.4702196,6.6728032 2.5346321,6.7732033 Q2.5990447,6.8736034 2.5990447,7.0764898 Z M2.4618747,7.3132776 Q2.4801292,7.2710313 2.4866487,7.2139206 Q2.4931682,7.1568099 2.4931682,7.0764898 Q2.4931682,6.9972129 2.4866487,6.9387982 Q2.4801292,6.8803836 2.4613531,6.839702 Q2.4430985,6.799542 2.4115442,6.7792012 Q2.3799899,6.7588604 2.3304418,6.7588604 Q2.2814153,6.7588604 2.2493394,6.7792012 Q2.2172635,6.799542 2.1984874,6.8407452 Q2.1807544,6.8793405 2.1742349,6.941406 Q2.1677154,7.0034716 2.1677154,7.0775329 Q2.1677154,7.1588961 2.1734525,7.2136598 Q2.1791897,7.2684235 2.1979658,7.3117129 Q2.2151773,7.3523945 2.2467316,7.3737784 Q2.2782859,7.3951624 2.3304418,7.3951624 Q2.3794683,7.3951624 2.411805,7.3748216 Q2.4441417,7.3544808 2.4618747,7.3132776 Z" style="fill:rgb(255,0,0);stroke:none" />
<path d="M30.6466277,15.8226359 L30.2262512,15.8226359 L30.2262512,15.7433589 L30.3879345,15.7433589 L30.3879345,15.222843 L30.2262512,15.222843 L30.2262512,15.151911 Q30.2591094,15.151911 30.2966617,15.1464346 Q30.3342139,15.1409583 30.3535116,15.1305271 Q30.3775033,15.1174881 30.3913246,15.0974081 Q30.4051459,15.0773281 30.4072322,15.0434267 L30.4880738,15.0434267 L30.4880738,15.7433589 L30.6466277,15.7433589 Z M31.3256976,15.8226359 L30.905321,15.8226359 L30.905321,15.7433589 L31.0670043,15.7433589 L31.0670043,15.222843 L30.905321,15.222843 L30.905321,15.151911 Q30.9381792,15.151911 30.9757315,15.1464346 Q31.0132837,15.1409583 31.0325814,15.1305271 Q31.0565731,15.1174881 31.0703944,15.0974081 Q31.0842157,15.0773281 31.086302,15.0434267 L31.1671436,15.0434267 L31.1671436,15.7433589 L31.3256976,15.7433589 Z" style="fill:rgb(255,0,0);stroke:none" />
<path d="M7.3737189,3.8859233 L6.9533424,3.8859233 L6.9533424,3.8066463 L7.1150257,3.8066463 L7.1150257,3.2861305 L6.9533424,3.2861305 L6.9533424,3.2151984 Q6.9862006,3.2151984 7.0237529,3.2097221 Q7.0613051,3.2042457 7.0806028,3.1938145 Q7.1045945,3.1807755 7.1184158,3.1606955 Q7.1322371,3.1406155 7.1343234,3.1067142 L7.215165,3.1067142 L7.215165,3.8066463 L7.3737189,3.8066463 Z M8.0971213,3.8859233 L7.5713898,3.8859233 L7.5713898,3.7769175 Q7.6261535,3.7299772 7.681178,3.6830369 Q7.7362024,3.6360966 7.7836643,3.5896778 Q7.8838036,3.4926678 7.9208343,3.4355571 Q7.957865,3.3784464 7.957865,3.3122084 Q7.957865,3.2517076 7.9179658,3.2175455 Q7.8780665,3.1833833 7.8066129,3.1833833 Q7.759151,3.1833833 7.7038658,3.2000732 Q7.6485805,3.2167631 7.5959031,3.251186 L7.5906875,3.251186 L7.5906875,3.1416586 Q7.6277182,3.1234041 7.6895229,3.1082788 Q7.7513277,3.0931536 7.8092207,3.0931536 Q7.9286577,3.0931536 7.9964604,3.1507859 Q8.0642631,3.2084182 8.0642631,3.3069928 Q8.0642631,3.3513253 8.0530495,3.3896599 Q8.041836,3.4279945 8.0199305,3.4624174 Q7.9995897,3.4947541 7.9722079,3.5260476 Q7.944826,3.5573411 7.9057091,3.5954149 Q7.8499023,3.6501786 7.7904446,3.7015522 Q7.7309869,3.7529258 7.6793525,3.7967367 L8.0971213,3.7967367 Z" style="fill:rgb(255,0,0);stroke:none" />
<path d="M30.6492387,9.8400445 L30.2288622,9.8400445 L30.2288622,9.7607676 L30.3905455,9.7607676 L30.3905455,9.2402517 L30.2288622,9.2402517 L30.2288622,9.1693197 Q30.2617204,9.1693197 30.2992726,9.1638433 Q30.3368249,9.1583669 30.3561226,9.1479358 Q30.3801143,9.1348968 30.3939356,9.1148168 Q30.4077569,9.0947367 30.4098431,9.0608354 L30.4906848,9.0608354 L30.4906848,9.7607676 L30.6492387,9.7607676 Z M31.3043168,9.4660867 Q31.3293516,9.4885138 31.34552,9.5224151 Q31.3616883,9.5563165 31.3616883,9.610037 Q31.3616883,9.663236 31.3423906,9.7075686 Q31.3230929,9.7519011 31.2881485,9.7847593 Q31.2490316,9.8212684 31.1960933,9.8387406 Q31.1431551,9.8562129 31.0800464,9.8562129 Q31.0153731,9.8562129 30.9527861,9.8408269 Q30.890199,9.8254409 30.8500389,9.8071863 L30.8500389,9.6981805 L30.8578623,9.6981805 Q30.9021948,9.7273878 30.9621741,9.7466855 Q31.0221534,9.7659832 31.0779602,9.7659832 Q31.1108184,9.7659832 31.1478491,9.7550304 Q31.1848798,9.7440777 31.2078284,9.7226938 Q31.2318201,9.6997452 31.2435552,9.6721025 Q31.2552903,9.6444599 31.2552903,9.6022136 Q31.2552903,9.5604889 31.2419905,9.5331071 Q31.2286908,9.5057252 31.2052206,9.4900785 Q31.1817505,9.4739101 31.1483707,9.4679122 Q31.1149909,9.4619143 31.0763955,9.4619143 L31.0294552,9.4619143 L31.0294552,9.3753355 L31.0659644,9.3753355 Q31.1452413,9.3753355 31.1924424,9.3422165 Q31.2396435,9.3090975 31.2396435,9.2454673 Q31.2396435,9.2173031 31.2276476,9.19618 Q31.2156518,9.1750568 31.1942679,9.1614963 Q31.1718408,9.1479358 31.1462844,9.1427202 Q31.1207281,9.1375046 31.0883914,9.1375046 Q31.0388433,9.1375046 30.9830365,9.1552376 Q30.9272297,9.1729706 30.8776816,9.2053072 L30.872466,9.2053072 L30.872466,9.0963014 Q30.9094967,9.0780469 30.9713014,9.0626609 Q31.0331061,9.0472749 31.0909992,9.0472749 Q31.1478491,9.0472749 31.1911385,9.0577061 Q31.2344279,9.0681372 31.2693724,9.0910858 Q31.3069246,9.1161207 31.3262223,9.1515867 Q31.34552,9.1870527 31.34552,9.2345146 Q31.34552,9.2991879 31.2998836,9.3474321 Q31.2542472,9.3956763 31.1921816,9.4081937 L31.1921816,9.4154955 Q31.2172165,9.419668 31.2495531,9.4329677 Q31.2818898,9.4462675 31.3043168,9.4660867 Z" style="fill:rgb(255,0,0);stroke:none" />
<path d="M25.1717278,18.7393804 L24.7513512,18.7393804 L24.7513512,18.6601035 L24.9130345,18.6601035 L24.9130345,18.1395876 L24.7513512,18.1395876 L24.7513512,18.0686556 Q24.7842094,18.0686556 24.8217617,18.0631792 Q24.8593139,18.0577028 24.8786116,18.0472716 Q24.9026033,18.0342327 24.9164246,18.0141526 Q24.9302459,17.9940726 24.9323322,17.9601713 L25.0131738,17.9601713 L25.0131738,18.6601035 L25.1717278,18.6601035 Z M25.9128631,18.5208472 L25.7975985,18.5208472 L25.7975985,18.7393804 L25.6974592,18.7393804 L25.6974592,18.5208472 L25.3255877,18.5208472 L25.3255877,18.4008886 L25.7016317,17.9627791 L25.7975985,17.9627791 L25.7975985,18.4373978 L25.9128631,18.4373978 Z M25.6974592,18.4373978 L25.6974592,18.0869101 L25.3965197,18.4373978 Z" style="fill:rgb(255,0,0);stroke:none" />
<path d="M7.350333,18.144045 L6.9299564,18.144045 L6.9299564,18.0647681 L7.0916397,18.0647681 L7.0916397,17.5442522 L6.9299564,17.5442522 L6.9299564,17.4733202 Q6.9628146,17.4733202 7.0003669,17.4678438 Q7.0379191,17.4623674 7.0572168,17.4519363 Q7.0812085,17.4388973 7.0950298,17.4188173 Q7.1088512,17.3987372 7.1109374,17.3648359 L7.191779,17.3648359 L7.191779,18.0647681 L7.350333,18.0647681 Z M8.0758215,17.4837514 L7.7242908,18.144045 L7.6126772,18.144045 L7.9866349,17.4587165 L7.5443529,17.4587165 L7.5443529,17.3674437 L8.0758215,17.3674437 Z" style="fill:rgb(255,0,0);stroke:none" />
<path d="M10.0742006,21.7747962 L9.6538241,21.7747962 L9.6538241,21.6955192 L9.8155074,21.6955192 L9.8155074,21.1750033 L9.6538241,21.1750033 L9.6538241,21.1040713 Q9.6866823,21.1040713 9.7242345,21.0985949 Q9.7617868,21.0931186 9.7810845,21.0826874 Q9.8050762,21.0696484 9.8188975,21.0495684 Q9.8327188,21.0294884 9.8348051,20.995587 L9.9156467,20.995587 L9.9156467,21.6955192 L10.0742006,21.6955192 Z M10.8033401,21.5583492 Q10.8033401,21.6590101 10.7248455,21.7257696 Q10.6463509,21.7925292 10.5274354,21.7925292 Q10.4012181,21.7925292 10.3263744,21.7273343 Q10.2515307,21.6621394 10.2515307,21.5604354 Q10.2515307,21.4957621 10.2890829,21.4433454 Q10.3266352,21.3909288 10.3949594,21.3601568 L10.3949594,21.3570274 Q10.3323723,21.3236476 10.3023827,21.2840092 Q10.2723931,21.2443707 10.2723931,21.184913 Q10.2723931,21.097291 10.3443682,21.0388764 Q10.4163433,20.9804618 10.5274354,20.9804618 Q10.6437431,20.9804618 10.7131104,21.0362686 Q10.7824777,21.0920755 10.7824777,21.1781327 Q10.7824777,21.2308101 10.7496195,21.2816621 Q10.7167613,21.3325142 10.6531311,21.3611999 L10.6531311,21.3643292 Q10.7261494,21.3956228 10.7647447,21.44152 Q10.8033401,21.4874172 10.8033401,21.5583492 Z M10.6797306,21.1791758 Q10.6797306,21.123369 10.636702,21.09025 Q10.5936734,21.057131 10.5269138,21.057131 Q10.4611974,21.057131 10.4192119,21.0884245 Q10.3772264,21.1197181 10.3772264,21.1729171 Q10.3772264,21.2104693 10.3983495,21.2378512 Q10.4194727,21.265233 10.4622405,21.286617 Q10.4815382,21.296005 10.5177866,21.3111302 Q10.5540349,21.3262554 10.5884578,21.3361651 Q10.6400921,21.3017422 10.6599114,21.2647115 Q10.6797306,21.2276808 10.6797306,21.1791758 Z M10.695899,21.5682588 Q10.695899,21.5202754 10.6747758,21.4913289 Q10.6536527,21.4623823 10.5921087,21.433175 Q10.5675954,21.4217007 10.5383881,21.4117911 Q10.5091808,21.4018815 10.4606758,21.3841485 Q10.4137355,21.4097049 10.3853106,21.4535158 Q10.3568856,21.4973268 10.3568856,21.552612 Q10.3568856,21.6230225 10.4053906,21.6689197 Q10.4538956,21.7148169 10.5284785,21.7148169 Q10.6046261,21.7148169 10.6502625,21.6757 Q10.695899,21.636583 10.695899,21.5682588 Z" style="fill:rgb(255,0,0);stroke:none" />
<path d="M1.8759304,3.8804508 L1.4555538,3.8804508 L1.4555538,3.8011738 L1.6172371,3.8011738 L1.6172371,3.280658 L1.4555538,3.280658 L1.4555538,3.2097259 Q1.488412,3.2097259 1.5259643,3.2042496 Q1.5635165,3.1987732 1.5828142,3.188342 Q1.6068059,3.1753031 1.6206272,3.155223 Q1.6344486,3.135143 1.6365348,3.1012417 L1.7173764,3.1012417 L1.7173764,3.8011738 L1.8759304,3.8011738 Z M2.5982896,3.4454706 Q2.5982896,3.5471746 2.5750802,3.6301025 Q2.5518708,3.7130304 2.5049305,3.771445 Q2.4574686,3.8309027 2.3860151,3.8632394 Q2.3145615,3.895576 2.2180731,3.895576 Q2.190952,3.895576 2.1669603,3.8927074 Q2.1429686,3.8898389 2.1241924,3.8835802 L2.1241924,3.7839624 L2.129408,3.7839624 Q2.1445332,3.7917858 2.1721759,3.7988268 Q2.1998185,3.8058679 2.2337198,3.8058679 Q2.3489844,3.8058679 2.41444,3.7367613 Q2.4798957,3.6676547 2.4903269,3.5461315 Q2.4418219,3.5753388 2.399054,3.5878562 Q2.3562862,3.6003736 2.305695,3.6003736 Q2.2577116,3.6003736 2.2188554,3.5909856 Q2.1799993,3.5815975 2.1408823,3.5544764 Q2.0949851,3.5226613 2.0717758,3.4736348 Q2.0485664,3.4246083 2.0485664,3.356284 Q2.0485664,3.2373686 2.1268002,3.1627856 Q2.2050341,3.0882027 2.3176908,3.0882027 Q2.3740192,3.0882027 2.4220026,3.1056749 Q2.4699861,3.1231472 2.5059736,3.1580916 Q2.5503061,3.201381 2.5742979,3.2694445 Q2.5982896,3.3375079 2.5982896,3.4454706 Z M2.4929347,3.4230436 Q2.4929347,3.3422019 2.4762448,3.2931754 Q2.4595549,3.2441488 2.4303476,3.2170278 Q2.4058343,3.1935576 2.3776701,3.1833872 Q2.3495059,3.1732168 2.3166477,3.1732168 Q2.2415432,3.1732168 2.197993,3.2201571 Q2.1544429,3.2670974 2.1544429,3.3521116 Q2.1544429,3.4016597 2.168525,3.4329532 Q2.1826071,3.4642467 2.2159868,3.4877169 Q2.239457,3.5038852 2.2676212,3.5093616 Q2.2957854,3.514838 2.3302083,3.514838 Q2.3708899,3.514838 2.4126146,3.5038852 Q2.4543393,3.4929325 2.4908484,3.4720701 Q2.49137,3.4611174 2.4921523,3.4504254 Q2.4929347,3.4397335 2.4929347,3.4230436 Z" style="fill:rgb(255,0,0);stroke:none" />
<path d="M4.6848028,2.0981987 L4.1590713,2.0981987 L4.1590713,1.9891929 Q4.213835,1.9422526 4.2688595,1.8953123 Q4.323884,1.848372 4.3713458,1.8019532 Q4.4714852,1.7049433 4.5085159,1.6478326 Q4.5455465,1.5907218 4.5455465,1.5244839 Q4.5455465,1.463983 4.5056473,1.4298209 Q4.465748,1.3956588 4.3942944,1.3956588 Q4.3468326,1.3956588 4.2915473,1.4123487 Q4.2362621,1.4290386 4.1835846,1.4634614 L4.178369,1.4634614 L4.178369,1.3539341 Q4.2153997,1.3356795 4.2772044,1.3205543 Q4.3390092,1.3054291 4.3969022,1.3054291 Q4.5163392,1.3054291 4.5841419,1.3630613 Q4.6519446,1.4206936 4.6519446,1.5192683 Q4.6519446,1.5636008 4.6407311,1.6019354 Q4.6295175,1.6402699 4.6076121,1.6746928 Q4.5872713,1.7070295 4.5598894,1.738323 Q4.5325076,1.7696166 4.4933906,1.8076904 Q4.4375838,1.8624541 4.3781261,1.9138276 Q4.3186684,1.9652012 4.267034,2.0090122 L4.6848028,2.0090122 Z M5.3628295,1.7096373 Q5.3628295,1.9187825 5.2973738,2.0165748 Q5.2319182,2.1143671 5.0942266,2.1143671 Q4.9544488,2.1143671 4.8900363,2.0152709 Q4.8256237,1.9161747 4.8256237,1.7106804 Q4.8256237,1.5036215 4.8908186,1.4047861 Q4.9560135,1.3059506 5.0942266,1.3059506 Q5.2340044,1.3059506 5.2984169,1.4063507 Q5.3628295,1.5067508 5.3628295,1.7096373 Z M5.2256595,1.9464251 Q5.243914,1.9041788 5.2504335,1.8470681 Q5.256953,1.7899574 5.256953,1.7096373 Q5.256953,1.6303603 5.2504335,1.5719457 Q5.243914,1.5135311 5.2251379,1.4728495 Q5.2068833,1.4326895 5.175329,1.4123487 Q5.1437747,1.3920079 5.0942266,1.3920079 Q5.0452001,1.3920079 5.0131242,1.4123487 Q4.9810483,1.4326895 4.9622722,1.4738926 Q4.9445392,1.512488 4.9380197,1.5745535 Q4.9315002,1.636619 4.9315002,1.7106804 Q4.9315002,1.7920436 4.9372373,1.8468073 Q4.9429745,1.901571 4.9617506,1.9448604 Q4.9789621,1.985542 5.0105164,2.0069259 Q5.0420707,2.0283098 5.0942266,2.0283098 Q5.1432531,2.0283098 5.1755898,2.007969 Q5.2079265,1.9876282 5.2256595,1.9464251 Z" style="fill:rgb(255,0,0);stroke:none" />
<path d="M17.3177201,9.8949936 L16.7919887,9.8949936 L16.7919887,9.7859877 Q16.8467524,9.7390474 16.9017768,9.6921071 Q16.9568013,9.6451668 17.0042632,9.5987481 Q17.1044025,9.5017381 17.1414332,9.4446274 Q17.1784639,9.3875167 17.1784639,9.3212787 Q17.1784639,9.2607778 17.1385646,9.2266157 Q17.0986654,9.1924536 17.0272118,9.1924536 Q16.9797499,9.1924536 16.9244647,9.2091435 Q16.8691794,9.2258334 16.8165019,9.2602563 L16.8112864,9.2602563 L16.8112864,9.1507289 Q16.848317,9.1324743 16.9101218,9.1173491 Q16.9719265,9.1022239 17.0298196,9.1022239 Q17.1492566,9.1022239 17.2170593,9.1598562 Q17.2848619,9.2174884 17.2848619,9.3160631 Q17.2848619,9.3603956 17.2736484,9.3987302 Q17.2624349,9.4370648 17.2405294,9.4714877 Q17.2201886,9.5038243 17.1928068,9.5351179 Q17.1654249,9.5664114 17.126308,9.6044852 Q17.0705012,9.6592489 17.0110435,9.7106225 Q16.9515857,9.761996 16.8999514,9.805807 L17.3177201,9.805807 Z" style="fill:rgb(255,0,0);stroke:none" />
<path d="M6.558759,11.0901105 L6.4434944,11.0901105 L6.4434944,11.3086437 L6.3433551,11.3086437 L6.3433551,11.0901105 L5.9714835,11.0901105 L5.9714835,10.9701519 L6.3475276,10.5320423 L6.4434944,10.5320423 L6.4434944,11.006661 L6.558759,11.006661 Z M6.3433551,11.006661 L6.3433551,10.6561734 L6.0424156,11.006661 Z" style="fill:rgb(255,0,0);stroke:none" />
<path d="M13.2372832,16.8117468 Q13.2372832,16.9301407 13.1593101,17.0049844 Q13.081337,17.0798281 12.9681587,17.0798281 Q12.9107872,17.0798281 12.8638469,17.0620951 Q12.8169066,17.0443621 12.780919,17.0094176 Q12.736065,16.9661282 12.7118125,16.8946746 Q12.68756,16.8232211 12.68756,16.7225602 Q12.68756,16.6192915 12.7097262,16.539493 Q12.7318925,16.4596944 12.7803975,16.3976289 Q12.8262947,16.3386928 12.8987914,16.3055738 Q12.9712881,16.2724548 13.0677765,16.2724548 Q13.0985485,16.2724548 13.1194108,16.2750626 Q13.1402732,16.2776703 13.1616571,16.2844506 L13.1616571,16.3840684 L13.1564415,16.3840684 Q13.1418379,16.376245 13.1123698,16.369204 Q13.0829017,16.3621629 13.0521297,16.3621629 Q12.9399945,16.3621629 12.873235,16.4323126 Q12.8064754,16.5024623 12.7955227,16.6218993 Q12.8393336,16.5952998 12.8818407,16.5814785 Q12.9243478,16.5676571 12.9801546,16.5676571 Q13.0297027,16.5676571 13.0675157,16.5767844 Q13.1053287,16.5859117 13.1449672,16.6135543 Q13.1908644,16.6453694 13.2140738,16.6938744 Q13.2372832,16.7423794 13.2372832,16.8117468 Z M13.1314067,16.8159192 Q13.1314067,16.7674142 13.1170638,16.7355991 Q13.1027209,16.703784 13.0698627,16.6803139 Q13.045871,16.663624 13.0166637,16.6584084 Q12.9874564,16.6531928 12.9556413,16.6531928 Q12.9113088,16.6531928 12.873235,16.663624 Q12.8351612,16.6740552 12.7950011,16.6959607 Q12.793958,16.707435 12.7934364,16.7181269 Q12.7929149,16.7288189 12.7929149,16.7449872 Q12.7929149,16.8273935 12.8098656,16.8751162 Q12.8268162,16.9228388 12.8565451,16.9504815 Q12.8805368,16.97343 12.9084402,16.984122 Q12.9363436,16.994814 12.9692018,16.994814 Q13.0448279,16.994814 13.0881173,16.948656 Q13.1314067,16.902498 13.1314067,16.8159192 Z" style="fill:rgb(255,0,0);stroke:none" />
<path d="M17.3316192,19.4131724 L16.9112427,19.4131724 L16.9112427,19.3338955 L17.072926,19.3338955 L17.072926,18.8133796 L16.9112427,18.8133796 L16.9112427,18.7424476 Q16.9441009,18.7424476 16.9816531,18.7369712 Q17.0192054,18.7314948 17.0385031,18.7210636 Q17.0624948,18.7080247 17.0763161,18.6879447 Q17.0901374,18.6678646 17.0922237,18.6339633 L17.1730653,18.6339633 L17.1730653,19.3338955 L17.3316192,19.3338955 Z M18.0487628,19.166475 Q18.0487628,19.2207172 18.0289436,19.2702653 Q18.0091244,19.3198134 17.9747015,19.3537147 Q17.9371492,19.3902238 17.8852541,19.4097823 Q17.833359,19.4293408 17.7650348,19.4293408 Q17.7014046,19.4293408 17.6424684,19.416041 Q17.5835322,19.4027413 17.5428506,19.3839651 L17.5428506,19.2739162 L17.5501525,19.2739162 Q17.5929203,19.3010373 17.6502918,19.3200742 Q17.7076633,19.3391111 17.7629485,19.3391111 Q17.7999792,19.3391111 17.8346629,19.3286799 Q17.8693466,19.3182487 17.8964676,19.2921707 Q17.9194162,19.2697437 17.9311513,19.2384502 Q17.9428864,19.2071566 17.9428864,19.1659535 Q17.9428864,19.1257934 17.9290651,19.0981508 Q17.9152437,19.0705082 17.8907305,19.0538183 Q17.8636094,19.033999 17.8247533,19.0259149 Q17.7858971,19.0178307 17.7379137,19.0178307 Q17.6920165,19.0178307 17.6495094,19.0240894 Q17.6070024,19.0303481 17.5762304,19.0366068 L17.5762304,18.6365711 L18.0435473,18.6365711 L18.0435473,18.7278439 L17.6768913,18.7278439 L17.6768913,18.9343813 Q17.6993183,18.932295 17.7227885,18.9312519 Q17.7462586,18.9302088 17.7634701,18.9302088 Q17.8265787,18.9302088 17.8740406,18.9409008 Q17.9215025,18.9515927 17.9611409,18.9787138 Q18.0028657,19.0073995 18.0258143,19.0527752 Q18.0487628,19.0981508 18.0487628,19.166475 Z" style="fill:rgb(255,0,0);stroke:none" />
<path d="M23.597586,2.0317305 L23.1772094,2.0317305 L23.1772094,1.9524536 L23.3388927,1.9524536 L23.3388927,1.4319377 L23.1772094,1.4319377 L23.1772094,1.3610057 Q23.2100676,1.3610057 23.2476199,1.3555293 Q23.2851721,1.3500529 23.3044698,1.3396218 Q23.3284615,1.3265828 23.3422828,1.3065028 Q23.3561042,1.2864227 23.3581904,1.2525214 L23.439032,1.2525214 L23.439032,1.9524536 L23.597586,1.9524536 Z M24.3324626,1.7798175 Q24.3324626,1.8982114 24.2544895,1.9730552 Q24.1765165,2.0478989 24.0633382,2.0478989 Q24.0059667,2.0478989 23.9590264,2.0301659 Q23.912086,2.0124329 23.8760985,1.9774884 Q23.8312444,1.934199 23.8069919,1.8627454 Q23.7827394,1.7912918 23.7827394,1.690631 Q23.7827394,1.5873623 23.8049057,1.5075637 Q23.8270719,1.4277652 23.8755769,1.3656997 Q23.9214741,1.3067635 23.9939708,1.2736445 Q24.0664675,1.2405255 24.1629559,1.2405255 Q24.1937279,1.2405255 24.2145903,1.2431333 Q24.2354526,1.2457411 24.2568365,1.2525214 L24.2568365,1.3521392 L24.251621,1.3521392 Q24.2370173,1.3443158 24.2075492,1.3372747 Q24.1780811,1.3302337 24.1473092,1.3302337 Q24.035174,1.3302337 23.9684144,1.4003834 Q23.9016549,1.4705331 23.8907021,1.5899701 Q23.9345131,1.5633706 23.9770201,1.5495492 Q24.0195272,1.5357279 24.075334,1.5357279 Q24.1248821,1.5357279 24.1626951,1.5448552 Q24.2005082,1.5539825 24.2401467,1.5816251 Q24.2860438,1.6134402 24.3092532,1.6619452 Q24.3324626,1.7104502 24.3324626,1.7798175 Z M24.2265861,1.78399 Q24.2265861,1.735485 24.2122432,1.7036699 Q24.1979004,1.6718548 24.1650422,1.6483847 Q24.1410504,1.6316948 24.1118431,1.6264792 Q24.0826358,1.6212636 24.0508207,1.6212636 Q24.0064882,1.6212636 23.9684144,1.6316948 Q23.9303406,1.642126 23.8901806,1.6640314 Q23.8891375,1.6755057 23.8886159,1.6861977 Q23.8880943,1.6968897 23.8880943,1.713058 Q23.8880943,1.7954643 23.905045,1.843187 Q23.9219957,1.8909096 23.9517245,1.9185522 Q23.9757162,1.9415008 24.0036196,1.9521928 Q24.0315231,1.9628847 24.0643813,1.9628847 Q24.1400073,1.9628847 24.1832967,1.9167268 Q24.2265861,1.8705688 24.2265861,1.78399 Z" style="fill:rgb(255,0,0);stroke:none" />
<path d="M12.3613516,26.4769374 L11.8356201,26.4769374 L11.8356201,26.3679316 Q11.8903838,26.3209913 11.9454083,26.274051 Q12.0004327,26.2271107 12.0478946,26.1806919 Q12.1480339,26.083682 12.1850646,26.0265712 Q12.2220953,25.9694605 12.2220953,25.9032225 Q12.2220953,25.8427217 12.1821961,25.8085596 Q12.1422968,25.7743975 12.0708432,25.7743975 Q12.0233813,25.7743975 11.9680961,25.7910874 Q11.9128108,25.8077772 11.8601334,25.8422001 L11.8549178,25.8422001 L11.8549178,25.7326727 Q11.8919485,25.7144182 11.9537532,25.699293 Q12.015558,25.6841678 12.073451,25.6841678 Q12.192888,25.6841678 12.2606907,25.7418 Q12.3284934,25.7994323 12.3284934,25.8980069 Q12.3284934,25.9423395 12.3172798,25.980674 Q12.3060663,26.0190086 12.2841608,26.0534315 Q12.26382,26.0857682 12.2364382,26.1170617 Q12.2090563,26.1483553 12.1699394,26.1864291 Q12.1141326,26.2411928 12.0546749,26.2925663 Q11.9952172,26.3439399 11.9435828,26.3877508 L12.3613516,26.3877508 Z M12.9960889,26.4769374 L12.5757123,26.4769374 L12.5757123,26.3976605 L12.7373956,26.3976605 L12.7373956,25.8771446 L12.5757123,25.8771446 L12.5757123,25.8062126 Q12.6085705,25.8062126 12.6461228,25.8007362 Q12.683675,25.7952598 12.7029727,25.7848286 Q12.7269644,25.7717897 12.7407857,25.7517097 Q12.754607,25.7316296 12.7566933,25.6977283 L12.8375349,25.6977283 L12.8375349,26.3976605 L12.9960889,26.3976605 Z" style="fill:rgb(255,0,0);stroke:none" />
</svg>
