<?xml version="1.0" encoding="UTF-8"?>
<!DOCTYPE svg PUBLIC "-//W3C//DTD SVG 1.1//EN" "http://www.w3.org/Graphics/SVG/1.1/DTD/svg11.dtd">
<svg version="1.2" xmlns="http://www.w3.org/2000/svg" xmlns:xlink="http://www.w3.org/1999/xlink" x="0mm" y="0mm" width="43mm" height="40mm" viewBox="0 0 43 40">
<style type="text/css"><![CDATA[
text { font:12px Dialog; }
]]></style>
<line x1="20.6818287" y1="18.257332" x2="16.4568477" y2="16.1444802" style="fill:none;stroke:rgb(68,68,68);stroke-width:0.2217803;stroke-linecap:round;stroke-linejoin:round" />
<line x1="12.407456" y1="18.4332825" x2="16.4568477" y2="16.1444802" style="fill:none;stroke:rgb(68,68,68);stroke-width:0.2217803;stroke-linecap:round;stroke-linejoin:round" />
<line x1="16.4568477" y1="11.2153358" x2="16.4568477" y2="16.1444802" style="fill:none;stroke:rgb(68,68,68);stroke-width:0.2217803;stroke-linecap:round;stroke-linejoin:round" />
<path d="M16.3896425,16.0562754 L16.524053,16.232685 L21.6007889,13.2169361 L20.2991555,13.2169361 L19.349952,13.2169361 Z" style="fill:rgb(68,68,68);stroke:none" />
<line x1="24.9071709" y1="15.9685297" x2="20.6818287" y2="18.257332" style="fill:none;stroke:rgb(68,68,68);stroke-width:0.2217803;stroke-linecap:round;stroke-linejoin:round" />
<line x1="20.6818287" y1="23.1864764" x2="20.6818287" y2="18.257332" style="fill:none;stroke:rgb(68,68,68);stroke-width:0.2217803;stroke-linecap:round;stroke-linejoin:round" />
<line x1="20.6818287" y1="18.3682222" x2="20.6818287" y2="18.1464418" style="fill:none;stroke:rgb(68,68,68);stroke-width:0.2217803;stroke-linecap:round;stroke-linejoin:round" />
<line x1="19.8720226" y1="18.6551351" x2="19.8720226" y2="18.2115744" style="fill:none;stroke:rgb(68,68,68);stroke-width:0.2217803;stroke-linecap:round;stroke-linejoin:round" />
<line x1="19.0622165" y1="18.9420481" x2="19.0622165" y2="18.2767071" style="fill:none;stroke:rgb(68,68,68);stroke-width:0.2217803;stroke-linecap:round;stroke-linejoin:round" />
<line x1="18.2524104" y1="19.2289611" x2="18.2524104" y2="18.3418397" style="fill:none;stroke:rgb(68,68,68);stroke-width:0.2217803;stroke-linecap:round;stroke-linejoin:round" />
<line x1="17.4426044" y1="19.5158741" x2="17.4426044" y2="18.4069724" style="fill:none;stroke:rgb(68,68,68);stroke-width:0.2217803;stroke-linecap:round;stroke-linejoin:round" />
<line x1="16.6327983" y1="19.8027871" x2="16.6327983" y2="18.472105" style="fill:none;stroke:rgb(68,68,68);stroke-width:0.2217803;stroke-linecap:round;stroke-linejoin:round" />
<line x1="12.3151888" y1="18.4947917" x2="12.4997233" y2="18.3717734" style="fill:none;stroke:rgb(68,68,68);stroke-width:0.2217803;stroke-linecap:round;stroke-linejoin:round" />
<line x1="11.8614072" y1="17.9390406" x2="12.1612758" y2="17.7391357" style="fill:none;stroke:rgb(68,68,68);stroke-width:0.2217803;stroke-linecap:round;stroke-linejoin:round" />
<line x1="11.4076256" y1="17.3832894" x2="11.8228283" y2="17.1064981" style="fill:none;stroke:rgb(68,68,68);stroke-width:0.2217803;stroke-linecap:round;stroke-linejoin:round" />
<line x1="10.953844" y1="16.8275382" x2="11.4843808" y2="16.4738604" style="fill:none;stroke:rgb(68,68,68);stroke-width:0.2217803;stroke-linecap:round;stroke-linejoin:round" />
<line x1="10.5000624" y1="16.2717871" x2="11.1459333" y2="15.8412228" style="fill:none;stroke:rgb(68,68,68);stroke-width:0.2217803;stroke-linecap:round;stroke-linejoin:round" />
<line x1="10.0462808" y1="15.7160359" x2="10.8074858" y2="15.2085852" style="fill:none;stroke:rgb(68,68,68);stroke-width:0.2217803;stroke-linecap:round;stroke-linejoin:round" />
<line x1="9.5924992" y1="15.1602848" x2="10.4690383" y2="14.5759475" style="fill:none;stroke:rgb(68,68,68);stroke-width:0.2217803;stroke-linecap:round;stroke-linejoin:round" />
<line x1="16.6327983" y1="25.6512293" x2="12.407456" y2="23.362427" style="fill:none;stroke:rgb(68,68,68);stroke-width:0.2217803;stroke-linecap:round;stroke-linejoin:round" />
<line x1="12.407456" y1="23.2515368" x2="12.407456" y2="23.4733172" style="fill:none;stroke:rgb(68,68,68);stroke-width:0.2217803;stroke-linecap:round;stroke-linejoin:round" />
<line x1="13.1116797" y1="22.9537925" x2="13.1116797" y2="23.3603898" style="fill:none;stroke:rgb(68,68,68);stroke-width:0.2217803;stroke-linecap:round;stroke-linejoin:round" />
<line x1="13.8159034" y1="22.6560481" x2="13.8159034" y2="23.2474624" style="fill:none;stroke:rgb(68,68,68);stroke-width:0.2217803;stroke-linecap:round;stroke-linejoin:round" />
<line x1="14.5201272" y1="22.3583038" x2="14.5201272" y2="23.134535" style="fill:none;stroke:rgb(68,68,68);stroke-width:0.2217803;stroke-linecap:round;stroke-linejoin:round" />
<line x1="15.2243509" y1="22.0605595" x2="15.2243509" y2="23.0216076" style="fill:none;stroke:rgb(68,68,68);stroke-width:0.2217803;stroke-linecap:round;stroke-linejoin:round" />
<line x1="15.9285746" y1="21.7628151" x2="15.9285746" y2="22.9086803" style="fill:none;stroke:rgb(68,68,68);stroke-width:0.2217803;stroke-linecap:round;stroke-linejoin:round" />
<line x1="16.6327983" y1="21.4650708" x2="16.6327983" y2="22.7957529" style="fill:none;stroke:rgb(68,68,68);stroke-width:0.2217803;stroke-linecap:round;stroke-linejoin:round" />
<line x1="12.407456" y1="8.574271" x2="16.4568477" y2="11.2153358" style="fill:none;stroke:rgb(68,68,68);stroke-width:0.2217803;stroke-linecap:round;stroke-linejoin:round" />
<line x1="16.4568477" y1="11.2153358" x2="20.6818287" y2="8.574271" style="fill:none;stroke:rgb(68,68,68);stroke-width:0.2217803;stroke-linecap:round;stroke-linejoin:round" />
<line x1="16.466786" y1="10.1829791" x2="19.811702" y2="8.0920491" style="fill:none;stroke:rgb(68,68,68);stroke-width:0.2217803;stroke-linecap:round;stroke-linejoin:round" />
<line x1="20.6818287" y1="23.1864764" x2="16.6327983" y2="25.6512293" style="fill:none;stroke:rgb(68,68,68);stroke-width:0.2217803;stroke-linecap:round;stroke-linejoin:round" />
<line x1="12.407456" y1="3.8210771" x2="12.407456" y2="8.574271" style="fill:none;stroke:rgb(68,68,68);stroke-width:0.2217803;stroke-linecap:round;stroke-linejoin:round" />
<line x1="13.2775827" y1="4.3208552" x2="13.2775827" y2="8.1029402" style="fill:none;stroke:rgb(68,68,68);stroke-width:0.2217803;stroke-linecap:round;stroke-linejoin:round" />
<line x1="9.7968273" y1="12.7802674" x2="12.407456" y2="8.574271" style="fill:none;stroke:rgb(68,68,68);stroke-width:0.2217803;stroke-linecap:round;stroke-linejoin:round" />
<path d="M24.9550161,15.8684923 L24.8593258,16.068567 L27.9132111,18.0218125 L28.1528161,17.5208325 L28.3924211,17.0198525 Z" style="fill:rgb(68,68,68);stroke:none" />
<line x1="24.9071709" y1="11.2153358" x2="24.9071709" y2="15.9685297" style="fill:none;stroke:rgb(68,68,68);stroke-width:0.2217803;stroke-linecap:round;stroke-linejoin:round" />
<line x1="28.9562013" y1="13.3278262" x2="28.9562013" y2="16.8925064" style="fill:none;stroke:rgb(68,68,68);stroke-width:0.2217803;stroke-linecap:round;stroke-linejoin:round" />
<line x1="34.7658211" y1="17.9050696" x2="29.7812922" y2="17.9050696" style="fill:none;stroke:rgb(68,68,68);stroke-width:0.2217803;stroke-linecap:round;stroke-linejoin:round" />
<line x1="24.9071709" y1="11.2153358" x2="20.6818287" y2="8.574271" style="fill:none;stroke:rgb(68,68,68);stroke-width:0.2217803;stroke-linecap:round;stroke-linejoin:round" />
<line x1="20.6818287" y1="3.8210771" x2="20.6818287" y2="8.574271" style="fill:none;stroke:rgb(68,68,68);stroke-width:0.2217803;stroke-linecap:round;stroke-linejoin:round" />
<line x1="16.6327983" y1="22.1304118" x2="16.6327983" y2="19.137446" style="fill:none;stroke:rgb(68,68,68);stroke-width:0.2217803;stroke-linecap:round;stroke-linejoin:round" />
<line x1="28.9562013" y1="13.3278262" x2="20.1536157" y2="13.3278262" style="fill:none;stroke:rgb(68,68,68);stroke-width:0.2217803;stroke-linecap:round;stroke-linejoin:round" />
<line x1="37.4065246" y1="13.3278262" x2="34.7658211" y2="17.9050696" style="fill:none;stroke:rgb(68,68,68);stroke-width:0.2217803;stroke-linecap:round;stroke-linejoin:round" />
<line x1="9.0425258" y1="1.8580573" x2="12.407456" y2="3.8210771" style="fill:none;stroke:rgb(68,68,68);stroke-width:0.2217803;stroke-linecap:round;stroke-linejoin:round" />
<line x1="16.6327983" y1="1.3563243" x2="12.407456" y2="3.8210771" style="fill:none;stroke:rgb(68,68,68);stroke-width:0.2217803;stroke-linecap:round;stroke-linejoin:round" />
<line x1="37.4065246" y1="8.2223699" x2="37.4065246" y2="13.3278262" style="fill:none;stroke:rgb(68,68,68);stroke-width:0.2217803;stroke-linecap:round;stroke-linejoin:round" />
<line x1="41.9837679" y1="10.8630734" x2="37.4065246" y2="13.3278262" style="fill:none;stroke:rgb(68,68,68);stroke-width:0.2217803;stroke-linecap:round;stroke-linejoin:round" />
<line x1="41.9837679" y1="10.8630734" x2="37.4065246" y2="8.2223699" style="fill:none;stroke:rgb(68,68,68);stroke-width:0.2217803;stroke-linecap:round;stroke-linejoin:round" />
<line x1="20.6818287" y1="3.8210771" x2="16.6327983" y2="1.3563243" style="fill:none;stroke:rgb(68,68,68);stroke-width:0.2217803;stroke-linecap:round;stroke-linejoin:round" />
<line x1="19.811702" y1="4.3100687" x2="16.6233061" y2="2.3692071" style="fill:none;stroke:rgb(68,68,68);stroke-width:0.2217803;stroke-linecap:round;stroke-linejoin:round" />
<line x1="12.407456" y1="23.362427" x2="12.407456" y2="18.4332825" style="fill:none;stroke:rgb(68,68,68);stroke-width:0.2217803;stroke-linecap:round;stroke-linejoin:round" />
<line x1="9.0014073" y1="25.3292515" x2="12.407456" y2="23.362427" style="fill:none;stroke:rgb(68,68,68);stroke-width:0.2217803;stroke-linecap:round;stroke-linejoin:round" />
<line x1="4.7180228" y1="23.8522897" x2="7.2770038" y2="25.3295078" style="fill:none;stroke:rgb(68,68,68);stroke-width:0.2217803;stroke-linecap:round;stroke-linejoin:round" />
<path d="M16.7284532,25.7073253 L16.5371434,25.5951333 L14.2871024,28.592506 L14.7490435,28.8634075 L15.2109846,29.1343089 Z" style="fill:rgb(68,68,68);stroke:none" />
<line x1="16.6327983" y1="25.6512293" x2="19.036131" y2="29.8455002" style="fill:none;stroke:rgb(68,68,68);stroke-width:0.2217803;stroke-linecap:round;stroke-linejoin:round" />
<line x1="19.036131" y1="29.8455002" x2="16.620153" y2="33.9989448" style="fill:none;stroke:rgb(68,68,68);stroke-width:0.2217803;stroke-linecap:round;stroke-linejoin:round" />
<line x1="16.620153" y1="33.9989448" x2="12.6925996" y2="33.9862467" style="fill:none;stroke:rgb(68,68,68);stroke-width:0.2217803;stroke-linecap:round;stroke-linejoin:round" />
<line x1="16.620153" y1="33.9989448" x2="18.5160638" y2="37.3078999" style="fill:none;stroke:rgb(68,68,68);stroke-width:0.2217803;stroke-linecap:round;stroke-linejoin:round" />
<line x1="16.620153" y1="33.9989448" x2="14.7355294" y2="37.2208637" style="fill:none;stroke:rgb(68,68,68);stroke-width:0.2217803;stroke-linecap:round;stroke-linejoin:round" />
<line x1="18.9812563" y1="29.7491395" x2="19.0910058" y2="29.9418609" style="fill:none;stroke:rgb(68,68,68);stroke-width:0.2217803;stroke-linecap:round;stroke-linejoin:round" />
<line x1="19.6302369" y1="29.2732211" x2="19.8314444" y2="29.6265438" style="fill:none;stroke:rgb(68,68,68);stroke-width:0.2217803;stroke-linecap:round;stroke-linejoin:round" />
<line x1="20.2792176" y1="28.7973027" x2="20.5718829" y2="29.3112266" style="fill:none;stroke:rgb(68,68,68);stroke-width:0.2217803;stroke-linecap:round;stroke-linejoin:round" />
<line x1="20.9281982" y1="28.3213843" x2="21.3123215" y2="28.9959095" style="fill:none;stroke:rgb(68,68,68);stroke-width:0.2217803;stroke-linecap:round;stroke-linejoin:round" />
<line x1="21.5771789" y1="27.8454659" x2="22.0527601" y2="28.6805923" style="fill:none;stroke:rgb(68,68,68);stroke-width:0.2217803;stroke-linecap:round;stroke-linejoin:round" />
<line x1="19.036131" y1="29.8455002" x2="22.409284" y2="31.7664168" style="fill:none;stroke:rgb(68,68,68);stroke-width:0.2217803;stroke-linecap:round;stroke-linejoin:round" />
<path d="M9.7733405,13.0705749 Q9.8699976,13.1767915 9.9215127,13.3308057 Q9.9730277,13.4848198 9.9730277,13.6802584 Q9.9730277,13.875697 9.9204505,14.0302423 Q9.8678733,14.1847875 9.7733405,14.2878176 Q9.6756211,14.3950964 9.5423193,14.4492669 Q9.4090174,14.5034374 9.2380086,14.5034374 Q9.0712485,14.5034374 8.9347601,14.4482047 Q8.7982717,14.3929721 8.7026767,14.2878176 Q8.6070817,14.1826631 8.5555667,14.0297112 Q8.5040516,13.8767592 8.5040516,13.6802584 Q8.5040516,13.4869441 8.5550356,13.3334611 Q8.6060196,13.179978 8.7037389,13.0705749 Q8.7972095,12.9664826 8.9358222,12.9112499 Q9.074435,12.8560173 9.2380086,12.8560173 Q9.4079552,12.8560173 9.5433814,12.911781 Q9.6788076,12.9675448 9.7733405,13.0705749 Z M9.7542215,13.6802584 Q9.7542215,13.3722302 9.6161398,13.204939 Q9.4780582,13.0376477 9.2390708,13.0376477 Q8.997959,13.0376477 8.8604084,13.204939 Q8.7228579,13.3722302 8.7228579,13.6802584 Q8.7228579,13.9914732 8.8630638,14.1566401 Q9.0032698,14.3218069 9.2390708,14.3218069 Q9.4748717,14.3218069 9.6145466,14.1566401 Q9.7542215,13.9914732 9.7542215,13.6802584 Z" style="fill:rgb(68,68,68);stroke:none" />
<path d="M29.5595119,18.6958525 L29.2992811,18.6958525 L28.5493916,17.2810468 L28.5493916,18.6958525 L28.3528908,18.6958525 L28.3528908,17.1142867 L28.6789759,17.1142867 L29.3630111,18.405881 L29.3630111,17.1142867 L29.5595119,17.1142867 Z" style="fill:rgb(68,68,68);stroke:none" />
<path d="M8.7172759,0.7471718 Q8.813933,0.8533885 8.8654481,1.0074026 Q8.9169631,1.1614167 8.9169631,1.3568554 Q8.9169631,1.552294 8.8643859,1.7068392 Q8.8118087,1.8613844 8.7172759,1.9644145 Q8.6195566,2.0716933 8.4862547,2.1258638 Q8.3529528,2.1800343 8.181944,2.1800343 Q8.0151839,2.1800343 7.8786955,2.1248017 Q7.7422071,2.069569 7.6466121,1.9644145 Q7.5510171,1.8592601 7.4995021,1.7063081 Q7.447987,1.5533561 7.447987,1.3568554 Q7.447987,1.1635411 7.498971,1.010058 Q7.549955,0.856575 7.6476743,0.7471718 Q7.7411449,0.6430795 7.8797577,0.5878469 Q8.0183704,0.5326142 8.181944,0.5326142 Q8.3518906,0.5326142 8.4873168,0.588378 Q8.622743,0.6441417 8.7172759,0.7471718 Z M8.6981569,1.3568554 Q8.6981569,1.0488271 8.5600752,0.8815359 Q8.4219936,0.7142447 8.1830062,0.7142447 Q7.9418944,0.7142447 7.8043438,0.8815359 Q7.6667933,1.0488271 7.6667933,1.3568554 Q7.6667933,1.6680701 7.8069993,1.833237 Q7.9472052,1.9984039 8.1830062,1.9984039 Q8.4188071,1.9984039 8.558482,1.833237 Q8.6981569,1.6680701 8.6981569,1.3568554 Z" style="fill:rgb(68,68,68);stroke:none" />
<path d="M7.2665159,2.1471072 L7.0562069,2.1471072 L7.0562069,1.3727879 L6.2670173,1.3727879 L6.2670173,2.1471072 L6.0567083,2.1471072 L6.0567083,0.5655414 L6.2670173,0.5655414 L6.2670173,1.1858466 L7.0562069,1.1858466 L7.0562069,0.5655414 L7.2665159,0.5655414 Z" style="fill:rgb(68,68,68);stroke:none" />
<path d="M8.6739205,25.2180274 Q8.7705776,25.3242441 8.8220927,25.4782582 Q8.8736078,25.6322723 8.8736078,25.8277109 Q8.8736078,26.0231496 8.8210305,26.1776948 Q8.7684533,26.33224 8.6739205,26.4352701 Q8.5762012,26.5425489 8.4428993,26.5967194 Q8.3095974,26.6508899 8.1385886,26.6508899 Q7.9718285,26.6508899 7.8353401,26.5956572 Q7.6988517,26.5404246 7.6032568,26.4352701 Q7.5076618,26.3301156 7.4561467,26.1771637 Q7.4046316,26.0242117 7.4046316,25.8277109 Q7.4046316,25.6343967 7.4556156,25.4809136 Q7.5065996,25.3274306 7.6043189,25.2180274 Q7.6977896,25.1139351 7.8364023,25.0587025 Q7.975015,25.0034698 8.1385886,25.0034698 Q8.3085352,25.0034698 8.4439615,25.0592335 Q8.5793877,25.1149973 8.6739205,25.2180274 Z M8.6548015,25.8277109 Q8.6548015,25.5196827 8.5167199,25.3523915 Q8.3786382,25.1851003 8.1396508,25.1851003 Q7.898539,25.1851003 7.7609885,25.3523915 Q7.6234379,25.5196827 7.6234379,25.8277109 Q7.6234379,26.1389257 7.7636439,26.3040926 Q7.9038498,26.4692594 8.1396508,26.4692594 Q8.3754517,26.4692594 8.5151266,26.3040926 Q8.6548015,26.1389257 8.6548015,25.8277109 Z" style="fill:rgb(68,68,68);stroke:none" />
<path d="M4.5259485,24.0388572 Q4.4675294,24.0643492 4.420263,24.0866547 Q4.3729966,24.1089602 4.2965206,24.13339 Q4.2317284,24.1535712 4.1557835,24.1679104 Q4.0798387,24.1822497 3.9884923,24.1822497 Q3.8164214,24.1822497 3.6756843,24.1339211 Q3.5349473,24.0855925 3.430855,23.9825624 Q3.328887,23.8816566 3.27153,23.7260492 Q3.214173,23.5704418 3.214173,23.3643815 Q3.214173,23.1689429 3.2694057,23.0149288 Q3.3246383,22.8609147 3.4287306,22.754698 Q3.5296365,22.6516679 3.6724978,22.5974974 Q3.8153592,22.5433269 3.9895545,22.5433269 Q4.1170145,22.5433269 4.2439434,22.5741297 Q4.3708722,22.6049325 4.5259485,22.6824707 L4.5259485,22.9320798 L4.510016,22.9320798 Q4.3793696,22.8226767 4.2508474,22.7727548 Q4.1223253,22.722833 3.9757463,22.722833 Q3.8557215,22.722833 3.7595955,22.7616021 Q3.6634694,22.8003712 3.5880556,22.882158 Q3.5147661,22.9618205 3.4738727,23.0834385 Q3.4329793,23.2050566 3.4329793,23.3643815 Q3.4329793,23.5311417 3.4781214,23.6511665 Q3.5232635,23.7711913 3.5944286,23.8466051 Q3.6687803,23.9252054 3.7680928,23.9629123 Q3.8674054,24.0006192 3.9778707,24.0006192 Q4.1297605,24.0006192 4.2625313,23.948573 Q4.3953021,23.8965269 4.5110782,23.7924346 L4.5259485,23.7924346 Z" style="fill:rgb(68,68,68);stroke:none" />
<path d="M2.2260396,24.1535712 L2.0157307,24.1535712 L2.0157307,23.3792519 L1.226541,23.3792519 L1.226541,24.1535712 L1.0162321,24.1535712 L1.0162321,22.5720054 L1.226541,22.5720054 L1.226541,23.1923106 L2.0157307,23.1923106 L2.0157307,22.5720054 L2.2260396,22.5720054 Z" style="fill:rgb(68,68,68);stroke:none" />
<path d="M2.9625989,24.1710969 Q2.9931893,24.1985008 3.0129456,24.2399253 Q3.0327019,24.2813498 3.0327019,24.3469917 Q3.0327019,24.4119962 3.0091218,24.4661667 Q2.9855417,24.5203372 2.9428426,24.5604871 Q2.8950451,24.6050981 2.8303592,24.6264476 Q2.7656733,24.6477972 2.68856,24.6477972 Q2.6095348,24.6477972 2.5330588,24.6289968 Q2.4565828,24.6101965 2.4075108,24.587891 L2.4075108,24.4546953 L2.4170703,24.4546953 Q2.4712407,24.4903841 2.5445302,24.5139642 Q2.6178197,24.5375443 2.6860108,24.5375443 Q2.7261607,24.5375443 2.771409,24.524161 Q2.8166573,24.5107777 2.8446985,24.4846484 Q2.8740142,24.4566072 2.8883535,24.4228303 Q2.9026927,24.3890535 2.9026927,24.3374322 Q2.9026927,24.2864482 2.8864416,24.2529899 Q2.8701904,24.2195317 2.841512,24.2004127 Q2.8128335,24.1806564 2.7720463,24.1733275 Q2.7312591,24.1659985 2.6840989,24.1659985 L2.6267419,24.1659985 L2.6267419,24.0602067 L2.6713529,24.0602067 Q2.7682225,24.0602067 2.8258981,24.0197382 Q2.8835737,23.9792697 2.8835737,23.9015191 Q2.8835737,23.8671049 2.8689158,23.8412942 Q2.8542579,23.8154836 2.8281287,23.7989138 Q2.8007248,23.782344 2.7694971,23.775971 Q2.7382694,23.769598 2.6987568,23.769598 Q2.6382133,23.769598 2.5700222,23.7912662 Q2.5018311,23.8129344 2.4412877,23.852447 L2.4349147,23.852447 L2.4349147,23.7192513 Q2.4801629,23.6969458 2.555683,23.6781455 Q2.631203,23.6593451 2.7019433,23.6593451 Q2.771409,23.6593451 2.8243049,23.6720911 Q2.8772007,23.6848371 2.9198998,23.7128783 Q2.9657854,23.7434687 2.9893655,23.7868051 Q3.0129456,23.8301415 3.0129456,23.8881358 Q3.0129456,23.967161 2.9571819,24.0261112 Q2.9014181,24.0850614 2.8255795,24.1003566 L2.8255795,24.1092788 Q2.8561698,24.1143772 2.8956824,24.1306284 Q2.935195,24.1468795 2.9625989,24.1710969 Z" style="fill:rgb(68,68,68);stroke:none" />
<path d="M14.7780073,30.6362831 L14.5676984,30.6362831 L14.5676984,29.8619638 L13.7785087,29.8619638 L13.7785087,30.6362831 L13.5681998,30.6362831 L13.5681998,29.0547173 L13.7785087,29.0547173 L13.7785087,29.6750225 L14.5676984,29.6750225 L14.5676984,29.0547173 L14.7780073,29.0547173 Z" style="fill:rgb(68,68,68);stroke:none" />
<path d="M12.4708204,34.659478 Q12.4124012,34.68497 12.3651348,34.7072755 Q12.3178684,34.729581 12.2413924,34.7540108 Q12.1766003,34.774192 12.1006554,34.7885313 Q12.0247105,34.8028705 11.9333642,34.8028705 Q11.7612932,34.8028705 11.6205562,34.7545419 Q11.4798191,34.7062134 11.3757268,34.6031832 Q11.2737588,34.5022774 11.2164019,34.34667 Q11.1590449,34.1910627 11.1590449,33.9850024 Q11.1590449,33.7895638 11.2142775,33.6355496 Q11.2695102,33.4815355 11.3736025,33.3753189 Q11.4745083,33.2722887 11.6173697,33.2181182 Q11.7602311,33.1639477 11.9344263,33.1639477 Q12.0618863,33.1639477 12.1888152,33.1947506 Q12.3157441,33.2255534 12.4708204,33.3030915 L12.4708204,33.5527006 L12.4548879,33.5527006 Q12.3242414,33.4432975 12.1957193,33.3933757 Q12.0671971,33.3434539 11.9206182,33.3434539 Q11.8005934,33.3434539 11.7044673,33.3822229 Q11.6083413,33.420992 11.5329274,33.5027788 Q11.459638,33.5824413 11.4187446,33.7040594 Q11.3778511,33.8256774 11.3778511,33.9850024 Q11.3778511,34.1517625 11.4229932,34.2717873 Q11.4681353,34.3918121 11.5393004,34.4672259 Q11.6136521,34.5458262 11.7129646,34.5835331 Q11.8122772,34.62124 11.9227425,34.62124 Q12.0746323,34.62124 12.2074031,34.5691939 Q12.3401739,34.5171477 12.45595,34.4130554 L12.4708204,34.4130554 Z" style="fill:rgb(68,68,68);stroke:none" />
<path d="M10.1709115,34.774192 L9.9606025,34.774192 L9.9606025,33.9998727 L9.1714129,33.9998727 L9.1714129,34.774192 L8.9611039,34.774192 L8.9611039,33.1926262 L9.1714129,33.1926262 L9.1714129,33.8129314 L9.9606025,33.8129314 L9.9606025,33.1926262 L10.1709115,33.1926262 Z" style="fill:rgb(68,68,68);stroke:none" />
<path d="M10.9074708,34.7917178 Q10.9380611,34.8191216 10.9578174,34.8605461 Q10.9775737,34.9019706 10.9775737,34.9676125 Q10.9775737,35.0326171 10.9539936,35.0867876 Q10.9304135,35.1409581 10.8877145,35.181108 Q10.839917,35.2257189 10.775231,35.2470685 Q10.7105451,35.268418 10.6334318,35.268418 Q10.5544066,35.268418 10.4779307,35.2496177 Q10.4014547,35.2308173 10.3523826,35.2085119 L10.3523826,35.0753162 L10.3619421,35.0753162 Q10.4161126,35.111005 10.4894021,35.1345851 Q10.5626915,35.1581652 10.6308826,35.1581652 Q10.6710325,35.1581652 10.7162808,35.1447819 Q10.7615291,35.1313986 10.7895703,35.1052693 Q10.8188861,35.0772281 10.8332253,35.0434512 Q10.8475646,35.0096743 10.8475646,34.958053 Q10.8475646,34.907069 10.8313134,34.8736108 Q10.8150623,34.8401525 10.7863838,34.8210335 Q10.7577053,34.8012773 10.7169181,34.7939483 Q10.6761309,34.7866194 10.6289707,34.7866194 L10.5716137,34.7866194 L10.5716137,34.6808276 L10.6162247,34.6808276 Q10.7130943,34.6808276 10.7707699,34.640359 Q10.8284456,34.5998905 10.8284456,34.5221399 Q10.8284456,34.4877257 10.8137877,34.4619151 Q10.7991298,34.4361044 10.7730005,34.4195346 Q10.7455966,34.4029649 10.7143689,34.3965919 Q10.6831412,34.3902189 10.6436286,34.3902189 Q10.5830851,34.3902189 10.5148941,34.411887 Q10.446703,34.4335552 10.3861595,34.4730678 L10.3797865,34.4730678 L10.3797865,34.3398722 Q10.4250348,34.3175667 10.5005548,34.2987663 Q10.5760748,34.279966 10.6468151,34.279966 Q10.7162808,34.279966 10.7691767,34.292712 Q10.8220726,34.305458 10.8647717,34.3334992 Q10.9106573,34.3640896 10.9342373,34.407426 Q10.9578174,34.4507623 10.9578174,34.5087566 Q10.9578174,34.5877818 10.9020537,34.646732 Q10.84629,34.7056823 10.7704513,34.7209775 L10.7704513,34.7298997 Q10.8010417,34.7349981 10.8405543,34.7512492 Q10.8800669,34.7675004 10.9074708,34.7917178 Z" style="fill:rgb(68,68,68);stroke:none" />
<path d="M19.6649217,38.8443553 Q19.6065025,38.8698473 19.5592361,38.8921528 Q19.5119697,38.9144583 19.4354937,38.9388881 Q19.3707016,38.9590692 19.2947567,38.9734085 Q19.2188118,38.9877477 19.1274655,38.9877477 Q18.9553945,38.9877477 18.8146575,38.9394192 Q18.6739204,38.8910906 18.5698281,38.7880605 Q18.4678602,38.6871546 18.4105032,38.5315473 Q18.3531462,38.3759399 18.3531462,38.1698796 Q18.3531462,37.974441 18.4083788,37.8204269 Q18.4636115,37.6664127 18.5677038,37.5601961 Q18.6686096,37.457166 18.811471,37.4029955 Q18.9543324,37.348825 19.1285277,37.348825 Q19.2559876,37.348825 19.3829165,37.3796278 Q19.5098454,37.4104306 19.6649217,37.4879688 L19.6649217,37.7375779 L19.6489892,37.7375779 Q19.5183427,37.6281747 19.3898206,37.5782529 Q19.2612985,37.5283311 19.1147195,37.5283311 Q18.9946947,37.5283311 18.8985686,37.5671002 Q18.8024426,37.6058692 18.7270288,37.6876561 Q18.6537393,37.7673185 18.6128459,37.8889366 Q18.5719525,38.0105546 18.5719525,38.1698796 Q18.5719525,38.3366397 18.6170945,38.4566645 Q18.6622366,38.5766893 18.7334018,38.6521032 Q18.8077534,38.7307035 18.907066,38.7684104 Q19.0063785,38.8061173 19.1168438,38.8061173 Q19.2687336,38.8061173 19.4015044,38.7540711 Q19.5342752,38.702025 19.6500514,38.5979327 L19.6649217,38.5979327 Z" style="fill:rgb(68,68,68);stroke:none" />
<path d="M21.0562004,38.9590692 L20.8458914,38.9590692 L20.8458914,38.1847499 L20.0567018,38.1847499 L20.0567018,38.9590692 L19.8463928,38.9590692 L19.8463928,37.3775035 L20.0567018,37.3775035 L20.0567018,37.9978087 L20.8458914,37.9978087 L20.8458914,37.3775035 L21.0562004,37.3775035 Z" style="fill:rgb(68,68,68);stroke:none" />
<path d="M21.7927596,38.976595 Q21.82335,39.0039989 21.8431063,39.0454234 Q21.8628626,39.0868479 21.8628626,39.1524897 Q21.8628626,39.2174943 21.8392825,39.2716648 Q21.8157024,39.3258353 21.7730033,39.3659852 Q21.7252059,39.4105962 21.6605199,39.4319457 Q21.595834,39.4532953 21.5187207,39.4532953 Q21.4396955,39.4532953 21.3632196,39.4344949 Q21.2867436,39.4156946 21.2376715,39.3933891 L21.2376715,39.2601934 L21.247231,39.2601934 Q21.3014015,39.2958822 21.3746909,39.3194623 Q21.4479804,39.3430424 21.5161715,39.3430424 Q21.5563214,39.3430424 21.6015697,39.3296591 Q21.646818,39.3162758 21.6748592,39.2901465 Q21.704175,39.2621053 21.7185142,39.2283284 Q21.7328535,39.1945515 21.7328535,39.1429303 Q21.7328535,39.0919463 21.7166023,39.058488 Q21.7003512,39.0250298 21.6716727,39.0059108 Q21.6429942,38.9861545 21.602207,38.9788255 Q21.5614198,38.9714966 21.5142596,38.9714966 L21.4569026,38.9714966 L21.4569026,38.8657048 L21.5015136,38.8657048 Q21.5983832,38.8657048 21.6560588,38.8252363 Q21.7137345,38.7847677 21.7137345,38.7070172 Q21.7137345,38.672603 21.6990766,38.6467923 Q21.6844187,38.6209817 21.6582894,38.6044119 Q21.6308855,38.5878421 21.5996578,38.5814691 Q21.5684301,38.5750961 21.5289175,38.5750961 Q21.468374,38.5750961 21.4001829,38.5967643 Q21.3319919,38.6184325 21.2714484,38.6579451 L21.2650754,38.6579451 L21.2650754,38.5247494 Q21.3103237,38.5024439 21.3858437,38.4836436 Q21.4613637,38.4648432 21.532104,38.4648432 Q21.6015697,38.4648432 21.6544656,38.4775892 Q21.7073615,38.4903352 21.7500606,38.5183764 Q21.7959461,38.5489668 21.8195262,38.5923032 Q21.8431063,38.6356396 21.8431063,38.6936339 Q21.8431063,38.772659 21.7873426,38.8316093 Q21.7315789,38.8905595 21.6557402,38.9058547 L21.6557402,38.9147769 Q21.6863306,38.9198753 21.7258432,38.9361265 Q21.7653558,38.9523776 21.7927596,38.976595 Z" style="fill:rgb(68,68,68);stroke:none" />
<path d="M14.8289913,38.8584458 Q14.7705721,38.8839378 14.7233057,38.9062433 Q14.6760393,38.9285488 14.5995633,38.9529786 Q14.5347712,38.9731597 14.4588263,38.987499 Q14.3828814,39.0018382 14.2915351,39.0018382 Q14.1194641,39.0018382 13.9787271,38.9535097 Q13.83799,38.9051811 13.7338977,38.802151 Q13.6319298,38.7012451 13.5745728,38.5456378 Q13.5172158,38.3900304 13.5172158,38.1839701 Q13.5172158,37.9885315 13.5724484,37.8345174 Q13.6276811,37.6805032 13.7317734,37.5742866 Q13.8326792,37.4712564 13.9755406,37.417086 Q14.118402,37.3629155 14.2925973,37.3629155 Q14.4200572,37.3629155 14.5469861,37.3937183 Q14.673915,37.4245211 14.8289913,37.5020593 L14.8289913,37.7516684 L14.8130588,37.7516684 Q14.6824123,37.6422652 14.5538902,37.5923434 Q14.4253681,37.5424216 14.2787891,37.5424216 Q14.1587643,37.5424216 14.0626382,37.5811907 Q13.9665122,37.6199597 13.8910984,37.7017466 Q13.8178089,37.781409 13.7769155,37.9030271 Q13.7360221,38.0246451 13.7360221,38.1839701 Q13.7360221,38.3507302 13.7811641,38.470755 Q13.8263062,38.5907798 13.8974714,38.6661937 Q13.971823,38.744794 14.0711356,38.7825009 Q14.1704481,38.8202078 14.2809134,38.8202078 Q14.4328032,38.8202078 14.565574,38.7681616 Q14.6983448,38.7161155 14.814121,38.6120232 L14.8289913,38.6120232 Z" style="fill:rgb(68,68,68);stroke:none" />
<path d="M12.5290824,38.9731597 L12.3187734,38.9731597 L12.3187734,38.1988404 L11.5295838,38.1988404 L11.5295838,38.9731597 L11.3192748,38.9731597 L11.3192748,37.391594 L11.5295838,37.391594 L11.5295838,38.0118991 L12.3187734,38.0118991 L12.3187734,37.391594 L12.5290824,37.391594 Z" style="fill:rgb(68,68,68);stroke:none" />
<path d="M13.2656417,38.9906855 Q13.2962321,39.0180894 13.3159884,39.0595139 Q13.3357447,39.1009384 13.3357447,39.1665802 Q13.3357447,39.2315848 13.3121646,39.2857553 Q13.2885845,39.3399258 13.2458854,39.3800757 Q13.1980879,39.4246867 13.133402,39.4460362 Q13.068716,39.4673858 12.9916027,39.4673858 Q12.9125776,39.4673858 12.8361016,39.4485854 Q12.7596256,39.4297851 12.7105535,39.4074796 L12.7105535,39.2742839 L12.720113,39.2742839 Q12.7742835,39.3099727 12.847573,39.3335528 Q12.9208625,39.3571329 12.9890535,39.3571329 Q13.0292034,39.3571329 13.0744517,39.3437496 Q13.1197,39.3303663 13.1477412,39.304237 Q13.177057,39.2761958 13.1913962,39.2424189 Q13.2057355,39.208642 13.2057355,39.1570207 Q13.2057355,39.1060368 13.1894843,39.0725785 Q13.1732332,39.0391203 13.1445547,39.0200013 Q13.1158762,39.000245 13.075089,38.992916 Q13.0343018,38.9855871 12.9871416,38.9855871 L12.9297847,38.9855871 L12.9297847,38.8797953 L12.9743956,38.8797953 Q13.0712652,38.8797953 13.1289409,38.8393268 Q13.1866165,38.7988582 13.1866165,38.7211077 Q13.1866165,38.6866935 13.1719586,38.6608828 Q13.1573007,38.6350722 13.1311714,38.6185024 Q13.1037675,38.6019326 13.0725398,38.5955596 Q13.0413121,38.5891866 13.0017995,38.5891866 Q12.9412561,38.5891866 12.873065,38.6108548 Q12.8048739,38.632523 12.7443304,38.6720356 L12.7379574,38.6720356 L12.7379574,38.5388399 Q12.7832057,38.5165344 12.8587257,38.4977341 Q12.9342458,38.4789337 13.004986,38.4789337 Q13.0744517,38.4789337 13.1273476,38.4916797 Q13.1802435,38.5044257 13.2229426,38.5324669 Q13.2688282,38.5630573 13.2924083,38.6063937 Q13.3159884,38.6497301 13.3159884,38.7077244 Q13.3159884,38.7867495 13.2602246,38.8456998 Q13.2044609,38.90465 13.1286222,38.9199452 L13.1286222,38.9288674 Q13.1592126,38.9339658 13.1987252,38.9502169 Q13.2382378,38.9664681 13.2656417,38.9906855 Z" style="fill:rgb(68,68,68);stroke:none" />
<path d="M23.7391895,26.8626412 Q23.8358466,26.9688578 23.8873617,27.122872 Q23.9388768,27.2768861 23.9388768,27.4723247 Q23.9388768,27.6677633 23.8862996,27.8223085 Q23.8337223,27.9768537 23.7391895,28.0798839 Q23.6414702,28.1871627 23.5081683,28.2413332 Q23.3748664,28.2955037 23.2038576,28.2955037 Q23.0370975,28.2955037 22.9006091,28.240271 Q22.7641207,28.1850384 22.6685258,28.0798839 Q22.5729308,27.9747294 22.5214157,27.8217774 Q22.4699007,27.6688255 22.4699007,27.4723247 Q22.4699007,27.2790104 22.5208846,27.1255274 Q22.5718686,26.9720443 22.6695879,26.8626412 Q22.7630586,26.7585489 22.9016713,26.7033162 Q23.040284,26.6480836 23.2038576,26.6480836 Q23.3738043,26.6480836 23.5092305,26.7038473 Q23.6446567,26.759611 23.7391895,26.8626412 Z M23.7200705,27.4723247 Q23.7200705,27.1642964 23.5819889,26.9970052 Q23.4439072,26.829714 23.2049198,26.829714 Q22.963808,26.829714 22.8262575,26.9970052 Q22.6887069,27.1642964 22.6887069,27.4723247 Q22.6887069,27.7835395 22.8289129,27.9487063 Q22.9691189,28.1138732 23.2049198,28.1138732 Q23.4407207,28.1138732 23.5803956,27.9487063 Q23.7200705,27.7835395 23.7200705,27.4723247 Z" style="fill:rgb(68,68,68);stroke:none" />
<path d="M25.3301555,28.2625765 L25.1198465,28.2625765 L25.1198465,27.4882572 L24.3306569,27.4882572 L24.3306569,28.2625765 L24.1203479,28.2625765 L24.1203479,26.6810107 L24.3306569,26.6810107 L24.3306569,27.3013159 L25.1198465,27.3013159 L25.1198465,26.6810107 L25.3301555,26.6810107 Z" style="fill:rgb(68,68,68);stroke:none" />
<path d="M23.8602765,32.8952757 Q23.8018573,32.9207677 23.7545909,32.9430732 Q23.7073245,32.9653787 23.6308485,32.9898085 Q23.5660564,33.0099897 23.4901115,33.0243289 Q23.4141666,33.0386682 23.3228203,33.0386682 Q23.1507493,33.0386682 23.0100123,32.9903396 Q22.8692752,32.942011 22.7651829,32.8389809 Q22.6632149,32.7380751 22.605858,32.5824677 Q22.548501,32.4268603 22.548501,32.2208 Q22.548501,32.0253614 22.6037336,31.8713473 Q22.6589663,31.7173332 22.7630586,31.6111165 Q22.8639644,31.5080864 23.0068258,31.4539159 Q23.1496872,31.3997454 23.3238824,31.3997454 Q23.4513424,31.3997454 23.5782713,31.4305482 Q23.7052002,31.4613511 23.8602765,31.5388892 L23.8602765,31.7884983 L23.844344,31.7884983 Q23.7136975,31.6790952 23.5851754,31.6291734 Q23.4566532,31.5792515 23.3100743,31.5792515 Q23.1900495,31.5792515 23.0939234,31.6180206 Q22.9977974,31.6567897 22.9223835,31.7385765 Q22.8490941,31.818239 22.8082007,31.939857 Q22.7673072,32.0614751 22.7673072,32.2208 Q22.7673072,32.3875602 22.8124493,32.507585 Q22.8575914,32.6276098 22.9287565,32.7030236 Q23.0031082,32.7816239 23.1024207,32.8193308 Q23.2017333,32.8570377 23.3121986,32.8570377 Q23.4640884,32.8570377 23.5968592,32.8049916 Q23.72963,32.7529454 23.8454061,32.6488531 L23.8602765,32.6488531 Z" style="fill:rgb(68,68,68);stroke:none" />
<path d="M25.2515551,33.0099897 L25.0412462,33.0099897 L25.0412462,32.2356704 L24.2520566,32.2356704 L24.2520566,33.0099897 L24.0417476,33.0099897 L24.0417476,31.4284239 L24.2520566,31.4284239 L24.2520566,32.0487291 L25.0412462,32.0487291 L25.0412462,31.4284239 L25.2515551,31.4284239 Z" style="fill:rgb(68,68,68);stroke:none" />
<path d="M25.9881144,33.0275154 Q26.0187048,33.0549193 26.0384611,33.0963438 Q26.0582174,33.1377683 26.0582174,33.2034102 Q26.0582174,33.2684148 26.0346373,33.3225853 Q26.0110572,33.3767557 25.9683581,33.4169056 Q25.9205606,33.4615166 25.8558747,33.4828662 Q25.7911888,33.5042157 25.7140755,33.5042157 Q25.6350503,33.5042157 25.5585743,33.4854154 Q25.4820984,33.466615 25.4330263,33.4443095 L25.4330263,33.3111139 L25.4425858,33.3111139 Q25.4967563,33.3468026 25.5700457,33.3703827 Q25.6433352,33.3939628 25.7115263,33.3939628 Q25.7516762,33.3939628 25.7969245,33.3805795 Q25.8421728,33.3671962 25.870214,33.3410669 Q25.8995298,33.3130258 25.913869,33.2792489 Q25.9282082,33.245472 25.9282082,33.1938507 Q25.9282082,33.1428667 25.9119571,33.1094085 Q25.895706,33.0759502 25.8670275,33.0568312 Q25.838349,33.0370749 25.7975618,33.029746 Q25.7567746,33.022417 25.7096144,33.022417 L25.6522574,33.022417 L25.6522574,32.9166253 L25.6968684,32.9166253 Q25.793738,32.9166253 25.8514136,32.8761567 Q25.9090892,32.8356882 25.9090892,32.7579376 Q25.9090892,32.7235234 25.8944314,32.6977128 Q25.8797735,32.6719021 25.8536442,32.6553323 Q25.8262403,32.6387625 25.7950126,32.6323895 Q25.7637849,32.6260165 25.7242723,32.6260165 Q25.6637288,32.6260165 25.5955377,32.6476847 Q25.5273466,32.6693529 25.4668032,32.7088655 L25.4604302,32.7088655 L25.4604302,32.5756698 Q25.5056784,32.5533643 25.5811985,32.534564 Q25.6567185,32.5157637 25.7274588,32.5157637 Q25.7969245,32.5157637 25.8498204,32.5285097 Q25.9027163,32.5412556 25.9454153,32.5692968 Q25.9913009,32.5998872 26.014881,32.6432236 Q26.0384611,32.68656 26.0384611,32.7445543 Q26.0384611,32.8235795 25.9826974,32.8825297 Q25.9269336,32.9414799 25.851095,32.9567751 L25.851095,32.9656973 Q25.8816854,32.9707957 25.9211979,32.9870469 Q25.9607105,33.003298 25.9881144,33.0275154 Z" style="fill:rgb(68,68,68);stroke:none" />
<path d="M16.7002021,17.15371 Q16.7002021,17.1255626 16.6917048,17.1061781 Q16.6832074,17.0867935 16.6656817,17.0729854 Q16.6455005,17.0565218 16.6162909,17.0501488 Q16.5870814,17.0437758 16.5445947,17.0437758 L16.4256321,17.0437758 L16.354998,17.3486175 L16.4665255,17.3486175 Q16.5185716,17.3486175 16.5568096,17.339058 Q16.5950476,17.3294985 16.6263815,17.3055998 Q16.661433,17.2790456 16.6808175,17.2389489 Q16.7002021,17.1988521 16.7002021,17.15371 Z M16.8181026,17.7479921 L16.6943602,17.7479921 L16.4861756,17.4319976 L16.335879,17.4319976 L16.2631206,17.7479921 L16.156904,17.7479921 L16.3390655,16.9572092 L16.5546853,16.9572092 Q16.6269126,16.9572092 16.6720547,16.9665032 Q16.7171967,16.9757971 16.750655,17.000227 Q16.7803956,17.0220014 16.7973903,17.0528042 Q16.814385,17.083607 16.814385,17.1298113 Q16.814385,17.2285927 16.7525138,17.3032099 Q16.6906426,17.3778271 16.5902679,17.4070367 Z" style="fill:rgb(255,0,0);stroke:none" />
<path d="M20.5882375,17.4587151 Q20.5112304,17.4587151 20.4416585,17.442517 Q20.3720866,17.426319 20.3051701,17.3928608 L20.3306621,17.2723049 L20.3380973,17.2723049 Q20.3890813,17.3206334 20.4631674,17.346391 Q20.5372535,17.3721485 20.6062943,17.3721485 Q20.719415,17.3721485 20.779693,17.327272 Q20.8399709,17.2823955 20.8399709,17.2128236 Q20.8399709,17.1761788 20.8184621,17.151749 Q20.7969532,17.1273192 20.7555287,17.1156353 Q20.7210083,17.1060758 20.6734763,17.097313 Q20.6259444,17.0885501 20.5829267,17.0784595 Q20.4995466,17.0598716 20.4538734,17.0147295 Q20.4082003,16.9695874 20.4082003,16.902671 Q20.4082003,16.7895502 20.5040608,16.714402 Q20.5999213,16.6392537 20.7518111,16.6392537 Q20.8346601,16.6392537 20.9023732,16.6565139 Q20.9700863,16.6737741 21.018946,16.6971418 L20.9950472,16.8102625 L20.9876121,16.8102625 Q20.9499051,16.7757421 20.8800677,16.7507812 Q20.8102303,16.7258203 20.7332232,16.7258203 Q20.6365661,16.7258203 20.5789435,16.7683069 Q20.521321,16.8107936 20.521321,16.8761168 Q20.521321,16.9111683 20.5420332,16.9377225 Q20.5627455,16.9642766 20.6158538,16.9775537 Q20.6498431,16.9855199 20.706138,16.9969382 Q20.7624328,17.0083565 20.8006708,17.0184471 Q20.8760846,17.0391593 20.9151192,17.0800528 Q20.9541538,17.1209462 20.9541538,17.1830829 Q20.9541538,17.235129 20.9286618,17.2866441 Q20.9031698,17.3381592 20.8574967,17.3748039 Q20.808637,17.4141041 20.7430482,17.4364096 Q20.6774595,17.4587151 20.5882375,17.4587151 Z" style="fill:rgb(255,0,0);stroke:none" />
<path d="M13.6722364,18.8482423 Q13.6722364,18.8200949 13.6637391,18.8007104 Q13.6552418,18.7813258 13.637716,18.7675177 Q13.6175348,18.7510541 13.5883253,18.7446811 Q13.5591157,18.7383081 13.516629,18.7383081 L13.3976664,18.7383081 L13.3270323,19.0431499 L13.4385598,19.0431499 Q13.490606,19.0431499 13.528844,19.0335904 Q13.5670819,19.0240309 13.5984159,19.0001321 Q13.6334673,18.973578 13.6528519,18.9334812 Q13.6722364,18.8933844 13.6722364,18.8482423 Z M13.7901369,19.4425244 L13.6663945,19.4425244 L13.4582099,19.1265299 L13.3079133,19.1265299 L13.2351549,19.4425244 L13.1289383,19.4425244 L13.3110998,18.6517415 L13.5267196,18.6517415 Q13.5989469,18.6517415 13.644089,18.6610355 Q13.6892311,18.6703295 13.7226893,18.6947593 Q13.75243,18.7165337 13.7694246,18.7473365 Q13.7864193,18.7781393 13.7864193,18.8243436 Q13.7864193,18.9231251 13.7245481,18.9977422 Q13.6626769,19.0723594 13.5623022,19.101569 Z" style="fill:rgb(255,0,0);stroke:none" />
<path d="M12.6366127,24.3719336 Q12.6366127,24.3437862 12.6281153,24.3244016 Q12.619618,24.3050171 12.6020923,24.2912089 Q12.5819111,24.2747454 12.5527015,24.2683724 Q12.523492,24.2619994 12.4810053,24.2619994 L12.3620427,24.2619994 L12.2914086,24.5668411 L12.4029361,24.5668411 Q12.4549822,24.5668411 12.4932202,24.5572816 Q12.5314582,24.5477221 12.5627921,24.5238234 Q12.5978436,24.4972692 12.6172281,24.4571724 Q12.6366127,24.4170757 12.6366127,24.3719336 Z M12.7545131,24.9662157 L12.6307708,24.9662157 L12.4225861,24.6502212 L12.2722896,24.6502212 L12.1995312,24.9662157 L12.0933146,24.9662157 L12.2754761,24.1754328 L12.4910959,24.1754328 Q12.5633232,24.1754328 12.6084653,24.1847268 Q12.6536073,24.1940207 12.6870656,24.2184505 Q12.7168062,24.2402249 12.7338009,24.2710278 Q12.7507956,24.3018306 12.7507956,24.3480348 Q12.7507956,24.4468163 12.6889244,24.5214335 Q12.6270532,24.5960507 12.5266785,24.6252603 Z" style="fill:rgb(255,0,0);stroke:none" />
<path d="M16.815061,24.2442126 Q16.815061,24.2160652 16.8065637,24.1966807 Q16.7980664,24.1772962 16.7805406,24.163488 Q16.7603594,24.1470244 16.7311499,24.1406514 Q16.7019403,24.1342784 16.6594536,24.1342784 L16.540491,24.1342784 L16.4698569,24.4391202 L16.5813844,24.4391202 Q16.6334306,24.4391202 16.6716686,24.4295607 Q16.7099065,24.4200012 16.7412405,24.3961024 Q16.7762919,24.3695483 16.7956765,24.3294515 Q16.815061,24.2893547 16.815061,24.2442126 Z M16.9329615,24.8384947 L16.8092191,24.8384947 L16.6010345,24.5225002 L16.4507379,24.5225002 L16.3779795,24.8384947 L16.2717629,24.8384947 L16.4539244,24.0477119 L16.6695442,24.0477119 Q16.7417715,24.0477119 16.7869136,24.0570058 Q16.8320557,24.0662998 16.8655139,24.0907296 Q16.8952546,24.112504 16.9122492,24.1433068 Q16.9292439,24.1741097 16.9292439,24.2203139 Q16.9292439,24.3190954 16.8673727,24.3937126 Q16.8055015,24.4683298 16.7051268,24.4975393 Z" style="fill:rgb(255,0,0);stroke:none" />
<path d="M24.0572451,15.1367369 Q24.0572451,15.1085895 24.0487478,15.089205 Q24.0402505,15.0698205 24.0227247,15.0560123 Q24.0025436,15.0395487 23.973334,15.0331757 Q23.9441244,15.0268027 23.9016378,15.0268027 L23.7826751,15.0268027 L23.7120411,15.3316445 L23.8235685,15.3316445 Q23.8756147,15.3316445 23.9138527,15.322085 Q23.9520907,15.3125255 23.9834246,15.2886267 Q24.0184761,15.2620726 24.0378606,15.2219758 Q24.0572451,15.181879 24.0572451,15.1367369 Z M24.1751456,15.731019 L24.0514032,15.731019 L23.8432186,15.4150245 L23.6929221,15.4150245 L23.6201637,15.731019 L23.513947,15.731019 L23.6961086,14.9402362 L23.9117283,14.9402362 Q23.9839557,14.9402362 24.0290977,14.9495301 Q24.0742398,14.9588241 24.107698,14.9832539 Q24.1374387,15.0050283 24.1544334,15.0358311 Q24.171428,15.066634 24.171428,15.1128382 Q24.171428,15.2116197 24.1095568,15.2862369 Q24.0476856,15.360854 23.9473109,15.3900636 Z" style="fill:rgb(255,0,0);stroke:none" />
<path d="M17.7538075,30.2512986 Q17.6768005,30.2512986 17.6072286,30.2351006 Q17.5376567,30.2189025 17.4707402,30.1854443 L17.4962322,30.0648884 L17.5036674,30.0648884 Q17.5546513,30.113217 17.6287375,30.1389745 Q17.7028236,30.164732 17.7718644,30.164732 Q17.8849851,30.164732 17.945263,30.1198555 Q18.005541,30.074979 18.005541,30.0054071 Q18.005541,29.9687623 17.9840321,29.9443325 Q17.9625232,29.9199027 17.9210988,29.9082188 Q17.8865783,29.8986593 17.8390464,29.8898965 Q17.7915145,29.8811336 17.7484967,29.871043 Q17.6651167,29.8524551 17.6194435,29.807313 Q17.5737703,29.762171 17.5737703,29.6952545 Q17.5737703,29.5821338 17.6696309,29.5069855 Q17.7654914,29.4318372 17.9173812,29.4318372 Q18.0002302,29.4318372 18.0679433,29.4490974 Q18.1356564,29.4663576 18.184516,29.4897253 L18.1606173,29.602846 L18.1531821,29.602846 Q18.1154752,29.5683256 18.0456378,29.5433647 Q17.9758003,29.5184038 17.8987933,29.5184038 Q17.8021361,29.5184038 17.7445136,29.5608904 Q17.6868911,29.6033771 17.6868911,29.6687003 Q17.6868911,29.7037518 17.7076033,29.730306 Q17.7283156,29.7568601 17.7814239,29.7701372 Q17.8154132,29.7781035 17.871708,29.7895217 Q17.9280028,29.80094 17.9662408,29.8110306 Q18.0416546,29.8317429 18.0806893,29.8726363 Q18.1197239,29.9135297 18.1197239,29.9756664 Q18.1197239,30.0277126 18.0942319,30.0792276 Q18.0687399,30.1307427 18.0230667,30.1673874 Q17.9742071,30.2066876 17.9086183,30.2289931 Q17.8430295,30.2512986 17.7538075,30.2512986 Z" style="fill:rgb(255,0,0);stroke:none" />
</svg>
