<?xml version="1.0" encoding="UTF-8"?>
<!DOCTYPE svg PUBLIC "-//W3C//DTD SVG 1.1//EN" "http://www.w3.org/Graphics/SVG/1.1/DTD/svg11.dtd">
<svg version="1.2" xmlns="http://www.w3.org/2000/svg" xmlns:xlink="http://www.w3.org/1999/xlink" x="0mm" y="0mm" width="38mm" height="17mm" viewBox="0 0 38 17">
<style type="text/css"><![CDATA[
text { font:12px Dialog; }
]]></style>
<line x1="18.3305075" y1="5.9509491" x2="22.3578983" y2="8.2760697" style="fill:none;stroke:rgb(68,68,68);stroke-width:0.2133545;stroke-linecap:round;stroke-linejoin:round" />
<line x1="18.3305368" y1="6.9175201" x2="21.5208549" y2="8.7593763" style="fill:none;stroke:rgb(68,68,68);stroke-width:0.2133545;stroke-linecap:round;stroke-linejoin:round" />
<line x1="22.3578983" y1="8.2760697" x2="26.3852892" y2="5.9509491" style="fill:none;stroke:rgb(68,68,68);stroke-width:0.2133545;stroke-linecap:round;stroke-linejoin:round" />
<line x1="30.41268" y1="8.2760697" x2="26.3852892" y2="5.9509491" style="fill:none;stroke:rgb(68,68,68);stroke-width:0.2133545;stroke-linecap:round;stroke-linejoin:round" />
<line x1="29.5756111" y1="8.7593616" x2="26.3852892" y2="6.9175032" style="fill:none;stroke:rgb(68,68,68);stroke-width:0.2133545;stroke-linecap:round;stroke-linejoin:round" />
<line x1="30.41268" y1="8.2760697" x2="30.41268" y2="12.9263111" style="fill:none;stroke:rgb(68,68,68);stroke-width:0.2133545;stroke-linecap:round;stroke-linejoin:round" />
<line x1="30.831198" y1="13.1679666" x2="27.4241099" y2="15.1349698" style="fill:none;stroke:rgb(68,68,68);stroke-width:0.2133545;stroke-linecap:round;stroke-linejoin:round" />
<line x1="30.41268" y1="12.443034" x2="27.0055882" y2="14.4100394" style="fill:none;stroke:rgb(68,68,68);stroke-width:0.2133545;stroke-linecap:round;stroke-linejoin:round" />
<line x1="30.41268" y1="12.9263111" x2="33.6101809" y2="14.7725725" style="fill:none;stroke:rgb(68,68,68);stroke-width:0.2133545;stroke-linecap:round;stroke-linejoin:round" />
<line x1="26.3852892" y1="5.9509491" x2="26.3852892" y2="2.3120606" style="fill:none;stroke:rgb(68,68,68);stroke-width:0.2133545;stroke-linecap:round;stroke-linejoin:round" />
<line x1="18.3305075" y1="5.9509491" x2="14.3036803" y2="8.2760697" style="fill:none;stroke:rgb(68,68,68);stroke-width:0.2133545;stroke-linecap:round;stroke-linejoin:round" />
<line x1="14.3036803" y1="12.9263111" x2="14.3036803" y2="8.2760697" style="fill:none;stroke:rgb(68,68,68);stroke-width:0.2133545;stroke-linecap:round;stroke-linejoin:round" />
<line x1="10.2762895" y1="5.9509491" x2="14.3036803" y2="8.2760697" style="fill:none;stroke:rgb(68,68,68);stroke-width:0.2133545;stroke-linecap:round;stroke-linejoin:round" />
<line x1="10.2762895" y1="5.9509491" x2="6.2488986" y2="8.2760697" style="fill:none;stroke:rgb(68,68,68);stroke-width:0.2133545;stroke-linecap:round;stroke-linejoin:round" />
<line x1="6.2488986" y1="8.2760697" x2="6.2488986" y2="12.9263111" style="fill:none;stroke:rgb(68,68,68);stroke-width:0.2133545;stroke-linecap:round;stroke-linejoin:round" />
<line x1="6.2488986" y1="12.9263111" x2="10.2762895" y2="15.2514318" style="fill:none;stroke:rgb(68,68,68);stroke-width:0.2133545;stroke-linecap:round;stroke-linejoin:round" />
<line x1="10.2762895" y1="15.2514318" x2="14.3036803" y2="12.9263111" style="fill:none;stroke:rgb(68,68,68);stroke-width:0.2133545;stroke-linecap:round;stroke-linejoin:round" />
<line x1="10.2762895" y1="14.2848776" x2="13.4666113" y2="12.4430193" style="fill:none;stroke:rgb(68,68,68);stroke-width:0.2133545;stroke-linecap:round;stroke-linejoin:round" />
<line x1="14.3570229" y1="8.1836868" x2="14.2503377" y2="8.3684527" style="fill:none;stroke:rgb(68,68,68);stroke-width:0.2133545;stroke-linecap:round;stroke-linejoin:round" />
<line x1="15.0726129" y1="8.4942212" x2="14.8770234" y2="8.8329585" style="fill:none;stroke:rgb(68,68,68);stroke-width:0.2133545;stroke-linecap:round;stroke-linejoin:round" />
<line x1="15.788203" y1="8.8047555" x2="15.5037091" y2="9.2974644" style="fill:none;stroke:rgb(68,68,68);stroke-width:0.2133545;stroke-linecap:round;stroke-linejoin:round" />
<line x1="16.503793" y1="9.1152899" x2="16.1303948" y2="9.7619703" style="fill:none;stroke:rgb(68,68,68);stroke-width:0.2133545;stroke-linecap:round;stroke-linejoin:round" />
<line x1="17.219383" y1="9.4258243" x2="16.7570805" y2="10.2264761" style="fill:none;stroke:rgb(68,68,68);stroke-width:0.2133545;stroke-linecap:round;stroke-linejoin:round" />
<line x1="10.2762895" y1="5.9509491" x2="12.1220425" y2="2.753881" style="fill:none;stroke:rgb(68,68,68);stroke-width:0.2133545;stroke-linecap:round;stroke-linejoin:round" />
<line x1="10.2762895" y1="5.9509491" x2="8.4835296" y2="2.8456716" style="fill:none;stroke:rgb(68,68,68);stroke-width:0.2133545;stroke-linecap:round;stroke-linejoin:round" />
<line x1="14.3036803" y1="12.9263111" x2="17.5676103" y2="14.8109291" style="fill:none;stroke:rgb(68,68,68);stroke-width:0.2133545;stroke-linecap:round;stroke-linejoin:round" />
<line x1="6.6674312" y1="13.1679412" x2="3.2608931" y2="15.1349022" style="fill:none;stroke:rgb(68,68,68);stroke-width:0.2133545;stroke-linecap:round;stroke-linejoin:round" />
<line x1="6.2488986" y1="12.4430171" x2="2.8423274" y2="14.4099973" style="fill:none;stroke:rgb(68,68,68);stroke-width:0.2133545;stroke-linecap:round;stroke-linejoin:round" />
<path d="M26.8997719,14.6654222 Q26.9927568,14.7676035 27.0423147,14.9157663 Q27.0918727,15.0639292 27.0918727,15.2519427 Q27.0918727,15.4399562 27.0412929,15.58863 Q26.9907132,15.7373037 26.8997719,15.8364196 Q26.8057651,15.9396226 26.6775276,15.9917351 Q26.5492901,16.0438475 26.3847783,16.0438475 Q26.2243537,16.0438475 26.0930508,15.9907133 Q25.9617478,15.937579 25.8697847,15.8364196 Q25.7778215,15.7352601 25.7282636,15.5881191 Q25.6787057,15.440978 25.6787057,15.2519427 Q25.6787057,15.0659728 25.7277527,14.9183208 Q25.7767997,14.7706689 25.8708065,14.6654222 Q25.960726,14.5652846 26.0940726,14.5121503 Q26.2274191,14.459016 26.3847783,14.459016 Q26.5482683,14.459016 26.6785494,14.5126612 Q26.8088305,14.5663064 26.8997719,14.6654222 Z M26.8813792,15.2519427 Q26.8813792,14.955617 26.7485436,14.7946815 Q26.6157079,14.633746 26.3858001,14.633746 Q26.1538486,14.633746 26.0215239,14.7946815 Q25.8891991,14.955617 25.8891991,15.2519427 Q25.8891991,15.5513338 26.0240784,15.7102257 Q26.1589577,15.8691176 26.3858001,15.8691176 Q26.6126425,15.8691176 26.7470109,15.7102257 Q26.8813792,15.5513338 26.8813792,15.2519427 Z" style="fill:rgb(68,68,68);stroke:none" />
<path d="M34.9539899,14.6654222 Q35.0469749,14.7676035 35.0965328,14.9157663 Q35.1460907,15.0639292 35.1460907,15.2519427 Q35.1460907,15.4399562 35.095511,15.58863 Q35.0449312,15.7373037 34.9539899,15.8364196 Q34.8599831,15.9396226 34.7317456,15.9917351 Q34.6035082,16.0438475 34.4389963,16.0438475 Q34.2785717,16.0438475 34.1472688,15.9907133 Q34.0159659,15.937579 33.9240027,15.8364196 Q33.8320396,15.7352601 33.7824817,15.5881191 Q33.7329237,15.440978 33.7329237,15.2519427 Q33.7329237,15.0659728 33.7819707,14.9183208 Q33.8310178,14.7706689 33.9250245,14.6654222 Q34.014944,14.5652846 34.1482906,14.5121503 Q34.2816372,14.459016 34.4389963,14.459016 Q34.6024863,14.459016 34.7327675,14.5126612 Q34.8630486,14.5663064 34.9539899,14.6654222 Z M34.9355973,15.2519427 Q34.9355973,14.955617 34.8027616,14.7946815 Q34.669926,14.633746 34.4400181,14.633746 Q34.2080666,14.633746 34.0757419,14.7946815 Q33.9434172,14.955617 33.9434172,15.2519427 Q33.9434172,15.5513338 34.0782964,15.7102257 Q34.2131757,15.8691176 34.4400181,15.8691176 Q34.6668605,15.8691176 34.8012289,15.7102257 Q34.9355973,15.5513338 34.9355973,15.2519427 Z" style="fill:rgb(68,68,68);stroke:none" />
<path d="M36.4845121,16.0121713 L36.2821931,16.0121713 L36.2821931,15.2672699 L35.5229863,15.2672699 L35.5229863,16.0121713 L35.3206674,16.0121713 L35.3206674,14.4906922 L35.5229863,14.4906922 L35.5229863,15.0874308 L36.2821931,15.0874308 L36.2821931,14.4906922 L36.4845121,14.4906922 Z" style="fill:rgb(68,68,68);stroke:none" />
<path d="M27.0162585,1.9510915 Q26.9600588,1.975615 26.9145882,1.9970731 Q26.8691175,2.0185311 26.795547,2.0420328 Q26.7332164,2.0614473 26.6601568,2.0752417 Q26.5870972,2.0890362 26.4992213,2.0890362 Q26.3336876,2.0890362 26.1982975,2.0425437 Q26.0629073,1.9960513 25.9627696,1.8969354 Q25.8646756,1.7998632 25.8094977,1.6501677 Q25.7543198,1.5004721 25.7543198,1.3022404 Q25.7543198,1.1142269 25.8074541,0.9660641 Q25.8605884,0.8179012 25.960726,0.7157199 Q26.0577982,0.6166041 26.195232,0.5644917 Q26.3326658,0.5123792 26.5002431,0.5123792 Q26.6228606,0.5123792 26.7449673,0.5420118 Q26.8670739,0.5716443 27.0162585,0.6462367 L27.0162585,0.8863627 L27.0009313,0.8863627 Q26.8752484,0.781116 26.751609,0.7330908 Q26.6279697,0.6850656 26.4869595,0.6850656 Q26.3714947,0.6850656 26.2790207,0.7223617 Q26.1865466,0.7596579 26.1139979,0.8383375 Q26.0434928,0.9149734 26.004153,1.031971 Q25.9648133,1.1489685 25.9648133,1.3022404 Q25.9648133,1.462665 26.0082403,1.5781299 Q26.0516673,1.6935947 26.1201288,1.7661434 Q26.1916557,1.8417575 26.2871952,1.8780319 Q26.3827347,1.9143062 26.4890032,1.9143062 Q26.6351224,1.9143062 26.762849,1.8642374 Q26.8905756,1.8141686 27.0019531,1.7140309 L27.0162585,1.7140309 Z" style="fill:rgb(68,68,68);stroke:none" />
<path d="M28.3546799,2.0614473 L28.152361,2.0614473 L28.152361,1.3165458 L27.3931541,1.3165458 L27.3931541,2.0614473 L27.1908352,2.0614473 L27.1908352,0.5399682 L27.3931541,0.5399682 L27.3931541,1.1367068 L28.152361,1.1367068 L28.152361,0.5399682 L28.3546799,0.5399682 Z" style="fill:rgb(68,68,68);stroke:none" />
<path d="M29.0632559,2.0783072 Q29.0926841,2.1046699 29.1116898,2.1445206 Q29.1306955,2.1843713 29.1306955,2.2475194 Q29.1306955,2.3100543 29.1080113,2.3621667 Q29.0853271,2.4142792 29.0442502,2.4529037 Q28.9982686,2.4958198 28.9360402,2.5163583 Q28.8738118,2.5368967 28.7996282,2.5368967 Q28.7236054,2.5368967 28.6500348,2.5188106 Q28.5764643,2.5007245 28.5292566,2.4792665 L28.5292566,2.3511312 L28.5384529,2.3511312 Q28.5905653,2.3854641 28.6610704,2.4081483 Q28.7315755,2.4308326 28.7971759,2.4308326 Q28.8358004,2.4308326 28.8793296,2.4179577 Q28.9228588,2.4050829 28.9498347,2.3799463 Q28.9780367,2.3529704 28.9918312,2.3204768 Q29.0056257,2.2879831 29.0056257,2.238323 Q29.0056257,2.189276 28.9899919,2.1570889 Q28.9743582,2.1249018 28.9467693,2.1065092 Q28.9191803,2.0875035 28.8799427,2.080453 Q28.8407051,2.0734025 28.7953366,2.0734025 L28.7401587,2.0734025 L28.7401587,1.9716299 L28.7830749,1.9716299 Q28.8762642,1.9716299 28.9317486,1.9326989 Q28.987233,1.8937678 28.987233,1.8189711 Q28.987233,1.7858644 28.973132,1.7610343 Q28.959031,1.7362043 28.9338944,1.720264 Q28.9075316,1.7043237 28.8774904,1.6981928 Q28.8474491,1.692062 28.8094376,1.692062 Q28.7511943,1.692062 28.6855939,1.712907 Q28.6199936,1.7337519 28.5617502,1.7717634 L28.5556194,1.7717634 L28.5556194,1.6436281 Q28.5991486,1.62217 28.6717995,1.6040839 Q28.7444503,1.5859978 28.8125031,1.5859978 Q28.8793296,1.5859978 28.9302159,1.5982596 Q28.9811022,1.6105213 29.022179,1.6374972 Q29.0663213,1.6669254 29.0890056,1.7086153 Q29.1116898,1.7503053 29.1116898,1.8060963 Q29.1116898,1.8821191 29.0580447,1.9388297 Q29.0043995,1.9955403 28.9314421,2.0102544 L28.9314421,2.0188377 Q28.9608703,2.0237424 28.9988817,2.0393761 Q29.0368931,2.0550098 29.0632559,2.0783072 Z" style="fill:rgb(68,68,68);stroke:none" />
<path d="M18.8449902,10.0151808 Q18.9379751,10.1173621 18.9875331,10.265525 Q19.037091,10.4136878 19.037091,10.6017013 Q19.037091,10.7897149 18.9865112,10.9383886 Q18.9359315,11.0870624 18.8449902,11.1861782 Q18.7509834,11.2893813 18.6227459,11.3414937 Q18.4945084,11.3936062 18.3299966,11.3936062 Q18.169572,11.3936062 18.0382691,11.3404719 Q17.9069661,11.2873377 17.815003,11.1861782 Q17.7230398,11.0850187 17.6734819,10.9378777 Q17.623924,10.7907367 17.623924,10.6017013 Q17.623924,10.4157314 17.672971,10.2680795 Q17.722018,10.1204276 17.8160248,10.0151808 Q17.9059443,9.9150432 18.0392909,9.8619089 Q18.1726374,9.8087747 18.3299966,9.8087747 Q18.4934866,9.8087747 18.6237677,9.8624198 Q18.7540488,9.916065 18.8449902,10.0151808 Z M18.8265976,10.6017013 Q18.8265976,10.3053756 18.6937619,10.1444401 Q18.5609262,9.9835046 18.3310184,9.9835046 Q18.0990669,9.9835046 17.9667422,10.1444401 Q17.8344174,10.3053756 17.8344174,10.6017013 Q17.8344174,10.9010925 17.9692967,11.0599843 Q18.104176,11.2188762 18.3310184,11.2188762 Q18.5578608,11.2188762 18.6922292,11.0599843 Q18.8265976,10.9010925 18.8265976,10.6017013 Z" style="fill:rgb(68,68,68);stroke:none" />
<path d="M20.3755123,11.36193 L20.1731934,11.36193 L20.1731934,10.6170285 L19.4139866,10.6170285 L19.4139866,11.36193 L19.2116677,11.36193 L19.2116677,9.8404509 L19.4139866,9.8404509 L19.4139866,10.4371895 L20.1731934,10.4371895 L20.1731934,9.8404509 L20.3755123,9.8404509 Z" style="fill:rgb(68,68,68);stroke:none" />
<path d="M13.2323795,2.573942 Q13.1761798,2.5984655 13.1307091,2.6199236 Q13.0852384,2.6413816 13.0116679,2.6648833 Q12.9493374,2.6842978 12.8762777,2.6980922 Q12.8032181,2.7118867 12.7153422,2.7118867 Q12.5498086,2.7118867 12.4144184,2.6653942 Q12.2790282,2.6189018 12.1788906,2.5197859 Q12.0807966,2.4227137 12.0256187,2.2730182 Q11.9704408,2.1233226 11.9704408,1.9250909 Q11.9704408,1.7370774 12.0235751,1.5889146 Q12.0767093,1.4407517 12.176847,1.3385704 Q12.2739192,1.2394546 12.411353,1.1873422 Q12.5487868,1.1352297 12.7163641,1.1352297 Q12.8389816,1.1352297 12.9610882,1.1648623 Q13.0831948,1.1944949 13.2323795,1.2690872 L13.2323795,1.5092132 L13.2170523,1.5092132 Q13.0913693,1.4039665 12.96773,1.3559413 Q12.8440906,1.3079161 12.7030805,1.3079161 Q12.5876157,1.3079161 12.4951416,1.3452122 Q12.4026676,1.3825084 12.3301189,1.461188 Q12.2596138,1.5378239 12.220274,1.6548215 Q12.1809342,1.771819 12.1809342,1.9250909 Q12.1809342,2.0855155 12.2243612,2.2009804 Q12.2677883,2.3164452 12.3362497,2.3889939 Q12.4077766,2.464608 12.5033161,2.5008824 Q12.5988556,2.5371567 12.7051241,2.5371567 Q12.8512433,2.5371567 12.9789699,2.4870879 Q13.1066965,2.4370191 13.2180741,2.3368815 L13.2323795,2.3368815 Z" style="fill:rgb(68,68,68);stroke:none" />
<path d="M14.5708008,2.6842978 L14.3684819,2.6842978 L14.3684819,1.9393963 L13.6092751,1.9393963 L13.6092751,2.6842978 L13.4069562,2.6842978 L13.4069562,1.1628187 L13.6092751,1.1628187 L13.6092751,1.7595573 L14.3684819,1.7595573 L14.3684819,1.1628187 L14.5708008,1.1628187 Z" style="fill:rgb(68,68,68);stroke:none" />
<path d="M15.2793769,2.7011577 Q15.3088051,2.7275205 15.3278108,2.7673711 Q15.3468165,2.8072218 15.3468165,2.8703699 Q15.3468165,2.9329048 15.3241322,2.9850173 Q15.301448,3.0371297 15.2603711,3.0757542 Q15.2143896,3.1186704 15.1521612,3.1392088 Q15.0899328,3.1597472 15.0157492,3.1597472 Q14.9397263,3.1597472 14.8661558,3.1416611 Q14.7925853,3.1235751 14.7453775,3.102117 L14.7453775,2.9739817 L14.7545739,2.9739817 Q14.8066863,3.0083146 14.8771914,3.0309988 Q14.9476965,3.0536831 15.0132968,3.0536831 Q15.0519213,3.0536831 15.0954506,3.0408082 Q15.1389798,3.0279334 15.1659556,3.0027968 Q15.1941577,2.9758209 15.2079521,2.9433273 Q15.2217466,2.9108336 15.2217466,2.8611736 Q15.2217466,2.8121265 15.2061129,2.7799394 Q15.1904791,2.7477523 15.1628902,2.7293597 Q15.1353013,2.710354 15.0960637,2.7033035 Q15.056826,2.696253 15.0114576,2.696253 L14.9562797,2.696253 L14.9562797,2.5944804 L14.9991958,2.5944804 Q15.0923851,2.5944804 15.1478696,2.5555494 Q15.203354,2.5166183 15.203354,2.4418216 Q15.203354,2.4087149 15.189253,2.3838848 Q15.175152,2.3590548 15.1500154,2.3431145 Q15.1236526,2.3271742 15.0936113,2.3210434 Q15.06357,2.3149125 15.0255586,2.3149125 Q14.9673153,2.3149125 14.9017149,2.3357575 Q14.8361145,2.3566024 14.7778712,2.3946139 L14.7717403,2.3946139 L14.7717403,2.2664786 Q14.8152695,2.2450205 14.8879204,2.2269344 Q14.9605713,2.2088483 15.028624,2.2088483 Q15.0954506,2.2088483 15.1463368,2.2211101 Q15.1972231,2.2333718 15.2383,2.2603477 Q15.2824423,2.2897759 15.3051265,2.3314658 Q15.3278108,2.3731558 15.3278108,2.4289468 Q15.3278108,2.5049696 15.2741656,2.5616802 Q15.2205204,2.6183909 15.147563,2.633105 L15.147563,2.6416882 Q15.1769912,2.6465929 15.2150027,2.6622266 Q15.2530141,2.6778604 15.2793769,2.7011577 Z" style="fill:rgb(68,68,68);stroke:none" />
<path d="M8.5821381,2.573942 Q8.5259384,2.5984655 8.4804678,2.6199236 Q8.4349971,2.6413816 8.3614266,2.6648833 Q8.299096,2.6842978 8.2260364,2.6980922 Q8.1529768,2.7118867 8.0651009,2.7118867 Q7.8995672,2.7118867 7.7641771,2.6653942 Q7.6287869,2.6189018 7.5286492,2.5197859 Q7.4305552,2.4227137 7.3753773,2.2730182 Q7.3201994,2.1233226 7.3201994,1.9250909 Q7.3201994,1.7370774 7.3733337,1.5889146 Q7.426468,1.4407517 7.5266056,1.3385704 Q7.6236778,1.2394546 7.7611116,1.1873422 Q7.8985454,1.1352297 8.0661227,1.1352297 Q8.1887402,1.1352297 8.3108468,1.1648623 Q8.4329535,1.1944949 8.5821381,1.2690872 L8.5821381,1.5092132 L8.5668109,1.5092132 Q8.441128,1.4039665 8.3174886,1.3559413 Q8.1938493,1.3079161 8.0528391,1.3079161 Q7.9373743,1.3079161 7.8449003,1.3452122 Q7.7524262,1.3825084 7.6798775,1.461188 Q7.6093724,1.5378239 7.5700326,1.6548215 Q7.5306928,1.771819 7.5306928,1.9250909 Q7.5306928,2.0855155 7.5741199,2.2009804 Q7.6175469,2.3164452 7.6860084,2.3889939 Q7.7575353,2.464608 7.8530748,2.5008824 Q7.9486142,2.5371567 8.0548828,2.5371567 Q8.201002,2.5371567 8.3287286,2.4870879 Q8.4564552,2.4370191 8.5678327,2.3368815 L8.5821381,2.3368815 Z" style="fill:rgb(68,68,68);stroke:none" />
<path d="M6.3696071,2.6842978 L6.1672882,2.6842978 L6.1672882,1.9393963 L5.4080813,1.9393963 L5.4080813,2.6842978 L5.2057624,2.6842978 L5.2057624,1.1628187 L5.4080813,1.1628187 L5.4080813,1.7595573 L6.1672882,1.7595573 L6.1672882,1.1628187 L6.3696071,1.1628187 Z" style="fill:rgb(68,68,68);stroke:none" />
<path d="M7.0781831,2.7011577 Q7.1076113,2.7275205 7.126617,2.7673711 Q7.1456227,2.8072218 7.1456227,2.8703699 Q7.1456227,2.9329048 7.1229385,2.9850173 Q7.1002542,3.0371297 7.0591774,3.0757542 Q7.0131958,3.1186704 6.9509674,3.1392088 Q6.888739,3.1597472 6.8145554,3.1597472 Q6.7385326,3.1597472 6.664962,3.1416611 Q6.5913915,3.1235751 6.5441838,3.102117 L6.5441838,2.9739817 L6.5533801,2.9739817 Q6.6054925,3.0083146 6.6759976,3.0309988 Q6.7465027,3.0536831 6.8121031,3.0536831 Q6.8507276,3.0536831 6.8942568,3.0408082 Q6.937786,3.0279334 6.9647619,3.0027968 Q6.9929639,2.9758209 7.0067584,2.9433273 Q7.0205529,2.9108336 7.0205529,2.8611736 Q7.0205529,2.8121265 7.0049191,2.7799394 Q6.9892854,2.7477523 6.9616964,2.7293597 Q6.9341075,2.710354 6.8948699,2.7033035 Q6.8556323,2.696253 6.8102638,2.696253 L6.7550859,2.696253 L6.7550859,2.5944804 L6.7980021,2.5944804 Q6.8911914,2.5944804 6.9466758,2.5555494 Q7.0021602,2.5166183 7.0021602,2.4418216 Q7.0021602,2.4087149 6.9880592,2.3838848 Q6.9739582,2.3590548 6.9488216,2.3431145 Q6.9224588,2.3271742 6.8924175,2.3210434 Q6.8623763,2.3149125 6.8243648,2.3149125 Q6.7661215,2.3149125 6.7005211,2.3357575 Q6.6349207,2.3566024 6.5766774,2.3946139 L6.5705465,2.3946139 L6.5705465,2.2664786 Q6.6140758,2.2450205 6.6867267,2.2269344 Q6.7593775,2.2088483 6.8274303,2.2088483 Q6.8942568,2.2088483 6.9451431,2.2211101 Q6.9960294,2.2333718 7.0371062,2.2603477 Q7.0812485,2.2897759 7.1039328,2.3314658 Q7.126617,2.3731558 7.126617,2.4289468 Q7.126617,2.5049696 7.0729719,2.5616802 Q7.0193267,2.6183909 6.9463693,2.633105 L6.9463693,2.6416882 Q6.9757975,2.6465929 7.0138089,2.6622266 Q7.0518203,2.6778604 7.0781831,2.7011577 Z" style="fill:rgb(68,68,68);stroke:none" />
<path d="M18.9614768,15.9018156 Q18.9052771,15.9263391 18.8598065,15.9477971 Q18.8143358,15.9692552 18.7407653,15.9927569 Q18.6784347,16.0121713 18.6053751,16.0259658 Q18.5323155,16.0397603 18.4444396,16.0397603 Q18.2789059,16.0397603 18.1435158,15.9932678 Q18.0081256,15.9467753 17.9079879,15.8476595 Q17.8098939,15.7505873 17.754716,15.6008917 Q17.6995381,15.4511962 17.6995381,15.2529645 Q17.6995381,15.064951 17.7526724,14.9167881 Q17.8058067,14.7686253 17.9059443,14.666444 Q18.0030165,14.5673282 18.1404503,14.5152157 Q18.2778841,14.4631033 18.4454614,14.4631033 Q18.5680789,14.4631033 18.6901856,14.4927359 Q18.8122922,14.5223684 18.9614768,14.5969608 L18.9614768,14.8370867 L18.9461496,14.8370867 Q18.8204667,14.73184 18.6968273,14.6838148 Q18.573188,14.6357896 18.4321778,14.6357896 Q18.316713,14.6357896 18.224239,14.6730858 Q18.1317649,14.710382 18.0592162,14.7890615 Q17.9887111,14.8656975 17.9493713,14.982695 Q17.9100316,15.0996926 17.9100316,15.2529645 Q17.9100316,15.4133891 17.9534586,15.5288539 Q17.9968856,15.6443188 18.0653471,15.7168675 Q18.136874,15.7924816 18.2324135,15.828756 Q18.327953,15.8650303 18.4342215,15.8650303 Q18.5803407,15.8650303 18.7080673,15.8149615 Q18.8357939,15.7648927 18.9471714,15.664755 L18.9614768,15.664755 Z" style="fill:rgb(68,68,68);stroke:none" />
<path d="M20.2998982,16.0121713 L20.0975793,16.0121713 L20.0975793,15.2672699 L19.3383724,15.2672699 L19.3383724,16.0121713 L19.1360535,16.0121713 L19.1360535,14.4906922 L19.3383724,14.4906922 L19.3383724,15.0874308 L20.0975793,15.0874308 L20.0975793,14.4906922 L20.2998982,14.4906922 Z" style="fill:rgb(68,68,68);stroke:none" />
<path d="M21.0084742,16.0290312 Q21.0379024,16.055394 21.0569081,16.0952447 Q21.0759138,16.1350954 21.0759138,16.1982434 Q21.0759138,16.2607784 21.0532296,16.3128908 Q21.0305454,16.3650033 20.9894685,16.4036278 Q20.9434869,16.4465439 20.8812585,16.4670824 Q20.8190301,16.4876208 20.7448465,16.4876208 Q20.6688237,16.4876208 20.5952532,16.4695347 Q20.5216826,16.4514486 20.4744749,16.4299906 L20.4744749,16.3018552 L20.4836712,16.3018552 Q20.5357837,16.3361881 20.6062887,16.3588724 Q20.6767938,16.3815566 20.7423942,16.3815566 Q20.7810187,16.3815566 20.8245479,16.3686818 Q20.8680771,16.3558069 20.895053,16.3306704 Q20.923255,16.3036945 20.9370495,16.2712009 Q20.950844,16.2387072 20.950844,16.1890471 Q20.950844,16.1400001 20.9352102,16.107813 Q20.9195765,16.0756259 20.8919876,16.0572333 Q20.8643986,16.0382276 20.825161,16.0311771 Q20.7859234,16.0241265 20.7405549,16.0241265 L20.685377,16.0241265 L20.685377,15.922354 L20.7282932,15.922354 Q20.8214825,15.922354 20.8769669,15.8834229 Q20.9324513,15.8444919 20.9324513,15.7696952 Q20.9324513,15.7365885 20.9183503,15.7117584 Q20.9042493,15.6869284 20.8791127,15.6709881 Q20.85275,15.6550478 20.8227087,15.6489169 Q20.7926674,15.642786 20.7546559,15.642786 Q20.6964126,15.642786 20.6308122,15.663631 Q20.5652119,15.684476 20.5069685,15.7224874 L20.5008377,15.7224874 L20.5008377,15.5943521 Q20.5443669,15.5728941 20.6170178,15.554808 Q20.6896686,15.5367219 20.7577214,15.5367219 Q20.8245479,15.5367219 20.8754342,15.5489836 Q20.9263205,15.5612454 20.9673973,15.5882212 Q21.0115396,15.6176495 21.0342239,15.6593394 Q21.0569081,15.7010294 21.0569081,15.7568203 Q21.0569081,15.8328432 21.003263,15.8895538 Q20.9496178,15.9462644 20.8766604,15.9609785 L20.8766604,15.9695617 Q20.9060886,15.9744664 20.9441,15.9901002 Q20.9821114,16.0057339 21.0084742,16.0290312 Z" style="fill:rgb(68,68,68);stroke:none" />
<path d="M2.7365541,14.6654222 Q2.8295391,14.7676035 2.879097,14.9157663 Q2.9286549,15.0639292 2.9286549,15.2519427 Q2.9286549,15.4399562 2.8780752,15.58863 Q2.8274954,15.7373037 2.7365541,15.8364196 Q2.6425473,15.9396226 2.5143099,15.9917351 Q2.3860724,16.0438475 2.2215605,16.0438475 Q2.0611359,16.0438475 1.929833,15.9907133 Q1.7985301,15.937579 1.7065669,15.8364196 Q1.6146038,15.7352601 1.5650459,15.5881191 Q1.5154879,15.440978 1.5154879,15.2519427 Q1.5154879,15.0659728 1.5645349,14.9183208 Q1.613582,14.7706689 1.7075887,14.6654222 Q1.7975082,14.5652846 1.9308548,14.5121503 Q2.0642014,14.459016 2.2215605,14.459016 Q2.3850505,14.459016 2.5153317,14.5126612 Q2.6456128,14.5663064 2.7365541,14.6654222 Z M2.7181615,15.2519427 Q2.7181615,14.955617 2.5853258,14.7946815 Q2.4524902,14.633746 2.2225823,14.633746 Q1.9906308,14.633746 1.8583061,14.7946815 Q1.7259814,14.955617 1.7259814,15.2519427 Q1.7259814,15.5513338 1.8608606,15.7102257 Q1.9957399,15.8691176 2.2225823,15.8691176 Q2.4494247,15.8691176 2.5837931,15.7102257 Q2.7181615,15.5513338 2.7181615,15.2519427 Z" style="fill:rgb(68,68,68);stroke:none" />
<path d="M13.225832,9.2515407 Q13.1517505,9.2515407 13.0848218,9.2359581 Q13.0178931,9.2203755 12.9535189,9.1881884 L12.9780424,9.0722126 L12.9851951,9.0722126 Q13.0342421,9.1187051 13.1055135,9.1434841 Q13.1767849,9.168263 13.2432028,9.168263 Q13.3520258,9.168263 13.4100137,9.1250914 Q13.4680016,9.0819198 13.4680016,9.0149911 Q13.4680016,8.9797386 13.4473099,8.9562369 Q13.4266181,8.9327352 13.3867675,8.9214952 Q13.3535585,8.9122989 13.3078324,8.903869 Q13.2621063,8.895439 13.2207229,8.8857318 Q13.1405106,8.8678501 13.0965726,8.824423 Q13.0526347,8.780996 13.0526347,8.7166218 Q13.0526347,8.6077987 13.1448533,8.5355055 Q13.2370719,8.4632122 13.3831911,8.4632122 Q13.4628925,8.4632122 13.5280331,8.4798167 Q13.5931736,8.4964212 13.640177,8.518901 L13.6171862,8.6277241 L13.6100335,8.6277241 Q13.5737592,8.5945152 13.506575,8.5705026 Q13.4393908,8.54649 13.3653094,8.54649 Q13.2723244,8.54649 13.2168911,8.5873625 Q13.1614578,8.628235 13.1614578,8.6910765 Q13.1614578,8.7247963 13.1813831,8.7503416 Q13.2013084,8.7758869 13.2523991,8.7886596 Q13.2850971,8.7963232 13.3392532,8.8073077 Q13.3934092,8.8182922 13.4301945,8.8279994 Q13.5027432,8.8479247 13.5402948,8.8872645 Q13.5778464,8.9266043 13.5778464,8.9863804 Q13.5778464,9.0364492 13.5533229,9.0860071 Q13.5287994,9.135565 13.4848615,9.1708175 Q13.4378581,9.2086246 13.3747612,9.2300827 Q13.3116642,9.2515407 13.225832,9.2515407 Z" style="fill:rgb(255,0,0);stroke:none" />
<path d="M21.2637031,5.7262919 L21.2437777,5.8126351 L20.8437381,5.8126351 L20.7946911,6.0272158 L21.1947307,6.0272158 L21.1748054,6.113048 L20.7747657,6.113048 L20.7083479,6.4006883 L21.1083876,6.4006883 L21.0884622,6.4870315 L20.5872631,6.4870315 L20.762504,5.7262919 Z" style="fill:rgb(255,0,0);stroke:none" />
<path d="M29.1974,6.4870315 L28.6037268,6.4870315 L28.624674,6.3940465 L29.213749,5.8126351 L28.7677277,5.8126351 L28.7876531,5.7262919 L29.3568028,5.7262919 L29.3363665,5.8141678 L28.7421824,6.4006883 L29.2173253,6.4006883 Z" style="fill:rgb(255,0,0);stroke:none" />
</svg>
