<?xml version="1.0" encoding="UTF-8"?>
<!DOCTYPE svg PUBLIC "-//W3C//DTD SVG 1.1//EN" "http://www.w3.org/Graphics/SVG/1.1/DTD/svg11.dtd">
<svg version="1.2" xmlns="http://www.w3.org/2000/svg" xmlns:xlink="http://www.w3.org/1999/xlink" x="0mm" y="0mm" width="50mm" height="23mm" viewBox="0 0 50 23">
<style type="text/css"><![CDATA[
text { font:12px Dialog; }
]]></style>
<path d="M42.2977609,13.3724193 Q42.2397187,13.3977468 42.1927572,13.4199084 Q42.1457958,13.44207 42.0698132,13.4663422 Q42.0054391,13.4863931 41.9299842,13.5006399 Q41.8545292,13.5148866 41.7637723,13.5148866 Q41.5928115,13.5148866 41.4529825,13.4668698 Q41.3131534,13.4188531 41.2097327,13.3164877 Q41.1084226,13.2162329 41.0514357,13.0616294 Q40.9944487,12.907026 40.9944487,12.7022952 Q40.9944487,12.5081175 41.049325,12.3550971 Q41.1042013,12.2020766 41.2076221,12.0965453 Q41.3078769,11.9941799 41.4498165,11.9403589 Q41.5917562,11.8865379 41.7648276,11.8865379 Q41.8914652,11.8865379 42.0175752,11.917142 Q42.1436851,11.9477461 42.2977609,12.0247839 L42.2977609,12.2727826 L42.2819312,12.2727826 Q42.1521276,12.1640853 42.0244347,12.1144856 Q41.8967418,12.0648859 41.7511085,12.0648859 Q41.6318581,12.0648859 41.5363522,12.1034048 Q41.4408464,12.1419237 41.3659191,12.2231829 Q41.2931025,12.3023314 41.2524729,12.4231648 Q41.2118433,12.5439982 41.2118433,12.7022952 Q41.2118433,12.8679794 41.2566941,12.9872298 Q41.301545,13.1064803 41.372251,13.1814075 Q41.4461229,13.2595007 41.5447947,13.2969644 Q41.6434665,13.334428 41.7532191,13.334428 Q41.904129,13.334428 42.0360432,13.2827176 Q42.1679573,13.2310073 42.2829865,13.1275865 L42.2977609,13.1275865 Z" style="fill:none;stroke:rgb(152,240,142);stroke-width:0.8813978;stroke-linecap:round;stroke-linejoin:round" />
<path d="M42.2861525,11.7062376 L42.0772004,11.7062376 L42.0772004,10.936914 L41.2931025,10.936914 L41.2931025,11.7062376 L41.0841504,11.7062376 L41.0841504,10.1348758 L41.2931025,10.1348758 L41.2931025,10.7511789 L42.0772004,10.7511789 L42.0772004,10.1348758 L42.2861525,10.1348758 Z" style="fill:none;stroke:rgb(152,240,142);stroke-width:0.8813978;stroke-linecap:round;stroke-linejoin:round" />
<path d="M38.1383717,10.9709948 Q38.0803295,10.9963223 38.033368,11.0184839 Q37.9864066,11.0406455 37.910424,11.0649177 Q37.8460499,11.0849687 37.770595,11.0992154 Q37.69514,11.1134621 37.6043831,11.1134621 Q37.4334223,11.1134621 37.2935933,11.0654454 Q37.1537642,11.0174286 37.0503435,10.9150632 Q36.9490334,10.8148084 36.8920465,10.660205 Q36.8350595,10.5056016 36.8350595,10.3008707 Q36.8350595,10.1066931 36.8899359,9.9536726 Q36.9448122,9.8006521 37.0482329,9.6951208 Q37.1484877,9.5927554 37.2904273,9.5389344 Q37.432367,9.4851134 37.6054384,9.4851134 Q37.732076,9.4851134 37.858186,9.5157175 Q37.9842959,9.5463216 38.1383717,9.6233595 L38.1383717,9.8713581 L38.122542,9.8713581 Q37.9927384,9.7626609 37.8650455,9.7130611 Q37.7373526,9.6634614 37.5917193,9.6634614 Q37.4724689,9.6634614 37.376963,9.7019803 Q37.2814572,9.7404993 37.2065299,9.8217584 Q37.1337133,9.9009069 37.0930837,10.0217403 Q37.0524541,10.1425737 37.0524541,10.3008707 Q37.0524541,10.466555 37.097305,10.5858054 Q37.1421558,10.7050558 37.2128618,10.7799831 Q37.2867337,10.8580763 37.3854055,10.8955399 Q37.4840773,10.9330035 37.5938299,10.9330035 Q37.7447398,10.9330035 37.876654,10.8812932 Q38.0085681,10.8295828 38.1235973,10.7261621 L38.1383717,10.7261621 Z" style="fill:none;stroke:rgb(240,236,117);stroke-width:0.8813978;stroke-linecap:round;stroke-linejoin:round" />
<path d="M38.1267633,9.3048131 L37.9178112,9.3048131 L37.9178112,8.5354896 L37.1337133,8.5354896 L37.1337133,9.3048131 L36.9247612,9.3048131 L36.9247612,7.7334513 L37.1337133,7.7334513 L37.1337133,8.3497544 L37.9178112,8.3497544 L37.9178112,7.7334513 L38.1267633,7.7334513 Z" style="fill:none;stroke:rgb(240,236,117);stroke-width:0.8813978;stroke-linecap:round;stroke-linejoin:round" />
<path d="M38.9453172,9.786036 L38.3070636,9.786036 L38.3070636,9.6536997 Q38.3735483,9.5967128 38.4403497,9.5397259 Q38.507151,9.482739 38.5647711,9.4263852 Q38.6863432,9.3086122 38.7312996,9.2392781 Q38.7762559,9.169944 38.7762559,9.0895291 Q38.7762559,9.0160793 38.7278171,8.9746055 Q38.6793782,8.9331317 38.5926314,8.9331317 Q38.5350113,8.9331317 38.4678933,8.9533937 Q38.4007754,8.9736557 38.3368234,9.0154461 L38.3304915,9.0154461 L38.3304915,8.8824766 Q38.3754479,8.8603151 38.4504807,8.8419526 Q38.5255135,8.8235901 38.5957973,8.8235901 Q38.7407974,8.8235901 38.8231119,8.8935574 Q38.9054263,8.9635247 38.9054263,9.0831973 Q38.9054263,9.1370183 38.8918128,9.1835576 Q38.8781992,9.2300969 38.8516053,9.2718873 Q38.826911,9.311145 38.7936686,9.3491363 Q38.7604262,9.3871275 38.7129371,9.4333503 Q38.645186,9.499835 38.5730026,9.5622041 Q38.5008191,9.6245731 38.4381335,9.6777609 L38.9453172,9.6777609 Z" style="fill:none;stroke:rgb(240,236,117);stroke-width:0.8813978;stroke-linecap:round;stroke-linejoin:round" />
<path d="M33.9789825,13.3724193 Q33.9209403,13.3977468 33.8739788,13.4199084 Q33.8270174,13.44207 33.7510348,13.4663422 Q33.6866607,13.4863931 33.6112058,13.5006399 Q33.5357508,13.5148866 33.4449939,13.5148866 Q33.2740331,13.5148866 33.1342041,13.4668698 Q32.994375,13.4188531 32.8909543,13.3164877 Q32.7896442,13.2162329 32.7326573,13.0616294 Q32.6756704,12.907026 32.6756704,12.7022952 Q32.6756704,12.5081175 32.7305467,12.3550971 Q32.785423,12.2020766 32.8888437,12.0965453 Q32.9890985,11.9941799 33.1310381,11.9403589 Q33.2729778,11.8865379 33.4460492,11.8865379 Q33.5726868,11.8865379 33.6987968,11.917142 Q33.8249067,11.9477461 33.9789825,12.0247839 L33.9789825,12.2727826 L33.9631528,12.2727826 Q33.8333492,12.1640853 33.7056563,12.1144856 Q33.5779634,12.0648859 33.4323301,12.0648859 Q33.3130797,12.0648859 33.2175738,12.1034048 Q33.122068,12.1419237 33.0471407,12.2231829 Q32.9743241,12.3023314 32.9336945,12.4231648 Q32.8930649,12.5439982 32.8930649,12.7022952 Q32.8930649,12.8679794 32.9379158,12.9872298 Q32.9827666,13.1064803 33.0534726,13.1814075 Q33.1273445,13.2595007 33.2260163,13.2969644 Q33.3246881,13.334428 33.4344408,13.334428 Q33.5853506,13.334428 33.7172648,13.2827176 Q33.849179,13.2310073 33.9642081,13.1275865 L33.9789825,13.1275865 Z" style="fill:none;stroke:rgb(152,240,142);stroke-width:0.8813978;stroke-linecap:round;stroke-linejoin:round" />
<path d="M33.9673741,15.2665487 L33.758422,15.2665487 L33.758422,14.4972252 L32.9743241,14.4972252 L32.9743241,15.2665487 L32.765372,15.2665487 L32.765372,13.6951869 L32.9743241,13.6951869 L32.9743241,14.31149 L33.758422,14.31149 L33.758422,13.6951869 L33.9673741,13.6951869 Z" style="fill:none;stroke:rgb(152,240,142);stroke-width:0.8813978;stroke-linecap:round;stroke-linejoin:round" />
<path d="M34.785928,15.7477716 L34.1476744,15.7477716 L34.1476744,15.6154353 Q34.2141591,15.5584484 34.2809605,15.5014615 Q34.3477618,15.4444745 34.4053819,15.3881208 Q34.526954,15.2703478 34.5719104,15.2010137 Q34.6168667,15.1316796 34.6168667,15.0512647 Q34.6168667,14.9778149 34.5684279,14.9363411 Q34.519989,14.8948673 34.4332422,14.8948673 Q34.3756221,14.8948673 34.3085041,14.9151293 Q34.2413862,14.9353913 34.1774342,14.9771817 L34.1711023,14.9771817 L34.1711023,14.8442122 Q34.2160587,14.8220506 34.2910915,14.8036882 Q34.3661243,14.7853257 34.4364081,14.7853257 Q34.5814082,14.7853257 34.6637227,14.855293 Q34.7460371,14.9252603 34.7460371,15.0449329 Q34.7460371,15.0987538 34.7324236,15.1452932 Q34.71881,15.1918325 34.6922161,15.2336229 Q34.6675218,15.2728806 34.6342794,15.3108719 Q34.601037,15.3488631 34.5535479,15.3950859 Q34.4857968,15.4615706 34.4136134,15.5239396 Q34.3414299,15.5863087 34.2787443,15.6394965 L34.785928,15.6394965 Z" style="fill:none;stroke:rgb(152,240,142);stroke-width:0.8813978;stroke-linecap:round;stroke-linejoin:round" />
<path d="M9.0226473,3.7667214 Q8.9646051,3.7920489 8.9176436,3.8142105 Q8.8706822,3.8363721 8.7946996,3.8606443 Q8.7303255,3.8806952 8.6548706,3.894942 Q8.5794157,3.9091887 8.4886587,3.9091887 Q8.3176979,3.9091887 8.1778689,3.8611719 Q8.0380398,3.8131552 7.9346191,3.7107898 Q7.833309,3.610535 7.7763221,3.4559316 Q7.7193352,3.3013281 7.7193352,3.0965973 Q7.7193352,2.9024196 7.7742115,2.7493992 Q7.8290878,2.5963787 7.9325085,2.4908474 Q8.0327633,2.388482 8.1747029,2.334661 Q8.3166426,2.28084 8.489714,2.28084 Q8.6163516,2.28084 8.7424616,2.3114441 Q8.8685716,2.3420482 9.0226473,2.4190861 L9.0226473,2.6670847 L9.0068176,2.6670847 Q8.8770141,2.5583874 8.7493211,2.5087877 Q8.6216282,2.459188 8.4759949,2.459188 Q8.3567445,2.459188 8.2612387,2.4977069 Q8.1657328,2.5362259 8.0908055,2.617485 Q8.0179889,2.6966335 7.9773593,2.8174669 Q7.9367298,2.9383003 7.9367298,3.0965973 Q7.9367298,3.2622815 7.9815806,3.381532 Q8.0264314,3.5007824 8.0971374,3.5757096 Q8.1710093,3.6538028 8.2696812,3.6912665 Q8.368353,3.7287301 8.4781056,3.7287301 Q8.6290154,3.7287301 8.7609296,3.6770197 Q8.8928438,3.6253094 9.0078729,3.5218887 L9.0226473,3.5218887 Z" style="fill:none;stroke:rgb(240,126,130);stroke-width:0.8813978;stroke-linecap:round;stroke-linejoin:round" />
<path d="M9.0110389,2.1005397 L8.8020868,2.1005397 L8.8020868,1.3312161 L8.0179889,1.3312161 L8.0179889,2.1005397 L7.8090368,2.1005397 L7.8090368,0.5291779 L8.0179889,0.5291779 L8.0179889,1.145481 L8.8020868,1.145481 L8.8020868,0.5291779 L9.0110389,0.5291779 Z" style="fill:none;stroke:rgb(240,126,130);stroke-width:0.8813978;stroke-linecap:round;stroke-linejoin:round" />
<path d="M4.8632581,6.1681459 Q4.8052159,6.1934734 4.7582544,6.215635 Q4.711293,6.2377965 4.6353104,6.2620688 Q4.5709363,6.2821197 4.4954814,6.2963664 Q4.4200265,6.3106132 4.3292695,6.3106132 Q4.1583087,6.3106132 4.0184797,6.2625964 Q3.8786507,6.2145796 3.7752299,6.1122142 Q3.6739198,6.0119595 3.6169329,5.857356 Q3.559946,5.7027526 3.559946,5.4980218 Q3.559946,5.3038441 3.6148223,5.1508237 Q3.6696986,4.9978032 3.7731193,4.8922718 Q3.8733741,4.7899064 4.0153137,4.7360855 Q4.1572534,4.6822645 4.3303248,4.6822645 Q4.4569624,4.6822645 4.5830724,4.7128686 Q4.7091824,4.7434726 4.8632581,4.8205105 L4.8632581,5.0685092 L4.8474284,5.0685092 Q4.7176249,4.9598119 4.5899319,4.9102122 Q4.462239,4.8606124 4.3166057,4.8606124 Q4.1973553,4.8606124 4.1018495,4.8991314 Q4.0063436,4.9376503 3.9314163,5.0189095 Q3.8585997,5.098058 3.8179701,5.2188914 Q3.7773406,5.3397248 3.7773406,5.4980218 Q3.7773406,5.663706 3.8221914,5.7829564 Q3.8670422,5.9022069 3.9377482,5.9771341 Q4.0116202,6.0552273 4.110292,6.0926909 Q4.2089638,6.1301546 4.3187164,6.1301546 Q4.4696262,6.1301546 4.6015404,6.0784442 Q4.7334546,6.0267338 4.8484837,5.9233131 L4.8632581,5.9233131 Z" style="fill:none;stroke:rgb(240,126,130);stroke-width:0.8813978;stroke-linecap:round;stroke-linejoin:round" />
<path d="M2.5610918,6.2821197 L2.3521397,6.2821197 L2.3521397,5.5127962 L1.5680418,5.5127962 L1.5680418,6.2821197 L1.3590897,6.2821197 L1.3590897,4.7107579 L1.5680418,4.7107579 L1.5680418,5.327061 L2.3521397,5.327061 L2.3521397,4.7107579 L2.5610918,4.7107579 Z" style="fill:none;stroke:rgb(240,126,130);stroke-width:0.8813978;stroke-linecap:round;stroke-linejoin:round" />
<path d="M3.3796457,6.7633427 L2.7413921,6.7633427 L2.7413921,6.6310064 Q2.8078768,6.5740194 2.8746782,6.5170325 Q2.9414795,6.4600456 2.9990996,6.4036918 Q3.1206717,6.2859188 3.1656281,6.2165847 Q3.2105844,6.1472506 3.2105844,6.0668358 Q3.2105844,5.9933859 3.1621456,5.9519121 Q3.1137067,5.9104383 3.0269599,5.9104383 Q2.9693398,5.9104383 2.9022218,5.9307003 Q2.8351039,5.9509623 2.7711519,5.9927528 L2.76482,5.9927528 L2.76482,5.8597833 Q2.8097764,5.8376217 2.8848092,5.8192592 Q2.959842,5.8008968 3.0301258,5.8008968 Q3.1751259,5.8008968 3.2574404,5.870864 Q3.3397548,5.9408313 3.3397548,6.0605039 Q3.3397548,6.1143249 3.3261413,6.1608642 Q3.3125277,6.2074035 3.2859338,6.2491939 Q3.2612395,6.2884516 3.2279971,6.3264429 Q3.1947547,6.3644342 3.1472656,6.4106569 Q3.0795145,6.4771416 3.0073311,6.5395107 Q2.9351476,6.6018797 2.872462,6.6550675 L3.3796457,6.6550675 Z" style="fill:none;stroke:rgb(240,126,130);stroke-width:0.8813978;stroke-linecap:round;stroke-linejoin:round" />
<path d="M13.1820365,20.5766927 Q13.1239943,20.6020202 13.0770328,20.6241818 Q13.0300714,20.6463434 12.9540888,20.6706156 Q12.8897147,20.6906665 12.8142598,20.7049133 Q12.7388049,20.71916 12.6480479,20.71916 Q12.4770871,20.71916 12.3372581,20.6711432 Q12.197429,20.6231265 12.0940083,20.5207611 Q11.9926982,20.4205063 11.9357113,20.2659029 Q11.8787244,20.1112994 11.8787244,19.9065686 Q11.8787244,19.7123909 11.9336007,19.5593705 Q11.988477,19.40635 12.0918977,19.3008187 Q12.1921525,19.1984533 12.3340921,19.1446323 Q12.4760318,19.0908113 12.6491032,19.0908113 Q12.7757408,19.0908113 12.9018508,19.1214154 Q13.0279608,19.1520195 13.1820365,19.2290574 L13.1820365,19.477056 L13.1662068,19.477056 Q13.0364033,19.3683587 12.9087103,19.318759 Q12.7810174,19.2691593 12.6353841,19.2691593 Q12.5161337,19.2691593 12.4206278,19.3076782 Q12.325122,19.3461972 12.2501947,19.4274563 Q12.1773781,19.5066048 12.1367485,19.6274382 Q12.0961189,19.7482716 12.0961189,19.9065686 Q12.0961189,20.0722528 12.1409698,20.1915033 Q12.1858206,20.3107537 12.2565266,20.3856809 Q12.3303985,20.4637741 12.4290704,20.5012378 Q12.5277422,20.5387014 12.6374948,20.5387014 Q12.7884046,20.5387014 12.9203188,20.486991 Q13.052233,20.4352807 13.1672621,20.33186 L13.1820365,20.33186 Z" style="fill:none;stroke:rgb(152,240,142);stroke-width:0.8813978;stroke-linecap:round;stroke-linejoin:round" />
<path d="M13.1704281,22.4708221 L12.961476,22.4708221 L12.961476,21.7014986 L12.1773781,21.7014986 L12.1773781,22.4708221 L11.968426,22.4708221 L11.968426,20.8994603 L12.1773781,20.8994603 L12.1773781,21.5157634 L12.961476,21.5157634 L12.961476,20.8994603 L13.1704281,20.8994603 Z" style="fill:none;stroke:rgb(152,240,142);stroke-width:0.8813978;stroke-linecap:round;stroke-linejoin:round" />
<line x1="45.0146522" y1="10.7558805" x2="42.4885891" y2="12.2143037" style="fill:none;stroke:rgb(68,68,68);stroke-width:0.2203495;stroke-linecap:round;stroke-linejoin:round" />
<line x1="41.6461048" y1="13.735236" x2="41.6461048" y2="16.4690374" style="fill:none;stroke:rgb(68,68,68);stroke-width:0.2203495;stroke-linecap:round;stroke-linejoin:round" />
<line x1="40.8104133" y1="12.2182255" x2="38.4736291" y2="10.8690825" style="fill:none;stroke:rgb(68,68,68);stroke-width:0.2203495;stroke-linecap:round;stroke-linejoin:round" />
<line x1="36.6958738" y1="10.7558805" x2="34.238569" y2="12.1746061" style="fill:none;stroke:rgb(68,68,68);stroke-width:0.2203495;stroke-linecap:round;stroke-linejoin:round" />
<line x1="32.5394022" y1="12.245804" x2="29.1679372" y2="10.2992878" style="fill:none;stroke:rgb(68,68,68);stroke-width:0.2203495;stroke-linecap:round;stroke-linejoin:round" />
<line x1="29.1679372" y1="10.2992878" x2="29.1679372" y2="6.5409496" style="fill:none;stroke:rgb(68,68,68);stroke-width:0.2203495;stroke-linecap:round;stroke-linejoin:round" />
<line x1="29.1679372" y1="10.2992878" x2="25.008548" y2="12.7007122" style="fill:none;stroke:rgb(68,68,68);stroke-width:0.2203495;stroke-linecap:round;stroke-linejoin:round" />
<line x1="25.008548" y1="12.7007122" x2="20.8491588" y2="10.2992878" style="fill:none;stroke:rgb(68,68,68);stroke-width:0.2203495;stroke-linecap:round;stroke-linejoin:round" />
<line x1="20.8491588" y1="10.2992878" x2="16.6897696" y2="12.7007122" style="fill:none;stroke:rgb(68,68,68);stroke-width:0.2203495;stroke-linecap:round;stroke-linejoin:round" />
<line x1="16.6897696" y1="12.7007122" x2="12.5303805" y2="10.2992878" style="fill:none;stroke:rgb(68,68,68);stroke-width:0.2203495;stroke-linecap:round;stroke-linejoin:round" />
<line x1="15.8252568" y1="13.1998389" x2="12.5303805" y2="11.2975412" style="fill:none;stroke:rgb(68,68,68);stroke-width:0.2203495;stroke-linecap:round;stroke-linejoin:round" />
<line x1="12.5303805" y1="10.2992878" x2="12.5303805" y2="5.4964388" style="fill:none;stroke:rgb(68,68,68);stroke-width:0.2203495;stroke-linecap:round;stroke-linejoin:round" />
<line x1="12.5303805" y1="5.4964388" x2="9.2134756" y2="3.5814229" style="fill:none;stroke:rgb(68,68,68);stroke-width:0.2203495;stroke-linecap:round;stroke-linejoin:round" />
<line x1="7.7962777" y1="3.9259521" x2="5.2702146" y2="5.3843753" style="fill:none;stroke:rgb(68,68,68);stroke-width:0.2203495;stroke-linecap:round;stroke-linejoin:round" />
<line x1="7.3640213" y1="3.177262" x2="4.8379582" y2="4.6356853" style="fill:none;stroke:rgb(68,68,68);stroke-width:0.2203495;stroke-linecap:round;stroke-linejoin:round" />
<line x1="12.5303805" y1="10.2992878" x2="8.3709913" y2="12.7007122" style="fill:none;stroke:rgb(68,68,68);stroke-width:0.2203495;stroke-linecap:round;stroke-linejoin:round" />
<line x1="8.3709913" y1="12.7007122" x2="8.3709913" y2="17.5035612" style="fill:none;stroke:rgb(68,68,68);stroke-width:0.2203495;stroke-linecap:round;stroke-linejoin:round" />
<line x1="9.2355041" y1="13.1998389" x2="9.2355041" y2="17.0044345" style="fill:none;stroke:rgb(68,68,68);stroke-width:0.2203495;stroke-linecap:round;stroke-linejoin:round" />
<line x1="8.3709913" y1="17.5035612" x2="11.7424563" y2="19.4500774" style="fill:none;stroke:rgb(68,68,68);stroke-width:0.2203495;stroke-linecap:round;stroke-linejoin:round" />
<line x1="16.6897696" y1="17.5035612" x2="13.3728648" y2="19.4185771" style="fill:none;stroke:rgb(68,68,68);stroke-width:0.2203495;stroke-linecap:round;stroke-linejoin:round" />
<line x1="15.8252568" y1="17.0044345" x2="12.9406084" y2="18.6698871" style="fill:none;stroke:rgb(68,68,68);stroke-width:0.2203495;stroke-linecap:round;stroke-linejoin:round" />
<line x1="16.6897696" y1="12.7007122" x2="16.6897696" y2="17.5035612" style="fill:none;stroke:rgb(68,68,68);stroke-width:0.2203495;stroke-linecap:round;stroke-linejoin:round" />
<path d="M46.4571501,10.9709948 Q46.3991079,10.9963223 46.3521464,11.0184839 Q46.305185,11.0406455 46.2292024,11.0649177 Q46.1648283,11.0849687 46.0893733,11.0992154 Q46.0139184,11.1134621 45.9231615,11.1134621 Q45.7522007,11.1134621 45.6123717,11.0654454 Q45.4725426,11.0174286 45.3691219,10.9150632 Q45.2678118,10.8148084 45.2108249,10.660205 Q45.1538379,10.5056016 45.1538379,10.3008707 Q45.1538379,10.1066931 45.2087142,9.9536726 Q45.2635905,9.8006521 45.3670113,9.6951208 Q45.467266,9.5927554 45.6092057,9.5389344 Q45.7511454,9.4851134 45.9242168,9.4851134 Q46.0508544,9.4851134 46.1769644,9.5157175 Q46.3030743,9.5463216 46.4571501,9.6233595 L46.4571501,9.8713581 L46.4413204,9.8713581 Q46.3115168,9.7626609 46.1838239,9.7130611 Q46.056131,9.6634614 45.9104977,9.6634614 Q45.7912473,9.6634614 45.6957414,9.7019803 Q45.6002355,9.7404993 45.5253083,9.8217584 Q45.4524917,9.9009069 45.4118621,10.0217403 Q45.3712325,10.1425737 45.3712325,10.3008707 Q45.3712325,10.466555 45.4160833,10.5858054 Q45.4609342,10.7050558 45.5316402,10.7799831 Q45.6055121,10.8580763 45.7041839,10.8955399 Q45.8028557,10.9330035 45.9126083,10.9330035 Q46.0635182,10.9330035 46.1954324,10.8812932 Q46.3273465,10.8295828 46.4423757,10.7261621 L46.4571501,10.7261621 Z" style="fill:rgb(68,68,68);stroke:none" />
<path d="M47.8394525,11.0849687 L47.6305004,11.0849687 L47.6305004,10.3156451 L46.8464025,10.3156451 L46.8464025,11.0849687 L46.6374504,11.0849687 L46.6374504,9.5136069 L46.8464025,9.5136069 L46.8464025,10.1299099 L47.6305004,10.1299099 L47.6305004,9.5136069 L47.8394525,9.5136069 Z" style="fill:rgb(68,68,68);stroke:none" />
<path d="M48.5712596,11.1023813 Q48.6016526,11.1296084 48.6212815,11.1707656 Q48.6409103,11.2119229 48.6409103,11.2771412 Q48.6409103,11.3417264 48.6174823,11.3955474 Q48.5940544,11.4493684 48.5516308,11.4892593 Q48.5041417,11.5335824 48.4398731,11.5547942 Q48.3756045,11.576006 48.2989887,11.576006 Q48.2204734,11.576006 48.1444908,11.557327 Q48.0685083,11.5386479 48.0197528,11.5164863 L48.0197528,11.38415 L48.0292506,11.38415 Q48.0830716,11.4196086 48.1558882,11.4430365 Q48.2287049,11.4664645 48.296456,11.4664645 Q48.3363468,11.4664645 48.3813032,11.4531675 Q48.4262595,11.4398706 48.4541198,11.4139099 Q48.4832465,11.3860496 48.4974932,11.3524906 Q48.5117399,11.3189317 48.5117399,11.2676434 Q48.5117399,11.2169884 48.4955936,11.183746 Q48.4794473,11.1505036 48.4509539,11.131508 Q48.4224604,11.1118792 48.3819364,11.1045975 Q48.3414123,11.0973158 48.2945564,11.0973158 L48.2375695,11.0973158 L48.2375695,10.9922066 L48.2818927,10.9922066 Q48.3781372,10.9922066 48.4354408,10.9519992 Q48.4927443,10.9117917 48.4927443,10.8345428 Q48.4927443,10.8003506 48.478181,10.7747065 Q48.4636176,10.7490624 48.4376569,10.7325995 Q48.4104298,10.7161366 48.3794036,10.7098047 Q48.3483774,10.7034728 48.3091197,10.7034728 Q48.2489669,10.7034728 48.1812157,10.7250012 Q48.1134646,10.7465296 48.0533118,10.7857873 L48.0469799,10.7857873 L48.0469799,10.653451 Q48.0919362,10.6312894 48.166969,10.6126103 Q48.2420018,10.5939313 48.3122857,10.5939313 Q48.3813032,10.5939313 48.4338578,10.6065951 Q48.4864124,10.6192588 48.528836,10.6471191 Q48.5744256,10.6775121 48.5978535,10.7205689 Q48.6212815,10.7636257 48.6212815,10.8212458 Q48.6212815,10.8997611 48.5658775,10.958331 Q48.5104736,11.0169009 48.4351242,11.0320975 L48.4351242,11.0409621 Q48.4655172,11.0460276 48.5047749,11.0621739 Q48.5440325,11.0783202 48.5712596,11.1023813 Z" style="fill:rgb(68,68,68);stroke:none" />
<path d="M42.2977609,13.3724193 Q42.2397187,13.3977468 42.1927572,13.4199084 Q42.1457958,13.44207 42.0698132,13.4663422 Q42.0054391,13.4863931 41.9299842,13.5006399 Q41.8545292,13.5148866 41.7637723,13.5148866 Q41.5928115,13.5148866 41.4529825,13.4668698 Q41.3131534,13.4188531 41.2097327,13.3164877 Q41.1084226,13.2162329 41.0514357,13.0616294 Q40.9944487,12.907026 40.9944487,12.7022952 Q40.9944487,12.5081175 41.049325,12.3550971 Q41.1042013,12.2020766 41.2076221,12.0965453 Q41.3078769,11.9941799 41.4498165,11.9403589 Q41.5917562,11.8865379 41.7648276,11.8865379 Q41.8914652,11.8865379 42.0175752,11.917142 Q42.1436851,11.9477461 42.2977609,12.0247839 L42.2977609,12.2727826 L42.2819312,12.2727826 Q42.1521276,12.1640853 42.0244347,12.1144856 Q41.8967418,12.0648859 41.7511085,12.0648859 Q41.6318581,12.0648859 41.5363522,12.1034048 Q41.4408464,12.1419237 41.3659191,12.2231829 Q41.2931025,12.3023314 41.2524729,12.4231648 Q41.2118433,12.5439982 41.2118433,12.7022952 Q41.2118433,12.8679794 41.2566941,12.9872298 Q41.301545,13.1064803 41.372251,13.1814075 Q41.4461229,13.2595007 41.5447947,13.2969644 Q41.6434665,13.334428 41.7532191,13.334428 Q41.904129,13.334428 42.0360432,13.2827176 Q42.1679573,13.2310073 42.2829865,13.1275865 L42.2977609,13.1275865 Z" style="fill:rgb(68,68,68);stroke:none" />
<path d="M42.2861525,11.7062376 L42.0772004,11.7062376 L42.0772004,10.936914 L41.2931025,10.936914 L41.2931025,11.7062376 L41.0841504,11.7062376 L41.0841504,10.1348758 L41.2931025,10.1348758 L41.2931025,10.7511789 L42.0772004,10.7511789 L42.0772004,10.1348758 L42.2861525,10.1348758 Z" style="fill:rgb(68,68,68);stroke:none" />
<path d="M42.2977609,18.1752682 Q42.2397187,18.2005957 42.1927572,18.2227573 Q42.1457958,18.2449189 42.0698132,18.2691911 Q42.0054391,18.2892421 41.9299842,18.3034888 Q41.8545292,18.3177355 41.7637723,18.3177355 Q41.5928115,18.3177355 41.4529825,18.2697188 Q41.3131534,18.221702 41.2097327,18.1193366 Q41.1084226,18.0190818 41.0514357,17.8644784 Q40.9944487,17.709875 40.9944487,17.5051442 Q40.9944487,17.3109665 41.049325,17.157946 Q41.1042013,17.0049256 41.2076221,16.8993942 Q41.3078769,16.7970288 41.4498165,16.7432078 Q41.5917562,16.6893868 41.7648276,16.6893868 Q41.8914652,16.6893868 42.0175752,16.7199909 Q42.1436851,16.750595 42.2977609,16.8276329 L42.2977609,17.0756316 L42.2819312,17.0756316 Q42.1521276,16.9669343 42.0244347,16.9173345 Q41.8967418,16.8677348 41.7511085,16.8677348 Q41.6318581,16.8677348 41.5363522,16.9062537 Q41.4408464,16.9447727 41.3659191,17.0260318 Q41.2931025,17.1051803 41.2524729,17.2260137 Q41.2118433,17.3468471 41.2118433,17.5051442 Q41.2118433,17.6708284 41.2566941,17.7900788 Q41.301545,17.9093292 41.372251,17.9842565 Q41.4461229,18.0623497 41.5447947,18.0998133 Q41.6434665,18.1372769 41.7532191,18.1372769 Q41.904129,18.1372769 42.0360432,18.0855666 Q42.1679573,18.0338562 42.2829865,17.9304355 L42.2977609,17.9304355 Z" style="fill:rgb(68,68,68);stroke:none" />
<path d="M43.6800633,18.2892421 L43.4711112,18.2892421 L43.4711112,17.5199185 L42.6870133,17.5199185 L42.6870133,18.2892421 L42.4780612,18.2892421 L42.4780612,16.7178803 L42.6870133,16.7178803 L42.6870133,17.3341834 L43.4711112,17.3341834 L43.4711112,16.7178803 L43.6800633,16.7178803 Z" style="fill:rgb(68,68,68);stroke:none" />
<path d="M44.4118704,18.3066547 Q44.4422634,18.3338818 44.4618923,18.3750391 Q44.4815211,18.4161963 44.4815211,18.4814147 Q44.4815211,18.5459998 44.4580931,18.5998208 Q44.4346652,18.6536418 44.3922416,18.6935327 Q44.3447525,18.7378558 44.2804839,18.7590676 Q44.2162153,18.7802794 44.1395995,18.7802794 Q44.0610842,18.7802794 43.9851016,18.7616004 Q43.9091191,18.7429213 43.8603636,18.7207598 L43.8603636,18.5884234 L43.8698614,18.5884234 Q43.9236824,18.623882 43.996499,18.6473099 Q44.0693157,18.6707379 44.1370668,18.6707379 Q44.1769576,18.6707379 44.221914,18.6574409 Q44.2668703,18.644144 44.2947306,18.6181833 Q44.3238573,18.590323 44.338104,18.556764 Q44.3523507,18.5232051 44.3523507,18.4719168 Q44.3523507,18.4212618 44.3362044,18.3880194 Q44.3200581,18.354777 44.2915647,18.3357814 Q44.2630712,18.3161526 44.2225472,18.3088709 Q44.1820231,18.3015892 44.1351672,18.3015892 L44.0781803,18.3015892 L44.0781803,18.19648 L44.1225035,18.19648 Q44.218748,18.19648 44.2760516,18.1562726 Q44.3333551,18.1160651 44.3333551,18.0388162 Q44.3333551,18.004624 44.3187918,17.9789799 Q44.3042284,17.9533358 44.2782677,17.9368729 Q44.2510406,17.92041 44.2200144,17.9140781 Q44.1889882,17.9077462 44.1497305,17.9077462 Q44.0895777,17.9077462 44.0218266,17.9292746 Q43.9540754,17.950803 43.8939226,17.9900607 L43.8875907,17.9900607 L43.8875907,17.8577244 Q43.932547,17.8355628 44.0075798,17.8168838 Q44.0826126,17.7982047 44.1528965,17.7982047 Q44.221914,17.7982047 44.2744686,17.8108685 Q44.3270232,17.8235322 44.3694468,17.8513925 Q44.4150364,17.8817855 44.4384643,17.9248423 Q44.4618923,17.9678991 44.4618923,18.0255192 Q44.4618923,18.1040346 44.4064883,18.1626045 Q44.3510844,18.2211744 44.275735,18.2363709 L44.275735,18.2452355 Q44.306128,18.250301 44.3453857,18.2664473 Q44.3846433,18.2825936 44.4118704,18.3066547 Z" style="fill:rgb(68,68,68);stroke:none" />
<path d="M38.1383717,10.9709948 Q38.0803295,10.9963223 38.033368,11.0184839 Q37.9864066,11.0406455 37.910424,11.0649177 Q37.8460499,11.0849687 37.770595,11.0992154 Q37.69514,11.1134621 37.6043831,11.1134621 Q37.4334223,11.1134621 37.2935933,11.0654454 Q37.1537642,11.0174286 37.0503435,10.9150632 Q36.9490334,10.8148084 36.8920465,10.660205 Q36.8350595,10.5056016 36.8350595,10.3008707 Q36.8350595,10.1066931 36.8899359,9.9536726 Q36.9448122,9.8006521 37.0482329,9.6951208 Q37.1484877,9.5927554 37.2904273,9.5389344 Q37.432367,9.4851134 37.6054384,9.4851134 Q37.732076,9.4851134 37.858186,9.5157175 Q37.9842959,9.5463216 38.1383717,9.6233595 L38.1383717,9.8713581 L38.122542,9.8713581 Q37.9927384,9.7626609 37.8650455,9.7130611 Q37.7373526,9.6634614 37.5917193,9.6634614 Q37.4724689,9.6634614 37.376963,9.7019803 Q37.2814572,9.7404993 37.2065299,9.8217584 Q37.1337133,9.9009069 37.0930837,10.0217403 Q37.0524541,10.1425737 37.0524541,10.3008707 Q37.0524541,10.466555 37.097305,10.5858054 Q37.1421558,10.7050558 37.2128618,10.7799831 Q37.2867337,10.8580763 37.3854055,10.8955399 Q37.4840773,10.9330035 37.5938299,10.9330035 Q37.7447398,10.9330035 37.876654,10.8812932 Q38.0085681,10.8295828 38.1235973,10.7261621 L38.1383717,10.7261621 Z" style="fill:rgb(68,68,68);stroke:none" />
<path d="M38.1267633,9.3048131 L37.9178112,9.3048131 L37.9178112,8.5354896 L37.1337133,8.5354896 L37.1337133,9.3048131 L36.9247612,9.3048131 L36.9247612,7.7334513 L37.1337133,7.7334513 L37.1337133,8.3497544 L37.9178112,8.3497544 L37.9178112,7.7334513 L38.1267633,7.7334513 Z" style="fill:rgb(68,68,68);stroke:none" />
<path d="M38.9453172,9.786036 L38.3070636,9.786036 L38.3070636,9.6536997 Q38.3735483,9.5967128 38.4403497,9.5397259 Q38.507151,9.482739 38.5647711,9.4263852 Q38.6863432,9.3086122 38.7312996,9.2392781 Q38.7762559,9.169944 38.7762559,9.0895291 Q38.7762559,9.0160793 38.7278171,8.9746055 Q38.6793782,8.9331317 38.5926314,8.9331317 Q38.5350113,8.9331317 38.4678933,8.9533937 Q38.4007754,8.9736557 38.3368234,9.0154461 L38.3304915,9.0154461 L38.3304915,8.8824766 Q38.3754479,8.8603151 38.4504807,8.8419526 Q38.5255135,8.8235901 38.5957973,8.8235901 Q38.7407974,8.8235901 38.8231119,8.8935574 Q38.9054263,8.9635247 38.9054263,9.0831973 Q38.9054263,9.1370183 38.8918128,9.1835576 Q38.8781992,9.2300969 38.8516053,9.2718873 Q38.826911,9.311145 38.7936686,9.3491363 Q38.7604262,9.3871275 38.7129371,9.4333503 Q38.645186,9.499835 38.5730026,9.5622041 Q38.5008191,9.6245731 38.4381335,9.6777609 L38.9453172,9.6777609 Z" style="fill:rgb(68,68,68);stroke:none" />
<path d="M33.9789825,13.3724193 Q33.9209403,13.3977468 33.8739788,13.4199084 Q33.8270174,13.44207 33.7510348,13.4663422 Q33.6866607,13.4863931 33.6112058,13.5006399 Q33.5357508,13.5148866 33.4449939,13.5148866 Q33.2740331,13.5148866 33.1342041,13.4668698 Q32.994375,13.4188531 32.8909543,13.3164877 Q32.7896442,13.2162329 32.7326573,13.0616294 Q32.6756704,12.907026 32.6756704,12.7022952 Q32.6756704,12.5081175 32.7305467,12.3550971 Q32.785423,12.2020766 32.8888437,12.0965453 Q32.9890985,11.9941799 33.1310381,11.9403589 Q33.2729778,11.8865379 33.4460492,11.8865379 Q33.5726868,11.8865379 33.6987968,11.917142 Q33.8249067,11.9477461 33.9789825,12.0247839 L33.9789825,12.2727826 L33.9631528,12.2727826 Q33.8333492,12.1640853 33.7056563,12.1144856 Q33.5779634,12.0648859 33.4323301,12.0648859 Q33.3130797,12.0648859 33.2175738,12.1034048 Q33.122068,12.1419237 33.0471407,12.2231829 Q32.9743241,12.3023314 32.9336945,12.4231648 Q32.8930649,12.5439982 32.8930649,12.7022952 Q32.8930649,12.8679794 32.9379158,12.9872298 Q32.9827666,13.1064803 33.0534726,13.1814075 Q33.1273445,13.2595007 33.2260163,13.2969644 Q33.3246881,13.334428 33.4344408,13.334428 Q33.5853506,13.334428 33.7172648,13.2827176 Q33.849179,13.2310073 33.9642081,13.1275865 L33.9789825,13.1275865 Z" style="fill:rgb(68,68,68);stroke:none" />
<path d="M33.9673741,15.2665487 L33.758422,15.2665487 L33.758422,14.4972252 L32.9743241,14.4972252 L32.9743241,15.2665487 L32.765372,15.2665487 L32.765372,13.6951869 L32.9743241,13.6951869 L32.9743241,14.31149 L33.758422,14.31149 L33.758422,13.6951869 L33.9673741,13.6951869 Z" style="fill:rgb(68,68,68);stroke:none" />
<path d="M34.785928,15.7477716 L34.1476744,15.7477716 L34.1476744,15.6154353 Q34.2141591,15.5584484 34.2809605,15.5014615 Q34.3477618,15.4444745 34.4053819,15.3881208 Q34.526954,15.2703478 34.5719104,15.2010137 Q34.6168667,15.1316796 34.6168667,15.0512647 Q34.6168667,14.9778149 34.5684279,14.9363411 Q34.519989,14.8948673 34.4332422,14.8948673 Q34.3756221,14.8948673 34.3085041,14.9151293 Q34.2413862,14.9353913 34.1774342,14.9771817 L34.1711023,14.9771817 L34.1711023,14.8442122 Q34.2160587,14.8220506 34.2910915,14.8036882 Q34.3661243,14.7853257 34.4364081,14.7853257 Q34.5814082,14.7853257 34.6637227,14.855293 Q34.7460371,14.9252603 34.7460371,15.0449329 Q34.7460371,15.0987538 34.7324236,15.1452932 Q34.71881,15.1918325 34.6922161,15.2336229 Q34.6675218,15.2728806 34.6342794,15.3108719 Q34.601037,15.3488631 34.5535479,15.3950859 Q34.4857968,15.4615706 34.4136134,15.5239396 Q34.3414299,15.5863087 34.2787443,15.6394965 L34.785928,15.6394965 Z" style="fill:rgb(68,68,68);stroke:none" />
<path d="M29.8195933,6.1681459 Q29.7615511,6.1934734 29.7145896,6.215635 Q29.6676282,6.2377965 29.5916456,6.2620688 Q29.5272715,6.2821197 29.4518166,6.2963664 Q29.3763616,6.3106132 29.2856047,6.3106132 Q29.1146439,6.3106132 28.9748149,6.2625964 Q28.8349858,6.2145796 28.7315651,6.1122142 Q28.630255,6.0119595 28.5732681,5.857356 Q28.5162812,5.7027526 28.5162812,5.4980218 Q28.5162812,5.3038441 28.5711575,5.1508237 Q28.6260338,4.9978032 28.7294545,4.8922718 Q28.8297093,4.7899064 28.9716489,4.7360855 Q29.1135886,4.6822645 29.28666,4.6822645 Q29.4132976,4.6822645 29.5394076,4.7128686 Q29.6655175,4.7434726 29.8195933,4.8205105 L29.8195933,5.0685092 L29.8037636,5.0685092 Q29.6739601,4.9598119 29.5462671,4.9102122 Q29.4185742,4.8606124 29.2729409,4.8606124 Q29.1536905,4.8606124 29.0581846,4.8991314 Q28.9626788,4.9376503 28.8877515,5.0189095 Q28.8149349,5.098058 28.7743053,5.2188914 Q28.7336757,5.3397248 28.7336757,5.4980218 Q28.7336757,5.663706 28.7785266,5.7829564 Q28.8233774,5.9022069 28.8940834,5.9771341 Q28.9679553,6.0552273 29.0666271,6.0926909 Q29.165299,6.1301546 29.2750516,6.1301546 Q29.4259614,6.1301546 29.5578756,6.0784442 Q29.6897898,6.0267338 29.8048189,5.9233131 L29.8195933,5.9233131 Z" style="fill:rgb(68,68,68);stroke:none" />
<path d="M31.2018957,6.2821197 L30.9929436,6.2821197 L30.9929436,5.5127962 L30.2088457,5.5127962 L30.2088457,6.2821197 L29.9998936,6.2821197 L29.9998936,4.7107579 L30.2088457,4.7107579 L30.2088457,5.327061 L30.9929436,5.327061 L30.9929436,4.7107579 L31.2018957,4.7107579 Z" style="fill:rgb(68,68,68);stroke:none" />
<path d="M31.9337028,6.2995324 Q31.9640959,6.3267595 31.9837247,6.3679167 Q32.0033535,6.4090739 32.0033535,6.4742923 Q32.0033535,6.5388775 31.9799256,6.5926985 Q31.9564976,6.6465195 31.914074,6.6864103 Q31.8665849,6.7307335 31.8023163,6.7519453 Q31.7380477,6.7731571 31.6614319,6.7731571 Q31.5829166,6.7731571 31.5069341,6.754478 Q31.4309515,6.735799 31.382196,6.7136374 L31.382196,6.5813011 L31.3916938,6.5813011 Q31.4455148,6.6167596 31.5183314,6.6401876 Q31.5911481,6.6636155 31.6588992,6.6636155 Q31.69879,6.6636155 31.7437464,6.6503186 Q31.7887028,6.6370216 31.816563,6.6110609 Q31.8456897,6.5832007 31.8599364,6.5496417 Q31.8741831,6.5160827 31.8741831,6.4647945 Q31.8741831,6.4141394 31.8580368,6.3808971 Q31.8418906,6.3476547 31.8133971,6.328659 Q31.7849036,6.3090302 31.7443796,6.3017485 Q31.7038555,6.2944669 31.6569996,6.2944669 L31.6000127,6.2944669 L31.6000127,6.1893577 L31.6443359,6.1893577 Q31.7405805,6.1893577 31.797884,6.1491502 Q31.8551875,6.1089428 31.8551875,6.0316938 Q31.8551875,5.9975017 31.8406242,5.9718575 Q31.8260609,5.9462134 31.8001001,5.9297505 Q31.7728731,5.9132876 31.7418468,5.9069558 Q31.7108206,5.9006239 31.671563,5.9006239 Q31.6114101,5.9006239 31.543659,5.9221523 Q31.4759078,5.9436807 31.415755,5.9829383 L31.4094231,5.9829383 L31.4094231,5.850602 Q31.4543794,5.8284404 31.5294122,5.8097614 Q31.604445,5.7910823 31.6747289,5.7910823 Q31.7437464,5.7910823 31.796301,5.8037461 Q31.8488556,5.8164099 31.8912792,5.8442701 Q31.9368688,5.8746632 31.9602967,5.91772 Q31.9837247,5.9607768 31.9837247,6.0183969 Q31.9837247,6.0969122 31.9283207,6.1554821 Q31.8729168,6.214052 31.7975674,6.2292485 L31.7975674,6.2381131 Q31.8279604,6.2431786 31.8672181,6.2593249 Q31.9064757,6.2754712 31.9337028,6.2995324 Z" style="fill:rgb(68,68,68);stroke:none" />
<path d="M9.0226473,3.7667214 Q8.9646051,3.7920489 8.9176436,3.8142105 Q8.8706822,3.8363721 8.7946996,3.8606443 Q8.7303255,3.8806952 8.6548706,3.894942 Q8.5794157,3.9091887 8.4886587,3.9091887 Q8.3176979,3.9091887 8.1778689,3.8611719 Q8.0380398,3.8131552 7.9346191,3.7107898 Q7.833309,3.610535 7.7763221,3.4559316 Q7.7193352,3.3013281 7.7193352,3.0965973 Q7.7193352,2.9024196 7.7742115,2.7493992 Q7.8290878,2.5963787 7.9325085,2.4908474 Q8.0327633,2.388482 8.1747029,2.334661 Q8.3166426,2.28084 8.489714,2.28084 Q8.6163516,2.28084 8.7424616,2.3114441 Q8.8685716,2.3420482 9.0226473,2.4190861 L9.0226473,2.6670847 L9.0068176,2.6670847 Q8.8770141,2.5583874 8.7493211,2.5087877 Q8.6216282,2.459188 8.4759949,2.459188 Q8.3567445,2.459188 8.2612387,2.4977069 Q8.1657328,2.5362259 8.0908055,2.617485 Q8.0179889,2.6966335 7.9773593,2.8174669 Q7.9367298,2.9383003 7.9367298,3.0965973 Q7.9367298,3.2622815 7.9815806,3.381532 Q8.0264314,3.5007824 8.0971374,3.5757096 Q8.1710093,3.6538028 8.2696812,3.6912665 Q8.368353,3.7287301 8.4781056,3.7287301 Q8.6290154,3.7287301 8.7609296,3.6770197 Q8.8928438,3.6253094 9.0078729,3.5218887 L9.0226473,3.5218887 Z" style="fill:rgb(68,68,68);stroke:none" />
<path d="M9.0110389,2.1005397 L8.8020868,2.1005397 L8.8020868,1.3312161 L8.0179889,1.3312161 L8.0179889,2.1005397 L7.8090368,2.1005397 L7.8090368,0.5291779 L8.0179889,0.5291779 L8.0179889,1.145481 L8.8020868,1.145481 L8.8020868,0.5291779 L9.0110389,0.5291779 Z" style="fill:rgb(68,68,68);stroke:none" />
<path d="M4.8632581,6.1681459 Q4.8052159,6.1934734 4.7582544,6.215635 Q4.711293,6.2377965 4.6353104,6.2620688 Q4.5709363,6.2821197 4.4954814,6.2963664 Q4.4200265,6.3106132 4.3292695,6.3106132 Q4.1583087,6.3106132 4.0184797,6.2625964 Q3.8786507,6.2145796 3.7752299,6.1122142 Q3.6739198,6.0119595 3.6169329,5.857356 Q3.559946,5.7027526 3.559946,5.4980218 Q3.559946,5.3038441 3.6148223,5.1508237 Q3.6696986,4.9978032 3.7731193,4.8922718 Q3.8733741,4.7899064 4.0153137,4.7360855 Q4.1572534,4.6822645 4.3303248,4.6822645 Q4.4569624,4.6822645 4.5830724,4.7128686 Q4.7091824,4.7434726 4.8632581,4.8205105 L4.8632581,5.0685092 L4.8474284,5.0685092 Q4.7176249,4.9598119 4.5899319,4.9102122 Q4.462239,4.8606124 4.3166057,4.8606124 Q4.1973553,4.8606124 4.1018495,4.8991314 Q4.0063436,4.9376503 3.9314163,5.0189095 Q3.8585997,5.098058 3.8179701,5.2188914 Q3.7773406,5.3397248 3.7773406,5.4980218 Q3.7773406,5.663706 3.8221914,5.7829564 Q3.8670422,5.9022069 3.9377482,5.9771341 Q4.0116202,6.0552273 4.110292,6.0926909 Q4.2089638,6.1301546 4.3187164,6.1301546 Q4.4696262,6.1301546 4.6015404,6.0784442 Q4.7334546,6.0267338 4.8484837,5.9233131 L4.8632581,5.9233131 Z" style="fill:rgb(68,68,68);stroke:none" />
<path d="M2.5610918,6.2821197 L2.3521397,6.2821197 L2.3521397,5.5127962 L1.5680418,5.5127962 L1.5680418,6.2821197 L1.3590897,6.2821197 L1.3590897,4.7107579 L1.5680418,4.7107579 L1.5680418,5.327061 L2.3521397,5.327061 L2.3521397,4.7107579 L2.5610918,4.7107579 Z" style="fill:rgb(68,68,68);stroke:none" />
<path d="M3.3796457,6.7633427 L2.7413921,6.7633427 L2.7413921,6.6310064 Q2.8078768,6.5740194 2.8746782,6.5170325 Q2.9414795,6.4600456 2.9990996,6.4036918 Q3.1206717,6.2859188 3.1656281,6.2165847 Q3.2105844,6.1472506 3.2105844,6.0668358 Q3.2105844,5.9933859 3.1621456,5.9519121 Q3.1137067,5.9104383 3.0269599,5.9104383 Q2.9693398,5.9104383 2.9022218,5.9307003 Q2.8351039,5.9509623 2.7711519,5.9927528 L2.76482,5.9927528 L2.76482,5.8597833 Q2.8097764,5.8376217 2.8848092,5.8192592 Q2.959842,5.8008968 3.0301258,5.8008968 Q3.1751259,5.8008968 3.2574404,5.870864 Q3.3397548,5.9408313 3.3397548,6.0605039 Q3.3397548,6.1143249 3.3261413,6.1608642 Q3.3125277,6.2074035 3.2859338,6.2491939 Q3.2612395,6.2884516 3.2279971,6.3264429 Q3.1947547,6.3644342 3.1472656,6.4106569 Q3.0795145,6.4771416 3.0073311,6.5395107 Q2.9351476,6.6018797 2.872462,6.6550675 L3.3796457,6.6550675 Z" style="fill:rgb(68,68,68);stroke:none" />
<path d="M13.1820365,20.5766927 Q13.1239943,20.6020202 13.0770328,20.6241818 Q13.0300714,20.6463434 12.9540888,20.6706156 Q12.8897147,20.6906665 12.8142598,20.7049133 Q12.7388049,20.71916 12.6480479,20.71916 Q12.4770871,20.71916 12.3372581,20.6711432 Q12.197429,20.6231265 12.0940083,20.5207611 Q11.9926982,20.4205063 11.9357113,20.2659029 Q11.8787244,20.1112994 11.8787244,19.9065686 Q11.8787244,19.7123909 11.9336007,19.5593705 Q11.988477,19.40635 12.0918977,19.3008187 Q12.1921525,19.1984533 12.3340921,19.1446323 Q12.4760318,19.0908113 12.6491032,19.0908113 Q12.7757408,19.0908113 12.9018508,19.1214154 Q13.0279608,19.1520195 13.1820365,19.2290574 L13.1820365,19.477056 L13.1662068,19.477056 Q13.0364033,19.3683587 12.9087103,19.318759 Q12.7810174,19.2691593 12.6353841,19.2691593 Q12.5161337,19.2691593 12.4206278,19.3076782 Q12.325122,19.3461972 12.2501947,19.4274563 Q12.1773781,19.5066048 12.1367485,19.6274382 Q12.0961189,19.7482716 12.0961189,19.9065686 Q12.0961189,20.0722528 12.1409698,20.1915033 Q12.1858206,20.3107537 12.2565266,20.3856809 Q12.3303985,20.4637741 12.4290704,20.5012378 Q12.5277422,20.5387014 12.6374948,20.5387014 Q12.7884046,20.5387014 12.9203188,20.486991 Q13.052233,20.4352807 13.1672621,20.33186 L13.1820365,20.33186 Z" style="fill:rgb(68,68,68);stroke:none" />
<path d="M13.1704281,22.4708221 L12.961476,22.4708221 L12.961476,21.7014986 L12.1773781,21.7014986 L12.1773781,22.4708221 L11.968426,22.4708221 L11.968426,20.8994603 L12.1773781,20.8994603 L12.1773781,21.5157634 L12.961476,21.5157634 L12.961476,20.8994603 L13.1704281,20.8994603 Z" style="fill:rgb(68,68,68);stroke:none" />
</svg>
