<?xml version="1.0" encoding="UTF-8"?>
<!DOCTYPE svg PUBLIC "-//W3C//DTD SVG 1.1//EN" "http://www.w3.org/Graphics/SVG/1.1/DTD/svg11.dtd">
<svg version="1.2" xmlns="http://www.w3.org/2000/svg" xmlns:xlink="http://www.w3.org/1999/xlink" x="0mm" y="0mm" width="20mm" height="13mm" viewBox="0 0 20 13">
<style type="text/css"><![CDATA[
text { font:12px Dialog; }
]]></style>
<line x1="2.2014243" y1="8.7450417" x2="6.0978699" y2="10.9946556" style="fill:none;stroke:rgb(68,68,68);stroke-width:0.2064196;stroke-linecap:round;stroke-linejoin:round" />
<line x1="3.0112853" y1="8.2774682" x2="6.0978699" y2="10.0595086" style="fill:none;stroke:rgb(68,68,68);stroke-width:0.2064196;stroke-linecap:round;stroke-linejoin:round" />
<line x1="2.2014243" y1="8.7450417" x2="2.2014243" y2="4.2458138" style="fill:none;stroke:rgb(68,68,68);stroke-width:0.2064196;stroke-linecap:round;stroke-linejoin:round" />
<line x1="6.0978699" y1="1.9961998" x2="2.2014243" y2="4.2458138" style="fill:none;stroke:rgb(68,68,68);stroke-width:0.2064196;stroke-linecap:round;stroke-linejoin:round" />
<line x1="6.0978699" y1="2.9313468" x2="3.0112853" y2="4.7133873" style="fill:none;stroke:rgb(68,68,68);stroke-width:0.2064196;stroke-linecap:round;stroke-linejoin:round" />
<line x1="6.0978699" y1="1.9961998" x2="9.9943156" y2="4.2458138" style="fill:none;stroke:rgb(68,68,68);stroke-width:0.2064196;stroke-linecap:round;stroke-linejoin:round" />
<line x1="13.8907612" y1="1.9961998" x2="9.9943156" y2="4.2458138" style="fill:none;stroke:rgb(68,68,68);stroke-width:0.2064196;stroke-linecap:round;stroke-linejoin:round" />
<line x1="13.8907612" y1="2.9313468" x2="10.8041766" y2="4.7133873" style="fill:none;stroke:rgb(68,68,68);stroke-width:0.2064196;stroke-linecap:round;stroke-linejoin:round" />
<line x1="13.8907612" y1="1.9961998" x2="17.7872068" y2="4.2458138" style="fill:none;stroke:rgb(68,68,68);stroke-width:0.2064196;stroke-linecap:round;stroke-linejoin:round" />
<line x1="17.7872068" y1="8.7450417" x2="17.7872068" y2="4.2458138" style="fill:none;stroke:rgb(68,68,68);stroke-width:0.2064196;stroke-linecap:round;stroke-linejoin:round" />
<line x1="16.9773458" y1="8.2774682" x2="16.9773458" y2="4.7133873" style="fill:none;stroke:rgb(68,68,68);stroke-width:0.2064196;stroke-linecap:round;stroke-linejoin:round" />
<line x1="17.7872068" y1="8.7450417" x2="13.8907612" y2="10.9946556" style="fill:none;stroke:rgb(68,68,68);stroke-width:0.2064196;stroke-linecap:round;stroke-linejoin:round" />
<line x1="9.9943156" y1="8.7450417" x2="13.8907612" y2="10.9946556" style="fill:none;stroke:rgb(68,68,68);stroke-width:0.2064196;stroke-linecap:round;stroke-linejoin:round" />
<line x1="10.8041766" y1="8.2774682" x2="13.8907612" y2="10.0595086" style="fill:none;stroke:rgb(68,68,68);stroke-width:0.2064196;stroke-linecap:round;stroke-linejoin:round" />
<line x1="6.0978699" y1="10.9946556" x2="9.9943156" y2="8.7450417" style="fill:none;stroke:rgb(68,68,68);stroke-width:0.2064196;stroke-linecap:round;stroke-linejoin:round" />
<line x1="9.9943156" y1="4.2458138" x2="9.9943156" y2="8.7450417" style="fill:none;stroke:rgb(68,68,68);stroke-width:0.2064196;stroke-linecap:round;stroke-linejoin:round" />
<path d="M6.2970728,12.4887046 L5.898667,12.4887046 L5.898667,12.413571 L6.0519,12.413571 L6.0519,11.9202597 L5.898667,11.9202597 L5.898667,11.8530349 Q5.9298079,11.8530349 5.9653975,11.8478448 Q6.0009871,11.8426546 6.0192762,11.8327686 Q6.042014,11.8204111 6.055113,11.8013806 Q6.0682119,11.78235 6.0701891,11.7502205 L6.1468056,11.7502205 L6.1468056,12.413571 L6.2970728,12.413571 Z" style="fill:rgb(255,0,0);stroke:none" />
<path d="M1.47644,9.6831131 L0.9781857,9.6831131 L0.9781857,9.5798044 Q1.0300872,9.5353174 1.0822358,9.4908304 Q1.1343845,9.4463434 1.1793658,9.4023507 Q1.2742714,9.3104109 1.3093667,9.2562851 Q1.3444619,9.2021593 1.3444619,9.1393832 Q1.3444619,9.0820444 1.306648,9.0496677 Q1.2688341,9.0172911 1.201115,9.0172911 Q1.1561337,9.0172911 1.1037379,9.0331087 Q1.0513421,9.0489263 1.0014178,9.0815501 L0.9964748,9.0815501 L0.9964748,8.9777471 Q1.0315701,8.9604466 1.0901446,8.9461119 Q1.1487192,8.9317772 1.2035865,8.9317772 Q1.3167812,8.9317772 1.3810401,8.9863973 Q1.4452991,9.0410175 1.4452991,9.1344402 Q1.4452991,9.1764557 1.4346717,9.2127867 Q1.4240442,9.2491178 1.4032836,9.2817416 Q1.3840059,9.3123881 1.3580552,9.3420461 Q1.3321045,9.3717041 1.295032,9.407788 Q1.2421419,9.4596895 1.1857917,9.5083781 Q1.1294415,9.5570666 1.0805058,9.5985878 L1.47644,9.5985878 Z" style="fill:rgb(255,0,0);stroke:none" />
<path d="M1.415394,3.6970036 Q1.4391204,3.7182584 1.4544437,3.7503879 Q1.469767,3.7825174 1.469767,3.8334303 Q1.469767,3.8838489 1.4514779,3.9258644 Q1.4331888,3.9678799 1.4000707,3.9990208 Q1.3629982,4.0336218 1.3128268,4.0501809 Q1.2626553,4.0667399 1.202845,4.0667399 Q1.1415518,4.0667399 1.0822358,4.0521581 Q1.0229198,4.0375762 0.9848587,4.0202757 L0.9848587,3.916967 L0.9922732,3.916967 Q1.0342887,3.9446478 1.0911332,3.9629369 Q1.1479777,3.981226 1.2008678,3.981226 Q1.2320087,3.981226 1.267104,3.9708457 Q1.3021993,3.9604654 1.3239485,3.9401991 Q1.3466863,3.9184499 1.357808,3.892252 Q1.3689298,3.8660541 1.3689298,3.8260158 Q1.3689298,3.7864718 1.3563251,3.7605211 Q1.3437205,3.7345703 1.321477,3.7197413 Q1.2992335,3.7044181 1.2675983,3.6987336 Q1.2359631,3.6930492 1.1993849,3.6930492 L1.1548979,3.6930492 L1.1548979,3.6109954 L1.1894989,3.6109954 Q1.2646325,3.6109954 1.3093667,3.5796073 Q1.3541008,3.5482193 1.3541008,3.4879147 Q1.3541008,3.4612225 1.3427319,3.4412033 Q1.331363,3.4211842 1.3110967,3.4083324 Q1.2898418,3.3954806 1.2656211,3.3905376 Q1.2414004,3.3855946 1.2107538,3.3855946 Q1.1637953,3.3855946 1.1109052,3.4024008 Q1.0580151,3.419207 1.0110566,3.4498536 L1.0061136,3.4498536 L1.0061136,3.3465449 Q1.0412089,3.3292444 1.0997835,3.3146625 Q1.158358,3.3000807 1.2132253,3.3000807 Q1.267104,3.3000807 1.3081309,3.3099667 Q1.3491578,3.3198527 1.3822759,3.3416019 Q1.4178655,3.3653283 1.4361546,3.3989407 Q1.4544437,3.4325531 1.4544437,3.4775344 Q1.4544437,3.5388276 1.4111924,3.5845503 Q1.3679412,3.6302731 1.3091195,3.6421363 L1.3091195,3.6490565 Q1.3328459,3.6530109 1.3634925,3.6656155 Q1.3941391,3.6782202 1.415394,3.6970036 Z" style="fill:rgb(255,0,0);stroke:none" />
<path d="M6.3761608,1.0322875 L6.2669205,1.0322875 L6.2669205,1.2393992 L6.1720149,1.2393992 L6.1720149,1.0322875 L5.819579,1.0322875 L5.819579,0.9185985 L6.1759693,0.5033866 L6.2669205,0.5033866 L6.2669205,0.9531995 L6.3761608,0.9531995 Z M6.1720149,0.9531995 L6.1720149,0.62103 L5.8868038,0.9531995 Z" style="fill:rgb(255,0,0);stroke:none" />
<path d="M8.6853159,4.8761835 L8.5760756,4.8761835 L8.5760756,5.0832952 L8.4811701,5.0832952 L8.4811701,4.8761835 L8.1287342,4.8761835 L8.1287342,4.7624945 L8.4851245,4.3472826 L8.5760756,4.3472826 L8.5760756,4.7970955 L8.6853159,4.7970955 Z M8.4811701,4.7970955 L8.4811701,4.464926 L8.195959,4.7970955 Z M9.2547495,5.0832952 L9.1623154,5.0832952 L9.1623154,5.0244735 Q9.1499579,5.0328766 9.1289501,5.0479527 Q9.1079424,5.0630289 9.0881704,5.0719263 Q9.0649383,5.0832952 9.034786,5.0909568 Q9.0046337,5.0986185 8.9641011,5.0986185 Q8.8894618,5.0986185 8.8375603,5.0491885 Q8.7856588,4.9997585 8.7856588,4.923142 Q8.7856588,4.8603659 8.8125982,4.8215634 Q8.8395375,4.7827608 8.8894618,4.7605173 Q8.9398804,4.7382738 9.0105653,4.730365 Q9.0812502,4.7224562 9.1623154,4.7185018 L9.1623154,4.7041671 Q9.1623154,4.6725319 9.1511936,4.6517713 Q9.1400719,4.6310107 9.1193113,4.6191475 Q9.0995393,4.6077786 9.0718585,4.6038242 Q9.0441777,4.5998698 9.0140254,4.5998698 Q8.9774472,4.5998698 8.9324659,4.6095087 Q8.8874846,4.6191475 8.8395375,4.6374366 L8.8345945,4.6374366 L8.8345945,4.5430254 Q8.861781,4.5356109 8.9131882,4.5267135 Q8.9645954,4.5178161 9.0145197,4.5178161 Q9.0728471,4.5178161 9.1160983,4.5274549 Q9.1593496,4.5370938 9.1909848,4.5603259 Q9.2221257,4.5830637 9.2384376,4.6191475 Q9.2547495,4.6552314 9.2547495,4.7086158 Z M9.1623154,4.9473627 L9.1623154,4.7936354 Q9.1198056,4.7961069 9.0622196,4.8010499 Q9.0046337,4.8059929 8.9710213,4.8153846 Q8.930983,4.8267535 8.906268,4.8507271 Q8.881553,4.8747006 8.881553,4.9167161 Q8.881553,4.9641689 8.9102224,4.9881424 Q8.9388918,5.012116 8.9977135,5.012116 Q9.0466492,5.012116 9.0871818,4.9930854 Q9.1277144,4.9740549 9.1623154,4.9473627 Z" style="fill:rgb(255,0,0);stroke:none" />
<path d="M14.1304967,0.9979337 Q14.1304967,1.0493409 14.1117133,1.0962994 Q14.0929299,1.1432578 14.0603061,1.1753873 Q14.0247165,1.2099883 13.9755336,1.2285246 Q13.9263508,1.2470608 13.8615975,1.2470608 Q13.8012929,1.2470608 13.745437,1.2344562 Q13.6895811,1.2218515 13.6510257,1.2040567 L13.6510257,1.0997595 L13.6579459,1.0997595 Q13.6984785,1.125463 13.7528515,1.143505 Q13.8072245,1.1615469 13.8596203,1.1615469 Q13.8947156,1.1615469 13.9275865,1.1516609 Q13.9604575,1.1417749 13.9861611,1.1170599 Q14.0079103,1.0958051 14.019032,1.0661471 Q14.0301538,1.0364891 14.0301538,0.9974394 Q14.0301538,0.9593783 14.0170548,0.9331804 Q14.0039559,0.9069825 13.9807238,0.8911649 Q13.9550202,0.8723815 13.9181948,0.8647198 Q13.8813695,0.8570582 13.8358939,0.8570582 Q13.7923955,0.8570582 13.7521101,0.8629898 Q13.7118246,0.8689214 13.6826609,0.874853 L13.6826609,0.4957249 L14.1255537,0.4957249 L14.1255537,0.5822274 L13.7780608,0.5822274 L13.7780608,0.7779702 Q13.7993157,0.775993 13.8215592,0.7750044 Q13.8438027,0.7740158 13.8601146,0.7740158 Q13.9199249,0.7740158 13.9649062,0.7841489 Q14.0098875,0.7942821 14.0474543,0.8199857 Q14.0869983,0.8471722 14.1087475,0.8901763 Q14.1304967,0.9331804 14.1304967,0.9979337 Z" style="fill:rgb(255,0,0);stroke:none" />
<path d="M19.0218143,3.8119283 Q19.0218143,3.9241344 18.9479165,3.9950664 Q18.8740186,4.0659985 18.7667555,4.0659985 Q18.7123825,4.0659985 18.6678955,4.0491923 Q18.6234086,4.0323861 18.5893019,3.999268 Q18.5467921,3.9582411 18.5238071,3.890522 Q18.5008222,3.8228029 18.5008222,3.727403 Q18.5008222,3.6295316 18.5218299,3.5539037 Q18.5428377,3.4782758 18.5888076,3.4194541 Q18.632306,3.3635982 18.7010136,3.3322102 Q18.7697213,3.3008222 18.8611668,3.3008222 Q18.8903305,3.3008222 18.9101025,3.3032937 Q18.9298745,3.3057652 18.9501408,3.312191 L18.9501408,3.4066023 L18.9451978,3.4066023 Q18.9313574,3.3991878 18.9034295,3.3925148 Q18.8755015,3.3858417 18.8463378,3.3858417 Q18.7400633,3.3858417 18.6767929,3.4523251 Q18.6135226,3.5188084 18.6031423,3.6320031 Q18.6446635,3.6067938 18.6849489,3.5936949 Q18.7252343,3.5805959 18.7781244,3.5805959 Q18.8250829,3.5805959 18.8609197,3.5892462 Q18.8967564,3.5978964 18.9343232,3.6240943 Q18.9778216,3.6542466 18.999818,3.7002165 Q19.0218143,3.7461864 19.0218143,3.8119283 Z M18.9214714,3.8158827 Q18.9214714,3.7699128 18.9078782,3.7397605 Q18.8942849,3.7096082 18.863144,3.6873647 Q18.8404062,3.6715471 18.8127254,3.6666041 Q18.7850446,3.6616611 18.7548923,3.6616611 Q18.7128768,3.6616611 18.6767929,3.6715471 Q18.6407091,3.6814331 18.602648,3.7021937 Q18.6016594,3.7130683 18.6011651,3.7232014 Q18.6006708,3.7333346 18.6006708,3.7486579 Q18.6006708,3.8267573 18.6167355,3.8719857 Q18.6328003,3.9172142 18.6609753,3.9434121 Q18.6837131,3.9651613 18.7101582,3.9752944 Q18.7366032,3.9854276 18.7677441,3.9854276 Q18.8394176,3.9854276 18.8804445,3.941682 Q18.9214714,3.8979365 18.9214714,3.8158827 Z" style="fill:rgb(255,0,0);stroke:none" />
<path d="M19.0131641,9.0496677 L18.6800059,9.6754515 L18.5742257,9.6754515 L18.9286388,9.0259413 L18.5094724,9.0259413 L18.5094724,8.9394388 L19.0131641,8.9394388 Z" style="fill:rgb(255,0,0);stroke:none" />
<path d="M14.1522459,12.2823344 Q14.1522459,12.3777343 14.0778537,12.4410047 Q14.0034616,12.5042751 13.8907612,12.5042751 Q13.7711406,12.5042751 13.7002086,12.4424876 Q13.6292765,12.3807001 13.6292765,12.2843116 Q13.6292765,12.2230184 13.6648661,12.1733413 Q13.7004557,12.1236641 13.765209,12.0945004 L13.765209,12.0915346 Q13.705893,12.0598994 13.6774708,12.0223326 Q13.6490485,11.9847658 13.6490485,11.9284156 Q13.6490485,11.8453733 13.7172619,11.7900117 Q13.7854753,11.7346501 13.8907612,11.7346501 Q14.0009901,11.7346501 14.066732,11.7875402 Q14.1324739,11.8404303 14.1324739,11.9219897 Q14.1324739,11.971914 14.101333,12.0201083 Q14.0701921,12.0683025 14.0098875,12.095489 L14.0098875,12.0984548 Q14.0790895,12.1281128 14.1156677,12.1716112 Q14.1522459,12.2151096 14.1522459,12.2823344 Z M14.0350968,11.9229783 Q14.0350968,11.8700883 13.994317,11.8387002 Q13.9535373,11.8073122 13.8902669,11.8073122 Q13.8279851,11.8073122 13.788194,11.8369702 Q13.7484028,11.8666282 13.7484028,11.9170467 Q13.7484028,11.9526363 13.768422,11.9785871 Q13.7884411,12.0045378 13.8289737,12.0248041 Q13.8472628,12.0337015 13.8816166,12.0480362 Q13.9159705,12.0623709 13.9485943,12.0717626 Q13.99753,12.0391388 14.0163134,12.0040435 Q14.0350968,11.9689482 14.0350968,11.9229783 Z M14.0504201,12.2917261 Q14.0504201,12.2462505 14.0304009,12.2188169 Q14.0103818,12.1913832 13.9520544,12.1637024 Q13.9288223,12.1528278 13.9011415,12.1434361 Q13.8734607,12.1340444 13.8274908,12.1172382 Q13.7830038,12.1414589 13.7560645,12.1829801 Q13.7291251,12.2245013 13.7291251,12.2768971 Q13.7291251,12.3436276 13.775095,12.387126 Q13.8210649,12.4306244 13.8917498,12.4306244 Q13.9639176,12.4306244 14.0071688,12.3935519 Q14.0504201,12.3564794 14.0504201,12.2917261 Z" style="fill:rgb(255,0,0);stroke:none" />
<path d="M8.673947,8.2525816 Q8.673947,8.3479815 8.5995549,8.4112519 Q8.5251628,8.4745223 8.4124624,8.4745223 Q8.2928418,8.4745223 8.2219097,8.4127348 Q8.1509777,8.3509473 8.1509777,8.2545588 Q8.1509777,8.1932656 8.1865673,8.1435885 Q8.2221569,8.0939113 8.2869102,8.0647476 L8.2869102,8.0617818 Q8.2275942,8.0301466 8.1991719,7.9925799 Q8.1707497,7.9550131 8.1707497,7.8986629 Q8.1707497,7.8156205 8.2389631,7.7602589 Q8.3071765,7.7048973 8.4124624,7.7048973 Q8.5226913,7.7048973 8.5884331,7.7577874 Q8.654175,7.8106775 8.654175,7.892237 Q8.654175,7.9421613 8.6230341,7.9903555 Q8.5918932,8.0385497 8.5315887,8.0657362 L8.5315887,8.068702 Q8.6007906,8.09836 8.6373688,8.1418584 Q8.673947,8.1853568 8.673947,8.2525816 Z M8.5567979,7.8932256 Q8.5567979,7.8403355 8.5160182,7.8089474 Q8.4752385,7.7775594 8.4119681,7.7775594 Q8.3496863,7.7775594 8.3098951,7.8072174 Q8.270104,7.8368754 8.270104,7.887294 Q8.270104,7.9228836 8.2901231,7.9488343 Q8.3101423,7.9747851 8.3506749,7.9950514 Q8.368964,8.0039488 8.4033178,8.0182834 Q8.4376717,8.0326181 8.4702955,8.0420098 Q8.5192312,8.0093861 8.5380146,7.9742908 Q8.5567979,7.9391955 8.5567979,7.8932256 Z M8.5721212,8.2619733 Q8.5721212,8.2164977 8.5521021,8.1890641 Q8.532083,8.1616304 8.4737556,8.1339496 Q8.4505235,8.123075 8.4228427,8.1136833 Q8.3951619,8.1042916 8.349192,8.0874854 Q8.304705,8.1117061 8.2777656,8.1532273 Q8.2508263,8.1947485 8.2508263,8.2471443 Q8.2508263,8.3138748 8.2967962,8.3573732 Q8.3427661,8.4008716 8.413451,8.4008716 Q8.4856188,8.4008716 8.52887,8.3637991 Q8.5721212,8.3267266 8.5721212,8.2619733 Z M9.2547495,8.4577161 L9.1623154,8.4577161 L9.1623154,8.3988944 Q9.1499579,8.4072975 9.1289501,8.4223736 Q9.1079424,8.4374498 9.0881704,8.4463472 Q9.0649383,8.4577161 9.034786,8.4653777 Q9.0046337,8.4730394 8.9641011,8.4730394 Q8.8894618,8.4730394 8.8375603,8.4236094 Q8.7856588,8.3741794 8.7856588,8.2975629 Q8.7856588,8.2347868 8.8125982,8.1959843 Q8.8395375,8.1571817 8.8894618,8.1349382 Q8.9398804,8.1126947 9.0105653,8.1047859 Q9.0812502,8.0968771 9.1623154,8.0929227 L9.1623154,8.078588 Q9.1623154,8.0469528 9.1511936,8.0261922 Q9.1400719,8.0054317 9.1193113,7.9935685 Q9.0995393,7.9821996 9.0718585,7.9782452 Q9.0441777,7.9742908 9.0140254,7.9742908 Q8.9774472,7.9742908 8.9324659,7.9839296 Q8.8874846,7.9935685 8.8395375,8.0118576 L8.8345945,8.0118576 L8.8345945,7.9174463 Q8.861781,7.9100318 8.9131882,7.9011344 Q8.9645954,7.892237 9.0145197,7.892237 Q9.0728471,7.892237 9.1160983,7.9018758 Q9.1593496,7.9115147 9.1909848,7.9347468 Q9.2221257,7.9574846 9.2384376,7.9935685 Q9.2547495,8.0296523 9.2547495,8.0830367 Z M9.1623154,8.3217836 L9.1623154,8.1680563 Q9.1198056,8.1705278 9.0622196,8.1754708 Q9.0046337,8.1804138 8.9710213,8.1898055 Q8.930983,8.2011744 8.906268,8.225148 Q8.881553,8.2491215 8.881553,8.291137 Q8.881553,8.3385898 8.9102224,8.3625634 Q8.9388918,8.3865369 8.9977135,8.3865369 Q9.0466492,8.3865369 9.0871818,8.3675064 Q9.1277144,8.3484758 9.1623154,8.3217836 Z" style="fill:rgb(255,0,0);stroke:none" />
</svg>
