<?xml version="1.0" encoding="UTF-8"?>
<!DOCTYPE svg PUBLIC "-//W3C//DTD SVG 1.1//EN" "http://www.w3.org/Graphics/SVG/1.1/DTD/svg11.dtd">
<svg version="1.2" xmlns="http://www.w3.org/2000/svg" xmlns:xlink="http://www.w3.org/1999/xlink" x="0mm" y="0mm" width="218mm" height="182mm" viewBox="0 0 218 182">
<style type="text/css"><![CDATA[
text { font:12px Dialog; }
]]></style>
<line x1="59.5995795" y1="64.4297515" x2="45.9063995" y2="56.5239904" style="fill:none;stroke:rgb(0,0,0);stroke-width:1.6504143;stroke-linecap:round;stroke-linejoin:round" />
<line x1="68.848488" y1="81.181427" x2="68.848488" y2="107.5397374" style="fill:none;stroke:rgb(0,0,0);stroke-width:1.6504143;stroke-linecap:round;stroke-linejoin:round" />
<line x1="72.2477993" y1="109.5023307" x2="47.6589536" y2="123.6987074" style="fill:none;stroke:rgb(0,0,0);stroke-width:1.6504143;stroke-linecap:round;stroke-linejoin:round" />
<line x1="68.848488" y1="103.6145507" x2="44.2596422" y2="117.8109275" style="fill:none;stroke:rgb(0,0,0);stroke-width:1.6504143;stroke-linecap:round;stroke-linejoin:round" />
<line x1="68.848488" y1="107.5397374" x2="92.3094682" y2="121.0849406" style="fill:none;stroke:rgb(0,0,0);stroke-width:1.6504143;stroke-linecap:round;stroke-linejoin:round" />
<line x1="101.5583767" y1="137.8366162" x2="101.5583767" y2="152.5064741" style="fill:none;stroke:rgb(0,0,0);stroke-width:1.6504143;stroke-linecap:round;stroke-linejoin:round" />
<line x1="110.8072851" y1="121.0849406" x2="134.2682653" y2="107.5397374" style="fill:none;stroke:rgb(0,0,0);stroke-width:1.6504143;stroke-linecap:round;stroke-linejoin:round" />
<line x1="134.2682653" y1="107.5397374" x2="160.6602083" y2="116.1149995" style="fill:none;stroke:rgb(0,0,0);stroke-width:1.6504143;stroke-linecap:round;stroke-linejoin:round" />
<line x1="192.390513" y1="88.6546743" x2="178.0229453" y2="108.4299347" style="fill:none;stroke:rgb(0,0,0);stroke-width:1.6504143;stroke-linecap:round;stroke-linejoin:round" />
<line x1="183.9869532" y1="88.6546743" x2="172.522744" y2="104.4338045" style="fill:none;stroke:rgb(0,0,0);stroke-width:1.6504143;stroke-linecap:round;stroke-linejoin:round" />
<line x1="192.390513" y1="88.6546743" x2="178.0229453" y2="68.879414" style="fill:none;stroke:rgb(0,0,0);stroke-width:1.6504143;stroke-linecap:round;stroke-linejoin:round" />
<line x1="173.8452215" y1="46.8477388" x2="178.2130964" y2="33.4048022" style="fill:none;stroke:rgb(0,0,0);stroke-width:1.6504143;stroke-linecap:round;stroke-linejoin:round" />
<line x1="160.6602083" y1="61.1943492" x2="134.2682653" y2="69.7696113" style="fill:none;stroke:rgb(0,0,0);stroke-width:1.6504143;stroke-linecap:round;stroke-linejoin:round" />
<line x1="134.2682653" y1="107.5397374" x2="134.2682653" y2="69.7696113" style="fill:none;stroke:rgb(0,0,0);stroke-width:1.6504143;stroke-linecap:round;stroke-linejoin:round" />
<line x1="127.4696427" y1="103.6145507" x2="127.4696427" y2="73.694798" style="fill:none;stroke:rgb(0,0,0);stroke-width:1.6504143;stroke-linecap:round;stroke-linejoin:round" />
<line x1="134.2682653" y1="69.7696113" x2="101.5583767" y2="50.8845483" style="fill:none;stroke:rgb(0,0,0);stroke-width:1.6504143;stroke-linecap:round;stroke-linejoin:round" />
<line x1="78.0973965" y1="64.4297515" x2="101.5583767" y2="50.8845483" style="fill:none;stroke:rgb(0,0,0);stroke-width:1.6504143;stroke-linecap:round;stroke-linejoin:round" />
<line x1="98.1590653" y1="52.8471416" x2="98.1590653" y2="24.8084073" style="fill:none;stroke:rgb(0,0,0);stroke-width:1.6504143;stroke-linecap:round;stroke-linejoin:round" />
<line x1="104.957688" y1="52.8471416" x2="104.957688" y2="24.8084073" style="fill:none;stroke:rgb(0,0,0);stroke-width:1.6504143;stroke-linecap:round;stroke-linejoin:round" />
<path d="M62.458181,77.8805983 L62.458181,61.6586243 L64.6602089,61.6586243 L73.1806182,74.3949764 L73.1806182,61.6586243 L75.2387949,61.6586243 L75.2387949,77.8805983 L73.0367671,77.8805983 L64.5163578,65.1331808 L64.5163578,77.8805983 Z" style="fill:rgb(0,0,0);stroke:none" />
<path d="M41.1623211,53.3078855 L43.3090217,53.8500933 Q42.6340282,56.4947399 40.8801517,57.8834559 Q39.1262753,59.272172 36.5922834,59.272172 Q33.9697678,59.272172 32.326546,58.2043544 Q30.6833242,57.1365369 29.8257506,55.1115565 Q28.9681769,53.0865761 28.9681769,50.7628281 Q28.9681769,48.2288363 29.9364052,46.3421742 Q30.9046336,44.4555122 32.6917064,43.4762184 Q34.4787793,42.4969246 36.6254798,42.4969246 Q39.0598825,42.4969246 40.7197025,43.7362568 Q42.3795225,44.9755891 43.032385,47.2218788 L40.9188809,47.7198248 Q40.3545421,45.9493502 39.2811918,45.1415711 Q38.2078415,44.333792 36.581218,44.333792 Q34.7111541,44.333792 33.4552236,45.2300948 Q32.1992932,46.1263976 31.6902817,47.6368338 Q31.1812702,49.14727 31.1812702,50.7517627 Q31.1812702,52.8210049 31.7843382,54.3646375 Q32.3874061,55.9082701 33.6599348,56.6717873 Q34.9324634,57.4353045 36.415236,57.4353045 Q38.218907,57.4353045 39.4693047,56.3951507 Q40.7197025,55.3549968 41.1623211,53.3078855 Z" style="fill:rgb(0,0,0);stroke:none" />
<path d="M6.0515955,58.9955353 L6.0515955,42.7735612 L8.1982961,42.7735612 L8.1982961,49.4349721 L16.6301816,49.4349721 L16.6301816,42.7735612 L18.7768822,42.7735612 L18.7768822,58.9955353 L16.6301816,58.9955353 L16.6301816,51.3492979 L8.1982961,51.3492979 L8.1982961,58.9955353 Z" style="fill:rgb(0,0,0);stroke:none" />
<path d="M20.6856751,61.2263334 L21.8807455,61.0669907 Q22.0865632,62.0828005 22.5811896,62.5309519 Q23.0758159,62.9791033 23.7862189,62.9791033 Q24.6294075,62.9791033 25.2103444,62.3948467 Q25.7912814,61.81059 25.7912814,60.9474836 Q25.7912814,60.1242129 25.2534998,59.5897509 Q24.7157181,59.0552888 23.8858081,59.0552888 Q23.5472048,59.0552888 23.0426195,59.1880744 L23.1754051,58.1390682 Q23.2949122,58.1523468 23.3679443,58.1523468 Q24.1314615,58.1523468 24.7422752,57.75399 Q25.353089,57.3556332 25.353089,56.5257232 Q25.353089,55.8684344 24.9082572,55.4368812 Q24.4634255,55.005328 23.7596618,55.005328 Q23.0625374,55.005328 22.5977878,55.4435205 Q22.1330382,55.881713 22.0002526,56.758098 L20.8051822,56.545641 Q21.0242784,55.3439313 21.8010742,54.683323 Q22.5778699,54.0227146 23.7331047,54.0227146 Q24.5298183,54.0227146 25.2003855,54.3646375 Q25.8709528,54.7065604 26.2261543,55.2974564 Q26.5813558,55.8883523 26.5813558,56.5522803 Q26.5813558,57.1830119 26.2427525,57.7008757 Q25.9041492,58.2187396 25.2402212,58.5241464 Q26.1033276,58.7233248 26.5813558,59.3507368 Q27.0593839,59.9781487 27.0593839,60.9209265 Q27.0593839,62.1956683 26.1298847,63.0820121 Q25.2003855,63.968356 23.7795796,63.968356 Q22.4981986,63.968356 21.6516904,63.2048388 Q20.8051822,62.4413216 20.6856751,61.2263334 Z" style="fill:rgb(0,0,0);stroke:none" />
<path d="M28.3817072,126.640577 Q28.3817072,122.6016817 30.5505386,120.3166628 Q32.7193701,118.031644 36.1496648,118.031644 Q38.3959545,118.031644 40.1996255,119.1049943 Q42.0032966,120.1783445 42.949394,122.098203 Q43.8954914,124.0180614 43.8954914,126.4524641 Q43.8954914,128.9200632 42.8995994,130.8675853 Q41.9037074,132.8151074 40.0779054,133.8165321 Q38.2521034,134.8179569 36.1385993,134.8179569 Q33.8480477,134.8179569 32.0443766,133.7114102 Q30.2407056,132.6048635 29.3112064,130.6905378 Q28.3817072,128.7762121 28.3817072,126.640577 Z M30.5948005,126.6737734 Q30.5948005,129.6061221 32.1716295,131.2936057 Q33.7484585,132.9810894 36.1275338,132.9810894 Q38.550871,132.9810894 40.1166345,131.2770075 Q41.6823981,129.5729257 41.6823981,126.4413986 Q41.6823981,124.4606801 41.0129373,122.9834403 Q40.3434766,121.5062005 39.0543497,120.6928887 Q37.7652229,119.8795769 36.1607302,119.8795769 Q33.8812441,119.8795769 32.2380223,121.4453404 Q30.5948005,123.011104 30.5948005,126.6737734 Z" style="fill:rgb(0,0,0);stroke:none" />
<path d="M95.1680697,134.5357875 L95.1680697,118.3138134 L97.3700975,118.3138134 L105.8905068,131.0501655 L105.8905068,118.3138134 L107.9486836,118.3138134 L107.9486836,134.5357875 L105.7466558,134.5357875 L97.2262465,121.7883699 L97.2262465,134.5357875 Z" style="fill:rgb(0,0,0);stroke:none" />
<path d="M106.5820985,166.6182637 L108.728799,167.1604716 Q108.0538056,169.8051181 106.2999291,171.1938341 Q104.5460526,172.5825502 102.0120608,172.5825502 Q99.3895452,172.5825502 97.7463234,171.5147327 Q96.1031016,170.4469151 95.245528,168.4219348 Q94.3879543,166.3969544 94.3879543,164.0732064 Q94.3879543,161.5392145 95.3561826,159.6525525 Q96.3244109,157.7658904 98.1114838,156.7865966 Q99.8985567,155.8073028 102.0452572,155.8073028 Q104.4796598,155.8073028 106.1394798,157.0466351 Q107.7992998,158.2859673 108.4521624,160.5322571 L106.3386582,161.030203 Q105.7743194,159.2597284 104.7009692,158.4519493 Q103.6276189,157.6441703 102.0009953,157.6441703 Q100.1309315,157.6441703 98.875001,158.5404731 Q97.6190705,159.4367759 97.1100591,160.947212 Q96.6010476,162.4576482 96.6010476,164.0621409 Q96.6010476,166.1313832 97.2041155,167.6750158 Q97.8071835,169.2186484 99.0797121,169.9821655 Q100.3522408,170.7456827 101.8350133,170.7456827 Q103.6386844,170.7456827 104.8890821,169.7055289 Q106.1394798,168.665375 106.5820985,166.6182637 Z" style="fill:rgb(0,0,0);stroke:none" />
<path d="M110.637592,172.3059135 L110.637592,156.0839395 L112.7842926,156.0839395 L112.7842926,162.7453504 L121.2161781,162.7453504 L121.2161781,156.0839395 L123.3628786,156.0839395 L123.3628786,172.3059135 L121.2161781,172.3059135 L121.2161781,164.6596761 L112.7842926,164.6596761 L112.7842926,172.3059135 Z" style="fill:rgb(0,0,0);stroke:none" />
<path d="M125.2716716,174.5367116 L126.466742,174.3773689 Q126.6725597,175.3931787 127.1671861,175.8413301 Q127.6618124,176.2894815 128.3722154,176.2894815 Q129.2154039,176.2894815 129.7963409,175.7052249 Q130.3772779,175.1209682 130.3772779,174.2578619 Q130.3772779,173.4345911 129.8394963,172.9001291 Q129.3017146,172.3656671 128.4718046,172.3656671 Q128.1332013,172.3656671 127.628616,172.4984527 L127.7614016,171.4494464 Q127.8809087,171.462725 127.9539407,171.462725 Q128.7174579,171.462725 129.3282717,171.0643682 Q129.9390855,170.6660114 129.9390855,169.8361014 Q129.9390855,169.1788127 129.4942537,168.7472595 Q129.0494219,168.3157063 128.3456583,168.3157063 Q127.6485339,168.3157063 127.1837843,168.7538988 Q126.7190347,169.1920912 126.5862491,170.0684762 L125.3911787,169.8560192 Q125.6102749,168.6543096 126.3870707,167.9937012 Q127.1638664,167.3330928 128.3191011,167.3330928 Q129.1158147,167.3330928 129.786382,167.6750158 Q130.4569493,168.0169387 130.8121508,168.6078346 Q131.1673523,169.1987305 131.1673523,169.8626585 Q131.1673523,170.4933901 130.828749,171.0112539 Q130.4901457,171.5291178 129.8262177,171.8345247 Q130.6893241,172.0337031 131.1673523,172.661115 Q131.6453804,173.288527 131.6453804,174.2313047 Q131.6453804,175.5060465 130.7158812,176.3923904 Q129.786382,177.2787342 128.3655761,177.2787342 Q127.0841951,177.2787342 126.2376869,176.515217 Q125.3911787,175.7516998 125.2716716,174.5367116 Z" style="fill:rgb(0,0,0);stroke:none" />
<path d="M163.7994829,127.3223353 L163.7994829,111.1003612 L166.0015108,111.1003612 L174.5219201,123.8367133 L174.5219201,111.1003612 L176.5800969,111.1003612 L176.5800969,127.3223353 L174.378069,127.3223353 L165.8576597,114.5749177 L165.8576597,127.3223353 Z" style="fill:rgb(0,0,0);stroke:none" />
<path d="M163.7994829,66.2089875 L163.7994829,49.9870134 L166.0015108,49.9870134 L174.5219201,62.7233655 L174.5219201,49.9870134 L176.5800969,49.9870134 L176.5800969,66.2089875 L174.378069,66.2089875 L165.8576597,53.46157 L165.8576597,66.2089875 Z" style="fill:rgb(0,0,0);stroke:none" />
<path d="M186.8851226,24.5998131 L189.0318231,25.142021 Q188.3568296,27.7866675 186.6029532,29.1753836 Q184.8490767,30.5640996 182.3150848,30.5640996 Q179.6925693,30.5640996 178.0493475,29.4962821 Q176.4061257,28.4284646 175.548552,26.4034842 Q174.6909783,24.3785038 174.6909783,22.0547558 Q174.6909783,19.520764 175.6592067,17.6341019 Q176.627435,15.7474398 178.4145079,14.768146 Q180.2015807,13.7888522 182.3482812,13.7888522 Q184.7826839,13.7888522 186.4425039,15.0281845 Q188.1023239,16.2675168 188.7551864,18.5138065 L186.6416823,19.0117525 Q186.0773435,17.2412778 185.0039932,16.4334988 Q183.930643,15.6257197 182.3040194,15.6257197 Q180.4339555,15.6257197 179.1780251,16.5220225 Q177.9220946,17.4183253 177.4130831,18.9287615 Q176.9040717,20.4391977 176.9040717,22.0436903 Q176.9040717,24.1129326 177.5071396,25.6565652 Q178.1102075,27.2001978 179.3827362,27.963715 Q180.6552649,28.7272322 182.1380374,28.7272322 Q183.9417084,28.7272322 185.1921062,27.6870783 Q186.4425039,26.6469245 186.8851226,24.5998131 Z" style="fill:rgb(0,0,0);stroke:none" />
<path d="M190.9406161,30.287463 L190.9406161,14.0654889 L193.0873166,14.0654889 L193.0873166,20.7268998 L201.5192022,20.7268998 L201.5192022,14.0654889 L203.6659027,14.0654889 L203.6659027,30.287463 L201.5192022,30.287463 L201.5192022,22.6412255 L193.0873166,22.6412255 L193.0873166,30.287463 Z" style="fill:rgb(0,0,0);stroke:none" />
<path d="M205.5746957,32.5182611 L206.7697661,32.3589183 Q206.9755838,33.3747282 207.4702101,33.8228796 Q207.9648365,34.271031 208.6752394,34.271031 Q209.518428,34.271031 210.099365,33.6867743 Q210.680302,33.1025177 210.680302,32.2394113 Q210.680302,31.4161406 210.1425203,30.8816785 Q209.6047386,30.3472165 208.7748286,30.3472165 Q208.4362254,30.3472165 207.9316401,30.4800021 L208.0644257,29.4309959 Q208.1839327,29.4442744 208.2569648,29.4442744 Q209.020482,29.4442744 209.6312958,29.0459176 Q210.2421095,28.6475608 210.2421095,27.8176508 Q210.2421095,27.1603621 209.7972778,26.7288089 Q209.352446,26.2972557 208.6486823,26.2972557 Q207.9515579,26.2972557 207.4868083,26.7354482 Q207.0220587,27.1736407 206.8892731,28.0500256 L205.6942027,27.8375687 Q205.913299,26.635859 206.6900947,25.9752506 Q207.4668905,25.3146423 208.6221252,25.3146423 Q209.4188388,25.3146423 210.0894061,25.6565652 Q210.7599733,25.9984881 211.1151748,26.589384 Q211.4703763,27.18028 211.4703763,27.844208 Q211.4703763,28.4749395 211.131773,28.9928034 Q210.7931697,29.5106672 210.1292418,29.8160741 Q210.9923481,30.0152525 211.4703763,30.6426645 Q211.9484045,31.2700764 211.9484045,32.2128542 Q211.9484045,33.4875959 211.0189053,34.3739398 Q210.0894061,35.2602837 208.6686002,35.2602837 Q207.3872191,35.2602837 206.5407109,34.4967665 Q205.6942027,33.7332493 205.5746957,32.5182611 Z" style="fill:rgb(0,0,0);stroke:none" />
<path d="M93.8014846,13.3301988 Q93.8014846,9.2913035 95.970316,7.0062846 Q98.1391475,4.7212658 101.5694421,4.7212658 Q103.8157319,4.7212658 105.6194029,5.794616 Q107.423074,6.8679663 108.3691714,8.7878247 Q109.3152688,10.7076832 109.3152688,13.1420859 Q109.3152688,15.6096849 108.3193768,17.557207 Q107.3234848,19.5047292 105.4976828,20.5061539 Q103.6718808,21.5075786 101.5583767,21.5075786 Q99.2678251,21.5075786 97.464154,20.401032 Q95.660483,19.2944853 94.7309838,17.3801596 Q93.8014846,15.4658339 93.8014846,13.3301988 Z M96.0145779,13.3633952 Q96.0145779,16.2957438 97.5914069,17.9832275 Q99.1682359,19.6707112 101.5473112,19.6707112 Q103.9706484,19.6707112 105.5364119,17.9666293 Q107.1021754,16.2625474 107.1021754,13.1310204 Q107.1021754,11.1503019 106.4327147,9.6730621 Q105.763254,8.1958223 104.4741271,7.3825105 Q103.1850003,6.5691987 101.5805076,6.5691987 Q99.3010215,6.5691987 97.6577997,8.1349622 Q96.0145779,9.7007257 96.0145779,13.3633952 Z" style="fill:rgb(0,0,0);stroke:none" />
</svg>
