<?xml version="1.0" encoding="UTF-8"?>
<!DOCTYPE svg PUBLIC "-//W3C//DTD SVG 1.1//EN" "http://www.w3.org/Graphics/SVG/1.1/DTD/svg11.dtd">
<svg version="1.2" xmlns="http://www.w3.org/2000/svg" xmlns:xlink="http://www.w3.org/1999/xlink" x="0mm" y="0mm" width="52.7792621mm" height="34.9267988mm" viewBox="0 0 52.7792621 34.9267988">
<style type="text/css"><![CDATA[
text { font:12px Dialog; }
]]></style>
<line x1="7.5060629" y1="5.6159065" x2="11.0966759" y2="7.6888637" style="fill:none;stroke:rgb(68,68,68);stroke-width:0.1510606;stroke-linecap:round;stroke-linejoin:round" />
<path d="M11.0211456,12.7688637 L11.1722062,12.7688637 L11.5312079,7.8525167 L11.0966759,7.6016497 L10.623172,7.3282832 Z" style="fill:rgb(68,68,68);stroke:none" />
<line x1="11.0966759" y1="12.7688637" x2="14.6863712" y2="14.8415811" style="fill:none;stroke:rgb(68,68,68);stroke-width:0.1510606;stroke-linecap:round;stroke-linejoin:round" />
<line x1="15.495648" y1="16.284246" x2="15.495648" y2="20.3888637" style="fill:none;stroke:rgb(68,68,68);stroke-width:0.1510606;stroke-linecap:round;stroke-linejoin:round" />
<line x1="15.533412" y1="20.3234519" x2="15.457884" y2="20.4542755" style="fill:none;stroke:rgb(68,68,68);stroke-width:0.1510606;stroke-linecap:round;stroke-linejoin:round" />
<line x1="16.1888988" y1="20.6395863" x2="16.0594223" y2="20.8638553" style="fill:none;stroke:rgb(68,68,68);stroke-width:0.1510606;stroke-linecap:round;stroke-linejoin:round" />
<line x1="16.8443857" y1="20.9557207" x2="16.6609606" y2="21.2734352" style="fill:none;stroke:rgb(68,68,68);stroke-width:0.1510606;stroke-linecap:round;stroke-linejoin:round" />
<line x1="17.4998725" y1="21.2718551" x2="17.2624989" y2="21.683015" style="fill:none;stroke:rgb(68,68,68);stroke-width:0.1510606;stroke-linecap:round;stroke-linejoin:round" />
<line x1="18.1553593" y1="21.5879896" x2="17.8640372" y2="22.0925949" style="fill:none;stroke:rgb(68,68,68);stroke-width:0.1510606;stroke-linecap:round;stroke-linejoin:round" />
<line x1="18.8108462" y1="21.904124" x2="18.4655754" y2="22.5021747" style="fill:none;stroke:rgb(68,68,68);stroke-width:0.1510606;stroke-linecap:round;stroke-linejoin:round" />
<line x1="15.495648" y1="20.3888637" x2="11.0966759" y2="22.9288637" style="fill:none;stroke:rgb(68,68,68);stroke-width:0.1510606;stroke-linecap:round;stroke-linejoin:round" />
<line x1="11.1722062" y1="22.9288637" x2="11.0211456" y2="22.9288637" style="fill:none;stroke:rgb(68,68,68);stroke-width:0.1510606;stroke-linecap:round;stroke-linejoin:round" />
<line x1="11.2261564" y1="23.6545779" x2="10.9671954" y2="23.6545779" style="fill:none;stroke:rgb(68,68,68);stroke-width:0.1510606;stroke-linecap:round;stroke-linejoin:round" />
<line x1="11.2801066" y1="24.3802922" x2="10.9132452" y2="24.3802922" style="fill:none;stroke:rgb(68,68,68);stroke-width:0.1510606;stroke-linecap:round;stroke-linejoin:round" />
<line x1="11.3340568" y1="25.1060065" x2="10.859295" y2="25.1060065" style="fill:none;stroke:rgb(68,68,68);stroke-width:0.1510606;stroke-linecap:round;stroke-linejoin:round" />
<line x1="11.388007" y1="25.8317208" x2="10.8053448" y2="25.8317208" style="fill:none;stroke:rgb(68,68,68);stroke-width:0.1510606;stroke-linecap:round;stroke-linejoin:round" />
<line x1="11.4419572" y1="26.5574351" x2="10.7513947" y2="26.5574351" style="fill:none;stroke:rgb(68,68,68);stroke-width:0.1510606;stroke-linecap:round;stroke-linejoin:round" />
<line x1="11.0966759" y1="22.9288637" x2="6.697088" y2="20.3888637" style="fill:none;stroke:rgb(68,68,68);stroke-width:0.1510606;stroke-linecap:round;stroke-linejoin:round" />
<path d="M6.734852,20.4542755 L6.659324,20.3234519 L2.9151361,22.1292345 L3.1069791,22.4615298 L3.2988221,22.7938251 Z" style="fill:rgb(68,68,68);stroke:none" />
<line x1="6.697088" y1="20.3888637" x2="6.697088" y2="15.3088637" style="fill:none;stroke:rgb(68,68,68);stroke-width:0.1510606;stroke-linecap:round;stroke-linejoin:round" />
<line x1="11.0966759" y1="12.7688637" x2="6.697088" y2="15.3088637" style="fill:none;stroke:rgb(68,68,68);stroke-width:0.1510606;stroke-linecap:round;stroke-linejoin:round" />
<line x1="6.659324" y1="15.3742755" x2="6.734852" y2="15.2434519" style="fill:none;stroke:rgb(68,68,68);stroke-width:0.1510606;stroke-linecap:round;stroke-linejoin:round" />
<line x1="6.0038372" y1="15.058141" x2="6.1333137" y2="14.833872" style="fill:none;stroke:rgb(68,68,68);stroke-width:0.1510606;stroke-linecap:round;stroke-linejoin:round" />
<line x1="5.3483504" y1="14.7420066" x2="5.5317755" y2="14.4242921" style="fill:none;stroke:rgb(68,68,68);stroke-width:0.1510606;stroke-linecap:round;stroke-linejoin:round" />
<line x1="4.6928636" y1="14.4258722" x2="4.9302372" y2="14.0147123" style="fill:none;stroke:rgb(68,68,68);stroke-width:0.1510606;stroke-linecap:round;stroke-linejoin:round" />
<line x1="4.0373767" y1="14.1097377" x2="4.3286989" y2="13.6051324" style="fill:none;stroke:rgb(68,68,68);stroke-width:0.1510606;stroke-linecap:round;stroke-linejoin:round" />
<line x1="3.3818899" y1="13.7936033" x2="3.7271606" y2="13.1955526" style="fill:none;stroke:rgb(68,68,68);stroke-width:0.1510606;stroke-linecap:round;stroke-linejoin:round" />
<line x1="31.7691333" y1="6.191957" x2="27.5915898" y2="6.191957" style="fill:none;stroke:rgb(68,68,68);stroke-width:0.1510606;stroke-linecap:round;stroke-linejoin:round" />
<line x1="27.5915898" y1="6.191957" x2="25.0515898" y2="9.684534" style="fill:none;stroke:rgb(68,68,68);stroke-width:0.1510606;stroke-linecap:round;stroke-linejoin:round" />
<line x1="25.0515898" y1="9.684534" x2="27.5915898" y2="12.9954624" style="fill:none;stroke:rgb(68,68,68);stroke-width:0.1510606;stroke-linecap:round;stroke-linejoin:round" />
<line x1="27.5915898" y1="12.9954624" x2="32.6715898" y2="12.9954624" style="fill:none;stroke:rgb(68,68,68);stroke-width:0.1510606;stroke-linecap:round;stroke-linejoin:round" />
<line x1="32.6715898" y1="12.9954624" x2="35.2115898" y2="9.684534" style="fill:none;stroke:rgb(68,68,68);stroke-width:0.1510606;stroke-linecap:round;stroke-linejoin:round" />
<line x1="33.2443979" y1="6.9795854" x2="35.2115898" y2="9.684534" style="fill:none;stroke:rgb(68,68,68);stroke-width:0.1510606;stroke-linecap:round;stroke-linejoin:round" />
<line x1="27.5915898" y1="6.191957" x2="27.5915898" y2="3.1685873" style="fill:none;stroke:rgb(68,68,68);stroke-width:0.1510606;stroke-linecap:round;stroke-linejoin:round" />
<line x1="27.5915898" y1="3.1685873" x2="25.087701" y2="1.7049975" style="fill:none;stroke:rgb(68,68,68);stroke-width:0.1510606;stroke-linecap:round;stroke-linejoin:round" />
<line x1="25.0515898" y1="9.684534" x2="25.006218" y2="12.6401836" style="fill:none;stroke:rgb(68,68,68);stroke-width:0.1510606;stroke-linecap:round;stroke-linejoin:round" />
<line x1="27.5915898" y1="12.9954624" x2="27.5492664" y2="10.704815" style="fill:none;stroke:rgb(68,68,68);stroke-width:0.1510606;stroke-linecap:round;stroke-linejoin:round" />
<line x1="32.6715898" y1="12.9954624" x2="32.626218" y2="15.9511121" style="fill:none;stroke:rgb(68,68,68);stroke-width:0.1510606;stroke-linecap:round;stroke-linejoin:round" />
<line x1="35.2115898" y1="9.684534" x2="35.166218" y2="12.6401836" style="fill:none;stroke:rgb(68,68,68);stroke-width:0.1510606;stroke-linecap:round;stroke-linejoin:round" />
<line x1="25.0214177" y1="23.4430212" x2="29.9283898" y2="24.7576637" style="fill:none;stroke:rgb(68,68,68);stroke-width:0.1510606;stroke-linecap:round;stroke-linejoin:round" />
<line x1="29.9283898" y1="24.7576637" x2="33.9431973" y2="23.6820439" style="fill:none;stroke:rgb(68,68,68);stroke-width:0.1510606;stroke-linecap:round;stroke-linejoin:round" />
<line x1="35.3277804" y1="24.2958303" x2="37.375362" y2="27.8419934" style="fill:none;stroke:rgb(68,68,68);stroke-width:0.1510606;stroke-linecap:round;stroke-linejoin:round" />
<line x1="37.375362" y1="27.8419934" x2="32.4683898" y2="26.5273509" style="fill:none;stroke:rgb(68,68,68);stroke-width:0.1510606;stroke-linecap:round;stroke-linejoin:round" />
<line x1="32.4683898" y1="26.5273509" x2="27.5614177" y2="27.8419934" style="fill:none;stroke:rgb(68,68,68);stroke-width:0.1510606;stroke-linecap:round;stroke-linejoin:round" />
<line x1="25.0214177" y1="23.4430212" x2="27.5614177" y2="27.8419934" style="fill:none;stroke:rgb(68,68,68);stroke-width:0.1510606;stroke-linecap:round;stroke-linejoin:round" />
<line x1="37.375362" y1="27.8419934" x2="37.375362" y2="30.8585674" style="fill:none;stroke:rgb(68,68,68);stroke-width:0.1510606;stroke-linecap:round;stroke-linejoin:round" />
<line x1="32.4683898" y1="26.5273509" x2="33.9920487" y2="28.6914142" style="fill:none;stroke:rgb(68,68,68);stroke-width:0.1510606;stroke-linecap:round;stroke-linejoin:round" />
<line x1="27.5614177" y1="27.8419934" x2="25.6183057" y2="27.1527353" style="fill:none;stroke:rgb(68,68,68);stroke-width:0.1510606;stroke-linecap:round;stroke-linejoin:round" />
<line x1="29.9283898" y1="24.7576637" x2="27.5694226" y2="22.3685243" style="fill:none;stroke:rgb(68,68,68);stroke-width:0.1510606;stroke-linecap:round;stroke-linejoin:round" />
<line x1="27.5694226" y1="22.3685243" x2="27.5590587" y2="20.0785411" style="fill:none;stroke:rgb(68,68,68);stroke-width:0.1510606;stroke-linecap:round;stroke-linejoin:round" />
<line x1="45.401762" y1="31.1535376" x2="45.401762" y2="26.0735376" style="fill:none;stroke:rgb(68,68,68);stroke-width:0.1510606;stroke-linecap:round;stroke-linejoin:round" />
<line x1="45.401762" y1="26.0735376" x2="45.401762" y2="20.9935376" style="fill:none;stroke:rgb(68,68,68);stroke-width:0.1510606;stroke-linecap:round;stroke-linejoin:round" />
<line x1="45.401762" y1="26.0735376" x2="49.5793054" y2="26.0735376" style="fill:none;stroke:rgb(68,68,68);stroke-width:0.1510606;stroke-linecap:round;stroke-linejoin:round" />
<line x1="45.401762" y1="20.9935376" x2="49.5793054" y2="20.9935376" style="fill:none;stroke:rgb(68,68,68);stroke-width:0.1510606;stroke-linecap:round;stroke-linejoin:round" />
<line x1="45.401762" y1="20.9935376" x2="45.401762" y2="15.9135376" style="fill:none;stroke:rgb(68,68,68);stroke-width:0.1510606;stroke-linecap:round;stroke-linejoin:round" />
<line x1="45.401762" y1="15.9135376" x2="45.401762" y2="10.8335376" style="fill:none;stroke:rgb(68,68,68);stroke-width:0.1510606;stroke-linecap:round;stroke-linejoin:round" />
<line x1="45.401762" y1="10.8335376" x2="49.5793054" y2="10.8335376" style="fill:none;stroke:rgb(68,68,68);stroke-width:0.1510606;stroke-linecap:round;stroke-linejoin:round" />
<line x1="45.401762" y1="10.8335376" x2="45.401762" y2="5.7535376" style="fill:none;stroke:rgb(68,68,68);stroke-width:0.1510606;stroke-linecap:round;stroke-linejoin:round" />
<line x1="44.944548" y1="5.4895757" x2="48.7630935" y2="3.2850271" style="fill:none;stroke:rgb(68,68,68);stroke-width:0.1510606;stroke-linecap:round;stroke-linejoin:round" />
<line x1="45.401762" y1="6.2814613" x2="49.2202796" y2="4.0769288" style="fill:none;stroke:rgb(68,68,68);stroke-width:0.1510606;stroke-linecap:round;stroke-linejoin:round" />
<line x1="45.401762" y1="31.1535376" x2="48.9920516" y2="33.226308" style="fill:none;stroke:rgb(68,68,68);stroke-width:0.1510606;stroke-linecap:round;stroke-linejoin:round" />
<line x1="45.401762" y1="15.9135376" x2="41.2242185" y2="15.9135376" style="fill:none;stroke:rgb(68,68,68);stroke-width:0.1510606;stroke-linecap:round;stroke-linejoin:round" />
<line x1="25.0214177" y1="23.4430212" x2="23.4480815" y2="24.7089479" style="fill:none;stroke:rgb(68,68,68);stroke-width:0.1510606;stroke-linecap:round;stroke-linejoin:round" />
<line x1="45.401762" y1="5.7535376" x2="41.7582407" y2="3.6500351" style="fill:none;stroke:rgb(68,68,68);stroke-width:0.1510606;stroke-linecap:round;stroke-linejoin:round" />
<path d="M7.1342086,4.6509716 Q7.2132116,4.737788 7.2553175,4.8636718 Q7.2974235,4.9895555 7.2974235,5.1492977 Q7.2974235,5.3090399 7.2544494,5.4353578 Q7.2114752,5.5616757 7.1342086,5.6458876 Q7.0543375,5.7335722 6.9453829,5.7778485 Q6.8364284,5.8221249 6.6966539,5.8221249 Q6.5603522,5.8221249 6.4487931,5.7769804 Q6.337234,5.7318358 6.2590993,5.6458876 Q6.1809645,5.5599393 6.1388585,5.4349237 Q6.0967526,5.3099081 6.0967526,5.1492977 Q6.0967526,4.9912919 6.1384245,4.8658422 Q6.1800963,4.7403925 6.2599674,4.6509716 Q6.3363659,4.5658915 6.4496613,4.520747 Q6.5629567,4.4756024 6.6966539,4.4756024 Q6.8355602,4.4756024 6.9462511,4.521181 Q7.056942,4.5667597 7.1342086,4.6509716 Z M7.1185817,5.1492977 Q7.1185817,4.8975302 7.0057203,4.7607943 Q6.892859,4.6240585 6.6975221,4.6240585 Q6.5004489,4.6240585 6.3880216,4.7607943 Q6.2755944,4.8975302 6.2755944,5.1492977 Q6.2755944,5.4036698 6.390192,5.5386693 Q6.5047897,5.6736688 6.6975221,5.6736688 Q6.8902545,5.6736688 7.0044181,5.5386693 Q7.1185817,5.4036698 7.1185817,5.1492977 Z" style="fill:rgb(68,68,68);stroke:none" />
<path d="M5.9484267,5.7952118 L5.7765303,5.7952118 L5.7765303,5.1623202 L5.1314844,5.1623202 L5.1314844,5.7952118 L4.9595879,5.7952118 L4.9595879,4.5025155 L5.1314844,4.5025155 L5.1314844,5.0095233 L5.7765303,5.0095233 L5.7765303,4.5025155 L5.9484267,4.5025155 Z" style="fill:rgb(68,68,68);stroke:none" />
<path d="M15.9327686,14.8109716 Q16.0117716,14.897788 16.0538775,15.0236718 Q16.0959835,15.1495555 16.0959835,15.3092977 Q16.0959835,15.4690399 16.0530094,15.5953578 Q16.0100352,15.7216757 15.9327686,15.8058876 Q15.8528975,15.8935722 15.7439429,15.9378485 Q15.6349884,15.9821249 15.4952139,15.9821249 Q15.3589122,15.9821249 15.2473531,15.9369804 Q15.135794,15.8918358 15.0576593,15.8058876 Q14.9795245,15.7199393 14.9374185,15.5949237 Q14.8953126,15.4699081 14.8953126,15.3092977 Q14.8953126,15.1512919 14.9369845,15.0258422 Q14.9786563,14.9003925 15.0585274,14.8109716 Q15.1349259,14.7258915 15.2482213,14.680747 Q15.3615167,14.6356024 15.4952139,14.6356024 Q15.6341202,14.6356024 15.7448111,14.681181 Q15.855502,14.7267597 15.9327686,14.8109716 Z M15.9171417,15.3092977 Q15.9171417,15.0575302 15.8042803,14.9207943 Q15.691419,14.7840585 15.4960821,14.7840585 Q15.2990089,14.7840585 15.1865816,14.9207943 Q15.0741544,15.0575302 15.0741544,15.3092977 Q15.0741544,15.5636698 15.188752,15.6986693 Q15.3033497,15.8336688 15.4960821,15.8336688 Q15.6888145,15.8336688 15.8029781,15.6986693 Q15.9171417,15.5636698 15.9171417,15.3092977 Z" style="fill:rgb(68,68,68);stroke:none" />
<path d="M20.3323565,22.4309716 Q20.4113594,22.517788 20.4534654,22.6436718 Q20.4955714,22.7695555 20.4955714,22.9292977 Q20.4955714,23.0890399 20.4525972,23.2153578 Q20.4096231,23.3416757 20.3323565,23.4258876 Q20.2524854,23.5135722 20.1435308,23.5578485 Q20.0345762,23.6021249 19.8948018,23.6021249 Q19.7585001,23.6021249 19.646941,23.5569804 Q19.5353819,23.5118358 19.4572471,23.4258876 Q19.3791124,23.3399393 19.3370064,23.2149237 Q19.2949005,23.0899081 19.2949005,22.9292977 Q19.2949005,22.7712919 19.3365723,22.6458422 Q19.3782442,22.5203925 19.4581153,22.4309716 Q19.5345137,22.3458915 19.6478091,22.300747 Q19.7611046,22.2556024 19.8948018,22.2556024 Q20.0337081,22.2556024 20.144399,22.301181 Q20.2550899,22.3467597 20.3323565,22.4309716 Z M20.3167296,22.9292977 Q20.3167296,22.6775302 20.2038682,22.5407943 Q20.0910069,22.4040585 19.89567,22.4040585 Q19.6985967,22.4040585 19.5861695,22.5407943 Q19.4737423,22.6775302 19.4737423,22.9292977 Q19.4737423,23.1836698 19.5883399,23.3186693 Q19.7029376,23.4536688 19.89567,23.4536688 Q20.0884024,23.4536688 20.202566,23.3186693 Q20.3167296,23.1836698 20.3167296,22.9292977 Z" style="fill:rgb(68,68,68);stroke:none" />
<path d="M21.6327361,23.5752118 L21.4608396,23.5752118 L21.4608396,22.9423202 L20.8157937,22.9423202 L20.8157937,23.5752118 L20.6438972,23.5752118 L20.6438972,22.2825155 L20.8157937,22.2825155 L20.8157937,22.7895233 L21.4608396,22.7895233 L21.4608396,22.2825155 L21.6327361,22.2825155 Z" style="fill:rgb(68,68,68);stroke:none" />
<path d="M11.5337965,27.5109716 Q11.6127994,27.597788 11.6549054,27.7236718 Q11.6970114,27.8495555 11.6970114,28.0092977 Q11.6970114,28.1690399 11.6540372,28.2953578 Q11.6110631,28.4216757 11.5337965,28.5058876 Q11.4539254,28.5935722 11.3449708,28.6378485 Q11.2360162,28.6821249 11.0962418,28.6821249 Q10.9599401,28.6821249 10.848381,28.6369804 Q10.7368219,28.5918358 10.6586871,28.5058876 Q10.5805524,28.4199393 10.5384464,28.2949237 Q10.4963405,28.1699081 10.4963405,28.0092977 Q10.4963405,27.8512919 10.5380123,27.7258422 Q10.5796842,27.6003925 10.6595553,27.5109716 Q10.7359537,27.4258915 10.8492491,27.380747 Q10.9625446,27.3356024 11.0962418,27.3356024 Q11.2351481,27.3356024 11.345839,27.381181 Q11.4565299,27.4267597 11.5337965,27.5109716 Z M11.5181696,28.0092977 Q11.5181696,27.7575302 11.4053082,27.6207943 Q11.2924469,27.4840585 11.09711,27.4840585 Q10.9000367,27.4840585 10.7876095,27.6207943 Q10.6751823,27.7575302 10.6751823,28.0092977 Q10.6751823,28.2636698 10.7897799,28.3986693 Q10.9043776,28.5336688 11.09711,28.5336688 Q11.2898424,28.5336688 11.404006,28.3986693 Q11.5181696,28.2636698 11.5181696,28.0092977 Z" style="fill:rgb(68,68,68);stroke:none" />
<path d="M12.8341761,28.6552118 L12.6622796,28.6552118 L12.6622796,28.0223202 L12.0172337,28.0223202 L12.0172337,28.6552118 L11.8453372,28.6552118 L11.8453372,27.3625155 L12.0172337,27.3625155 L12.0172337,27.8695233 L12.6622796,27.8695233 L12.6622796,27.3625155 L12.8341761,27.3625155 Z" style="fill:rgb(68,68,68);stroke:none" />
<path d="M2.7346208,22.4309716 Q2.8136237,22.517788 2.8557296,22.6436718 Q2.8978356,22.7695555 2.8978356,22.9292977 Q2.8978356,23.0890399 2.8548615,23.2153578 Q2.8118874,23.3416757 2.7346208,23.4258876 Q2.6547497,23.5135722 2.5457951,23.5578485 Q2.4368405,23.6021249 2.2970661,23.6021249 Q2.1607643,23.6021249 2.0492052,23.5569804 Q1.9376461,23.5118358 1.8595114,23.4258876 Q1.7813766,23.3399393 1.7392707,23.2149237 Q1.6971647,23.0899081 1.6971647,22.9292977 Q1.6971647,22.7712919 1.7388366,22.6458422 Q1.7805084,22.5203925 1.8603795,22.4309716 Q1.936778,22.3458915 2.0500734,22.300747 Q2.1633688,22.2556024 2.2970661,22.2556024 Q2.4359723,22.2556024 2.5466632,22.301181 Q2.6573542,22.3467597 2.7346208,22.4309716 Z M2.7189938,22.9292977 Q2.7189938,22.6775302 2.6061325,22.5407943 Q2.4932711,22.4040585 2.2979342,22.4040585 Q2.100861,22.4040585 1.9884337,22.5407943 Q1.8760065,22.6775302 1.8760065,22.9292977 Q1.8760065,23.1836698 1.9906042,23.3186693 Q2.1052018,23.4536688 2.2979342,23.4536688 Q2.4906667,23.4536688 2.6048302,23.3186693 Q2.7189938,23.1836698 2.7189938,22.9292977 Z" style="fill:rgb(68,68,68);stroke:none" />
<path d="M1.5488389,23.5752118 L1.3769424,23.5752118 L1.3769424,22.9423202 L0.7318965,22.9423202 L0.7318965,23.5752118 L0.56,23.5752118 L0.56,22.2825155 L0.7318965,22.2825155 L0.7318965,22.7895233 L1.3769424,22.7895233 L1.3769424,22.2825155 L1.5488389,22.2825155 Z" style="fill:rgb(68,68,68);stroke:none" />
<path d="M2.7346208,12.2709716 Q2.8136237,12.357788 2.8557296,12.4836718 Q2.8978356,12.6095555 2.8978356,12.7692977 Q2.8978356,12.9290399 2.8548615,13.0553578 Q2.8118874,13.1816757 2.7346208,13.2658876 Q2.6547497,13.3535722 2.5457951,13.3978485 Q2.4368405,13.4421249 2.2970661,13.4421249 Q2.1607643,13.4421249 2.0492052,13.3969804 Q1.9376461,13.3518358 1.8595114,13.2658876 Q1.7813766,13.1799393 1.7392707,13.0549237 Q1.6971647,12.9299081 1.6971647,12.7692977 Q1.6971647,12.6112919 1.7388366,12.4858422 Q1.7805084,12.3603925 1.8603795,12.2709716 Q1.936778,12.1858915 2.0500734,12.140747 Q2.1633688,12.0956024 2.2970661,12.0956024 Q2.4359723,12.0956024 2.5466632,12.141181 Q2.6573542,12.1867597 2.7346208,12.2709716 Z M2.7189938,12.7692977 Q2.7189938,12.5175302 2.6061325,12.3807943 Q2.4932711,12.2440585 2.2979342,12.2440585 Q2.100861,12.2440585 1.9884337,12.3807943 Q1.8760065,12.5175302 1.8760065,12.7692977 Q1.8760065,13.0236698 1.9906042,13.1586693 Q2.1052018,13.2936688 2.2979342,13.2936688 Q2.4906667,13.2936688 2.6048302,13.1586693 Q2.7189938,13.0236698 2.7189938,12.7692977 Z" style="fill:rgb(68,68,68);stroke:none" />
<path d="M1.5488389,13.4152118 L1.3769424,13.4152118 L1.3769424,12.7823202 L0.7318965,12.7823202 L0.7318965,13.4152118 L0.56,13.4152118 L0.56,12.1225155 L0.7318965,12.1225155 L0.7318965,12.6295233 L1.3769424,12.6295233 L1.3769424,12.1225155 L1.5488389,12.1225155 Z" style="fill:rgb(68,68,68);stroke:none" />
<path d="M33.1087104,5.6940649 Q33.1877134,5.7808813 33.2298193,5.9067651 Q33.2719253,6.0326489 33.2719253,6.1923911 Q33.2719253,6.3521333 33.2289512,6.4784511 Q33.1859771,6.604769 33.1087104,6.6889809 Q33.0288394,6.7766655 32.9198848,6.8209419 Q32.8109302,6.8652182 32.6711558,6.8652182 Q32.534854,6.8652182 32.4232949,6.8200737 Q32.3117358,6.7749292 32.2336011,6.6889809 Q32.1554663,6.6030327 32.1133604,6.478017 Q32.0712544,6.3530014 32.0712544,6.1923911 Q32.0712544,6.0343852 32.1129263,5.9089355 Q32.1545981,5.7834858 32.2344692,5.6940649 Q32.3108677,5.6089848 32.4241631,5.5638403 Q32.5374585,5.5186958 32.6711558,5.5186958 Q32.810062,5.5186958 32.9207529,5.5642744 Q33.0314438,5.609853 33.1087104,5.6940649 Z M33.0930835,6.1923911 Q33.0930835,5.9406235 32.9802222,5.8038877 Q32.8673608,5.6671518 32.6720239,5.6671518 Q32.4749507,5.6671518 32.3625234,5.8038877 Q32.2500962,5.9406235 32.2500962,6.1923911 Q32.2500962,6.4467631 32.3646938,6.5817627 Q32.4792915,6.7167622 32.6720239,6.7167622 Q32.8647563,6.7167622 32.9789199,6.5817627 Q33.0930835,6.4467631 33.0930835,6.1923911 Z" style="fill:rgb(68,68,68);stroke:none" />
<path d="M24.717782,0.7353691 Q24.7967849,0.8221855 24.8388909,0.9480693 Q24.8809968,1.0739531 24.8809968,1.2336953 Q24.8809968,1.3934375 24.8380227,1.5197554 Q24.7950486,1.6460732 24.717782,1.7302852 Q24.6379109,1.8179697 24.5289563,1.8622461 Q24.4200017,1.9065225 24.2802273,1.9065225 Q24.1439255,1.9065225 24.0323664,1.8613779 Q23.9208074,1.8162334 23.8426726,1.7302852 Q23.7645378,1.6443369 23.7224319,1.5193213 Q23.6803259,1.3943057 23.6803259,1.2336953 Q23.6803259,1.0756895 23.7219978,0.9502397 Q23.7636697,0.82479 23.8435408,0.7353691 Q23.9199392,0.6502891 24.0332346,0.6051445 Q24.14653,0.56 24.2802273,0.56 Q24.4191335,0.56 24.5298244,0.6055786 Q24.6405154,0.6511572 24.717782,0.7353691 Z M24.702155,1.2336953 Q24.702155,0.9819277 24.5892937,0.8451919 Q24.4764324,0.7084561 24.2810954,0.7084561 Q24.0840222,0.7084561 23.971595,0.8451919 Q23.8591677,0.9819277 23.8591677,1.2336953 Q23.8591677,1.4880674 23.9737654,1.6230669 Q24.088363,1.7580664 24.2810954,1.7580664 Q24.4738279,1.7580664 24.5879914,1.6230669 Q24.702155,1.4880674 24.702155,1.2336953 Z" style="fill:rgb(68,68,68);stroke:none" />
<path d="M23.5320001,1.8796094 L23.3601036,1.8796094 L23.3601036,1.2467178 L22.7150577,1.2467178 L22.7150577,1.8796094 L22.5431612,1.8796094 L22.5431612,0.5869131 L22.7150577,0.5869131 L22.7150577,1.0939209 L23.3601036,1.0939209 L23.3601036,0.5869131 L23.5320001,0.5869131 Z" style="fill:rgb(68,68,68);stroke:none" />
<path d="M25.4283662,13.1176382 Q25.5073691,13.2044546 25.5494751,13.3303384 Q25.5915811,13.4562222 25.5915811,13.6159644 Q25.5915811,13.7757066 25.5486069,13.9020245 Q25.5056328,14.0283423 25.4283662,14.1125542 Q25.3484951,14.2002388 25.2395405,14.2445152 Q25.1305859,14.2887916 24.9908115,14.2887916 Q24.8545098,14.2887916 24.7429507,14.243647 Q24.6313916,14.1985025 24.5532568,14.1125542 Q24.4751221,14.026606 24.4330161,13.9015904 Q24.3909102,13.7765748 24.3909102,13.6159644 Q24.3909102,13.4579585 24.432582,13.3325088 Q24.4742539,13.2070591 24.554125,13.1176382 Q24.6305234,13.0325582 24.7438188,12.9874136 Q24.8571143,12.9422691 24.9908115,12.9422691 Q25.1297178,12.9422691 25.2404087,12.9878477 Q25.3510996,13.0334263 25.4283662,13.1176382 Z M25.4127393,13.6159644 Q25.4127393,13.3641968 25.2998779,13.227461 Q25.1870166,13.0907251 24.9916797,13.0907251 Q24.7946064,13.0907251 24.6821792,13.227461 Q24.5697519,13.3641968 24.5697519,13.6159644 Q24.5697519,13.8703365 24.6843496,14.005336 Q24.7989473,14.1403355 24.9916797,14.1403355 Q25.1844121,14.1403355 25.2985757,14.005336 Q25.4127393,13.8703365 25.4127393,13.6159644 Z" style="fill:rgb(68,68,68);stroke:none" />
<path d="M26.7287457,14.2618785 L26.5568493,14.2618785 L26.5568493,13.6289869 L25.9118034,13.6289869 L25.9118034,14.2618785 L25.7399069,14.2618785 L25.7399069,12.9691822 L25.9118034,12.9691822 L25.9118034,13.47619 L26.5568493,13.47619 L26.5568493,12.9691822 L26.7287457,12.9691822 Z" style="fill:rgb(68,68,68);stroke:none" />
<path d="M27.9683662,9.2315922 Q28.0473691,9.3184086 28.0894751,9.4442924 Q28.1315811,9.5701762 28.1315811,9.7299183 Q28.1315811,9.8896605 28.0886069,10.0159784 Q28.0456328,10.1422963 27.9683662,10.2265082 Q27.8884951,10.3141928 27.7795405,10.3584691 Q27.6705859,10.4027455 27.5308115,10.4027455 Q27.3945098,10.4027455 27.2829507,10.357601 Q27.1713916,10.3124564 27.0932568,10.2265082 Q27.0151221,10.1405599 26.9730161,10.0155443 Q26.9309102,9.8905287 26.9309102,9.7299183 Q26.9309102,9.5719125 26.972582,9.4464628 Q27.0142539,9.3210131 27.094125,9.2315922 Q27.1705234,9.1465121 27.2838188,9.1013676 Q27.3971143,9.056223 27.5308115,9.056223 Q27.6697178,9.056223 27.7804087,9.1018016 Q27.8910996,9.1473803 27.9683662,9.2315922 Z M27.9527393,9.7299183 Q27.9527393,9.4781508 27.8398779,9.3414149 Q27.7270166,9.2046791 27.5316797,9.2046791 Q27.3346064,9.2046791 27.2221792,9.3414149 Q27.1097519,9.4781508 27.1097519,9.7299183 Q27.1097519,9.9842904 27.2243496,10.1192899 Q27.3389473,10.2542894 27.5316797,10.2542894 Q27.7244121,10.2542894 27.8385757,10.1192899 Q27.9527393,9.9842904 27.9527393,9.7299183 Z" style="fill:rgb(68,68,68);stroke:none" />
<path d="M29.2687457,10.3758324 L29.0968493,10.3758324 L29.0968493,9.7429408 L28.4518034,9.7429408 L28.4518034,10.3758324 L28.2799069,10.3758324 L28.2799069,9.0831361 L28.4518034,9.0831361 L28.4518034,9.5901439 L29.0968493,9.5901439 L29.0968493,9.0831361 L29.2687457,9.0831361 Z" style="fill:rgb(68,68,68);stroke:none" />
<path d="M33.0483662,16.4285667 Q33.1273691,16.5153831 33.1694751,16.6412669 Q33.2115811,16.7671507 33.2115811,16.9268929 Q33.2115811,17.0866351 33.1686069,17.2129529 Q33.1256328,17.3392708 33.0483662,17.4234827 Q32.9684951,17.5111673 32.8595405,17.5554437 Q32.7505859,17.59972 32.6108115,17.59972 Q32.4745098,17.59972 32.3629507,17.5545755 Q32.2513916,17.509431 32.1732568,17.4234827 Q32.0951221,17.3375345 32.0530161,17.2125189 Q32.0109102,17.0875032 32.0109102,16.9268929 Q32.0109102,16.768887 32.052582,16.6434373 Q32.0942539,16.5179876 32.174125,16.4285667 Q32.2505234,16.3434866 32.3638188,16.2983421 Q32.4771143,16.2531976 32.6108115,16.2531976 Q32.7497178,16.2531976 32.8604087,16.2987762 Q32.9710996,16.3443548 33.0483662,16.4285667 Z M33.0327393,16.9268929 Q33.0327393,16.6751253 32.9198779,16.5383895 Q32.8070166,16.4016536 32.6116797,16.4016536 Q32.4146064,16.4016536 32.3021792,16.5383895 Q32.1897519,16.6751253 32.1897519,16.9268929 Q32.1897519,17.181265 32.3043496,17.3162645 Q32.4189473,17.451264 32.6116797,17.451264 Q32.8044121,17.451264 32.9185757,17.3162645 Q33.0327393,17.181265 33.0327393,16.9268929 Z" style="fill:rgb(68,68,68);stroke:none" />
<path d="M34.3487457,17.572807 L34.1768493,17.572807 L34.1768493,16.9399153 L33.5318034,16.9399153 L33.5318034,17.572807 L33.3599069,17.572807 L33.3599069,16.2801107 L33.5318034,16.2801107 L33.5318034,16.7871185 L34.1768493,16.7871185 L34.1768493,16.2801107 L34.3487457,16.2801107 Z" style="fill:rgb(68,68,68);stroke:none" />
<path d="M35.5883662,13.1176382 Q35.6673691,13.2044546 35.7094751,13.3303384 Q35.7515811,13.4562222 35.7515811,13.6159644 Q35.7515811,13.7757066 35.7086069,13.9020245 Q35.6656328,14.0283423 35.5883662,14.1125542 Q35.5084951,14.2002388 35.3995405,14.2445152 Q35.2905859,14.2887916 35.1508115,14.2887916 Q35.0145098,14.2887916 34.9029507,14.243647 Q34.7913916,14.1985025 34.7132568,14.1125542 Q34.6351221,14.026606 34.5930161,13.9015904 Q34.5509102,13.7765748 34.5509102,13.6159644 Q34.5509102,13.4579585 34.592582,13.3325088 Q34.6342539,13.2070591 34.714125,13.1176382 Q34.7905234,13.0325582 34.9038188,12.9874136 Q35.0171143,12.9422691 35.1508115,12.9422691 Q35.2897178,12.9422691 35.4004087,12.9878477 Q35.5110996,13.0334263 35.5883662,13.1176382 Z M35.5727393,13.6159644 Q35.5727393,13.3641968 35.4598779,13.227461 Q35.3470166,13.0907251 35.1516797,13.0907251 Q34.9546064,13.0907251 34.8421792,13.227461 Q34.7297519,13.3641968 34.7297519,13.6159644 Q34.7297519,13.8703365 34.8443496,14.005336 Q34.9589473,14.1403355 35.1516797,14.1403355 Q35.3444121,14.1403355 35.4585757,14.005336 Q35.5727393,13.8703365 35.5727393,13.6159644 Z" style="fill:rgb(68,68,68);stroke:none" />
<path d="M36.8887457,14.2618785 L36.7168493,14.2618785 L36.7168493,13.6289869 L36.0718034,13.6289869 L36.0718034,14.2618785 L35.8999069,14.2618785 L35.8999069,12.9691822 L36.0718034,12.9691822 L36.0718034,13.47619 L36.7168493,13.47619 L36.7168493,12.9691822 L36.8887457,12.9691822 Z" style="fill:rgb(68,68,68);stroke:none" />
<path d="M35.2724826,22.9451291 Q35.3514855,23.0319455 35.3935915,23.1578293 Q35.4356974,23.2837131 35.4356974,23.4434553 Q35.4356974,23.6031975 35.3927233,23.7295154 Q35.3497492,23.8558332 35.2724826,23.9400452 Q35.1926115,24.0277297 35.0836569,24.0720061 Q34.9747023,24.1162825 34.8349279,24.1162825 Q34.6986261,24.1162825 34.587067,24.0711379 Q34.475508,24.0259934 34.3973732,23.9400452 Q34.3192384,23.8540969 34.2771325,23.7290813 Q34.2350265,23.6040657 34.2350265,23.4434553 Q34.2350265,23.2854495 34.2766984,23.1599997 Q34.3183703,23.03455 34.3982414,22.9451291 Q34.4746398,22.8600491 34.5879352,22.8149045 Q34.7012306,22.76976 34.8349279,22.76976 Q34.9738341,22.76976 35.0845251,22.8153386 Q35.195216,22.8609172 35.2724826,22.9451291 Z M35.2568556,23.4434553 Q35.2568556,23.1916877 35.1439943,23.0549519 Q35.031133,22.9182161 34.835796,22.9182161 Q34.6387228,22.9182161 34.5262956,23.0549519 Q34.4138683,23.1916877 34.4138683,23.4434553 Q34.4138683,23.6978274 34.528466,23.8328269 Q34.6430636,23.9678264 34.835796,23.9678264 Q35.0285285,23.9678264 35.142692,23.8328269 Q35.2568556,23.6978274 35.2568556,23.4434553 Z" style="fill:rgb(68,68,68);stroke:none" />
<path d="M37.8124826,31.3360576 Q37.8914855,31.422874 37.9335915,31.5487578 Q37.9756974,31.6746416 37.9756974,31.8343838 Q37.9756974,31.994126 37.9327233,32.1204439 Q37.8897492,32.2467617 37.8124826,32.3309736 Q37.7326115,32.4186582 37.6236569,32.4629346 Q37.5147023,32.5072109 37.3749279,32.5072109 Q37.2386261,32.5072109 37.127067,32.4620664 Q37.015508,32.4169219 36.9373732,32.3309736 Q36.8592384,32.2450254 36.8171325,32.1200098 Q36.7750265,31.9949941 36.7750265,31.8343838 Q36.7750265,31.6763779 36.8166984,31.5509282 Q36.8583703,31.4254785 36.9382414,31.3360576 Q37.0146398,31.2509775 37.1279352,31.205833 Q37.2412306,31.1606885 37.3749279,31.1606885 Q37.5138341,31.1606885 37.6245251,31.2062671 Q37.735216,31.2518457 37.8124826,31.3360576 Z M37.7968556,31.8343838 Q37.7968556,31.5826162 37.6839943,31.4458804 Q37.571133,31.3091445 37.375796,31.3091445 Q37.1787228,31.3091445 37.0662956,31.4458804 Q36.9538683,31.5826162 36.9538683,31.8343838 Q36.9538683,32.0887559 37.068466,32.2237554 Q37.1830636,32.3587549 37.375796,32.3587549 Q37.5685285,32.3587549 37.682692,32.2237554 Q37.7968556,32.0887559 37.7968556,31.8343838 Z" style="fill:rgb(68,68,68);stroke:none" />
<path d="M39.1128621,32.4802979 L38.9409656,32.4802979 L38.9409656,31.8474063 L38.2959197,31.8474063 L38.2959197,32.4802979 L38.1240232,32.4802979 L38.1240232,31.1876016 L38.2959197,31.1876016 L38.2959197,31.6946094 L38.9409656,31.6946094 L38.9409656,31.1876016 L39.1128621,31.1876016 Z" style="fill:rgb(68,68,68);stroke:none" />
<path d="M34.9916971,28.9924843 Q35.0707,29.0793007 35.112806,29.2051845 Q35.154912,29.3310683 35.154912,29.4908105 Q35.154912,29.6505527 35.1119378,29.7768705 Q35.0689637,29.9031884 34.9916971,29.9874003 Q34.911826,30.0750849 34.8028714,30.1193612 Q34.6939168,30.1636376 34.5541424,30.1636376 Q34.4178407,30.1636376 34.3062816,30.1184931 Q34.1947225,30.0733485 34.1165877,29.9874003 Q34.038453,29.9014521 33.996347,29.7764364 Q33.9542411,29.6514208 33.9542411,29.4908105 Q33.9542411,29.3328046 33.9959129,29.2073549 Q34.0375848,29.0819052 34.1174559,28.9924843 Q34.1938543,28.9074042 34.3071498,28.8622597 Q34.4204452,28.8171152 34.5541424,28.8171152 Q34.6930487,28.8171152 34.8037396,28.8626938 Q34.9144305,28.9082724 34.9916971,28.9924843 Z M34.9760702,29.4908105 Q34.9760702,29.2390429 34.8632088,29.102307 Q34.7503475,28.9655712 34.5550106,28.9655712 Q34.3579373,28.9655712 34.2455101,29.102307 Q34.1330829,29.2390429 34.1330829,29.4908105 Q34.1330829,29.7451825 34.2476805,29.880182 Q34.3622782,30.0151816 34.5550106,30.0151816 Q34.747743,30.0151816 34.8619066,29.880182 Q34.9760702,29.7451825 34.9760702,29.4908105 Z" style="fill:rgb(68,68,68);stroke:none" />
<path d="M36.2920767,30.1367245 L36.1201802,30.1367245 L36.1201802,29.5038329 L35.4751343,29.5038329 L35.4751343,30.1367245 L35.3032378,30.1367245 L35.3032378,28.8440282 L35.4751343,28.8440282 L35.4751343,29.351036 L36.1201802,29.351036 L36.1201802,28.8440282 L36.2920767,28.8440282 Z" style="fill:rgb(68,68,68);stroke:none" />
<path d="M25.1863735,26.346574 Q25.2653764,26.4333904 25.3074824,26.5592742 Q25.3495883,26.685158 25.3495883,26.8449002 Q25.3495883,27.0046423 25.3066142,27.1309602 Q25.2636401,27.2572781 25.1863735,27.34149 Q25.1065024,27.4291746 24.9975478,27.4734509 Q24.8885932,27.5177273 24.7488188,27.5177273 Q24.612517,27.5177273 24.500958,27.4725828 Q24.3893989,27.4274382 24.3112641,27.34149 Q24.2331293,27.2555418 24.1910234,27.1305261 Q24.1489174,27.0055105 24.1489174,26.8449002 Q24.1489174,26.6868943 24.1905893,26.5614446 Q24.2322612,26.4359949 24.3121323,26.346574 Q24.3885307,26.2614939 24.5018261,26.2163494 Q24.6151215,26.1712048 24.7488188,26.1712048 Q24.887725,26.1712048 24.998416,26.2167835 Q25.1091069,26.2623621 25.1863735,26.346574 Z M25.1707465,26.8449002 Q25.1707465,26.5931326 25.0578852,26.4563967 Q24.9450239,26.3196609 24.749687,26.3196609 Q24.5526137,26.3196609 24.4401865,26.4563967 Q24.3277592,26.5931326 24.3277592,26.8449002 Q24.3277592,27.0992722 24.4423569,27.2342717 Q24.5569545,27.3692713 24.749687,27.3692713 Q24.9424194,27.3692713 25.056583,27.2342717 Q25.1707465,27.0992722 25.1707465,26.8449002 Z" style="fill:rgb(68,68,68);stroke:none" />
<path d="M24.0005916,27.4908142 L23.8286951,27.4908142 L23.8286951,26.8579226 L23.1836492,26.8579226 L23.1836492,27.4908142 L23.0117527,27.4908142 L23.0117527,26.1981179 L23.1836492,26.1981179 L23.1836492,26.7051257 L23.8286951,26.7051257 L23.8286951,26.1981179 L24.0005916,26.1981179 Z" style="fill:rgb(68,68,68);stroke:none" />
<path d="M27.991765,18.6052697 Q28.0707679,18.6920862 28.1128739,18.8179699 Q28.1549798,18.9438537 28.1549798,19.1035959 Q28.1549798,19.2633381 28.1120057,19.389656 Q28.0690316,19.5159738 27.991765,19.6001858 Q27.9118939,19.6878703 27.8029393,19.7321467 Q27.6939847,19.7764231 27.5542103,19.7764231 Q27.4179085,19.7764231 27.3063495,19.7312785 Q27.1947904,19.686134 27.1166556,19.6001858 Q27.0385209,19.5142375 26.9964149,19.3892219 Q26.9543089,19.2642063 26.9543089,19.1035959 Q26.9543089,18.9455901 26.9959808,18.8201404 Q27.0376527,18.6946906 27.1175238,18.6052697 Q27.1939222,18.5201897 27.3072176,18.4750451 Q27.420513,18.4299006 27.5542103,18.4299006 Q27.6931166,18.4299006 27.8038075,18.4754792 Q27.9144984,18.5210578 27.991765,18.6052697 Z M27.976138,19.1035959 Q27.976138,18.8518283 27.8632767,18.7150925 Q27.7504154,18.5783567 27.5550785,18.5783567 Q27.3580052,18.5783567 27.245578,18.7150925 Q27.1331507,18.8518283 27.1331507,19.1035959 Q27.1331507,19.357968 27.2477484,19.4929675 Q27.362346,19.627967 27.5550785,19.627967 Q27.7478109,19.627967 27.8619745,19.4929675 Q27.976138,19.357968 27.976138,19.1035959 Z" style="fill:rgb(68,68,68);stroke:none" />
<path d="M29.2921445,19.74951 L29.1202481,19.74951 L29.1202481,19.1166184 L28.4752022,19.1166184 L28.4752022,19.74951 L28.3033057,19.74951 L28.3033057,18.4568137 L28.4752022,18.4568137 L28.4752022,18.9638215 L29.1202481,18.9638215 L29.1202481,18.4568137 L29.2921445,18.4568137 Z" style="fill:rgb(68,68,68);stroke:none" />
<path d="M50.9188826,25.5756455 Q50.9978855,25.6624619 51.0399915,25.7883457 Q51.0820974,25.9142295 51.0820974,26.0739717 Q51.0820974,26.2337139 51.0391233,26.3600317 Q50.9961492,26.4863496 50.9188826,26.5705615 Q50.8390115,26.6582461 50.7300569,26.7025225 Q50.6211023,26.7467988 50.4813279,26.7467988 Q50.3450261,26.7467988 50.233467,26.7016543 Q50.121908,26.6565098 50.0437732,26.5705615 Q49.9656384,26.4846133 49.9235325,26.3595977 Q49.8814265,26.234582 49.8814265,26.0739717 Q49.8814265,25.9159658 49.9230984,25.7905161 Q49.9647703,25.6650664 50.0446414,25.5756455 Q50.1210398,25.4905654 50.2343352,25.4454209 Q50.3476306,25.4002764 50.4813279,25.4002764 Q50.6202341,25.4002764 50.7309251,25.445855 Q50.841616,25.4914336 50.9188826,25.5756455 Z M50.9032556,26.0739717 Q50.9032556,25.8222041 50.7903943,25.6854683 Q50.677533,25.5487324 50.482196,25.5487324 Q50.2851228,25.5487324 50.1726956,25.6854683 Q50.0602683,25.8222041 50.0602683,26.0739717 Q50.0602683,26.3283437 50.174866,26.4633433 Q50.2894636,26.5983428 50.482196,26.5983428 Q50.6749285,26.5983428 50.789092,26.4633433 Q50.9032556,26.3283437 50.9032556,26.0739717 Z" style="fill:rgb(68,68,68);stroke:none" />
<path d="M52.2192621,26.7198857 L52.0473656,26.7198857 L52.0473656,26.0869941 L51.4023197,26.0869941 L51.4023197,26.7198857 L51.2304232,26.7198857 L51.2304232,25.4271894 L51.4023197,25.4271894 L51.4023197,25.9341973 L52.0473656,25.9341973 L52.0473656,25.4271894 L52.2192621,25.4271894 Z" style="fill:rgb(68,68,68);stroke:none" />
<path d="M50.9188826,20.4956455 Q50.9978855,20.5824619 51.0399915,20.7083457 Q51.0820974,20.8342295 51.0820974,20.9939717 Q51.0820974,21.1537139 51.0391233,21.2800317 Q50.9961492,21.4063496 50.9188826,21.4905615 Q50.8390115,21.5782461 50.7300569,21.6225225 Q50.6211023,21.6667988 50.4813279,21.6667988 Q50.3450261,21.6667988 50.233467,21.6216543 Q50.121908,21.5765098 50.0437732,21.4905615 Q49.9656384,21.4046133 49.9235325,21.2795977 Q49.8814265,21.154582 49.8814265,20.9939717 Q49.8814265,20.8359658 49.9230984,20.7105161 Q49.9647703,20.5850664 50.0446414,20.4956455 Q50.1210398,20.4105654 50.2343352,20.3654209 Q50.3476306,20.3202764 50.4813279,20.3202764 Q50.6202341,20.3202764 50.7309251,20.365855 Q50.841616,20.4114336 50.9188826,20.4956455 Z M50.9032556,20.9939717 Q50.9032556,20.7422041 50.7903943,20.6054683 Q50.677533,20.4687324 50.482196,20.4687324 Q50.2851228,20.4687324 50.1726956,20.6054683 Q50.0602683,20.7422041 50.0602683,20.9939717 Q50.0602683,21.2483437 50.174866,21.3833433 Q50.2894636,21.5183428 50.482196,21.5183428 Q50.6749285,21.5183428 50.789092,21.3833433 Q50.9032556,21.2483437 50.9032556,20.9939717 Z" style="fill:rgb(68,68,68);stroke:none" />
<path d="M52.2192621,21.6398857 L52.0473656,21.6398857 L52.0473656,21.0069941 L51.4023197,21.0069941 L51.4023197,21.6398857 L51.2304232,21.6398857 L51.2304232,20.3471894 L51.4023197,20.3471894 L51.4023197,20.8541973 L52.0473656,20.8541973 L52.0473656,20.3471894 L52.2192621,20.3471894 Z" style="fill:rgb(68,68,68);stroke:none" />
<path d="M50.9188826,10.3356455 Q50.9978855,10.4224619 51.0399915,10.5483457 Q51.0820974,10.6742295 51.0820974,10.8339717 Q51.0820974,10.9937139 51.0391233,11.1200317 Q50.9961492,11.2463496 50.9188826,11.3305615 Q50.8390115,11.4182461 50.7300569,11.4625225 Q50.6211023,11.5067988 50.4813279,11.5067988 Q50.3450261,11.5067988 50.233467,11.4616543 Q50.121908,11.4165098 50.0437732,11.3305615 Q49.9656384,11.2446133 49.9235325,11.1195977 Q49.8814265,10.994582 49.8814265,10.8339717 Q49.8814265,10.6759658 49.9230984,10.5505161 Q49.9647703,10.4250664 50.0446414,10.3356455 Q50.1210398,10.2505654 50.2343352,10.2054209 Q50.3476306,10.1602764 50.4813279,10.1602764 Q50.6202341,10.1602764 50.7309251,10.205855 Q50.841616,10.2514336 50.9188826,10.3356455 Z M50.9032556,10.8339717 Q50.9032556,10.5822041 50.7903943,10.4454683 Q50.677533,10.3087324 50.482196,10.3087324 Q50.2851228,10.3087324 50.1726956,10.4454683 Q50.0602683,10.5822041 50.0602683,10.8339717 Q50.0602683,11.0883437 50.174866,11.2233433 Q50.2894636,11.3583428 50.482196,11.3583428 Q50.6749285,11.3583428 50.789092,11.2233433 Q50.9032556,11.0883437 50.9032556,10.8339717 Z" style="fill:rgb(68,68,68);stroke:none" />
<path d="M52.2192621,11.4798857 L52.0473656,11.4798857 L52.0473656,10.8469941 L51.4023197,10.8469941 L51.4023197,11.4798857 L51.2304232,11.4798857 L51.2304232,10.1871894 L51.4023197,10.1871894 L51.4023197,10.6941973 L52.0473656,10.6941973 L52.0473656,10.1871894 L52.2192621,10.1871894 Z" style="fill:rgb(68,68,68);stroke:none" />
<path d="M50.2384704,2.7156455 Q50.3174734,2.8024619 50.3595793,2.9283457 Q50.4016853,3.0542295 50.4016853,3.2139717 Q50.4016853,3.3737139 50.3587112,3.5000317 Q50.3157371,3.6263496 50.2384704,3.7105615 Q50.1585994,3.7982461 50.0496448,3.8425225 Q49.9406902,3.8867988 49.8009158,3.8867988 Q49.664614,3.8867988 49.5530549,3.8416543 Q49.4414958,3.7965098 49.3633611,3.7105615 Q49.2852263,3.6246133 49.2431204,3.4995977 Q49.2010144,3.374582 49.2010144,3.2139717 Q49.2010144,3.0559658 49.2426863,2.9305161 Q49.2843581,2.8050664 49.3642292,2.7156455 Q49.4406277,2.6305654 49.5539231,2.5854209 Q49.6672185,2.5402764 49.8009158,2.5402764 Q49.939822,2.5402764 50.0505129,2.585855 Q50.1612038,2.6314336 50.2384704,2.7156455 Z M50.2228435,3.2139717 Q50.2228435,2.9622041 50.1099822,2.8254683 Q49.9971208,2.6887324 49.8017839,2.6887324 Q49.6047107,2.6887324 49.4922834,2.8254683 Q49.3798562,2.9622041 49.3798562,3.2139717 Q49.3798562,3.4683437 49.4944538,3.6033433 Q49.6090515,3.7383428 49.8017839,3.7383428 Q49.9945163,3.7383428 50.1086799,3.6033433 Q50.2228435,3.4683437 50.2228435,3.2139717 Z" style="fill:rgb(68,68,68);stroke:none" />
<path d="M50.2384704,33.1956455 Q50.3174734,33.2824619 50.3595793,33.4083457 Q50.4016853,33.5342295 50.4016853,33.6939717 Q50.4016853,33.8537139 50.3587112,33.9800317 Q50.3157371,34.1063496 50.2384704,34.1905615 Q50.1585994,34.2782461 50.0496448,34.3225225 Q49.9406902,34.3667988 49.8009158,34.3667988 Q49.664614,34.3667988 49.5530549,34.3216543 Q49.4414958,34.2765098 49.3633611,34.1905615 Q49.2852263,34.1046133 49.2431204,33.9795977 Q49.2010144,33.854582 49.2010144,33.6939717 Q49.2010144,33.5359658 49.2426863,33.4105161 Q49.2843581,33.2850664 49.3642292,33.1956455 Q49.4406277,33.1105654 49.5539231,33.0654209 Q49.6672185,33.0202764 49.8009158,33.0202764 Q49.939822,33.0202764 50.0505129,33.065855 Q50.1612038,33.1114336 50.2384704,33.1956455 Z M50.2228435,33.6939717 Q50.2228435,33.4422041 50.1099822,33.3054683 Q49.9971208,33.1687324 49.8017839,33.1687324 Q49.6047107,33.1687324 49.4922834,33.3054683 Q49.3798562,33.4422041 49.3798562,33.6939717 Q49.3798562,33.9483437 49.4944538,34.0833433 Q49.6090515,34.2183428 49.8017839,34.2183428 Q49.9945163,34.2183428 50.1086799,34.0833433 Q50.2228435,33.9483437 50.2228435,33.6939717 Z" style="fill:rgb(68,68,68);stroke:none" />
<path d="M51.53885,34.3398857 L51.3669535,34.3398857 L51.3669535,33.7069941 L50.7219076,33.7069941 L50.7219076,34.3398857 L50.5500111,34.3398857 L50.5500111,33.0471894 L50.7219076,33.0471894 L50.7219076,33.5541973 L51.3669535,33.5541973 L51.3669535,33.0471894 L51.53885,33.0471894 Z" style="fill:rgb(68,68,68);stroke:none" />
<path d="M40.7588826,15.4156455 Q40.8378855,15.5024619 40.8799915,15.6283457 Q40.9220974,15.7542295 40.9220974,15.9139717 Q40.9220974,16.0737139 40.8791233,16.2000317 Q40.8361492,16.3263496 40.7588826,16.4105615 Q40.6790115,16.4982461 40.5700569,16.5425225 Q40.4611023,16.5867988 40.3213279,16.5867988 Q40.1850261,16.5867988 40.073467,16.5416543 Q39.961908,16.4965098 39.8837732,16.4105615 Q39.8056384,16.3246133 39.7635325,16.1995977 Q39.7214265,16.074582 39.7214265,15.9139717 Q39.7214265,15.7559658 39.7630984,15.6305161 Q39.8047703,15.5050664 39.8846414,15.4156455 Q39.9610398,15.3305654 40.0743352,15.2854209 Q40.1876306,15.2402764 40.3213279,15.2402764 Q40.4602341,15.2402764 40.5709251,15.285855 Q40.681616,15.3314336 40.7588826,15.4156455 Z M40.7432556,15.9139717 Q40.7432556,15.6622041 40.6303943,15.5254683 Q40.517533,15.3887324 40.322196,15.3887324 Q40.1251228,15.3887324 40.0126956,15.5254683 Q39.9002683,15.6622041 39.9002683,15.9139717 Q39.9002683,16.1683437 40.014866,16.3033433 Q40.1294636,16.4383428 40.322196,16.4383428 Q40.5149285,16.4383428 40.629092,16.3033433 Q40.7432556,16.1683437 40.7432556,15.9139717 Z" style="fill:rgb(68,68,68);stroke:none" />
<path d="M39.5731007,16.5598857 L39.4012042,16.5598857 L39.4012042,15.9269941 L38.7561583,15.9269941 L38.7561583,16.5598857 L38.5842618,16.5598857 L38.5842618,15.2671894 L38.7561583,15.2671894 L38.7561583,15.7741973 L39.4012042,15.7741973 L39.4012042,15.2671894 L39.5731007,15.2671894 Z" style="fill:rgb(68,68,68);stroke:none" />
<path d="M23.1359008,24.8139534 Q23.2149037,24.9007698 23.2570096,25.0266536 Q23.2991156,25.1525374 23.2991156,25.3122796 Q23.2991156,25.4720217 23.2561415,25.5983396 Q23.2131674,25.7246575 23.1359008,25.8088694 Q23.0560297,25.896554 22.9470751,25.9408303 Q22.8381205,25.9851067 22.6983461,25.9851067 Q22.5620443,25.9851067 22.4504852,25.9399622 Q22.3389261,25.8948176 22.2607914,25.8088694 Q22.1826566,25.7229212 22.1405507,25.5979055 Q22.0984447,25.4728899 22.0984447,25.3122796 Q22.0984447,25.1542737 22.1401166,25.028824 Q22.1817884,24.9033743 22.2616595,24.8139534 Q22.338058,24.7288733 22.4513534,24.6837288 Q22.5646488,24.6385842 22.6983461,24.6385842 Q22.8372523,24.6385842 22.9479432,24.6841629 Q23.0586342,24.7297415 23.1359008,24.8139534 Z M23.1202738,25.3122796 Q23.1202738,25.060512 23.0074125,24.9237761 Q22.8945511,24.7870403 22.6992142,24.7870403 Q22.502141,24.7870403 22.3897137,24.9237761 Q22.2772865,25.060512 22.2772865,25.3122796 Q22.2772865,25.5666516 22.3918842,25.7016511 Q22.5064818,25.8366506 22.6992142,25.8366506 Q22.8919467,25.8366506 23.0061102,25.7016511 Q23.1202738,25.5666516 23.1202738,25.3122796 Z" style="fill:rgb(68,68,68);stroke:none" />
<path d="M21.9501189,25.9581936 L21.7782224,25.9581936 L21.7782224,25.325302 L21.1331765,25.325302 L21.1331765,25.9581936 L20.96128,25.9581936 L20.96128,24.6654973 L21.1331765,24.6654973 L21.1331765,25.1725051 L21.7782224,25.1725051 L21.7782224,24.6654973 L21.9501189,24.6654973 Z" style="fill:rgb(68,68,68);stroke:none" />
<path d="M41.4965935,3.8598857 L41.324697,3.8598857 L41.324697,3.2269941 L40.6796511,3.2269941 L40.6796511,3.8598857 L40.5077547,3.8598857 L40.5077547,2.5671894 L40.6796511,2.5671894 L40.6796511,3.0741973 L41.324697,3.0741973 L41.324697,2.5671894 L41.4965935,2.5671894 Z" style="fill:rgb(68,68,68);stroke:none" />
<path d="M11.2704873,13.8763279 Q11.2704873,13.8533215 11.263542,13.8374775 Q11.2565966,13.8216335 11.2422719,13.8103474 Q11.2257768,13.7968909 11.2019023,13.7916819 Q11.1780278,13.7864729 11.1433012,13.7864729 L11.0460669,13.7864729 L10.9883339,14.035636 L11.0794912,14.035636 Q11.1220312,14.035636 11.1532851,14.0278225 Q11.184539,14.020009 11.2101499,14.0004753 Q11.2387993,13.9787712 11.2546433,13.945998 Q11.2704873,13.9132249 11.2704873,13.8763279 Z M11.3668535,14.3620657 L11.2657124,14.3620657 L11.0955522,14.1037869 L10.972707,14.1037869 L10.9132378,14.3620657 L10.8264214,14.3620657 L10.9753115,13.7157175 L11.1515488,13.7157175 Q11.2105839,13.7157175 11.2474809,13.723314 Q11.2843779,13.7309104 11.3117251,13.7508782 Q11.3360337,13.7686755 11.3499243,13.7938523 Q11.3638149,13.819029 11.3638149,13.8567942 Q11.3638149,13.9375334 11.3132444,13.998522 Q11.2626738,14.0595105 11.1806323,14.083385 Z" style="fill:rgb(255,0,0);stroke:none" />
<path d="M14.3354857,20.0888052 Q14.2725438,20.0888052 14.215679,20.0755657 Q14.1588143,20.0623262 14.1041199,20.0349791 L14.1249559,19.9364425 L14.131033,19.9364425 Q14.1727049,19.9759439 14.2332594,19.9969969 Q14.2938138,20.0180499 14.3502445,20.0180499 Q14.4427039,20.0180499 14.4919722,19.9813699 Q14.5412406,19.94469 14.5412406,19.8878253 Q14.5412406,19.8578736 14.5236602,19.8379058 Q14.5060799,19.8179381 14.4722215,19.8083883 Q14.4440062,19.8005748 14.4051558,19.7934124 Q14.3663055,19.7862501 14.3311449,19.7780025 Q14.262994,19.7628096 14.2256629,19.7259127 Q14.1883319,19.6890157 14.1883319,19.6343214 Q14.1883319,19.5418619 14.2666837,19.4804393 Q14.3450355,19.4190167 14.4691829,19.4190167 Q14.5368997,19.4190167 14.5922452,19.4331243 Q14.6475907,19.447232 14.6875262,19.4663316 L14.6679925,19.5587911 L14.6619154,19.5587911 Q14.6310955,19.5305758 14.5740137,19.5101739 Q14.516932,19.489772 14.4539901,19.489772 Q14.3749871,19.489772 14.3278892,19.5244986 Q14.2807913,19.5592252 14.2807913,19.6126173 Q14.2807913,19.6412667 14.2977205,19.6629708 Q14.3146497,19.6846749 14.3580579,19.6955269 Q14.3858392,19.7020382 14.4318519,19.7113709 Q14.4778646,19.7207037 14.5091185,19.7289512 Q14.5707581,19.7458804 14.6026632,19.7793048 Q14.6345682,19.8127291 14.6345682,19.8635167 Q14.6345682,19.9060567 14.6137323,19.9481627 Q14.5928963,19.9902686 14.5555653,20.0202203 Q14.5156297,20.0523424 14.4620206,20.0705738 Q14.4084115,20.0888052 14.3354857,20.0888052 Z" style="fill:rgb(255,0,0);stroke:none" />
<path d="M11.2704873,21.496272 Q11.2704873,21.4732656 11.263542,21.4574216 Q11.2565966,21.4415777 11.2422719,21.4302915 Q11.2257768,21.416835 11.2019023,21.411626 Q11.1780278,21.406417 11.1433012,21.406417 L11.0460669,21.406417 L10.9883339,21.6555801 L11.0794912,21.6555801 Q11.1220312,21.6555801 11.1532851,21.6477666 Q11.184539,21.6399531 11.2101499,21.6204195 Q11.2387993,21.5987153 11.2546433,21.5659422 Q11.2704873,21.533169 11.2704873,21.496272 Z M11.3668535,21.9820098 L11.2657124,21.9820098 L11.0955522,21.723731 L10.972707,21.723731 L10.9132378,21.9820098 L10.8264214,21.9820098 L10.9753115,21.3356616 L11.1515488,21.3356616 Q11.2105839,21.3356616 11.2474809,21.3432581 Q11.2843779,21.3508545 11.3117251,21.3708223 Q11.3360337,21.3886196 11.3499243,21.4137964 Q11.3638149,21.4389732 11.3638149,21.4767383 Q11.3638149,21.5574776 11.3132444,21.6184661 Q11.2626738,21.6794546 11.1806323,21.7033291 Z" style="fill:rgb(255,0,0);stroke:none" />
<path d="M7.7366141,20.0887386 Q7.6736722,20.0887386 7.6168074,20.0754991 Q7.5599427,20.0622596 7.5052483,20.0349124 L7.5260843,19.9363758 L7.5321614,19.9363758 Q7.5738333,19.9758773 7.6343877,19.9969302 Q7.6949422,20.0179832 7.7513729,20.0179832 Q7.8438323,20.0179832 7.8931006,19.9813033 Q7.9423689,19.9446233 7.9423689,19.8877586 Q7.9423689,19.8578069 7.9247886,19.8378392 Q7.9072083,19.8178714 7.8733499,19.8083216 Q7.8451346,19.8005081 7.8062842,19.7933458 Q7.7674339,19.7861834 7.7322732,19.7779358 Q7.6641224,19.762743 7.6267913,19.725846 Q7.5894603,19.688949 7.5894603,19.6342547 Q7.5894603,19.5417952 7.6678121,19.4803726 Q7.7461639,19.41895 7.8703113,19.41895 Q7.9380281,19.41895 7.9933736,19.4330577 Q8.048719,19.4471653 8.0886546,19.466265 L8.0691209,19.5587244 L8.0630437,19.5587244 Q8.0322239,19.5305091 7.9751421,19.5101072 Q7.9180604,19.4897054 7.8551185,19.4897054 Q7.7761155,19.4897054 7.7290176,19.5244319 Q7.6819197,19.5591585 7.6819197,19.6125506 Q7.6819197,19.6412 7.6988489,19.6629041 Q7.7157781,19.6846082 7.7591863,19.6954603 Q7.7869676,19.7019715 7.8329803,19.7113043 Q7.878993,19.720637 7.9102469,19.7288846 Q7.9718865,19.7458138 8.0037916,19.7792381 Q8.0356966,19.8126624 8.0356966,19.86345 Q8.0356966,19.90599 8.0148606,19.948096 Q7.9940247,19.990202 7.9566937,20.0201536 Q7.9167581,20.0522757 7.863149,20.0705071 Q7.8095398,20.0887386 7.7366141,20.0887386 Z" style="fill:rgb(255,0,0);stroke:none" />
<path d="M7.7366141,16.2787773 Q7.6736722,16.2787773 7.6168074,16.2655378 Q7.5599427,16.2522983 7.5052483,16.2249511 L7.5260843,16.1264145 L7.5321614,16.1264145 Q7.5738333,16.165916 7.6343877,16.186969 Q7.6949422,16.2080219 7.7513729,16.2080219 Q7.8438323,16.2080219 7.8931006,16.171342 Q7.9423689,16.1346621 7.9423689,16.0777973 Q7.9423689,16.0478457 7.9247886,16.0278779 Q7.9072083,16.0079101 7.8733499,15.9983603 Q7.8451346,15.9905468 7.8062842,15.9833845 Q7.7674339,15.9762221 7.7322732,15.9679746 Q7.6641224,15.9527817 7.6267913,15.9158847 Q7.5894603,15.8789877 7.5894603,15.8242934 Q7.5894603,15.7318339 7.6678121,15.6704113 Q7.7461639,15.6089887 7.8703113,15.6089887 Q7.9380281,15.6089887 7.9933736,15.6230964 Q8.048719,15.6372041 8.0886546,15.6563037 L8.0691209,15.7487631 L8.0630437,15.7487631 Q8.0322239,15.7205478 7.9751421,15.700146 Q7.9180604,15.6797441 7.8551185,15.6797441 Q7.7761155,15.6797441 7.7290176,15.7144707 Q7.6819197,15.7491972 7.6819197,15.8025893 Q7.6819197,15.8312387 7.6988489,15.8529428 Q7.7157781,15.8746469 7.7591863,15.885499 Q7.7869676,15.8920102 7.8329803,15.901343 Q7.878993,15.9106757 7.9102469,15.9189233 Q7.9718865,15.9358525 8.0037916,15.9692768 Q8.0356966,16.0027011 8.0356966,16.0534887 Q8.0356966,16.0960288 8.0148606,16.1381347 Q7.9940247,16.1802407 7.9566937,16.2101923 Q7.9167581,16.2423144 7.863149,16.2605459 Q7.8095398,16.2787773 7.7366141,16.2787773 Z" style="fill:rgb(255,0,0);stroke:none" />
<path d="M26.5576896,5.6366595 Q26.5576896,5.6136532 26.5507443,5.5978092 Q26.543799,5.5819652 26.5294743,5.570679 Q26.5129792,5.5572225 26.4891047,5.5520135 Q26.4652302,5.5468045 26.4305036,5.5468045 L26.3332692,5.5468045 L26.2755363,5.7959676 L26.3666936,5.7959676 Q26.4092336,5.7959676 26.4404875,5.7881541 Q26.4717414,5.7803407 26.4973522,5.760807 Q26.5260017,5.7391029 26.5418457,5.7063297 Q26.5576896,5.6735565 26.5576896,5.6366595 Z M26.6540559,6.1223973 L26.5529147,6.1223973 L26.3827546,5.8641185 L26.2599094,5.8641185 L26.2004401,6.1223973 L26.1136237,6.1223973 L26.2625139,5.4760491 L26.4387512,5.4760491 Q26.4977863,5.4760491 26.5346833,5.4836456 Q26.5715803,5.491242 26.5989274,5.5112098 Q26.623236,5.5290072 26.6371267,5.5541839 Q26.6510173,5.5793607 26.6510173,5.6171258 Q26.6510173,5.6978651 26.6004467,5.7588536 Q26.5498762,5.8198421 26.4678347,5.8437166 Z" style="fill:rgb(255,0,0);stroke:none" />
<path d="M23.7865521,9.6174369 Q23.7236102,9.6174369 23.6667455,9.6041973 Q23.6098807,9.5909578 23.5551864,9.5636107 L23.5760223,9.4650741 L23.5820995,9.4650741 Q23.6237713,9.5045755 23.6843258,9.5256285 Q23.7448802,9.5466815 23.8013109,9.5466815 Q23.8937704,9.5466815 23.9430387,9.5100015 Q23.992307,9.4733216 23.992307,9.4164569 Q23.992307,9.3865052 23.9747267,9.3665374 Q23.9571463,9.3465697 23.9232879,9.3370199 Q23.8950726,9.3292064 23.8562223,9.322044 Q23.8173719,9.3148817 23.7822113,9.3066341 Q23.7140604,9.2914412 23.6767293,9.2545443 Q23.6393983,9.2176473 23.6393983,9.162953 Q23.6393983,9.0704935 23.7177501,9.0090709 Q23.7961019,8.9476483 23.9202494,8.9476483 Q23.9879662,8.9476483 24.0433116,8.9617559 Q24.0986571,8.9758636 24.1385926,8.9949632 L24.1190589,9.0874227 L24.1129818,9.0874227 Q24.082162,9.0592074 24.0250802,9.0388055 Q23.9679984,9.0184036 23.9050565,9.0184036 Q23.8260536,9.0184036 23.7789557,9.0531302 Q23.7318578,9.0878568 23.7318578,9.1412489 Q23.7318578,9.1698983 23.748787,9.1916024 Q23.7657162,9.2133065 23.8091244,9.2241585 Q23.8369056,9.2306698 23.8829183,9.2400025 Q23.928931,9.2493353 23.9601849,9.2575828 Q24.0218246,9.274512 24.0537296,9.3079364 Q24.0856346,9.3413607 24.0856346,9.3921483 Q24.0856346,9.4346883 24.0647987,9.4767943 Q24.0439627,9.5189002 24.0066317,9.5488519 Q23.9666961,9.580974 23.913087,9.5992054 Q23.8594779,9.6174369 23.7865521,9.6174369 Z" style="fill:rgb(255,0,0);stroke:none" />
<path d="M26.9694847,14.469355 Q26.9065428,14.469355 26.849678,14.4561155 Q26.7928133,14.4428759 26.7381189,14.4155288 L26.7589549,14.3169922 L26.765032,14.3169922 Q26.8067039,14.3564936 26.8672583,14.3775466 Q26.9278128,14.3985996 26.9842434,14.3985996 Q27.0767029,14.3985996 27.1259712,14.3619197 Q27.1752395,14.3252397 27.1752395,14.268375 Q27.1752395,14.2384233 27.1576592,14.2184555 Q27.1400789,14.1984878 27.1062205,14.188938 Q27.0780052,14.1811245 27.0391548,14.1739621 Q27.0003045,14.1667998 26.9651438,14.1585522 Q26.896993,14.1433593 26.8596619,14.1064624 Q26.8223308,14.0695654 26.8223308,14.0148711 Q26.8223308,13.9224116 26.9006827,13.860989 Q26.9790345,13.7995664 27.1031819,13.7995664 Q27.1708987,13.7995664 27.2262442,13.813674 Q27.2815896,13.8277817 27.3215252,13.8468813 L27.3019915,13.9393408 L27.2959143,13.9393408 Q27.2650945,13.9111255 27.2080127,13.8907236 Q27.1509309,13.8703218 27.087989,13.8703218 Q27.0089861,13.8703218 26.9618882,13.9050483 Q26.9147903,13.9397749 26.9147903,13.993167 Q26.9147903,14.0218164 26.9317195,14.0435205 Q26.9486487,14.0652246 26.9920569,14.0760766 Q27.0198382,14.0825879 27.0658509,14.0919206 Q27.1118636,14.1012534 27.1431175,14.1095009 Q27.2047571,14.1264301 27.2366621,14.1598545 Q27.2685672,14.1932788 27.2685672,14.2440664 Q27.2685672,14.2866064 27.2477312,14.3287124 Q27.2268953,14.3708183 27.1895642,14.40077 Q27.1496287,14.4328921 27.0960196,14.4511235 Q27.0424104,14.469355 26.9694847,14.469355 Z" style="fill:rgb(255,0,0);stroke:none" />
<path d="M34.0448949,13.2502801 Q34.0448949,13.2272738 34.0379496,13.2114298 Q34.0310043,13.1955858 34.0166796,13.1842996 Q34.0001845,13.1708431 33.9763099,13.1656341 Q33.9524354,13.1604251 33.9177089,13.1604251 L33.8204745,13.1604251 L33.7627416,13.4095882 L33.8538988,13.4095882 Q33.8964388,13.4095882 33.9276928,13.4017747 Q33.9589467,13.3939613 33.9845575,13.3744276 Q34.0132069,13.3527235 34.0290509,13.3199503 Q34.0448949,13.2871771 34.0448949,13.2502801 Z M34.1412611,13.7360179 L34.04012,13.7360179 L33.8699598,13.4777391 L33.7471146,13.4777391 L33.6876454,13.7360179 L33.600829,13.7360179 L33.7497191,13.0896698 L33.9259564,13.0896698 Q33.9849916,13.0896698 34.0218886,13.0972662 Q34.0587855,13.1048626 34.0861327,13.1248304 Q34.1104413,13.1426278 34.1243319,13.1678045 Q34.1382225,13.1929813 34.1382225,13.2307464 Q34.1382225,13.3114857 34.087652,13.3724742 Q34.0370814,13.4334627 33.9550399,13.4573372 Z" style="fill:rgb(255,0,0);stroke:none" />
<path d="M36.3619811,9.6359752 Q36.2990392,9.6359752 36.2421744,9.6227357 Q36.1853097,9.6094962 36.1306153,9.5821491 L36.1514513,9.4836124 L36.1575284,9.4836124 Q36.1992003,9.5231139 36.2597547,9.5441669 Q36.3203092,9.5652199 36.3767398,9.5652199 Q36.4691993,9.5652199 36.5184676,9.5285399 Q36.5677359,9.49186 36.5677359,9.4349953 Q36.5677359,9.4050436 36.5501556,9.3850758 Q36.5325753,9.365108 36.4987169,9.3555582 Q36.4705016,9.3477448 36.4316512,9.3405824 Q36.3928009,9.3334201 36.3576402,9.3251725 Q36.2894894,9.3099796 36.2521583,9.2730827 Q36.2148273,9.2361857 36.2148273,9.1814913 Q36.2148273,9.0890319 36.2931791,9.0276093 Q36.3715309,8.9661867 36.4956783,8.9661867 Q36.5633951,8.9661867 36.6187406,8.9802943 Q36.674086,8.994402 36.7140216,9.0135016 L36.6944879,9.1059611 L36.6884107,9.1059611 Q36.6575909,9.0777457 36.6005091,9.0573439 Q36.5434273,9.036942 36.4804855,9.036942 Q36.4014825,9.036942 36.3543846,9.0716686 Q36.3072867,9.1063952 36.3072867,9.1597872 Q36.3072867,9.1884367 36.3242159,9.2101408 Q36.3411451,9.2318449 36.3845533,9.2426969 Q36.4123346,9.2492081 36.4583473,9.2585409 Q36.50436,9.2678737 36.5356139,9.2761212 Q36.5972535,9.2930504 36.6291586,9.3264747 Q36.6610636,9.3598991 36.6610636,9.4106867 Q36.6610636,9.4532267 36.6402276,9.4953327 Q36.6193917,9.5374386 36.5820607,9.5673903 Q36.5421251,9.5995123 36.488516,9.6177438 Q36.4349068,9.6359752 36.3619811,9.6359752 Z" style="fill:rgb(255,0,0);stroke:none" />
<path d="M24.6989567,22.5352606 Q24.6360148,22.5352606 24.57915,22.5220211 Q24.5222853,22.5087816 24.4675909,22.4814345 L24.4884269,22.3828978 L24.494504,22.3828978 Q24.5361759,22.4223993 24.5967303,22.4434523 Q24.6572848,22.4645053 24.7137154,22.4645053 Q24.8061749,22.4645053 24.8554432,22.4278253 Q24.9047115,22.3911454 24.9047115,22.3342806 Q24.9047115,22.304329 24.8871312,22.2843612 Q24.8695509,22.2643934 24.8356925,22.2548436 Q24.8074772,22.2470302 24.7686268,22.2398678 Q24.7297765,22.2327054 24.6946158,22.2244579 Q24.626465,22.209265 24.5891339,22.172368 Q24.5518029,22.1354711 24.5518029,22.0807767 Q24.5518029,21.9883173 24.6301547,21.9268947 Q24.7085065,21.865472 24.8326539,21.865472 Q24.9003707,21.865472 24.9557162,21.8795797 Q25.0110616,21.8936874 25.0509972,21.912787 L25.0314635,22.0052465 L25.0253863,22.0052465 Q24.9945665,21.9770311 24.9374847,21.9566293 Q24.8804029,21.9362274 24.8174611,21.9362274 Q24.7384581,21.9362274 24.6913602,21.970954 Q24.6442623,22.0056805 24.6442623,22.0590726 Q24.6442623,22.087722 24.6611915,22.1094262 Q24.6781207,22.1311303 24.7215289,22.1419823 Q24.7493102,22.1484935 24.7953229,22.1578263 Q24.8413356,22.1671591 24.8725895,22.1754066 Q24.9342291,22.1923358 24.9661342,22.2257601 Q24.9980392,22.2591845 24.9980392,22.309972 Q24.9980392,22.3525121 24.9772032,22.394618 Q24.9563673,22.436724 24.9190363,22.4666757 Q24.8791007,22.4987977 24.8254916,22.5170292 Q24.7718824,22.5352606 24.6989567,22.5352606 Z" style="fill:rgb(255,0,0);stroke:none" />
<path d="M30.1022397,25.8650999 Q30.1022397,25.8420936 30.0952944,25.8262496 Q30.0883491,25.8104056 30.0740244,25.7991195 Q30.0575292,25.7856629 30.0336547,25.7804539 Q30.0097802,25.775245 29.9750537,25.775245 L29.8778193,25.775245 L29.8200864,26.024408 L29.9112436,26.024408 Q29.9537836,26.024408 29.9850375,26.0165946 Q30.0162915,26.0087811 30.0419023,25.9892474 Q30.0705517,25.9675433 30.0863957,25.9347701 Q30.1022397,25.9019969 30.1022397,25.8650999 Z M30.1986059,26.3508377 L30.0974648,26.3508377 L29.9273046,26.0925589 L29.8044594,26.0925589 L29.7449902,26.3508377 L29.6581738,26.3508377 L29.8070639,25.7044896 L29.9833012,25.7044896 Q30.0423364,25.7044896 30.0792333,25.712086 Q30.1161303,25.7196825 30.1434775,25.7396502 Q30.1677861,25.7574476 30.1816767,25.7826243 Q30.1955673,25.8078011 30.1955673,25.8455662 Q30.1955673,25.9263055 30.1449968,25.987294 Q30.0944262,26.0482826 30.0123847,26.0721571 Z" style="fill:rgb(255,0,0);stroke:none" />
<path d="M38.5417433,27.8481611 Q38.4788014,27.8481611 38.4219367,27.8349216 Q38.3650719,27.8216821 38.3103776,27.7943349 L38.3312135,27.6957983 L38.3372907,27.6957983 Q38.3789625,27.7352997 38.439517,27.7563527 Q38.5000714,27.7774057 38.5565021,27.7774057 Q38.6489616,27.7774057 38.6982299,27.7407258 Q38.7474982,27.7040458 38.7474982,27.6471811 Q38.7474982,27.6172294 38.7299179,27.5972617 Q38.7123375,27.5772939 38.6784791,27.5677441 Q38.6502638,27.5599306 38.6114135,27.5527682 Q38.5725631,27.5456059 38.5374025,27.5373583 Q38.4692516,27.5221655 38.4319205,27.4852685 Q38.3945895,27.4483715 38.3945895,27.3936772 Q38.3945895,27.3012177 38.4729413,27.2397951 Q38.5512931,27.1783725 38.6754406,27.1783725 Q38.7431574,27.1783725 38.7985028,27.1924802 Q38.8538483,27.2065878 38.8937838,27.2256874 L38.8742501,27.3181469 L38.868173,27.3181469 Q38.8373532,27.2899316 38.7802714,27.2695297 Q38.7231896,27.2491279 38.6602477,27.2491279 Q38.5812448,27.2491279 38.5341469,27.2838544 Q38.487049,27.318581 38.487049,27.3719731 Q38.487049,27.4006225 38.5039782,27.4223266 Q38.5209074,27.4440307 38.5643156,27.4548828 Q38.5920968,27.461394 38.6381095,27.4707267 Q38.6841222,27.4800595 38.7153761,27.4883071 Q38.7770158,27.5052363 38.8089208,27.5386606 Q38.8408258,27.5720849 38.8408258,27.6228725 Q38.8408258,27.6654125 38.8199899,27.7075185 Q38.7991539,27.7496245 38.7618229,27.7795761 Q38.7218873,27.8116982 38.6682782,27.8299296 Q38.6146691,27.8481611 38.5417433,27.8481611 Z" style="fill:rgb(255,0,0);stroke:none" />
<path d="M32.6422397,25.0947872 Q32.6422397,25.0717809 32.6352944,25.0559369 Q32.6283491,25.0400929 32.6140244,25.0288067 Q32.5975292,25.0153502 32.5736547,25.0101412 Q32.5497802,25.0049322 32.5150537,25.0049322 L32.4178193,25.0049322 L32.3600864,25.2540953 L32.4512436,25.2540953 Q32.4937836,25.2540953 32.5250375,25.2462818 Q32.5562915,25.2384684 32.5819023,25.2189347 Q32.6105517,25.1972306 32.6263957,25.1644574 Q32.6422397,25.1316842 32.6422397,25.0947872 Z M32.7386059,25.580525 L32.6374648,25.580525 L32.4673046,25.3222462 L32.3444594,25.3222462 L32.2849902,25.580525 L32.1981738,25.580525 L32.3470639,24.9341769 L32.5233012,24.9341769 Q32.5823364,24.9341769 32.6192333,24.9417733 Q32.6561303,24.9493697 32.6834775,24.9693375 Q32.7077861,24.9871349 32.7216767,25.0123116 Q32.7355673,25.0374884 32.7355673,25.0752535 Q32.7355673,25.1559928 32.6849968,25.2169813 Q32.6344262,25.2779698 32.5523847,25.3018443 Z" style="fill:rgb(255,0,0);stroke:none" />
<path d="M27.4508608,29.4458943 Q27.3879189,29.4458943 27.3310541,29.4326548 Q27.2741894,29.4194153 27.219495,29.3920682 L27.240331,29.2935315 L27.2464081,29.2935315 Q27.28808,29.333033 27.3486345,29.354086 Q27.4091889,29.375139 27.4656196,29.375139 Q27.558079,29.375139 27.6073473,29.338459 Q27.6566157,29.3017791 27.6566157,29.2449144 Q27.6566157,29.2149627 27.6390353,29.1949949 Q27.621455,29.1750271 27.5875966,29.1654773 Q27.5593813,29.1576639 27.5205309,29.1505015 Q27.4816806,29.1433392 27.44652,29.1350916 Q27.3783691,29.1198987 27.341038,29.0830018 Q27.303707,29.0461048 27.303707,28.9914104 Q27.303707,28.898951 27.3820588,28.8375284 Q27.4604106,28.7761058 27.584558,28.7761058 Q27.6522748,28.7761058 27.7076203,28.7902134 Q27.7629658,28.8043211 27.8029013,28.8234207 L27.7833676,28.9158802 L27.7772905,28.9158802 Q27.7464706,28.8876648 27.6893888,28.867263 Q27.6323071,28.8468611 27.5693652,28.8468611 Q27.4903622,28.8468611 27.4432643,28.8815877 Q27.3961664,28.9163143 27.3961664,28.9697063 Q27.3961664,28.9983558 27.4130956,29.0200599 Q27.4300248,29.041764 27.473433,29.052616 Q27.5012143,29.0591272 27.547227,29.06846 Q27.5932397,29.0777928 27.6244936,29.0860403 Q27.6861332,29.1029695 27.7180383,29.1363938 Q27.7499433,29.1698182 27.7499433,29.2206058 Q27.7499433,29.2631458 27.7291074,29.3052518 Q27.7082714,29.3473577 27.6709404,29.3773094 Q27.6310048,29.4094314 27.5773957,29.4276629 Q27.5237866,29.4458943 27.4508608,29.4458943 Z" style="fill:rgb(255,0,0);stroke:none" />
<path d="M44.3056118,25.9109739 Q44.3056118,25.8879675 44.2986665,25.8721235 Q44.2917212,25.8562795 44.2773965,25.8449934 Q44.2609014,25.8315369 44.2370269,25.8263279 Q44.2131523,25.8211189 44.1784258,25.8211189 L44.0811914,25.8211189 L44.0234585,26.070282 L44.1146157,26.070282 Q44.1571558,26.070282 44.1884097,26.0624685 Q44.2196636,26.054655 44.2452744,26.0351213 Q44.2739238,26.0134172 44.2897678,25.980644 Q44.3056118,25.9478708 44.3056118,25.9109739 Z M44.401978,26.3967117 L44.3008369,26.3967117 L44.1306768,26.1384329 L44.0078315,26.1384329 L43.9483623,26.3967117 L43.8615459,26.3967117 L44.010436,25.7503635 L44.1866733,25.7503635 Q44.2457085,25.7503635 44.2826055,25.75796 Q44.3195024,25.7655564 44.3468496,25.7855242 Q44.3711582,25.8033215 44.3850488,25.8284983 Q44.3989395,25.853675 44.3989395,25.8914402 Q44.3989395,25.9721794 44.3483689,26.033168 Q44.2977983,26.0941565 44.2157568,26.118031 Z" style="fill:rgb(255,0,0);stroke:none" />
<path d="M44.3056118,20.8309739 Q44.3056118,20.8079675 44.2986665,20.7921235 Q44.2917212,20.7762795 44.2773965,20.7649934 Q44.2609014,20.7515369 44.2370269,20.7463279 Q44.2131523,20.7411189 44.1784258,20.7411189 L44.0811914,20.7411189 L44.0234585,20.990282 L44.1146157,20.990282 Q44.1571558,20.990282 44.1884097,20.9824685 Q44.2196636,20.974655 44.2452744,20.9551213 Q44.2739238,20.9334172 44.2897678,20.900644 Q44.3056118,20.8678708 44.3056118,20.8309739 Z M44.401978,21.3167117 L44.3008369,21.3167117 L44.1306768,21.0584329 L44.0078315,21.0584329 L43.9483623,21.3167117 L43.8615459,21.3167117 L44.010436,20.6703635 L44.1866733,20.6703635 Q44.2457085,20.6703635 44.2826055,20.67796 Q44.3195024,20.6855564 44.3468496,20.7055242 Q44.3711582,20.7233215 44.3850488,20.7484983 Q44.3989395,20.773675 44.3989395,20.8114402 Q44.3989395,20.8921794 44.3483689,20.953168 Q44.2977983,21.0141565 44.2157568,21.038031 Z" style="fill:rgb(255,0,0);stroke:none" />
<path d="M46.6114246,16.2484319 Q46.5484827,16.2484319 46.4916179,16.2351924 Q46.4347532,16.2219529 46.3800588,16.1946057 L46.4008948,16.0960691 L46.4069719,16.0960691 Q46.4486438,16.1355706 46.5091982,16.1566235 Q46.5697527,16.1776765 46.6261834,16.1776765 Q46.7186428,16.1776765 46.7679111,16.1409966 Q46.8171794,16.1043166 46.8171794,16.0474519 Q46.8171794,16.0175002 46.7995991,15.9975325 Q46.7820188,15.9775647 46.7481604,15.9680149 Q46.7199451,15.9602014 46.6810947,15.9530391 Q46.6422444,15.9458767 46.6070837,15.9376291 Q46.5389329,15.9224363 46.5016018,15.8855393 Q46.4642708,15.8486423 46.4642708,15.793948 Q46.4642708,15.7014885 46.5426226,15.6400659 Q46.6209744,15.5786433 46.7451218,15.5786433 Q46.8128386,15.5786433 46.8681841,15.592751 Q46.9235295,15.6068586 46.9634651,15.6259582 L46.9439314,15.7184177 L46.9378542,15.7184177 Q46.9070344,15.6902024 46.8499526,15.6698005 Q46.7928709,15.6493987 46.729929,15.6493987 Q46.650926,15.6493987 46.6038281,15.6841252 Q46.5567302,15.7188518 46.5567302,15.7722439 Q46.5567302,15.8008933 46.5736594,15.8225974 Q46.5905886,15.8443015 46.6339968,15.8551536 Q46.6617781,15.8616648 46.7077908,15.8709976 Q46.7538035,15.8803303 46.7850574,15.8885779 Q46.846697,15.9055071 46.8786021,15.9389314 Q46.9105071,15.9723557 46.9105071,16.0231433 Q46.9105071,16.0656833 46.8896711,16.1077893 Q46.8688352,16.1498953 46.8315042,16.1798469 Q46.7915686,16.211969 46.7379595,16.2302004 Q46.6843503,16.2484319 46.6114246,16.2484319 Z" style="fill:rgb(255,0,0);stroke:none" />
<path d="M44.3056118,10.6709739 Q44.3056118,10.6479675 44.2986665,10.6321235 Q44.2917212,10.6162795 44.2773965,10.6049934 Q44.2609014,10.5915369 44.2370269,10.5863279 Q44.2131523,10.5811189 44.1784258,10.5811189 L44.0811914,10.5811189 L44.0234585,10.830282 L44.1146157,10.830282 Q44.1571558,10.830282 44.1884097,10.8224685 Q44.2196636,10.814655 44.2452744,10.7951213 Q44.2739238,10.7734172 44.2897678,10.740644 Q44.3056118,10.7078708 44.3056118,10.6709739 Z M44.401978,11.1567117 L44.3008369,11.1567117 L44.1306768,10.8984329 L44.0078315,10.8984329 L43.9483623,11.1567117 L43.8615459,11.1567117 L44.010436,10.5103635 L44.1866733,10.5103635 Q44.2457085,10.5103635 44.2826055,10.51796 Q44.3195024,10.5255564 44.3468496,10.5455242 Q44.3711582,10.5633215 44.3850488,10.5884983 Q44.3989395,10.613675 44.3989395,10.6514402 Q44.3989395,10.7321794 44.3483689,10.793168 Q44.2977983,10.8541565 44.2157568,10.878031 Z" style="fill:rgb(255,0,0);stroke:none" />
</svg>
