<?xml version="1.0" encoding="UTF-8"?>
<!DOCTYPE svg PUBLIC "-//W3C//DTD SVG 1.1//EN" "http://www.w3.org/Graphics/SVG/1.1/DTD/svg11.dtd">
<svg version="1.2" xmlns="http://www.w3.org/2000/svg" xmlns:xlink="http://www.w3.org/1999/xlink" x="0mm" y="0mm" width="203mm" height="97mm" viewBox="0 0 203 97">
<style type="text/css"><![CDATA[
text { font:12px Dialog; }
]]></style>
<line x1="126.8755334" y1="34.389714" x2="126.8755334" y2="52.3610549" style="fill:none;stroke:rgb(68,68,68);stroke-width:0.6870879;stroke-linecap:round;stroke-linejoin:round" />
<line x1="126.8755334" y1="52.3610549" x2="141.2297909" y2="52.3610549" style="fill:none;stroke:rgb(68,68,68);stroke-width:0.6870879;stroke-linecap:round;stroke-linejoin:round" />
<line x1="144.8468743" y1="34.389714" x2="144.8468743" y2="48.0470117" style="fill:none;stroke:rgb(68,68,68);stroke-width:0.6870879;stroke-linecap:round;stroke-linejoin:round" />
<line x1="144.8468743" y1="34.389714" x2="126.8755334" y2="34.389714" style="fill:none;stroke:rgb(68,68,68);stroke-width:0.6870879;stroke-linecap:round;stroke-linejoin:round" />
<line x1="148.3966674" y1="53.5147603" x2="161.9381641" y2="57.915833" style="fill:none;stroke:rgb(68,68,68);stroke-width:0.6870879;stroke-linecap:round;stroke-linejoin:round" />
<line x1="161.9381641" y1="57.915833" x2="172.5031342" y2="43.3753845" style="fill:none;stroke:rgb(68,68,68);stroke-width:0.6870879;stroke-linecap:round;stroke-linejoin:round" />
<line x1="172.5031342" y1="43.3753845" x2="164.5085179" y2="32.3741331" style="fill:none;stroke:rgb(68,68,68);stroke-width:0.6870879;stroke-linecap:round;stroke-linejoin:round" />
<line x1="144.8468743" y1="34.389714" x2="158.3729243" y2="29.9953855" style="fill:none;stroke:rgb(68,68,68);stroke-width:0.6870879;stroke-linecap:round;stroke-linejoin:round" />
<line x1="172.5031342" y1="43.3753845" x2="188.158895" y2="52.1976791" style="fill:none;stroke:rgb(68,68,68);stroke-width:0.6870879;stroke-linecap:round;stroke-linejoin:round" />
<line x1="172.5031342" y1="43.3753845" x2="188.158895" y2="34.5530898" style="fill:none;stroke:rgb(68,68,68);stroke-width:0.6870879;stroke-linecap:round;stroke-linejoin:round" />
<line x1="162.2648854" y1="57.8096465" x2="161.6114427" y2="58.0220195" style="fill:none;stroke:rgb(68,68,68);stroke-width:0.6870879;stroke-linecap:round;stroke-linejoin:round" />
<line x1="163.4629496" y1="60.569706" x2="162.2649712" y2="60.9590566" style="fill:none;stroke:rgb(68,68,68);stroke-width:0.6870879;stroke-linecap:round;stroke-linejoin:round" />
<line x1="164.6610138" y1="63.3297655" x2="162.9184997" y2="63.8960937" style="fill:none;stroke:rgb(68,68,68);stroke-width:0.6870879;stroke-linecap:round;stroke-linejoin:round" />
<line x1="165.8590779" y1="66.0898251" x2="163.5720283" y2="66.8331308" style="fill:none;stroke:rgb(68,68,68);stroke-width:0.6870879;stroke-linecap:round;stroke-linejoin:round" />
<line x1="167.0571421" y1="68.8498846" x2="164.2255568" y2="69.7701678" style="fill:none;stroke:rgb(68,68,68);stroke-width:0.6870879;stroke-linecap:round;stroke-linejoin:round" />
<line x1="168.2552063" y1="71.6099441" x2="164.8790853" y2="72.7072049" style="fill:none;stroke:rgb(68,68,68);stroke-width:0.6870879;stroke-linecap:round;stroke-linejoin:round" />
<line x1="169.4532704" y1="74.3700036" x2="165.5326139" y2="75.644242" style="fill:none;stroke:rgb(68,68,68);stroke-width:0.6870879;stroke-linecap:round;stroke-linejoin:round" />
<line x1="167.4929422" y1="75.0071228" x2="180.9952699" y2="77.8769322" style="fill:none;stroke:rgb(68,68,68);stroke-width:0.6870879;stroke-linecap:round;stroke-linejoin:round" />
<line x1="167.4929422" y1="75.0071228" x2="158.3997571" y2="85.1049887" style="fill:none;stroke:rgb(68,68,68);stroke-width:0.6870879;stroke-linecap:round;stroke-linejoin:round" />
<line x1="168.647107" y1="78.5595308" x2="160.8035913" y2="87.2696549" style="fill:none;stroke:rgb(68,68,68);stroke-width:0.6870879;stroke-linecap:round;stroke-linejoin:round" />
<path d="M126.7037666,34.6872348 L127.0473001,34.0921932 L115.5882285,25.9309937 L114.7472238,27.3877158 L113.9062191,28.8444379 Z" style="fill:rgb(68,68,68);stroke:none" />
<line x1="107.8783138" y1="27.3862545" x2="95.7491709" y2="34.389714" style="fill:none;stroke:rgb(68,68,68);stroke-width:0.6870879;stroke-linecap:round;stroke-linejoin:round" />
<line x1="97.3665916" y1="33.455803" x2="97.3665916" y2="47.9245995" style="fill:none;stroke:rgb(68,68,68);stroke-width:0.6870879;stroke-linecap:round;stroke-linejoin:round" />
<line x1="94.1317502" y1="33.4559337" x2="94.1317502" y2="47.9245995" style="fill:none;stroke:rgb(68,68,68);stroke-width:0.6870879;stroke-linecap:round;stroke-linejoin:round" />
<line x1="95.7491709" y1="34.389714" x2="80.1849005" y2="25.4040436" style="fill:none;stroke:rgb(68,68,68);stroke-width:0.6870879;stroke-linecap:round;stroke-linejoin:round" />
<line x1="80.1849005" y1="25.4040436" x2="64.6206301" y2="34.389714" style="fill:none;stroke:rgb(68,68,68);stroke-width:0.6870879;stroke-linecap:round;stroke-linejoin:round" />
<path d="M79.8413566,25.4040436 L80.5284445,25.4040436 L81.7964645,12.1376068 L80.1849005,12.1376068 L78.5733366,12.1376068 Z" style="fill:rgb(68,68,68);stroke:none" />
<line x1="64.6206301" y1="34.389714" x2="49.0585381" y2="25.4040436" style="fill:none;stroke:rgb(68,68,68);stroke-width:0.6870879;stroke-linecap:round;stroke-linejoin:round" />
<line x1="61.3857888" y1="36.2572578" x2="49.0584249" y2="29.139344" style="fill:none;stroke:rgb(68,68,68);stroke-width:0.6870879;stroke-linecap:round;stroke-linejoin:round" />
<line x1="49.0585381" y1="25.4040436" x2="33.4942677" y2="34.389714" style="fill:none;stroke:rgb(68,68,68);stroke-width:0.6870879;stroke-linecap:round;stroke-linejoin:round" />
<line x1="33.4942677" y1="34.389714" x2="33.4942677" y2="52.3610549" style="fill:none;stroke:rgb(68,68,68);stroke-width:0.6870879;stroke-linecap:round;stroke-linejoin:round" />
<line x1="36.729109" y1="36.2573885" x2="36.729109" y2="50.4933804" style="fill:none;stroke:rgb(68,68,68);stroke-width:0.6870879;stroke-linecap:round;stroke-linejoin:round" />
<line x1="33.4942677" y1="52.3610549" x2="49.0585381" y2="61.3467254" style="fill:none;stroke:rgb(68,68,68);stroke-width:0.6870879;stroke-linecap:round;stroke-linejoin:round" />
<line x1="49.0585381" y1="61.3467254" x2="64.6206301" y2="52.3610549" style="fill:none;stroke:rgb(68,68,68);stroke-width:0.6870879;stroke-linecap:round;stroke-linejoin:round" />
<line x1="49.0584249" y1="57.6114249" x2="61.3857888" y2="50.4935111" style="fill:none;stroke:rgb(68,68,68);stroke-width:0.6870879;stroke-linecap:round;stroke-linejoin:round" />
<line x1="64.6206301" y1="34.389714" x2="64.6206301" y2="52.3610549" style="fill:none;stroke:rgb(68,68,68);stroke-width:0.6870879;stroke-linecap:round;stroke-linejoin:round" />
<line x1="33.4942677" y1="52.3610549" x2="21.6118532" y2="59.2210912" style="fill:none;stroke:rgb(68,68,68);stroke-width:0.6870879;stroke-linecap:round;stroke-linejoin:round" />
<line x1="129.1627156" y1="52.3610549" x2="118.4043766" y2="63.1212383" style="fill:none;stroke:rgb(68,68,68);stroke-width:0.6870879;stroke-linecap:round;stroke-linejoin:round" />
<line x1="126.8755334" y1="50.0734806" x2="116.1168023" y2="60.8340561" style="fill:none;stroke:rgb(68,68,68);stroke-width:0.6870879;stroke-linecap:round;stroke-linejoin:round" />
<line x1="144.5033303" y1="34.389714" x2="145.1904182" y2="34.389714" style="fill:none;stroke:rgb(68,68,68);stroke-width:0.6870879;stroke-linecap:round;stroke-linejoin:round" />
<line x1="144.2579418" y1="31.8223796" x2="145.4358067" y2="31.8223796" style="fill:none;stroke:rgb(68,68,68);stroke-width:0.6870879;stroke-linecap:round;stroke-linejoin:round" />
<line x1="144.0125533" y1="29.2550452" x2="145.6811953" y2="29.2550452" style="fill:none;stroke:rgb(68,68,68);stroke-width:0.6870879;stroke-linecap:round;stroke-linejoin:round" />
<line x1="143.7671647" y1="26.6877108" x2="145.9265838" y2="26.6877108" style="fill:none;stroke:rgb(68,68,68);stroke-width:0.6870879;stroke-linecap:round;stroke-linejoin:round" />
<line x1="143.5217762" y1="24.1203764" x2="146.1719723" y2="24.1203764" style="fill:none;stroke:rgb(68,68,68);stroke-width:0.6870879;stroke-linecap:round;stroke-linejoin:round" />
<line x1="143.2763877" y1="21.5530419" x2="146.4173609" y2="21.5530419" style="fill:none;stroke:rgb(68,68,68);stroke-width:0.6870879;stroke-linecap:round;stroke-linejoin:round" />
<path d="M147.0897819,55.3009223 L146.1223305,55.3009223 L143.3344912,50.0411461 L143.3344912,55.3009223 L142.6039667,55.3009223 L142.6039667,49.4211875 L143.8162424,49.4211875 L146.3592574,54.2229051 L146.3592574,49.4211875 L147.0897819,49.4211875 Z" style="fill:rgb(68,68,68);stroke:none" />
<path d="M164.2047643,30.0987498 Q164.2047643,30.4422937 164.0448387,30.7779401 Q163.8849131,31.1135865 163.5966521,31.3465646 Q163.2807496,31.5992865 162.8602044,31.7414427 Q162.4396592,31.8835988 161.8473421,31.8835988 Q161.2115884,31.8835988 160.70417,31.7651353 Q160.1967517,31.6466719 159.6715638,31.4136938 L159.6715638,30.4343962 L159.7268467,30.4343962 Q160.173059,30.8055816 160.7574785,31.0069694 Q161.3418981,31.2083572 161.8552397,31.2083572 Q162.5818154,31.2083572 162.9865654,30.9358913 Q163.3913154,30.6634255 163.3913154,30.2093156 Q163.3913154,29.8183863 163.1997996,29.6327936 Q163.0082837,29.4472009 162.6173544,29.3445326 Q162.3211958,29.265557 161.9756775,29.2142228 Q161.6301591,29.1628887 161.2431786,29.0839131 Q160.46132,28.9180643 160.0842114,28.517263 Q159.7071028,28.1164617 159.7071028,27.4728104 Q159.7071028,26.7343884 160.3310102,26.2625091 Q160.9549176,25.7906297 161.9144714,25.7906297 Q162.53443,25.7906297 163.0517203,25.9090932 Q163.5690106,26.0275566 163.9678375,26.201303 L163.9678375,27.1253177 L163.9125545,27.1253177 Q163.5769082,26.8410055 163.030002,26.6534384 Q162.4830958,26.4658713 161.9105226,26.4658713 Q161.2826664,26.4658713 160.9016091,26.7264908 Q160.5205517,26.9871104 160.5205517,27.3977836 Q160.5205517,27.7650202 160.7100932,27.9743056 Q160.8996347,28.183591 161.3774372,28.2941569 Q161.6301591,28.3494398 162.0961153,28.4284154 Q162.5620714,28.507391 162.8858715,28.5903154 Q163.5413691,28.7640618 163.8730667,29.1155033 Q164.2047643,29.4669448 164.2047643,30.0987498 Z" style="fill:rgb(68,68,68);stroke:none" />
<path d="M187.0582139,76.4783575 Q187.417553,76.8732356 187.6090689,77.4458088 Q187.8005848,78.0183821 187.8005848,78.7449578 Q187.8005848,79.4715335 187.6051201,80.0460811 Q187.4096555,80.6206287 187.0582139,81.0036605 Q186.6949261,81.4024873 186.1993541,81.6038752 Q185.7037821,81.805263 185.0680283,81.805263 Q184.4480697,81.805263 183.9406514,81.5999264 Q183.433233,81.3945898 183.0778427,81.0036605 Q182.7224525,80.6127312 182.5309366,80.0441067 Q182.3394207,79.4754822 182.3394207,78.7449578 Q182.3394207,78.0262796 182.5289622,77.4556808 Q182.7185037,76.8850819 183.0817915,76.4783575 Q183.4292842,76.091377 183.9446002,75.8860403 Q184.4599161,75.6807037 185.0680283,75.6807037 Q185.6998333,75.6807037 186.2033029,75.8880147 Q186.7067724,76.0953257 187.0582139,76.4783575 Z M186.9871359,78.7449578 Q186.9871359,77.5998113 186.4737944,76.9778783 Q185.9604528,76.3559453 185.0719771,76.3559453 Q184.1756038,76.3559453 183.6642367,76.9778783 Q183.1528696,77.5998113 183.1528696,78.7449578 Q183.1528696,79.9019506 183.6741087,80.515986 Q184.1953478,81.1300215 185.0719771,81.1300215 Q185.9486065,81.1300215 186.4678712,80.515986 Q186.9871359,79.9019506 186.9871359,78.7449578 Z" style="fill:rgb(68,68,68);stroke:none" />
<path d="M192.9728955,81.6828508 L192.1910369,81.6828508 L192.1910369,78.8041895 L189.2570926,78.8041895 L189.2570926,81.6828508 L188.475234,81.6828508 L188.475234,75.8031159 L189.2570926,75.8031159 L189.2570926,78.109204 L192.1910369,78.109204 L192.1910369,75.8031159 L192.9728955,75.8031159 Z" style="fill:rgb(68,68,68);stroke:none" />
<path d="M158.6564313,87.1802593 Q159.0157704,87.5751374 159.2072862,88.1477106 Q159.3988021,88.7202838 159.3988021,89.4468595 Q159.3988021,90.1734352 159.2033375,90.7479829 Q159.0078728,91.3225305 158.6564313,91.7055622 Q158.2931434,92.1043891 157.7975714,92.3057769 Q157.3019994,92.5071648 156.6662457,92.5071648 Q156.0462871,92.5071648 155.5388687,92.3018282 Q155.0314504,92.0964916 154.6760601,91.7055622 Q154.3206698,91.3146329 154.1291539,90.7460085 Q153.937638,90.177384 153.937638,89.4468595 Q153.937638,88.7281814 154.1271795,88.1575825 Q154.316721,87.5869837 154.6800089,87.1802593 Q155.0275016,86.7932787 155.5428175,86.5879421 Q156.0581334,86.3826055 156.6662457,86.3826055 Q157.2980506,86.3826055 157.8015202,86.5899165 Q158.3049898,86.7972275 158.6564313,87.1802593 Z M158.5853532,89.4468595 Q158.5853532,88.301713 158.0720117,87.67978 Q157.5586702,87.057847 156.6701945,87.057847 Q155.7738212,87.057847 155.2624541,87.67978 Q154.7510869,88.301713 154.7510869,89.4468595 Q154.7510869,90.6038524 155.272326,91.2178878 Q155.7935651,91.8319232 156.6701945,91.8319232 Q157.5468238,91.8319232 158.0660885,91.2178878 Q158.5853532,90.6038524 158.5853532,89.4468595 Z" style="fill:rgb(68,68,68);stroke:none" />
<path d="M113.5541705,28.343911 L112.5867192,28.343911 L109.7988799,23.0841347 L109.7988799,28.343911 L109.0683554,28.343911 L109.0683554,22.4641761 L110.2806311,22.4641761 L112.8236461,27.2658938 L112.8236461,22.4641761 L113.5541705,22.4641761 Z" style="fill:rgb(68,68,68);stroke:none" />
<path d="M113.5660169,21.7895269 L112.7841583,21.7895269 L112.7841583,18.9108656 L109.850214,18.9108656 L109.850214,21.7895269 L109.0683554,21.7895269 L109.0683554,15.9097921 L109.850214,15.9097921 L109.850214,18.2158801 L112.7841583,18.2158801 L112.7841583,15.9097921 L113.5660169,15.9097921 Z" style="fill:rgb(68,68,68);stroke:none" />
<path d="M97.7373821,50.096429 Q98.0967212,50.4913071 98.2882371,51.0638804 Q98.4797529,51.6364536 98.4797529,52.3630293 Q98.4797529,53.089605 98.2842883,53.6641526 Q98.0888236,54.2387003 97.7373821,54.621732 Q97.3740943,55.0205589 96.8785223,55.2219467 Q96.3829503,55.4233346 95.7471965,55.4233346 Q95.1272379,55.4233346 94.6198196,55.2179979 Q94.1124012,55.0126613 93.7570109,54.621732 Q93.4016206,54.2308027 93.2101048,53.6621782 Q93.0185889,53.0935538 93.0185889,52.3630293 Q93.0185889,51.6443512 93.2081304,51.0737523 Q93.3976718,50.5031535 93.7609597,50.096429 Q94.1084524,49.7094485 94.6237683,49.5041119 Q95.1390843,49.2987753 95.7471965,49.2987753 Q96.3790015,49.2987753 96.882471,49.5060863 Q97.3859406,49.7133973 97.7373821,50.096429 Z M97.6663041,52.3630293 Q97.6663041,51.2178828 97.1529625,50.5959498 Q96.639621,49.9740168 95.7511453,49.9740168 Q94.854772,49.9740168 94.3434049,50.5959498 Q93.8320378,51.2178828 93.8320378,52.3630293 Q93.8320378,53.5200221 94.3532768,54.1340576 Q94.8745159,54.748093 95.7511453,54.748093 Q96.6277747,54.748093 97.1470394,54.1340576 Q97.6663041,53.5200221 97.6663041,52.3630293 Z" style="fill:rgb(68,68,68);stroke:none" />
<path d="M82.4278081,10.3725701 L81.4603568,10.3725701 L78.6725174,5.1127938 L78.6725174,10.3725701 L77.9419929,10.3725701 L77.9419929,4.4928352 L79.1542687,4.4928352 L81.6972836,9.2945529 L81.6972836,4.4928352 L82.4278081,4.4928352 Z" style="fill:rgb(68,68,68);stroke:none" />
<path d="M87.6001188,10.3725701 L86.8182602,10.3725701 L86.8182602,7.4939088 L83.884316,7.4939088 L83.884316,10.3725701 L83.1024573,10.3725701 L83.1024573,4.4928352 L83.884316,4.4928352 L83.884316,6.7989233 L86.8182602,6.7989233 L86.8182602,4.4928352 L87.6001188,4.4928352 Z" style="fill:rgb(68,68,68);stroke:none" />
<path d="M90.6629908,12.1732142 L88.2747681,12.1732142 L88.2747681,11.6780371 Q88.5235413,11.4648029 88.7734991,11.2515687 Q89.0234569,11.0383345 89.2390604,10.8274696 Q89.6939599,10.3867857 89.862178,10.1273508 Q90.0303961,9.8679159 90.0303961,9.5670188 Q90.0303961,9.2921836 89.849147,9.1369965 Q89.667898,8.9818094 89.3433082,8.9818094 Q89.1277048,8.9818094 88.8765623,9.057626 Q88.6254198,9.1334426 88.3861237,9.2898143 L88.362431,9.2898143 L88.362431,8.7922679 Q88.5306491,8.7093435 88.8114074,8.6406347 Q89.0921657,8.571926 89.3551545,8.571926 Q89.897717,8.571926 90.205722,8.8337301 Q90.5137269,9.0955343 90.5137269,9.5433261 Q90.5137269,9.7447139 90.4627876,9.9188551 Q90.4118483,10.0929964 90.312339,10.2493681 Q90.2199376,10.3962628 90.095551,10.5384189 Q89.9711644,10.680575 89.7934692,10.8535316 Q89.5399575,11.1023048 89.2698609,11.3356778 Q88.9997643,11.5690507 88.7652067,11.7680693 L90.6629908,11.7680693 Z" style="fill:rgb(68,68,68);stroke:none" />
<path d="M19.9182085,59.0820995 Q20.2775475,59.4769776 20.4690634,60.0495508 Q20.6605793,60.6221241 20.6605793,61.3486998 Q20.6605793,62.0752755 20.4651146,62.6498231 Q20.26965,63.2243707 19.9182085,63.6074025 Q19.5549206,64.0062293 19.0593486,64.2076172 Q18.5637766,64.409005 17.9280229,64.409005 Q17.3080643,64.409005 16.8006459,64.2036684 Q16.2932276,63.9983318 15.9378373,63.6074025 Q15.582447,63.2164732 15.3909311,62.6478487 Q15.1994152,62.0792242 15.1994152,61.3486998 Q15.1994152,60.6300216 15.3889567,60.0594228 Q15.5784982,59.4888239 15.9417861,59.0820995 Q16.2892788,58.695119 16.8045947,58.4897823 Q17.3199106,58.2844457 17.9280229,58.2844457 Q18.5598278,58.2844457 19.0632974,58.4917567 Q19.566767,58.6990677 19.9182085,59.0820995 Z M19.8471304,61.3486998 Q19.8471304,60.2035533 19.3337889,59.5816203 Q18.8204474,58.9596873 17.9319717,58.9596873 Q17.0355984,58.9596873 16.5242312,59.5816203 Q16.0128641,60.2035533 16.0128641,61.3486998 Q16.0128641,62.5056926 16.5341032,63.119728 Q17.0553423,63.7337635 17.9319717,63.7337635 Q18.808601,63.7337635 19.3278657,63.119728 Q19.8471304,62.5056926 19.8471304,61.3486998 Z" style="fill:rgb(68,68,68);stroke:none" />
<path d="M14.524766,64.2865928 L13.7429074,64.2865928 L13.7429074,61.4079315 L10.8089631,61.4079315 L10.8089631,64.2865928 L10.0271045,64.2865928 L10.0271045,58.4068579 L10.8089631,58.4068579 L10.8089631,60.712946 L13.7429074,60.712946 L13.7429074,58.4068579 L14.524766,58.4068579 Z" style="fill:rgb(68,68,68);stroke:none" />
<path d="M116.157462,62.80489 Q116.516801,63.1997681 116.7083169,63.7723413 Q116.8998328,64.3449146 116.8998328,65.0714903 Q116.8998328,65.798066 116.7043681,66.3726136 Q116.5089035,66.9471612 116.157462,67.330193 Q115.7941741,67.7290198 115.2986021,67.9304077 Q114.8030301,68.1317955 114.1672764,68.1317955 Q113.5473178,68.1317955 113.0398994,67.9264589 Q112.532481,67.7211223 112.1770908,67.330193 Q111.8217005,66.9392637 111.6301846,66.3706392 Q111.4386687,65.8020147 111.4386687,65.0714903 Q111.4386687,64.3528121 111.6282102,63.7822133 Q111.8177517,63.2116144 112.1810395,62.80489 Q112.5285323,62.4179095 113.0438482,62.2125728 Q113.5591641,62.0072362 114.1672764,62.0072362 Q114.7990813,62.0072362 115.3025509,62.2145472 Q115.8060205,62.4218582 116.157462,62.80489 Z M116.0863839,65.0714903 Q116.0863839,63.9263438 115.5730424,63.3044108 Q115.0597009,62.6824778 114.1712251,62.6824778 Q113.2748519,62.6824778 112.7634847,63.3044108 Q112.2521176,63.9263438 112.2521176,65.0714903 Q112.2521176,66.2284831 112.7733567,66.8425185 Q113.2945958,67.456554 114.1712251,67.456554 Q115.0478545,67.456554 115.5671192,66.8425185 Q116.0863839,66.2284831 116.0863839,65.0714903 Z" style="fill:rgb(68,68,68);stroke:none" />
<path d="M147.095705,19.3582405 L146.3138464,19.3582405 L146.3138464,16.4795792 L143.3799021,16.4795792 L143.3799021,19.3582405 L142.5980435,19.3582405 L142.5980435,13.4785057 L143.3799021,13.4785057 L143.3799021,15.7845938 L146.3138464,15.7845938 L146.3138464,13.4785057 L147.095705,13.4785057 Z" style="fill:rgb(68,68,68);stroke:none" />
</svg>
