<?xml version="1.0" encoding="UTF-8"?>
<!DOCTYPE svg PUBLIC "-//W3C//DTD SVG 1.1//EN" "http://www.w3.org/Graphics/SVG/1.1/DTD/svg11.dtd">
<svg version="1.2" xmlns="http://www.w3.org/2000/svg" xmlns:xlink="http://www.w3.org/1999/xlink" x="0mm" y="0mm" width="126mm" height="135mm" viewBox="0 0 126 135">
<style type="text/css"><![CDATA[
text { font:12px Dialog; }
]]></style>
<line x1="34.0935582" y1="30.5178768" x2="34.7051727" y2="30.8651149" style="fill:none;stroke:rgb(68,68,68);stroke-width:0.7033111;stroke-linecap:round;stroke-linejoin:round" />
<line x1="35.1778887" y1="28.0992144" x2="36.2263706" y2="28.6944797" style="fill:none;stroke:rgb(68,68,68);stroke-width:0.7033111;stroke-linecap:round;stroke-linejoin:round" />
<line x1="36.2622192" y1="25.680552" x2="37.7475686" y2="26.5238446" style="fill:none;stroke:rgb(68,68,68);stroke-width:0.7033111;stroke-linecap:round;stroke-linejoin:round" />
<line x1="37.3465496" y1="23.2618897" x2="39.2687666" y2="24.3532094" style="fill:none;stroke:rgb(68,68,68);stroke-width:0.7033111;stroke-linecap:round;stroke-linejoin:round" />
<line x1="38.4308801" y1="20.8432273" x2="40.7899645" y2="22.1825742" style="fill:none;stroke:rgb(68,68,68);stroke-width:0.7033111;stroke-linecap:round;stroke-linejoin:round" />
<line x1="39.5152106" y1="18.4245649" x2="42.3111625" y2="20.0119391" style="fill:none;stroke:rgb(68,68,68);stroke-width:0.7033111;stroke-linecap:round;stroke-linejoin:round" />
<line x1="74.0072201" y1="74.9459824" x2="89.5881527" y2="65.1666505" style="fill:none;stroke:rgb(68,68,68);stroke-width:0.7033111;stroke-linecap:round;stroke-linejoin:round" />
<line x1="24.8764457" y1="39.2467389" x2="22.4166012" y2="25.1421575" style="fill:none;stroke:rgb(68,68,68);stroke-width:0.7033111;stroke-linecap:round;stroke-linejoin:round" />
<line x1="74.0072201" y1="74.9459824" x2="74.6872694" y2="93.32961" style="fill:none;stroke:rgb(68,68,68);stroke-width:0.7033111;stroke-linecap:round;stroke-linejoin:round" />
<line x1="25.0551083" y1="23.4030407" x2="34.3993654" y2="30.6914958" style="fill:none;stroke:rgb(68,68,68);stroke-width:0.7033111;stroke-linecap:round;stroke-linejoin:round" />
<line x1="89.5881527" y1="65.1666505" x2="105.8312974" y2="73.8400661" style="fill:none;stroke:rgb(68,68,68);stroke-width:0.7033111;stroke-linecap:round;stroke-linejoin:round" />
<line x1="92.8208934" y1="63.1391338" x2="105.6978456" y2="70.0150904" style="fill:none;stroke:rgb(68,68,68);stroke-width:0.7033111;stroke-linecap:round;stroke-linejoin:round" />
<line x1="34.3993654" y1="30.6914958" x2="53.7149951" y2="31.0950661" style="fill:none;stroke:rgb(68,68,68);stroke-width:0.7033111;stroke-linecap:round;stroke-linejoin:round" />
<line x1="105.8312974" y1="73.8400661" x2="121.4010817" y2="64.0741123" style="fill:none;stroke:rgb(68,68,68);stroke-width:0.7033111;stroke-linecap:round;stroke-linejoin:round" />
<line x1="53.7149951" y1="31.0950661" x2="58.6782401" y2="48.9435729" style="fill:none;stroke:rgb(68,68,68);stroke-width:0.7033111;stroke-linecap:round;stroke-linejoin:round" />
<line x1="121.4010817" y1="64.0741123" x2="120.7344104" y2="45.6704177" style="fill:none;stroke:rgb(68,68,68);stroke-width:0.7033111;stroke-linecap:round;stroke-linejoin:round" />
<line x1="118.0228559" y1="62.2843809" x2="117.4948871" y2="47.7096183" style="fill:none;stroke:rgb(68,68,68);stroke-width:0.7033111;stroke-linecap:round;stroke-linejoin:round" />
<line x1="24.8764457" y1="39.2467389" x2="13.0391286" y2="55.3873187" style="fill:none;stroke:rgb(68,68,68);stroke-width:0.7033111;stroke-linecap:round;stroke-linejoin:round" />
<line x1="120.7344104" y1="45.6704177" x2="104.3597153" y2="37.0750405" style="fill:none;stroke:rgb(68,68,68);stroke-width:0.7033111;stroke-linecap:round;stroke-linejoin:round" />
<line x1="34.3993654" y1="30.6914958" x2="27.1239528" y2="46.8543723" style="fill:none;stroke:rgb(68,68,68);stroke-width:0.7033111;stroke-linecap:round;stroke-linejoin:round" />
<line x1="104.3597153" y1="37.0750405" x2="88.856821" y2="46.890047" style="fill:none;stroke:rgb(68,68,68);stroke-width:0.7033111;stroke-linecap:round;stroke-linejoin:round" />
<line x1="104.5145989" y1="40.8960274" x2="92.2417586" y2="48.6660609" style="fill:none;stroke:rgb(68,68,68);stroke-width:0.7033111;stroke-linecap:round;stroke-linejoin:round" />
<line x1="88.856821" y1="46.890047" x2="89.5881527" y2="65.1666505" style="fill:none;stroke:rgb(68,68,68);stroke-width:0.7033111;stroke-linecap:round;stroke-linejoin:round" />
<line x1="13.0391286" y1="55.3873187" x2="27.1239528" y2="46.8543723" style="fill:none;stroke:rgb(68,68,68);stroke-width:0.7033111;stroke-linecap:round;stroke-linejoin:round" />
<line x1="74.6872694" y1="93.32961" x2="59.1152554" y2="103.0375924" style="fill:none;stroke:rgb(68,68,68);stroke-width:0.7033111;stroke-linecap:round;stroke-linejoin:round" />
<line x1="74.8330594" y1="97.1407091" x2="62.494287" y2="104.8330079" style="fill:none;stroke:rgb(68,68,68);stroke-width:0.7033111;stroke-linecap:round;stroke-linejoin:round" />
<line x1="62.0147148" y1="68.6006878" x2="74.0072201" y2="74.9459824" style="fill:none;stroke:rgb(68,68,68);stroke-width:0.7033111;stroke-linecap:round;stroke-linejoin:round" />
<line x1="59.1152554" y1="103.0375924" x2="59.786386" y2="121.4056123" style="fill:none;stroke:rgb(68,68,68);stroke-width:0.7033111;stroke-linecap:round;stroke-linejoin:round" />
<line x1="58.6782401" y1="48.9435729" x2="47.0282153" y2="39.2467389" style="fill:none;stroke:rgb(68,68,68);stroke-width:0.7033111;stroke-linecap:round;stroke-linejoin:round" />
<line x1="59.786386" y1="121.4056123" x2="76.060746" y2="130.0277455" style="fill:none;stroke:rgb(68,68,68);stroke-width:0.7033111;stroke-linecap:round;stroke-linejoin:round" />
<line x1="63.0256047" y1="119.3745222" x2="75.9142069" y2="126.2028856" style="fill:none;stroke:rgb(68,68,68);stroke-width:0.7033111;stroke-linecap:round;stroke-linejoin:round" />
<line x1="58.6782401" y1="48.9435729" x2="58.3140336" y2="62.0351386" style="fill:none;stroke:rgb(68,68,68);stroke-width:0.7033111;stroke-linecap:round;stroke-linejoin:round" />
<line x1="76.060746" y1="130.0277455" x2="91.6907314" y2="120.1458489" style="fill:none;stroke:rgb(68,68,68);stroke-width:0.7033111;stroke-linecap:round;stroke-linejoin:round" />
<line x1="47.0282153" y1="39.2467389" x2="24.8764457" y2="39.2467389" style="fill:none;stroke:rgb(68,68,68);stroke-width:0.7033111;stroke-linecap:round;stroke-linejoin:round" />
<line x1="91.6907314" y1="120.1458489" x2="90.943792" y2="101.8135036" style="fill:none;stroke:rgb(68,68,68);stroke-width:0.7033111;stroke-linecap:round;stroke-linejoin:round" />
<line x1="88.3043796" y1="118.369327" x2="87.7133129" y2="103.8626079" style="fill:none;stroke:rgb(68,68,68);stroke-width:0.7033111;stroke-linecap:round;stroke-linejoin:round" />
<line x1="90.943792" y1="101.8135036" x2="74.6872694" y2="93.32961" style="fill:none;stroke:rgb(68,68,68);stroke-width:0.7033111;stroke-linecap:round;stroke-linejoin:round" />
<path d="M24.7825787,39.5856351 L24.9703126,38.9078427 L11.0260673,33.5923393 L10.5583617,35.2809387 L10.0906561,36.9695381 Z" style="fill:rgb(68,68,68);stroke:none" />
<line x1="19.1197414" y1="16.5318678" x2="12.1807057" y2="4.9722545" style="fill:none;stroke:rgb(68,68,68);stroke-width:0.7033111;stroke-linecap:round;stroke-linejoin:round" />
<path d="M58.5024176,48.6390272 L58.8540625,49.2481187 L71.9498045,43.2692524 L71.0891186,41.7784401 L70.2284327,40.2876278 Z" style="fill:rgb(68,68,68);stroke:none" />
<path d="M23.9459797,23.7564509 L22.9556853,23.7564509 L20.1020205,18.3724828 L20.1020205,23.7564509 L19.3542472,23.7564509 L19.3542472,17.737886 L20.5951467,17.737886 L23.1982063,22.65298 L23.1982063,17.737886 L23.9459797,17.737886 Z" style="fill:rgb(68,68,68);stroke:none" />
<path d="M60.2228688,64.2577045 Q60.5906924,64.6619063 60.7867303,65.2479989 Q60.9827682,65.8340915 60.9827682,66.5778229 Q60.9827682,67.3215542 60.7826883,67.9096678 Q60.5826084,68.4977814 60.2228688,68.8898572 Q59.8510031,69.298101 59.3437299,69.5042439 Q58.8364566,69.7103869 58.1856917,69.7103869 Q57.5510949,69.7103869 57.0316956,69.5002019 Q56.5122962,69.290017 56.1485146,68.8898572 Q55.784733,68.4896974 55.5886951,67.9076468 Q55.3926572,67.3255962 55.3926572,66.5778229 Q55.3926572,65.8421756 55.5866741,65.258104 Q55.780691,64.6740324 56.1525566,64.2577045 Q56.5082542,63.8615867 57.0357376,63.6514018 Q57.5632209,63.4412169 58.1856917,63.4412169 Q58.8324146,63.4412169 59.3477719,63.6534228 Q59.8631292,63.8656288 60.2228688,64.2577045 Z M60.1501125,66.5778229 Q60.1501125,65.4056376 59.6246501,64.7690198 Q59.0991878,64.132402 58.1897337,64.132402 Q57.2721956,64.132402 56.7487543,64.7690198 Q56.225313,65.4056376 56.225313,66.5778229 Q56.225313,67.7621342 56.7588593,68.390668 Q57.2924057,69.0192018 58.1897337,69.0192018 Q59.0870617,69.0192018 59.6185871,68.390668 Q60.1501125,67.7621342 60.1501125,66.5778229 Z" style="fill:rgb(68,68,68);stroke:none" />
<path d="M9.2027769,37.2771687 L8.4024573,37.2771687 L8.4024573,34.3305375 L5.3992379,34.3305375 L5.3992379,37.2771687 L4.5989183,37.2771687 L4.5989183,31.2586038 L5.3992379,31.2586038 L5.3992379,33.6191423 L8.4024573,33.6191423 L8.4024573,31.2586038 L9.2027769,31.2586038 Z" style="fill:rgb(68,68,68);stroke:none" />
<path d="M45.8206443,17.6382369 L45.0203247,17.6382369 L45.0203247,14.6916057 L42.0171053,14.6916057 L42.0171053,17.6382369 L41.2167857,17.6382369 L41.2167857,11.619672 L42.0171053,11.619672 L42.0171053,13.9802106 L45.0203247,13.9802106 L45.0203247,11.619672 L45.8206443,11.619672 Z" style="fill:rgb(68,68,68);stroke:none" />
<path d="M76.9111602,42.7554674 L76.1108406,42.7554674 L76.1108406,39.8088362 L73.1076212,39.8088362 L73.1076212,42.7554674 L72.3073016,42.7554674 L72.3073016,36.7369025 L73.1076212,36.7369025 L73.1076212,39.0974411 L76.1108406,39.0974411 L76.1108406,36.7369025 L76.9111602,36.7369025 Z" style="fill:rgb(68,68,68);stroke:none" />
</svg>
