<?xml version="1.0" encoding="UTF-8"?>
<!DOCTYPE svg PUBLIC "-//W3C//DTD SVG 1.1//EN" "http://www.w3.org/Graphics/SVG/1.1/DTD/svg11.dtd">
<svg version="1.2" xmlns="http://www.w3.org/2000/svg" xmlns:xlink="http://www.w3.org/1999/xlink" x="0mm" y="0mm" width="219mm" height="239mm" viewBox="0 0 219 239">
<style type="text/css"><![CDATA[
text { font:12px Dialog; }
]]></style>
<line x1="59.0616051" y1="24.6402439" x2="89.8177638" y2="24.9954859" style="fill:none;stroke:rgb(68,68,68);stroke-width:0.7284427;stroke-linecap:round;stroke-linejoin:round" />
<line x1="52.6990717" y1="28.9744783" x2="45.7004558" y2="41.0969292" style="fill:none;stroke:rgb(68,68,68);stroke-width:0.7284427;stroke-linecap:round;stroke-linejoin:round" />
<line x1="89.8177638" y1="24.9954859" x2="99.3442202" y2="41.4964631" style="fill:none;stroke:rgb(68,68,68);stroke-width:0.7284427;stroke-linecap:round;stroke-linejoin:round" />
<line x1="99.3442202" y1="41.4964631" x2="89.8177638" y2="57.9951307" style="fill:none;stroke:rgb(68,68,68);stroke-width:0.7284427;stroke-linecap:round;stroke-linejoin:round" />
<line x1="89.8177638" y1="57.9951307" x2="103.2910599" y2="71.4684268" style="fill:none;stroke:rgb(68,68,68);stroke-width:0.7284427;stroke-linecap:round;stroke-linejoin:round" />
<line x1="103.2910599" y1="71.4684268" x2="103.2910599" y2="90.5213395" style="fill:none;stroke:rgb(68,68,68);stroke-width:0.7284427;stroke-linecap:round;stroke-linejoin:round" />
<line x1="103.2910599" y1="90.5213395" x2="89.8177638" y2="103.9946355" style="fill:none;stroke:rgb(68,68,68);stroke-width:0.7284427;stroke-linecap:round;stroke-linejoin:round" />
<line x1="89.8177638" y1="103.9946355" x2="89.8177638" y2="123.0475482" style="fill:none;stroke:rgb(68,68,68);stroke-width:0.7284427;stroke-linecap:round;stroke-linejoin:round" />
<line x1="89.8177638" y1="123.0475482" x2="73.3190962" y2="132.5740046" style="fill:none;stroke:rgb(68,68,68);stroke-width:0.7284427;stroke-linecap:round;stroke-linejoin:round" />
<line x1="73.3190962" y1="132.5740046" x2="56.8181191" y2="123.0475482" style="fill:none;stroke:rgb(68,68,68);stroke-width:0.7284427;stroke-linecap:round;stroke-linejoin:round" />
<line x1="56.8181191" y1="123.0475482" x2="56.8181191" y2="108.6981145" style="fill:none;stroke:rgb(68,68,68);stroke-width:0.7284427;stroke-linecap:round;stroke-linejoin:round" />
<line x1="52.9155289" y1="101.7415656" x2="40.317142" y2="94.4681792" style="fill:none;stroke:rgb(68,68,68);stroke-width:0.7284427;stroke-linecap:round;stroke-linejoin:round" />
<line x1="40.317142" y1="94.4681792" x2="40.317142" y2="75.4152665" style="fill:none;stroke:rgb(68,68,68);stroke-width:0.7284427;stroke-linecap:round;stroke-linejoin:round" />
<line x1="40.317142" y1="75.4152665" x2="53.790438" y2="61.9419704" style="fill:none;stroke:rgb(68,68,68);stroke-width:0.7284427;stroke-linecap:round;stroke-linejoin:round" />
<line x1="53.790438" y1="61.9419704" x2="45.7004558" y2="41.0969292" style="fill:none;stroke:rgb(68,68,68);stroke-width:0.7284427;stroke-linecap:round;stroke-linejoin:round" />
<line x1="55.2269122" y1="20.0222532" x2="55.2269122" y2="5.5430395" style="fill:none;stroke:rgb(68,68,68);stroke-width:0.7284427;stroke-linecap:round;stroke-linejoin:round" />
<path d="M45.6062002,41.4487432 L45.7947114,40.7451153 L27.8620305,34.0553826 L27.2964969,36.1662664 L26.7309634,38.2771502 Z" style="fill:rgb(68,68,68);stroke:none" />
<path d="M53.8846936,61.5901565 L53.6961824,62.2937844 L67.4415249,67.421443 L67.8970135,65.7213077 L68.3525022,64.0211724 Z" style="fill:rgb(68,68,68);stroke:none" />
<path d="M40.1350368,75.7306946 L40.4992471,75.0998384 L28.594567,66.6212661 L27.7171955,68.1409797 L26.8398241,69.6606934 Z" style="fill:rgb(68,68,68);stroke:none" />
<path d="M73.6833175,132.5740046 L72.9548748,132.5740046 L71.1337682,151.6269173 L73.3190962,151.6269173 L75.5044242,151.6269173 Z" style="fill:rgb(68,68,68);stroke:none" />
<path d="M103.1968043,71.1166128 L103.3853155,71.8202407 L117.848197,69.3900527 L117.3928314,67.6903766 L116.9374657,65.9907004 Z" style="fill:rgb(68,68,68);stroke:none" />
<line x1="99.2499646" y1="41.1446491" x2="99.4384758" y2="41.848277" style="fill:none;stroke:rgb(68,68,68);stroke-width:0.7284427;stroke-linecap:round;stroke-linejoin:round" />
<line x1="102.2387447" y1="40.0296936" x2="102.5843486" y2="41.3196782" style="fill:none;stroke:rgb(68,68,68);stroke-width:0.7284427;stroke-linecap:round;stroke-linejoin:round" />
<line x1="105.2275249" y1="38.9147382" x2="105.7302214" y2="40.7910793" style="fill:none;stroke:rgb(68,68,68);stroke-width:0.7284427;stroke-linecap:round;stroke-linejoin:round" />
<line x1="108.2163051" y1="37.7997828" x2="108.8760942" y2="40.2624805" style="fill:none;stroke:rgb(68,68,68);stroke-width:0.7284427;stroke-linecap:round;stroke-linejoin:round" />
<line x1="111.2050852" y1="36.6848273" x2="112.021967" y2="39.7338816" style="fill:none;stroke:rgb(68,68,68);stroke-width:0.7284427;stroke-linecap:round;stroke-linejoin:round" />
<line x1="114.1938654" y1="35.5698719" x2="115.1678398" y2="39.2052828" style="fill:none;stroke:rgb(68,68,68);stroke-width:0.7284427;stroke-linecap:round;stroke-linejoin:round" />
<line x1="117.1826456" y1="34.4549164" x2="118.3137127" y2="38.676684" style="fill:none;stroke:rgb(68,68,68);stroke-width:0.7284427;stroke-linecap:round;stroke-linejoin:round" />
<line x1="103.473165" y1="71.1529987" x2="103.1089548" y2="71.7838549" style="fill:none;stroke:rgb(68,68,68);stroke-width:0.7284427;stroke-linecap:round;stroke-linejoin:round" />
<line x1="105.9605225" y1="72.2886152" x2="105.3361622" y2="73.3700831" style="fill:none;stroke:rgb(68,68,68);stroke-width:0.7284427;stroke-linecap:round;stroke-linejoin:round" />
<line x1="108.4478801" y1="73.4242317" x2="107.5633695" y2="74.9563112" style="fill:none;stroke:rgb(68,68,68);stroke-width:0.7284427;stroke-linecap:round;stroke-linejoin:round" />
<line x1="110.9352376" y1="74.5598482" x2="109.7905769" y2="76.5425393" style="fill:none;stroke:rgb(68,68,68);stroke-width:0.7284427;stroke-linecap:round;stroke-linejoin:round" />
<line x1="113.4225951" y1="75.6954648" x2="112.0177842" y2="78.1287675" style="fill:none;stroke:rgb(68,68,68);stroke-width:0.7284427;stroke-linecap:round;stroke-linejoin:round" />
<line x1="115.9099527" y1="76.8310813" x2="114.2449916" y2="79.7149956" style="fill:none;stroke:rgb(68,68,68);stroke-width:0.7284427;stroke-linecap:round;stroke-linejoin:round" />
<line x1="118.3973102" y1="77.9666978" x2="116.472199" y2="81.3012238" style="fill:none;stroke:rgb(68,68,68);stroke-width:0.7284427;stroke-linecap:round;stroke-linejoin:round" />
<line x1="120.8846677" y1="79.1023143" x2="118.6994063" y2="82.8874519" style="fill:none;stroke:rgb(68,68,68);stroke-width:0.7284427;stroke-linecap:round;stroke-linejoin:round" />
<line x1="40.4992471" y1="75.7306946" x2="40.1350368" y2="75.0998384" style="fill:none;stroke:rgb(68,68,68);stroke-width:0.7284427;stroke-linecap:round;stroke-linejoin:round" />
<line x1="38.2720397" y1="77.3169228" x2="37.6476793" y2="76.2354549" style="fill:none;stroke:rgb(68,68,68);stroke-width:0.7284427;stroke-linecap:round;stroke-linejoin:round" />
<line x1="36.0448324" y1="78.9031509" x2="35.1603218" y2="77.3710714" style="fill:none;stroke:rgb(68,68,68);stroke-width:0.7284427;stroke-linecap:round;stroke-linejoin:round" />
<line x1="33.817625" y1="80.4893791" x2="32.6729643" y2="78.506688" style="fill:none;stroke:rgb(68,68,68);stroke-width:0.7284427;stroke-linecap:round;stroke-linejoin:round" />
<line x1="31.5904176" y1="82.0756072" x2="30.1856067" y2="79.6423045" style="fill:none;stroke:rgb(68,68,68);stroke-width:0.7284427;stroke-linecap:round;stroke-linejoin:round" />
<line x1="29.3632103" y1="83.6618354" x2="27.6982492" y2="80.777921" style="fill:none;stroke:rgb(68,68,68);stroke-width:0.7284427;stroke-linecap:round;stroke-linejoin:round" />
<line x1="27.1360029" y1="85.2480635" x2="25.2108917" y2="81.9135375" style="fill:none;stroke:rgb(68,68,68);stroke-width:0.7284427;stroke-linecap:round;stroke-linejoin:round" />
<line x1="24.9087955" y1="86.8342917" x2="22.7235342" y2="83.0491541" style="fill:none;stroke:rgb(68,68,68);stroke-width:0.7284427;stroke-linecap:round;stroke-linejoin:round" />
<line x1="40.4992471" y1="94.7836073" x2="40.1350368" y2="94.1527511" style="fill:none;stroke:rgb(68,68,68);stroke-width:0.7284427;stroke-linecap:round;stroke-linejoin:round" />
<line x1="38.2720397" y1="96.3698355" x2="37.6476793" y2="95.2883676" style="fill:none;stroke:rgb(68,68,68);stroke-width:0.7284427;stroke-linecap:round;stroke-linejoin:round" />
<line x1="36.0448324" y1="97.9560636" x2="35.1603218" y2="96.4239841" style="fill:none;stroke:rgb(68,68,68);stroke-width:0.7284427;stroke-linecap:round;stroke-linejoin:round" />
<line x1="33.817625" y1="99.5422918" x2="32.6729643" y2="97.5596006" style="fill:none;stroke:rgb(68,68,68);stroke-width:0.7284427;stroke-linecap:round;stroke-linejoin:round" />
<line x1="31.5904176" y1="101.1285199" x2="30.1856067" y2="98.6952172" style="fill:none;stroke:rgb(68,68,68);stroke-width:0.7284427;stroke-linecap:round;stroke-linejoin:round" />
<line x1="29.3632103" y1="102.7147481" x2="27.6982492" y2="99.8308337" style="fill:none;stroke:rgb(68,68,68);stroke-width:0.7284427;stroke-linecap:round;stroke-linejoin:round" />
<line x1="27.1360029" y1="104.3009762" x2="25.2108917" y2="100.9664502" style="fill:none;stroke:rgb(68,68,68);stroke-width:0.7284427;stroke-linecap:round;stroke-linejoin:round" />
<line x1="24.9087955" y1="105.8872043" x2="22.7235342" y2="102.1020667" style="fill:none;stroke:rgb(68,68,68);stroke-width:0.7284427;stroke-linecap:round;stroke-linejoin:round" />
<line x1="90.1196453" y1="122.8437719" x2="89.5158824" y2="123.2513245" style="fill:none;stroke:rgb(68,68,68);stroke-width:0.7284427;stroke-linecap:round;stroke-linejoin:round" />
<line x1="91.6513943" y1="124.9321276" x2="90.8799195" y2="125.4528893" style="fill:none;stroke:rgb(68,68,68);stroke-width:0.7284427;stroke-linecap:round;stroke-linejoin:round" />
<line x1="93.1831433" y1="127.0204833" x2="92.2439566" y2="127.654454" style="fill:none;stroke:rgb(68,68,68);stroke-width:0.7284427;stroke-linecap:round;stroke-linejoin:round" />
<line x1="94.7148923" y1="129.1088391" x2="93.6079937" y2="129.8560188" style="fill:none;stroke:rgb(68,68,68);stroke-width:0.7284427;stroke-linecap:round;stroke-linejoin:round" />
<line x1="96.2466413" y1="131.1971948" x2="94.9720308" y2="132.0575835" style="fill:none;stroke:rgb(68,68,68);stroke-width:0.7284427;stroke-linecap:round;stroke-linejoin:round" />
<line x1="97.7783904" y1="133.2855505" x2="96.3360679" y2="134.2591483" style="fill:none;stroke:rgb(68,68,68);stroke-width:0.7284427;stroke-linecap:round;stroke-linejoin:round" />
<line x1="99.3101394" y1="135.3739062" x2="97.700105" y2="136.4607131" style="fill:none;stroke:rgb(68,68,68);stroke-width:0.7284427;stroke-linecap:round;stroke-linejoin:round" />
<line x1="100.8418884" y1="137.4622619" x2="99.0641421" y2="138.6622778" style="fill:none;stroke:rgb(68,68,68);stroke-width:0.7284427;stroke-linecap:round;stroke-linejoin:round" />
<line x1="102.3736374" y1="139.5506176" x2="100.4281792" y2="140.8638426" style="fill:none;stroke:rgb(68,68,68);stroke-width:0.7284427;stroke-linecap:round;stroke-linejoin:round" />
<line x1="103.9053864" y1="141.6389733" x2="101.7922164" y2="143.0654073" style="fill:none;stroke:rgb(68,68,68);stroke-width:0.7284427;stroke-linecap:round;stroke-linejoin:round" />
<line x1="105.4371354" y1="143.727329" x2="103.1562535" y2="145.2669721" style="fill:none;stroke:rgb(68,68,68);stroke-width:0.7284427;stroke-linecap:round;stroke-linejoin:round" />
<line x1="106.9688845" y1="145.8156847" x2="104.5202906" y2="147.4685368" style="fill:none;stroke:rgb(68,68,68);stroke-width:0.7284427;stroke-linecap:round;stroke-linejoin:round" />
<line x1="108.5006335" y1="147.9040404" x2="105.8843277" y2="149.6701016" style="fill:none;stroke:rgb(68,68,68);stroke-width:0.7284427;stroke-linecap:round;stroke-linejoin:round" />
<line x1="110.0323825" y1="149.9923961" x2="107.2483648" y2="151.8716663" style="fill:none;stroke:rgb(68,68,68);stroke-width:0.7284427;stroke-linecap:round;stroke-linejoin:round" />
<line x1="111.5641315" y1="152.0807518" x2="108.6124019" y2="154.0732311" style="fill:none;stroke:rgb(68,68,68);stroke-width:0.7284427;stroke-linecap:round;stroke-linejoin:round" />
<line x1="113.0958805" y1="154.1691075" x2="109.976439" y2="156.2747959" style="fill:none;stroke:rgb(68,68,68);stroke-width:0.7284427;stroke-linecap:round;stroke-linejoin:round" />
<line x1="114.6276295" y1="156.2574632" x2="111.3404761" y2="158.4763606" style="fill:none;stroke:rgb(68,68,68);stroke-width:0.7284427;stroke-linecap:round;stroke-linejoin:round" />
<line x1="103.4020434" y1="90.1744391" x2="103.1800764" y2="90.8682398" style="fill:none;stroke:rgb(68,68,68);stroke-width:0.7284427;stroke-linecap:round;stroke-linejoin:round" />
<line x1="105.9564734" y1="90.8721731" x2="105.6651418" y2="91.7827865" style="fill:none;stroke:rgb(68,68,68);stroke-width:0.7284427;stroke-linecap:round;stroke-linejoin:round" />
<line x1="108.5109035" y1="91.569907" x2="108.1502072" y2="92.6973331" style="fill:none;stroke:rgb(68,68,68);stroke-width:0.7284427;stroke-linecap:round;stroke-linejoin:round" />
<line x1="111.0653335" y1="92.2676409" x2="110.6352725" y2="93.6118797" style="fill:none;stroke:rgb(68,68,68);stroke-width:0.7284427;stroke-linecap:round;stroke-linejoin:round" />
<line x1="113.6197635" y1="92.9653748" x2="113.1203379" y2="94.5264264" style="fill:none;stroke:rgb(68,68,68);stroke-width:0.7284427;stroke-linecap:round;stroke-linejoin:round" />
<line x1="116.1741936" y1="93.6631088" x2="115.6054033" y2="95.440973" style="fill:none;stroke:rgb(68,68,68);stroke-width:0.7284427;stroke-linecap:round;stroke-linejoin:round" />
<line x1="118.7286236" y1="94.3608427" x2="118.0904686" y2="96.3555197" style="fill:none;stroke:rgb(68,68,68);stroke-width:0.7284427;stroke-linecap:round;stroke-linejoin:round" />
<line x1="121.2830536" y1="95.0585766" x2="120.575534" y2="97.2700663" style="fill:none;stroke:rgb(68,68,68);stroke-width:0.7284427;stroke-linecap:round;stroke-linejoin:round" />
<line x1="123.8374837" y1="95.7563105" x2="123.0605994" y2="98.1846129" style="fill:none;stroke:rgb(68,68,68);stroke-width:0.7284427;stroke-linecap:round;stroke-linejoin:round" />
<line x1="126.3919137" y1="96.4540445" x2="125.5456648" y2="99.0991596" style="fill:none;stroke:rgb(68,68,68);stroke-width:0.7284427;stroke-linecap:round;stroke-linejoin:round" />
<line x1="128.9463437" y1="97.1517784" x2="128.0307301" y2="100.0137062" style="fill:none;stroke:rgb(68,68,68);stroke-width:0.7284427;stroke-linecap:round;stroke-linejoin:round" />
<line x1="131.5007738" y1="97.8495123" x2="130.5157955" y2="100.9282529" style="fill:none;stroke:rgb(68,68,68);stroke-width:0.7284427;stroke-linecap:round;stroke-linejoin:round" />
<line x1="134.0552038" y1="98.5472462" x2="133.0008609" y2="101.8427995" style="fill:none;stroke:rgb(68,68,68);stroke-width:0.7284427;stroke-linecap:round;stroke-linejoin:round" />
<line x1="136.6096339" y1="99.2449802" x2="135.4859262" y2="102.7573461" style="fill:none;stroke:rgb(68,68,68);stroke-width:0.7284427;stroke-linecap:round;stroke-linejoin:round" />
<line x1="139.1640639" y1="99.9427141" x2="137.9709916" y2="103.6718928" style="fill:none;stroke:rgb(68,68,68);stroke-width:0.7284427;stroke-linecap:round;stroke-linejoin:round" />
<line x1="58.5329421" y1="124.0375615" x2="45.0779625" y2="131.8054819" style="fill:none;stroke:rgb(68,68,68);stroke-width:0.7284427;stroke-linecap:round;stroke-linejoin:round" />
<line x1="56.8181191" y1="121.0675216" x2="43.363244" y2="128.8353816" style="fill:none;stroke:rgb(68,68,68);stroke-width:0.7284427;stroke-linecap:round;stroke-linejoin:round" />
<line x1="23.8161649" y1="103.9946355" x2="4.7632522" y2="103.9946355" style="fill:none;stroke:rgb(68,68,68);stroke-width:0.7284427;stroke-linecap:round;stroke-linejoin:round" />
<path d="M152.8180514,120.1026662 L153.4489076,119.738456 L147.4807945,106.6664103 L145.9812954,107.5321113 L144.4817963,108.3978124 Z" style="fill:rgb(68,68,68);stroke:none" />
<path d="M115.5156176,180.7097451 L116.2440603,180.7097451 L117.6156012,166.3603113 L115.8798389,166.3603113 L114.1440767,166.3603113 Z" style="fill:rgb(68,68,68);stroke:none" />
<line x1="172.1863922" y1="119.9205611" x2="153.1334795" y2="119.9205611" style="fill:none;stroke:rgb(68,68,68);stroke-width:0.7284427;stroke-linecap:round;stroke-linejoin:round" />
<line x1="153.1334795" y1="119.9205611" x2="145.9780427" y2="132.314645" style="fill:none;stroke:rgb(68,68,68);stroke-width:0.7284427;stroke-linecap:round;stroke-linejoin:round" />
<line x1="145.9808398" y1="140.5342734" x2="153.13117" y2="152.9225153" style="fill:none;stroke:rgb(68,68,68);stroke-width:0.7284427;stroke-linecap:round;stroke-linejoin:round" />
<line x1="153.13117" y1="152.9225153" x2="172.1840827" y2="152.9225153" style="fill:none;stroke:rgb(68,68,68);stroke-width:0.7284427;stroke-linecap:round;stroke-linejoin:round" />
<line x1="172.1840827" y1="152.9225153" x2="181.7128485" y2="136.4215382" style="fill:none;stroke:rgb(68,68,68);stroke-width:0.7284427;stroke-linecap:round;stroke-linejoin:round" />
<line x1="172.1863922" y1="119.9205611" x2="181.7128485" y2="136.4215382" style="fill:none;stroke:rgb(68,68,68);stroke-width:0.7284427;stroke-linecap:round;stroke-linejoin:round" />
<line x1="134.9327516" y1="180.7097451" x2="115.8798389" y2="180.7097451" style="fill:none;stroke:rgb(68,68,68);stroke-width:0.7284427;stroke-linecap:round;stroke-linejoin:round" />
<line x1="115.8798389" y1="180.7097451" x2="108.7244021" y2="193.1038289" style="fill:none;stroke:rgb(68,68,68);stroke-width:0.7284427;stroke-linecap:round;stroke-linejoin:round" />
<line x1="108.7271992" y1="201.3234573" x2="115.8775295" y2="213.7116993" style="fill:none;stroke:rgb(68,68,68);stroke-width:0.7284427;stroke-linecap:round;stroke-linejoin:round" />
<line x1="115.8775295" y1="213.7116993" x2="134.9304422" y2="213.7116993" style="fill:none;stroke:rgb(68,68,68);stroke-width:0.7284427;stroke-linecap:round;stroke-linejoin:round" />
<line x1="134.9304422" y1="213.7116993" x2="144.459208" y2="197.2107222" style="fill:none;stroke:rgb(68,68,68);stroke-width:0.7284427;stroke-linecap:round;stroke-linejoin:round" />
<line x1="134.9327516" y1="180.7097451" x2="144.459208" y2="197.2107222" style="fill:none;stroke:rgb(68,68,68);stroke-width:0.7284427;stroke-linecap:round;stroke-linejoin:round" />
<line x1="171.9288267" y1="119.6630398" x2="172.4439576" y2="120.1780824" style="fill:none;stroke:rgb(68,68,68);stroke-width:0.7284427;stroke-linecap:round;stroke-linejoin:round" />
<line x1="173.9593533" y1="117.2028894" x2="174.9037599" y2="118.1471341" style="fill:none;stroke:rgb(68,68,68);stroke-width:0.7284427;stroke-linecap:round;stroke-linejoin:round" />
<line x1="175.9898799" y1="114.7427389" x2="177.3635622" y2="116.1161859" style="fill:none;stroke:rgb(68,68,68);stroke-width:0.7284427;stroke-linecap:round;stroke-linejoin:round" />
<line x1="178.0204064" y1="112.2825885" x2="179.8233646" y2="114.0852376" style="fill:none;stroke:rgb(68,68,68);stroke-width:0.7284427;stroke-linecap:round;stroke-linejoin:round" />
<line x1="180.050933" y1="109.8224381" x2="182.2831669" y2="112.0542893" style="fill:none;stroke:rgb(68,68,68);stroke-width:0.7284427;stroke-linecap:round;stroke-linejoin:round" />
<line x1="116.1350729" y1="213.9692426" x2="115.6199861" y2="213.4541559" style="fill:none;stroke:rgb(68,68,68);stroke-width:0.7284427;stroke-linecap:round;stroke-linejoin:round" />
<line x1="114.1045279" y1="216.4290266" x2="113.1602022" y2="215.4847009" style="fill:none;stroke:rgb(68,68,68);stroke-width:0.7284427;stroke-linecap:round;stroke-linejoin:round" />
<line x1="112.073983" y1="218.8888105" x2="110.7004183" y2="217.5152458" style="fill:none;stroke:rgb(68,68,68);stroke-width:0.7284427;stroke-linecap:round;stroke-linejoin:round" />
<line x1="110.043438" y1="221.3485944" x2="108.2406344" y2="219.5457908" style="fill:none;stroke:rgb(68,68,68);stroke-width:0.7284427;stroke-linecap:round;stroke-linejoin:round" />
<line x1="108.012893" y1="223.8083783" x2="105.7808505" y2="221.5763357" style="fill:none;stroke:rgb(68,68,68);stroke-width:0.7284427;stroke-linecap:round;stroke-linejoin:round" />
<line x1="105.9823481" y1="226.2681622" x2="103.3210665" y2="223.6068807" style="fill:none;stroke:rgb(68,68,68);stroke-width:0.7284427;stroke-linecap:round;stroke-linejoin:round" />
<line x1="103.9518031" y1="228.7279461" x2="100.8612826" y2="225.6374257" style="fill:none;stroke:rgb(68,68,68);stroke-width:0.7284427;stroke-linecap:round;stroke-linejoin:round" />
<line x1="144.7167513" y1="196.9531788" x2="144.2016646" y2="197.4682655" style="fill:none;stroke:rgb(68,68,68);stroke-width:0.7284427;stroke-linecap:round;stroke-linejoin:round" />
<line x1="147.1765353" y1="198.9837237" x2="146.2322096" y2="199.9280495" style="fill:none;stroke:rgb(68,68,68);stroke-width:0.7284427;stroke-linecap:round;stroke-linejoin:round" />
<line x1="149.6363192" y1="201.0142687" x2="148.2627545" y2="202.3878334" style="fill:none;stroke:rgb(68,68,68);stroke-width:0.7284427;stroke-linecap:round;stroke-linejoin:round" />
<line x1="152.0961031" y1="203.0448137" x2="150.2932995" y2="204.8476173" style="fill:none;stroke:rgb(68,68,68);stroke-width:0.7284427;stroke-linecap:round;stroke-linejoin:round" />
<line x1="154.555887" y1="205.0753586" x2="152.3238444" y2="207.3074012" style="fill:none;stroke:rgb(68,68,68);stroke-width:0.7284427;stroke-linecap:round;stroke-linejoin:round" />
<line x1="157.0156709" y1="207.1059036" x2="154.3543894" y2="209.7671851" style="fill:none;stroke:rgb(68,68,68);stroke-width:0.7284427;stroke-linecap:round;stroke-linejoin:round" />
<line x1="159.4754548" y1="209.1364485" x2="156.3849343" y2="212.226969" style="fill:none;stroke:rgb(68,68,68);stroke-width:0.7284427;stroke-linecap:round;stroke-linejoin:round" />
<path d="M153.4465871,153.1046395 L152.815753,152.7403911 L141.7122111,168.3284376 L143.6047137,169.421183 L145.4972163,170.5139284 Z" style="fill:rgb(68,68,68);stroke:none" />
<path d="M181.7128485,136.0573169 L181.7128485,136.7857595 L196.9309711,138.2403311 L196.9309711,136.4215382 L196.9309711,134.6027453 Z" style="fill:rgb(68,68,68);stroke:none" />
<path d="M144.2016425,196.9532009 L144.7167734,197.4682435 L155.8847273,188.2473657 L154.6526665,187.0155161 L153.4206057,185.7836665 Z" style="fill:rgb(68,68,68);stroke:none" />
<path d="M135.2458593,213.529575 L134.6150251,213.8938235 L140.5838636,226.965705 L142.0834459,226.0998347 L143.5830283,225.2339645 Z" style="fill:rgb(68,68,68);stroke:none" />
<line x1="162.2820116" y1="183.7374261" x2="176.9831073" y2="183.7374261" style="fill:none;stroke:rgb(68,68,68);stroke-width:0.7284427;stroke-linecap:round;stroke-linejoin:round" />
<line x1="204.1737512" y1="133.012964" x2="214.2367478" y2="122.9482421" style="fill:none;stroke:rgb(68,68,68);stroke-width:0.7284427;stroke-linecap:round;stroke-linejoin:round" />
<line x1="203.2936017" y1="140.8000643" x2="210.2922175" y2="152.9225153" style="fill:none;stroke:rgb(68,68,68);stroke-width:0.7284427;stroke-linecap:round;stroke-linejoin:round" />
<line x1="89.6356587" y1="104.3100637" x2="89.999869" y2="103.6792074" style="fill:none;stroke:rgb(68,68,68);stroke-width:0.7284427;stroke-linecap:round;stroke-linejoin:round" />
<line x1="87.1483012" y1="103.1744471" x2="87.7726616" y2="102.0929793" style="fill:none;stroke:rgb(68,68,68);stroke-width:0.7284427;stroke-linecap:round;stroke-linejoin:round" />
<line x1="84.6609437" y1="102.0388306" x2="85.5454542" y2="100.5067511" style="fill:none;stroke:rgb(68,68,68);stroke-width:0.7284427;stroke-linecap:round;stroke-linejoin:round" />
<line x1="82.1735861" y1="100.9032141" x2="83.3182469" y2="98.920523" style="fill:none;stroke:rgb(68,68,68);stroke-width:0.7284427;stroke-linecap:round;stroke-linejoin:round" />
<line x1="79.6862286" y1="99.7675976" x2="81.0910395" y2="97.3342948" style="fill:none;stroke:rgb(68,68,68);stroke-width:0.7284427;stroke-linecap:round;stroke-linejoin:round" />
<line x1="77.1988711" y1="98.631981" x2="78.8638321" y2="95.7480667" style="fill:none;stroke:rgb(68,68,68);stroke-width:0.7284427;stroke-linecap:round;stroke-linejoin:round" />
<line x1="74.7115136" y1="97.4963645" x2="76.6366248" y2="94.1618385" style="fill:none;stroke:rgb(68,68,68);stroke-width:0.7284427;stroke-linecap:round;stroke-linejoin:round" />
<line x1="72.224156" y1="96.360748" x2="74.4094174" y2="92.5756104" style="fill:none;stroke:rgb(68,68,68);stroke-width:0.7284427;stroke-linecap:round;stroke-linejoin:round" />
<path d="M57.604817,27.7127657 L56.5791362,27.7127657 L53.623501,22.1364115 L53.623501,27.7127657 L52.8490074,27.7127657 L52.8490074,21.4791385 L54.1342482,21.4791385 L56.8303233,26.5698643 L56.8303233,21.4791385 L57.604817,21.4791385 Z" style="fill:rgb(68,68,68);stroke:none" />
<path d="M58.9259977,101.5937053 Q59.3069648,102.0123505 59.5100078,102.619386 Q59.7130507,103.2264216 59.7130507,103.9967288 Q59.7130507,104.767036 59.5058213,105.3761647 Q59.2985919,105.9852935 58.9259977,106.3913794 Q58.5408441,106.814211 58.0154444,107.0277201 Q57.4900446,107.2412292 56.8160258,107.2412292 Q56.1587529,107.2412292 55.6207938,107.0235336 Q55.0828347,106.8058381 54.706054,106.3913794 Q54.3292733,105.9769206 54.1262304,105.3740715 Q53.9231874,104.7712224 53.9231874,103.9967288 Q53.9231874,103.2347945 54.1241371,102.6298522 Q54.3250868,102.0249098 54.7102404,101.5937053 Q55.0786482,101.183433 55.6249802,100.9657374 Q56.1713122,100.7480419 56.8160258,100.7480419 Q57.4858582,100.7480419 58.0196308,100.9678307 Q58.5534035,101.1876194 58.9259977,101.5937053 Z M58.8506416,103.9967288 Q58.8506416,102.7826577 58.3064028,102.1232915 Q57.762164,101.4639252 56.8202123,101.4639252 Q55.8698877,101.4639252 55.3277421,102.1232915 Q54.7855966,102.7826577 54.7855966,103.9967288 Q54.7855966,105.2233592 55.3382082,105.8743525 Q55.8908199,106.5253458 56.8202123,106.5253458 Q57.7496047,106.5253458 58.3001231,105.8743525 Q58.8506416,105.2233592 58.8506416,103.9967288 Z" style="fill:rgb(68,68,68);stroke:none" />
<path d="M74.3022756,64.471703 Q74.6832427,64.8903482 74.8862857,65.4973838 Q75.0893286,66.1044193 75.0893286,66.8747265 Q75.0893286,67.6450337 74.8820992,68.2541625 Q74.6748698,68.8632913 74.3022756,69.2693771 Q73.917122,69.6922088 73.3917223,69.9057179 Q72.8663225,70.1192269 72.1923037,70.1192269 Q71.5350308,70.1192269 70.9970717,69.9015314 Q70.4591126,69.6838359 70.0823319,69.2693771 Q69.7055512,68.8549184 69.5025083,68.2520693 Q69.2994653,67.6492202 69.2994653,66.8747265 Q69.2994653,66.1127922 69.500415,65.5078499 Q69.7013647,64.9029076 70.0865183,64.471703 Q70.4549261,64.0614307 71.0012581,63.8437352 Q71.5475901,63.6260397 72.1923037,63.6260397 Q72.8621361,63.6260397 73.3959087,63.8458284 Q73.9296814,64.0656172 74.3022756,64.471703 Z M74.2269195,66.8747265 Q74.2269195,65.6606554 73.6826807,65.0012892 Q73.1384419,64.341923 72.1964902,64.341923 Q71.2461656,64.341923 70.70402,65.0012892 Q70.1618745,65.6606554 70.1618745,66.8747265 Q70.1618745,68.101357 70.7144861,68.7523503 Q71.2670978,69.4033436 72.1964902,69.4033436 Q73.1258826,69.4033436 73.676401,68.7523503 Q74.2269195,68.101357 74.2269195,66.8747265 Z" style="fill:rgb(68,68,68);stroke:none" />
<path d="M80.5729529,69.9894469 L79.7440354,69.9894469 L79.7440354,66.9375233 L76.6335015,66.9375233 L76.6335015,69.9894469 L75.8045839,69.9894469 L75.8045839,63.7558197 L76.6335015,63.7558197 L76.6335015,66.2007077 L79.7440354,66.2007077 L79.7440354,63.7558197 L80.5729529,63.7558197 Z" style="fill:rgb(68,68,68);stroke:none" />
<path d="M25.9240435,63.4878799 Q26.3050106,63.9065251 26.5080536,64.5135607 Q26.7110965,65.1205962 26.7110965,65.8909034 Q26.7110965,66.6612106 26.5038671,67.2703394 Q26.2966377,67.8794682 25.9240435,68.285554 Q25.5388899,68.7083857 25.0134902,68.9218947 Q24.4880904,69.1354038 23.8140716,69.1354038 Q23.1567987,69.1354038 22.6188396,68.9177083 Q22.0808805,68.7000128 21.7040998,68.285554 Q21.3273191,67.8710952 21.1242762,67.2682461 Q20.9212332,66.665397 20.9212332,65.8909034 Q20.9212332,65.1289691 21.1221829,64.5240268 Q21.3231326,63.9190845 21.7082862,63.4878799 Q22.076694,63.0776076 22.623026,62.8599121 Q23.169358,62.6422166 23.8140716,62.6422166 Q24.483904,62.6422166 25.0176766,62.8620053 Q25.5514493,63.081794 25.9240435,63.4878799 Z M25.8486874,65.8909034 Q25.8486874,64.6768323 25.3044486,64.0174661 Q24.7602098,63.3580999 23.8182581,63.3580999 Q22.8679335,63.3580999 22.3257879,64.0174661 Q21.7836424,64.6768323 21.7836424,65.8909034 Q21.7836424,67.1175339 22.336254,67.7685272 Q22.8888657,68.4195205 23.8182581,68.4195205 Q24.7476505,68.4195205 25.2981689,67.7685272 Q25.8486874,67.1175339 25.8486874,65.8909034 Z" style="fill:rgb(68,68,68);stroke:none" />
<path d="M20.2059779,69.0056238 L19.3770604,69.0056238 L19.3770604,65.9537002 L16.2665265,65.9537002 L16.2665265,69.0056238 L15.4376089,69.0056238 L15.4376089,62.7719966 L16.2665265,62.7719966 L16.2665265,65.2168846 L19.3770604,65.2168846 L19.3770604,62.7719966 L20.2059779,62.7719966 Z" style="fill:rgb(68,68,68);stroke:none" />
<path d="M123.8028975,64.1368336 Q124.1838646,64.5554789 124.3869075,65.1625144 Q124.5899505,65.76955 124.5899505,66.5398572 Q124.5899505,67.3101643 124.3827211,67.9192931 Q124.1754917,68.5284219 123.8028975,68.9345078 Q123.4177439,69.3573394 122.8923441,69.5708485 Q122.3669444,69.7843575 121.6929256,69.7843575 Q121.0356526,69.7843575 120.4976935,69.566662 Q119.9597344,69.3489665 119.5829538,68.9345078 Q119.2061731,68.520049 119.0031301,67.9171999 Q118.8000872,67.3143508 118.8000872,66.5398572 Q118.8000872,65.7779229 119.0010369,65.1729805 Q119.2019866,64.5680382 119.5871402,64.1368336 Q119.955548,63.7265613 120.50188,63.5088658 Q121.048212,63.2911703 121.6929256,63.2911703 Q122.362758,63.2911703 122.8965306,63.5109591 Q123.4303032,63.7307478 123.8028975,64.1368336 Z M123.7275413,66.5398572 Q123.7275413,65.325786 123.1833026,64.6664198 Q122.6390638,64.0070536 121.6971121,64.0070536 Q120.7467874,64.0070536 120.2046419,64.6664198 Q119.6624963,65.325786 119.6624963,66.5398572 Q119.6624963,67.7664876 120.215108,68.4174809 Q120.7677197,69.0684742 121.6971121,69.0684742 Q122.6265044,69.0684742 123.1770229,68.4174809 Q123.7275413,67.7664876 123.7275413,66.5398572 Z" style="fill:rgb(68,68,68);stroke:none" />
<path d="M130.0735748,69.6545775 L129.2446572,69.6545775 L129.2446572,66.6026539 L126.1341233,66.6026539 L126.1341233,69.6545775 L125.3052058,69.6545775 L125.3052058,63.4209503 L126.1341233,63.4209503 L126.1341233,65.8658384 L129.2446572,65.8658384 L129.2446572,63.4209503 L130.0735748,63.4209503 Z" style="fill:rgb(68,68,68);stroke:none" />
<path d="M117.9877176,159.2559021 Q118.3686847,159.6745473 118.5717276,160.2815829 Q118.7747706,160.8886184 118.7747706,161.6589256 Q118.7747706,162.4292328 118.5675412,163.0383616 Q118.3603118,163.6474904 117.9877176,164.0535762 Q117.602564,164.4764079 117.0771642,164.6899169 Q116.5517645,164.903426 115.8777457,164.903426 Q115.2204727,164.903426 114.6825136,164.6857305 Q114.1445545,164.468035 113.7677739,164.0535762 Q113.3909932,163.6391174 113.1879502,163.0362683 Q112.9849073,162.4334192 112.9849073,161.6589256 Q112.9849073,160.8969913 113.185857,160.292049 Q113.3868067,159.6871067 113.7719603,159.2559021 Q114.1403681,158.8456298 114.6867001,158.6279343 Q115.2330321,158.4102388 115.8777457,158.4102388 Q116.5475781,158.4102388 117.0813507,158.6300275 Q117.6151233,158.8498162 117.9877176,159.2559021 Z M117.9123614,161.6589256 Q117.9123614,160.4448545 117.3681227,159.7854883 Q116.8238839,159.1261221 115.8819322,159.1261221 Q114.9316075,159.1261221 114.389462,159.7854883 Q113.8473164,160.4448545 113.8473164,161.6589256 Q113.8473164,162.8855561 114.3999281,163.5365494 Q114.9525398,164.1875427 115.8819322,164.1875427 Q116.8113245,164.1875427 117.361843,163.5365494 Q117.9123614,162.8855561 117.9123614,161.6589256 Z" style="fill:rgb(68,68,68);stroke:none" />
<path d="M145.7149018,101.0186537 Q146.0958689,101.4372989 146.2989119,102.0443345 Q146.5019548,102.65137 146.5019548,103.4216772 Q146.5019548,104.1919844 146.2947254,104.8011132 Q146.087496,105.410242 145.7149018,105.8163278 Q145.3297482,106.2391595 144.8043484,106.4526685 Q144.2789487,106.6661776 143.6049299,106.6661776 Q142.9476569,106.6661776 142.4096978,106.4484821 Q141.8717387,106.2307866 141.4949581,105.8163278 Q141.1181774,105.4018691 140.9151344,104.79902 Q140.7120915,104.1961709 140.7120915,103.4216772 Q140.7120915,102.6597429 140.9130412,102.0548006 Q141.1139909,101.4498583 141.4991445,101.0186537 Q141.8675523,100.6083814 142.4138843,100.3906859 Q142.9602163,100.1729904 143.6049299,100.1729904 Q144.2747623,100.1729904 144.8085349,100.3927791 Q145.3423075,100.6125679 145.7149018,101.0186537 Z M145.6395456,103.4216772 Q145.6395456,102.2076061 145.0953069,101.5482399 Q144.5510681,100.8888737 143.6091164,100.8888737 Q142.6587917,100.8888737 142.1166462,101.5482399 Q141.5745006,102.2076061 141.5745006,103.4216772 Q141.5745006,104.6483077 142.1271123,105.299301 Q142.679724,105.9502943 143.6091164,105.9502943 Q144.5385087,105.9502943 145.0890272,105.299301 Q145.6395456,104.6483077 145.6395456,103.4216772 Z" style="fill:rgb(68,68,68);stroke:none" />
<path d="M42.4250206,130.1730743 Q42.8059877,130.5917195 43.0090307,131.1987551 Q43.2120736,131.8057906 43.2120736,132.5760978 Q43.2120736,133.346405 43.0048442,133.9555338 Q42.7976148,134.5646625 42.4250206,134.9707484 Q42.039867,135.3935801 41.5144673,135.6070891 Q40.9890675,135.8205982 40.3150487,135.8205982 Q39.6577758,135.8205982 39.1198167,135.6029027 Q38.5818576,135.3852072 38.2050769,134.9707484 Q37.8282962,134.5562896 37.6252533,133.9534405 Q37.4222103,133.3505914 37.4222103,132.5760978 Q37.4222103,131.8141635 37.62316,131.2092212 Q37.8241097,130.6042789 38.2092633,130.1730743 Q38.5776711,129.762802 39.1240031,129.5451065 Q39.6703351,129.327411 40.3150487,129.327411 Q40.9848811,129.327411 41.5186537,129.5471997 Q42.0524264,129.7669884 42.4250206,130.1730743 Z M42.3496645,132.5760978 Q42.3496645,131.3620267 41.8054257,130.7026605 Q41.2611869,130.0432943 40.3192352,130.0432943 Q39.3689106,130.0432943 38.826765,130.7026605 Q38.2846195,131.3620267 38.2846195,132.5760978 Q38.2846195,133.8027283 38.8372311,134.4537216 Q39.3898428,135.1047149 40.3192352,135.1047149 Q41.2486276,135.1047149 41.799146,134.4537216 Q42.3496645,133.8027283 42.3496645,132.5760978 Z" style="fill:rgb(68,68,68);stroke:none" />
<path d="M145.7149018,134.0206079 Q146.0958689,134.4392531 146.2989119,135.0462887 Q146.5019548,135.6533242 146.5019548,136.4236314 Q146.5019548,137.1939386 146.2947254,137.8030674 Q146.087496,138.4121962 145.7149018,138.818282 Q145.3297482,139.2411137 144.8043484,139.4546228 Q144.2789487,139.6681318 143.6049299,139.6681318 Q142.9476569,139.6681318 142.4096978,139.4504363 Q141.8717387,139.2327408 141.4949581,138.818282 Q141.1181774,138.4038233 140.9151344,137.8009742 Q140.7120915,137.1981251 140.7120915,136.4236314 Q140.7120915,135.6616971 140.9130412,135.0567548 Q141.1139909,134.4518125 141.4991445,134.0206079 Q141.8675523,133.6103356 142.4138843,133.3926401 Q142.9602163,133.1749446 143.6049299,133.1749446 Q144.2747623,133.1749446 144.8085349,133.3947333 Q145.3423075,133.6145221 145.7149018,134.0206079 Z M145.6395456,136.4236314 Q145.6395456,135.2095603 145.0953069,134.5501941 Q144.5510681,133.8908279 143.6091164,133.8908279 Q142.6587917,133.8908279 142.1166462,134.5501941 Q141.5745006,135.2095603 141.5745006,136.4236314 Q141.5745006,137.6502619 142.1271123,138.3012552 Q142.679724,138.9522485 143.6091164,138.9522485 Q144.5385087,138.9522485 145.0890272,138.3012552 Q145.6395456,137.6502619 145.6395456,136.4236314 Z" style="fill:rgb(68,68,68);stroke:none" />
<path d="M108.4612612,194.8097919 Q108.8422284,195.2284371 109.0452713,195.8354726 Q109.2483142,196.4425082 109.2483142,197.2128154 Q109.2483142,197.9831226 109.0410849,198.5922514 Q108.8338555,199.2013801 108.4612612,199.607466 Q108.0761076,200.0302977 107.5507079,200.2438067 Q107.0253082,200.4573158 106.3512894,200.4573158 Q105.6940164,200.4573158 105.1560573,200.2396203 Q104.6180982,200.0219248 104.2413175,199.607466 Q103.8645368,199.1930072 103.6614939,198.5901581 Q103.458451,197.987309 103.458451,197.2128154 Q103.458451,196.4508811 103.6594007,195.8459388 Q103.8603504,195.2409964 104.245504,194.8097919 Q104.6139118,194.3995196 105.1602438,194.1818241 Q105.7065758,193.9641286 106.3512894,193.9641286 Q107.0211217,193.9641286 107.5548944,194.1839173 Q108.088667,194.403706 108.4612612,194.8097919 Z M108.3859051,197.2128154 Q108.3859051,195.9987443 107.8416663,195.3393781 Q107.2974276,194.6800119 106.3554758,194.6800119 Q105.4051512,194.6800119 104.8630057,195.3393781 Q104.3208601,195.9987443 104.3208601,197.2128154 Q104.3208601,198.4394459 104.8734718,199.0904392 Q105.4260835,199.7414325 106.3554758,199.7414325 Q107.2848682,199.7414325 107.8353866,199.0904392 Q108.3859051,198.4394459 108.3859051,197.2128154 Z" style="fill:rgb(68,68,68);stroke:none" />
<path d="M187.7652574,104.0463347 Q188.1462246,104.46498 188.3492675,105.0720155 Q188.5523104,105.6790511 188.5523104,106.4493583 Q188.5523104,107.2196654 188.3450811,107.8287942 Q188.1378517,108.437923 187.7652574,108.8440089 Q187.3801038,109.2668405 186.8547041,109.4803496 Q186.3293044,109.6938586 185.6552856,109.6938586 Q184.9980126,109.6938586 184.4600535,109.4761631 Q183.9220944,109.2584676 183.5453137,108.8440089 Q183.168533,108.4295501 182.9654901,107.826701 Q182.7624472,107.2238519 182.7624472,106.4493583 Q182.7624472,105.687424 182.9633969,105.0824816 Q183.1643466,104.4775393 183.5495002,104.0463347 Q183.9179079,103.6360624 184.4642399,103.4183669 Q185.0105719,103.2006714 185.6552856,103.2006714 Q186.3251179,103.2006714 186.8588906,103.4204602 Q187.3926632,103.6402489 187.7652574,104.0463347 Z M187.6899013,106.4493583 Q187.6899013,105.2352871 187.1456625,104.5759209 Q186.6014238,103.9165547 185.659472,103.9165547 Q184.7091474,103.9165547 184.1670019,104.5759209 Q183.6248563,105.2352871 183.6248563,106.4493583 Q183.6248563,107.6759887 184.177468,108.326982 Q184.7300797,108.9779753 185.659472,108.9779753 Q186.5888644,108.9779753 187.1393828,108.326982 Q187.6899013,107.6759887 187.6899013,106.4493583 Z" style="fill:rgb(68,68,68);stroke:none" />
<path d="M194.0359347,109.5640786 L193.2070172,109.5640786 L193.2070172,106.512155 L190.0964833,106.512155 L190.0964833,109.5640786 L189.2675658,109.5640786 L189.2675658,103.3304514 L190.0964833,103.3304514 L190.0964833,105.7753395 L193.2070172,105.7753395 L193.2070172,103.3304514 L194.0359347,103.3304514 Z" style="fill:rgb(68,68,68);stroke:none" />
<path d="M203.143666,139.5383518 L202.1179852,139.5383518 L199.16235,133.9619976 L199.16235,139.5383518 L198.3878564,139.5383518 L198.3878564,133.3047246 L199.6730972,133.3047246 L202.3691724,138.3954504 L202.3691724,133.3047246 L203.143666,133.3047246 Z" style="fill:rgb(68,68,68);stroke:none" />
<path d="M160.0380732,181.3364958 Q160.4190404,181.755141 160.6220833,182.3621766 Q160.8251262,182.9692121 160.8251262,183.7395193 Q160.8251262,184.5098265 160.6178968,185.1189553 Q160.4106675,185.7280841 160.0380732,186.1341699 Q159.6529196,186.5570016 159.1275199,186.7705106 Q158.6021202,186.9840197 157.9281014,186.9840197 Q157.2708284,186.9840197 156.7328693,186.7663242 Q156.1949102,186.5486287 155.8181295,186.1341699 Q155.4413488,185.7197112 155.2383059,185.1168621 Q155.035263,184.514013 155.035263,183.7395193 Q155.035263,182.977585 155.2362127,182.3726427 Q155.4371624,181.7677004 155.822316,181.3364958 Q156.1907237,180.9262235 156.7370557,180.708528 Q157.2833877,180.4908325 157.9281014,180.4908325 Q158.5979337,180.4908325 159.1317064,180.7106212 Q159.665479,180.93041 160.0380732,181.3364958 Z M159.9627171,183.7395193 Q159.9627171,182.5254482 159.4184783,181.866082 Q158.8742395,181.2067158 157.9322878,181.2067158 Q156.9819632,181.2067158 156.4398176,181.866082 Q155.8976721,182.5254482 155.8976721,183.7395193 Q155.8976721,184.9661498 156.4502838,185.6171431 Q157.0028955,186.2681364 157.9322878,186.2681364 Q158.8616802,186.2681364 159.4121986,185.6171431 Q159.9627171,184.9661498 159.9627171,183.7395193 Z" style="fill:rgb(68,68,68);stroke:none" />
<path d="M146.5647772,227.8094366 Q146.9457443,228.2280819 147.1487872,228.8351174 Q147.3518302,229.442153 147.3518302,230.2124602 Q147.3518302,230.9827673 147.1446008,231.5918961 Q146.9373714,232.2010249 146.5647772,232.6071108 Q146.1796236,233.0299424 145.6542238,233.2434515 Q145.1288241,233.4569605 144.4548053,233.4569605 Q143.7975323,233.4569605 143.2595732,233.239265 Q142.7216141,233.0215695 142.3448334,232.6071108 Q141.9680527,232.192652 141.7650098,231.5898029 Q141.5619669,230.9869538 141.5619669,230.2124602 Q141.5619669,229.4505259 141.7629166,228.8455835 Q141.9638663,228.2406412 142.3490199,227.8094366 Q142.7174277,227.3991643 143.2637597,227.1814688 Q143.8100917,226.9637733 144.4548053,226.9637733 Q145.1246376,226.9637733 145.6584103,227.1835621 Q146.1921829,227.4033508 146.5647772,227.8094366 Z M146.489421,230.2124602 Q146.489421,228.998389 145.9451822,228.3390228 Q145.4009435,227.6796566 144.4589918,227.6796566 Q143.5086671,227.6796566 142.9665216,228.3390228 Q142.424376,228.998389 142.424376,230.2124602 Q142.424376,231.4390906 142.9769877,232.0900839 Q143.5295994,232.7410772 144.4589918,232.7410772 Q145.3883841,232.7410772 145.9389026,232.0900839 Q146.489421,231.4390906 146.489421,230.2124602 Z" style="fill:rgb(68,68,68);stroke:none" />
<path d="M152.8354544,233.3271805 L152.0065369,233.3271805 L152.0065369,230.2752569 L148.896003,230.2752569 L148.896003,233.3271805 L148.0670855,233.3271805 L148.0670855,227.0935533 L148.896003,227.0935533 L148.896003,229.5384414 L152.0065369,229.5384414 L152.0065369,227.0935533 L152.8354544,227.0935533 Z" style="fill:rgb(68,68,68);stroke:none" />
</svg>
