<?xml version="1.0" encoding="UTF-8"?>
<!DOCTYPE svg PUBLIC "-//W3C//DTD SVG 1.1//EN" "http://www.w3.org/Graphics/SVG/1.1/DTD/svg11.dtd">
<svg version="1.2" xmlns="http://www.w3.org/2000/svg" xmlns:xlink="http://www.w3.org/1999/xlink" x="0mm" y="0mm" width="337mm" height="96mm" viewBox="0 0 337 96">
<style type="text/css"><![CDATA[
text { font:12px Dialog; }
]]></style>
<line x1="185.9719251" y1="55.1989445" x2="194.7073013" y2="39.6680838" style="fill:none;stroke:rgb(68,68,68);stroke-width:0.6873353;stroke-linecap:round;stroke-linejoin:round" />
<line x1="185.9763302" y1="55.5425839" x2="185.9675201" y2="54.8553051" style="fill:none;stroke:rgb(68,68,68);stroke-width:0.6873353;stroke-linecap:round;stroke-linejoin:round" />
<line x1="183.2869515" y1="55.8225559" x2="183.2718483" y2="54.6443636" style="fill:none;stroke:rgb(68,68,68);stroke-width:0.6873353;stroke-linecap:round;stroke-linejoin:round" />
<line x1="180.5975728" y1="56.1025279" x2="180.5761766" y2="54.4334221" style="fill:none;stroke:rgb(68,68,68);stroke-width:0.6873353;stroke-linecap:round;stroke-linejoin:round" />
<line x1="177.908194" y1="56.3824999" x2="177.8805049" y2="54.2224807" style="fill:none;stroke:rgb(68,68,68);stroke-width:0.6873353;stroke-linecap:round;stroke-linejoin:round" />
<line x1="175.2188153" y1="56.6624719" x2="175.1848332" y2="54.0115392" style="fill:none;stroke:rgb(68,68,68);stroke-width:0.6873353;stroke-linecap:round;stroke-linejoin:round" />
<line x1="172.5294366" y1="56.9424439" x2="172.4891615" y2="53.8005977" style="fill:none;stroke:rgb(68,68,68);stroke-width:0.6873353;stroke-linecap:round;stroke-linejoin:round" />
<line x1="185.9719251" y1="55.1989445" x2="195.0310075" y2="70.6477059" style="fill:none;stroke:rgb(68,68,68);stroke-width:0.6873353;stroke-linecap:round;stroke-linejoin:round" />
<line x1="194.7073013" y1="39.6680838" x2="208.6395316" y2="39.5430742" style="fill:none;stroke:rgb(68,68,68);stroke-width:0.6873353;stroke-linecap:round;stroke-linejoin:round" />
<path d="M194.4118044,39.8435518 L195.0027982,39.4926157 L186.5339885,21.6374121 L185.2851552,23.80072 L184.1629265,25.7447153 Z" style="fill:rgb(68,68,68);stroke:none" />
<line x1="149.1648394" y1="55.2587507" x2="149.1710346" y2="55.9460581" style="fill:none;stroke:rgb(68,68,68);stroke-width:0.6873353;stroke-linecap:round;stroke-linejoin:round" />
<line x1="152.1549767" y1="54.9453971" x2="152.1663346" y2="56.2054607" style="fill:none;stroke:rgb(68,68,68);stroke-width:0.6873353;stroke-linecap:round;stroke-linejoin:round" />
<line x1="155.145114" y1="54.6320435" x2="155.1616345" y2="56.4648633" style="fill:none;stroke:rgb(68,68,68);stroke-width:0.6873353;stroke-linecap:round;stroke-linejoin:round" />
<line x1="158.1352512" y1="54.3186899" x2="158.1569344" y2="56.7242658" style="fill:none;stroke:rgb(68,68,68);stroke-width:0.6873353;stroke-linecap:round;stroke-linejoin:round" />
<line x1="161.1253885" y1="54.0053363" x2="161.1522343" y2="56.9836684" style="fill:none;stroke:rgb(68,68,68);stroke-width:0.6873353;stroke-linecap:round;stroke-linejoin:round" />
<line x1="195.0310075" y1="70.6477059" x2="212.9873191" y2="70.5679522" style="fill:none;stroke:rgb(68,68,68);stroke-width:0.6873353;stroke-linecap:round;stroke-linejoin:round" />
<path d="M195.3299676,70.817206 L194.7320473,70.4782057 L186.9158867,81.6437404 L188.3391318,82.4506714 L189.7623769,83.2576024 Z" style="fill:rgb(68,68,68);stroke:none" />
<line x1="215.0452701" y1="43.3594964" x2="221.9666477" y2="54.9573377" style="fill:none;stroke:rgb(68,68,68);stroke-width:0.6873353;stroke-linecap:round;stroke-linejoin:round" />
<line x1="185.4863658" y1="24.1395687" x2="192.3068166" y2="12.3247538" style="fill:none;stroke:rgb(68,68,68);stroke-width:0.6873353;stroke-linecap:round;stroke-linejoin:round" />
<line x1="149.167937" y1="55.6024044" x2="140.1909541" y2="71.2153646" style="fill:none;stroke:rgb(68,68,68);stroke-width:0.6873353;stroke-linecap:round;stroke-linejoin:round" />
<line x1="149.167937" y1="55.6024044" x2="142.2468332" y2="44.0067825" style="fill:none;stroke:rgb(68,68,68);stroke-width:0.6873353;stroke-linecap:round;stroke-linejoin:round" />
<line x1="213.2837761" y1="70.3941111" x2="212.6908621" y2="70.7417932" style="fill:none;stroke:rgb(68,68,68);stroke-width:0.6873353;stroke-linecap:round;stroke-linejoin:round" />
<line x1="215.0406707" y1="72.8240372" x2="213.9536616" y2="73.4614543" style="fill:none;stroke:rgb(68,68,68);stroke-width:0.6873353;stroke-linecap:round;stroke-linejoin:round" />
<line x1="216.7975652" y1="75.2539632" x2="215.2164612" y2="76.1811154" style="fill:none;stroke:rgb(68,68,68);stroke-width:0.6873353;stroke-linecap:round;stroke-linejoin:round" />
<line x1="218.5544598" y1="77.6838893" x2="216.4792607" y2="78.9007764" style="fill:none;stroke:rgb(68,68,68);stroke-width:0.6873353;stroke-linecap:round;stroke-linejoin:round" />
<line x1="220.3113544" y1="80.1138153" x2="217.7420603" y2="81.6204375" style="fill:none;stroke:rgb(68,68,68);stroke-width:0.6873353;stroke-linecap:round;stroke-linejoin:round" />
<line x1="221.9619791" y1="54.6137018" x2="221.9713163" y2="55.3009737" style="fill:none;stroke:rgb(68,68,68);stroke-width:0.6873353;stroke-linecap:round;stroke-linejoin:round" />
<line x1="224.9508072" y1="54.2866797" x2="224.9679254" y2="55.5466782" style="fill:none;stroke:rgb(68,68,68);stroke-width:0.6873353;stroke-linecap:round;stroke-linejoin:round" />
<line x1="227.9396353" y1="53.9596577" x2="227.9645345" y2="55.7923827" style="fill:none;stroke:rgb(68,68,68);stroke-width:0.6873353;stroke-linecap:round;stroke-linejoin:round" />
<line x1="230.9284634" y1="53.6326356" x2="230.9611436" y2="56.0380873" style="fill:none;stroke:rgb(68,68,68);stroke-width:0.6873353;stroke-linecap:round;stroke-linejoin:round" />
<line x1="233.9172915" y1="53.3056136" x2="233.9577527" y2="56.2837918" style="fill:none;stroke:rgb(68,68,68);stroke-width:0.6873353;stroke-linecap:round;stroke-linejoin:round" />
<line x1="140.1909541" y1="71.2153646" x2="122.2322968" y2="71.3772177" style="fill:none;stroke:rgb(68,68,68);stroke-width:0.6873353;stroke-linecap:round;stroke-linejoin:round" />
<line x1="140.4878005" y1="71.0421893" x2="139.8941077" y2="71.3885399" style="fill:none;stroke:rgb(68,68,68);stroke-width:0.6873353;stroke-linecap:round;stroke-linejoin:round" />
<line x1="141.9939882" y1="73.1368519" x2="140.9762292" y2="73.7305959" style="fill:none;stroke:rgb(68,68,68);stroke-width:0.6873353;stroke-linecap:round;stroke-linejoin:round" />
<line x1="143.5001759" y1="75.2315145" x2="142.0583507" y2="76.0726518" style="fill:none;stroke:rgb(68,68,68);stroke-width:0.6873353;stroke-linecap:round;stroke-linejoin:round" />
<line x1="145.0063637" y1="77.3261771" x2="143.1404722" y2="78.4147078" style="fill:none;stroke:rgb(68,68,68);stroke-width:0.6873353;stroke-linecap:round;stroke-linejoin:round" />
<line x1="146.5125514" y1="79.4208398" x2="144.2225937" y2="80.7567637" style="fill:none;stroke:rgb(68,68,68);stroke-width:0.6873353;stroke-linecap:round;stroke-linejoin:round" />
<line x1="148.0187392" y1="81.5155024" x2="145.3047152" y2="83.0988197" style="fill:none;stroke:rgb(68,68,68);stroke-width:0.6873353;stroke-linecap:round;stroke-linejoin:round" />
<line x1="135.8408209" y1="40.1904866" x2="121.9085906" y2="40.3154962" style="fill:none;stroke:rgb(68,68,68);stroke-width:0.6873353;stroke-linecap:round;stroke-linejoin:round" />
<line x1="258.4520683" y1="54.6535115" x2="258.4370995" y2="53.9663391" style="fill:none;stroke:rgb(68,68,68);stroke-width:0.6873353;stroke-linecap:round;stroke-linejoin:round" />
<line x1="255.811468" y1="54.9565673" x2="255.7858072" y2="53.7785576" style="fill:none;stroke:rgb(68,68,68);stroke-width:0.6873353;stroke-linecap:round;stroke-linejoin:round" />
<line x1="253.1708676" y1="55.2596231" x2="253.1345148" y2="53.590776" style="fill:none;stroke:rgb(68,68,68);stroke-width:0.6873353;stroke-linecap:round;stroke-linejoin:round" />
<line x1="250.5302672" y1="55.5626789" x2="250.4832224" y2="53.4029945" style="fill:none;stroke:rgb(68,68,68);stroke-width:0.6873353;stroke-linecap:round;stroke-linejoin:round" />
<line x1="247.8896668" y1="55.8657347" x2="247.83193" y2="53.2152129" style="fill:none;stroke:rgb(68,68,68);stroke-width:0.6873353;stroke-linecap:round;stroke-linejoin:round" />
<line x1="245.2490665" y1="56.1687905" x2="245.1806377" y2="53.0274314" style="fill:none;stroke:rgb(68,68,68);stroke-width:0.6873353;stroke-linecap:round;stroke-linejoin:round" />
<line x1="122.2322968" y1="71.3772177" x2="113.1732144" y2="55.9261106" style="fill:none;stroke:rgb(68,68,68);stroke-width:0.6873353;stroke-linecap:round;stroke-linejoin:round" />
<path d="M122.5316244,71.546068 L121.9329692,71.2083673 L114.1050687,82.4512074 L115.5315546,83.2558864 L116.9580406,84.0605653 Z" style="fill:rgb(68,68,68);stroke:none" />
<path d="M121.613082,40.4909446 L122.2040991,40.1400477 L114.4607065,23.7319448 L112.6876551,24.7846354 L110.9146038,25.8373261 Z" style="fill:rgb(68,68,68);stroke:none" />
<line x1="258.4445839" y1="54.3099253" x2="267.3441589" y2="38.6993108" style="fill:none;stroke:rgb(68,68,68);stroke-width:0.6873353;stroke-linecap:round;stroke-linejoin:round" />
<line x1="258.4445839" y1="54.3099253" x2="267.4239126" y2="69.7586867" style="fill:none;stroke:rgb(68,68,68);stroke-width:0.6873353;stroke-linecap:round;stroke-linejoin:round" />
<line x1="113.1915739" y1="56.2692875" x2="113.154855" y2="55.5829337" style="fill:none;stroke:rgb(68,68,68);stroke-width:0.6873353;stroke-linecap:round;stroke-linejoin:round" />
<line x1="110.429959" y1="56.7038291" x2="110.362641" y2="55.4455138" style="fill:none;stroke:rgb(68,68,68);stroke-width:0.6873353;stroke-linecap:round;stroke-linejoin:round" />
<line x1="107.6683441" y1="57.1383707" x2="107.570427" y2="55.3080938" style="fill:none;stroke:rgb(68,68,68);stroke-width:0.6873353;stroke-linecap:round;stroke-linejoin:round" />
<line x1="104.9067291" y1="57.5729123" x2="104.7782129" y2="55.1706739" style="fill:none;stroke:rgb(68,68,68);stroke-width:0.6873353;stroke-linecap:round;stroke-linejoin:round" />
<line x1="102.1451142" y1="58.0074539" x2="101.9859989" y2="55.033254" style="fill:none;stroke:rgb(68,68,68);stroke-width:0.6873353;stroke-linecap:round;stroke-linejoin:round" />
<line x1="267.3441589" y1="38.6993108" x2="281.1942488" y2="38.6359858" style="fill:none;stroke:rgb(68,68,68);stroke-width:0.6873353;stroke-linecap:round;stroke-linejoin:round" />
<path d="M267.048265,38.8741087 L267.6400527,38.524513 L259.1662704,20.5711353 L257.9198236,22.7460108 L256.8007662,24.6986096 Z" style="fill:rgb(68,68,68);stroke:none" />
<line x1="267.4239126" y1="69.7586867" x2="285.4623236" y2="69.5968336" style="fill:none;stroke:rgb(68,68,68);stroke-width:0.6873353;stroke-linecap:round;stroke-linejoin:round" />
<path d="M267.7238185,69.9265078 L267.1240067,69.5908655 L259.4462125,80.6718282 L260.871002,81.4691108 L262.2957916,82.2663935 Z" style="fill:rgb(68,68,68);stroke:none" />
<line x1="78.5523185" y1="56.6356749" x2="78.5585137" y2="57.3229823" style="fill:none;stroke:rgb(68,68,68);stroke-width:0.6873353;stroke-linecap:round;stroke-linejoin:round" />
<line x1="81.5424557" y1="56.3223213" x2="81.5538136" y2="57.5823849" style="fill:none;stroke:rgb(68,68,68);stroke-width:0.6873353;stroke-linecap:round;stroke-linejoin:round" />
<line x1="84.532593" y1="56.0089677" x2="84.5491135" y2="57.8417875" style="fill:none;stroke:rgb(68,68,68);stroke-width:0.6873353;stroke-linecap:round;stroke-linejoin:round" />
<line x1="87.5227303" y1="55.6956141" x2="87.5444135" y2="58.1011901" style="fill:none;stroke:rgb(68,68,68);stroke-width:0.6873353;stroke-linecap:round;stroke-linejoin:round" />
<line x1="90.5128675" y1="55.3822605" x2="90.5397134" y2="58.3605926" style="fill:none;stroke:rgb(68,68,68);stroke-width:0.6873353;stroke-linecap:round;stroke-linejoin:round" />
<line x1="287.6096479" y1="42.4660364" x2="294.5214059" y2="53.9862191" style="fill:none;stroke:rgb(68,68,68);stroke-width:0.6873353;stroke-linecap:round;stroke-linejoin:round" />
<line x1="258.1208777" y1="23.0863507" x2="264.7946444" y2="11.4415601" style="fill:none;stroke:rgb(68,68,68);stroke-width:0.6873353;stroke-linecap:round;stroke-linejoin:round" />
<line x1="285.7585172" y1="69.4225441" x2="285.16613" y2="69.771123" style="fill:none;stroke:rgb(68,68,68);stroke-width:0.6873353;stroke-linecap:round;stroke-linejoin:round" />
<line x1="287.2756321" y1="71.5167461" x2="286.2601111" y2="72.1143098" style="fill:none;stroke:rgb(68,68,68);stroke-width:0.6873353;stroke-linecap:round;stroke-linejoin:round" />
<line x1="288.7927469" y1="73.610948" x2="287.3540922" y2="74.4574967" style="fill:none;stroke:rgb(68,68,68);stroke-width:0.6873353;stroke-linecap:round;stroke-linejoin:round" />
<line x1="290.3098618" y1="75.70515" x2="288.4480734" y2="76.8006835" style="fill:none;stroke:rgb(68,68,68);stroke-width:0.6873353;stroke-linecap:round;stroke-linejoin:round" />
<line x1="291.8269767" y1="77.7993519" x2="289.5420545" y2="79.1438704" style="fill:none;stroke:rgb(68,68,68);stroke-width:0.6873353;stroke-linecap:round;stroke-linejoin:round" />
<line x1="293.3440916" y1="79.8935538" x2="290.6360357" y2="81.4870572" style="fill:none;stroke:rgb(68,68,68);stroke-width:0.6873353;stroke-linecap:round;stroke-linejoin:round" />
<line x1="78.5554161" y1="56.9793286" x2="69.4142343" y2="41.4484679" style="fill:none;stroke:rgb(68,68,68);stroke-width:0.6873353;stroke-linecap:round;stroke-linejoin:round" />
<line x1="78.5554161" y1="56.9793286" x2="69.5760874" y2="72.5899431" style="fill:none;stroke:rgb(68,68,68);stroke-width:0.6873353;stroke-linecap:round;stroke-linejoin:round" />
<path d="M294.5198346,53.642555 L294.5229772,54.3298832 L308.379127,55.5919356 L308.3714959,53.9228941 L308.3638647,52.2538525 Z" style="fill:rgb(68,68,68);stroke:none" />
<line x1="69.4142343" y1="41.4484679" x2="51.378169" y2="41.610321" style="fill:none;stroke:rgb(68,68,68);stroke-width:0.6873353;stroke-linecap:round;stroke-linejoin:round" />
<line x1="67.5737637" y1="44.7011206" x2="53.2774032" y2="44.8294141" style="fill:none;stroke:rgb(68,68,68);stroke-width:0.6873353;stroke-linecap:round;stroke-linejoin:round" />
<line x1="69.5760874" y1="72.5899431" x2="51.5400221" y2="72.8315499" style="fill:none;stroke:rgb(68,68,68);stroke-width:0.6873353;stroke-linecap:round;stroke-linejoin:round" />
<line x1="69.8729338" y1="72.4167678" x2="69.279241" y2="72.7631184" style="fill:none;stroke:rgb(68,68,68);stroke-width:0.6873353;stroke-linecap:round;stroke-linejoin:round" />
<line x1="71.3791215" y1="74.5114304" x2="70.3613625" y2="75.1051744" style="fill:none;stroke:rgb(68,68,68);stroke-width:0.6873353;stroke-linecap:round;stroke-linejoin:round" />
<line x1="72.8853093" y1="76.606093" x2="71.443484" y2="77.4472303" style="fill:none;stroke:rgb(68,68,68);stroke-width:0.6873353;stroke-linecap:round;stroke-linejoin:round" />
<line x1="74.391497" y1="78.7007557" x2="72.5256055" y2="79.7892863" style="fill:none;stroke:rgb(68,68,68);stroke-width:0.6873353;stroke-linecap:round;stroke-linejoin:round" />
<line x1="75.8976848" y1="80.7954183" x2="73.607727" y2="82.1313423" style="fill:none;stroke:rgb(68,68,68);stroke-width:0.6873353;stroke-linecap:round;stroke-linejoin:round" />
<line x1="77.4038725" y1="82.8900809" x2="74.6898485" y2="84.4733982" style="fill:none;stroke:rgb(68,68,68);stroke-width:0.6873353;stroke-linecap:round;stroke-linejoin:round" />
<line x1="51.378169" y1="41.610321" x2="42.4785941" y2="57.3827886" style="fill:none;stroke:rgb(68,68,68);stroke-width:0.6873353;stroke-linecap:round;stroke-linejoin:round" />
<line x1="51.378169" y1="41.610321" x2="42.1548879" y2="26.0794602" style="fill:none;stroke:rgb(68,68,68);stroke-width:0.6873353;stroke-linecap:round;stroke-linejoin:round" />
<path d="M51.8385802,73.0017572 L51.241464,72.6613426 L43.4356548,83.7474087 L44.8554627,84.5568379 L46.2752707,85.3662671 Z" style="fill:rgb(68,68,68);stroke:none" />
<path d="M42.4739704,57.7264251 L42.4832178,57.039152 L28.6508498,55.5275121 L28.6283941,57.1964305 L28.6059383,58.865349 Z" style="fill:rgb(68,68,68);stroke:none" />
<line x1="42.1548879" y1="26.0794602" x2="48.7721444" y2="14.3641524" style="fill:none;stroke:rgb(68,68,68);stroke-width:0.6873353;stroke-linecap:round;stroke-linejoin:round" />
<line x1="212.9873191" y1="70.5679522" x2="221.9666477" y2="54.9573377" style="fill:none;stroke:rgb(68,68,68);stroke-width:0.6873353;stroke-linecap:round;stroke-linejoin:round" />
<line x1="121.9085906" y1="40.3154962" x2="113.1732144" y2="55.9261106" style="fill:none;stroke:rgb(68,68,68);stroke-width:0.6873353;stroke-linecap:round;stroke-linejoin:round" />
<line x1="285.4623236" y1="69.5968336" x2="294.5214059" y2="53.9862191" style="fill:none;stroke:rgb(68,68,68);stroke-width:0.6873353;stroke-linecap:round;stroke-linejoin:round" />
<line x1="51.5400221" y1="72.8315499" x2="42.4785941" y2="57.3827886" style="fill:none;stroke:rgb(68,68,68);stroke-width:0.6873353;stroke-linecap:round;stroke-linejoin:round" />
<path d="M169.1131758,53.1751099 Q169.4726443,53.5701302 169.6642292,54.1429096 Q169.855814,54.7156891 169.855814,55.4425264 Q169.855814,56.1693638 169.660279,56.7441183 Q169.4647439,57.3188729 169.1131758,57.7020425 Q168.7497572,58.101013 168.2540067,58.3024734 Q167.7582562,58.5039338 167.1222735,58.5039338 Q166.5020917,58.5039338 165.9944906,58.2985232 Q165.4868895,58.0931126 165.1313712,57.7020425 Q164.7758529,57.3109724 164.5842681,56.7421432 Q164.3926832,56.173314 164.3926832,55.4425264 Q164.3926832,54.7235895 164.582293,54.1527851 Q164.7719027,53.5819808 165.1353214,53.1751099 Q165.4829393,52.78799 165.9984408,52.5825794 Q166.5139423,52.3771689 167.1222735,52.3771689 Q167.754306,52.3771689 168.2579569,52.5845546 Q168.7616078,52.7919402 169.1131758,53.1751099 Z M169.0420722,55.4425264 Q169.0420722,54.2969676 168.5285458,53.6748106 Q168.0150194,53.0526536 167.1262237,53.0526536 Q166.2295276,53.0526536 165.7179764,53.6748106 Q165.2064251,54.2969676 165.2064251,55.4425264 Q165.2064251,56.5999359 165.7278519,57.2141925 Q166.2492787,57.828449 167.1262237,57.828449 Q168.0031688,57.828449 168.5226205,57.2141925 Q169.0420722,56.5999359 169.0420722,55.4425264 Z" style="fill:rgb(68,68,68);stroke:none" />
<path d="M214.7346395,37.2407892 Q215.094108,37.6358095 215.2856928,38.208589 Q215.4772777,38.7813684 215.4772777,39.5082058 Q215.4772777,40.2350431 215.2817426,40.8097977 Q215.0862076,41.3845522 214.7346395,41.7677219 Q214.3712208,42.1666924 213.8754703,42.3681527 Q213.3797199,42.5696131 212.7437372,42.5696131 Q212.1235553,42.5696131 211.6159542,42.3642025 Q211.1083531,42.158792 210.7528349,41.7677219 Q210.3973166,41.3766518 210.2057317,40.8078226 Q210.0141469,40.2389933 210.0141469,39.5082058 Q210.0141469,38.7892688 210.2037566,38.2184645 Q210.3933664,37.6476601 210.7567851,37.2407892 Q211.1044029,36.8536693 211.6199044,36.6482588 Q212.1354059,36.4428482 212.7437372,36.4428482 Q213.3757697,36.4428482 213.8794205,36.6502339 Q214.3830714,36.8576195 214.7346395,37.2407892 Z M214.6635358,39.5082058 Q214.6635358,38.3626469 214.1500094,37.7404899 Q213.6364831,37.1183329 212.7476874,37.1183329 Q211.8509913,37.1183329 211.33944,37.7404899 Q210.8278887,38.3626469 210.8278887,39.5082058 Q210.8278887,40.6656152 211.3493155,41.2798718 Q211.8707423,41.8941284 212.7476874,41.8941284 Q213.6246324,41.8941284 214.1440841,41.2798718 Q214.6635358,40.6656152 214.6635358,39.5082058 Z" style="fill:rgb(68,68,68);stroke:none" />
<path d="M188.1227055,84.0749783 Q188.4821739,84.4699986 188.6737588,85.042778 Q188.8653436,85.6155575 188.8653436,86.3423948 Q188.8653436,87.0692322 188.6698086,87.6439867 Q188.4742735,88.2187413 188.1227055,88.601911 Q187.7592868,89.0008815 187.2635363,89.2023418 Q186.7677858,89.4038022 186.1318031,89.4038022 Q185.5116213,89.4038022 185.0040202,89.1983916 Q184.4964191,88.9929811 184.1409008,88.601911 Q183.7853826,88.2108409 183.5937977,87.6420116 Q183.4022129,87.0731824 183.4022129,86.3423948 Q183.4022129,85.6234579 183.5918226,85.0526536 Q183.7814323,84.4818492 184.144851,84.0749783 Q184.4924689,83.6878584 185.0079704,83.4824479 Q185.5234719,83.2770373 186.1318031,83.2770373 Q186.7638356,83.2770373 187.2674865,83.484423 Q187.7711374,83.6918086 188.1227055,84.0749783 Z M188.0516018,86.3423948 Q188.0516018,85.196836 187.5380754,84.574679 Q187.024549,83.952522 186.1357533,83.952522 Q185.2390573,83.952522 184.727506,84.574679 Q184.2159547,85.196836 184.2159547,86.3423948 Q184.2159547,87.4998043 184.7373815,88.1140609 Q185.2588083,88.7283175 186.1357533,88.7283175 Q187.0126984,88.7283175 187.5321501,88.1140609 Q188.0516018,87.4998043 188.0516018,86.3423948 Z" style="fill:rgb(68,68,68);stroke:none" />
<path d="M182.7273207,89.2813459 L181.9451805,89.2813459 L181.9451805,86.4016479 L179.0101796,86.4016479 L179.0101796,89.2813459 L178.2280395,89.2813459 L178.2280395,83.3994936 L179.0101796,83.3994936 L179.0101796,85.7064122 L181.9451805,85.7064122 L181.9451805,83.3994936 L182.7273207,83.3994936 Z" style="fill:rgb(68,68,68);stroke:none" />
<path d="M196.5343754,6.1814134 Q196.8938439,6.5764337 197.0854287,7.1492132 Q197.2770136,7.7219926 197.2770136,8.4488299 Q197.2770136,9.1756673 197.0814785,9.7504218 Q196.8859435,10.3251764 196.5343754,10.7083461 Q196.1709567,11.1073166 195.6752062,11.3087769 Q195.1794558,11.5102373 194.5434731,11.5102373 Q193.9232912,11.5102373 193.4156901,11.3048267 Q192.908089,11.0994162 192.5525708,10.7083461 Q192.1970525,10.317276 192.0054676,9.7484467 Q191.8138828,9.1796175 191.8138828,8.4488299 Q191.8138828,7.729893 192.0034925,7.1590887 Q192.1931023,6.5882843 192.556521,6.1814134 Q192.9041388,5.7942935 193.4196403,5.588883 Q193.9351418,5.3834724 194.5434731,5.3834724 Q195.1755056,5.3834724 195.6791564,5.5908581 Q196.1828073,5.7982437 196.5343754,6.1814134 Z M196.4632717,8.4488299 Q196.4632717,7.3032711 195.9497453,6.6811141 Q195.436219,6.0589571 194.5474233,6.0589571 Q193.6507272,6.0589571 193.1391759,6.6811141 Q192.6276246,7.3032711 192.6276246,8.4488299 Q192.6276246,9.6062394 193.1490514,10.220496 Q193.6704782,10.8347526 194.5474233,10.8347526 Q195.4243683,10.8347526 195.94382,10.220496 Q196.4632717,9.6062394 196.4632717,8.4488299 Z" style="fill:rgb(68,68,68);stroke:none" />
<path d="M202.451187,11.387781 L201.6690468,11.387781 L201.6690468,8.508083 L198.7340459,8.508083 L198.7340459,11.387781 L197.9519057,11.387781 L197.9519057,5.5059287 L198.7340459,5.5059287 L198.7340459,7.8128473 L201.6690468,7.8128473 L201.6690468,5.5059287 L202.451187,5.5059287 Z" style="fill:rgb(68,68,68);stroke:none" />
<path d="M141.9359288,37.8882016 Q142.2953973,38.2832219 142.4869821,38.8560014 Q142.678567,39.4287808 142.678567,40.1556182 Q142.678567,40.8824555 142.4830319,41.4572101 Q142.2874969,42.0319646 141.9359288,42.4151343 Q141.5725101,42.8141048 141.0767596,43.0155651 Q140.5810092,43.2170255 139.9450265,43.2170255 Q139.3248446,43.2170255 138.8172435,43.0116149 Q138.3096424,42.8062044 137.9541242,42.4151343 Q137.5986059,42.0240642 137.407021,41.455235 Q137.2154362,40.8864057 137.2154362,40.1556182 Q137.2154362,39.4366812 137.4050459,38.8658769 Q137.5946557,38.2950726 137.9580744,37.8882016 Q138.3056922,37.5010818 138.8211937,37.2956712 Q139.3366952,37.0902606 139.9450265,37.0902606 Q140.577059,37.0902606 141.0807098,37.2976463 Q141.5843607,37.505032 141.9359288,37.8882016 Z M141.8648251,40.1556182 Q141.8648251,39.0100593 141.3512987,38.3879023 Q140.8377724,37.7657454 139.9489767,37.7657454 Q139.0522806,37.7657454 138.5407293,38.3879023 Q138.029178,39.0100593 138.029178,40.1556182 Q138.029178,41.3130277 138.5506048,41.9272842 Q139.0720316,42.5415408 139.9489767,42.5415408 Q140.8259217,42.5415408 141.3453734,41.9272842 Q141.8648251,41.3130277 141.8648251,40.1556182 Z" style="fill:rgb(68,68,68);stroke:none" />
<path d="M224.0353286,83.7512721 Q224.3947971,84.1462924 224.586382,84.7190718 Q224.7779668,85.2918513 224.7779668,86.0186886 Q224.7779668,86.745526 224.5824318,87.3202805 Q224.3868967,87.8950351 224.0353286,88.2782047 Q223.67191,88.6771753 223.1761595,88.8786356 Q222.680409,89.080096 222.0444263,89.080096 Q221.4242445,89.080096 220.9166434,88.8746854 Q220.4090423,88.6692748 220.053524,88.2782047 Q219.6980057,87.8871347 219.5064209,87.3183054 Q219.3148361,86.7494762 219.3148361,86.0186886 Q219.3148361,85.2997517 219.5044458,84.7289473 Q219.6940555,84.158143 220.0574742,83.7512721 Q220.4050921,83.3641522 220.9205936,83.1587417 Q221.4360951,82.9533311 222.0444263,82.9533311 Q222.6764588,82.9533311 223.1801097,83.1607168 Q223.6837606,83.3681024 224.0353286,83.7512721 Z M223.964225,86.0186886 Q223.964225,84.8731298 223.4506986,84.2509728 Q222.9371722,83.6288158 222.0483765,83.6288158 Q221.1516805,83.6288158 220.6401292,84.2509728 Q220.1285779,84.8731298 220.1285779,86.0186886 Q220.1285779,87.1760981 220.6500047,87.7903547 Q221.1714315,88.4046112 222.0483765,88.4046112 Q222.9253216,88.4046112 223.4447733,87.7903547 Q223.964225,87.1760981 223.964225,86.0186886 Z" style="fill:rgb(68,68,68);stroke:none" />
<path d="M229.9521402,88.9576397 L229.17,88.9576397 L229.17,86.0779417 L226.2349992,86.0779417 L226.2349992,88.9576397 L225.452859,88.9576397 L225.452859,83.0757874 L226.2349992,83.0757874 L226.2349992,85.3827059 L229.17,85.3827059 L229.17,83.0757874 L229.9521402,83.0757874 Z" style="fill:rgb(68,68,68);stroke:none" />
<path d="M241.9118865,52.4479438 Q242.271355,52.8429641 242.4629399,53.4157435 Q242.6545247,53.988523 242.6545247,54.7153603 Q242.6545247,55.4421977 242.4589897,56.0169522 Q242.2634546,56.5917067 241.9118865,56.9748764 Q241.5484679,57.3738469 241.0527174,57.5753073 Q240.5569669,57.7767676 239.9209842,57.7767676 Q239.3008024,57.7767676 238.7932013,57.5713571 Q238.2856002,57.3659465 237.9300819,56.9748764 Q237.5745636,56.5838063 237.3829788,56.0149771 Q237.1913939,55.4461479 237.1913939,54.7153603 Q237.1913939,53.9964234 237.3810037,53.425619 Q237.5706134,52.8548147 237.9340321,52.4479438 Q238.28165,52.0608239 238.7971515,51.8554133 Q239.312653,51.6500028 239.9209842,51.6500028 Q240.5530167,51.6500028 241.0566676,51.8573884 Q241.5603185,52.0647741 241.9118865,52.4479438 Z M241.8407829,54.7153603 Q241.8407829,53.5698014 241.3272565,52.9476445 Q240.8137301,52.3254875 239.9249344,52.3254875 Q239.0282383,52.3254875 238.5166871,52.9476445 Q238.0051358,53.5698014 238.0051358,54.7153603 Q238.0051358,55.8727698 238.5265626,56.4870264 Q239.0479894,57.1012829 239.9249344,57.1012829 Q240.8018795,57.1012829 241.3213312,56.4870264 Q241.8407829,55.8727698 241.8407829,54.7153603 Z" style="fill:rgb(68,68,68);stroke:none" />
<path d="M151.2389636,84.4784382 Q151.5984321,84.8734585 151.790017,85.446238 Q151.9816018,86.0190174 151.9816018,86.7458547 Q151.9816018,87.4726921 151.7860668,88.0474466 Q151.5905317,88.6222012 151.2389636,89.0053709 Q150.875545,89.4043414 150.3797945,89.6058017 Q149.884044,89.8072621 149.2480613,89.8072621 Q148.6278795,89.8072621 148.1202784,89.6018515 Q147.6126773,89.396441 147.257159,89.0053709 Q146.9016407,88.6143008 146.7100559,88.0454715 Q146.5184711,87.4766423 146.5184711,86.7458547 Q146.5184711,86.0269178 146.7080808,85.4561135 Q146.8976905,84.8853091 147.2611092,84.4784382 Q147.6087271,84.0913183 148.1242286,83.8859078 Q148.6397301,83.6804972 149.2480613,83.6804972 Q149.8800938,83.6804972 150.3837447,83.8878829 Q150.8873956,84.0952685 151.2389636,84.4784382 Z M151.16786,86.7458547 Q151.16786,85.6002959 150.6543336,84.9781389 Q150.1408072,84.3559819 149.2520115,84.3559819 Q148.3553154,84.3559819 147.8437642,84.9781389 Q147.3322129,85.6002959 147.3322129,86.7458547 Q147.3322129,87.9032642 147.8536397,88.5175208 Q148.3750665,89.1317774 149.2520115,89.1317774 Q150.1289566,89.1317774 150.6484083,88.5175208 Q151.16786,87.9032642 151.16786,86.7458547 Z" style="fill:rgb(68,68,68);stroke:none" />
<path d="M157.1557752,89.6848058 L156.373635,89.6848058 L156.373635,86.8051078 L153.4386342,86.8051078 L153.4386342,89.6848058 L152.656494,89.6848058 L152.656494,83.8029535 L153.4386342,83.8029535 L153.4386342,86.1098721 L156.373635,86.1098721 L156.373635,83.8029535 L157.1557752,83.8029535 Z" style="fill:rgb(68,68,68);stroke:none" />
<path d="M115.3239948,84.8842438 Q115.6834632,85.2792641 115.8750481,85.8520436 Q116.0666329,86.424823 116.0666329,87.1516603 Q116.0666329,87.8784977 115.8710979,88.4532522 Q115.6755628,89.0280068 115.3239948,89.4111765 Q114.9605761,89.810147 114.4648256,90.0116073 Q113.9690751,90.2130677 113.3330924,90.2130677 Q112.7129106,90.2130677 112.2053095,90.0076571 Q111.6977084,89.8022466 111.3421901,89.4111765 Q110.9866719,89.0201064 110.795087,88.4512771 Q110.6035022,87.8824479 110.6035022,87.1516603 Q110.6035022,86.4327234 110.7931119,85.8619191 Q110.9827216,85.2911147 111.3461403,84.8842438 Q111.6937582,84.4971239 112.2092597,84.2917134 Q112.7247612,84.0863028 113.3330924,84.0863028 Q113.9651249,84.0863028 114.4687758,84.2936885 Q114.9724267,84.5010741 115.3239948,84.8842438 Z M115.2528911,87.1516603 Q115.2528911,86.0061015 114.7393647,85.3839445 Q114.2258383,84.7617875 113.3370426,84.7617875 Q112.4403466,84.7617875 111.9287953,85.3839445 Q111.417244,86.0061015 111.417244,87.1516603 Q111.417244,88.3090698 111.9386708,88.9233264 Q112.4600976,89.537583 113.3370426,89.537583 Q114.2139877,89.537583 114.7334394,88.9233264 Q115.2528911,88.3090698 115.2528911,87.1516603 Z" style="fill:rgb(68,68,68);stroke:none" />
<path d="M109.92861,90.0906114 L109.1464698,90.0906114 L109.1464698,87.2109134 L106.2114689,87.2109134 L106.2114689,90.0906114 L105.4293288,90.0906114 L105.4293288,84.2087591 L106.2114689,84.2087591 L106.2114689,86.5156777 L109.1464698,86.5156777 L109.1464698,84.2087591 L109.92861,84.2087591 Z" style="fill:rgb(68,68,68);stroke:none" />
<path d="M98.755443,59.7584017 L97.7876432,59.7584017 L94.9987999,54.4967313 L94.9987999,59.7584017 L94.2680124,59.7584017 L94.2680124,53.8765494 L95.4807247,53.8765494 L98.0246554,58.6799963 L98.0246554,53.8765494 L98.755443,53.8765494 Z" style="fill:rgb(68,68,68);stroke:none" />
<path d="M98.7672936,66.3151461 L97.9851534,66.3151461 L97.9851534,63.4354482 L95.0501525,63.4354482 L95.0501525,66.3151461 L94.2680124,66.3151461 L94.2680124,60.4332939 L95.0501525,60.4332939 L95.0501525,62.7402124 L97.9851534,62.7402124 L97.9851534,60.4332939 L98.7672936,60.4332939 Z" style="fill:rgb(68,68,68);stroke:none" />
<path d="M287.2893977,36.35177 Q287.6488662,36.7467903 287.840451,37.3195698 Q288.0320359,37.8923492 288.0320359,38.6191865 Q288.0320359,39.3460239 287.8365008,39.9207784 Q287.6409658,40.495533 287.2893977,40.8787027 Q286.925979,41.2776732 286.4302285,41.4791335 Q285.9344781,41.6805939 285.2984954,41.6805939 Q284.6783135,41.6805939 284.1707124,41.4751833 Q283.6631113,41.2697728 283.3075931,40.8787027 Q282.9520748,40.4876326 282.7604899,39.9188033 Q282.5689051,39.3499741 282.5689051,38.6191865 Q282.5689051,37.9002496 282.7585148,37.3294453 Q282.9481246,36.7586409 283.3115433,36.35177 Q283.6591611,35.9646501 284.1746626,35.7592396 Q284.6901641,35.553829 285.2984954,35.553829 Q285.9305279,35.553829 286.4341787,35.7612147 Q286.9378296,35.9686003 287.2893977,36.35177 Z M287.218294,38.6191865 Q287.218294,37.4736277 286.7047676,36.8514707 Q286.1912413,36.2293137 285.3024456,36.2293137 Q284.4057495,36.2293137 283.8941982,36.8514707 Q283.3826469,37.4736277 283.3826469,38.6191865 Q283.3826469,39.776596 283.9040737,40.3908526 Q284.4255005,41.0051092 285.3024456,41.0051092 Q286.1793906,41.0051092 286.6988423,40.3908526 Q287.218294,39.776596 287.218294,38.6191865 Z" style="fill:rgb(68,68,68);stroke:none" />
<path d="M260.6774637,83.1038597 Q261.0369321,83.49888 261.228517,84.0716594 Q261.4201018,84.6444389 261.4201018,85.3712762 Q261.4201018,86.0981136 261.2245668,86.6728681 Q261.0290317,87.2476226 260.6774637,87.6307923 Q260.314045,88.0297628 259.8182945,88.2312232 Q259.322544,88.4326835 258.6865613,88.4326835 Q258.0663795,88.4326835 257.5587784,88.227273 Q257.0511773,88.0218624 256.695659,87.6307923 Q256.3401408,87.2397222 256.1485559,86.670893 Q255.9569711,86.1020638 255.9569711,85.3712762 Q255.9569711,84.6523393 256.1465808,84.0815349 Q256.3361905,83.5107306 256.6996092,83.1038597 Q257.0472271,82.7167398 257.5627286,82.5113292 Q258.0782301,82.3059187 258.6865613,82.3059187 Q259.3185938,82.3059187 259.8222447,82.5133043 Q260.3258956,82.72069 260.6774637,83.1038597 Z M260.60636,85.3712762 Q260.60636,84.2257173 260.0928336,83.6035604 Q259.5793072,82.9814034 258.6905115,82.9814034 Q257.7938155,82.9814034 257.2822642,83.6035604 Q256.7707129,84.2257173 256.7707129,85.3712762 Q256.7707129,86.5286857 257.2921397,87.1429423 Q257.8135665,87.7571988 258.6905115,87.7571988 Q259.5674566,87.7571988 260.0869083,87.1429423 Q260.60636,86.5286857 260.60636,85.3712762 Z" style="fill:rgb(68,68,68);stroke:none" />
<path d="M255.2820789,88.3102273 L254.4999387,88.3102273 L254.4999387,85.4305293 L251.5649378,85.4305293 L251.5649378,88.3102273 L250.7827977,88.3102273 L250.7827977,82.428375 L251.5649378,82.428375 L251.5649378,84.7352935 L254.4999387,84.7352935 L254.4999387,82.428375 L255.2820789,82.428375 Z" style="fill:rgb(68,68,68);stroke:none" />
<path d="M269.0093799,5.2923942 Q269.3688484,5.6874145 269.5604332,6.2601939 Q269.7520181,6.8329734 269.7520181,7.5598107 Q269.7520181,8.2866481 269.556483,8.8614026 Q269.360948,9.4361572 269.0093799,9.8193269 Q268.6459612,10.2182974 268.1502107,10.4197577 Q267.6544603,10.6212181 267.0184776,10.6212181 Q266.3982957,10.6212181 265.8906946,10.4158075 Q265.3830935,10.210397 265.0275753,9.8193269 Q264.672057,9.4282568 264.4804721,8.8594275 Q264.2888873,8.2905983 264.2888873,7.5598107 Q264.2888873,6.8408738 264.478497,6.2700695 Q264.6681068,5.6992651 265.0315255,5.2923942 Q265.3791433,4.9052743 265.8946448,4.6998638 Q266.4101463,4.4944532 267.0184776,4.4944532 Q267.6505101,4.4944532 268.1541609,4.7018389 Q268.6578118,4.9092245 269.0093799,5.2923942 Z M268.9382762,7.5598107 Q268.9382762,6.4142519 268.4247498,5.7920949 Q267.9112235,5.1699379 267.0224278,5.1699379 Q266.1257317,5.1699379 265.6141804,5.7920949 Q265.1026291,6.4142519 265.1026291,7.5598107 Q265.1026291,8.7172202 265.6240559,9.3314768 Q266.1454827,9.9457333 267.0224278,9.9457333 Q267.8993728,9.9457333 268.4188245,9.3314768 Q268.9382762,8.7172202 268.9382762,7.5598107 Z" style="fill:rgb(68,68,68);stroke:none" />
<path d="M274.9261915,10.4987618 L274.1440513,10.4987618 L274.1440513,7.6190638 L271.2090504,7.6190638 L271.2090504,10.4987618 L270.4269102,10.4987618 L270.4269102,4.6169095 L271.2090504,4.6169095 L271.2090504,6.923828 L274.1440513,6.923828 L274.1440513,4.6169095 L274.9261915,4.6169095 Z" style="fill:rgb(68,68,68);stroke:none" />
<path d="M296.5900868,82.8622529 Q296.9495553,83.2572732 297.1411402,83.8300526 Q297.332725,84.4028321 297.332725,85.1296694 Q297.332725,85.8565068 297.13719,86.4312613 Q296.9416549,87.0060158 296.5900868,87.3891855 Q296.2266682,87.788156 295.7309177,87.9896164 Q295.2351672,88.1910767 294.5991845,88.1910767 Q293.9790027,88.1910767 293.4714016,87.9856662 Q292.9638005,87.7802556 292.6082822,87.3891855 Q292.2527639,86.9981154 292.0611791,86.4292862 Q291.8695943,85.860457 291.8695943,85.1296694 Q291.8695943,84.4107325 292.059204,83.8399281 Q292.2488137,83.2691238 292.6122324,82.8622529 Q292.9598503,82.475133 293.4753518,82.2697224 Q293.9908533,82.0643119 294.5991845,82.0643119 Q295.231217,82.0643119 295.7348679,82.2716975 Q296.2385188,82.4790832 296.5900868,82.8622529 Z M296.5189832,85.1296694 Q296.5189832,83.9841105 296.0054568,83.3619536 Q295.4919304,82.7397966 294.6031347,82.7397966 Q293.7064387,82.7397966 293.1948874,83.3619536 Q292.6833361,83.9841105 292.6833361,85.1296694 Q292.6833361,86.2870789 293.2047629,86.9013355 Q293.7261897,87.515592 294.6031347,87.515592 Q295.4800798,87.515592 295.9995315,86.9013355 Q296.5189832,86.2870789 296.5189832,85.1296694 Z" style="fill:rgb(68,68,68);stroke:none" />
<path d="M302.5068984,88.0686205 L301.7247582,88.0686205 L301.7247582,85.1889225 L298.7897574,85.1889225 L298.7897574,88.0686205 L298.0076172,88.0686205 L298.0076172,82.1867682 L298.7897574,82.1867682 L298.7897574,84.4936867 L301.7247582,84.4936867 L301.7247582,82.1867682 L302.5068984,82.1867682 Z" style="fill:rgb(68,68,68);stroke:none" />
<path d="M314.4666447,51.6386783 Q314.8261132,52.0336986 315.0176981,52.606478 Q315.2092829,53.1792574 315.2092829,53.9060948 Q315.2092829,54.6329322 315.0137479,55.2076867 Q314.8182128,55.7824412 314.4666447,56.1656109 Q314.1032261,56.5645814 313.6074756,56.7660418 Q313.1117251,56.9675021 312.4757424,56.9675021 Q311.8555606,56.9675021 311.3479595,56.7620916 Q310.8403584,56.556681 310.4848401,56.1656109 Q310.1293218,55.7745408 309.937737,55.2057116 Q309.7461521,54.6368824 309.7461521,53.9060948 Q309.7461521,53.1871579 309.9357619,52.6163535 Q310.1253716,52.0455492 310.4887903,51.6386783 Q310.8364082,51.2515584 311.3519097,51.0461478 Q311.8674112,50.8407373 312.4757424,50.8407373 Q313.1077749,50.8407373 313.6114258,51.0481229 Q314.1150767,51.2555086 314.4666447,51.6386783 Z M314.3955411,53.9060948 Q314.3955411,52.7605359 313.8820147,52.138379 Q313.3684883,51.516222 312.4796926,51.516222 Q311.5829965,51.516222 311.0714453,52.138379 Q310.559894,52.7605359 310.559894,53.9060948 Q310.559894,55.0635043 311.0813208,55.6777608 Q311.6027476,56.2920174 312.4796926,56.2920174 Q313.3566377,56.2920174 313.8760894,55.6777608 Q314.3955411,55.0635043 314.3955411,53.9060948 Z" style="fill:rgb(68,68,68);stroke:none" />
<path d="M320.3834563,56.8450458 L319.6013161,56.8450458 L319.6013161,53.9653478 L316.6663153,53.9653478 L316.6663153,56.8450458 L315.8841751,56.8450458 L315.8841751,50.9631936 L316.6663153,50.9631936 L316.6663153,53.2701121 L319.6013161,53.2701121 L319.6013161,50.9631936 L320.3834563,50.9631936 Z" style="fill:rgb(68,68,68);stroke:none" />
<path d="M80.624097,85.8530167 Q80.9835655,86.248037 81.1751503,86.8208165 Q81.3667351,87.3935959 81.3667351,88.1204333 Q81.3667351,88.8472706 81.1712001,89.4220252 Q80.975665,89.9967797 80.624097,90.3799494 Q80.2606783,90.7789199 79.7649278,90.9803802 Q79.2691773,91.1818406 78.6331947,91.1818406 Q78.0130128,91.1818406 77.5054117,90.97643 Q76.9978106,90.7710195 76.6422923,90.3799494 Q76.2867741,89.9888793 76.0951892,89.4200501 Q75.9036044,88.8512208 75.9036044,88.1204333 Q75.9036044,87.4014963 76.0932141,86.830692 Q76.2828239,86.2598876 76.6462426,85.8530167 Q76.9938604,85.4658968 77.5093619,85.2604863 Q78.0248634,85.0550757 78.6331947,85.0550757 Q79.2652271,85.0550757 79.768878,85.2624614 Q80.2725289,85.469847 80.624097,85.8530167 Z M80.5529933,88.1204333 Q80.5529933,86.9748744 80.0394669,86.3527174 Q79.5259405,85.7305604 78.6371449,85.7305604 Q77.7404488,85.7305604 77.2288975,86.3527174 Q76.7173462,86.9748744 76.7173462,88.1204333 Q76.7173462,89.2778427 77.238773,89.8920993 Q77.7601998,90.5063559 78.6371449,90.5063559 Q79.5140899,90.5063559 80.0335416,89.8920993 Q80.5529933,89.2778427 80.5529933,88.1204333 Z" style="fill:rgb(68,68,68);stroke:none" />
<path d="M86.5409086,91.0593843 L85.7587684,91.0593843 L85.7587684,88.1796863 L82.8237675,88.1796863 L82.8237675,91.0593843 L82.0416273,91.0593843 L82.0416273,85.177532 L82.8237675,85.177532 L82.8237675,87.4844506 L85.7587684,87.4844506 L85.7587684,85.177532 L86.5409086,85.177532 Z" style="fill:rgb(68,68,68);stroke:none" />
<path d="M44.6293744,86.1767229 Q44.9888429,86.5717432 45.1804277,87.1445227 Q45.3720126,87.7173021 45.3720126,88.4441395 Q45.3720126,89.1709768 45.1764775,89.7457314 Q44.9809425,90.3204859 44.6293744,90.7036556 Q44.2659557,91.1026261 43.7702052,91.3040864 Q43.2744548,91.5055468 42.6384721,91.5055468 Q42.0182902,91.5055468 41.5106891,91.3001362 Q41.003088,91.0947257 40.6475698,90.7036556 Q40.2920515,90.3125855 40.1004666,89.7437563 Q39.9088818,89.174927 39.9088818,88.4441395 Q39.9088818,87.7252025 40.0984915,87.1543982 Q40.2881013,86.5835939 40.65152,86.1767229 Q40.9991378,85.789603 41.5146393,85.5841925 Q42.0301408,85.3787819 42.6384721,85.3787819 Q43.2705046,85.3787819 43.7741554,85.5861676 Q44.2778063,85.7935533 44.6293744,86.1767229 Z M44.5582707,88.4441395 Q44.5582707,87.2985806 44.0447443,86.6764236 Q43.531218,86.0542667 42.6424223,86.0542667 Q41.7457262,86.0542667 41.2341749,86.6764236 Q40.7226236,87.2985806 40.7226236,88.4441395 Q40.7226236,89.601549 41.2440504,90.2158055 Q41.7654772,90.8300621 42.6424223,90.8300621 Q43.5193673,90.8300621 44.038819,90.2158055 Q44.5582707,89.601549 44.5582707,88.4441395 Z" style="fill:rgb(68,68,68);stroke:none" />
<path d="M39.2339896,91.3830905 L38.4518494,91.3830905 L38.4518494,88.5033925 L35.5168486,88.5033925 L35.5168486,91.3830905 L34.7347084,91.3830905 L34.7347084,85.5012382 L35.5168486,85.5012382 L35.5168486,87.8081568 L38.4518494,87.8081568 L38.4518494,85.5012382 L39.2339896,85.5012382 Z" style="fill:rgb(68,68,68);stroke:none" />
<path d="M26.5112097,54.8757403 Q26.8706782,55.2707606 27.062263,55.8435401 Q27.2538479,56.4163195 27.2538479,57.1431569 Q27.2538479,57.8699942 27.0583128,58.4447487 Q26.8627778,59.0195033 26.5112097,59.402673 Q26.147791,59.8016435 25.6520405,60.0031038 Q25.1562901,60.2045642 24.5203074,60.2045642 Q23.9001255,60.2045642 23.3925244,59.9991536 Q22.8849233,59.7937431 22.5294051,59.402673 Q22.1738868,59.0116029 21.9823019,58.4427736 Q21.7907171,57.8739444 21.7907171,57.1431569 Q21.7907171,56.4242199 21.9803268,55.8534156 Q22.1699366,55.2826112 22.5333553,54.8757403 Q22.8809731,54.4886204 23.3964746,54.2832099 Q23.9119761,54.0777993 24.5203074,54.0777993 Q25.1523399,54.0777993 25.6559907,54.285185 Q26.1596416,54.4925706 26.5112097,54.8757403 Z M26.440106,57.1431569 Q26.440106,55.997598 25.9265796,55.375441 Q25.4130533,54.753284 24.5242576,54.753284 Q23.6275615,54.753284 23.1160102,55.375441 Q22.6044589,55.997598 22.6044589,57.1431569 Q22.6044589,58.3005663 23.1258857,58.9148229 Q23.6473125,59.5290795 24.5242576,59.5290795 Q25.4012026,59.5290795 25.9206543,58.9148229 Q26.440106,58.3005663 26.440106,57.1431569 Z" style="fill:rgb(68,68,68);stroke:none" />
<path d="M21.1158249,60.0821079 L20.3336847,60.0821079 L20.3336847,57.2024099 L17.3986839,57.2024099 L17.3986839,60.0821079 L16.6165437,60.0821079 L16.6165437,54.2002556 L17.3986839,54.2002556 L17.3986839,56.5071742 L20.3336847,56.5071742 L20.3336847,54.2002556 L21.1158249,54.2002556 Z" style="fill:rgb(68,68,68);stroke:none" />
<path d="M52.9612906,8.2034044 Q53.3207591,8.5984247 53.5123439,9.1712041 Q53.7039288,9.7439835 53.7039288,10.4708209 Q53.7039288,11.1976582 53.5083937,11.7724128 Q53.3128587,12.3471673 52.9612906,12.730337 Q52.5978719,13.1293075 52.1021215,13.3307679 Q51.606371,13.5322282 50.9703883,13.5322282 Q50.3502064,13.5322282 49.8426053,13.3268177 Q49.3350043,13.1214071 48.979486,12.730337 Q48.6239677,12.3392669 48.4323829,11.7704377 Q48.240798,11.2016084 48.240798,10.4708209 Q48.240798,9.7518839 48.4304078,9.1810796 Q48.6200175,8.6102753 48.9834362,8.2034044 Q49.3310541,7.8162845 49.8465556,7.6108739 Q50.362057,7.4054633 50.9703883,7.4054633 Q51.6024208,7.4054633 52.1060717,7.612849 Q52.6097226,7.8202347 52.9612906,8.2034044 Z M52.890187,10.4708209 Q52.890187,9.325262 52.3766606,8.703105 Q51.8631342,8.0809481 50.9743385,8.0809481 Q50.0776424,8.0809481 49.5660911,8.703105 Q49.0545398,9.325262 49.0545398,10.4708209 Q49.0545398,11.6282304 49.5759666,12.2424869 Q50.0973934,12.8567435 50.9743385,12.8567435 Q51.8512836,12.8567435 52.3707353,12.2424869 Q52.890187,11.6282304 52.890187,10.4708209 Z" style="fill:rgb(68,68,68);stroke:none" />
<path d="M58.8781022,13.4097719 L58.095962,13.4097719 L58.095962,10.5300739 L55.1609612,10.5300739 L55.1609612,13.4097719 L54.378821,13.4097719 L54.378821,7.5279196 L55.1609612,7.5279196 L55.1609612,9.8348382 L58.095962,9.8348382 L58.095962,7.5279196 L58.8781022,7.5279196 Z" style="fill:rgb(68,68,68);stroke:none" />
</svg>
