<?xml version="1.0" encoding="UTF-8"?>
<!DOCTYPE svg PUBLIC "-//W3C//DTD SVG 1.1//EN" "http://www.w3.org/Graphics/SVG/1.1/DTD/svg11.dtd">
<svg version="1.2" xmlns="http://www.w3.org/2000/svg" xmlns:xlink="http://www.w3.org/1999/xlink" x="0mm" y="0mm" width="205mm" height="104mm" viewBox="0 0 205 104">
<style type="text/css"><![CDATA[
text { font:12px Dialog; }
]]></style>
<line x1="134.5049084" y1="67.1470818" x2="146.6942015" y2="60.0574234" style="fill:none;stroke:rgb(68,68,68);stroke-width:0.6919056;stroke-linecap:round;stroke-linejoin:round" />
<line x1="166.668087" y1="65.3291689" x2="153.673924" y2="59.6016759" style="fill:none;stroke:rgb(68,68,68);stroke-width:0.6919056;stroke-linecap:round;stroke-linejoin:round" />
<line x1="151.9274806" y1="39.9858851" x2="150.5761254" y2="53.71036" style="fill:none;stroke:rgb(68,68,68);stroke-width:0.6919056;stroke-linecap:round;stroke-linejoin:round" />
<line x1="118.7954743" y1="58.1418817" x2="134.5049084" y2="67.1470818" style="fill:none;stroke:rgb(68,68,68);stroke-width:0.6919056;stroke-linecap:round;stroke-linejoin:round" />
<line x1="132.8781931" y1="80.6860835" x2="132.8760057" y2="66.2133375" style="fill:none;stroke:rgb(68,68,68);stroke-width:0.6919056;stroke-linecap:round;stroke-linejoin:round" />
<line x1="136.1357162" y1="80.6855912" x2="136.1335269" y2="66.1998285" style="fill:none;stroke:rgb(68,68,68);stroke-width:0.6919056;stroke-linecap:round;stroke-linejoin:round" />
<path d="M167.006487,65.2572748 L166.329687,65.4010631 L168.5587487,84.8019512 L170.4427055,83.0960015 L172.8468063,83.8546129 Z" style="fill:rgb(68,68,68);stroke:none" />
<line x1="178.6872669" y1="51.9179794" x2="166.668087" y2="65.3291689" style="fill:none;stroke:rgb(68,68,68);stroke-width:0.6919056;stroke-linecap:round;stroke-linejoin:round" />
<line x1="118.7954743" y1="58.1418817" x2="106.6104431" y2="65.2307377" style="fill:none;stroke:rgb(68,68,68);stroke-width:0.6919056;stroke-linecap:round;stroke-linejoin:round" />
<line x1="87.6147307" y1="58.277953" x2="99.6954488" y2="65.2477201" style="fill:none;stroke:rgb(68,68,68);stroke-width:0.6919056;stroke-linecap:round;stroke-linejoin:round" />
<path d="M118.4495215,58.1418817 L119.141427,58.1418817 L120.8711909,40.1410064 L118.7954743,40.1410064 L116.7197576,40.1410064 Z" style="fill:rgb(68,68,68);stroke:none" />
<line x1="170.4427055" y1="83.0960015" x2="160.3539103" y2="92.2315489" style="fill:none;stroke:rgb(68,68,68);stroke-width:0.6919056;stroke-linecap:round;stroke-linejoin:round" />
<line x1="171.2442471" y1="86.7647801" x2="162.5404247" y2="94.6462149" style="fill:none;stroke:rgb(68,68,68);stroke-width:0.6919056;stroke-linecap:round;stroke-linejoin:round" />
<line x1="183.6832784" y1="87.2740498" x2="170.4427055" y2="83.0960015" style="fill:none;stroke:rgb(68,68,68);stroke-width:0.6919056;stroke-linecap:round;stroke-linejoin:round" />
<path d="M87.2687935,58.2812402 L87.9606678,58.2746658 L89.6318854,38.9057483 L87.4432808,40.2348956 L85.2360483,39.0066928 Z" style="fill:rgb(68,68,68);stroke:none" />
<line x1="87.4432808" y1="40.2348956" x2="99.197857" y2="33.0963001" style="fill:none;stroke:rgb(68,68,68);stroke-width:0.6919056;stroke-linecap:round;stroke-linejoin:round" />
<line x1="87.3716955" y1="36.4671823" x2="97.5069469" y2="30.3120085" style="fill:none;stroke:rgb(68,68,68);stroke-width:0.6919056;stroke-linecap:round;stroke-linejoin:round" />
<line x1="75.3601942" y1="33.5113264" x2="87.4432808" y2="40.2348956" style="fill:none;stroke:rgb(68,68,68);stroke-width:0.6919056;stroke-linecap:round;stroke-linejoin:round" />
<line x1="71.9719714" y1="67.378403" x2="87.6147307" y2="58.277953" style="fill:none;stroke:rgb(68,68,68);stroke-width:0.6919056;stroke-linecap:round;stroke-linejoin:round" />
<line x1="56.3278515" y1="58.4766171" x2="71.9719714" y2="67.378403" style="fill:none;stroke:rgb(68,68,68);stroke-width:0.6919056;stroke-linecap:round;stroke-linejoin:round" />
<line x1="169.5881776" y1="36.2738594" x2="151.9274806" y2="39.9858851" style="fill:none;stroke:rgb(68,68,68);stroke-width:0.6919056;stroke-linecap:round;stroke-linejoin:round" />
<line x1="71.3487648" y1="13.3254309" x2="71.5599242" y2="26.9677663" style="fill:none;stroke:rgb(68,68,68);stroke-width:0.6919056;stroke-linecap:round;stroke-linejoin:round" />
<line x1="40.6850922" y1="67.5757065" x2="56.3278515" y2="58.4766171" style="fill:none;stroke:rgb(68,68,68);stroke-width:0.6919056;stroke-linecap:round;stroke-linejoin:round" />
<line x1="169.5881776" y1="36.2738594" x2="178.6872669" y2="51.9179794" style="fill:none;stroke:rgb(68,68,68);stroke-width:0.6919056;stroke-linecap:round;stroke-linejoin:round" />
<line x1="24.975658" y1="58.5705063" x2="40.6850922" y2="67.5757065" style="fill:none;stroke:rgb(68,68,68);stroke-width:0.6919056;stroke-linecap:round;stroke-linejoin:round" />
<line x1="24.9876926" y1="62.3321841" x2="37.4275691" y2="69.4631588" style="fill:none;stroke:rgb(68,68,68);stroke-width:0.6919056;stroke-linecap:round;stroke-linejoin:round" />
<line x1="40.6850922" y1="85.5765817" x2="40.6850922" y2="67.5757065" style="fill:none;stroke:rgb(68,68,68);stroke-width:0.6919056;stroke-linecap:round;stroke-linejoin:round" />
<line x1="9.3328988" y1="67.6709564" x2="24.975658" y2="58.5705063" style="fill:none;stroke:rgb(68,68,68);stroke-width:0.6919056;stroke-linecap:round;stroke-linejoin:round" />
<line x1="25.0409723" y1="94.6770318" x2="40.6850922" y2="85.5765817" style="fill:none;stroke:rgb(68,68,68);stroke-width:0.6919056;stroke-linecap:round;stroke-linejoin:round" />
<line x1="25.0226583" y1="90.9190892" x2="37.4275691" y2="83.702942" style="fill:none;stroke:rgb(68,68,68);stroke-width:0.6919056;stroke-linecap:round;stroke-linejoin:round" />
<line x1="9.3941309" y1="85.7779673" x2="9.3328988" y2="67.6709564" style="fill:none;stroke:rgb(68,68,68);stroke-width:0.6919056;stroke-linecap:round;stroke-linejoin:round" />
<line x1="12.6452527" y1="83.8795003" x2="12.5967639" y2="69.5408246" style="fill:none;stroke:rgb(68,68,68);stroke-width:0.6919056;stroke-linecap:round;stroke-linejoin:round" />
<line x1="9.3941309" y1="85.7779673" x2="25.0409723" y2="94.6770318" style="fill:none;stroke:rgb(68,68,68);stroke-width:0.6919056;stroke-linecap:round;stroke-linejoin:round" />
<line x1="71.3487648" y1="13.3254309" x2="55.5359164" y2="4.5243377" style="fill:none;stroke:rgb(68,68,68);stroke-width:0.6919056;stroke-linecap:round;stroke-linejoin:round" />
<path d="M152.4076626,61.0084734 L151.4334278,61.0084734 L148.6260409,55.7118171 L148.6260409,61.0084734 L147.8903942,61.0084734 L147.8903942,55.0875115 L149.1111701,55.0875115 L151.6720159,59.9228974 L151.6720159,55.0875115 L152.4076626,55.0875115 Z" style="fill:rgb(68,68,68);stroke:none" />
<path d="M105.4113492,70.2028127 L104.4371144,70.2028127 L101.6297275,64.9061564 L101.6297275,70.2028127 L100.8940808,70.2028127 L100.8940808,64.2818508 L102.1148567,64.2818508 L104.6757025,69.1172367 L104.6757025,64.2818508 L105.4113492,64.2818508 Z" style="fill:rgb(68,68,68);stroke:none" />
<path d="M105.4232786,76.8031542 L104.6359378,76.8031542 L104.6359378,73.9043085 L101.6814216,73.9043085 L101.6814216,76.8031542 L100.8940808,76.8031542 L100.8940808,70.8821923 L101.6814216,70.8821923 L101.6814216,73.2044501 L104.6359378,73.2044501 L104.6359378,70.8821923 L105.4232786,70.8821923 Z" style="fill:rgb(68,68,68);stroke:none" />
<path d="M136.5097819,82.8728951 Q136.8716405,83.270542 137.0644992,83.8471299 Q137.257358,84.4237179 137.257358,85.1553881 Q137.257358,85.8870584 137.0605228,86.4656346 Q136.8636876,87.0442108 136.5097819,87.4299282 Q136.1439467,87.8315516 135.6448999,88.0343515 Q135.1458531,88.2371514 134.5056416,88.2371514 Q133.8813361,88.2371514 133.3703598,88.030375 Q132.8593836,87.8235986 132.5015014,87.4299282 Q132.1436192,87.0362578 131.9507605,86.4636463 Q131.7579018,85.8910349 131.7579018,85.1553881 Q131.7579018,84.4316708 131.9487723,83.8570711 Q132.1396428,83.2824714 132.5054779,82.8728951 Q132.8554071,82.4832012 133.3743363,82.2764248 Q133.8932655,82.0696484 134.5056416,82.0696484 Q135.1418766,82.0696484 135.6488764,82.278413 Q136.1558761,82.4871777 136.5097819,82.8728951 Z M136.4382054,85.1553881 Q136.4382054,84.0022122 135.9212645,83.3759184 Q135.4043236,82.7496246 134.5096181,82.7496246 Q133.6069597,82.7496246 133.092007,83.3759184 Q132.5770543,84.0022122 132.5770543,85.1553881 Q132.5770543,86.3204935 133.1019482,86.9388344 Q133.6268421,87.5571752 134.5096181,87.5571752 Q135.3923942,87.5571752 135.9152998,86.9388344 Q136.4382054,86.3204935 136.4382054,85.1553881 Z" style="fill:rgb(68,68,68);stroke:none" />
<path d="M160.1881572,94.111406 Q160.5500158,94.5090529 160.7428746,95.0856408 Q160.9357333,95.6622288 160.9357333,96.393899 Q160.9357333,97.1255693 160.7388981,97.7041455 Q160.5420629,98.2827217 160.1881572,98.6684391 Q159.8223221,99.0700625 159.3232752,99.2728624 Q158.8242284,99.4756623 158.184017,99.4756623 Q157.5597114,99.4756623 157.0487351,99.2688859 Q156.5377589,99.0621095 156.1798767,98.6684391 Q155.8219946,98.2747687 155.6291358,97.7021572 Q155.4362771,97.1295458 155.4362771,96.393899 Q155.4362771,95.6701817 155.6271476,95.095582 Q155.8180181,94.5209823 156.1838532,94.111406 Q156.5337825,93.7217121 157.0527116,93.5149357 Q157.5716408,93.3081593 158.184017,93.3081593 Q158.820252,93.3081593 159.3272517,93.5169239 Q159.8342515,93.7256886 160.1881572,94.111406 Z M160.1165807,96.393899 Q160.1165807,95.2407231 159.5996398,94.6144293 Q159.0826989,93.9881355 158.1879934,93.9881355 Q157.285335,93.9881355 156.7703823,94.6144293 Q156.2554296,95.2407231 156.2554296,96.393899 Q156.2554296,97.5590044 156.7803235,98.1773453 Q157.3052174,98.7956861 158.1879934,98.7956861 Q159.0707695,98.7956861 159.5936751,98.1773453 Q160.1165807,97.5590044 160.1165807,96.393899 Z" style="fill:rgb(68,68,68);stroke:none" />
<path d="M104.0263836,27.1937344 Q104.3882422,27.5913813 104.581101,28.1679693 Q104.7739597,28.7445572 104.7739597,29.4762275 Q104.7739597,30.2078977 104.5771245,30.7864739 Q104.3802893,31.3650501 104.0263836,31.7507676 Q103.6605485,32.1523909 103.1615016,32.3551908 Q102.6624548,32.5579907 102.0222434,32.5579907 Q101.3979378,32.5579907 100.8869616,32.3512143 Q100.3759853,32.144438 100.0181031,31.7507676 Q99.660221,31.3570971 99.4673622,30.7844857 Q99.2745035,30.2118742 99.2745035,29.4762275 Q99.2745035,28.7525102 99.465374,28.1779104 Q99.6562445,27.6033107 100.0220796,27.1937344 Q100.3720089,26.8040405 100.890938,26.5972641 Q101.4098672,26.3904878 102.0222434,26.3904878 Q102.6584784,26.3904878 103.1654781,26.5992524 Q103.6724779,26.808017 104.0263836,27.1937344 Z M103.9548071,29.4762275 Q103.9548071,28.3230515 103.4378662,27.6967577 Q102.9209253,27.0704639 102.0262198,27.0704639 Q101.1235614,27.0704639 100.6086087,27.6967577 Q100.093656,28.3230515 100.093656,29.4762275 Q100.093656,30.6413328 100.6185499,31.2596737 Q101.1434438,31.8780145 102.0262198,31.8780145 Q102.9089959,31.8780145 103.4319015,31.2596737 Q103.9548071,30.6413328 103.9548071,29.4762275 Z" style="fill:rgb(68,68,68);stroke:none" />
<path d="M189.7109476,86.2637925 Q190.0728062,86.6614393 190.2656649,87.2380273 Q190.4585237,87.8146153 190.4585237,88.5462855 Q190.4585237,89.2779557 190.2616885,89.8565319 Q190.0648533,90.4351081 189.7109476,90.8208256 Q189.3451124,91.2224489 188.8460656,91.4252488 Q188.3470188,91.6280487 187.7068073,91.6280487 Q187.0825018,91.6280487 186.5715255,91.4212724 Q186.0605493,91.214496 185.7026671,90.8208256 Q185.3447849,90.4271552 185.1519262,89.8545437 Q184.9590675,89.2819322 184.9590675,88.5462855 Q184.9590675,87.8225682 185.149938,87.2479685 Q185.3408085,86.6733688 185.7066436,86.2637925 Q186.0565728,85.8740985 186.575502,85.6673222 Q187.0944312,85.4605458 187.7068073,85.4605458 Q188.3430423,85.4605458 188.8500421,85.6693104 Q189.3570419,85.878075 189.7109476,86.2637925 Z M189.6393711,88.5462855 Q189.6393711,87.3931096 189.1224302,86.7668158 Q188.6054893,86.1405219 187.7107838,86.1405219 Q186.8081254,86.1405219 186.2931727,86.7668158 Q185.77822,87.3931096 185.77822,88.5462855 Q185.77822,89.7113908 186.3031139,90.3297317 Q186.8280078,90.9480726 187.7107838,90.9480726 Q188.5935599,90.9480726 189.1164655,90.3297317 Q189.6393711,89.7113908 189.6393711,88.5462855 Z" style="fill:rgb(68,68,68);stroke:none" />
<path d="M195.6671012,91.5047782 L194.8797604,91.5047782 L194.8797604,88.6059325 L191.9252442,88.6059325 L191.9252442,91.5047782 L191.1379034,91.5047782 L191.1379034,85.5838163 L191.9252442,85.5838163 L191.9252442,87.906074 L194.8797604,87.906074 L194.8797604,85.5838163 L195.6671012,85.5838163 Z" style="fill:rgb(68,68,68);stroke:none" />
<path d="M73.6312237,29.1546584 Q73.9930823,29.5523053 74.1859411,30.1288932 Q74.3787998,30.7054812 74.3787998,31.4371514 Q74.3787998,32.1688217 74.1819646,32.7473979 Q73.9851294,33.325974 73.6312237,33.7116915 Q73.2653886,34.1133148 72.7663418,34.3161148 Q72.2672949,34.5189147 71.6270835,34.5189147 Q71.0027779,34.5189147 70.4918017,34.3121383 Q69.9808254,34.1053619 69.6229433,33.7116915 Q69.2650611,33.3180211 69.0722023,32.7454096 Q68.8793436,32.1727981 68.8793436,31.4371514 Q68.8793436,30.7134341 69.0702141,30.1388344 Q69.2610846,29.5642347 69.6269197,29.1546584 Q69.976849,28.7649645 70.4957781,28.5581881 Q71.0147073,28.3514117 71.6270835,28.3514117 Q72.2633185,28.3514117 72.7703182,28.5601763 Q73.277318,28.7689409 73.6312237,29.1546584 Z M73.5596473,31.4371514 Q73.5596473,30.2839755 73.0427063,29.6576817 Q72.5257654,29.0313879 71.6310599,29.0313879 Q70.7284015,29.0313879 70.2134489,29.6576817 Q69.6984962,30.2839755 69.6984962,31.4371514 Q69.6984962,32.6022567 70.22339,33.2205976 Q70.7482839,33.8389385 71.6310599,33.8389385 Q72.513836,33.8389385 73.0367416,33.2205976 Q73.5596473,32.6022567 73.5596473,31.4371514 Z" style="fill:rgb(68,68,68);stroke:none" />
</svg>
