<?xml version="1.0" encoding="UTF-8"?>
<!DOCTYPE svg PUBLIC "-//W3C//DTD SVG 1.1//EN" "http://www.w3.org/Graphics/SVG/1.1/DTD/svg11.dtd">
<svg version="1.2" xmlns="http://www.w3.org/2000/svg" xmlns:xlink="http://www.w3.org/1999/xlink" x="0mm" y="0mm" width="218mm" height="113mm" viewBox="0 0 218 113">
<style type="text/css"><![CDATA[
text { font:12px Dialog; }
]]></style>
<line x1="112.3985121" y1="68.3624691" x2="112.3985121" y2="50.4479461" style="fill:none;stroke:rgb(68,68,68);stroke-width:0.6992607;stroke-linecap:round;stroke-linejoin:round" />
<line x1="129.7942877" y1="44.7638925" x2="112.3985121" y2="50.4479461" style="fill:none;stroke:rgb(68,68,68);stroke-width:0.6992607;stroke-linecap:round;stroke-linejoin:round" />
<line x1="96.8870757" y1="41.1370938" x2="112.3985121" y2="50.4479461" style="fill:none;stroke:rgb(68,68,68);stroke-width:0.6992607;stroke-linecap:round;stroke-linejoin:round" />
<path d="M112.0488818,50.4479461 L112.7481425,50.4479461 L114.4962943,31.6621933 L112.3985121,31.6621933 L110.3007299,31.6621933 Z" style="fill:rgb(68,68,68);stroke:none" />
<line x1="96.8870757" y1="77.1567907" x2="112.3985121" y2="68.3624691" style="fill:none;stroke:rgb(68,68,68);stroke-width:0.6992607;stroke-linecap:round;stroke-linejoin:round" />
<line x1="129.7942877" y1="74.0553902" x2="112.3985121" y2="68.3624691" style="fill:none;stroke:rgb(68,68,68);stroke-width:0.6992607;stroke-linecap:round;stroke-linejoin:round" />
<line x1="112.7481425" y1="68.3624691" x2="112.0488818" y2="68.3624691" style="fill:none;stroke:rgb(68,68,68);stroke-width:0.6992607;stroke-linecap:round;stroke-linejoin:round" />
<line x1="112.9978785" y1="70.9967436" x2="111.7991458" y2="70.9967436" style="fill:none;stroke:rgb(68,68,68);stroke-width:0.6992607;stroke-linecap:round;stroke-linejoin:round" />
<line x1="113.2476145" y1="73.631018" x2="111.5494098" y2="73.631018" style="fill:none;stroke:rgb(68,68,68);stroke-width:0.6992607;stroke-linecap:round;stroke-linejoin:round" />
<line x1="113.4973504" y1="76.2652925" x2="111.2996739" y2="76.2652925" style="fill:none;stroke:rgb(68,68,68);stroke-width:0.6992607;stroke-linecap:round;stroke-linejoin:round" />
<line x1="113.7470864" y1="78.8995669" x2="111.0499379" y2="78.8995669" style="fill:none;stroke:rgb(68,68,68);stroke-width:0.6992607;stroke-linecap:round;stroke-linejoin:round" />
<line x1="113.9968224" y1="81.5338414" x2="110.8002019" y2="81.5338414" style="fill:none;stroke:rgb(68,68,68);stroke-width:0.6992607;stroke-linecap:round;stroke-linejoin:round" />
<line x1="80.6861928" y1="50.4479461" x2="80.6861928" y2="68.3624691" style="fill:none;stroke:rgb(68,68,68);stroke-width:0.6992607;stroke-linecap:round;stroke-linejoin:round" />
<line x1="64.8377922" y1="77.1567907" x2="80.6861928" y2="68.3624691" style="fill:none;stroke:rgb(68,68,68);stroke-width:0.6992607;stroke-linecap:round;stroke-linejoin:round" />
<line x1="96.8870757" y1="77.1567907" x2="80.6861928" y2="68.3624691" style="fill:none;stroke:rgb(68,68,68);stroke-width:0.6992607;stroke-linecap:round;stroke-linejoin:round" />
<line x1="96.8870757" y1="95.7585433" x2="96.8870757" y2="77.1567907" style="fill:none;stroke:rgb(68,68,68);stroke-width:0.6992607;stroke-linecap:round;stroke-linejoin:round" />
<line x1="64.8377922" y1="95.7585433" x2="64.8377922" y2="77.1567907" style="fill:none;stroke:rgb(68,68,68);stroke-width:0.6992607;stroke-linecap:round;stroke-linejoin:round" />
<path d="M64.4881619,77.1567907 L65.1874226,77.1567907 L66.9355744,59.2334002 L64.8377922,59.2334002 L62.74001,59.2334002 Z" style="fill:rgb(68,68,68);stroke:none" />
<line x1="49.3263558" y1="68.3624691" x2="64.8377922" y2="77.1567907" style="fill:none;stroke:rgb(68,68,68);stroke-width:0.6992607;stroke-linecap:round;stroke-linejoin:round" />
<line x1="140.1315506" y1="59.577015" x2="129.7942877" y2="44.7638925" style="fill:none;stroke:rgb(68,68,68);stroke-width:0.6992607;stroke-linecap:round;stroke-linejoin:round" />
<line x1="129.7942877" y1="25.9781397" x2="129.7942877" y2="44.7638925" style="fill:none;stroke:rgb(68,68,68);stroke-width:0.6992607;stroke-linecap:round;stroke-linejoin:round" />
<line x1="129.6235972" y1="44.4587595" x2="129.9649782" y2="45.0690255" style="fill:none;stroke:rgb(68,68,68);stroke-width:0.6992607;stroke-linecap:round;stroke-linejoin:round" />
<line x1="131.7917017" y1="42.9597734" x2="132.3769263" y2="44.0059437" style="fill:none;stroke:rgb(68,68,68);stroke-width:0.6992607;stroke-linecap:round;stroke-linejoin:round" />
<line x1="133.9598062" y1="41.4607873" x2="134.7888743" y2="42.9428619" style="fill:none;stroke:rgb(68,68,68);stroke-width:0.6992607;stroke-linecap:round;stroke-linejoin:round" />
<line x1="136.1279107" y1="39.9618013" x2="137.2008224" y2="41.8797801" style="fill:none;stroke:rgb(68,68,68);stroke-width:0.6992607;stroke-linecap:round;stroke-linejoin:round" />
<line x1="138.2960152" y1="38.4628152" x2="139.6127704" y2="40.8166983" style="fill:none;stroke:rgb(68,68,68);stroke-width:0.6992607;stroke-linecap:round;stroke-linejoin:round" />
<line x1="140.4641197" y1="36.9638291" x2="142.0247185" y2="39.7536166" style="fill:none;stroke:rgb(68,68,68);stroke-width:0.6992607;stroke-linecap:round;stroke-linejoin:round" />
<line x1="80.6861928" y1="50.4479461" x2="96.8870757" y2="41.1370938" style="fill:none;stroke:rgb(68,68,68);stroke-width:0.6992607;stroke-linecap:round;stroke-linejoin:round" />
<line x1="140.1315506" y1="59.577015" x2="129.7942877" y2="74.0553902" style="fill:none;stroke:rgb(68,68,68);stroke-width:0.6992607;stroke-linecap:round;stroke-linejoin:round" />
<line x1="80.6861928" y1="104.8964797" x2="96.8870757" y2="95.7585433" style="fill:none;stroke:rgb(68,68,68);stroke-width:0.6992607;stroke-linecap:round;stroke-linejoin:round" />
<line x1="49.3263558" y1="104.8964797" x2="64.8377922" y2="95.7585433" style="fill:none;stroke:rgb(68,68,68);stroke-width:0.6992607;stroke-linecap:round;stroke-linejoin:round" />
<line x1="80.6861928" y1="104.8964797" x2="64.8377922" y2="95.7585433" style="fill:none;stroke:rgb(68,68,68);stroke-width:0.6992607;stroke-linecap:round;stroke-linejoin:round" />
<line x1="80.7041301" y1="101.1066332" x2="68.1299439" y2="93.8565569" style="fill:none;stroke:rgb(68,68,68);stroke-width:0.6992607;stroke-linecap:round;stroke-linejoin:round" />
<line x1="33.3072562" y1="77.1567907" x2="49.3263558" y2="68.3624691" style="fill:none;stroke:rgb(68,68,68);stroke-width:0.6992607;stroke-linecap:round;stroke-linejoin:round" />
<line x1="33.3072562" y1="95.7585433" x2="49.3263558" y2="104.8964797" style="fill:none;stroke:rgb(68,68,68);stroke-width:0.6992607;stroke-linecap:round;stroke-linejoin:round" />
<line x1="33.3072562" y1="95.7585433" x2="33.3072562" y2="77.1567907" style="fill:none;stroke:rgb(68,68,68);stroke-width:0.6992607;stroke-linecap:round;stroke-linejoin:round" />
<path d="M33.4844055,96.0599725 L33.130107,95.4571142 L19.9280515,101.6540875 L20.7874519,103.1164044 L21.6468522,104.5787212 Z" style="fill:rgb(68,68,68);stroke:none" />
<line x1="81.0358232" y1="68.3624691" x2="80.3365625" y2="68.3624691" style="fill:none;stroke:rgb(68,68,68);stroke-width:0.6992607;stroke-linecap:round;stroke-linejoin:round" />
<line x1="81.2855592" y1="70.976475" x2="80.0868265" y2="70.976475" style="fill:none;stroke:rgb(68,68,68);stroke-width:0.6992607;stroke-linecap:round;stroke-linejoin:round" />
<line x1="81.5352952" y1="73.590481" x2="79.8370905" y2="73.590481" style="fill:none;stroke:rgb(68,68,68);stroke-width:0.6992607;stroke-linecap:round;stroke-linejoin:round" />
<line x1="81.7850311" y1="76.2044869" x2="79.5873545" y2="76.2044869" style="fill:none;stroke:rgb(68,68,68);stroke-width:0.6992607;stroke-linecap:round;stroke-linejoin:round" />
<line x1="82.0347671" y1="78.8184928" x2="79.3376186" y2="78.8184928" style="fill:none;stroke:rgb(68,68,68);stroke-width:0.6992607;stroke-linecap:round;stroke-linejoin:round" />
<line x1="82.2845031" y1="81.4324987" x2="79.0878826" y2="81.4324987" style="fill:none;stroke:rgb(68,68,68);stroke-width:0.6992607;stroke-linecap:round;stroke-linejoin:round" />
<line x1="129.6194595" y1="26.2809209" x2="129.9691159" y2="25.6753584" style="fill:none;stroke:rgb(68,68,68);stroke-width:0.6992607;stroke-linecap:round;stroke-linejoin:round" />
<line x1="126.8342166" y1="25.0091408" x2="127.4752534" y2="23.8989428" style="fill:none;stroke:rgb(68,68,68);stroke-width:0.6992607;stroke-linecap:round;stroke-linejoin:round" />
<line x1="124.0489738" y1="23.7373607" x2="124.9813908" y2="22.1225273" style="fill:none;stroke:rgb(68,68,68);stroke-width:0.6992607;stroke-linecap:round;stroke-linejoin:round" />
<line x1="121.2637309" y1="22.4655806" x2="122.4875283" y2="20.3461117" style="fill:none;stroke:rgb(68,68,68);stroke-width:0.6992607;stroke-linecap:round;stroke-linejoin:round" />
<line x1="118.478488" y1="21.1938005" x2="119.9936658" y2="18.5696962" style="fill:none;stroke:rgb(68,68,68);stroke-width:0.6992607;stroke-linecap:round;stroke-linejoin:round" />
<line x1="115.6932451" y1="19.9220203" x2="117.4998032" y2="16.7932806" style="fill:none;stroke:rgb(68,68,68);stroke-width:0.6992607;stroke-linecap:round;stroke-linejoin:round" />
<line x1="112.9080022" y1="18.6502402" x2="115.0059407" y2="15.0168651" style="fill:none;stroke:rgb(68,68,68);stroke-width:0.6992607;stroke-linecap:round;stroke-linejoin:round" />
<path d="M96.5374453,77.1567907 L97.2367061,77.1567907 L98.5653008,63.2536563 L96.8870757,63.2536563 L95.2088507,63.2536563 Z" style="fill:rgb(68,68,68);stroke:none" />
<line x1="145.6338208" y1="16.8335527" x2="161.473354" y2="25.9781397" style="fill:none;stroke:rgb(68,68,68);stroke-width:0.6992607;stroke-linecap:round;stroke-linejoin:round" />
<line x1="177.3106702" y1="16.8335527" x2="161.473354" y2="25.9781397" style="fill:none;stroke:rgb(68,68,68);stroke-width:0.6992607;stroke-linecap:round;stroke-linejoin:round" />
<line x1="193.1502034" y1="25.9781397" x2="177.3106702" y2="16.8335527" style="fill:none;stroke:rgb(68,68,68);stroke-width:0.6992607;stroke-linecap:round;stroke-linejoin:round" />
<line x1="193.1502034" y1="44.2673137" x2="193.1502034" y2="25.9781397" style="fill:none;stroke:rgb(68,68,68);stroke-width:0.6992607;stroke-linecap:round;stroke-linejoin:round" />
<line x1="208.9897365" y1="16.8335527" x2="193.1502034" y2="25.9781397" style="fill:none;stroke:rgb(68,68,68);stroke-width:0.6992607;stroke-linecap:round;stroke-linejoin:round" />
<line x1="145.6338208" y1="16.8335527" x2="129.7942877" y2="25.9781397" style="fill:none;stroke:rgb(68,68,68);stroke-width:0.6992607;stroke-linecap:round;stroke-linejoin:round" />
<line x1="129.7942877" y1="25.9781397" x2="129.7942877" y2="12.2040199" style="fill:none;stroke:rgb(68,68,68);stroke-width:0.6992607;stroke-linecap:round;stroke-linejoin:round" />
<path d="M114.6871845,89.7943421 L113.891474,89.7943421 L113.891474,86.8646807 L110.9055503,86.8646807 L110.9055503,89.7943421 L110.1098398,89.7943421 L110.1098398,83.8104384 L110.9055503,83.8104384 L110.9055503,86.1573825 L113.891474,86.1573825 L113.891474,83.8104384 L114.6871845,83.8104384 Z" style="fill:rgb(68,68,68);stroke:none" />
<path d="M148.113144,38.7886068 L147.3174335,38.7886068 L147.3174335,35.8589455 L144.3315098,35.8589455 L144.3315098,38.7886068 L143.5357993,38.7886068 L143.5357993,32.8047032 L144.3315098,32.8047032 L144.3315098,35.1516473 L147.3174335,35.1516473 L147.3174335,32.8047032 L148.113144,32.8047032 Z" style="fill:rgb(68,68,68);stroke:none" />
<path d="M19.076604,103.006287 Q19.4423093,103.408161 19.6372182,103.9908783 Q19.8321271,104.5735956 19.8321271,105.3130437 Q19.8321271,106.0524919 19.6331995,106.6372185 Q19.4342719,107.2219452 19.076604,107.6117629 Q18.7068799,108.0176556 18.2025281,108.2226114 Q17.6981762,108.4275671 17.0511591,108.4275671 Q16.420217,108.4275671 15.9038089,108.2185926 Q15.3874008,108.0096182 15.0257142,107.6117629 Q14.6640277,107.2139077 14.4691188,106.6352091 Q14.2742099,106.0565106 14.2742099,105.3130437 Q14.2742099,104.5816331 14.4671094,104.0009252 Q14.6600089,103.4202173 15.029733,103.006287 Q15.3833821,102.6124505 15.9078276,102.4034761 Q16.4322732,102.1945016 17.0511591,102.1945016 Q17.6941575,102.1945016 18.2065468,102.4054854 Q18.7189362,102.6164693 19.076604,103.006287 Z M19.0042667,105.3130437 Q19.0042667,104.1476092 18.4818305,103.5146576 Q17.9593943,102.8817061 17.0551779,102.8817061 Q16.1429239,102.8817061 15.6224971,103.5146576 Q15.1020703,104.1476092 15.1020703,105.3130437 Q15.1020703,106.4905345 15.632544,107.1154485 Q16.1630176,107.7403626 17.0551779,107.7403626 Q17.9473381,107.7403626 18.4758024,107.1154485 Q19.0042667,106.4905345 19.0042667,105.3130437 Z" style="fill:rgb(68,68,68);stroke:none" />
<path d="M13.5876082,108.3029862 L12.7918977,108.3029862 L12.7918977,105.3733248 L9.805974,105.3733248 L9.805974,108.3029862 L9.0102635,108.3029862 L9.0102635,102.3190825 L9.805974,102.3190825 L9.805974,104.6660266 L12.7918977,104.6660266 L12.7918977,102.3190825 L13.5876082,102.3190825 Z" style="fill:rgb(68,68,68);stroke:none" />
<path d="M82.9748652,89.6524624 L82.1791547,89.6524624 L82.1791547,86.7228011 L79.193231,86.7228011 L79.193231,89.6524624 L78.3975205,89.6524624 L78.3975205,83.6685588 L79.193231,83.6685588 L79.193231,86.0155029 L82.1791547,86.0155029 L82.1791547,83.6685588 L82.9748652,83.6685588 Z" style="fill:rgb(68,68,68);stroke:none" />
<path d="M99.1757481,61.8551348 L98.3800376,61.8551348 L98.3800376,58.9254734 L95.3941139,58.9254734 L95.3941139,61.8551348 L94.5984034,61.8551348 L94.5984034,55.8712312 L95.3941139,55.8712312 L95.3941139,58.2181752 L98.3800376,58.2181752 L98.3800376,55.8712312 L99.1757481,55.8712312 Z" style="fill:rgb(68,68,68);stroke:none" />
<path d="M131.8177232,5.3842183 Q132.1834286,5.7860923 132.3783374,6.3688096 Q132.5732463,6.9515269 132.5732463,7.690975 Q132.5732463,8.4304232 132.3743187,9.0151498 Q132.1753911,9.5998764 131.8177232,9.9896942 Q131.4479992,10.3955869 130.9436473,10.6005427 Q130.4392955,10.8054984 129.7922784,10.8054984 Q129.1613362,10.8054984 128.6449281,10.5965239 Q128.1285201,10.3875495 127.7668335,9.9896942 Q127.4051469,9.591839 127.210238,9.0131404 Q127.0153291,8.4344419 127.0153291,7.690975 Q127.0153291,6.9595644 127.2082286,6.3788565 Q127.4011281,5.7981485 127.7708522,5.3842183 Q128.1245013,4.9903818 128.6489469,4.7814074 Q129.1733924,4.5724329 129.7922784,4.5724329 Q130.4352767,4.5724329 130.9476661,4.7834167 Q131.4600554,4.9944006 131.8177232,5.3842183 Z M131.7453859,7.690975 Q131.7453859,6.5255405 131.2229497,5.8925889 Q130.7005136,5.2596374 129.7962971,5.2596374 Q128.8840431,5.2596374 128.3636163,5.8925889 Q127.8431895,6.5255405 127.8431895,7.690975 Q127.8431895,8.8684658 128.3736632,9.4933798 Q128.9041368,10.1182939 129.7962971,10.1182939 Q130.6884573,10.1182939 131.2169216,9.4933798 Q131.7453859,8.8684658 131.7453859,7.690975 Z" style="fill:rgb(68,68,68);stroke:none" />
<path d="M137.8371927,10.6809175 L137.0414822,10.6809175 L137.0414822,7.7512561 L134.0555585,7.7512561 L134.0555585,10.6809175 L133.259848,10.6809175 L133.259848,4.6970138 L134.0555585,4.6970138 L134.0555585,7.0439579 L137.0414822,7.0439579 L137.0414822,4.6970138 L137.8371927,4.6970138 Z" style="fill:rgb(68,68,68);stroke:none" />
</svg>
