<?xml version="1.0" encoding="UTF-8"?>
<!DOCTYPE svg PUBLIC "-//W3C//DTD SVG 1.1//EN" "http://www.w3.org/Graphics/SVG/1.1/DTD/svg11.dtd">
<svg version="1.2" xmlns="http://www.w3.org/2000/svg" xmlns:xlink="http://www.w3.org/1999/xlink" x="0mm" y="0mm" width="150mm" height="120mm" viewBox="0 0 150 120">
<style type="text/css"><![CDATA[
text { font:12px Dialog; }
]]></style>
<line x1="85.5985524" y1="23.6302384" x2="101.4945954" y2="32.8074501" style="fill:none;stroke:rgb(68,68,68);stroke-width:0.7017555;stroke-linecap:round;stroke-linejoin:round" />
<line x1="85.5985524" y1="27.4452112" x2="98.1906985" y2="34.7149946" style="fill:none;stroke:rgb(68,68,68);stroke-width:0.7017555;stroke-linecap:round;stroke-linejoin:round" />
<line x1="85.5985524" y1="60.3368603" x2="101.4945954" y2="51.1596487" style="fill:none;stroke:rgb(68,68,68);stroke-width:0.7017555;stroke-linecap:round;stroke-linejoin:round" />
<line x1="85.5985524" y1="56.5218875" x2="98.1906985" y2="49.2521041" style="fill:none;stroke:rgb(68,68,68);stroke-width:0.7017555;stroke-linecap:round;stroke-linejoin:round" />
<line x1="69.7025094" y1="32.8074501" x2="85.5985524" y2="23.6302384" style="fill:none;stroke:rgb(68,68,68);stroke-width:0.7017555;stroke-linecap:round;stroke-linejoin:round" />
<line x1="69.7025094" y1="51.1596487" x2="85.5985524" y2="60.3368603" style="fill:none;stroke:rgb(68,68,68);stroke-width:0.7017555;stroke-linecap:round;stroke-linejoin:round" />
<line x1="69.7025094" y1="51.1596487" x2="69.7025094" y2="32.8074501" style="fill:none;stroke:rgb(68,68,68);stroke-width:0.7017555;stroke-linecap:round;stroke-linejoin:round" />
<line x1="73.0064063" y1="49.2521041" x2="73.0064063" y2="34.7149946" style="fill:none;stroke:rgb(68,68,68);stroke-width:0.7017555;stroke-linecap:round;stroke-linejoin:round" />
<line x1="57.3391234" y1="25.6687369" x2="69.7025094" y2="32.8074501" style="fill:none;stroke:rgb(68,68,68);stroke-width:0.7017555;stroke-linecap:round;stroke-linejoin:round" />
<line x1="41.4189245" y1="30.7831828" x2="50.2810644" y2="25.6668319" style="fill:none;stroke:rgb(68,68,68);stroke-width:0.7017555;stroke-linecap:round;stroke-linejoin:round" />
<line x1="57.3179581" y1="58.3105829" x2="69.7025094" y2="51.1596487" style="fill:none;stroke:rgb(68,68,68);stroke-width:0.7017555;stroke-linecap:round;stroke-linejoin:round" />
<line x1="37.9126481" y1="51.1596487" x2="37.9126481" y2="37.213587" style="fill:none;stroke:rgb(68,68,68);stroke-width:0.7017555;stroke-linecap:round;stroke-linejoin:round" />
<line x1="37.9126481" y1="51.1596487" x2="50.3024148" y2="58.312593" style="fill:none;stroke:rgb(68,68,68);stroke-width:0.7017555;stroke-linecap:round;stroke-linejoin:round" />
<line x1="37.9126481" y1="51.1596487" x2="22.0166051" y2="60.3368603" style="fill:none;stroke:rgb(68,68,68);stroke-width:0.7017555;stroke-linecap:round;stroke-linejoin:round" />
<line x1="22.0166051" y1="60.3368603" x2="21.9098158" y2="78.7001828" style="fill:none;stroke:rgb(68,68,68);stroke-width:0.7017555;stroke-linecap:round;stroke-linejoin:round" />
<line x1="37.8058588" y1="106.2340426" x2="37.8058588" y2="87.8796192" style="fill:none;stroke:rgb(68,68,68);stroke-width:0.7017555;stroke-linecap:round;stroke-linejoin:round" />
<line x1="21.9098158" y1="78.7001828" x2="37.8058588" y2="87.8796192" style="fill:none;stroke:rgb(68,68,68);stroke-width:0.7017555;stroke-linecap:round;stroke-linejoin:round" />
<line x1="21.9098158" y1="82.5153868" x2="34.5019618" y2="89.7869326" style="fill:none;stroke:rgb(68,68,68);stroke-width:0.7017555;stroke-linecap:round;stroke-linejoin:round" />
<line x1="21.9098158" y1="115.4112543" x2="37.8058588" y2="106.2340426" style="fill:none;stroke:rgb(68,68,68);stroke-width:0.7017555;stroke-linecap:round;stroke-linejoin:round" />
<line x1="21.9098158" y1="111.5962815" x2="34.5019618" y2="104.3264981" style="fill:none;stroke:rgb(68,68,68);stroke-width:0.7017555;stroke-linecap:round;stroke-linejoin:round" />
<line x1="6.0137727" y1="87.8796192" x2="21.9098158" y2="78.7001828" style="fill:none;stroke:rgb(68,68,68);stroke-width:0.7017555;stroke-linecap:round;stroke-linejoin:round" />
<line x1="6.0137727" y1="106.2340426" x2="21.9098158" y2="115.4112543" style="fill:none;stroke:rgb(68,68,68);stroke-width:0.7017555;stroke-linecap:round;stroke-linejoin:round" />
<line x1="6.0137727" y1="106.2340426" x2="6.0137727" y2="87.8796192" style="fill:none;stroke:rgb(68,68,68);stroke-width:0.7017555;stroke-linecap:round;stroke-linejoin:round" />
<line x1="9.3176697" y1="104.3264981" x2="9.3176697" y2="89.7869326" style="fill:none;stroke:rgb(68,68,68);stroke-width:0.7017555;stroke-linecap:round;stroke-linejoin:round" />
<line x1="120.9188884" y1="25.6684761" x2="129.7781803" y2="30.7831828" style="fill:none;stroke:rgb(68,68,68);stroke-width:0.7017555;stroke-linecap:round;stroke-linejoin:round" />
<line x1="117.3884136" y1="60.3390851" x2="130.1512399" y2="52.9707634" style="fill:none;stroke:rgb(68,68,68);stroke-width:0.7017555;stroke-linecap:round;stroke-linejoin:round" />
<line x1="101.4945954" y1="32.8074501" x2="113.8608277" y2="25.6670934" style="fill:none;stroke:rgb(68,68,68);stroke-width:0.7017555;stroke-linecap:round;stroke-linejoin:round" />
<line x1="101.4945954" y1="51.1596487" x2="117.3884136" y2="60.3390851" style="fill:none;stroke:rgb(68,68,68);stroke-width:0.7017555;stroke-linecap:round;stroke-linejoin:round" />
<line x1="101.4945954" y1="51.1596487" x2="101.4945954" y2="32.8074501" style="fill:none;stroke:rgb(68,68,68);stroke-width:0.7017555;stroke-linecap:round;stroke-linejoin:round" />
<line x1="117.3884136" y1="60.3390851" x2="117.4289951" y2="74.2940518" style="fill:none;stroke:rgb(68,68,68);stroke-width:0.7017555;stroke-linecap:round;stroke-linejoin:round" />
<line x1="117.3884136" y1="60.3390851" x2="130.2315134" y2="67.8124097" style="fill:none;stroke:rgb(68,68,68);stroke-width:0.7017555;stroke-linecap:round;stroke-linejoin:round" />
<line x1="50.1297109" y1="20.5336792" x2="45.5281722" y2="12.5056776" style="fill:none;stroke:rgb(68,68,68);stroke-width:0.7017555;stroke-linecap:round;stroke-linejoin:round" />
<line x1="52.9961242" y1="18.8906911" x2="48.3945855" y2="10.8626895" style="fill:none;stroke:rgb(68,68,68);stroke-width:0.7017555;stroke-linecap:round;stroke-linejoin:round" />
<line x1="54.6926725" y1="18.7171554" x2="59.1327125" y2="10.8772131" style="fill:none;stroke:rgb(68,68,68);stroke-width:0.7017555;stroke-linecap:round;stroke-linejoin:round" />
<line x1="57.567544" y1="20.3452981" x2="62.007584" y2="12.5053557" style="fill:none;stroke:rgb(68,68,68);stroke-width:0.7017555;stroke-linecap:round;stroke-linejoin:round" />
<line x1="113.6939638" y1="20.555207" x2="109.0212177" y2="12.5031345" style="fill:none;stroke:rgb(68,68,68);stroke-width:0.7017555;stroke-linecap:round;stroke-linejoin:round" />
<line x1="116.5515458" y1="18.8969066" x2="111.8787997" y2="10.8448341" style="fill:none;stroke:rgb(68,68,68);stroke-width:0.7017555;stroke-linecap:round;stroke-linejoin:round" />
<line x1="118.3549691" y1="18.7205727" x2="122.9895988" y2="10.8254771" style="fill:none;stroke:rgb(68,68,68);stroke-width:0.7017555;stroke-linecap:round;stroke-linejoin:round" />
<line x1="121.204215" y1="20.3931553" x2="125.8388447" y2="12.4980597" style="fill:none;stroke:rgb(68,68,68);stroke-width:0.7017555;stroke-linecap:round;stroke-linejoin:round" />
<path d="M56.1236775,24.9188066 Q56.1236775,25.2696843 55.9603379,25.6124959 Q55.7969983,25.9553075 55.5025836,26.193259 Q55.1799374,26.451376 54.7504147,26.5965668 Q54.320892,26.7417575 53.7159304,26.7417575 Q53.0666049,26.7417575 52.5483545,26.6207652 Q52.0301041,26.4997729 51.4937048,26.2618213 L51.4937048,25.2616182 L51.5501679,25.2616182 Q52.0059056,25.6407274 52.602801,25.8464144 Q53.1996965,26.0521013 53.7239965,26.0521013 Q54.4660827,26.0521013 54.8794732,25.773819 Q55.2928636,25.4955367 55.2928636,25.0317328 Q55.2928636,24.6324581 55.0972593,24.4429035 Q54.9016551,24.2533489 54.5023804,24.1484888 Q54.1998996,24.0678273 53.8470054,24.0153973 Q53.4941111,23.9629673 53.0988695,23.8823057 Q52.3003202,23.7129165 51.9151614,23.3035591 Q51.5300025,22.8942018 51.5300025,22.2368102 Q51.5300025,21.4826247 52.1672287,21.000672 Q52.8044549,20.5187193 53.7844927,20.5187193 Q54.4176858,20.5187193 54.9460189,20.6397116 Q55.4743521,20.7607039 55.8816929,20.9381593 L55.8816929,21.8818994 L55.8252298,21.8818994 Q55.4824182,21.5915178 54.923837,21.3999467 Q54.3652558,21.2083755 53.7804596,21.2083755 Q53.1392003,21.2083755 52.7500084,21.4745586 Q52.3608164,21.7407417 52.3608164,22.1601817 Q52.3608164,22.5352579 52.5544041,22.749011 Q52.7479918,22.9627641 53.2359942,23.0756903 Q53.4941111,23.1321534 53.9700142,23.2128149 Q54.4459174,23.2934765 54.7766297,23.3781711 Q55.4461205,23.5556265 55.784899,23.9145704 Q56.1236775,24.2735142 56.1236775,24.9188066 Z" style="fill:rgb(68,68,68);stroke:none" />
<path d="M40.203436,35.8100761 L39.2153321,35.8100761 L36.3679795,30.4380172 L36.3679795,35.8100761 L35.6218602,35.8100761 L35.6218602,29.804824 L36.860015,29.804824 L39.4573167,34.709046 L39.4573167,29.804824 L40.203436,29.804824 Z" style="fill:rgb(68,68,68);stroke:none" />
<path d="M34.932809,35.8100761 L34.1342597,35.8100761 L34.1342597,32.8699628 L31.1376832,32.8699628 L31.1376832,35.8100761 L30.3391339,35.8100761 L30.3391339,29.804824 L31.1376832,29.804824 L31.1376832,32.1601412 L34.1342597,32.1601412 L34.1342597,29.804824 L34.932809,29.804824 Z" style="fill:rgb(68,68,68);stroke:none" />
<path d="M56.0994791,63.3394864 L55.1113751,63.3394864 L52.2640225,57.9674274 L52.2640225,63.3394864 L51.5179032,63.3394864 L51.5179032,57.3342343 L52.756058,57.3342343 L55.3533598,62.2384563 L55.3533598,57.3342343 L56.0994791,57.3342343 Z" style="fill:rgb(68,68,68);stroke:none" />
<path d="M56.1115783,70.0337897 L55.313029,70.0337897 L55.313029,67.0936764 L52.3164525,67.0936764 L52.3164525,70.0337897 L51.5179032,70.0337897 L51.5179032,64.0285376 L52.3164525,64.0285376 L52.3164525,66.3838548 L55.313029,66.3838548 L55.313029,64.0285376 L56.1115783,64.0285376 Z" style="fill:rgb(68,68,68);stroke:none" />
<path d="M135.5752445,35.8100761 L134.5871406,35.8100761 L131.739788,30.4380172 L131.739788,35.8100761 L130.9936687,35.8100761 L130.9936687,29.804824 L132.2318235,29.804824 L134.8291252,34.709046 L134.8291252,29.804824 L135.5752445,29.804824 Z" style="fill:rgb(68,68,68);stroke:none" />
<path d="M140.8579708,35.8100761 L140.0594215,35.8100761 L140.0594215,32.8699628 L137.0628451,32.8699628 L137.0628451,35.8100761 L136.2642958,35.8100761 L136.2642958,29.804824 L137.0628451,29.804824 L137.0628451,32.1601412 L140.0594215,32.1601412 L140.0594215,29.804824 L140.8579708,29.804824 Z" style="fill:rgb(68,68,68);stroke:none" />
<path d="M143.9862273,37.6491594 L141.5470221,37.6491594 L141.5470221,37.1434115 Q141.801106,36.9256253 142.0563998,36.7078391 Q142.3116936,36.490053 142.5318996,36.2746866 Q142.9965101,35.8245952 143.1683192,35.559622 Q143.3401283,35.2946489 143.3401283,34.9873284 Q143.3401283,34.7066262 143.15501,34.5481262 Q142.9698918,34.3896263 142.6383728,34.3896263 Q142.4181668,34.3896263 142.1616631,34.4670614 Q141.9051594,34.5444965 141.6607549,34.7042063 L141.6365564,34.7042063 L141.6365564,34.1960386 Q141.8083655,34.111344 142.0951173,34.0411684 Q142.3818691,33.9709929 142.6504721,33.9709929 Q143.2046169,33.9709929 143.5191969,34.2383859 Q143.8337769,34.5057789 143.8337769,34.9631299 Q143.8337769,35.1688168 143.7817502,35.3466756 Q143.7297235,35.5245343 143.62809,35.6842441 Q143.533716,35.8342746 143.406674,35.9794654 Q143.2796321,36.1246562 143.0981436,36.3013049 Q142.8392201,36.5553888 142.5633576,36.7937437 Q142.2874951,37.0320986 142.0479303,37.2353657 L143.9862273,37.2353657 Z" style="fill:rgb(68,68,68);stroke:none" />
<path d="M135.2021849,48.869069 L132.1652777,48.869069 L132.1652777,50.5629615 L134.7746787,50.5629615 L134.7746787,51.2727831 L132.1652777,51.2727831 L132.1652777,54.1644995 L131.3667284,54.1644995 L131.3667284,48.1592474 L135.2021849,48.1592474 Z" style="fill:rgb(68,68,68);stroke:none" />
<path d="M119.7034,24.9188066 Q119.7034,25.2696843 119.5400604,25.6124959 Q119.3767207,25.9553075 119.0823061,26.193259 Q118.7596599,26.451376 118.3301372,26.5965668 Q117.9006144,26.7417575 117.2956529,26.7417575 Q116.6463274,26.7417575 116.128077,26.6207652 Q115.6098265,26.4997729 115.0734273,26.2618213 L115.0734273,25.2616182 L115.1298903,25.2616182 Q115.5856281,25.6407274 116.1825235,25.8464144 Q116.779419,26.0521013 117.303719,26.0521013 Q118.0458052,26.0521013 118.4591957,25.773819 Q118.8725861,25.4955367 118.8725861,25.0317328 Q118.8725861,24.6324581 118.6769818,24.4429035 Q118.4813776,24.2533489 118.0821029,24.1484888 Q117.7796221,24.0678273 117.4267279,24.0153973 Q117.0738336,23.9629673 116.678592,23.8823057 Q115.8800427,23.7129165 115.4948838,23.3035591 Q115.109725,22.8942018 115.109725,22.2368102 Q115.109725,21.4826247 115.7469512,21.000672 Q116.3841774,20.5187193 117.3642152,20.5187193 Q117.9974083,20.5187193 118.5257414,20.6397116 Q119.0540746,20.7607039 119.4614154,20.9381593 L119.4614154,21.8818994 L119.4049523,21.8818994 Q119.0621407,21.5915178 118.5035595,21.3999467 Q117.9449783,21.2083755 117.3601821,21.2083755 Q116.7189228,21.2083755 116.3297308,21.4745586 Q115.9405389,21.7407417 115.9405389,22.1601817 Q115.9405389,22.5352579 116.1341266,22.749011 Q116.3277143,22.9627641 116.8157167,23.0756903 Q117.0738336,23.1321534 117.5497367,23.2128149 Q118.0256398,23.2934765 118.3563522,23.3781711 Q119.025843,23.5556265 119.3646215,23.9145704 Q119.7034,24.2735142 119.7034,24.9188066 Z" style="fill:rgb(68,68,68);stroke:none" />
<path d="M119.3595366,76.4073784 L116.3226294,76.4073784 L116.3226294,78.1012708 L118.9320304,78.1012708 L118.9320304,78.8110924 L116.3226294,78.8110924 L116.3226294,81.7028088 L115.5240801,81.7028088 L115.5240801,75.6975567 L119.3595366,75.6975567 Z" style="fill:rgb(68,68,68);stroke:none" />
<path d="M135.2800521,67.3414056 L132.2431449,67.3414056 L132.2431449,69.0352981 L134.852546,69.0352981 L134.852546,69.7451197 L132.2431449,69.7451197 L132.2431449,72.6368361 L131.4445956,72.6368361 L131.4445956,66.631584 L135.2800521,66.631584 Z" style="fill:rgb(68,68,68);stroke:none" />
<path d="M46.7177534,5.4034273 Q47.0847634,5.8067351 47.2803676,6.3915313 Q47.4759719,6.9763275 47.4759719,7.7184137 Q47.4759719,8.4604999 47.2763346,9.0473127 Q47.0766972,9.6341254 46.7177534,10.0253339 Q46.3467102,10.4326747 45.840559,10.6383617 Q45.3344078,10.8440486 44.6850824,10.8440486 Q44.0518893,10.8440486 43.5336388,10.6343286 Q43.0153884,10.4246086 42.6524114,10.0253339 Q42.2894345,9.6260593 42.0938302,9.0452961 Q41.898226,8.464533 41.898226,7.7184137 Q41.898226,6.9843936 42.0918137,6.401614 Q42.2854014,5.8188343 42.6564445,5.4034273 Q43.0113553,5.0081858 43.5376719,4.7984657 Q44.0639885,4.5887457 44.6850824,4.5887457 Q45.3303748,4.5887457 45.8445921,4.8004823 Q46.3588095,5.0122188 46.7177534,5.4034273 Z M46.645158,7.7184137 Q46.645158,6.5488213 46.1208579,5.9136116 Q45.5965579,5.2784019 44.6891155,5.2784019 Q43.7736069,5.2784019 43.2513234,5.9136116 Q42.7290399,6.5488213 42.7290399,7.7184137 Q42.7290399,8.9001054 43.2614061,9.5272489 Q43.7937723,10.1543924 44.6891155,10.1543924 Q45.5844586,10.1543924 46.1148083,9.5272489 Q46.645158,8.9001054 46.645158,7.7184137 Z" style="fill:rgb(68,68,68);stroke:none" />
<path d="M64.8519236,5.4034273 Q65.2189337,5.8067351 65.4145379,6.3915313 Q65.6101422,6.9763275 65.6101422,7.7184137 Q65.6101422,8.4604999 65.4105048,9.0473127 Q65.2108675,9.6341254 64.8519236,10.0253339 Q64.4808805,10.4326747 63.9747293,10.6383617 Q63.4685781,10.8440486 62.8192527,10.8440486 Q62.1860595,10.8440486 61.6678091,10.6343286 Q61.1495587,10.4246086 60.7865817,10.0253339 Q60.4236048,9.6260593 60.2280005,9.0452961 Q60.0323963,8.464533 60.0323963,7.7184137 Q60.0323963,6.9843936 60.225984,6.401614 Q60.4195717,5.8188343 60.7906148,5.4034273 Q61.1455256,5.0081858 61.6718422,4.7984657 Q62.1981588,4.5887457 62.8192527,4.5887457 Q63.464545,4.5887457 63.9787624,4.8004823 Q64.4929797,5.0122188 64.8519236,5.4034273 Z M64.7793282,7.7184137 Q64.7793282,6.5488213 64.2550282,5.9136116 Q63.7307281,5.2784019 62.8232857,5.2784019 Q61.9077772,5.2784019 61.3854937,5.9136116 Q60.8632102,6.5488213 60.8632102,7.7184137 Q60.8632102,8.9001054 61.3955764,9.5272489 Q61.9279426,10.1543924 62.8232857,10.1543924 Q63.7186289,10.1543924 64.2489786,9.5272489 Q64.7793282,8.9001054 64.7793282,7.7184137 Z" style="fill:rgb(68,68,68);stroke:none" />
<path d="M110.1840121,5.4034273 Q110.5510222,5.8067351 110.7466264,6.3915313 Q110.9422307,6.9763275 110.9422307,7.7184137 Q110.9422307,8.4604999 110.7425933,9.0473127 Q110.542956,9.6341254 110.1840121,10.0253339 Q109.812969,10.4326747 109.3068178,10.6383617 Q108.8006666,10.8440486 108.1513412,10.8440486 Q107.518148,10.8440486 106.9998976,10.6343286 Q106.4816472,10.4246086 106.1186702,10.0253339 Q105.7556933,9.6260593 105.560089,9.0452961 Q105.3644848,8.464533 105.3644848,7.7184137 Q105.3644848,6.9843936 105.5580725,6.401614 Q105.7516602,5.8188343 106.1227033,5.4034273 Q106.4776141,5.0081858 107.0039307,4.7984657 Q107.5302473,4.5887457 108.1513412,4.5887457 Q108.7966335,4.5887457 109.3108509,4.8004823 Q109.8250683,5.0122188 110.1840121,5.4034273 Z M110.1114167,7.7184137 Q110.1114167,6.5488213 109.5871167,5.9136116 Q109.0628166,5.2784019 108.1553743,5.2784019 Q107.2398657,5.2784019 106.7175822,5.9136116 Q106.1952987,6.5488213 106.1952987,7.7184137 Q106.1952987,8.9001054 106.7276649,9.5272489 Q107.2600311,10.1543924 108.1553743,10.1543924 Q109.0507174,10.1543924 109.5810671,9.5272489 Q110.1114167,8.9001054 110.1114167,7.7184137 Z" style="fill:rgb(68,68,68);stroke:none" />
<path d="M128.7609133,5.4034273 Q129.1279234,5.8067351 129.3235276,6.3915313 Q129.5191319,6.9763275 129.5191319,7.7184137 Q129.5191319,8.4604999 129.3194945,9.0473127 Q129.1198572,9.6341254 128.7609133,10.0253339 Q128.3898702,10.4326747 127.883719,10.6383617 Q127.3775678,10.8440486 126.7282424,10.8440486 Q126.0950492,10.8440486 125.5767988,10.6343286 Q125.0585484,10.4246086 124.6955714,10.0253339 Q124.3325945,9.6260593 124.1369902,9.0452961 Q123.941386,8.464533 123.941386,7.7184137 Q123.941386,6.9843936 124.1349737,6.401614 Q124.3285614,5.8188343 124.6996045,5.4034273 Q125.0545153,5.0081858 125.5808319,4.7984657 Q126.1071485,4.5887457 126.7282424,4.5887457 Q127.3735348,4.5887457 127.8877521,4.8004823 Q128.4019695,5.0122188 128.7609133,5.4034273 Z M128.688318,7.7184137 Q128.688318,6.5488213 128.1640179,5.9136116 Q127.6397179,5.2784019 126.7322755,5.2784019 Q125.8167669,5.2784019 125.2944834,5.9136116 Q124.7721999,6.5488213 124.7721999,7.7184137 Q124.7721999,8.9001054 125.3045661,9.5272489 Q125.8369323,10.1543924 126.7322755,10.1543924 Q127.6276186,10.1543924 128.1579683,9.5272489 Q128.688318,8.9001054 128.688318,7.7184137 Z" style="fill:rgb(68,68,68);stroke:none" />
</svg>
