<?xml version="1.0" encoding="UTF-8"?>
<!DOCTYPE svg PUBLIC "-//W3C//DTD SVG 1.1//EN" "http://www.w3.org/Graphics/SVG/1.1/DTD/svg11.dtd">
<svg version="1.2" xmlns="http://www.w3.org/2000/svg" xmlns:xlink="http://www.w3.org/1999/xlink" x="0mm" y="0mm" width="157mm" height="155mm" viewBox="0 0 157 155">
<style type="text/css"><![CDATA[
text { font:12px Dialog; }
]]></style>
<line x1="69.8147933" y1="73.2439718" x2="53.4702798" y2="65.0703173" style="fill:none;stroke:rgb(68,68,68);stroke-width:0.714972;stroke-linecap:round;stroke-linejoin:round" />
<line x1="37.8050406" y1="73.9246438" x2="53.4702798" y2="65.0703173" style="fill:none;stroke:rgb(68,68,68);stroke-width:0.714972;stroke-linecap:round;stroke-linejoin:round" />
<line x1="53.4702798" y1="46.0017182" x2="53.4702798" y2="65.0703173" style="fill:none;stroke:rgb(68,68,68);stroke-width:0.714972;stroke-linecap:round;stroke-linejoin:round" />
<path d="M53.2536245,64.7859642 L53.6869351,65.3546705 L72.3108172,53.816489 L68.2405686,53.816489 L65.1099027,53.816489 Z" style="fill:rgb(68,68,68);stroke:none" />
<line x1="86.1607045" y1="64.3896454" x2="69.8147933" y2="73.2439718" style="fill:none;stroke:rgb(68,68,68);stroke-width:0.714972;stroke-linecap:round;stroke-linejoin:round" />
<line x1="69.8147933" y1="92.3125709" x2="69.8147933" y2="73.2439718" style="fill:none;stroke:rgb(68,68,68);stroke-width:0.714972;stroke-linecap:round;stroke-linejoin:round" />
<line x1="69.8147933" y1="73.6014578" x2="69.8147933" y2="72.8864858" style="fill:none;stroke:rgb(68,68,68);stroke-width:0.714972;stroke-linecap:round;stroke-linejoin:round" />
<line x1="66.682025" y1="74.6398953" x2="66.682025" y2="73.2099513" style="fill:none;stroke:rgb(68,68,68);stroke-width:0.714972;stroke-linecap:round;stroke-linejoin:round" />
<line x1="63.5492567" y1="75.6783328" x2="63.5492567" y2="73.5334168" style="fill:none;stroke:rgb(68,68,68);stroke-width:0.714972;stroke-linecap:round;stroke-linejoin:round" />
<line x1="60.4164884" y1="76.7167704" x2="60.4164884" y2="73.8568823" style="fill:none;stroke:rgb(68,68,68);stroke-width:0.714972;stroke-linecap:round;stroke-linejoin:round" />
<line x1="57.2837201" y1="77.7552079" x2="57.2837201" y2="74.1803478" style="fill:none;stroke:rgb(68,68,68);stroke-width:0.714972;stroke-linecap:round;stroke-linejoin:round" />
<line x1="54.1509518" y1="78.7936454" x2="54.1509518" y2="74.5038133" style="fill:none;stroke:rgb(68,68,68);stroke-width:0.714972;stroke-linecap:round;stroke-linejoin:round" />
<line x1="37.5075908" y1="74.1229361" x2="38.1024904" y2="73.7263514" style="fill:none;stroke:rgb(68,68,68);stroke-width:0.714972;stroke-linecap:round;stroke-linejoin:round" />
<line x1="35.7892991" y1="71.9482032" x2="36.756011" y2="71.3037531" style="fill:none;stroke:rgb(68,68,68);stroke-width:0.714972;stroke-linecap:round;stroke-linejoin:round" />
<line x1="34.0710075" y1="69.7734703" x2="35.4095317" y2="68.8811548" style="fill:none;stroke:rgb(68,68,68);stroke-width:0.714972;stroke-linecap:round;stroke-linejoin:round" />
<line x1="32.3527158" y1="67.5987374" x2="34.0630523" y2="66.4585565" style="fill:none;stroke:rgb(68,68,68);stroke-width:0.714972;stroke-linecap:round;stroke-linejoin:round" />
<line x1="30.6344242" y1="65.4240046" x2="32.716573" y2="64.0359581" style="fill:none;stroke:rgb(68,68,68);stroke-width:0.714972;stroke-linecap:round;stroke-linejoin:round" />
<line x1="28.9161326" y1="63.2492717" x2="31.3700936" y2="61.6133598" style="fill:none;stroke:rgb(68,68,68);stroke-width:0.714972;stroke-linecap:round;stroke-linejoin:round" />
<line x1="27.1978409" y1="61.0745388" x2="30.0236142" y2="59.1907615" style="fill:none;stroke:rgb(68,68,68);stroke-width:0.714972;stroke-linecap:round;stroke-linejoin:round" />
<line x1="54.1509518" y1="101.8475693" x2="37.8050406" y2="92.9932429" style="fill:none;stroke:rgb(68,68,68);stroke-width:0.714972;stroke-linecap:round;stroke-linejoin:round" />
<line x1="37.8050406" y1="92.6357568" x2="37.8050406" y2="93.3507289" style="fill:none;stroke:rgb(68,68,68);stroke-width:0.714972;stroke-linecap:round;stroke-linejoin:round" />
<line x1="40.5293591" y1="91.5435016" x2="40.5293591" y2="92.8542836" style="fill:none;stroke:rgb(68,68,68);stroke-width:0.714972;stroke-linecap:round;stroke-linejoin:round" />
<line x1="43.2536776" y1="90.4512463" x2="43.2536776" y2="92.3578384" style="fill:none;stroke:rgb(68,68,68);stroke-width:0.714972;stroke-linecap:round;stroke-linejoin:round" />
<line x1="45.9779962" y1="89.3589911" x2="45.9779962" y2="91.8613932" style="fill:none;stroke:rgb(68,68,68);stroke-width:0.714972;stroke-linecap:round;stroke-linejoin:round" />
<line x1="48.7023147" y1="88.2667358" x2="48.7023147" y2="91.3649479" style="fill:none;stroke:rgb(68,68,68);stroke-width:0.714972;stroke-linecap:round;stroke-linejoin:round" />
<line x1="51.4266332" y1="87.1744805" x2="51.4266332" y2="90.8685027" style="fill:none;stroke:rgb(68,68,68);stroke-width:0.714972;stroke-linecap:round;stroke-linejoin:round" />
<line x1="54.1509518" y1="86.0822253" x2="54.1509518" y2="90.3720574" style="fill:none;stroke:rgb(68,68,68);stroke-width:0.714972;stroke-linecap:round;stroke-linejoin:round" />
<line x1="37.8050406" y1="35.7846502" x2="53.4702798" y2="46.0017182" style="fill:none;stroke:rgb(68,68,68);stroke-width:0.714972;stroke-linecap:round;stroke-linejoin:round" />
<line x1="69.8147933" y1="35.7846502" x2="53.4702798" y2="46.0017182" style="fill:none;stroke:rgb(68,68,68);stroke-width:0.714972;stroke-linecap:round;stroke-linejoin:round" />
<line x1="66.4486721" y1="33.9191546" x2="53.5087264" y2="42.0080038" style="fill:none;stroke:rgb(68,68,68);stroke-width:0.714972;stroke-linecap:round;stroke-linejoin:round" />
<line x1="69.8147933" y1="92.3125709" x2="54.1509518" y2="101.8475693" style="fill:none;stroke:rgb(68,68,68);stroke-width:0.714972;stroke-linecap:round;stroke-linejoin:round" />
<line x1="37.8050406" y1="17.3967231" x2="37.8050406" y2="35.7846502" style="fill:none;stroke:rgb(68,68,68);stroke-width:0.714972;stroke-linecap:round;stroke-linejoin:round" />
<line x1="41.1711618" y1="19.3301351" x2="41.1711618" y2="33.9612874" style="fill:none;stroke:rgb(68,68,68);stroke-width:0.714972;stroke-linecap:round;stroke-linejoin:round" />
<line x1="28.0073561" y1="51.5697465" x2="37.8050406" y2="35.7846502" style="fill:none;stroke:rgb(68,68,68);stroke-width:0.714972;stroke-linecap:round;stroke-linejoin:round" />
<path d="M86.3149469,64.0671465 L86.0064622,64.7121443 L97.4535892,71.7099381 L98.2006188,70.1480053 L98.9476483,68.5860726 Z" style="fill:rgb(68,68,68);stroke:none" />
<line x1="86.1607045" y1="46.0017182" x2="86.1607045" y2="64.3896454" style="fill:none;stroke:rgb(68,68,68);stroke-width:0.714972;stroke-linecap:round;stroke-linejoin:round" />
<line x1="101.8245461" y1="54.173975" x2="101.8245461" y2="67.3921098" style="fill:none;stroke:rgb(68,68,68);stroke-width:0.714972;stroke-linecap:round;stroke-linejoin:round" />
<line x1="124.2993004" y1="71.8812301" x2="105.5884218" y2="71.8812301" style="fill:none;stroke:rgb(68,68,68);stroke-width:0.714972;stroke-linecap:round;stroke-linejoin:round" />
<line x1="86.1607045" y1="46.0017182" x2="69.8147933" y2="35.7846502" style="fill:none;stroke:rgb(68,68,68);stroke-width:0.714972;stroke-linecap:round;stroke-linejoin:round" />
<line x1="69.8147933" y1="17.3967231" x2="69.8147933" y2="35.7846502" style="fill:none;stroke:rgb(68,68,68);stroke-width:0.714972;stroke-linecap:round;stroke-linejoin:round" />
<line x1="54.1509518" y1="88.2271413" x2="54.1509518" y2="76.6487293" style="fill:none;stroke:rgb(68,68,68);stroke-width:0.714972;stroke-linecap:round;stroke-linejoin:round" />
<line x1="101.8245461" y1="54.173975" x2="67.7713797" y2="54.173975" style="fill:none;stroke:rgb(68,68,68);stroke-width:0.714972;stroke-linecap:round;stroke-linejoin:round" />
<line x1="134.5149708" y1="54.173975" x2="124.2993004" y2="71.8812301" style="fill:none;stroke:rgb(68,68,68);stroke-width:0.714972;stroke-linecap:round;stroke-linejoin:round" />
<line x1="25.281722" y1="10.0909185" x2="37.8050406" y2="17.3967231" style="fill:none;stroke:rgb(68,68,68);stroke-width:0.714972;stroke-linecap:round;stroke-linejoin:round" />
<line x1="54.1509518" y1="7.8617247" x2="37.8050406" y2="17.3967231" style="fill:none;stroke:rgb(68,68,68);stroke-width:0.714972;stroke-linecap:round;stroke-linejoin:round" />
<line x1="134.5149708" y1="34.4233062" x2="134.5149708" y2="54.173975" style="fill:none;stroke:rgb(68,68,68);stroke-width:0.714972;stroke-linecap:round;stroke-linejoin:round" />
<line x1="152.2222259" y1="44.6389766" x2="134.5149708" y2="54.173975" style="fill:none;stroke:rgb(68,68,68);stroke-width:0.714972;stroke-linecap:round;stroke-linejoin:round" />
<line x1="152.2222259" y1="44.6389766" x2="134.5149708" y2="34.4233062" style="fill:none;stroke:rgb(68,68,68);stroke-width:0.714972;stroke-linecap:round;stroke-linejoin:round" />
<line x1="54.1509518" y1="7.8617247" x2="69.8147933" y2="17.3967231" style="fill:none;stroke:rgb(68,68,68);stroke-width:0.714972;stroke-linecap:round;stroke-linejoin:round" />
<line x1="54.1142309" y1="11.7801037" x2="66.4486721" y2="19.2884073" style="fill:none;stroke:rgb(68,68,68);stroke-width:0.714972;stroke-linecap:round;stroke-linejoin:round" />
<line x1="37.8050406" y1="92.9932429" x2="37.8050406" y2="73.9246438" style="fill:none;stroke:rgb(68,68,68);stroke-width:0.714972;stroke-linecap:round;stroke-linejoin:round" />
<line x1="25.1239258" y1="100.3159587" x2="37.8050406" y2="92.9932429" style="fill:none;stroke:rgb(68,68,68);stroke-width:0.714972;stroke-linecap:round;stroke-linejoin:round" />
<line x1="4.7777741" y1="92.9946405" x2="17.4623092" y2="100.3170181" style="fill:none;stroke:rgb(68,68,68);stroke-width:0.714972;stroke-linecap:round;stroke-linejoin:round" />
<path d="M54.4593227,102.0284108 L53.8425809,101.6667278 L45.7106014,112.9347872 L47.1529151,113.7806198 L48.5952287,114.6264525 Z" style="fill:rgb(68,68,68);stroke:none" />
<line x1="54.1509518" y1="101.8475693" x2="63.4483439" y2="118.0732797" style="fill:none;stroke:rgb(68,68,68);stroke-width:0.714972;stroke-linecap:round;stroke-linejoin:round" />
<line x1="63.4483439" y1="118.0732797" x2="54.1020328" y2="134.1410518" style="fill:none;stroke:rgb(68,68,68);stroke-width:0.714972;stroke-linecap:round;stroke-linejoin:round" />
<line x1="54.1020328" y1="134.1410518" x2="35.5128393" y2="134.0809514" style="fill:none;stroke:rgb(68,68,68);stroke-width:0.714972;stroke-linecap:round;stroke-linejoin:round" />
<line x1="54.1020328" y1="134.1410518" x2="63.3435177" y2="150.270322" style="fill:none;stroke:rgb(68,68,68);stroke-width:0.714972;stroke-linecap:round;stroke-linejoin:round" />
<line x1="54.1020328" y1="134.1410518" x2="44.635521" y2="150.3248317" style="fill:none;stroke:rgb(68,68,68);stroke-width:0.714972;stroke-linecap:round;stroke-linejoin:round" />
<line x1="63.2714396" y1="117.7626334" x2="63.6252483" y2="118.3839259" style="fill:none;stroke:rgb(68,68,68);stroke-width:0.714972;stroke-linecap:round;stroke-linejoin:round" />
<line x1="65.8115321" y1="115.9732979" x2="66.4601815" y2="117.1123341" style="fill:none;stroke:rgb(68,68,68);stroke-width:0.714972;stroke-linecap:round;stroke-linejoin:round" />
<line x1="68.3516246" y1="114.1839623" x2="69.2951147" y2="115.8407423" style="fill:none;stroke:rgb(68,68,68);stroke-width:0.714972;stroke-linecap:round;stroke-linejoin:round" />
<line x1="70.8917172" y1="112.3946268" x2="72.1300479" y2="114.5691505" style="fill:none;stroke:rgb(68,68,68);stroke-width:0.714972;stroke-linecap:round;stroke-linejoin:round" />
<line x1="73.4318097" y1="110.6052912" x2="74.964981" y2="113.2975587" style="fill:none;stroke:rgb(68,68,68);stroke-width:0.714972;stroke-linecap:round;stroke-linejoin:round" />
<line x1="63.4483439" y1="118.0732797" x2="79.5734211" y2="127.2560618" style="fill:none;stroke:rgb(68,68,68);stroke-width:0.714972;stroke-linecap:round;stroke-linejoin:round" />
<path d="M27.6148555,53.1787876 Q27.9887777,53.589691 28.1880659,54.1855011 Q28.3873541,54.7813111 28.3873541,55.5373735 Q28.3873541,56.2934358 28.1839568,56.8913004 Q27.9805596,57.4891649 27.6148555,57.8877413 Q27.2368244,58.3027538 26.7211405,58.5123145 Q26.2054567,58.7218753 25.5439021,58.7218753 Q24.8987836,58.7218753 24.3707727,58.5082055 Q23.8427617,58.2945357 23.4729486,57.8877413 Q23.1031355,57.4809469 22.9038473,56.8892459 Q22.7045591,56.2975449 22.7045591,55.5373735 Q22.7045591,54.7895292 22.9017928,54.1957737 Q23.0990265,53.6020181 23.4770577,53.1787876 Q23.8386527,52.7761022 24.3748817,52.5624324 Q24.9111107,52.3487626 25.5439021,52.3487626 Q26.2013476,52.3487626 26.7252495,52.5644869 Q27.2491515,52.7802112 27.6148555,53.1787876 Z M27.5408929,55.5373735 Q27.5408929,54.3457534 27.0067184,53.6985805 Q26.4725439,53.0514075 25.5480111,53.0514075 Q24.6152603,53.0514075 24.0831403,53.6985805 Q23.5510203,54.3457534 23.5510203,55.5373735 Q23.5510203,56.7413206 24.0934129,57.3802755 Q24.6358054,58.0192304 25.5480111,58.0192304 Q26.4602168,58.0192304 27.0005549,57.3802755 Q27.5408929,56.7413206 27.5408929,55.5373735 Z" style="fill:rgb(68,68,68);stroke:none" />
<path d="M104.1584777,74.9404064 L103.1517642,74.9404064 L100.2507858,69.4671723 L100.2507858,74.9404064 L99.4906144,74.9404064 L99.4906144,68.8220539 L100.752088,68.8220539 L103.3983063,73.81864 L103.3983063,68.8220539 L104.1584777,68.8220539 Z" style="fill:rgb(68,68,68);stroke:none" />
<path d="M23.529426,5.5051933 Q23.9033482,5.9160968 24.1026363,6.5119068 Q24.3019245,7.1077168 24.3019245,7.8637792 Q24.3019245,8.6198416 24.0985273,9.2177061 Q23.8951301,9.8155706 23.529426,10.214147 Q23.1513948,10.6291595 22.635711,10.8387203 Q22.1200271,11.048281 21.4584725,11.048281 Q20.8133541,11.048281 20.2853432,10.8346112 Q19.7573322,10.6209414 19.3875191,10.214147 Q19.017706,9.8073526 18.8184178,9.2156516 Q18.6191296,8.6239506 18.6191296,7.8637792 Q18.6191296,7.1159349 18.8163633,6.5221794 Q19.0135969,5.9284239 19.3916281,5.5051933 Q19.7532232,5.1025079 20.2894522,4.8888381 Q20.8256812,4.6751683 21.4584725,4.6751683 Q22.1159181,4.6751683 22.63982,4.8908926 Q23.1637219,5.1066169 23.529426,5.5051933 Z M23.4554634,7.8637792 Q23.4554634,6.6721591 22.9212889,6.0249862 Q22.3871144,5.3778132 21.4625816,5.3778132 Q20.5298307,5.3778132 19.9977107,6.0249862 Q19.4655907,6.6721591 19.4655907,7.8637792 Q19.4655907,9.0677263 20.0079833,9.7066812 Q20.5503759,10.3456361 21.4625816,10.3456361 Q22.3747873,10.3456361 22.9151253,9.7066812 Q23.4554634,9.0677263 23.4554634,7.8637792 Z" style="fill:rgb(68,68,68);stroke:none" />
<path d="M17.917101,10.920901 L17.1035122,10.920901 L17.1035122,7.9254147 L14.0504994,7.9254147 L14.0504994,10.920901 L13.2369106,10.920901 L13.2369106,4.8025484 L14.0504994,4.8025484 L14.0504994,7.2022246 L17.1035122,7.2022246 L17.1035122,4.8025484 L17.917101,4.8025484 Z" style="fill:rgb(68,68,68);stroke:none" />
<path d="M23.361704,100.1717099 Q23.7356261,100.5826133 23.9349143,101.1784234 Q24.1342025,101.7742334 24.1342025,102.5302958 Q24.1342025,103.2863581 23.9308053,103.8842227 Q23.727408,104.4820872 23.361704,104.8806636 Q22.9836728,105.2956761 22.4679889,105.5052368 Q21.9523051,105.7147976 21.2907505,105.7147976 Q20.6456321,105.7147976 20.1176211,105.5011278 Q19.5896102,105.287458 19.219797,104.8806636 Q18.8499839,104.4738692 18.6506957,103.8821682 Q18.4514076,103.2904672 18.4514076,102.5302958 Q18.4514076,101.7824515 18.6486412,101.188696 Q18.8458749,100.5949405 19.2239061,100.1717099 Q19.5855011,99.7690245 20.1217301,99.5553547 Q20.6579592,99.3416849 21.2907505,99.3416849 Q21.948196,99.3416849 22.472098,99.5574092 Q22.9959999,99.7731335 23.361704,100.1717099 Z M23.2877413,102.5302958 Q23.2877413,101.3386757 22.7535668,100.6915028 Q22.2193923,100.0443298 21.2948595,100.0443298 Q20.3621087,100.0443298 19.8299887,100.6915028 Q19.2978687,101.3386757 19.2978687,102.5302958 Q19.2978687,103.7342429 19.8402613,104.3731978 Q20.3826538,105.0121527 21.2948595,105.0121527 Q22.2070652,105.0121527 22.7474033,104.3731978 Q23.2877413,103.7342429 23.2877413,102.5302958 Z" style="fill:rgb(68,68,68);stroke:none" />
<path d="M46.9756162,121.132456 L46.1620273,121.132456 L46.1620273,118.1369697 L43.1090146,118.1369697 L43.1090146,121.132456 L42.2954257,121.132456 L42.2954257,115.0141034 L43.1090146,115.0141034 L43.1090146,117.4137796 L46.1620273,117.4137796 L46.1620273,115.0141034 L46.9756162,115.0141034 Z" style="fill:rgb(68,68,68);stroke:none" />
<path d="M81.64232,106.5339662 Q82.0162422,106.9448697 82.2155304,107.5406797 Q82.4148186,108.1364897 82.4148186,108.8925521 Q82.4148186,109.6486145 82.2114213,110.246479 Q82.0080241,110.8443436 81.64232,111.2429199 Q81.2642889,111.6579324 80.748605,111.8674932 Q80.2329212,112.0770539 79.5713666,112.0770539 Q78.9262481,112.0770539 78.3982372,111.8633841 Q77.8702262,111.6497143 77.5004131,111.2429199 Q77.1306,110.8361255 76.9313118,110.2444245 Q76.7320236,109.6527235 76.7320236,108.8925521 Q76.7320236,108.1447078 76.9292573,107.5509523 Q77.126491,106.9571968 77.5045222,106.5339662 Q77.8661172,106.1312808 78.4023462,105.917611 Q78.9385753,105.7039412 79.5713666,105.7039412 Q80.2288121,105.7039412 80.752714,105.9196655 Q81.276616,106.1353899 81.64232,106.5339662 Z M81.5683574,108.8925521 Q81.5683574,107.7009321 81.0341829,107.0537591 Q80.5000084,106.4065861 79.5754756,106.4065861 Q78.6427248,106.4065861 78.1106048,107.0537591 Q77.5784848,107.7009321 77.5784848,108.8925521 Q77.5784848,110.0964992 78.1208774,110.7354541 Q78.6632699,111.374409 79.5754756,111.374409 Q80.4876813,111.374409 81.0280194,110.7354541 Q81.5683574,110.0964992 81.5683574,108.8925521 Z" style="fill:rgb(68,68,68);stroke:none" />
<path d="M87.7970376,111.9496739 L86.9834487,111.9496739 L86.9834487,108.9541876 L83.930436,108.9541876 L83.930436,111.9496739 L83.1168471,111.9496739 L83.1168471,105.8313213 L83.930436,105.8313213 L83.930436,108.2309975 L86.9834487,108.2309975 L86.9834487,105.8313213 L87.7970376,105.8313213 Z" style="fill:rgb(68,68,68);stroke:none" />
</svg>
