<?xml version="1.0" encoding="UTF-8"?>
<!DOCTYPE svg PUBLIC "-//W3C//DTD SVG 1.1//EN" "http://www.w3.org/Graphics/SVG/1.1/DTD/svg11.dtd">
<svg version="1.2" xmlns="http://www.w3.org/2000/svg" xmlns:xlink="http://www.w3.org/1999/xlink" x="0mm" y="0mm" width="236mm" height="177mm" viewBox="0 0 236 177">
<style type="text/css"><![CDATA[
text { font:12px Dialog; }
]]></style>
<line x1="47.2069397" y1="112.4336578" x2="30.8714504" y2="121.8517195" style="fill:none;stroke:rgb(68,68,68);stroke-width:0.7211464;stroke-linecap:round;stroke-linejoin:round" />
<line x1="178.0054568" y1="149.5787314" x2="194.3867872" y2="140.0162701" style="fill:none;stroke:rgb(68,68,68);stroke-width:0.7211464;stroke-linecap:round;stroke-linejoin:round" />
<line x1="177.9837461" y1="145.6600821" x2="190.9688763" y2="138.0801237" style="fill:none;stroke:rgb(68,68,68);stroke-width:0.7211464;stroke-linecap:round;stroke-linejoin:round" />
<line x1="194.3867872" y1="140.0162701" x2="194.1667498" y2="121.0747122" style="fill:none;stroke:rgb(68,68,68);stroke-width:0.7211464;stroke-linecap:round;stroke-linejoin:round" />
<line x1="177.7327021" y1="111.7231202" x2="161.4797268" y2="121.267245" style="fill:none;stroke:rgb(68,68,68);stroke-width:0.7211464;stroke-linecap:round;stroke-linejoin:round" />
<line x1="145.2084151" y1="111.9752464" x2="161.4797268" y2="121.267245" style="fill:none;stroke:rgb(68,68,68);stroke-width:0.7211464;stroke-linecap:round;stroke-linejoin:round" />
<line x1="96.2271599" y1="121.5995932" x2="83.7764249" y2="114.4991249" style="fill:none;stroke:rgb(68,68,68);stroke-width:0.7211464;stroke-linecap:round;stroke-linejoin:round" />
<line x1="76.0463422" y1="114.5381079" x2="63.6249431" y2="121.7692054" style="fill:none;stroke:rgb(68,68,68);stroke-width:0.7211464;stroke-linecap:round;stroke-linejoin:round" />
<line x1="177.7327021" y1="111.7231202" x2="194.1667498" y2="121.0747122" style="fill:none;stroke:rgb(68,68,68);stroke-width:0.7211464;stroke-linecap:round;stroke-linejoin:round" />
<line x1="177.7594281" y1="115.6447215" x2="190.7944174" y2="123.0621212" style="fill:none;stroke:rgb(68,68,68);stroke-width:0.7211464;stroke-linecap:round;stroke-linejoin:round" />
<line x1="194.1667498" y1="121.0747122" x2="210.3509633" y2="111.4962065" style="fill:none;stroke:rgb(68,68,68);stroke-width:0.7211464;stroke-linecap:round;stroke-linejoin:round" />
<line x1="30.8439458" y1="140.8253662" x2="47.2481967" y2="150.2457199" style="fill:none;stroke:rgb(68,68,68);stroke-width:0.7211464;stroke-linecap:round;stroke-linejoin:round" />
<line x1="210.3509633" y1="111.4962065" x2="210.2317763" y2="92.6692514" style="fill:none;stroke:rgb(68,68,68);stroke-width:0.7211464;stroke-linecap:round;stroke-linejoin:round" />
<line x1="112.4824272" y1="112.0325478" x2="128.8729258" y2="121.5262474" style="fill:none;stroke:rgb(68,68,68);stroke-width:0.7211464;stroke-linecap:round;stroke-linejoin:round" />
<line x1="115.8702388" y1="110.0712295" x2="128.8649173" y2="117.5980031" style="fill:none;stroke:rgb(68,68,68);stroke-width:0.7211464;stroke-linecap:round;stroke-linejoin:round" />
<line x1="210.2317763" y1="92.6692514" x2="193.6647893" y2="83.4689352" style="fill:none;stroke:rgb(68,68,68);stroke-width:0.7211464;stroke-linecap:round;stroke-linejoin:round" />
<line x1="206.8492117" y1="94.6743803" x2="193.7204698" y2="87.3834603" style="fill:none;stroke:rgb(68,68,68);stroke-width:0.7211464;stroke-linecap:round;stroke-linejoin:round" />
<line x1="63.6249431" y1="121.7692054" x2="63.6318192" y2="140.7084713" style="fill:none;stroke:rgb(68,68,68);stroke-width:0.7211464;stroke-linecap:round;stroke-linejoin:round" />
<line x1="193.6647893" y1="83.4689352" x2="181.407295" y2="90.7396795" style="fill:none;stroke:rgb(68,68,68);stroke-width:0.7211464;stroke-linecap:round;stroke-linejoin:round" />
<line x1="177.6053162" y1="97.6762445" x2="177.7327021" y2="111.7231202" style="fill:none;stroke:rgb(68,68,68);stroke-width:0.7211464;stroke-linecap:round;stroke-linejoin:round" />
<line x1="128.8729258" y1="121.5262474" x2="145.2084151" y2="111.9752464" style="fill:none;stroke:rgb(68,68,68);stroke-width:0.7211464;stroke-linecap:round;stroke-linejoin:round" />
<line x1="47.2481967" y1="150.2457199" x2="63.6318192" y2="140.7084713" style="fill:none;stroke:rgb(68,68,68);stroke-width:0.7211464;stroke-linecap:round;stroke-linejoin:round" />
<line x1="47.2366486" y1="146.3238906" x2="60.23592" y2="138.7567433" style="fill:none;stroke:rgb(68,68,68);stroke-width:0.7211464;stroke-linecap:round;stroke-linejoin:round" />
<line x1="193.4172472" y1="64.5709263" x2="209.7206477" y2="54.8594814" style="fill:none;stroke:rgb(68,68,68);stroke-width:0.7211464;stroke-linecap:round;stroke-linejoin:round" />
<line x1="193.366287" y1="60.6493872" x2="206.3045636" y2="52.9424452" style="fill:none;stroke:rgb(68,68,68);stroke-width:0.7211464;stroke-linecap:round;stroke-linejoin:round" />
<line x1="145.2084151" y1="111.9752464" x2="145.0938123" y2="93.0313964" style="fill:none;stroke:rgb(68,68,68);stroke-width:0.7211464;stroke-linecap:round;stroke-linejoin:round" />
<line x1="141.8014208" y1="110.0343144" x2="141.7105822" y2="95.0187072" style="fill:none;stroke:rgb(68,68,68);stroke-width:0.7211464;stroke-linecap:round;stroke-linejoin:round" />
<line x1="209.7206477" y1="54.8594814" x2="209.5166546" y2="35.9637646" style="fill:none;stroke:rgb(68,68,68);stroke-width:0.7211464;stroke-linecap:round;stroke-linejoin:round" />
<line x1="63.6318192" y1="140.7084713" x2="79.9375118" y2="150.0279745" style="fill:none;stroke:rgb(68,68,68);stroke-width:0.7211464;stroke-linecap:round;stroke-linejoin:round" />
<line x1="209.5166546" y1="35.9637646" x2="192.9313311" y2="26.751988" style="fill:none;stroke:rgb(68,68,68);stroke-width:0.7211464;stroke-linecap:round;stroke-linejoin:round" />
<line x1="206.142965" y1="37.9736892" x2="192.9940752" y2="30.6705676" style="fill:none;stroke:rgb(68,68,68);stroke-width:0.7211464;stroke-linecap:round;stroke-linejoin:round" />
<line x1="145.0938123" y1="93.0313964" x2="128.5680823" y2="83.6866806" style="fill:none;stroke:rgb(68,68,68);stroke-width:0.7211464;stroke-linecap:round;stroke-linejoin:round" />
<line x1="192.9313311" y1="26.751988" x2="176.6095942" y2="36.5138582" style="fill:none;stroke:rgb(68,68,68);stroke-width:0.7211464;stroke-linecap:round;stroke-linejoin:round" />
<line x1="30.8714504" y1="121.8517195" x2="30.8439458" y2="140.8253662" style="fill:none;stroke:rgb(68,68,68);stroke-width:0.7211464;stroke-linecap:round;stroke-linejoin:round" />
<line x1="34.2637984" y1="123.8149486" x2="34.2419865" y2="138.8615375" style="fill:none;stroke:rgb(68,68,68);stroke-width:0.7211464;stroke-linecap:round;stroke-linejoin:round" />
<line x1="176.6095942" y1="36.5138582" x2="177.0129962" y2="55.368318" style="fill:none;stroke:rgb(68,68,68);stroke-width:0.7211464;stroke-linecap:round;stroke-linejoin:round" />
<line x1="180.0462279" y1="38.4145475" x2="180.3659157" y2="53.3563188" style="fill:none;stroke:rgb(68,68,68);stroke-width:0.7211464;stroke-linecap:round;stroke-linejoin:round" />
<line x1="177.0129962" y1="55.368318" x2="193.4172472" y2="64.5709263" style="fill:none;stroke:rgb(68,68,68);stroke-width:0.7211464;stroke-linecap:round;stroke-linejoin:round" />
<line x1="193.6647893" y1="83.4689352" x2="193.4172472" y2="64.5709263" style="fill:none;stroke:rgb(68,68,68);stroke-width:0.7211464;stroke-linecap:round;stroke-linejoin:round" />
<line x1="128.5680823" y1="83.6866806" x2="112.4113734" y2="93.2078848" style="fill:none;stroke:rgb(68,68,68);stroke-width:0.7211464;stroke-linecap:round;stroke-linejoin:round" />
<line x1="128.6031273" y1="87.606905" x2="115.8138945" y2="95.1436439" style="fill:none;stroke:rgb(68,68,68);stroke-width:0.7211464;stroke-linecap:round;stroke-linejoin:round" />
<line x1="81.6334536" y1="149.0565978" x2="81.659256" y2="164.1933782" style="fill:none;stroke:rgb(68,68,68);stroke-width:0.7211464;stroke-linecap:round;stroke-linejoin:round" />
<line x1="78.2382586" y1="149.0567679" x2="78.2640705" y2="164.1991657" style="fill:none;stroke:rgb(68,68,68);stroke-width:0.7211464;stroke-linecap:round;stroke-linejoin:round" />
<line x1="112.4113734" y1="93.2078848" x2="112.4824272" y2="112.0325478" style="fill:none;stroke:rgb(68,68,68);stroke-width:0.7211464;stroke-linecap:round;stroke-linejoin:round" />
<line x1="145.0938123" y1="93.0313964" x2="157.4685174" y2="85.7691224" style="fill:none;stroke:rgb(68,68,68);stroke-width:0.7211464;stroke-linecap:round;stroke-linejoin:round" />
<line x1="96.2271599" y1="121.5995932" x2="112.4824272" y2="112.0325478" style="fill:none;stroke:rgb(68,68,68);stroke-width:0.7211464;stroke-linecap:round;stroke-linejoin:round" />
<line x1="161.5576568" y1="140.2202632" x2="149.1559848" y2="147.4402949" style="fill:none;stroke:rgb(68,68,68);stroke-width:0.7211464;stroke-linecap:round;stroke-linejoin:round" />
<line x1="79.9375118" y1="150.0279745" x2="96.3486389" y2="140.6282493" style="fill:none;stroke:rgb(68,68,68);stroke-width:0.7211464;stroke-linecap:round;stroke-linejoin:round" />
<line x1="194.3867872" y1="140.0162701" x2="206.8101101" y2="147.1385324" style="fill:none;stroke:rgb(68,68,68);stroke-width:0.7211464;stroke-linecap:round;stroke-linejoin:round" />
<line x1="63.6249431" y1="121.7692054" x2="47.2069397" y2="112.4336578" style="fill:none;stroke:rgb(68,68,68);stroke-width:0.7211464;stroke-linecap:round;stroke-linejoin:round" />
<line x1="60.2304697" y1="123.744738" x2="47.2186124" y2="116.3459813" style="fill:none;stroke:rgb(68,68,68);stroke-width:0.7211464;stroke-linecap:round;stroke-linejoin:round" />
<line x1="210.3385844" y1="109.5408194" x2="223.7368965" y2="117.0883483" style="fill:none;stroke:rgb(68,68,68);stroke-width:0.7211464;stroke-linecap:round;stroke-linejoin:round" />
<line x1="208.6642613" y1="112.4944685" x2="222.0705253" y2="120.0464769" style="fill:none;stroke:rgb(68,68,68);stroke-width:0.7211464;stroke-linecap:round;stroke-linejoin:round" />
<line x1="161.4797268" y1="121.267245" x2="161.5576568" y2="140.2202632" style="fill:none;stroke:rgb(68,68,68);stroke-width:0.7211464;stroke-linecap:round;stroke-linejoin:round" />
<line x1="164.882918" y1="123.2061075" x2="164.9447382" y2="138.2411483" style="fill:none;stroke:rgb(68,68,68);stroke-width:0.7211464;stroke-linecap:round;stroke-linejoin:round" />
<line x1="192.9313311" y1="26.751988" x2="192.7467506" y2="12.5858623" style="fill:none;stroke:rgb(68,68,68);stroke-width:0.7211464;stroke-linecap:round;stroke-linejoin:round" />
<line x1="96.3486389" y1="140.6282493" x2="96.2271599" y2="121.5995932" style="fill:none;stroke:rgb(68,68,68);stroke-width:0.7211464;stroke-linecap:round;stroke-linejoin:round" />
<line x1="92.9408615" y1="138.6674381" x2="92.844537" y2="123.5790234" style="fill:none;stroke:rgb(68,68,68);stroke-width:0.7211464;stroke-linecap:round;stroke-linejoin:round" />
<line x1="30.8714504" y1="121.8517195" x2="18.4988427" y2="114.6431026" style="fill:none;stroke:rgb(68,68,68);stroke-width:0.7211464;stroke-linecap:round;stroke-linejoin:round" />
<line x1="161.5576568" y1="140.2202632" x2="178.0054568" y2="149.5787314" style="fill:none;stroke:rgb(68,68,68);stroke-width:0.7211464;stroke-linecap:round;stroke-linejoin:round" />
<line x1="47.2481967" y1="150.2457199" x2="47.2895993" y2="164.4140214" style="fill:none;stroke:rgb(68,68,68);stroke-width:0.7211464;stroke-linecap:round;stroke-linejoin:round" />
<path d="M81.9921885,109.9146683 Q82.3693398,110.3291203 82.570349,110.9300756 Q82.7713582,111.5310309 82.7713582,112.2936225 Q82.7713582,113.0562141 82.5662045,113.6592417 Q82.3610508,114.2622693 81.9921885,114.6642877 Q81.6108927,115.0828841 81.0907555,115.2942546 Q80.5706183,115.5056251 79.9033507,115.5056251 Q79.2526611,115.5056251 78.7200904,115.2901101 Q78.1875196,115.0745951 77.8145129,114.6642877 Q77.4415061,114.2539802 77.2404969,113.6571694 Q77.0394877,113.0603586 77.0394877,112.2936225 Q77.0394877,111.53932 77.2384247,110.9404369 Q77.4373616,110.3415538 77.8186574,109.9146683 Q78.1833751,109.5085054 78.7242349,109.2929904 Q79.2650947,109.0774754 79.9033507,109.0774754 Q80.5664738,109.0774754 81.0949001,109.2950627 Q81.6233263,109.5126499 81.9921885,109.9146683 Z M81.9175872,112.2936225 Q81.9175872,111.0917119 81.3787997,110.43895 Q80.8400121,109.7861882 79.9074952,109.7861882 Q78.9666893,109.7861882 78.429974,110.43895 Q77.8932588,111.0917119 77.8932588,112.2936225 Q77.8932588,113.5079667 78.4403353,114.1524395 Q78.9874119,114.7969123 79.9074952,114.7969123 Q80.8275786,114.7969123 81.3725829,114.1524395 Q81.9175872,113.5079667 81.9175872,112.2936225 Z" style="fill:rgb(68,68,68);stroke:none" />
<path d="M179.6498554,90.6430542 Q180.0270067,91.0575062 180.2280159,91.6584615 Q180.4290251,92.2594168 180.4290251,93.0220084 Q180.4290251,93.7846 180.2238714,94.3876276 Q180.0187176,94.9906552 179.6498554,95.3926736 Q179.2685596,95.81127 178.7484224,96.0226405 Q178.2282852,96.234011 177.5610176,96.234011 Q176.910328,96.234011 176.3777573,96.018496 Q175.8451865,95.802981 175.4721798,95.3926736 Q175.099173,94.9823661 174.8981638,94.3855553 Q174.6971546,93.7887445 174.6971546,93.0220084 Q174.6971546,92.2677058 174.8960915,91.6688228 Q175.0950285,91.0699397 175.4763243,90.6430542 Q175.841042,90.2368913 176.3819018,90.0213763 Q176.9227616,89.8058613 177.5610176,89.8058613 Q178.2241407,89.8058613 178.7525669,90.0234485 Q179.2809932,90.2410358 179.6498554,90.6430542 Z M179.5752541,93.0220084 Q179.5752541,91.8200977 179.0364665,91.1673359 Q178.497679,90.5145741 177.5651621,90.5145741 Q176.6243562,90.5145741 176.0876409,91.1673359 Q175.5509256,91.8200977 175.5509256,93.0220084 Q175.5509256,94.2363526 176.0980022,94.8808254 Q176.6450788,95.5252982 177.5651621,95.5252982 Q178.4852454,95.5252982 179.0302497,94.8808254 Q179.5752541,94.2363526 179.5752541,93.0220084 Z" style="fill:rgb(68,68,68);stroke:none" />
<path d="M82.0563661,166.4757556 Q82.4335174,166.8902076 82.6345266,167.4911629 Q82.8355358,168.0921182 82.8355358,168.8547098 Q82.8355358,169.6173014 82.6303821,170.220329 Q82.4252284,170.8233566 82.0563661,171.225375 Q81.6750703,171.6439714 81.1549331,171.8553419 Q80.6347959,172.0667124 79.9675283,172.0667124 Q79.3168387,172.0667124 78.784268,171.8511974 Q78.2516972,171.6356824 77.8786905,171.225375 Q77.5056837,170.8150675 77.3046745,170.2182567 Q77.1036653,169.6214459 77.1036653,168.8547098 Q77.1036653,168.1004072 77.3026023,167.5015242 Q77.5015392,166.9026411 77.882835,166.4757556 Q78.2475527,166.0695927 78.7884125,165.8540777 Q79.3292723,165.6385627 79.9675283,165.6385627 Q80.6306514,165.6385627 81.1590777,165.8561499 Q81.6875039,166.0737372 82.0563661,166.4757556 Z M81.9817648,168.8547098 Q81.9817648,167.6527991 81.4429772,167.0000373 Q80.9041897,166.3472755 79.9716728,166.3472755 Q79.0308669,166.3472755 78.4941516,167.0000373 Q77.9574363,167.6527991 77.9574363,168.8547098 Q77.9574363,170.069054 78.5045129,170.7135268 Q79.0515895,171.3579996 79.9716728,171.3579996 Q80.8917561,171.3579996 81.4367605,170.7135268 Q81.9817648,170.069054 81.9817648,168.8547098 Z" style="fill:rgb(68,68,68);stroke:none" />
<path d="M163.4083405,81.1310182 Q163.7854917,81.5454702 163.9865009,82.1464255 Q164.1875101,82.7473808 164.1875101,83.5099724 Q164.1875101,84.272564 163.9823564,84.8755916 Q163.7772027,85.4786192 163.4083405,85.8806376 Q163.0270447,86.299234 162.5069075,86.5106045 Q161.9867703,86.721975 161.3195026,86.721975 Q160.6688131,86.721975 160.1362423,86.50646 Q159.6036716,86.290945 159.2306648,85.8806376 Q158.8576581,85.4703301 158.6566489,84.8735193 Q158.4556397,84.2767085 158.4556397,83.5099724 Q158.4556397,82.7556699 158.6545766,82.1567868 Q158.8535135,81.5579037 159.2348093,81.1310182 Q159.599527,80.7248553 160.1403868,80.5093403 Q160.6812466,80.2938253 161.3195026,80.2938253 Q161.9826258,80.2938253 162.511052,80.5114125 Q163.0394782,80.7289998 163.4083405,81.1310182 Z M163.3337391,83.5099724 Q163.3337391,82.3080618 162.7949516,81.6552999 Q162.256164,81.0025381 161.3236472,81.0025381 Q160.3828412,81.0025381 159.846126,81.6552999 Q159.3094107,82.3080618 159.3094107,83.5099724 Q159.3094107,84.7243166 159.8564873,85.3687894 Q160.4035638,86.0132622 161.3236472,86.0132622 Q162.2437305,86.0132622 162.7887348,85.3687894 Q163.3337391,84.7243166 163.3337391,83.5099724 Z" style="fill:rgb(68,68,68);stroke:none" />
<path d="M169.616209,86.5934949 L168.7955941,86.5934949 L168.7955941,83.5721402 L165.7162161,83.5721402 L165.7162161,86.5934949 L164.8956013,86.5934949 L164.8956013,80.4223054 L165.7162161,80.4223054 L165.7162161,82.8427048 L168.7955941,82.8427048 L168.7955941,80.4223054 L169.616209,80.4223054 Z" style="fill:rgb(68,68,68);stroke:none" />
<path d="M147.3845709,147.3095761 Q147.7617222,147.724028 147.9627314,148.3249834 Q148.1637406,148.9259387 148.1637406,149.6885303 Q148.1637406,150.4511219 147.9585869,151.0541495 Q147.7534331,151.6571771 147.3845709,152.0591954 Q147.0032751,152.4777919 146.4831379,152.6891624 Q145.9630007,152.9005329 145.2957331,152.9005329 Q144.6450435,152.9005329 144.1124728,152.6850179 Q143.579902,152.4695029 143.2068953,152.0591954 Q142.8338885,151.648888 142.6328793,151.0520772 Q142.4318701,150.4552664 142.4318701,149.6885303 Q142.4318701,148.9342277 142.630807,148.3353447 Q142.829744,147.7364616 143.2110398,147.3095761 Q143.5757575,146.9034132 144.1166173,146.6878982 Q144.6574771,146.4723832 145.2957331,146.4723832 Q145.9588562,146.4723832 146.4872824,146.6899704 Q147.0157087,146.9075577 147.3845709,147.3095761 Z M147.3099696,149.6885303 Q147.3099696,148.4866196 146.771182,147.8338578 Q146.2323945,147.181096 145.2998776,147.181096 Q144.3590717,147.181096 143.8223564,147.8338578 Q143.2856411,148.4866196 143.2856411,149.6885303 Q143.2856411,150.9028745 143.8327177,151.5473473 Q144.3797943,152.1918201 145.2998776,152.1918201 Q146.2199609,152.1918201 146.7649652,151.5473473 Q147.3099696,150.9028745 147.3099696,149.6885303 Z" style="fill:rgb(68,68,68);stroke:none" />
<path d="M141.723779,152.7720528 L140.9031641,152.7720528 L140.9031641,149.7506981 L137.8237861,149.7506981 L137.8237861,152.7720528 L137.0031712,152.7720528 L137.0031712,146.6008633 L137.8237861,146.6008633 L137.8237861,149.0212626 L140.9031641,149.0212626 L140.9031641,146.6008633 L141.723779,146.6008633 Z" style="fill:rgb(68,68,68);stroke:none" />
<path d="M212.765493,146.9795199 Q213.1426443,147.3939719 213.3436535,147.9949272 Q213.5446627,148.5958825 213.5446627,149.3584741 Q213.5446627,150.1210657 213.339509,150.7240933 Q213.1343552,151.3271209 212.765493,151.7291393 Q212.3841972,152.1477357 211.86406,152.3591062 Q211.3439228,152.5704767 210.6766552,152.5704767 Q210.0259656,152.5704767 209.4933949,152.3549617 Q208.9608241,152.1394467 208.5878174,151.7291393 Q208.2148106,151.3188318 208.0138014,150.722021 Q207.8127922,150.1252102 207.8127922,149.3584741 Q207.8127922,148.6041716 208.0117291,148.0052885 Q208.2106661,147.4064054 208.5919619,146.9795199 Q208.9566796,146.573357 209.4975394,146.357842 Q210.0383992,146.142327 210.6766552,146.142327 Q211.3397783,146.142327 211.8682045,146.3599142 Q212.3966308,146.5775015 212.765493,146.9795199 Z M212.6908917,149.3584741 Q212.6908917,148.1565634 212.1521041,147.5038016 Q211.6133166,146.8510398 210.6807997,146.8510398 Q209.7399938,146.8510398 209.2032785,147.5038016 Q208.6665632,148.1565634 208.6665632,149.3584741 Q208.6665632,150.5728183 209.2136398,151.2172911 Q209.7607164,151.8617639 210.6807997,151.8617639 Q211.600883,151.8617639 212.1458873,151.2172911 Q212.6908917,150.5728183 212.6908917,149.3584741 Z" style="fill:rgb(68,68,68);stroke:none" />
<path d="M218.9733615,152.4419966 L218.1527467,152.4419966 L218.1527467,149.4206419 L215.0733687,149.4206419 L215.0733687,152.4419966 L214.2527538,152.4419966 L214.2527538,146.2708071 L215.0733687,146.2708071 L215.0733687,148.6912065 L218.1527467,148.6912065 L218.1527467,146.2708071 L218.9733615,146.2708071 Z" style="fill:rgb(68,68,68);stroke:none" />
<path d="M228.8717766,118.3769423 Q229.2489279,118.7913942 229.4499371,119.3923496 Q229.6509463,119.9933049 229.6509463,120.7558965 Q229.6509463,121.5184881 229.4457926,122.1215156 Q229.2406388,122.7245432 228.8717766,123.1265616 Q228.4904808,123.5451581 227.9703436,123.7565286 Q227.4502064,123.9678991 226.7829388,123.9678991 Q226.1322492,123.9678991 225.5996785,123.7523841 Q225.0671077,123.5368691 224.6941009,123.1265616 Q224.3210942,122.7162542 224.120085,122.1194434 Q223.9190758,121.5226326 223.9190758,120.7558965 Q223.9190758,120.0015939 224.1180127,119.4027109 Q224.3169497,118.8038278 224.6982455,118.3769423 Q225.0629632,117.9707794 225.603823,117.7552644 Q226.1446828,117.5397493 226.7829388,117.5397493 Q227.4460619,117.5397493 227.9744881,117.7573366 Q228.5029144,117.9749239 228.8717766,118.3769423 Z M228.7971753,120.7558965 Q228.7971753,119.5539858 228.2583877,118.901224 Q227.7196002,118.2484622 226.7870833,118.2484622 Q225.8462774,118.2484622 225.3095621,118.901224 Q224.7728468,119.5539858 224.7728468,120.7558965 Q224.7728468,121.9702407 225.3199234,122.6147135 Q225.867,123.2591863 226.7870833,123.2591863 Q227.7071666,123.2591863 228.2521709,122.6147135 Q228.7971753,121.9702407 228.7971753,120.7558965 Z" style="fill:rgb(68,68,68);stroke:none" />
<path d="M194.7728466,5.5527351 Q195.1499979,5.9671871 195.3510071,6.5681424 Q195.5520163,7.1690977 195.5520163,7.9316893 Q195.5520163,8.6942809 195.3468626,9.2973085 Q195.1417088,9.9003361 194.7728466,10.3023545 Q194.3915508,10.7209509 193.8714136,10.9323214 Q193.3512764,11.1436919 192.6840088,11.1436919 Q192.0333192,11.1436919 191.5007485,10.9281769 Q190.9681777,10.7126619 190.595171,10.3023545 Q190.2221642,9.892047 190.021155,9.2952362 Q189.8201458,8.6984254 189.8201458,7.9316893 Q189.8201458,7.1773868 190.0190827,6.5785037 Q190.2180197,5.9796206 190.5993155,5.5527351 Q190.9640332,5.1465722 191.504893,4.9310572 Q192.0457528,4.7155422 192.6840088,4.7155422 Q193.3471319,4.7155422 193.8755581,4.9331295 Q194.4039844,5.1507167 194.7728466,5.5527351 Z M194.6982453,7.9316893 Q194.6982453,6.7297787 194.1594577,6.0770168 Q193.6206702,5.424255 192.6881533,5.424255 Q191.7473474,5.424255 191.2106321,6.0770168 Q190.6739168,6.7297787 190.6739168,7.9316893 Q190.6739168,9.1460335 191.2209934,9.7905063 Q191.76807,10.4349791 192.6881533,10.4349791 Q193.6082366,10.4349791 194.1532409,9.7905063 Q194.6982453,9.1460335 194.6982453,7.9316893 Z" style="fill:rgb(68,68,68);stroke:none" />
<path d="M200.9807151,11.0152118 L200.1601003,11.0152118 L200.1601003,7.9938571 L197.0807223,7.9938571 L197.0807223,11.0152118 L196.2601074,11.0152118 L196.2601074,4.8440223 L197.0807223,4.8440223 L197.0807223,7.2644217 L200.1601003,7.2644217 L200.1601003,4.8440223 L200.9807151,4.8440223 Z" style="fill:rgb(68,68,68);stroke:none" />
<path d="M16.7304534,110.0201029 Q17.1076047,110.4345549 17.3086139,111.0355102 Q17.5096231,111.6364656 17.5096231,112.3990571 Q17.5096231,113.1616487 17.3044694,113.7646763 Q17.0993156,114.3677039 16.7304534,114.7697223 Q16.3491576,115.1883188 15.8290204,115.3996893 Q15.3088832,115.6110598 14.6416156,115.6110598 Q13.990926,115.6110598 13.4583553,115.3955447 Q12.9257845,115.1800297 12.5527777,114.7697223 Q12.179771,114.3594149 11.9787618,113.7626041 Q11.7777526,113.1657932 11.7777526,112.3990571 Q11.7777526,111.6447546 11.9766895,111.0458715 Q12.1756265,110.4469885 12.5569223,110.0201029 Q12.92164,109.61394 13.4624998,109.398425 Q14.0033596,109.18291 14.6416156,109.18291 Q15.3047387,109.18291 15.8331649,109.4004973 Q16.3615912,109.6180846 16.7304534,110.0201029 Z M16.6558521,112.3990571 Q16.6558521,111.1971465 16.1170645,110.5443847 Q15.578277,109.8916228 14.6457601,109.8916228 Q13.7049542,109.8916228 13.1682389,110.5443847 Q12.6315236,111.1971465 12.6315236,112.3990571 Q12.6315236,113.6134014 13.1786002,114.2578741 Q13.7256768,114.9023469 14.6457601,114.9023469 Q15.5658434,114.9023469 16.1108477,114.2578741 Q16.6558521,113.6134014 16.6558521,112.3990571 Z" style="fill:rgb(68,68,68);stroke:none" />
<path d="M11.0696614,115.4825796 L10.2490466,115.4825796 L10.2490466,112.4612249 L7.1696686,112.4612249 L7.1696686,115.4825796 L6.3490537,115.4825796 L6.3490537,109.3113901 L7.1696686,109.3113901 L7.1696686,111.7317895 L10.2490466,111.7317895 L10.2490466,109.3113901 L11.0696614,109.3113901 Z" style="fill:rgb(68,68,68);stroke:none" />
<path d="M49.3899717,166.693501 Q49.767123,167.107953 49.9681322,167.7089083 Q50.1691413,168.3098636 50.1691413,169.0724552 Q50.1691413,169.8350468 49.9639876,170.4380744 Q49.7588339,171.041102 49.3899717,171.4431204 Q49.0086759,171.8617168 48.4885387,172.0730873 Q47.9684015,172.2844578 47.3011339,172.2844578 Q46.6504443,172.2844578 46.1178735,172.0689428 Q45.5853028,171.8534278 45.212296,171.4431204 Q44.8392893,171.0328129 44.6382801,170.4360021 Q44.4372709,169.8391913 44.4372709,169.0724552 Q44.4372709,168.3181527 44.6362078,167.7192696 Q44.8351447,167.1203865 45.2164405,166.693501 Q45.5811583,166.2873381 46.1220181,166.0718231 Q46.6628778,165.8563081 47.3011339,165.8563081 Q47.964257,165.8563081 48.4926832,166.0738953 Q49.0211094,166.2914826 49.3899717,166.693501 Z M49.3153703,169.0724552 Q49.3153703,167.8705445 48.7765828,167.2177827 Q48.2377953,166.5650209 47.3052784,166.5650209 Q46.3644724,166.5650209 45.8277572,167.2177827 Q45.2910419,167.8705445 45.2910419,169.0724552 Q45.2910419,170.2867994 45.8381185,170.9312722 Q46.385195,171.575745 47.3052784,171.575745 Q48.2253617,171.575745 48.770366,170.9312722 Q49.3153703,170.2867994 49.3153703,169.0724552 Z" style="fill:rgb(68,68,68);stroke:none" />
<path d="M55.5978402,172.1559777 L54.7772254,172.1559777 L54.7772254,169.134623 L51.6978474,169.134623 L51.6978474,172.1559777 L50.8772325,172.1559777 L50.8772325,165.9847882 L51.6978474,165.9847882 L51.6978474,168.4051876 L54.7772254,168.4051876 L54.7772254,165.9847882 L55.5978402,165.9847882 Z" style="fill:rgb(68,68,68);stroke:none" />
</svg>
