<?xml version="1.0" encoding="UTF-8"?>
<!DOCTYPE svg PUBLIC "-//W3C//DTD SVG 1.1//EN" "http://www.w3.org/Graphics/SVG/1.1/DTD/svg11.dtd">
<svg version="1.2" xmlns="http://www.w3.org/2000/svg" xmlns:xlink="http://www.w3.org/1999/xlink" x="0mm" y="0mm" width="27.1991169mm" height="23.3977304mm" viewBox="0 0 27.1991169 23.3977304">
<style type="text/css"><![CDATA[
text { font:12px Dialog; }
]]></style>
<line x1="7.0995537" y1="8.5123474" x2="4.4089981" y2="6.9589772" style="fill:none;stroke:rgb(68,68,68);stroke-width:0.1193292;stroke-linecap:round;stroke-linejoin:round" />
<line x1="7.9097368" y1="10.0024247" x2="7.9097368" y2="13.0241583" style="fill:none;stroke:rgb(68,68,68);stroke-width:0.1193292;stroke-linecap:round;stroke-linejoin:round" />
<line x1="7.2862708" y1="14.9479801" x2="4.5023089" y2="16.5552777" style="fill:none;stroke:rgb(68,68,68);stroke-width:0.1193292;stroke-linecap:round;stroke-linejoin:round" />
<line x1="6.8290758" y1="14.1560836" x2="4.0451139" y2="15.7633812" style="fill:none;stroke:rgb(68,68,68);stroke-width:0.1193292;stroke-linecap:round;stroke-linejoin:round" />
<line x1="8.8084213" y1="14.5789709" x2="11.4988345" y2="16.1323272" style="fill:none;stroke:rgb(68,68,68);stroke-width:0.1193292;stroke-linecap:round;stroke-linejoin:round" />
<line x1="12.3090168" y1="17.6224247" x2="12.3090168" y2="20.6441583" style="fill:none;stroke:rgb(68,68,68);stroke-width:0.1193292;stroke-linecap:round;stroke-linejoin:round" />
<line x1="13.0641299" y1="16.1641224" x2="15.8562416" y2="14.5520487" style="fill:none;stroke:rgb(68,68,68);stroke-width:0.1193292;stroke-linecap:round;stroke-linejoin:round" />
<line x1="17.6243743" y1="14.3573276" x2="20.7257378" y2="15.3635864" style="fill:none;stroke:rgb(68,68,68);stroke-width:0.1193292;stroke-linecap:round;stroke-linejoin:round" />
<line x1="21.7556468" y1="14.555594" x2="23.5415799" y2="12.0994299" style="fill:none;stroke:rgb(68,68,68);stroke-width:0.1193292;stroke-linecap:round;stroke-linejoin:round" />
<line x1="22.4952078" y1="15.0933457" x2="24.2811409" y2="12.6371816" style="fill:none;stroke:rgb(68,68,68);stroke-width:0.1193292;stroke-linecap:round;stroke-linejoin:round" />
<line x1="23.9479934" y1="10.7216173" x2="22.240757" y2="8.3717477" style="fill:none;stroke:rgb(68,68,68);stroke-width:0.1193292;stroke-linecap:round;stroke-linejoin:round" />
<line x1="21.869914" y1="6.3962595" x2="22.7745082" y2="3.6112429" style="fill:none;stroke:rgb(68,68,68);stroke-width:0.1193292;stroke-linecap:round;stroke-linejoin:round" />
<line x1="20.7616163" y1="7.662132" x2="17.6169073" y2="8.6846583" style="fill:none;stroke:rgb(68,68,68);stroke-width:0.1193292;stroke-linecap:round;stroke-linejoin:round" />
<line x1="16.2510968" y1="13.0241583" x2="16.2510968" y2="10.0304962" style="fill:none;stroke:rgb(68,68,68);stroke-width:0.1193292;stroke-linecap:round;stroke-linejoin:round" />
<line x1="17.1654968" y1="13.0241583" x2="17.1654968" y2="10.0304962" style="fill:none;stroke:rgb(68,68,68);stroke-width:0.1193292;stroke-linecap:round;stroke-linejoin:round" />
<line x1="15.8927218" y1="8.5092137" x2="13.2077013" y2="6.9589709" style="fill:none;stroke:rgb(68,68,68);stroke-width:0.1193292;stroke-linecap:round;stroke-linejoin:round" />
<line x1="8.6648499" y1="8.5441224" x2="11.4569616" y2="6.9320487" style="fill:none;stroke:rgb(68,68,68);stroke-width:0.1193292;stroke-linecap:round;stroke-linejoin:round" />
<line x1="11.8518168" y1="5.4041583" x2="11.8518168" y2="2.4153938" style="fill:none;stroke:rgb(68,68,68);stroke-width:0.1193292;stroke-linecap:round;stroke-linejoin:round" />
<line x1="12.7662168" y1="5.4041583" x2="12.7662168" y2="2.4153938" style="fill:none;stroke:rgb(68,68,68);stroke-width:0.1193292;stroke-linecap:round;stroke-linejoin:round" />
<path d="M7.5222598,9.6727579 Q7.5222598,9.6910459 7.5085439,9.7070479 Q7.4948278,9.7230499 7.4765399,9.7276219 Q7.4582519,9.7321939 7.4388209,9.7241929 Q7.4193899,9.7161919 7.4102458,9.6864739 Q7.4079598,9.684188 7.4079598,9.679616 L7.4079598,9.6773299 Q7.4102458,9.611036 7.4033879,9.5081659 Q7.3965299,9.4052959 7.3828139,9.2841379 Q7.3690978,9.16298 7.3530958,9.030392 Q7.3370939,8.8978039 7.3222348,8.7709309 Q7.3073759,8.644058 7.2970889,8.532044 Q7.2868019,8.42003 7.2856589,8.3365909 Q7.2845159,8.253152 7.2959459,8.209718 Q7.3073759,8.166284 7.3348079,8.1754279 Q7.3668118,8.159426 7.3839569,8.1925729 Q7.4011019,8.2257199 7.4113888,8.290871 Q7.4216759,8.3560219 7.4239619,8.439461 Q7.4262479,8.5228999 7.4273908,8.607482 Q7.4285339,8.692064 7.4296768,8.765216 Q7.4308199,8.8383679 7.4376778,8.8818019 Q7.4445358,8.8269379 7.4536798,8.7606439 Q7.4628239,8.69435 7.4776829,8.6269129 Q7.4925418,8.5594759 7.5154019,8.4977539 Q7.5382619,8.4360319 7.5702658,8.3925979 Q7.6251298,8.3171599 7.7039968,8.265725 Q7.7828639,8.21429 7.8720178,8.19143 Q7.9611719,8.1685699 8.0526118,8.176571 Q8.1440519,8.184572 8.2217759,8.228006 Q8.2949278,8.257724 8.3520778,8.3663089 Q8.4092279,8.474894 8.4480899,8.624627 Q8.4869518,8.77436 8.5086689,8.9480959 Q8.5303858,9.1218319 8.5326718,9.2807089 Q8.5349579,9.4395859 8.5189558,9.5664589 Q8.5029539,9.6933319 8.4686638,9.7504819 Q8.4389458,9.800774 8.4103709,9.7962019 Q8.3817958,9.79163 8.3703658,9.7321939 L8.3635078,9.7161919 Q8.3863679,9.6544699 8.4000838,9.5493139 Q8.4137998,9.4441579 8.4183718,9.3184279 Q8.4229439,9.1926979 8.4172289,9.054395 Q8.4115139,8.9160919 8.3897968,8.786933 Q8.3680799,8.657774 8.3303609,8.5469029 Q8.2926419,8.4360319 8.2377779,8.36288 Q8.1760558,8.289728 8.0914739,8.270297 Q8.0068919,8.2508659 7.9177379,8.2737259 Q7.8285838,8.296586 7.7485739,8.3537359 Q7.6685638,8.4108859 7.6182718,8.48861 Q7.5679799,8.56862 7.5371189,8.669204 Q7.5062579,8.7697879 7.4948278,8.9103769 Q7.4833978,9.050966 7.4902558,9.237275 Q7.4971139,9.4235839 7.5222598,9.6727579 Z" style="fill:rgb(68,68,68);stroke:none" />
<path d="M4.1869677,6.019504 Q4.1892537,6.05608 4.1721086,6.082369 Q4.1549636,6.1086579 4.1298176,6.1178019 Q4.1046716,6.126946 4.0783826,6.1155159 Q4.0520937,6.1040859 4.0406637,6.062938 Q3.9880857,5.928064 3.8897877,5.858341 Q3.7914897,5.7886179 3.6794757,5.766901 Q3.5674617,5.7451839 3.4600196,5.7623289 Q3.3525776,5.7794739 3.2794257,5.8183359 Q3.1811276,5.870914 3.1091186,5.9554959 Q3.0371096,6.040078 2.9913897,6.142948 Q2.9456697,6.2458179 2.9262386,6.356689 Q2.9068076,6.46756 2.9136657,6.5727159 Q2.9205237,6.6801579 2.9582427,6.780742 Q2.9959616,6.881326 3.0622557,6.9590499 Q3.1285497,7.0367739 3.2211326,7.0836369 Q3.3137157,7.1304999 3.4325876,7.1327859 Q3.4417316,7.1327859 3.4988817,7.136215 Q3.5560317,7.1396439 3.6428997,7.1190699 Q3.7297677,7.0984959 3.8372096,7.0436319 Q3.9446517,6.9887679 4.0566657,6.872182 Q4.0703817,6.8424639 4.0932416,6.8253189 Q4.1161016,6.8081739 4.1389617,6.8081739 Q4.1618216,6.8081739 4.1801096,6.8253189 Q4.1983976,6.8424639 4.2029696,6.8790399 Q4.1503917,6.9887679 4.0509507,7.0607769 Q3.9515097,7.1327859 3.8372096,7.1762199 Q3.7229097,7.2196539 3.6097526,7.2367989 Q3.4965957,7.2539439 3.4142996,7.2516579 Q3.2291336,7.2447999 3.1022607,7.1476449 Q2.9753877,7.0504899 2.9079506,6.9053289 Q2.8405136,6.7601679 2.8290836,6.5852889 Q2.8176537,6.4104099 2.8610876,6.2435319 Q2.9045216,6.076654 2.9993907,5.938351 Q3.0942597,5.8000479 3.2405637,5.726896 Q3.3571497,5.66746 3.4851656,5.646886 Q3.6131816,5.6263119 3.7400546,5.6571729 Q3.8669276,5.6880339 3.9823707,5.7749019 Q4.0978136,5.8617699 4.1869677,6.019504 Z" style="fill:rgb(68,68,68);stroke:none" />
<path d="M1.7818669,7.064206 Q1.779581,7.1030679 1.757864,7.1259279 Q1.736147,7.1487879 1.709858,7.1533599 Q1.683569,7.1579319 1.659566,7.1407869 Q1.635563,7.1236419 1.6332771,7.0824939 Q1.644707,6.8858979 1.646993,6.6927309 Q1.649279,6.499564 1.646993,6.302968 Q1.642421,6.3075399 1.640135,6.3075399 Q1.6264189,6.31897 1.610417,6.3212559 L1.592129,6.3212559 Q1.589843,6.3212559 1.5887,6.3201129 Q1.587557,6.31897 1.585271,6.31897 Q1.532693,6.3143979 1.461827,6.309826 Q1.390961,6.3052539 1.317809,6.304111 Q1.244657,6.302968 1.173791,6.304111 Q1.102925,6.3052539 1.048061,6.3121119 Q0.981767,6.31897 0.918902,6.331543 Q0.856037,6.344116 0.792029,6.3555459 Q0.782885,6.4515579 0.7886,6.548713 Q0.794315,6.645868 0.80003,6.7441659 Q0.805745,6.8424639 0.803459,6.9384759 Q0.801173,7.0344879 0.773741,7.1304999 Q0.748595,7.1533599 0.723449,7.1567889 Q0.698303,7.1602179 0.678872,7.1499309 Q0.659441,7.1396439 0.650297,7.1167839 Q0.641153,7.093924 0.650297,7.064206 Q0.661727,6.9133299 0.686873,6.7658829 Q0.712019,6.6184359 0.712019,6.4538439 Q0.712019,6.4332699 0.712019,6.411553 Q0.712019,6.389836 0.709733,6.3669759 Q0.686873,6.371548 0.665156,6.3726909 Q0.643439,6.3738339 0.620579,6.3761199 Q0.586289,6.3669759 0.57143,6.3452589 Q0.556571,6.3235419 0.56,6.2995389 Q0.563429,6.275536 0.581717,6.253819 Q0.600005,6.232102 0.629723,6.222958 Q0.648011,6.2275299 0.666299,6.228673 Q0.684587,6.2298159 0.702875,6.232102 Q0.691445,6.1155159 0.678872,6.001216 Q0.666299,5.8869159 0.657155,5.77033 Q0.659441,5.733754 0.681158,5.709751 Q0.702875,5.685748 0.729164,5.6811759 Q0.755453,5.6766039 0.778313,5.6937489 Q0.801173,5.710894 0.805745,5.752042 Q0.792029,5.996644 0.792029,6.2366739 Q0.881183,6.23896 0.984053,6.232102 Q1.086923,6.225244 1.193222,6.2149569 Q1.299521,6.20467 1.402391,6.1920969 Q1.505261,6.1795239 1.596701,6.17038 Q1.598987,6.17038 1.598987,6.169237 Q1.598987,6.168094 1.601273,6.168094 L1.612703,6.168094 Q1.624133,6.168094 1.628705,6.17038 L1.644707,6.174952 L1.644707,6.1589499 Q1.644707,6.1086579 1.6389919,6.0492219 Q1.6332771,5.989786 1.632134,5.9303499 Q1.630991,5.870914 1.636706,5.8126209 Q1.642421,5.754328 1.665281,5.704036 Q1.688141,5.6811759 1.71443,5.677747 Q1.740719,5.6743179 1.76015,5.684605 Q1.779581,5.6948919 1.7887251,5.7177519 Q1.797869,5.740612 1.7887251,5.77033 Q1.7887251,5.784046 1.784153,5.8171929 Q1.779581,5.8503399 1.773866,5.8880589 Q1.768151,5.925778 1.762436,5.958925 Q1.7567209,5.9920719 1.754435,6.0057879 Q1.743005,6.1018 1.735004,6.194383 Q1.727003,6.2869659 1.727003,6.380692 Q1.727003,6.552142 1.747577,6.7224489 Q1.768151,6.892756 1.7818669,7.064206 Z" style="fill:rgb(68,68,68);stroke:none" />
<path d="M2.3694833,6.8495505 Q2.3475377,6.8166321 2.3187341,6.8029161 Q2.2899305,6.7892001 2.2590695,6.7885143 Q2.2282085,6.7878285 2.1966617,6.7967439 Q2.1651149,6.8056593 2.1390545,6.8159463 Q2.1129941,6.8262333 2.0951633,6.8344629 Q2.0773325,6.8426925 2.0718461,6.8413209 Q2.0499005,6.8262333 2.0437283,6.8118315 Q2.0375561,6.7974297 2.0540153,6.7768557 Q2.0800757,6.7562817 2.1191663,6.7432515 Q2.1582569,6.7302213 2.2021481,6.7261065 Q2.2460393,6.7219917 2.2906163,6.7267923 Q2.3351933,6.7315929 2.3701691,6.7473663 Q2.4051449,6.7631397 2.4264047,6.7905717 Q2.4476645,6.8180037 2.4462929,6.8591517 Q2.4435497,6.9195021 2.4147461,6.9647649 Q2.3859425,7.0100277 2.3434229,7.0470609 Q2.3489093,7.0470609 2.3516525,7.0477467 Q2.3543957,7.0484325 2.3571389,7.0484325 Q2.4065165,7.0594053 2.4517793,7.0792935 Q2.4970421,7.0991817 2.5327037,7.1307285 Q2.5683653,7.1622753 2.5916825,7.2054807 Q2.6149997,7.2486861 2.6232293,7.3035501 Q2.631459,7.3611573 2.6108849,7.4077917 Q2.590311,7.4544261 2.5512203,7.4894019 Q2.5121297,7.5243777 2.4586373,7.5483807 Q2.4051449,7.5723837 2.3468519,7.5847281 Q2.2885589,7.5970725 2.2295801,7.5977583 Q2.1706013,7.5984441 2.1212237,7.5860997 Q2.0718461,7.5737553 2.0368703,7.5490665 Q2.0018945,7.5243777 1.9895501,7.4873445 Q1.9840637,7.4667705 1.9922933,7.4496255 Q2.0005229,7.4324805 2.0149247,7.4242509 Q2.0293265,7.4160213 2.0457857,7.4208219 Q2.0622449,7.4256225 2.0732177,7.4475681 Q2.0896769,7.4887161 2.1335681,7.5099759 Q2.1774593,7.5312357 2.2330091,7.5339789 Q2.2885589,7.5367221 2.3482235,7.5223203 Q2.4078881,7.5079185 2.4579515,7.4791149 Q2.5080149,7.4503113 2.5388759,7.4084775 Q2.5697369,7.3666437 2.5683653,7.3145229 Q2.5601357,7.2651453 2.5375043,7.2260547 Q2.5148729,7.1869641 2.4840119,7.1588463 Q2.4531509,7.1307285 2.4168035,7.1156409 Q2.3804561,7.1005533 2.3461661,7.0978101 Q2.3269637,7.0978101 2.3002175,7.1067255 Q2.2734713,7.1156409 2.2480967,7.1238705 Q2.2227221,7.1321001 2.2028339,7.1355291 Q2.1829457,7.1389581 2.1774593,7.1293569 Q2.1692297,7.1128977 2.1733445,7.1012391 Q2.1774593,7.0895805 2.1891179,7.0799793 Q2.2007765,7.0703781 2.2186073,7.0648917 Q2.2364381,7.0594053 2.2556405,7.0552905 Q2.2803293,7.0360881 2.3057039,7.0086561 Q2.3310785,6.9812241 2.3495951,6.9524205 Q2.3681117,6.9236169 2.3749697,6.8961849 Q2.3818277,6.8687529 2.3694833,6.8495505 Z" style="fill:rgb(68,68,68);stroke:none" />
<path d="M8.5863929,13.639476 Q8.5886788,13.6760521 8.5715338,13.702341 Q8.5543888,13.72863 8.5292428,13.737774 Q8.5040968,13.746918 8.4778078,13.735488 Q8.4515189,13.724058 8.4400888,13.6829101 Q8.3875109,13.548036 8.2892129,13.478313 Q8.1909148,13.4085899 8.0789009,13.386873 Q7.9668869,13.3651559 7.8594448,13.382301 Q7.7520028,13.399446 7.6788508,13.438308 Q7.5805528,13.490886 7.5085438,13.575468 Q7.4365348,13.66005 7.3908148,13.7629201 Q7.3450948,13.86579 7.3256638,13.976661 Q7.3062328,14.087532 7.3130908,14.192688 Q7.3199488,14.30013 7.3576678,14.400714 Q7.3953868,14.501298 7.4616808,14.579022 Q7.5279748,14.656746 7.6205578,14.703609 Q7.7131408,14.750472 7.8320128,14.752758 Q7.8411568,14.752758 7.8983069,14.756187 Q7.9554568,14.759616 8.0423248,14.739042 Q8.1291928,14.718468 8.2366348,14.663604 Q8.3440769,14.60874 8.4560909,14.492154 Q8.4698069,14.462436 8.4926668,14.445291 Q8.5155268,14.428146 8.5383869,14.428146 Q8.5612468,14.428146 8.5795348,14.445291 Q8.5978228,14.462436 8.6023948,14.499012 Q8.5498169,14.60874 8.4503759,14.680749 Q8.3509349,14.752758 8.2366348,14.796192 Q8.1223349,14.839626 8.0091778,14.856771 Q7.8960208,14.873916 7.8137248,14.87163 Q7.6285588,14.864772 7.5016858,14.767617 Q7.3748128,14.670462 7.3073758,14.525301 Q7.2399388,14.38014 7.2285088,14.205261 Q7.2170788,14.030382 7.2605128,13.863504 Q7.3039468,13.696626 7.3988158,13.5583231 Q7.4936848,13.42002 7.6399888,13.3468681 Q7.7565748,13.287432 7.8845908,13.266858 Q8.0126068,13.246284 8.1394798,13.277145 Q8.2663528,13.308006 8.3817959,13.394874 Q8.4972388,13.481742 8.5863929,13.639476 Z" style="fill:rgb(68,68,68);stroke:none" />
<path d="M4.0566656,17.157856 Q4.0086596,17.240152 3.9309357,17.296159 Q3.8532117,17.352166 3.7583426,17.381884 Q3.6634737,17.411602 3.5606037,17.415031 Q3.4577336,17.41846 3.3605786,17.3956 Q3.2634237,17.37274 3.1776987,17.325877 Q3.0919737,17.279014 3.0348237,17.205862 Q2.9479557,17.096134 2.9090937,16.956688 Q2.8702317,16.817242 2.8759467,16.668652 Q2.8816617,16.520062 2.9285247,16.376044 Q2.9753877,16.232026 3.0565407,16.112011 Q3.1376937,15.9919961 3.2508507,15.908557 Q3.3640077,15.8251181 3.5034536,15.7999721 Q3.6063236,15.7816841 3.6954777,15.815974 Q3.7846317,15.850264 3.8566407,15.92113 Q3.9286497,15.9919961 3.9846567,16.093723 Q4.0406637,16.19545 4.0772396,16.310893 Q4.1138156,16.426336 4.1321036,16.547494 Q4.1503916,16.668652 4.1481057,16.782952 Q4.1458197,16.897252 4.1229597,16.994407 Q4.1000996,17.091562 4.0566656,17.157856 Z M3.1742696,17.173858 Q3.2451357,17.237866 3.3571496,17.264155 Q3.4691636,17.290444 3.5868927,17.2813 Q3.7046217,17.272156 3.8109206,17.228722 Q3.9172197,17.185288 3.9743697,17.112136 Q4.0292337,17.038984 4.0475217,16.916683 Q4.0658097,16.794382 4.0509506,16.656079 Q4.0360917,16.517776 3.9903716,16.379473 Q3.9446516,16.2411701 3.8714997,16.1348711 Q3.7983476,16.028572 3.7000496,15.970279 Q3.6017517,15.9119861 3.4851656,15.934846 Q3.3525776,15.959992 3.2508507,16.037716 Q3.1491236,16.11544 3.0828297,16.225168 Q3.0165357,16.334896 2.9868177,16.464055 Q2.9570997,16.593214 2.9673867,16.722373 Q2.9776737,16.851532 3.0279656,16.969261 Q3.0782577,17.08699 3.1742696,17.173858 Z" style="fill:rgb(68,68,68);stroke:none" />
<path d="M11.9215398,17.2927579 Q11.9215398,17.3110459 11.9078239,17.3270479 Q11.8941078,17.3430499 11.8758199,17.3476219 Q11.8575319,17.3521939 11.8381009,17.3441929 Q11.8186699,17.3361919 11.8095258,17.3064739 Q11.8072398,17.304188 11.8072398,17.299616 L11.8072398,17.2973299 Q11.8095258,17.231036 11.8026679,17.1281659 Q11.7958099,17.0252959 11.7820939,16.9041379 Q11.7683778,16.78298 11.7523758,16.650392 Q11.7363739,16.5178039 11.7215148,16.3909309 Q11.7066559,16.264058 11.6963689,16.152044 Q11.6860819,16.04003 11.6849389,15.9565909 Q11.6837959,15.873152 11.6952259,15.829718 Q11.7066559,15.786284 11.7340879,15.7954279 Q11.7660918,15.779426 11.7832369,15.8125729 Q11.8003819,15.8457199 11.8106688,15.910871 Q11.8209559,15.9760219 11.8232419,16.059461 Q11.8255279,16.1428999 11.8266708,16.227482 Q11.8278139,16.312064 11.8289568,16.385216 Q11.8300999,16.4583679 11.8369578,16.5018019 Q11.8438158,16.4469379 11.8529598,16.3806439 Q11.8621039,16.31435 11.8769629,16.2469129 Q11.8918218,16.1794759 11.9146819,16.1177539 Q11.9375419,16.0560319 11.9695458,16.0125979 Q12.0244098,15.9371599 12.1032768,15.885725 Q12.1821439,15.83429 12.2712978,15.81143 Q12.3604519,15.7885699 12.4518918,15.796571 Q12.5433319,15.804572 12.6210559,15.848006 Q12.6942078,15.877724 12.7513578,15.9863089 Q12.8085079,16.094894 12.8473699,16.244627 Q12.8862318,16.39436 12.9079489,16.5680959 Q12.9296658,16.7418319 12.9319518,16.9007089 Q12.9342379,17.0595859 12.9182358,17.1864589 Q12.9022339,17.3133319 12.8679438,17.3704819 Q12.8382258,17.420774 12.8096509,17.4162019 Q12.7810758,17.41163 12.7696458,17.3521939 L12.7627878,17.3361919 Q12.7856479,17.2744699 12.7993638,17.1693139 Q12.8130798,17.0641579 12.8176518,16.9384279 Q12.8222239,16.8126979 12.8165089,16.674395 Q12.8107939,16.5360919 12.7890768,16.406933 Q12.7673599,16.277774 12.7296409,16.1669029 Q12.6919219,16.0560319 12.6370579,15.98288 Q12.5753358,15.909728 12.4907539,15.890297 Q12.4061719,15.8708659 12.3170179,15.8937259 Q12.2278638,15.916586 12.1478539,15.9737359 Q12.0678438,16.0308859 12.0175518,16.10861 Q11.9672599,16.18862 11.9363989,16.289204 Q11.9055379,16.3897879 11.8941078,16.5303769 Q11.8826778,16.670966 11.8895358,16.857275 Q11.8963939,17.0435839 11.9215398,17.2927579 Z" style="fill:rgb(68,68,68);stroke:none" />
<path d="M12.9856729,21.259476 Q12.9879588,21.2960521 12.9708138,21.322341 Q12.9536688,21.34863 12.9285228,21.357774 Q12.9033768,21.366918 12.8770878,21.355488 Q12.8507989,21.344058 12.8393688,21.3029101 Q12.7867909,21.168036 12.6884929,21.098313 Q12.5901948,21.0285899 12.4781809,21.006873 Q12.3661669,20.9851559 12.2587248,21.002301 Q12.1512828,21.019446 12.0781308,21.058308 Q11.9798328,21.110886 11.9078238,21.195468 Q11.8358148,21.28005 11.7900948,21.3829201 Q11.7443748,21.48579 11.7249438,21.596661 Q11.7055128,21.707532 11.7123708,21.812688 Q11.7192288,21.92013 11.7569478,22.020714 Q11.7946668,22.121298 11.8609608,22.199022 Q11.9272548,22.276746 12.0198378,22.323609 Q12.1124208,22.370472 12.2312928,22.372758 Q12.2404368,22.372758 12.2975869,22.376187 Q12.3547368,22.379616 12.4416048,22.359042 Q12.5284728,22.338468 12.6359148,22.283604 Q12.7433569,22.22874 12.8553709,22.112154 Q12.8690869,22.082436 12.8919468,22.065291 Q12.9148068,22.048146 12.9376669,22.048146 Q12.9605268,22.048146 12.9788148,22.065291 Q12.9971028,22.082436 13.0016748,22.119012 Q12.9490969,22.22874 12.8496559,22.300749 Q12.7502149,22.372758 12.6359148,22.416192 Q12.5216149,22.459626 12.4084578,22.476771 Q12.2953008,22.493916 12.2130048,22.49163 Q12.0278388,22.484772 11.9009658,22.387617 Q11.7740928,22.290462 11.7066558,22.145301 Q11.6392188,22.00014 11.6277888,21.825261 Q11.6163588,21.650382 11.6597928,21.483504 Q11.7032268,21.316626 11.7980958,21.1783231 Q11.8929648,21.04002 12.0392688,20.9668681 Q12.1558548,20.907432 12.2838708,20.886858 Q12.4118868,20.866284 12.5387598,20.897145 Q12.6656328,20.928006 12.7810759,21.014874 Q12.8965188,21.101742 12.9856729,21.259476 Z" style="fill:rgb(68,68,68);stroke:none" />
<path d="M14.4131655,22.304178 Q14.4108795,22.34304 14.3891626,22.3659 Q14.3674455,22.38876 14.3411566,22.393332 Q14.3148676,22.397904 14.2908646,22.380759 Q14.2668615,22.363614 14.2645756,22.322466 Q14.2760055,22.12587 14.2782916,21.932703 Q14.2805775,21.739536 14.2782916,21.54294 Q14.2737195,21.547512 14.2714336,21.547512 Q14.2577175,21.558942 14.2417156,21.561228 L14.2234275,21.561228 Q14.2211415,21.561228 14.2199986,21.560085 Q14.2188555,21.558942 14.2165696,21.558942 Q14.1639916,21.55437 14.0931255,21.549798 Q14.0222595,21.545226 13.9491076,21.544083 Q13.8759555,21.54294 13.8050895,21.544083 Q13.7342235,21.545226 13.6793595,21.552084 Q13.6130655,21.558942 13.5502005,21.571515 Q13.4873355,21.584088 13.4233275,21.595518 Q13.4141835,21.69153 13.4198985,21.788685 Q13.4256135,21.88584 13.4313285,21.984138 Q13.4370435,22.082436 13.4347575,22.178448 Q13.4324715,22.27446 13.4050395,22.370472 Q13.3798935,22.393332 13.3547475,22.396761 Q13.3296015,22.40019 13.3101705,22.389903 Q13.2907395,22.379616 13.2815955,22.356756 Q13.2724515,22.333896 13.2815955,22.304178 Q13.2930255,22.153302 13.3181715,22.005855 Q13.3433175,21.858408 13.3433175,21.693816 Q13.3433175,21.673242 13.3433175,21.651525 Q13.3433175,21.629808 13.3410315,21.606948 Q13.3181715,21.61152 13.2964545,21.612663 Q13.2747375,21.613806 13.2518775,21.616092 Q13.2175875,21.606948 13.2027285,21.585231 Q13.1878695,21.563514 13.1912985,21.539511 Q13.1947275,21.515508 13.2130155,21.493791 Q13.2313035,21.472074 13.2610215,21.46293 Q13.2793095,21.467502 13.2975975,21.468645 Q13.3158855,21.469788 13.3341735,21.472074 Q13.3227435,21.355488 13.3101705,21.241188 Q13.2975975,21.126888 13.2884535,21.0103021 Q13.2907395,20.973726 13.3124565,20.949723 Q13.3341735,20.92572 13.3604625,20.921148 Q13.3867515,20.916576 13.4096115,20.933721 Q13.4324715,20.950866 13.4370435,20.9920141 Q13.4233275,21.236616 13.4233275,21.476646 Q13.5124815,21.478932 13.6153515,21.472074 Q13.7182215,21.465216 13.8245205,21.454929 Q13.9308196,21.444642 14.0336896,21.432069 Q14.1365595,21.419496 14.2279995,21.410352 Q14.2302855,21.410352 14.2302855,21.409209 Q14.2302855,21.4080661 14.2325715,21.4080661 L14.2440015,21.4080661 Q14.2554315,21.4080661 14.2600036,21.410352 L14.2760055,21.414924 L14.2760055,21.398922 Q14.2760055,21.34863 14.2702905,21.289194 Q14.2645756,21.229758 14.2634325,21.170322 Q14.2622895,21.110886 14.2680045,21.052593 Q14.2737195,20.9943 14.2965796,20.944008 Q14.3194395,20.921148 14.3457286,20.9177191 Q14.3720176,20.91429 14.3914485,20.924577 Q14.4108795,20.934864 14.4200236,20.957724 Q14.4291675,20.980584 14.4200236,21.0103021 Q14.4200236,21.024018 14.4154516,21.057165 Q14.4108795,21.090312 14.4051645,21.1280309 Q14.3994495,21.1657501 14.3937345,21.198897 Q14.3880195,21.232044 14.3857335,21.24576 Q14.3743035,21.341772 14.3663025,21.434355 Q14.3583016,21.526938 14.3583016,21.620664 Q14.3583016,21.792114 14.3788755,21.962421 Q14.3994495,22.132728 14.4131655,22.304178 Z" style="fill:rgb(68,68,68);stroke:none" />
<path d="M15.0007819,22.0895226 Q14.9788363,22.0566042 14.9500326,22.0428881 Q14.9212291,22.0291722 14.8903681,22.0284863 Q14.8595071,22.0278005 14.8279603,22.036716 Q14.7964135,22.0456313 14.7703531,22.0559184 Q14.7442927,22.0662054 14.7264619,22.074435 Q14.7086311,22.0826646 14.7031447,22.081293 Q14.6811991,22.0662054 14.6750269,22.0518036 Q14.6688547,22.0374018 14.6853139,22.0168277 Q14.7113743,21.9962538 14.7504649,21.9832235 Q14.7895555,21.9701934 14.8334467,21.9660786 Q14.8773379,21.9619638 14.9219148,21.9667644 Q14.9664918,21.9715649 15.0014677,21.9873383 Q15.0364435,22.0031118 15.0577033,22.0305437 Q15.0789631,22.0579757 15.0775915,22.0991237 Q15.0748482,22.1594742 15.0460447,22.204737 Q15.0172411,22.2499998 14.9747215,22.287033 Q14.9802079,22.287033 14.9829511,22.2877187 Q14.9856943,22.2884045 14.9884375,22.2884045 Q15.0378151,22.2993773 15.0830779,22.3192656 Q15.1283407,22.3391538 15.1640023,22.3707006 Q15.1996638,22.4022474 15.2229811,22.4454528 Q15.2462982,22.4886582 15.2545278,22.5435222 Q15.2627575,22.6011294 15.2421835,22.6477638 Q15.2216095,22.6943982 15.1825189,22.729374 Q15.1434283,22.7643497 15.0899359,22.7883528 Q15.0364435,22.8123558 14.9781505,22.8247002 Q14.9198575,22.8370446 14.8608787,22.8377304 Q14.8018999,22.8384162 14.7525223,22.8260718 Q14.7031447,22.8137274 14.6681689,22.7890386 Q14.6331931,22.7643497 14.6208487,22.7273166 Q14.6153623,22.7067426 14.6235919,22.6895975 Q14.6318215,22.6724526 14.6462233,22.6642229 Q14.6606251,22.6559933 14.6770843,22.660794 Q14.6935435,22.6655946 14.7045163,22.6875401 Q14.7209755,22.7286882 14.7648667,22.7499479 Q14.8087579,22.7712078 14.8643077,22.773951 Q14.9198575,22.7766942 14.979522,22.7622924 Q15.0391866,22.7478906 15.0892501,22.719087 Q15.1393135,22.6902833 15.1701745,22.6484495 Q15.2010355,22.6066157 15.1996638,22.5544949 Q15.1914343,22.5051174 15.1688029,22.4660268 Q15.1461715,22.4269362 15.1153105,22.3988184 Q15.0844495,22.3707006 15.0481021,22.355613 Q15.0117547,22.3405253 14.9774647,22.3377822 Q14.9582623,22.3377822 14.9315161,22.3466976 Q14.9047699,22.355613 14.8793953,22.3638426 Q14.8540207,22.3720721 14.8341325,22.3755011 Q14.8142443,22.3789302 14.8087579,22.369329 Q14.8005283,22.3528698 14.8046431,22.3412112 Q14.8087579,22.3295526 14.8204165,22.3199513 Q14.8320751,22.3103501 14.8499059,22.3048637 Q14.8677367,22.2993773 14.8869391,22.2952625 Q14.9116279,22.2760602 14.9370024,22.2486281 Q14.9623771,22.2211961 14.9808937,22.1923925 Q14.9994103,22.163589 15.0062683,22.1361569 Q15.0131262,22.108725 15.0007819,22.0895226 Z" style="fill:rgb(68,68,68);stroke:none" />
<path d="M17.3849529,13.639476 Q17.3872388,13.6760521 17.3700938,13.702341 Q17.3529488,13.72863 17.3278028,13.737774 Q17.3026568,13.746918 17.2763678,13.735488 Q17.2500789,13.724058 17.2386488,13.6829101 Q17.1860709,13.548036 17.0877729,13.478313 Q16.9894748,13.4085899 16.8774609,13.386873 Q16.7654469,13.3651559 16.6580048,13.382301 Q16.5505628,13.399446 16.4774108,13.438308 Q16.3791128,13.490886 16.3071038,13.575468 Q16.2350948,13.66005 16.1893748,13.7629201 Q16.1436548,13.86579 16.1242238,13.976661 Q16.1047928,14.087532 16.1116508,14.192688 Q16.1185088,14.30013 16.1562278,14.400714 Q16.1939468,14.501298 16.2602408,14.579022 Q16.3265348,14.656746 16.4191178,14.703609 Q16.5117008,14.750472 16.6305728,14.752758 Q16.6397168,14.752758 16.6968669,14.756187 Q16.7540168,14.759616 16.8408848,14.739042 Q16.9277528,14.718468 17.0351948,14.663604 Q17.1426369,14.60874 17.2546509,14.492154 Q17.2683669,14.462436 17.2912268,14.445291 Q17.3140868,14.428146 17.3369469,14.428146 Q17.3598068,14.428146 17.3780948,14.445291 Q17.3963828,14.462436 17.4009548,14.499012 Q17.3483769,14.60874 17.2489359,14.680749 Q17.1494949,14.752758 17.0351948,14.796192 Q16.9208949,14.839626 16.8077378,14.856771 Q16.6945808,14.873916 16.6122848,14.87163 Q16.4271188,14.864772 16.3002458,14.767617 Q16.1733728,14.670462 16.1059358,14.525301 Q16.0384988,14.38014 16.0270688,14.205261 Q16.0156388,14.030382 16.0590728,13.863504 Q16.1025068,13.696626 16.1973758,13.5583231 Q16.2922448,13.42002 16.4385488,13.3468681 Q16.5551348,13.287432 16.6831508,13.266858 Q16.8111668,13.246284 16.9380398,13.277145 Q17.0649128,13.308006 17.1803559,13.394874 Q17.2957988,13.481742 17.3849529,13.639476 Z" style="fill:rgb(68,68,68);stroke:none" />
<path d="M21.1535932,16.3207846 Q21.1535932,16.3390726 21.1398772,16.3550746 Q21.1261612,16.3710766 21.1078732,16.3756486 Q21.0895852,16.3802206 21.0701542,16.3722196 Q21.0507232,16.3642186 21.0415792,16.3345006 Q21.0392932,16.3322146 21.0392932,16.3276426 L21.0392932,16.3253566 Q21.0415792,16.2590626 21.0347212,16.1561926 Q21.0278632,16.0533226 21.0141472,15.9321646 Q21.0004312,15.8110066 20.9844292,15.6784186 Q20.9684272,15.5458306 20.9535682,15.4189576 Q20.9387092,15.2920846 20.9284222,15.1800706 Q20.9181352,15.0680566 20.9169922,14.9846176 Q20.9158492,14.9011786 20.9272792,14.8577446 Q20.9387092,14.8143106 20.9661412,14.8234546 Q20.9981452,14.8074526 21.0152902,14.8405996 Q21.0324352,14.8737466 21.0427222,14.9388976 Q21.0530092,15.0040486 21.0552952,15.0874876 Q21.0575812,15.1709266 21.0587242,15.2555086 Q21.0598672,15.3400907 21.0610102,15.4132426 Q21.0621532,15.4863946 21.0690112,15.5298286 Q21.0758692,15.4749646 21.0850132,15.4086706 Q21.0941572,15.3423766 21.1090162,15.2749396 Q21.1238752,15.2075026 21.1467352,15.1457806 Q21.1695952,15.0840586 21.2015992,15.0406246 Q21.2564632,14.9651866 21.3353302,14.9137516 Q21.4141972,14.8623167 21.5033512,14.8394566 Q21.5925052,14.8165966 21.6839452,14.8245977 Q21.7753852,14.8325986 21.8531092,14.8760326 Q21.9262612,14.9057507 21.9834111,15.0143356 Q22.0405612,15.1229207 22.0794232,15.2726537 Q22.1182852,15.4223866 22.1400022,15.5961226 Q22.1617192,15.7698586 22.1640051,15.9287356 Q22.1662912,16.0876126 22.1502892,16.2144856 Q22.1342872,16.3413586 22.0999972,16.3985086 Q22.0702791,16.4488006 22.0417042,16.4442286 Q22.0131292,16.4396566 22.0016991,16.3802206 L21.9948412,16.3642186 Q22.0177012,16.3024966 22.0314172,16.1973406 Q22.0451331,16.0921846 22.0497052,15.9664546 Q22.0542772,15.8407246 22.0485622,15.7024216 Q22.0428472,15.5641186 22.0211301,15.4349596 Q21.9994132,15.3058006 21.9616942,15.1949296 Q21.9239752,15.0840586 21.8691112,15.0109067 Q21.8073892,14.9377546 21.7228072,14.9183237 Q21.6382252,14.8988926 21.5490712,14.9217526 Q21.4599172,14.9446126 21.3799072,15.0017626 Q21.2998972,15.0589126 21.2496052,15.1366366 Q21.1993132,15.2166467 21.1684522,15.3172306 Q21.1375912,15.4178146 21.1261612,15.5584036 Q21.1147312,15.6989926 21.1215892,15.8853016 Q21.1284472,16.0716106 21.1535932,16.3207846 Z" style="fill:rgb(68,68,68);stroke:none" />
<path d="M25.2047662,11.099476 Q25.2070522,11.1360521 25.1899071,11.162341 Q25.1727621,11.18863 25.1476161,11.197774 Q25.1224701,11.206918 25.0961812,11.195488 Q25.0698922,11.184058 25.0584622,11.1429101 Q25.0058842,11.008036 24.9075862,10.938313 Q24.8092882,10.8685899 24.6972742,10.846873 Q24.5852602,10.8251559 24.4778182,10.842301 Q24.3703761,10.859446 24.2972242,10.898308 Q24.1989262,10.950886 24.1269172,11.035468 Q24.0549082,11.12005 24.0091882,11.2229201 Q23.9634682,11.32579 23.9440372,11.436661 Q23.9246062,11.547532 23.9314642,11.652688 Q23.9383222,11.76013 23.9760412,11.860714 Q24.0137602,11.961298 24.0800542,12.039022 Q24.1463482,12.116746 24.2389312,12.163609 Q24.3315142,12.210472 24.4503862,12.212758 Q24.4595302,12.212758 24.5166802,12.216187 Q24.5738302,12.219616 24.6606982,12.199042 Q24.7475662,12.178468 24.8550081,12.123604 Q24.9624502,12.06874 25.0744642,11.952154 Q25.0881802,11.922436 25.1110401,11.905291 Q25.1339002,11.888146 25.1567602,11.888146 Q25.1796201,11.888146 25.1979081,11.905291 Q25.2161961,11.922436 25.2207682,11.959012 Q25.1681902,12.06874 25.0687492,12.140749 Q24.9693082,12.212758 24.8550081,12.256192 Q24.7407082,12.299626 24.6275512,12.316771 Q24.5143942,12.333916 24.4320981,12.33163 Q24.2469322,12.324772 24.1200592,12.227617 Q23.9931862,12.130462 23.9257492,11.985301 Q23.8583122,11.84014 23.8468822,11.665261 Q23.8354522,11.490382 23.8788862,11.323504 Q23.9223202,11.156626 24.0171892,11.0183231 Q24.1120582,10.88002 24.2583622,10.8068681 Q24.3749482,10.747432 24.5029642,10.726858 Q24.6309801,10.706284 24.7578532,10.737145 Q24.8847262,10.768006 25.0001692,10.854874 Q25.1156121,10.941742 25.2047662,11.099476 Z" style="fill:rgb(68,68,68);stroke:none" />
<path d="M26.6322588,12.144178 Q26.6299729,12.18304 26.6082559,12.2059 Q26.5865389,12.22876 26.5602499,12.233332 Q26.5339609,12.237904 26.5099579,12.220759 Q26.4859549,12.203614 26.4836689,12.162466 Q26.4950988,11.96587 26.4973849,11.772703 Q26.4996709,11.579536 26.4973849,11.38294 Q26.4928129,11.387512 26.4905269,11.387512 Q26.4768108,11.398942 26.4608089,11.401228 L26.4425209,11.401228 Q26.4402349,11.401228 26.4390919,11.400085 Q26.4379488,11.398942 26.4356629,11.398942 Q26.3830849,11.39437 26.3122189,11.389798 Q26.2413529,11.385226 26.1682009,11.384083 Q26.0950489,11.38294 26.0241829,11.384083 Q25.9533168,11.385226 25.8984529,11.392084 Q25.8321589,11.398942 25.7692939,11.411515 Q25.7064289,11.424088 25.6424209,11.435518 Q25.6332769,11.53153 25.6389919,11.628685 Q25.6447069,11.72584 25.6504219,11.824138 Q25.6561369,11.922436 25.6538509,12.018448 Q25.6515649,12.11446 25.6241329,12.210472 Q25.5989869,12.233332 25.5738409,12.236761 Q25.5486949,12.24019 25.5292639,12.229903 Q25.5098329,12.219616 25.5006889,12.196756 Q25.4915449,12.173896 25.5006889,12.144178 Q25.5121189,11.993302 25.5372649,11.845855 Q25.5624109,11.698408 25.5624109,11.533816 Q25.5624109,11.513242 25.5624109,11.491525 Q25.5624109,11.469808 25.5601249,11.446948 Q25.5372649,11.45152 25.5155479,11.452663 Q25.4938309,11.453806 25.4709709,11.456092 Q25.4366809,11.446948 25.4218219,11.425231 Q25.4069629,11.403514 25.4103919,11.379511 Q25.4138209,11.355508 25.4321089,11.333791 Q25.4503969,11.312074 25.4801149,11.30293 Q25.4984029,11.307502 25.5166909,11.308645 Q25.5349789,11.309788 25.5532669,11.312074 Q25.5418369,11.195488 25.5292639,11.081188 Q25.5166909,10.966888 25.5075469,10.8503021 Q25.5098329,10.813726 25.5315499,10.789723 Q25.5532669,10.76572 25.5795559,10.761148 Q25.6058449,10.756576 25.6287049,10.773721 Q25.6515649,10.790866 25.6561369,10.8320141 Q25.6424209,11.076616 25.6424209,11.316646 Q25.7315749,11.318932 25.8344449,11.312074 Q25.9373149,11.305216 26.0436138,11.294929 Q26.1499129,11.284642 26.2527829,11.272069 Q26.3556529,11.259496 26.4470928,11.250352 Q26.4493789,11.250352 26.4493789,11.249209 Q26.4493789,11.2480661 26.4516649,11.2480661 L26.4630948,11.2480661 Q26.4745249,11.2480661 26.4790969,11.250352 L26.4950988,11.254924 L26.4950988,11.238922 Q26.4950988,11.18863 26.4893838,11.129194 Q26.4836689,11.069758 26.4825258,11.010322 Q26.4813828,10.950886 26.4870979,10.892593 Q26.4928129,10.8343 26.5156729,10.784008 Q26.5385328,10.761148 26.5648219,10.7577191 Q26.5911109,10.75429 26.6105419,10.764577 Q26.6299729,10.774864 26.6391169,10.797724 Q26.6482609,10.820584 26.6391169,10.8503021 Q26.6391169,10.864018 26.6345449,10.897165 Q26.6299729,10.930312 26.6242578,10.9680309 Q26.6185428,11.0057501 26.6128278,11.038897 Q26.6071128,11.072044 26.6048269,11.08576 Q26.5933968,11.181772 26.5853959,11.274355 Q26.5773949,11.366938 26.5773949,11.460664 Q26.5773949,11.632114 26.5979689,11.802421 Q26.6185428,11.972728 26.6322588,12.144178 Z" style="fill:rgb(68,68,68);stroke:none" />
<path d="M21.1535932,8.1013446 Q21.1535932,8.1196326 21.1398772,8.1356346 Q21.1261612,8.1516366 21.1078732,8.1562086 Q21.0895852,8.1607806 21.0701542,8.1527796 Q21.0507232,8.1447786 21.0415792,8.1150606 Q21.0392932,8.1127746 21.0392932,8.1082026 L21.0392932,8.1059166 Q21.0415792,8.0396226 21.0347212,7.9367526 Q21.0278632,7.8338826 21.0141472,7.7127246 Q21.0004312,7.5915666 20.9844292,7.4589786 Q20.9684272,7.3263906 20.9535682,7.1995176 Q20.9387092,7.0726446 20.9284222,6.9606306 Q20.9181352,6.8486166 20.9169922,6.7651776 Q20.9158492,6.6817386 20.9272792,6.6383046 Q20.9387092,6.5948706 20.9661412,6.6040146 Q20.9981452,6.5880126 21.0152902,6.6211596 Q21.0324352,6.6543066 21.0427222,6.7194576 Q21.0530092,6.7846086 21.0552952,6.8680476 Q21.0575812,6.9514866 21.0587242,7.0360686 Q21.0598672,7.1206507 21.0610102,7.1938026 Q21.0621532,7.2669546 21.0690112,7.3103886 Q21.0758692,7.2555246 21.0850132,7.1892306 Q21.0941572,7.1229366 21.1090162,7.0554996 Q21.1238752,6.9880626 21.1467352,6.9263406 Q21.1695952,6.8646186 21.2015992,6.8211846 Q21.2564632,6.7457466 21.3353302,6.6943116 Q21.4141972,6.6428767 21.5033512,6.6200166 Q21.5925052,6.5971566 21.6839452,6.6051577 Q21.7753852,6.6131586 21.8531092,6.6565926 Q21.9262612,6.6863107 21.9834111,6.7948956 Q22.0405612,6.9034807 22.0794232,7.0532137 Q22.1182852,7.2029466 22.1400022,7.3766826 Q22.1617192,7.5504186 22.1640051,7.7092956 Q22.1662912,7.8681726 22.1502892,7.9950456 Q22.1342872,8.1219186 22.0999972,8.1790686 Q22.0702791,8.2293606 22.0417042,8.2247886 Q22.0131292,8.2202166 22.0016991,8.1607806 L21.9948412,8.1447786 Q22.0177012,8.0830566 22.0314172,7.9779006 Q22.0451331,7.8727446 22.0497052,7.7470146 Q22.0542772,7.6212846 22.0485622,7.4829816 Q22.0428472,7.3446786 22.0211301,7.2155196 Q21.9994132,7.0863606 21.9616942,6.9754896 Q21.9239752,6.8646186 21.8691112,6.7914667 Q21.8073892,6.7183146 21.7228072,6.6988837 Q21.6382252,6.6794526 21.5490712,6.7023126 Q21.4599172,6.7251726 21.3799072,6.7823226 Q21.2998972,6.8394726 21.2496052,6.9171966 Q21.1993132,6.9972067 21.1684522,7.0977906 Q21.1375912,7.1983746 21.1261612,7.3389636 Q21.1147312,7.4795526 21.1215892,7.6658616 Q21.1284472,7.8521706 21.1535932,8.1013446 Z" style="fill:rgb(68,68,68);stroke:none" />
<path d="M23.7870421,2.1565363 Q23.789328,2.1931123 23.772183,2.2194013 Q23.755038,2.2456902 23.729892,2.2548342 Q23.704746,2.2639782 23.678457,2.2525482 Q23.652168,2.2411182 23.640738,2.1999703 Q23.5881601,2.0650962 23.4898621,1.9953733 Q23.391564,1.9256502 23.27955,1.9039332 Q23.167536,1.8822162 23.060094,1.8993612 Q22.952652,1.9165062 22.8795,1.9553682 Q22.781202,2.0079463 22.709193,2.0925282 Q22.637184,2.1771102 22.591464,2.2799803 Q22.545744,2.3828502 22.526313,2.4937212 Q22.506882,2.6045923 22.51374,2.7097482 Q22.520598,2.8171902 22.558317,2.9177742 Q22.596036,3.0183582 22.66233,3.0960822 Q22.728624,3.1738062 22.821207,3.2206692 Q22.91379,3.2675322 23.032662,3.2698182 Q23.041806,3.2698182 23.098956,3.2732472 Q23.156106,3.2766762 23.242974,3.2561022 Q23.329842,3.2355282 23.437284,3.1806642 Q23.5447261,3.1258002 23.6567401,3.0092142 Q23.670456,2.9794962 23.693316,2.9623512 Q23.716176,2.9452062 23.739036,2.9452062 Q23.761896,2.9452062 23.780184,2.9623512 Q23.798472,2.9794962 23.803044,3.0160722 Q23.7504661,3.1258002 23.6510251,3.1978092 Q23.5515841,3.2698182 23.437284,3.3132522 Q23.322984,3.3566862 23.209827,3.3738312 Q23.09667,3.3909762 23.014374,3.3886902 Q22.829208,3.3818322 22.702335,3.2846772 Q22.575462,3.1875222 22.508025,3.0423612 Q22.440588,2.8972002 22.429158,2.7223212 Q22.417728,2.5474422 22.461162,2.3805642 Q22.504596,2.2136862 22.599465,2.0753833 Q22.694334,1.9370802 22.840638,1.8639283 Q22.957224,1.8044922 23.08524,1.7839183 Q23.213256,1.7633442 23.340129,1.7942052 Q23.467002,1.8250662 23.5824451,1.9119342 Q23.697888,1.9988022 23.7870421,2.1565363 Z" style="fill:rgb(68,68,68);stroke:none" />
<path d="M25.2145347,3.2012382 Q25.2122487,3.2401002 25.1905318,3.2629602 Q25.1688147,3.2858202 25.1425257,3.2903922 Q25.1162368,3.2949642 25.0922337,3.2778192 Q25.0682307,3.2606742 25.0659448,3.2195262 Q25.0773747,3.0229302 25.0796607,2.8297632 Q25.0819467,2.6365962 25.0796607,2.4400003 Q25.0750887,2.4445722 25.0728028,2.4445722 Q25.0590867,2.4560022 25.0430847,2.4582882 L25.0247967,2.4582882 Q25.0225107,2.4582882 25.0213677,2.4571452 Q25.0202247,2.4560022 25.0179387,2.4560022 Q24.9653607,2.4514302 24.8944947,2.4468582 Q24.8236287,2.4422862 24.7504767,2.4411432 Q24.6773247,2.4400003 24.6064587,2.4411432 Q24.5355927,2.4422862 24.4807287,2.4491442 Q24.4144347,2.4560022 24.3515697,2.4685752 Q24.2887047,2.4811482 24.2246967,2.4925782 Q24.2155527,2.5885902 24.2212677,2.6857453 Q24.2269827,2.7829002 24.2326977,2.8811982 Q24.2384127,2.9794962 24.2361267,3.0755082 Q24.2338407,3.1715202 24.2064087,3.2675322 Q24.1812627,3.2903922 24.1561167,3.2938212 Q24.1309707,3.2972502 24.1115397,3.2869632 Q24.0921087,3.2766762 24.0829647,3.2538162 Q24.0738207,3.2309562 24.0829647,3.2012382 Q24.0943947,3.0503622 24.1195407,2.9029152 Q24.1446867,2.7554682 24.1446867,2.5908762 Q24.1446867,2.5703022 24.1446867,2.5485853 Q24.1446867,2.5268683 24.1424007,2.5040082 Q24.1195407,2.5085803 24.0978237,2.5097232 Q24.0761067,2.5108662 24.0532467,2.5131522 Q24.0189567,2.5040082 24.0040977,2.4822912 Q23.9892387,2.4605742 23.9926677,2.4365712 Q23.9960967,2.4125682 24.0143847,2.3908512 Q24.0326727,2.3691342 24.0623907,2.3599902 Q24.0806787,2.3645622 24.0989667,2.3657053 Q24.1172547,2.3668482 24.1355427,2.3691342 Q24.1241127,2.2525482 24.1115397,2.1382483 Q24.0989667,2.0239482 24.0898227,1.9073623 Q24.0921087,1.8707863 24.1138257,1.8467833 Q24.1355427,1.8227802 24.1618317,1.8182082 Q24.1881207,1.8136362 24.2109807,1.8307812 Q24.2338407,1.8479262 24.2384127,1.8890743 Q24.2246967,2.1336762 24.2246967,2.3737062 Q24.3138507,2.3759922 24.4167207,2.3691342 Q24.5195907,2.3622763 24.6258897,2.3519892 Q24.7321887,2.3417022 24.8350587,2.3291292 Q24.9379287,2.3165562 25.0293687,2.3074122 Q25.0316547,2.3074122 25.0316547,2.3062693 Q25.0316547,2.3051263 25.0339407,2.3051263 L25.0453707,2.3051263 Q25.0568007,2.3051263 25.0613727,2.3074122 L25.0773747,2.3119843 L25.0773747,2.2959822 Q25.0773747,2.2456902 25.0716597,2.1862542 Q25.0659448,2.1268182 25.0648017,2.0673822 Q25.0636587,2.0079463 25.0693737,1.9496532 Q25.0750887,1.8913602 25.0979488,1.8410682 Q25.1208087,1.8182082 25.1470978,1.8147793 Q25.1733867,1.8113502 25.1928177,1.8216373 Q25.2122487,1.8319242 25.2213928,1.8547842 Q25.2305367,1.8776443 25.2213928,1.9073623 Q25.2213928,1.9210783 25.2168207,1.9542252 Q25.2122487,1.9873722 25.2065337,2.0250912 Q25.2008187,2.0628103 25.1951037,2.0959572 Q25.1893887,2.1291042 25.1871027,2.1428202 Q25.1756727,2.2388322 25.1676717,2.3314153 Q25.1596708,2.4239982 25.1596708,2.5177243 Q25.1596708,2.6891742 25.1802447,2.8594812 Q25.2008187,3.0297882 25.2145347,3.2012382 Z" style="fill:rgb(68,68,68);stroke:none" />
<path d="M25.8021511,2.9865828 Q25.7802054,2.9536644 25.7514018,2.9399484 Q25.7225982,2.9262324 25.6917372,2.9255465 Q25.6608762,2.9248608 25.6293294,2.9337762 Q25.5977826,2.9426916 25.5717222,2.9529786 Q25.5456618,2.9632656 25.527831,2.9714952 Q25.5100002,2.9797248 25.5045138,2.9783532 Q25.4825682,2.9632656 25.476396,2.9488638 Q25.4702238,2.934462 25.486683,2.913888 Q25.5127434,2.893314 25.551834,2.8802838 Q25.5909246,2.8672536 25.6348158,2.8631388 Q25.678707,2.859024 25.723284,2.8638246 Q25.767861,2.8686252 25.8028368,2.8843985 Q25.8378126,2.900172 25.8590724,2.927604 Q25.8803323,2.9550359 25.8789606,2.9961839 Q25.8762174,3.0565344 25.8474138,3.1017972 Q25.8186103,3.14706 25.7760907,3.1840932 Q25.7815771,3.1840932 25.7843202,3.184779 Q25.7870635,3.1854648 25.7898066,3.1854648 Q25.8391843,3.1964376 25.884447,3.2163258 Q25.9297098,3.236214 25.9653714,3.2677608 Q26.001033,3.2993076 26.0243502,3.342513 Q26.0476674,3.3857184 26.055897,3.4405824 Q26.0641267,3.4981896 26.0435526,3.544824 Q26.0229787,3.5914584 25.983888,3.6264342 Q25.9447974,3.66141 25.8913051,3.685413 Q25.8378126,3.709416 25.7795197,3.7217604 Q25.7212266,3.7341048 25.6622478,3.7347906 Q25.603269,3.7354764 25.5538914,3.723132 Q25.5045138,3.7107876 25.469538,3.6860988 Q25.4345622,3.66141 25.4222178,3.6243768 Q25.4167314,3.6038028 25.424961,3.5866578 Q25.4331906,3.5695128 25.4475924,3.5612832 Q25.4619942,3.5530536 25.4784534,3.5578542 Q25.4949126,3.5626548 25.5058854,3.5846004 Q25.5223446,3.6257484 25.5662358,3.6470082 Q25.610127,3.668268 25.6656768,3.6710112 Q25.7212266,3.6737544 25.7808912,3.6593526 Q25.8405558,3.6449508 25.8906192,3.6161472 Q25.9406826,3.5873436 25.9715437,3.5455098 Q26.0024046,3.503676 26.001033,3.4515552 Q25.9928034,3.4021776 25.970172,3.363087 Q25.9475407,3.3239964 25.9166796,3.2958786 Q25.8858187,3.2677608 25.8494712,3.2526732 Q25.8131239,3.2375856 25.7788338,3.2348424 Q25.7596314,3.2348424 25.7328853,3.2437578 Q25.706139,3.2526732 25.6807644,3.2609028 Q25.6553898,3.2691324 25.6355017,3.2725614 Q25.6156134,3.2759904 25.610127,3.2663892 Q25.6018974,3.24993 25.6060122,3.2382714 Q25.610127,3.2266128 25.6217856,3.2170116 Q25.6334442,3.2074104 25.651275,3.201924 Q25.6691059,3.1964376 25.6883082,3.1923228 Q25.712997,3.1731204 25.7383716,3.1456884 Q25.7637462,3.1182564 25.7822628,3.0894527 Q25.8007794,3.0606492 25.8076375,3.0332171 Q25.8144954,3.0057852 25.8021511,2.9865828 Z" style="fill:rgb(68,68,68);stroke:none" />
<path d="M17.3849529,8.559476 Q17.3872388,8.5960521 17.3700938,8.622341 Q17.3529488,8.64863 17.3278028,8.657774 Q17.3026568,8.666918 17.2763678,8.655488 Q17.2500789,8.644058 17.2386488,8.6029101 Q17.1860709,8.468036 17.0877729,8.398313 Q16.9894748,8.3285899 16.8774609,8.306873 Q16.7654469,8.2851559 16.6580048,8.302301 Q16.5505628,8.319446 16.4774108,8.358308 Q16.3791128,8.410886 16.3071038,8.495468 Q16.2350948,8.58005 16.1893748,8.6829201 Q16.1436548,8.78579 16.1242238,8.896661 Q16.1047928,9.007532 16.1116508,9.112688 Q16.1185088,9.22013 16.1562278,9.320714 Q16.1939468,9.421298 16.2602408,9.499022 Q16.3265348,9.576746 16.4191178,9.623609 Q16.5117008,9.670472 16.6305728,9.672758 Q16.6397168,9.672758 16.6968669,9.676187 Q16.7540168,9.679616 16.8408848,9.659042 Q16.9277528,9.638468 17.0351948,9.583604 Q17.1426369,9.52874 17.2546509,9.412154 Q17.2683669,9.382436 17.2912268,9.365291 Q17.3140868,9.348146 17.3369469,9.348146 Q17.3598068,9.348146 17.3780948,9.365291 Q17.3963828,9.382436 17.4009548,9.419012 Q17.3483769,9.52874 17.2489359,9.600749 Q17.1494949,9.672758 17.0351948,9.716192 Q16.9208949,9.759626 16.8077378,9.776771 Q16.6945808,9.793916 16.6122848,9.79163 Q16.4271188,9.784772 16.3002458,9.687617 Q16.1733728,9.590462 16.1059358,9.445301 Q16.0384988,9.30014 16.0270688,9.125261 Q16.0156388,8.950382 16.0590728,8.783504 Q16.1025068,8.616626 16.1973758,8.4783231 Q16.2922448,8.34002 16.4385488,8.2668681 Q16.5551348,8.207432 16.6831508,8.186858 Q16.8111668,8.166284 16.9380398,8.197145 Q17.0649128,8.228006 17.1803559,8.314874 Q17.2957988,8.401742 17.3849529,8.559476 Z" style="fill:rgb(68,68,68);stroke:none" />
<path d="M12.9856729,6.019476 Q12.9879588,6.0560521 12.9708138,6.082341 Q12.9536688,6.10863 12.9285228,6.117774 Q12.9033768,6.126918 12.8770878,6.115488 Q12.8507989,6.104058 12.8393688,6.0629101 Q12.7867909,5.928036 12.6884929,5.858313 Q12.5901948,5.7885899 12.4781809,5.766873 Q12.3661669,5.7451559 12.2587248,5.762301 Q12.1512828,5.779446 12.0781308,5.818308 Q11.9798328,5.870886 11.9078238,5.955468 Q11.8358148,6.04005 11.7900948,6.1429201 Q11.7443748,6.24579 11.7249438,6.356661 Q11.7055128,6.467532 11.7123708,6.572688 Q11.7192288,6.68013 11.7569478,6.780714 Q11.7946668,6.881298 11.8609608,6.959022 Q11.9272548,7.036746 12.0198378,7.083609 Q12.1124208,7.130472 12.2312928,7.132758 Q12.2404368,7.132758 12.2975869,7.136187 Q12.3547368,7.139616 12.4416048,7.119042 Q12.5284728,7.098468 12.6359148,7.043604 Q12.7433569,6.98874 12.8553709,6.872154 Q12.8690869,6.842436 12.8919468,6.825291 Q12.9148068,6.808146 12.9376669,6.808146 Q12.9605268,6.808146 12.9788148,6.825291 Q12.9971028,6.842436 13.0016748,6.879012 Q12.9490969,6.98874 12.8496559,7.060749 Q12.7502149,7.132758 12.6359148,7.176192 Q12.5216149,7.219626 12.4084578,7.236771 Q12.2953008,7.253916 12.2130048,7.25163 Q12.0278388,7.244772 11.9009658,7.147617 Q11.7740928,7.050462 11.7066558,6.905301 Q11.6392188,6.76014 11.6277888,6.585261 Q11.6163588,6.410382 11.6597928,6.243504 Q11.7032268,6.076626 11.7980958,5.9383231 Q11.8929648,5.80002 12.0392688,5.7268681 Q12.1558548,5.667432 12.2838708,5.646858 Q12.4118868,5.626284 12.5387598,5.657145 Q12.6656328,5.688006 12.7810759,5.774874 Q12.8965188,5.861742 12.9856729,6.019476 Z" style="fill:rgb(68,68,68);stroke:none" />
<path d="M12.8553708,1.917884 Q12.8073648,2.00018 12.7296408,2.056187 Q12.6519169,2.112194 12.5570478,2.141912 Q12.4621789,2.17163 12.3593089,2.175059 Q12.2564388,2.178488 12.1592838,2.155628 Q12.0621288,2.132768 11.9764038,2.085905 Q11.8906788,2.039042 11.8335288,1.96589 Q11.7466608,1.856162 11.7077988,1.7167159 Q11.6689368,1.57727 11.6746518,1.42868 Q11.6803668,1.2800899 11.7272298,1.1360719 Q11.7740928,0.9920539 11.8552458,0.872039 Q11.9363988,0.752024 12.0495558,0.6685849 Q12.1627129,0.585146 12.3021588,0.56 Q12.4050288,0.541712 12.4941828,0.5760019 Q12.5833369,0.610292 12.6553458,0.6811579 Q12.7273549,0.752024 12.7833619,0.853751 Q12.8393689,0.9554779 12.8759448,1.070921 Q12.9125208,1.186364 12.9308088,1.307522 Q12.9490968,1.42868 12.9468109,1.54298 Q12.9445249,1.65728 12.9216649,1.754435 Q12.8988048,1.8515899 12.8553708,1.917884 Z M11.9729748,1.933886 Q12.0438408,1.997894 12.1558548,2.024183 Q12.2678688,2.050472 12.3855978,2.041328 Q12.5033268,2.032184 12.6096258,1.98875 Q12.7159249,1.945316 12.7730748,1.872164 Q12.8279389,1.7990119 12.8462269,1.676711 Q12.8645149,1.5544099 12.8496558,1.416107 Q12.8347969,1.2778039 12.7890768,1.139501 Q12.7433568,1.001198 12.6702049,0.894899 Q12.5970528,0.7885999 12.4987548,0.7303069 Q12.4004568,0.672014 12.2838708,0.6948739 Q12.1512828,0.7200199 12.0495558,0.797744 Q11.9478288,0.8754679 11.8815348,0.9851959 Q11.8152408,1.094924 11.7855228,1.224083 Q11.7558048,1.353242 11.7660918,1.4824009 Q11.7763788,1.61156 11.8266708,1.729289 Q11.8769628,1.8470179 11.9729748,1.933886 Z" style="fill:rgb(68,68,68);stroke:none" />
</svg>
