<?xml version="1.0" encoding="UTF-8"?>
<!DOCTYPE svg PUBLIC "-//W3C//DTD SVG 1.1//EN" "http://www.w3.org/Graphics/SVG/1.1/DTD/svg11.dtd">
<svg version="1.2" xmlns="http://www.w3.org/2000/svg" xmlns:xlink="http://www.w3.org/1999/xlink" x="0mm" y="0mm" width="53.2510211mm" height="50.6456889mm" viewBox="0 0 53.2510211 50.6456889">
<style type="text/css"><![CDATA[
text { font:12px Dialog; }
]]></style>
<line x1="10.0691935" y1="25.9775907" x2="14.5394572" y2="23.539265" style="fill:none;stroke:rgb(68,68,68);stroke-width:0.1942207;stroke-linecap:round;stroke-linejoin:round" />
<line x1="14.5394572" y1="33.4957615" x2="14.5394572" y2="38.7788004" style="fill:none;stroke:rgb(68,68,68);stroke-width:0.1942207;stroke-linecap:round;stroke-linejoin:round" />
<line x1="19.0097209" y1="41.2171261" x2="14.5394572" y2="38.7788004" style="fill:none;stroke:rgb(68,68,68);stroke-width:0.1942207;stroke-linecap:round;stroke-linejoin:round" />
<path d="M14.6365676,38.7788004 L14.4423469,38.7788004 L14.0766634,42.6045825 L14.5394572,42.6045825 L15.002251,42.6045825 Z" style="fill:rgb(68,68,68);stroke:none" />
<line x1="11.0450884" y1="40.6848198" x2="14.5394572" y2="38.7788004" style="fill:none;stroke:rgb(68,68,68);stroke-width:0.1942207;stroke-linecap:round;stroke-linejoin:round" />
<line x1="5.8021236" y1="38.7788004" x2="9.0979241" y2="40.662115" style="fill:none;stroke:rgb(68,68,68);stroke-width:0.1942207;stroke-linecap:round;stroke-linejoin:round" />
<line x1="40.9546519" y1="23.539265" x2="36.4843882" y2="25.9775907" style="fill:none;stroke:rgb(68,68,68);stroke-width:0.1942207;stroke-linecap:round;stroke-linejoin:round" />
<line x1="40.9442842" y1="24.5865018" x2="37.3987882" y2="26.5204088" style="fill:none;stroke:rgb(68,68,68);stroke-width:0.1942207;stroke-linecap:round;stroke-linejoin:round" />
<line x1="36.4843882" y1="31.0574358" x2="36.4843882" y2="25.9775907" style="fill:none;stroke:rgb(68,68,68);stroke-width:0.1942207;stroke-linecap:round;stroke-linejoin:round" />
<line x1="5.8021236" y1="34.7498244" x2="5.8021236" y2="38.7788004" style="fill:none;stroke:rgb(68,68,68);stroke-width:0.1942207;stroke-linecap:round;stroke-linejoin:round" />
<line x1="2.1646451" y1="40.2420887" x2="5.8021236" y2="38.2580095" style="fill:none;stroke:rgb(68,68,68);stroke-width:0.1942207;stroke-linecap:round;stroke-linejoin:round" />
<line x1="2.6025075" y1="41.0448364" x2="6.2684131" y2="39.0452515" style="fill:none;stroke:rgb(68,68,68);stroke-width:0.1942207;stroke-linecap:round;stroke-linejoin:round" />
<line x1="10.0691935" y1="25.9775907" x2="10.0691935" y2="31.0574358" style="fill:none;stroke:rgb(68,68,68);stroke-width:0.1942207;stroke-linecap:round;stroke-linejoin:round" />
<line x1="14.5394572" y1="33.4957615" x2="10.0691935" y2="31.0574358" style="fill:none;stroke:rgb(68,68,68);stroke-width:0.1942207;stroke-linecap:round;stroke-linejoin:round" />
<line x1="6.8449069" y1="32.8998853" x2="10.0691935" y2="31.0574358" style="fill:none;stroke:rgb(68,68,68);stroke-width:0.1942207;stroke-linecap:round;stroke-linejoin:round" />
<path d="M10.018079,31.1400053 L10.120308,30.9748662 L7.0169154,28.6119331 L6.7680839,29.0138918 L6.5192524,29.4158504 Z" style="fill:rgb(68,68,68);stroke:none" />
<path d="M10.018079,26.0601602 L10.120308,25.8950211 L7.0672846,23.5704392 L6.821662,23.967214 L6.5760395,24.3639889 Z" style="fill:rgb(68,68,68);stroke:none" />
<line x1="45.2217218" y1="25.9775907" x2="40.9546519" y2="23.539265" style="fill:none;stroke:rgb(68,68,68);stroke-width:0.1942207;stroke-linecap:round;stroke-linejoin:round" />
<line x1="40.9546519" y1="19.709018" x2="40.9546519" y2="23.539265" style="fill:none;stroke:rgb(68,68,68);stroke-width:0.1942207;stroke-linecap:round;stroke-linejoin:round" />
<line x1="48.6556621" y1="23.9484441" x2="45.2217218" y2="25.9775907" style="fill:none;stroke:rgb(68,68,68);stroke-width:0.1942207;stroke-linecap:round;stroke-linejoin:round" />
<line x1="45.2217218" y1="31.0574358" x2="45.2217218" y2="25.9775907" style="fill:none;stroke:rgb(68,68,68);stroke-width:0.1942207;stroke-linecap:round;stroke-linejoin:round" />
<line x1="44.3073218" y1="30.5267889" x2="44.3073218" y2="26.5082376" style="fill:none;stroke:rgb(68,68,68);stroke-width:0.1942207;stroke-linecap:round;stroke-linejoin:round" />
<line x1="36.4843882" y1="31.0574358" x2="40.9546519" y2="33.4957615" style="fill:none;stroke:rgb(68,68,68);stroke-width:0.1942207;stroke-linecap:round;stroke-linejoin:round" />
<line x1="37.3987882" y1="30.5146177" x2="40.9442842" y2="32.4485246" style="fill:none;stroke:rgb(68,68,68);stroke-width:0.1942207;stroke-linecap:round;stroke-linejoin:round" />
<line x1="45.2217218" y1="31.0574358" x2="40.9546519" y2="33.4957615" style="fill:none;stroke:rgb(68,68,68);stroke-width:0.1942207;stroke-linecap:round;stroke-linejoin:round" />
<line x1="40.9546519" y1="38.7788004" x2="40.9546519" y2="33.4957615" style="fill:none;stroke:rgb(68,68,68);stroke-width:0.1942207;stroke-linecap:round;stroke-linejoin:round" />
<line x1="23.2767908" y1="38.7788004" x2="19.0097209" y2="41.2171261" style="fill:none;stroke:rgb(68,68,68);stroke-width:0.1942207;stroke-linecap:round;stroke-linejoin:round" />
<path d="M19.1068313,41.2171261 L18.9126106,41.2171261 L18.5469271,45.0429082 L19.0097209,45.0429082 L19.4725147,45.0429082 Z" style="fill:rgb(68,68,68);stroke:none" />
<line x1="27.7470546" y1="41.2171261" x2="23.2767908" y2="38.7788004" style="fill:none;stroke:rgb(68,68,68);stroke-width:0.1942207;stroke-linecap:round;stroke-linejoin:round" />
<line x1="27.7366869" y1="40.1698892" x2="24.1628833" y2="38.2205418" style="fill:none;stroke:rgb(68,68,68);stroke-width:0.1942207;stroke-linecap:round;stroke-linejoin:round" />
<line x1="32.0141245" y1="38.7788004" x2="27.7470546" y2="41.2171261" style="fill:none;stroke:rgb(68,68,68);stroke-width:0.1942207;stroke-linecap:round;stroke-linejoin:round" />
<line x1="40.9546519" y1="38.7788004" x2="36.4843882" y2="41.2171261" style="fill:none;stroke:rgb(68,68,68);stroke-width:0.1942207;stroke-linecap:round;stroke-linejoin:round" />
<line x1="36.4843882" y1="45.0473731" x2="36.4843882" y2="41.2171261" style="fill:none;stroke:rgb(68,68,68);stroke-width:0.1942207;stroke-linecap:round;stroke-linejoin:round" />
<line x1="36.4843882" y1="41.2171261" x2="32.0141245" y2="38.7788004" style="fill:none;stroke:rgb(68,68,68);stroke-width:0.1942207;stroke-linecap:round;stroke-linejoin:round" />
<line x1="36.4843882" y1="40.1755443" x2="32.9002169" y2="38.2205418" style="fill:none;stroke:rgb(68,68,68);stroke-width:0.1942207;stroke-linecap:round;stroke-linejoin:round" />
<line x1="49.6919855" y1="19.7195813" x2="49.6919855" y2="22.0820082" style="fill:none;stroke:rgb(68,68,68);stroke-width:0.1942207;stroke-linecap:round;stroke-linejoin:round" />
<line x1="22.3068645" y1="48.1810532" x2="20.0518718" y2="46.892486" style="fill:none;stroke:rgb(68,68,68);stroke-width:0.1942207;stroke-linecap:round;stroke-linejoin:round" />
<line x1="36.4843882" y1="25.9775907" x2="33.0298453" y2="23.9625608" style="fill:none;stroke:rgb(68,68,68);stroke-width:0.1942207;stroke-linecap:round;stroke-linejoin:round" />
<line x1="31.0887688" y1="23.9504085" x2="27.654078" y2="25.9067807" style="fill:none;stroke:rgb(68,68,68);stroke-width:0.1942207;stroke-linecap:round;stroke-linejoin:round" />
<line x1="28.111278" y1="25.6463633" x2="28.111278" y2="29.7325628" style="fill:none;stroke:rgb(68,68,68);stroke-width:0.1942207;stroke-linecap:round;stroke-linejoin:round" />
<line x1="27.196878" y1="25.6463996" x2="27.196878" y2="29.7325628" style="fill:none;stroke:rgb(68,68,68);stroke-width:0.1942207;stroke-linecap:round;stroke-linejoin:round" />
<line x1="27.654078" y1="25.9067807" x2="23.2472354" y2="23.3970293" style="fill:none;stroke:rgb(68,68,68);stroke-width:0.1942207;stroke-linecap:round;stroke-linejoin:round" />
<line x1="15.9020872" y1="18.5622482" x2="21.9012304" y2="18.5622482" style="fill:none;stroke:rgb(68,68,68);stroke-width:0.1942207;stroke-linecap:round;stroke-linejoin:round" />
<line x1="23.2472354" y1="23.3970293" x2="21.9012304" y2="18.5622482" style="fill:none;stroke:rgb(68,68,68);stroke-width:0.1942207;stroke-linecap:round;stroke-linejoin:round" />
<path d="M14.47042,23.6075606 L14.6084944,23.4709694 L12.1109318,20.4212082 L11.7793705,20.7492079 L11.4478093,21.0772076 Z" style="fill:rgb(68,68,68);stroke:none" />
<line x1="15.9020872" y1="18.5622482" x2="14.5394572" y2="23.539265" style="fill:none;stroke:rgb(68,68,68);stroke-width:0.1942207;stroke-linecap:round;stroke-linejoin:round" />
<path d="M15.9267099,18.6561852 L15.8774645,18.4683113 L11.9384679,19.1142417 L12.0579002,19.5698833 L12.1773326,20.0255249 Z" style="fill:rgb(68,68,68);stroke:none" />
<line x1="15.9020872" y1="18.5622482" x2="13.9971452" y2="15.2951335" style="fill:none;stroke:rgb(68,68,68);stroke-width:0.1942207;stroke-linecap:round;stroke-linejoin:round" />
<line x1="14.5394572" y1="23.539265" x2="17.2556599" y2="26.2282688" style="fill:none;stroke:rgb(68,68,68);stroke-width:0.1942207;stroke-linecap:round;stroke-linejoin:round" />
<line x1="38.2571002" y1="6.5054667" x2="41.6885943" y2="8.4865602" style="fill:none;stroke:rgb(68,68,68);stroke-width:0.1942207;stroke-linecap:round;stroke-linejoin:round" />
<line x1="34.8280578" y1="8.4851448" x2="38.2571002" y2="6.5054667" style="fill:none;stroke:rgb(68,68,68);stroke-width:0.1942207;stroke-linecap:round;stroke-linejoin:round" />
<line x1="29.4588084" y1="6.5054667" x2="32.8872469" y2="8.4850732" style="fill:none;stroke:rgb(68,68,68);stroke-width:0.1942207;stroke-linecap:round;stroke-linejoin:round" />
<line x1="25.0593547" y1="9.0453893" x2="29.4588084" y2="6.5054667" style="fill:none;stroke:rgb(68,68,68);stroke-width:0.1942207;stroke-linecap:round;stroke-linejoin:round" />
<line x1="37.8006649" y1="6.7689791" x2="37.7887726" y2="2.681013" style="fill:none;stroke:rgb(68,68,68);stroke-width:0.1942207;stroke-linecap:round;stroke-linejoin:round" />
<line x1="38.7150713" y1="6.7698657" x2="38.7031687" y2="2.6783529" style="fill:none;stroke:rgb(68,68,68);stroke-width:0.1942207;stroke-linecap:round;stroke-linejoin:round" />
<line x1="33.8525042" y1="10.2648463" x2="33.841365" y2="12.9064267" style="fill:none;stroke:rgb(68,68,68);stroke-width:0.1942207;stroke-linecap:round;stroke-linejoin:round" />
<line x1="29.3616997" y1="6.5060317" x2="29.5559171" y2="6.5049017" style="fill:none;stroke:rgb(68,68,68);stroke-width:0.1942207;stroke-linecap:round;stroke-linejoin:round" />
<line x1="29.2758499" y1="5.6598617" x2="29.6319152" y2="5.65779" style="fill:none;stroke:rgb(68,68,68);stroke-width:0.1942207;stroke-linecap:round;stroke-linejoin:round" />
<line x1="29.1900001" y1="4.8136917" x2="29.7079132" y2="4.8106783" style="fill:none;stroke:rgb(68,68,68);stroke-width:0.1942207;stroke-linecap:round;stroke-linejoin:round" />
<line x1="29.1041502" y1="3.9675216" x2="29.7839112" y2="3.9635667" style="fill:none;stroke:rgb(68,68,68);stroke-width:0.1942207;stroke-linecap:round;stroke-linejoin:round" />
<line x1="29.0183004" y1="3.1213516" x2="29.8599092" y2="3.116455" style="fill:none;stroke:rgb(68,68,68);stroke-width:0.1942207;stroke-linecap:round;stroke-linejoin:round" />
<line x1="25.0593547" y1="9.0453893" x2="25.0779406" y2="12.9019629" style="fill:none;stroke:rgb(68,68,68);stroke-width:0.1942207;stroke-linecap:round;stroke-linejoin:round" />
<line x1="25.0619085" y1="9.5753132" x2="21.4872004" y2="7.503419" style="fill:none;stroke:rgb(68,68,68);stroke-width:0.1942207;stroke-linecap:round;stroke-linejoin:round" />
<line x1="25.5161204" y1="8.7816862" x2="21.9457335" y2="6.7122965" style="fill:none;stroke:rgb(68,68,68);stroke-width:0.1942207;stroke-linecap:round;stroke-linejoin:round" />
<path d="M21.8225091,18.5053854 L21.9799516,18.6191111 L24.7315398,15.4477845 L24.3499847,15.1721754 L23.9684296,14.8965664 Z" style="fill:rgb(68,68,68);stroke:none" />
<line x1="32.0603049" y1="22.1775689" x2="32.0603049" y2="19.5773456" style="fill:none;stroke:rgb(68,68,68);stroke-width:0.1942207;stroke-linecap:round;stroke-linejoin:round" />
<path d="M10.7032013,42.0481451 L10.4297296,42.0481451 L9.6416847,40.5613521 L9.6416847,42.0481451 L9.4351857,42.0481451 L9.4351857,40.386107 L9.7778624,40.386107 L10.4967023,41.7434195 L10.4967023,40.386107 L10.7032013,40.386107 Z" style="fill:rgb(68,68,68);stroke:none" />
<path d="M10.7065499,43.9008878 L10.4855402,43.9008878 L10.4855402,43.0871701 L9.6561954,43.0871701 L9.6561954,43.9008878 L9.4351857,43.9008878 L9.4351857,42.2388497 L9.6561954,42.2388497 L9.6561954,42.8907169 L10.4855402,42.8907169 L10.4855402,42.2388497 L10.7065499,42.2388497 Z" style="fill:rgb(68,68,68);stroke:none" />
<path d="M6.3641358,32.8556145 Q6.465711,32.9672356 6.5198472,33.1290862 Q6.5739834,33.2909368 6.5739834,33.4963196 Q6.5739834,33.7017024 6.518731,33.8641111 Q6.4634786,34.0265198 6.3641358,34.1347922 Q6.2614444,34.2475295 6.1213599,34.3044563 Q5.9812754,34.361383 5.8015655,34.361383 Q5.6263204,34.361383 5.4828873,34.3033401 Q5.3394541,34.2452971 5.2389952,34.1347922 Q5.1385362,34.0242873 5.0843999,33.863553 Q5.0302637,33.7028186 5.0302637,33.4963196 Q5.0302637,33.2931692 5.0838418,33.1318767 Q5.13742,32.9705842 5.2401114,32.8556145 Q5.3383379,32.7462258 5.4840035,32.6881828 Q5.629669,32.6301399 5.8015655,32.6301399 Q5.9801592,32.6301399 6.1224761,32.688741 Q6.264793,32.747342 6.3641358,32.8556145 Z M6.344044,33.4963196 Q6.344044,33.1726184 6.1989366,32.9968152 Q6.0538291,32.8210119 5.8026817,32.8210119 Q5.5493018,32.8210119 5.4047525,32.9968152 Q5.2602032,33.1726184 5.2602032,33.4963196 Q5.2602032,33.8233694 5.407543,33.9969402 Q5.5548829,34.170511 5.8026817,34.170511 Q6.0504805,34.170511 6.1972623,33.9969402 Q6.344044,33.8233694 6.344044,33.4963196 Z" style="fill:rgb(68,68,68);stroke:none" />
<path d="M1.8938721,40.5769791 Q1.9954473,40.6886002 2.0495835,40.8504508 Q2.1037197,41.0123014 2.1037197,41.2176842 Q2.1037197,41.423067 2.0484673,41.5854757 Q1.9932148,41.7478844 1.8938721,41.8561568 Q1.7911807,41.9688941 1.6510962,42.0258209 Q1.5110117,42.0827476 1.3313018,42.0827476 Q1.1560566,42.0827476 1.0126235,42.0247047 Q0.8691904,41.9666617 0.7687314,41.8561568 Q0.6682725,41.7456519 0.6141362,41.5849176 Q0.56,41.4241832 0.56,41.2176842 Q0.56,41.0145338 0.6135781,40.8532413 Q0.6671563,40.6919488 0.7698477,40.5769791 Q0.8680742,40.4675904 1.0137397,40.4095475 Q1.1594053,40.3515045 1.3313018,40.3515045 Q1.5098955,40.3515045 1.6522124,40.4101056 Q1.7945293,40.4687066 1.8938721,40.5769791 Z M1.8737803,41.2176842 Q1.8737803,40.893983 1.7286729,40.7181798 Q1.5835654,40.5423766 1.332418,40.5423766 Q1.0790381,40.5423766 0.9344888,40.7181798 Q0.7899395,40.893983 0.7899395,41.2176842 Q0.7899395,41.544734 0.9372793,41.7183048 Q1.0846191,41.8918756 1.332418,41.8918756 Q1.5802168,41.8918756 1.7269985,41.7183048 Q1.8737803,41.544734 1.8737803,41.2176842 Z" style="fill:rgb(68,68,68);stroke:none" />
<path d="M15.1014694,43.2184986 Q15.2030446,43.3301197 15.2571808,43.4919702 Q15.3113171,43.6538208 15.3113171,43.8592036 Q15.3113171,44.0645865 15.2560646,44.2269951 Q15.2008122,44.3894038 15.1014694,44.4976763 Q14.998778,44.6104136 14.8586935,44.6673404 Q14.7186091,44.7242671 14.5388991,44.7242671 Q14.363654,44.7242671 14.2202209,44.6662241 Q14.0767878,44.6081812 13.9763288,44.4976763 Q13.8758698,44.3871714 13.8217336,44.226437 Q13.7675974,44.0657027 13.7675974,43.8592036 Q13.7675974,43.6560533 13.8211755,43.4947608 Q13.8747536,43.3334683 13.977445,43.2184986 Q14.0756716,43.1091099 14.2213371,43.0510669 Q14.3670026,42.993024 14.5388991,42.993024 Q14.7174929,42.993024 14.8598098,43.051625 Q15.0021266,43.1102261 15.1014694,43.2184986 Z M15.0813776,43.8592036 Q15.0813776,43.5355025 14.9362702,43.3596992 Q14.7911628,43.183896 14.5400153,43.183896 Q14.2866354,43.183896 14.1420861,43.3596992 Q13.9975368,43.5355025 13.9975368,43.8592036 Q13.9975368,44.1862534 14.1448766,44.3598242 Q14.2922165,44.533395 14.5400153,44.533395 Q14.7878141,44.533395 14.9345959,44.3598242 Q15.0813776,44.1862534 15.0813776,43.8592036 Z" style="fill:rgb(68,68,68);stroke:none" />
<path d="M16.773386,44.6896646 L16.5523762,44.6896646 L16.5523762,43.8759468 L15.7230315,43.8759468 L15.7230315,44.6896646 L15.5020217,44.6896646 L15.5020217,43.0276265 L15.7230315,43.0276265 L15.7230315,43.6794937 L16.5523762,43.6794937 L16.5523762,43.0276265 L16.773386,43.0276265 Z" style="fill:rgb(68,68,68);stroke:none" />
<path d="M41.6439122,19.1698881 Q41.5825206,19.1966772 41.5328492,19.2201176 Q41.4831778,19.243558 41.4028106,19.2692309 Q41.3347217,19.2904389 41.2549127,19.3055078 Q41.1751036,19.3205766 41.0791094,19.3205766 Q40.8982833,19.3205766 40.7503853,19.269789 Q40.6024874,19.2190014 40.4930987,19.1107289 Q40.3859424,19.0046889 40.3256671,18.841164 Q40.2653917,18.6776391 40.2653917,18.4610942 Q40.2653917,18.2557114 40.3234346,18.0938608 Q40.3814776,17.9320102 40.4908663,17.8203891 Q40.5969063,17.7121166 40.7470367,17.6551899 Q40.8971671,17.5982631 41.0802256,17.5982631 Q41.214171,17.5982631 41.3475582,17.6306332 Q41.4809454,17.6630034 41.6439122,17.7444868 L41.6439122,18.0067963 L41.627169,18.0067963 Q41.4898751,17.8918266 41.3548135,17.8393647 Q41.219752,17.7869028 41.0657149,17.7869028 Q40.9395831,17.7869028 40.838566,17.8276445 Q40.7375489,17.8683862 40.6582979,17.9543344 Q40.5812794,18.0380502 40.5383052,18.1658564 Q40.4953311,18.2936625 40.4953311,18.4610942 Q40.4953311,18.6363393 40.5427701,18.7624711 Q40.590209,18.888603 40.6649952,18.9678539 Q40.7431299,19.0504536 40.8474957,19.090079 Q40.9518614,19.1297045 41.0679473,19.1297045 Q41.2275655,19.1297045 41.3670919,19.0750102 Q41.5066182,19.0203159 41.6282852,18.9109272 L41.6439122,18.9109272 Z M42.1517881,19.2904389 L41.9419405,19.2904389 L41.9419405,17.5536147 L42.1517881,17.5536147 Z" style="fill:rgb(68,68,68);stroke:none" />
<path d="M50.2539978,22.6959242 Q50.3555729,22.8075453 50.4097092,22.9693959 Q50.4638454,23.1312465 50.4638454,23.3366293 Q50.4638454,23.5420121 50.408593,23.7044208 Q50.3533405,23.8668295 50.2539978,23.975102 Q50.1513063,24.0878393 50.0112219,24.144766 Q49.8711374,24.2016928 49.6914274,24.2016928 Q49.5161823,24.2016928 49.3727492,24.1436498 Q49.2293161,24.0856068 49.1288571,23.975102 Q49.0283981,23.8645971 48.9742619,23.7038627 Q48.9201257,23.5431283 48.9201257,23.3366293 Q48.9201257,23.1334789 48.9737038,22.9721864 Q49.0272819,22.8108939 49.1299733,22.6959242 Q49.2281999,22.5865355 49.3738654,22.5284926 Q49.519531,22.4704496 49.6914274,22.4704496 Q49.8700212,22.4704496 50.0123381,22.5290507 Q50.154655,22.5876518 50.2539978,22.6959242 Z M50.233906,23.3366293 Q50.233906,23.0129281 50.0887985,22.8371249 Q49.9436911,22.6613217 49.6925437,22.6613217 Q49.4391638,22.6613217 49.2946145,22.8371249 Q49.1500651,23.0129281 49.1500651,23.3366293 Q49.1500651,23.6636791 49.297405,23.8372499 Q49.4447448,24.0108207 49.6925437,24.0108207 Q49.9403425,24.0108207 50.0871242,23.8372499 Q50.233906,23.6636791 50.233906,23.3366293 Z" style="fill:rgb(68,68,68);stroke:none" />
<path d="M6.4913838,24.0465395 Q6.4299922,24.0733285 6.3803208,24.0967689 Q6.3306495,24.1202094 6.2502823,24.1458822 Q6.1821934,24.1670902 6.1023843,24.1821591 Q6.0225752,24.1972279 5.9265811,24.1972279 Q5.7457549,24.1972279 5.597857,24.1464403 Q5.449959,24.0956527 5.3405704,23.9873803 Q5.2334141,23.8813402 5.1731387,23.7178153 Q5.1128633,23.5542904 5.1128633,23.3377455 Q5.1128633,23.1323627 5.1709063,22.9705121 Q5.2289493,22.8086615 5.3383379,22.6970404 Q5.444378,22.588768 5.5945083,22.5318412 Q5.7446387,22.4749145 5.9276973,22.4749145 Q6.0616426,22.4749145 6.1950298,22.5072846 Q6.328417,22.5396547 6.4913838,22.6211381 L6.4913838,22.8834477 L6.4746407,22.8834477 Q6.3373467,22.7684779 6.2022852,22.716016 Q6.0672237,22.6635541 5.9131866,22.6635541 Q5.7870547,22.6635541 5.6860376,22.7042958 Q5.5850206,22.7450375 5.5057696,22.8309857 Q5.428751,22.9147016 5.3857769,23.0425077 Q5.3428028,23.1703139 5.3428028,23.3377455 Q5.3428028,23.5129906 5.3902417,23.6391225 Q5.4376807,23.7652543 5.5124668,23.8445053 Q5.5906016,23.9271049 5.6949673,23.9667304 Q5.7993331,24.0063559 5.915419,24.0063559 Q6.0750372,24.0063559 6.2145635,23.9516615 Q6.3540899,23.8969672 6.4757569,23.7875785 L6.4913838,23.7875785 Z" style="fill:rgb(68,68,68);stroke:none" />
<path d="M4.0744523,24.1670902 L3.8534425,24.1670902 L3.8534425,23.3533725 L3.0240978,23.3533725 L3.0240978,24.1670902 L2.803088,24.1670902 L2.803088,22.5050521 L3.0240978,22.5050521 L3.0240978,23.1569193 L3.8534425,23.1569193 L3.8534425,22.5050521 L4.0744523,22.5050521 Z" style="fill:rgb(68,68,68);stroke:none" />
<path d="M4.8484888,24.1855077 Q4.8806356,24.214306 4.9013972,24.2578382 Q4.9221587,24.3013704 4.9221587,24.3703522 Q4.9221587,24.4386644 4.8973788,24.4955911 Q4.8725989,24.5525179 4.8277272,24.5947106 Q4.7774978,24.6415915 4.7095205,24.6640273 Q4.6415433,24.6864632 4.5605063,24.6864632 Q4.4774603,24.6864632 4.3970931,24.6667062 Q4.3167259,24.6469493 4.2651569,24.6235089 L4.2651569,24.483536 L4.2752028,24.483536 Q4.3321296,24.5210407 4.4091481,24.5458206 Q4.4861667,24.5706005 4.5578274,24.5706005 Q4.6000202,24.5706005 4.6475708,24.5565362 Q4.6951214,24.542472 4.7245894,24.5150132 Q4.7553968,24.4855452 4.7704656,24.4500497 Q4.7855345,24.4145542 4.7855345,24.3603063 Q4.7855345,24.3067282 4.7684564,24.2715676 Q4.7513784,24.2364069 4.7212407,24.2163151 Q4.691103,24.1955536 4.6482405,24.1878518 Q4.605378,24.1801499 4.5558183,24.1801499 L4.4955429,24.1801499 L4.4955429,24.0689753 L4.5424237,24.0689753 Q4.6442222,24.0689753 4.7048324,24.0264477 Q4.7654427,23.98392 4.7654427,23.9022134 Q4.7654427,23.8660481 4.750039,23.8389242 Q4.7346353,23.8118003 4.7071765,23.7943874 Q4.6783782,23.7769745 4.6455616,23.7702772 Q4.612745,23.76358 4.571222,23.76358 Q4.5075979,23.76358 4.4359372,23.7863507 Q4.3642765,23.8091214 4.3006524,23.8506444 L4.2939552,23.8506444 L4.2939552,23.7106716 Q4.3415058,23.6872312 4.4208684,23.6674742 Q4.500231,23.6477173 4.5745706,23.6477173 Q4.6475708,23.6477173 4.7031581,23.6611118 Q4.7587454,23.6745063 4.8036171,23.7039743 Q4.8518374,23.7361212 4.8766173,23.7816626 Q4.9013972,23.827204 4.9013972,23.8881491 Q4.9013972,23.9711952 4.8427961,24.0331449 Q4.784195,24.0950946 4.7044976,24.1111681 L4.7044976,24.1205442 Q4.7366444,24.1259021 4.7781675,24.1429801 Q4.8196905,24.1600581 4.8484888,24.1855077 Z" style="fill:rgb(68,68,68);stroke:none" />
<path d="M19.5717331,45.6568242 Q19.6733083,45.7684453 19.7274446,45.9302959 Q19.7815808,46.0921465 19.7815808,46.2975293 Q19.7815808,46.5029121 19.7263284,46.6653208 Q19.6710759,46.8277295 19.5717331,46.936002 Q19.4690417,47.0487393 19.3289573,47.105666 Q19.1888728,47.1625928 19.0091628,47.1625928 Q18.8339177,47.1625928 18.6904846,47.1045498 Q18.5470515,47.0465068 18.4465925,46.936002 Q18.3461335,46.8254971 18.2919973,46.6647627 Q18.2378611,46.5040283 18.2378611,46.2975293 Q18.2378611,46.0943789 18.2914392,45.9330864 Q18.3450173,45.771794 18.4477087,45.6568242 Q18.5459353,45.5474356 18.6916008,45.4893926 Q18.8372663,45.4313496 19.0091628,45.4313496 Q19.1877566,45.4313496 19.3300735,45.4899507 Q19.4723904,45.5485518 19.5717331,45.6568242 Z M19.5516413,46.2975293 Q19.5516413,45.9738281 19.4065339,45.7980249 Q19.2614265,45.6222217 19.010279,45.6222217 Q18.7568992,45.6222217 18.6123498,45.7980249 Q18.4678005,45.9738281 18.4678005,46.2975293 Q18.4678005,46.6245791 18.6151404,46.7981499 Q18.7624802,46.9717207 19.010279,46.9717207 Q19.2580779,46.9717207 19.4048596,46.7981499 Q19.5516413,46.6245791 19.5516413,46.2975293 Z" style="fill:rgb(68,68,68);stroke:none" />
<path d="M37.1736484,47.0074395 Q37.1122568,47.0342285 37.0625855,47.057669 Q37.0129141,47.0811094 36.9325469,47.1067822 Q36.864458,47.1279902 36.7846489,47.1430591 Q36.7048399,47.1581279 36.6088457,47.1581279 Q36.4280195,47.1581279 36.2801216,47.1073403 Q36.1322236,47.0565527 36.022835,46.9482803 Q35.9156787,46.8422402 35.8554033,46.6787153 Q35.7951279,46.5151904 35.7951279,46.2986455 Q35.7951279,46.0932627 35.8531709,45.9314121 Q35.9112139,45.7695615 36.0206026,45.6579404 Q36.1266426,45.549668 36.276773,45.4927412 Q36.4269033,45.4358145 36.6099619,45.4358145 Q36.7439072,45.4358145 36.8772944,45.4681846 Q37.0106817,45.5005547 37.1736484,45.5820381 L37.1736484,45.8443477 L37.1569053,45.8443477 Q37.0196113,45.7293779 36.8845498,45.676916 Q36.7494883,45.6244541 36.5954512,45.6244541 Q36.4693193,45.6244541 36.3683023,45.6651958 Q36.2672852,45.7059375 36.1880342,45.7918858 Q36.1110156,45.8756016 36.0680415,46.0034077 Q36.0250674,46.1312139 36.0250674,46.2986455 Q36.0250674,46.4738906 36.0725064,46.6000225 Q36.1199453,46.7261543 36.1947315,46.8054053 Q36.2728662,46.8880049 36.3772319,46.9276304 Q36.4815977,46.9672559 36.5976836,46.9672559 Q36.7573018,46.9672559 36.8968281,46.9125615 Q37.0363545,46.8578672 37.1580215,46.7484785 L37.1736484,46.7484785 Z" style="fill:rgb(68,68,68);stroke:none" />
<path d="M38.6357173,47.1279902 L38.4147076,47.1279902 L38.4147076,46.3142725 L37.5853629,46.3142725 L37.5853629,47.1279902 L37.3643531,47.1279902 L37.3643531,45.4659522 L37.5853629,45.4659522 L37.5853629,46.1178193 L38.4147076,46.1178193 L38.4147076,45.4659522 L38.6357173,45.4659522 Z" style="fill:rgb(68,68,68);stroke:none" />
<path d="M39.4097538,47.1464077 Q39.4419007,47.175206 39.4626622,47.2187382 Q39.4834237,47.2622704 39.4834237,47.3312523 Q39.4834237,47.3995644 39.4586439,47.4564911 Q39.433864,47.5134179 39.3889923,47.5556107 Q39.3387628,47.6024915 39.2707856,47.6249274 Q39.2028083,47.6473632 39.1217714,47.6473632 Q39.0387253,47.6473632 38.9583581,47.6276063 Q38.8779909,47.6078493 38.826422,47.5844089 L38.826422,47.444436 L38.8364679,47.444436 Q38.8933946,47.4819407 38.9704132,47.5067206 Q39.0474318,47.5315005 39.1190925,47.5315005 Q39.1612853,47.5315005 39.2088359,47.5174362 Q39.2563864,47.503372 39.2858544,47.4759132 Q39.3166618,47.4464452 39.3317307,47.4109497 Q39.3467995,47.3754542 39.3467995,47.3212064 Q39.3467995,47.2676282 39.3297215,47.2324676 Q39.3126435,47.1973069 39.2825058,47.1772151 Q39.2523681,47.1564536 39.2095056,47.1487518 Q39.1666431,47.1410499 39.1170833,47.1410499 L39.0568079,47.1410499 L39.0568079,47.0298753 L39.1036888,47.0298753 Q39.2054872,47.0298753 39.2660975,46.9873477 Q39.3267077,46.94482 39.3267077,46.8631134 Q39.3267077,46.8269482 39.311304,46.7998242 Q39.2959003,46.7727003 39.2684415,46.7552874 Q39.2396433,46.7378745 39.2068267,46.7311773 Q39.1740101,46.72448 39.132487,46.72448 Q39.068863,46.72448 38.9972023,46.7472507 Q38.9255415,46.7700214 38.8619175,46.8115444 L38.8552202,46.8115444 L38.8552202,46.6715716 Q38.9027708,46.6481312 38.9821334,46.6283742 Q39.061496,46.6086173 39.1358357,46.6086173 Q39.2088359,46.6086173 39.2644232,46.6220118 Q39.3200105,46.6354064 39.3648821,46.6648743 Q39.4131025,46.6970212 39.4378823,46.7425626 Q39.4626622,46.788104 39.4626622,46.8490491 Q39.4626622,46.9320952 39.4040611,46.9940449 Q39.3454601,47.0559946 39.2657626,47.0720681 L39.2657626,47.0814442 Q39.2979095,47.0868021 39.3394325,47.1038801 Q39.3809556,47.1209581 39.4097538,47.1464077 Z" style="fill:rgb(68,68,68);stroke:none" />
<path d="M50.3812458,19.1698881 Q50.3198542,19.1966772 50.2701828,19.2201176 Q50.2205114,19.243558 50.1401442,19.2692309 Q50.0720554,19.2904389 49.9922463,19.3055078 Q49.9124372,19.3205766 49.8164431,19.3205766 Q49.6356169,19.3205766 49.4877189,19.269789 Q49.339821,19.2190014 49.2304323,19.1107289 Q49.1232761,19.0046889 49.0630007,18.841164 Q49.0027253,18.6776391 49.0027253,18.4610942 Q49.0027253,18.2557114 49.0607683,18.0938608 Q49.1188112,17.9320102 49.2281999,17.8203891 Q49.3342399,17.7121166 49.4843703,17.6551899 Q49.6345007,17.5982631 49.8175593,17.5982631 Q49.9515046,17.5982631 50.0848918,17.6306332 Q50.218279,17.6630034 50.3812458,17.7444868 L50.3812458,18.0067963 L50.3645026,18.0067963 Q50.2272087,17.8918266 50.0921472,17.8393647 Q49.9570856,17.7869028 49.8030485,17.7869028 Q49.6769167,17.7869028 49.5758996,17.8276445 Q49.4748825,17.8683862 49.3956315,17.9543344 Q49.318613,18.0380502 49.2756389,18.1658564 Q49.2326647,18.2936625 49.2326647,18.4610942 Q49.2326647,18.6363393 49.2801037,18.7624711 Q49.3275427,18.888603 49.4023288,18.9678539 Q49.4804636,19.0504536 49.5848293,19.090079 Q49.689195,19.1297045 49.805281,19.1297045 Q49.9648991,19.1297045 50.1044255,19.0750102 Q50.2439519,19.0203159 50.3656188,18.9109272 L50.3812458,18.9109272 Z" style="fill:rgb(68,68,68);stroke:none" />
<path d="M51.8433147,19.2904389 L51.6223049,19.2904389 L51.6223049,18.4767211 L50.7929602,18.4767211 L50.7929602,19.2904389 L50.5719504,19.2904389 L50.5719504,17.6284008 L50.7929602,17.6284008 L50.7929602,18.280268 L51.6223049,18.280268 L51.6223049,17.6284008 L51.8433147,17.6284008 Z" style="fill:rgb(68,68,68);stroke:none" />
<path d="M52.6173512,19.3088564 Q52.649498,19.3376546 52.6702596,19.3811869 Q52.6910211,19.4247191 52.6910211,19.4937009 Q52.6910211,19.562013 52.6662412,19.6189398 Q52.6414613,19.6758665 52.5965896,19.7180593 Q52.5463602,19.7649402 52.4783829,19.787376 Q52.4104057,19.8098119 52.3293687,19.8098119 Q52.2463227,19.8098119 52.1659555,19.7900549 Q52.0855883,19.770298 52.0340193,19.7468576 L52.0340193,19.6068847 L52.0440652,19.6068847 Q52.100992,19.6443894 52.1780105,19.6691693 Q52.2550291,19.6939492 52.3266898,19.6939492 Q52.3688826,19.6939492 52.4164332,19.6798849 Q52.4639838,19.6658206 52.4934518,19.6383619 Q52.5242592,19.6088939 52.539328,19.5733984 Q52.5543969,19.5379029 52.5543969,19.483655 Q52.5543969,19.4300769 52.5373188,19.3949162 Q52.5202408,19.3597556 52.4901031,19.3396638 Q52.4599654,19.3189023 52.4171029,19.3112004 Q52.3742404,19.3034986 52.3246807,19.3034986 L52.2644053,19.3034986 L52.2644053,19.192324 L52.3112861,19.192324 Q52.4130846,19.192324 52.4736948,19.1497963 Q52.5343051,19.1072687 52.5343051,19.025562 Q52.5343051,18.9893968 52.5189014,18.9622729 Q52.5034977,18.935149 52.4760389,18.9177361 Q52.4472406,18.9003232 52.414424,18.8936259 Q52.3816074,18.8869287 52.3400844,18.8869287 Q52.2764604,18.8869287 52.2047996,18.9096994 Q52.1331389,18.9324701 52.0695148,18.9739931 L52.0628176,18.9739931 L52.0628176,18.8340203 Q52.1103682,18.8105798 52.1897308,18.7908229 Q52.2690934,18.771066 52.343433,18.771066 Q52.4164332,18.771066 52.4720205,18.7844605 Q52.5276078,18.797855 52.5724795,18.827323 Q52.6206998,18.8594699 52.6454797,18.9050113 Q52.6702596,18.9505527 52.6702596,19.0114978 Q52.6702596,19.0945439 52.6116585,19.1564936 Q52.5530574,19.2184433 52.47336,19.2345167 L52.47336,19.2438929 Q52.5055068,19.2492507 52.5470299,19.2663287 Q52.5885529,19.2834068 52.6173512,19.3088564 Z" style="fill:rgb(68,68,68);stroke:none" />
<path d="M23.9660511,49.4457651 Q23.9046595,49.4725542 23.8549881,49.4959946 Q23.8053167,49.519435 23.7249495,49.5451079 Q23.6568607,49.5663159 23.5770516,49.5813848 Q23.4972425,49.5964536 23.4012484,49.5964536 Q23.2204222,49.5964536 23.0725242,49.545666 Q22.9246263,49.4948784 22.8152376,49.3866059 Q22.7080814,49.2805659 22.647806,49.117041 Q22.5875306,48.9535161 22.5875306,48.7369712 Q22.5875306,48.5315884 22.6455736,48.3697378 Q22.7036165,48.2078872 22.8130052,48.0962661 Q22.9190452,47.9879936 23.0691756,47.9310669 Q23.219306,47.8741401 23.4023646,47.8741401 Q23.5363099,47.8741401 23.6696971,47.9065102 Q23.8030843,47.9388804 23.9660511,48.0203638 L23.9660511,48.2826733 L23.9493079,48.2826733 Q23.812014,48.1677036 23.6769525,48.1152417 Q23.5418909,48.0627798 23.3878538,48.0627798 Q23.261722,48.0627798 23.1607049,48.1035215 Q23.0596878,48.1442632 22.9804368,48.2302114 Q22.9034183,48.3139272 22.8604442,48.4417334 Q22.81747,48.5695395 22.81747,48.7369712 Q22.81747,48.9122163 22.864909,49.0383481 Q22.912348,49.16448 22.9871341,49.2437309 Q23.0652689,49.3263306 23.1696346,49.365956 Q23.2740003,49.4055815 23.3900863,49.4055815 Q23.5497044,49.4055815 23.6892308,49.3508872 Q23.8287572,49.2961929 23.9504241,49.1868042 L23.9660511,49.1868042 Z" style="fill:rgb(68,68,68);stroke:none" />
<path d="M25.42812,49.5663159 L25.2071102,49.5663159 L25.2071102,48.7525981 L24.3777655,48.7525981 L24.3777655,49.5663159 L24.1567557,49.5663159 L24.1567557,47.9042778 L24.3777655,47.9042778 L24.3777655,48.556145 L25.2071102,48.556145 L25.2071102,47.9042778 L25.42812,47.9042778 Z" style="fill:rgb(68,68,68);stroke:none" />
<path d="M26.2021565,49.5847334 Q26.2343033,49.6135316 26.2550649,49.6570639 Q26.2758264,49.7005961 26.2758264,49.7695779 Q26.2758264,49.83789 26.2510465,49.8948168 Q26.2262666,49.9517435 26.1813949,49.9939363 Q26.1311655,50.0408172 26.0631882,50.063253 Q25.995211,50.0856889 25.914174,50.0856889 Q25.831128,50.0856889 25.7507608,50.0659319 Q25.6703936,50.046175 25.6188246,50.0227346 L25.6188246,49.8827617 L25.6288705,49.8827617 Q25.6857973,49.9202664 25.7628158,49.9450463 Q25.8398344,49.9698262 25.9114951,49.9698262 Q25.9536879,49.9698262 26.0012385,49.9557619 Q26.0487891,49.9416976 26.0782571,49.9142389 Q26.1090645,49.8847709 26.1241333,49.8492754 Q26.1392022,49.8137799 26.1392022,49.759532 Q26.1392022,49.7059539 26.1221241,49.6707933 Q26.1050461,49.6356326 26.0749084,49.6155408 Q26.0447707,49.5947793 26.0019082,49.5870774 Q25.9590457,49.5793756 25.909486,49.5793756 L25.8492106,49.5793756 L25.8492106,49.468201 L25.8960914,49.468201 Q25.9978899,49.468201 26.0585001,49.4256733 Q26.1191104,49.3831457 26.1191104,49.3014391 Q26.1191104,49.2652738 26.1037067,49.2381499 Q26.088303,49.211026 26.0608442,49.1936131 Q26.0320459,49.1762002 25.9992293,49.1695029 Q25.9664127,49.1628057 25.9248897,49.1628057 Q25.8612656,49.1628057 25.7896049,49.1855764 Q25.7179442,49.2083471 25.6543201,49.2498701 L25.6476229,49.2498701 L25.6476229,49.1098973 Q25.6951735,49.0864568 25.7745361,49.0666999 Q25.8538987,49.046943 25.9282383,49.046943 Q26.0012385,49.046943 26.0568258,49.0603375 Q26.1124131,49.073732 26.1572848,49.1032 Q26.2055051,49.1353469 26.230285,49.1808883 Q26.2550649,49.2264297 26.2550649,49.2873748 Q26.2550649,49.3704209 26.1964638,49.4323706 Q26.1378627,49.4943203 26.0581653,49.5103937 L26.0581653,49.5197699 Q26.0903121,49.5251277 26.1318352,49.5422058 Q26.1733582,49.5592838 26.2021565,49.5847334 Z" style="fill:rgb(68,68,68);stroke:none" />
<path d="M6.4378057,29.2469354 L6.2167959,29.2469354 L6.2167959,28.4332176 L5.3874512,28.4332176 L5.3874512,29.2469354 L5.1664415,29.2469354 L5.1664415,27.5848973 L5.3874512,27.5848973 L5.3874512,28.2367645 L6.2167959,28.2367645 L6.2167959,27.5848973 L6.4378057,27.5848973 Z" style="fill:rgb(68,68,68);stroke:none" />
<path d="M32.6943127,24.2280484 L32.420841,24.2280484 L31.6327961,22.7412554 L31.6327961,24.2280484 L31.4262971,24.2280484 L31.4262971,22.5660103 L31.7689738,22.5660103 L32.4878137,23.9233228 L32.4878137,22.5660103 L32.6943127,22.5660103 Z" style="fill:rgb(68,68,68);stroke:none" />
<path d="M28.2160902,30.3464789 Q28.3176654,30.4581 28.3718016,30.6199505 Q28.4259379,30.7818011 28.4259379,30.9871839 Q28.4259379,31.1925668 28.3706854,31.3549754 Q28.315433,31.5173841 28.2160902,31.6256566 Q28.1133988,31.7383939 27.9733143,31.7953207 Q27.8332299,31.8522474 27.6535199,31.8522474 Q27.4782748,31.8522474 27.3348417,31.7942044 Q27.1914086,31.7361615 27.0909496,31.6256566 Q26.9904906,31.5151517 26.9363544,31.3544173 Q26.8822181,31.193683 26.8822181,30.9871839 Q26.8822181,30.7840335 26.9357963,30.6227411 Q26.9893744,30.4614486 27.0920658,30.3464789 Q27.1902924,30.2370902 27.3359579,30.1790472 Q27.4816234,30.1210043 27.6535199,30.1210043 Q27.8321136,30.1210043 27.9744305,30.1796053 Q28.1167474,30.2382064 28.2160902,30.3464789 Z M28.1959984,30.9871839 Q28.1959984,30.6634828 28.050891,30.4876795 Q27.9057836,30.3118763 27.6546361,30.3118763 Q27.4012562,30.3118763 27.2567069,30.4876795 Q27.1121576,30.6634828 27.1121576,30.9871839 Q27.1121576,31.3142337 27.2594974,31.4878045 Q27.4068373,31.6613753 27.6546361,31.6613753 Q27.9024349,31.6613753 28.0492167,31.4878045 Q28.1959984,31.3142337 28.1959984,30.9871839 Z" style="fill:rgb(68,68,68);stroke:none" />
<path d="M11.4723049,19.2305462 Q11.5738801,19.3421673 11.6280163,19.5040179 Q11.6821526,19.6658685 11.6821526,19.8712513 Q11.6821526,20.0766341 11.6269001,20.2390428 Q11.5716477,20.4014515 11.4723049,20.509724 Q11.3696135,20.6224613 11.229529,20.679388 Q11.0894446,20.7363148 10.9097346,20.7363148 Q10.7344895,20.7363148 10.5910564,20.6782718 Q10.4476233,20.6202288 10.3471643,20.509724 Q10.2467053,20.3992191 10.1925691,20.2384847 Q10.1384328,20.0777503 10.1384328,19.8712513 Q10.1384328,19.6681009 10.192011,19.5068084 Q10.2455891,19.345516 10.3482805,19.2305462 Q10.4465071,19.1211576 10.5921726,19.0631146 Q10.7378381,19.0050716 10.9097346,19.0050716 Q11.0883283,19.0050716 11.2306452,19.0636727 Q11.3729621,19.1222738 11.4723049,19.2305462 Z M11.4522131,19.8712513 Q11.4522131,19.5475501 11.3071057,19.3717469 Q11.1619983,19.1959437 10.9108508,19.1959437 Q10.6574709,19.1959437 10.5129216,19.3717469 Q10.3683723,19.5475501 10.3683723,19.8712513 Q10.3683723,20.1983011 10.5157121,20.3718719 Q10.663052,20.5454427 10.9108508,20.5454427 Q11.1586496,20.5454427 11.3054314,20.3718719 Q11.4522131,20.1983011 11.4522131,19.8712513 Z" style="fill:rgb(68,68,68);stroke:none" />
<path d="M14.0218694,14.8658739 Q13.9604778,14.8926629 13.9108064,14.9161034 Q13.861135,14.9395438 13.7807678,14.9652167 Q13.712679,14.9864247 13.6328699,15.0014935 Q13.5530608,15.0165624 13.4570667,15.0165624 Q13.2762405,15.0165624 13.1283426,14.9657748 Q12.9804446,14.9149872 12.8710559,14.8067147 Q12.7638997,14.7006747 12.7036243,14.5371498 Q12.6433489,14.3736249 12.6433489,14.1570799 Q12.6433489,13.9516971 12.7013919,13.7898465 Q12.7594348,13.627996 12.8688235,13.5163749 Q12.9748636,13.4081024 13.1249939,13.3511756 Q13.2751243,13.2942489 13.4581829,13.2942489 Q13.5921282,13.2942489 13.7255154,13.326619 Q13.8589026,13.3589891 14.0218694,13.4404725 L14.0218694,13.7027821 L14.0051262,13.7027821 Q13.8678323,13.5878124 13.7327708,13.5353504 Q13.5977093,13.4828885 13.4436721,13.4828885 Q13.3175403,13.4828885 13.2165232,13.5236302 Q13.1155061,13.5643719 13.0362552,13.6503202 Q12.9592366,13.734036 12.9162625,13.8618421 Q12.8732884,13.9896483 12.8732884,14.1570799 Q12.8732884,14.3323251 12.9207273,14.4584569 Q12.9681663,14.5845887 13.0429524,14.6638397 Q13.1210872,14.7464393 13.2254529,14.7860648 Q13.3298186,14.8256903 13.4459046,14.8256903 Q13.6055227,14.8256903 13.7450491,14.770996 Q13.8845755,14.7163016 14.0062425,14.6069129 L14.0218694,14.6069129 Z" style="fill:rgb(68,68,68);stroke:none" />
<path d="M11.6049379,14.9864247 L11.3839281,14.9864247 L11.3839281,14.1727069 L10.5545834,14.1727069 L10.5545834,14.9864247 L10.3335736,14.9864247 L10.3335736,13.3243866 L10.5545834,13.3243866 L10.5545834,13.9762538 L11.3839281,13.9762538 L11.3839281,13.3243866 L11.6049379,13.3243866 Z" style="fill:rgb(68,68,68);stroke:none" />
<path d="M12.3789743,15.0048421 Q12.4111212,15.0336404 12.4318827,15.0771726 Q12.4526443,15.1207048 12.4526443,15.1896867 Q12.4526443,15.2579988 12.4278644,15.3149255 Q12.4030845,15.3718523 12.3582128,15.4140451 Q12.3079833,15.4609259 12.2400061,15.4833618 Q12.1720288,15.5057976 12.0909919,15.5057976 Q12.0079458,15.5057976 11.9275786,15.4860407 Q11.8472115,15.4662837 11.7956425,15.4428433 L11.7956425,15.3028705 L11.8056884,15.3028705 Q11.8626152,15.3403752 11.9396337,15.365155 Q12.0166523,15.3899349 12.088313,15.3899349 Q12.1305058,15.3899349 12.1780564,15.3758707 Q12.225607,15.3618064 12.2550749,15.3343476 Q12.2858824,15.3048796 12.3009512,15.2693841 Q12.31602,15.2338886 12.31602,15.1796408 Q12.31602,15.1260627 12.298942,15.090902 Q12.281864,15.0557414 12.2517263,15.0356496 Q12.2215886,15.014888 12.1787261,15.0071862 Q12.1358636,14.9994843 12.0863038,14.9994843 L12.0260284,14.9994843 L12.0260284,14.8883097 L12.0729093,14.8883097 Q12.1747077,14.8883097 12.235318,14.8457821 Q12.2959282,14.8032544 12.2959282,14.7215478 Q12.2959282,14.6853826 12.2805245,14.6582586 Q12.2651208,14.6311347 12.237662,14.6137218 Q12.2088638,14.5963089 12.1760472,14.5896117 Q12.1432306,14.5829144 12.1017075,14.5829144 Q12.0380835,14.5829144 11.9664228,14.6056851 Q11.894762,14.6284558 11.831138,14.6699789 L11.8244407,14.6699789 L11.8244407,14.530006 Q11.8719913,14.5065656 11.9513539,14.4868086 Q12.0307165,14.4670517 12.1050562,14.4670517 Q12.1780564,14.4670517 12.2336437,14.4804462 Q12.289231,14.4938408 12.3341027,14.5233087 Q12.382323,14.5554556 12.4071029,14.600997 Q12.4318827,14.6465384 12.4318827,14.7074835 Q12.4318827,14.7905296 12.3732817,14.8524794 Q12.3146806,14.9144291 12.2349831,14.9305025 L12.2349831,14.9398787 Q12.26713,14.9452365 12.3086531,14.9623145 Q12.3501761,14.9793925 12.3789743,15.0048421 Z" style="fill:rgb(68,68,68);stroke:none" />
<path d="M18.8030724,27.9618885 L18.5820626,27.9618885 L18.5820626,27.1481707 L17.7527179,27.1481707 L17.7527179,27.9618885 L17.5317081,27.9618885 L17.5317081,26.2998504 L17.7527179,26.2998504 L17.7527179,26.9517176 L18.5820626,26.9517176 L18.5820626,26.2998504 L18.8030724,26.2998504 Z" style="fill:rgb(68,68,68);stroke:none" />
<path d="M25.6459964,13.5158744 Q25.7475716,13.6274955 25.8017079,13.7893461 Q25.8558441,13.9511967 25.8558441,14.1565795 Q25.8558441,14.3619623 25.8005917,14.524371 Q25.7453392,14.6867797 25.6459964,14.7950521 Q25.543305,14.9077894 25.4032206,14.9647162 Q25.2631361,15.0216429 25.0834261,15.0216429 Q24.908181,15.0216429 24.7647479,14.9636 Q24.6213148,14.905557 24.5208558,14.7950521 Q24.4203968,14.6845472 24.3662606,14.5238129 Q24.3121244,14.3630785 24.3121244,14.1565795 Q24.3121244,13.9534291 24.3657025,13.7921366 Q24.4192806,13.6308441 24.521972,13.5158744 Q24.6201986,13.4064857 24.7658641,13.3484427 Q24.9115296,13.2903998 25.0834261,13.2903998 Q25.2620199,13.2903998 25.4043368,13.3490009 Q25.5466537,13.4076019 25.6459964,13.5158744 Z M25.6259046,14.1565795 Q25.6259046,13.8328783 25.4807972,13.6570751 Q25.3356898,13.4812718 25.0845423,13.4812718 Q24.8311625,13.4812718 24.6866131,13.6570751 Q24.5420638,13.8328783 24.5420638,14.1565795 Q24.5420638,14.4836293 24.6894037,14.6572001 Q24.8367435,14.8307709 25.0845423,14.8307709 Q25.3323412,14.8307709 25.4791229,14.6572001 Q25.6259046,14.4836293 25.6259046,14.1565795 Z" style="fill:rgb(68,68,68);stroke:none" />
<path d="M43.3458142,9.7558575 Q43.2844226,9.7826466 43.2347512,9.806087 Q43.1850798,9.8295275 43.1047127,9.8552003 Q43.0366238,9.8764083 42.9568147,9.8914772 Q42.8770056,9.906546 42.7810115,9.906546 Q42.6001853,9.906546 42.4522874,9.8557584 Q42.3043894,9.8049708 42.1950007,9.6966984 Q42.0878445,9.5906583 42.0275691,9.4271334 Q41.9672937,9.2636085 41.9672937,9.0470636 Q41.9672937,8.8416808 42.0253367,8.6798302 Q42.0833797,8.5179796 42.1927683,8.4063585 Q42.2988084,8.2980861 42.4489387,8.2411593 Q42.5990691,8.1842325 42.7821277,8.1842325 Q42.916073,8.1842325 43.0494602,8.2166027 Q43.1828474,8.2489728 43.3458142,8.3304562 L43.3458142,8.5927657 L43.3290711,8.5927657 Q43.1917771,8.477796 43.0567156,8.4253341 Q42.9216541,8.3728722 42.767617,8.3728722 Q42.6414851,8.3728722 42.540468,8.4136139 Q42.4394509,8.4543556 42.3602,8.5403038 Q42.2831814,8.6240197 42.2402073,8.7518258 Q42.1972332,8.879632 42.1972332,9.0470636 Q42.1972332,9.2223087 42.2446721,9.3484406 Q42.2921111,9.4745724 42.3668972,9.5538234 Q42.445032,9.636423 42.5493977,9.6760485 Q42.6537634,9.715674 42.7698494,9.715674 Q42.9294675,9.715674 43.0689939,9.6609796 Q43.2085203,9.6062853 43.3301873,9.4968966 L43.3458142,9.4968966 Z" style="fill:rgb(68,68,68);stroke:none" />
<path d="M44.8078831,9.8764083 L44.5868734,9.8764083 L44.5868734,9.0626906 L43.7575286,9.0626906 L43.7575286,9.8764083 L43.5365189,9.8764083 L43.5365189,8.2143702 L43.7575286,8.2143702 L43.7575286,8.8662374 L44.5868734,8.8662374 L44.5868734,8.2143702 L44.8078831,8.2143702 Z" style="fill:rgb(68,68,68);stroke:none" />
<path d="M45.5819196,9.8948258 Q45.6140665,9.923624 45.634828,9.9671563 Q45.6555895,10.0106885 45.6555895,10.0796703 Q45.6555895,10.1479824 45.6308096,10.2049092 Q45.6060298,10.261836 45.5611581,10.3040287 Q45.5109286,10.3509096 45.4429513,10.3733454 Q45.3749741,10.3957813 45.2939372,10.3957813 Q45.2108911,10.3957813 45.1305239,10.3760243 Q45.0501567,10.3562674 44.9985878,10.332827 L44.9985878,10.1928541 L45.0086337,10.1928541 Q45.0655604,10.2303588 45.142579,10.2551387 Q45.2195975,10.2799186 45.2912583,10.2799186 Q45.333451,10.2799186 45.3810016,10.2658543 Q45.4285522,10.2517901 45.4580202,10.2243313 Q45.4888276,10.1948633 45.5038964,10.1593678 Q45.5189653,10.1238723 45.5189653,10.0696244 Q45.5189653,10.0160463 45.5018873,9.9808857 Q45.4848092,9.945725 45.4546715,9.9256332 Q45.4245339,9.9048717 45.3816714,9.8971699 Q45.3388089,9.889468 45.2892491,9.889468 L45.2289737,9.889468 L45.2289737,9.7782934 L45.2758546,9.7782934 Q45.377653,9.7782934 45.4382632,9.7357657 Q45.4988735,9.6932381 45.4988735,9.6115315 Q45.4988735,9.5753662 45.4834698,9.5482423 Q45.4680661,9.5211184 45.4406073,9.5037055 Q45.411809,9.4862926 45.3789924,9.4795953 Q45.3461758,9.4728981 45.3046528,9.4728981 Q45.2410288,9.4728981 45.169368,9.4956688 Q45.0977073,9.5184395 45.0340833,9.5599625 L45.027386,9.5599625 L45.027386,9.4199897 Q45.0749366,9.3965492 45.1542992,9.3767923 Q45.2336618,9.3570354 45.3080014,9.3570354 Q45.3810016,9.3570354 45.4365889,9.3704299 Q45.4921762,9.3838244 45.5370479,9.4132924 Q45.5852682,9.4454393 45.6100481,9.4909807 Q45.634828,9.5365221 45.634828,9.5974672 Q45.634828,9.6805133 45.5762269,9.742463 Q45.5176258,9.8044127 45.4379284,9.8204862 L45.4379284,9.8298623 Q45.4700753,9.8352201 45.5115983,9.8522982 Q45.5531214,9.8693762 45.5819196,9.8948258 Z" style="fill:rgb(68,68,68);stroke:none" />
<path d="M34.4916543,9.8764083 L34.2181826,9.8764083 L33.4301377,8.3896154 L33.4301377,9.8764083 L33.2236386,9.8764083 L33.2236386,8.2143702 L33.5663154,8.2143702 L34.2851552,9.5716827 L34.2851552,8.2143702 L34.4916543,8.2143702 Z" style="fill:rgb(68,68,68);stroke:none" />
<path d="M38.8043347,0.7854746 Q38.9059099,0.8970957 38.9600461,1.0589463 Q39.0141823,1.2207969 39.0141823,1.4261797 Q39.0141823,1.6315625 38.9589299,1.7939712 Q38.9036775,1.9563799 38.8043347,2.0646523 Q38.7016433,2.1773896 38.5615588,2.2343164 Q38.4214743,2.2912432 38.2417644,2.2912432 Q38.0665193,2.2912432 37.9230862,2.2332002 Q37.779653,2.1751572 37.6791941,2.0646523 Q37.5787351,1.9541475 37.5245988,1.7934131 Q37.4704626,1.6326787 37.4704626,1.4261797 Q37.4704626,1.2230293 37.5240407,1.0617368 Q37.5776189,0.9004443 37.6803103,0.7854746 Q37.7785368,0.6760859 37.9242024,0.618043 Q38.0698679,0.56 38.2417644,0.56 Q38.4203581,0.56 38.562675,0.6186011 Q38.7049919,0.6772021 38.8043347,0.7854746 Z M38.7842429,1.4261797 Q38.7842429,1.1024785 38.6391355,0.9266753 Q38.494028,0.7508721 38.2428806,0.7508721 Q37.9895007,0.7508721 37.8449514,0.9266753 Q37.7004021,1.1024785 37.7004021,1.4261797 Q37.7004021,1.7532295 37.8477419,1.9268003 Q37.9950818,2.1003711 38.2428806,2.1003711 Q38.4906794,2.1003711 38.6374612,1.9268003 Q38.7842429,1.7532295 38.7842429,1.4261797 Z" style="fill:rgb(68,68,68);stroke:none" />
<path d="M34.5253559,14.8664896 Q34.4639643,14.8932787 34.4142929,14.9167191 Q34.3646215,14.9401595 34.2842543,14.9658324 Q34.2161654,14.9870404 34.1363563,15.0021092 Q34.0565473,15.0171781 33.9605531,15.0171781 Q33.7797269,15.0171781 33.631829,14.9663905 Q33.483931,14.9156029 33.3745424,14.8073304 Q33.2673861,14.7012904 33.2071107,14.5377655 Q33.1468353,14.3742406 33.1468353,14.1576957 Q33.1468353,13.9523129 33.2048783,13.7904623 Q33.2629213,13.6286117 33.37231,13.5169906 Q33.47835,13.4087181 33.6284804,13.3517914 Q33.7786107,13.2948646 33.9616693,13.2948646 Q34.0956146,13.2948646 34.2290018,13.3272347 Q34.3623891,13.3596049 34.5253559,13.4410883 L34.5253559,13.7033978 L34.5086127,13.7033978 Q34.3713187,13.5884281 34.2362572,13.5359662 Q34.1011957,13.4835043 33.9471586,13.4835043 Q33.8210268,13.4835043 33.7200097,13.524246 Q33.6189926,13.5649877 33.5397416,13.6509359 Q33.462723,13.7346517 33.4197489,13.8624579 Q33.3767748,13.990264 33.3767748,14.1576957 Q33.3767748,14.3329408 33.4242138,14.4590726 Q33.4716527,14.5852045 33.5464389,14.6644554 Q33.6245736,14.7470551 33.7289393,14.7866805 Q33.8333051,14.826306 33.949391,14.826306 Q34.1090092,14.826306 34.2485355,14.7716117 Q34.3880619,14.7169174 34.5097289,14.6075287 L34.5253559,14.6075287 Z" style="fill:rgb(68,68,68);stroke:none" />
<path d="M35.9874247,14.9870404 L35.766415,14.9870404 L35.766415,14.1733226 L34.9370703,14.1733226 L34.9370703,14.9870404 L34.7160605,14.9870404 L34.7160605,13.3250023 L34.9370703,13.3250023 L34.9370703,13.9768695 L35.766415,13.9768695 L35.766415,13.3250023 L35.9874247,13.3250023 Z" style="fill:rgb(68,68,68);stroke:none" />
<path d="M36.7614612,15.0054579 Q36.7936081,15.0342561 36.8143696,15.0777884 Q36.8351311,15.1213206 36.8351311,15.1903024 Q36.8351311,15.2586145 36.8103513,15.3155413 Q36.7855714,15.372468 36.7406997,15.4146608 Q36.6904702,15.4615417 36.622493,15.4839775 Q36.5545157,15.5064134 36.4734788,15.5064134 Q36.3904327,15.5064134 36.3100655,15.4866564 Q36.2296983,15.4668995 36.1781294,15.4434591 L36.1781294,15.3034862 L36.1881753,15.3034862 Q36.245102,15.3409909 36.3221206,15.3657708 Q36.3991392,15.3905507 36.4707999,15.3905507 Q36.5129927,15.3905507 36.5605433,15.3764864 Q36.6080938,15.3624221 36.6375618,15.3349634 Q36.6683692,15.3054954 36.6834381,15.2699999 Q36.6985069,15.2345044 36.6985069,15.1802565 Q36.6985069,15.1266784 36.6814289,15.0915177 Q36.6643509,15.0563571 36.6342132,15.0362653 Q36.6040755,15.0155038 36.561213,15.0078019 Q36.5183505,15.0001001 36.4687907,15.0001001 L36.4085153,15.0001001 L36.4085153,14.8889255 L36.4553962,14.8889255 Q36.5571946,14.8889255 36.6178049,14.8463978 Q36.6784151,14.8038702 36.6784151,14.7221635 Q36.6784151,14.6859983 36.6630114,14.6588744 Q36.6476077,14.6317505 36.6201489,14.6143376 Q36.5913507,14.5969247 36.5585341,14.5902274 Q36.5257175,14.5835301 36.4841944,14.5835301 Q36.4205704,14.5835301 36.3489097,14.6063009 Q36.2772489,14.6290716 36.2136249,14.6705946 L36.2069276,14.6705946 L36.2069276,14.5306217 Q36.2544782,14.5071813 36.3338408,14.4874244 Q36.4132034,14.4676675 36.4875431,14.4676675 Q36.5605433,14.4676675 36.6161306,14.481062 Q36.6717179,14.4944565 36.7165895,14.5239245 Q36.7648099,14.5560714 36.7895897,14.6016128 Q36.8143696,14.6471542 36.8143696,14.7080993 Q36.8143696,14.7911454 36.7557685,14.8530951 Q36.6971675,14.9150448 36.61747,14.9311182 L36.61747,14.9404944 Q36.6496169,14.9458522 36.6911399,14.9629302 Q36.732663,14.9800083 36.7614612,15.0054579 Z" style="fill:rgb(68,68,68);stroke:none" />
<path d="M30.1185132,2.1360898 Q30.0571216,2.1628789 30.0074502,2.1863193 Q29.9577789,2.2097598 29.8774117,2.2354326 Q29.8093228,2.2566406 29.7295137,2.2717095 Q29.6497046,2.2867783 29.5537105,2.2867783 Q29.3728843,2.2867783 29.2249864,2.2359907 Q29.0770884,2.1852031 28.9676998,2.0769307 Q28.8605435,1.9708906 28.8002681,1.8073657 Q28.7399927,1.6438408 28.7399927,1.4272959 Q28.7399927,1.2219131 28.7980357,1.0600625 Q28.8560787,0.8982119 28.9654673,0.7865908 Q29.0715074,0.6783184 29.2216377,0.6213916 Q29.3717681,0.5644648 29.5548267,0.5644648 Q29.688772,0.5644648 29.8221592,0.596835 Q29.9555464,0.6292051 30.1185132,0.7106885 L30.1185132,0.972998 L30.1017701,0.972998 Q29.9644761,0.8580283 29.8294146,0.8055664 Q29.6943531,0.7531045 29.540316,0.7531045 Q29.4141841,0.7531045 29.313167,0.7938462 Q29.2121499,0.8345879 29.132899,0.9205361 Q29.0558804,1.004252 29.0129063,1.1320581 Q28.9699322,1.2598643 28.9699322,1.4272959 Q28.9699322,1.602541 29.0173711,1.7286729 Q29.0648101,1.8548047 29.1395962,1.9340557 Q29.217731,2.0166553 29.3220967,2.0562808 Q29.4264624,2.0959063 29.5425484,2.0959063 Q29.7021666,2.0959063 29.8416929,2.0412119 Q29.9812193,1.9865176 30.1028863,1.8771289 L30.1185132,1.8771289 Z" style="fill:rgb(68,68,68);stroke:none" />
<path d="M31.5805821,2.2566406 L31.3595724,2.2566406 L31.3595724,1.4429229 L30.5302276,1.4429229 L30.5302276,2.2566406 L30.3092179,2.2566406 L30.3092179,0.5946025 L30.5302276,0.5946025 L30.5302276,1.2464697 L31.3595724,1.2464697 L31.3595724,0.5946025 L31.5805821,0.5946025 Z" style="fill:rgb(68,68,68);stroke:none" />
<path d="M32.3546186,2.2750581 Q32.3867655,2.3038563 32.407527,2.3473886 Q32.4282885,2.3909208 32.4282885,2.4599026 Q32.4282885,2.5282147 32.4035086,2.5851415 Q32.3787288,2.6420683 32.3338571,2.684261 Q32.2836276,2.7311419 32.2156503,2.7535777 Q32.1476731,2.7760136 32.0666362,2.7760136 Q31.9835901,2.7760136 31.9032229,2.7562566 Q31.8228557,2.7364997 31.7712868,2.7130593 L31.7712868,2.5730864 L31.7813327,2.5730864 Q31.8382594,2.6105911 31.915278,2.635371 Q31.9922965,2.6601509 32.0639573,2.6601509 Q32.10615,2.6601509 32.1537006,2.6460866 Q32.2012512,2.6320224 32.2307192,2.6045636 Q32.2615266,2.5750956 32.2765955,2.5396001 Q32.2916643,2.5041046 32.2916643,2.4498567 Q32.2916643,2.3962786 32.2745863,2.361118 Q32.2575083,2.3259573 32.2273706,2.3058655 Q32.1972329,2.285104 32.1543704,2.2774021 Q32.1115079,2.2697003 32.0619481,2.2697003 L32.0016727,2.2697003 L32.0016727,2.1585257 L32.0485536,2.1585257 Q32.150352,2.1585257 32.2109623,2.115998 Q32.2715725,2.0734704 32.2715725,1.9917638 Q32.2715725,1.9555985 32.2561688,1.9284746 Q32.2407651,1.9013507 32.2133063,1.8839378 Q32.1845081,1.8665249 32.1516915,1.8598276 Q32.1188749,1.8531304 32.0773518,1.8531304 Q32.0137278,1.8531304 31.942067,1.8759011 Q31.8704063,1.8986718 31.8067823,1.9401948 L31.800085,1.9401948 L31.800085,1.800222 Q31.8476356,1.7767815 31.9269982,1.7570246 Q32.0063608,1.7372677 32.0807004,1.7372677 Q32.1537006,1.7372677 32.2092879,1.7506622 Q32.2648752,1.7640567 32.3097469,1.7935247 Q32.3579672,1.8256716 32.3827471,1.871213 Q32.407527,1.9167544 32.407527,1.9776995 Q32.407527,2.0607456 32.3489259,2.1226953 Q32.2903249,2.184645 32.2106274,2.2007185 L32.2106274,2.2100946 Q32.2427743,2.2154524 32.2842973,2.2325305 Q32.3258204,2.2496085 32.3546186,2.2750581 Z" style="fill:rgb(68,68,68);stroke:none" />
<path d="M21.2391538,5.8653197 Q21.340729,5.9769408 21.3948652,6.1387914 Q21.4490015,6.300642 21.4490015,6.5060248 Q21.4490015,6.7114076 21.393749,6.8738163 Q21.3384966,7.036225 21.2391538,7.1444975 Q21.1364624,7.2572348 20.9963779,7.3141615 Q20.8562935,7.3710883 20.6765835,7.3710883 Q20.5013384,7.3710883 20.3579053,7.3130453 Q20.2144722,7.2550024 20.1140132,7.1444975 Q20.0135542,7.0339926 19.959418,6.8732582 Q19.9052818,6.7125238 19.9052818,6.5060248 Q19.9052818,6.3028744 19.9588599,6.141582 Q20.012438,5.9802895 20.1151294,5.8653197 Q20.213356,5.7559311 20.3590215,5.6978881 Q20.504687,5.6398451 20.6765835,5.6398451 Q20.8551773,5.6398451 20.9974942,5.6984462 Q21.139811,5.7570473 21.2391538,5.8653197 Z M21.219062,6.5060248 Q21.219062,6.1823237 21.0739546,6.0065204 Q20.9288472,5.8307172 20.6776997,5.8307172 Q20.4243198,5.8307172 20.2797705,6.0065204 Q20.1352212,6.1823237 20.1352212,6.5060248 Q20.1352212,6.8330746 20.282561,7.0066454 Q20.4299009,7.1802162 20.6776997,7.1802162 Q20.9254985,7.1802162 21.0722803,7.0066454 Q21.219062,6.8330746 21.219062,6.5060248 Z" style="fill:rgb(68,68,68);stroke:none" />
<path d="M32.7495651,19.0276525 Q32.6881735,19.0544415 32.6385022,19.077882 Q32.5888308,19.1013224 32.5084636,19.1269952 Q32.4403747,19.1482032 32.3605656,19.1632721 Q32.2807565,19.1783409 32.1847624,19.1783409 Q32.0039362,19.1783409 31.8560383,19.1275533 Q31.7081403,19.0767657 31.5987517,18.9684933 Q31.4915954,18.8624532 31.43132,18.6989283 Q31.3710446,18.5354034 31.3710446,18.3188585 Q31.3710446,18.1134757 31.4290876,17.9516251 Q31.4871306,17.7897745 31.5965192,17.6781534 Q31.7025593,17.569881 31.8526897,17.5129542 Q32.00282,17.4560275 32.1858786,17.4560275 Q32.3198239,17.4560275 32.4532111,17.4883976 Q32.5865983,17.5207677 32.7495651,17.6022511 L32.7495651,17.8645607 L32.732822,17.8645607 Q32.595528,17.7495909 32.4604665,17.697129 Q32.325405,17.6446671 32.1713679,17.6446671 Q32.045236,17.6446671 31.9442189,17.6854088 Q31.8432019,17.7261505 31.7639509,17.8120987 Q31.6869323,17.8958146 31.6439582,18.0236207 Q31.6009841,18.1514269 31.6009841,18.3188585 Q31.6009841,18.4941036 31.6484231,18.6202355 Q31.695862,18.7463673 31.7706481,18.8256183 Q31.8487829,18.9082179 31.9531486,18.9478434 Q32.0575144,18.9874689 32.1736003,18.9874689 Q32.3332185,18.9874689 32.4727448,18.9327745 Q32.6122712,18.8780802 32.7339382,18.7686915 L32.7495651,18.7686915 Z" style="fill:rgb(68,68,68);stroke:none" />
<path d="M34.211634,19.1482032 L33.9906243,19.1482032 L33.9906243,18.3344855 L33.1612795,18.3344855 L33.1612795,19.1482032 L32.9402698,19.1482032 L32.9402698,17.4861652 L33.1612795,17.4861652 L33.1612795,18.1380323 L33.9906243,18.1380323 L33.9906243,17.4861652 L34.211634,17.4861652 Z" style="fill:rgb(68,68,68);stroke:none" />
<path d="M34.9856705,19.1666207 Q35.0178174,19.195419 35.0385789,19.2389512 Q35.0593404,19.2824834 35.0593404,19.3514653 Q35.0593404,19.4197774 35.0345606,19.4767041 Q35.0097807,19.5336309 34.964909,19.5758237 Q34.9146795,19.6227045 34.8467023,19.6451404 Q34.778725,19.6675762 34.6976881,19.6675762 Q34.614642,19.6675762 34.5342748,19.6478193 Q34.4539076,19.6280623 34.4023387,19.6046219 L34.4023387,19.464649 L34.4123846,19.464649 Q34.4693113,19.5021537 34.5463299,19.5269336 Q34.6233484,19.5517135 34.6950092,19.5517135 Q34.737202,19.5517135 34.7847525,19.5376492 Q34.8323031,19.523585 34.8617711,19.4961262 Q34.8925785,19.4666582 34.9076474,19.4311627 Q34.9227162,19.3956672 34.9227162,19.3414194 Q34.9227162,19.2878412 34.9056382,19.2526806 Q34.8885602,19.2175199 34.8584225,19.1974281 Q34.8282848,19.1766666 34.7854223,19.1689648 Q34.7425598,19.1612629 34.693,19.1612629 L34.6327246,19.1612629 L34.6327246,19.0500883 L34.6796055,19.0500883 Q34.7814039,19.0500883 34.8420142,19.0075607 Q34.9026244,18.965033 34.9026244,18.8833264 Q34.9026244,18.8471612 34.8872207,18.8200372 Q34.871817,18.7929133 34.8443582,18.7755004 Q34.81556,18.7580875 34.7827434,18.7513903 Q34.7499268,18.744693 34.7084037,18.744693 Q34.6447797,18.744693 34.5731189,18.7674637 Q34.5014582,18.7902344 34.4378342,18.8317574 L34.4311369,18.8317574 L34.4311369,18.6917846 Q34.4786875,18.6683442 34.5580501,18.6485872 Q34.6374127,18.6288303 34.7117523,18.6288303 Q34.7847525,18.6288303 34.8403398,18.6422248 Q34.8959272,18.6556194 34.9407988,18.6850873 Q34.9890191,18.7172342 35.013799,18.7627756 Q35.0385789,18.808317 35.0385789,18.8692621 Q35.0385789,18.9523082 34.9799778,19.0142579 Q34.9213768,19.0762076 34.8416793,19.0922811 L34.8416793,19.1016572 Q34.8738262,19.1070151 34.9153492,19.1240931 Q34.9568723,19.1411711 34.9856705,19.1666207 Z" style="fill:rgb(68,68,68);stroke:none" />
</svg>
