<?xml version="1.0" encoding="UTF-8"?>
<!DOCTYPE svg PUBLIC "-//W3C//DTD SVG 1.1//EN" "http://www.w3.org/Graphics/SVG/1.1/DTD/svg11.dtd">
<svg version="1.2" xmlns="http://www.w3.org/2000/svg" xmlns:xlink="http://www.w3.org/1999/xlink" x="0mm" y="0mm" width="52.1310211mm" height="49.5256889mm" viewBox="0 0 52.1310211 49.5256889">
<style type="text/css"><![CDATA[
text { font:12px Dialog; }
]]></style>
<line x1="9.5091935" y1="25.4175907" x2="13.9794572" y2="22.979265" style="fill:none;stroke:rgb(68,68,68);stroke-width:0.1942207;stroke-linecap:round;stroke-linejoin:round" />
<line x1="13.9794572" y1="32.9357615" x2="13.9794572" y2="38.2188004" style="fill:none;stroke:rgb(68,68,68);stroke-width:0.1942207;stroke-linecap:round;stroke-linejoin:round" />
<line x1="18.4497209" y1="40.6571261" x2="13.9794572" y2="38.2188004" style="fill:none;stroke:rgb(68,68,68);stroke-width:0.1942207;stroke-linecap:round;stroke-linejoin:round" />
<path d="M14.0765676,38.2188004 L13.8823469,38.2188004 L13.5166634,42.0445825 L13.9794572,42.0445825 L14.442251,42.0445825 Z" style="fill:rgb(68,68,68);stroke:none" />
<line x1="10.4850884" y1="40.1248198" x2="13.9794572" y2="38.2188004" style="fill:none;stroke:rgb(68,68,68);stroke-width:0.1942207;stroke-linecap:round;stroke-linejoin:round" />
<line x1="5.2421236" y1="38.2188004" x2="8.5379241" y2="40.102115" style="fill:none;stroke:rgb(68,68,68);stroke-width:0.1942207;stroke-linecap:round;stroke-linejoin:round" />
<line x1="40.3946519" y1="22.979265" x2="35.9243882" y2="25.4175907" style="fill:none;stroke:rgb(68,68,68);stroke-width:0.1942207;stroke-linecap:round;stroke-linejoin:round" />
<line x1="40.3842842" y1="24.0265018" x2="36.8387882" y2="25.9604088" style="fill:none;stroke:rgb(68,68,68);stroke-width:0.1942207;stroke-linecap:round;stroke-linejoin:round" />
<line x1="35.9243882" y1="30.4974358" x2="35.9243882" y2="25.4175907" style="fill:none;stroke:rgb(68,68,68);stroke-width:0.1942207;stroke-linecap:round;stroke-linejoin:round" />
<line x1="5.2421236" y1="34.1898244" x2="5.2421236" y2="38.2188004" style="fill:none;stroke:rgb(68,68,68);stroke-width:0.1942207;stroke-linecap:round;stroke-linejoin:round" />
<line x1="1.6046451" y1="39.6820887" x2="5.2421236" y2="37.6980095" style="fill:none;stroke:rgb(68,68,68);stroke-width:0.1942207;stroke-linecap:round;stroke-linejoin:round" />
<line x1="2.0425075" y1="40.4848364" x2="5.7084131" y2="38.4852515" style="fill:none;stroke:rgb(68,68,68);stroke-width:0.1942207;stroke-linecap:round;stroke-linejoin:round" />
<line x1="9.5091935" y1="25.4175907" x2="9.5091935" y2="30.4974358" style="fill:none;stroke:rgb(68,68,68);stroke-width:0.1942207;stroke-linecap:round;stroke-linejoin:round" />
<line x1="13.9794572" y1="32.9357615" x2="9.5091935" y2="30.4974358" style="fill:none;stroke:rgb(68,68,68);stroke-width:0.1942207;stroke-linecap:round;stroke-linejoin:round" />
<line x1="6.2849069" y1="32.3398853" x2="9.5091935" y2="30.4974358" style="fill:none;stroke:rgb(68,68,68);stroke-width:0.1942207;stroke-linecap:round;stroke-linejoin:round" />
<path d="M9.458079,30.5800053 L9.560308,30.4148662 L6.4569154,28.0519331 L6.2080839,28.4538918 L5.9592524,28.8558504 Z" style="fill:rgb(68,68,68);stroke:none" />
<path d="M9.458079,25.5001602 L9.560308,25.3350211 L6.5072846,23.0104392 L6.261662,23.407214 L6.0160395,23.8039889 Z" style="fill:rgb(68,68,68);stroke:none" />
<line x1="44.6617218" y1="25.4175907" x2="40.3946519" y2="22.979265" style="fill:none;stroke:rgb(68,68,68);stroke-width:0.1942207;stroke-linecap:round;stroke-linejoin:round" />
<line x1="40.3946519" y1="19.149018" x2="40.3946519" y2="22.979265" style="fill:none;stroke:rgb(68,68,68);stroke-width:0.1942207;stroke-linecap:round;stroke-linejoin:round" />
<line x1="48.0956621" y1="23.3884441" x2="44.6617218" y2="25.4175907" style="fill:none;stroke:rgb(68,68,68);stroke-width:0.1942207;stroke-linecap:round;stroke-linejoin:round" />
<line x1="44.6617218" y1="30.4974358" x2="44.6617218" y2="25.4175907" style="fill:none;stroke:rgb(68,68,68);stroke-width:0.1942207;stroke-linecap:round;stroke-linejoin:round" />
<line x1="43.7473218" y1="29.9667889" x2="43.7473218" y2="25.9482376" style="fill:none;stroke:rgb(68,68,68);stroke-width:0.1942207;stroke-linecap:round;stroke-linejoin:round" />
<line x1="35.9243882" y1="30.4974358" x2="40.3946519" y2="32.9357615" style="fill:none;stroke:rgb(68,68,68);stroke-width:0.1942207;stroke-linecap:round;stroke-linejoin:round" />
<line x1="36.8387882" y1="29.9546177" x2="40.3842842" y2="31.8885246" style="fill:none;stroke:rgb(68,68,68);stroke-width:0.1942207;stroke-linecap:round;stroke-linejoin:round" />
<line x1="44.6617218" y1="30.4974358" x2="40.3946519" y2="32.9357615" style="fill:none;stroke:rgb(68,68,68);stroke-width:0.1942207;stroke-linecap:round;stroke-linejoin:round" />
<line x1="40.3946519" y1="38.2188004" x2="40.3946519" y2="32.9357615" style="fill:none;stroke:rgb(68,68,68);stroke-width:0.1942207;stroke-linecap:round;stroke-linejoin:round" />
<line x1="22.7167908" y1="38.2188004" x2="18.4497209" y2="40.6571261" style="fill:none;stroke:rgb(68,68,68);stroke-width:0.1942207;stroke-linecap:round;stroke-linejoin:round" />
<path d="M18.5468313,40.6571261 L18.3526106,40.6571261 L17.9869271,44.4829082 L18.4497209,44.4829082 L18.9125147,44.4829082 Z" style="fill:rgb(68,68,68);stroke:none" />
<line x1="27.1870546" y1="40.6571261" x2="22.7167908" y2="38.2188004" style="fill:none;stroke:rgb(68,68,68);stroke-width:0.1942207;stroke-linecap:round;stroke-linejoin:round" />
<line x1="27.1766869" y1="39.6098892" x2="23.6028833" y2="37.6605418" style="fill:none;stroke:rgb(68,68,68);stroke-width:0.1942207;stroke-linecap:round;stroke-linejoin:round" />
<line x1="31.4541245" y1="38.2188004" x2="27.1870546" y2="40.6571261" style="fill:none;stroke:rgb(68,68,68);stroke-width:0.1942207;stroke-linecap:round;stroke-linejoin:round" />
<line x1="40.3946519" y1="38.2188004" x2="35.9243882" y2="40.6571261" style="fill:none;stroke:rgb(68,68,68);stroke-width:0.1942207;stroke-linecap:round;stroke-linejoin:round" />
<line x1="35.9243882" y1="44.4873731" x2="35.9243882" y2="40.6571261" style="fill:none;stroke:rgb(68,68,68);stroke-width:0.1942207;stroke-linecap:round;stroke-linejoin:round" />
<line x1="35.9243882" y1="40.6571261" x2="31.4541245" y2="38.2188004" style="fill:none;stroke:rgb(68,68,68);stroke-width:0.1942207;stroke-linecap:round;stroke-linejoin:round" />
<line x1="35.9243882" y1="39.6155443" x2="32.3402169" y2="37.6605418" style="fill:none;stroke:rgb(68,68,68);stroke-width:0.1942207;stroke-linecap:round;stroke-linejoin:round" />
<line x1="49.1319855" y1="19.1595813" x2="49.1319855" y2="21.5220082" style="fill:none;stroke:rgb(68,68,68);stroke-width:0.1942207;stroke-linecap:round;stroke-linejoin:round" />
<line x1="21.7468645" y1="47.6210532" x2="19.4918718" y2="46.332486" style="fill:none;stroke:rgb(68,68,68);stroke-width:0.1942207;stroke-linecap:round;stroke-linejoin:round" />
<line x1="35.9243882" y1="25.4175907" x2="32.4698453" y2="23.4025608" style="fill:none;stroke:rgb(68,68,68);stroke-width:0.1942207;stroke-linecap:round;stroke-linejoin:round" />
<line x1="30.5287688" y1="23.3904085" x2="27.094078" y2="25.3467807" style="fill:none;stroke:rgb(68,68,68);stroke-width:0.1942207;stroke-linecap:round;stroke-linejoin:round" />
<line x1="27.551278" y1="25.0863633" x2="27.551278" y2="29.1725628" style="fill:none;stroke:rgb(68,68,68);stroke-width:0.1942207;stroke-linecap:round;stroke-linejoin:round" />
<line x1="26.636878" y1="25.0863996" x2="26.636878" y2="29.1725628" style="fill:none;stroke:rgb(68,68,68);stroke-width:0.1942207;stroke-linecap:round;stroke-linejoin:round" />
<line x1="27.094078" y1="25.3467807" x2="22.6872354" y2="22.8370293" style="fill:none;stroke:rgb(68,68,68);stroke-width:0.1942207;stroke-linecap:round;stroke-linejoin:round" />
<line x1="15.3420872" y1="18.0022482" x2="21.3412304" y2="18.0022482" style="fill:none;stroke:rgb(68,68,68);stroke-width:0.1942207;stroke-linecap:round;stroke-linejoin:round" />
<line x1="22.6872354" y1="22.8370293" x2="21.3412304" y2="18.0022482" style="fill:none;stroke:rgb(68,68,68);stroke-width:0.1942207;stroke-linecap:round;stroke-linejoin:round" />
<path d="M13.91042,23.0475606 L14.0484944,22.9109694 L11.5509318,19.8612082 L11.2193705,20.1892079 L10.8878093,20.5172076 Z" style="fill:rgb(68,68,68);stroke:none" />
<line x1="15.3420872" y1="18.0022482" x2="13.9794572" y2="22.979265" style="fill:none;stroke:rgb(68,68,68);stroke-width:0.1942207;stroke-linecap:round;stroke-linejoin:round" />
<path d="M15.3667099,18.0961852 L15.3174645,17.9083113 L11.3784679,18.5542417 L11.4979002,19.0098833 L11.6173326,19.4655249 Z" style="fill:rgb(68,68,68);stroke:none" />
<line x1="15.3420872" y1="18.0022482" x2="13.4371452" y2="14.7351335" style="fill:none;stroke:rgb(68,68,68);stroke-width:0.1942207;stroke-linecap:round;stroke-linejoin:round" />
<line x1="13.9794572" y1="22.979265" x2="16.6956599" y2="25.6682688" style="fill:none;stroke:rgb(68,68,68);stroke-width:0.1942207;stroke-linecap:round;stroke-linejoin:round" />
<line x1="37.6971002" y1="5.9454667" x2="41.1285943" y2="7.9265602" style="fill:none;stroke:rgb(68,68,68);stroke-width:0.1942207;stroke-linecap:round;stroke-linejoin:round" />
<line x1="34.2680578" y1="7.9251448" x2="37.6971002" y2="5.9454667" style="fill:none;stroke:rgb(68,68,68);stroke-width:0.1942207;stroke-linecap:round;stroke-linejoin:round" />
<line x1="28.8988084" y1="5.9454667" x2="32.3272469" y2="7.9250732" style="fill:none;stroke:rgb(68,68,68);stroke-width:0.1942207;stroke-linecap:round;stroke-linejoin:round" />
<line x1="24.4993547" y1="8.4853893" x2="28.8988084" y2="5.9454667" style="fill:none;stroke:rgb(68,68,68);stroke-width:0.1942207;stroke-linecap:round;stroke-linejoin:round" />
<line x1="37.2406649" y1="6.2089791" x2="37.2287726" y2="2.121013" style="fill:none;stroke:rgb(68,68,68);stroke-width:0.1942207;stroke-linecap:round;stroke-linejoin:round" />
<line x1="38.1550713" y1="6.2098657" x2="38.1431687" y2="2.1183529" style="fill:none;stroke:rgb(68,68,68);stroke-width:0.1942207;stroke-linecap:round;stroke-linejoin:round" />
<line x1="33.2925042" y1="9.7048463" x2="33.281365" y2="12.3464267" style="fill:none;stroke:rgb(68,68,68);stroke-width:0.1942207;stroke-linecap:round;stroke-linejoin:round" />
<line x1="28.8016997" y1="5.9460317" x2="28.9959171" y2="5.9449017" style="fill:none;stroke:rgb(68,68,68);stroke-width:0.1942207;stroke-linecap:round;stroke-linejoin:round" />
<line x1="28.7158499" y1="5.0998617" x2="29.0719152" y2="5.09779" style="fill:none;stroke:rgb(68,68,68);stroke-width:0.1942207;stroke-linecap:round;stroke-linejoin:round" />
<line x1="28.6300001" y1="4.2536917" x2="29.1479132" y2="4.2506783" style="fill:none;stroke:rgb(68,68,68);stroke-width:0.1942207;stroke-linecap:round;stroke-linejoin:round" />
<line x1="28.5441502" y1="3.4075216" x2="29.2239112" y2="3.4035667" style="fill:none;stroke:rgb(68,68,68);stroke-width:0.1942207;stroke-linecap:round;stroke-linejoin:round" />
<line x1="28.4583004" y1="2.5613516" x2="29.2999092" y2="2.556455" style="fill:none;stroke:rgb(68,68,68);stroke-width:0.1942207;stroke-linecap:round;stroke-linejoin:round" />
<line x1="24.4993547" y1="8.4853893" x2="24.5179406" y2="12.3419629" style="fill:none;stroke:rgb(68,68,68);stroke-width:0.1942207;stroke-linecap:round;stroke-linejoin:round" />
<line x1="24.5019085" y1="9.0153132" x2="20.9272004" y2="6.943419" style="fill:none;stroke:rgb(68,68,68);stroke-width:0.1942207;stroke-linecap:round;stroke-linejoin:round" />
<line x1="24.9561204" y1="8.2216862" x2="21.3857335" y2="6.1522965" style="fill:none;stroke:rgb(68,68,68);stroke-width:0.1942207;stroke-linecap:round;stroke-linejoin:round" />
<path d="M21.2625091,17.9453854 L21.4199516,18.0591111 L24.1715398,14.8877845 L23.7899847,14.6121754 L23.4084296,14.3365664 Z" style="fill:rgb(68,68,68);stroke:none" />
<line x1="31.5003049" y1="21.6175689" x2="31.5003049" y2="19.0173456" style="fill:none;stroke:rgb(68,68,68);stroke-width:0.1942207;stroke-linecap:round;stroke-linejoin:round" />
<path d="M10.1432013,41.4881451 L9.8697296,41.4881451 L9.0816847,40.0013521 L9.0816847,41.4881451 L8.8751857,41.4881451 L8.8751857,39.826107 L9.2178624,39.826107 L9.9367023,41.1834195 L9.9367023,39.826107 L10.1432013,39.826107 Z" style="fill:rgb(68,68,68);stroke:none" />
<path d="M10.1465499,43.3408878 L9.9255402,43.3408878 L9.9255402,42.5271701 L9.0961954,42.5271701 L9.0961954,43.3408878 L8.8751857,43.3408878 L8.8751857,41.6788497 L9.0961954,41.6788497 L9.0961954,42.3307169 L9.9255402,42.3307169 L9.9255402,41.6788497 L10.1465499,41.6788497 Z" style="fill:rgb(68,68,68);stroke:none" />
<path d="M5.8041358,32.2956145 Q5.905711,32.4072356 5.9598472,32.5690862 Q6.0139834,32.7309368 6.0139834,32.9363196 Q6.0139834,33.1417024 5.958731,33.3041111 Q5.9034786,33.4665198 5.8041358,33.5747922 Q5.7014444,33.6875295 5.5613599,33.7444563 Q5.4212754,33.801383 5.2415655,33.801383 Q5.0663204,33.801383 4.9228873,33.7433401 Q4.7794541,33.6852971 4.6789952,33.5747922 Q4.5785362,33.4642873 4.5243999,33.303553 Q4.4702637,33.1428186 4.4702637,32.9363196 Q4.4702637,32.7331692 4.5238418,32.5718767 Q4.57742,32.4105842 4.6801114,32.2956145 Q4.7783379,32.1862258 4.9240035,32.1281828 Q5.069669,32.0701399 5.2415655,32.0701399 Q5.4201592,32.0701399 5.5624761,32.128741 Q5.704793,32.187342 5.8041358,32.2956145 Z M5.784044,32.9363196 Q5.784044,32.6126184 5.6389366,32.4368152 Q5.4938291,32.2610119 5.2426817,32.2610119 Q4.9893018,32.2610119 4.8447525,32.4368152 Q4.7002032,32.6126184 4.7002032,32.9363196 Q4.7002032,33.2633694 4.847543,33.4369402 Q4.9948829,33.610511 5.2426817,33.610511 Q5.4904805,33.610511 5.6372623,33.4369402 Q5.784044,33.2633694 5.784044,32.9363196 Z" style="fill:rgb(68,68,68);stroke:none" />
<path d="M1.3338721,40.0169791 Q1.4354473,40.1286002 1.4895835,40.2904508 Q1.5437197,40.4523014 1.5437197,40.6576842 Q1.5437197,40.863067 1.4884673,41.0254757 Q1.4332148,41.1878844 1.3338721,41.2961568 Q1.2311807,41.4088941 1.0910962,41.4658209 Q0.9510117,41.5227476 0.7713018,41.5227476 Q0.5960566,41.5227476 0.4526235,41.4647047 Q0.3091904,41.4066617 0.2087314,41.2961568 Q0.1082725,41.1856519 0.0541362,41.0249176 Q0,40.8641832 0,40.6576842 Q0,40.4545338 0.0535781,40.2932413 Q0.1071563,40.1319488 0.2098477,40.0169791 Q0.3080742,39.9075904 0.4537397,39.8495475 Q0.5994053,39.7915045 0.7713018,39.7915045 Q0.9498955,39.7915045 1.0922124,39.8501056 Q1.2345293,39.9087066 1.3338721,40.0169791 Z M1.3137803,40.6576842 Q1.3137803,40.333983 1.1686729,40.1581798 Q1.0235654,39.9823766 0.772418,39.9823766 Q0.5190381,39.9823766 0.3744888,40.1581798 Q0.2299395,40.333983 0.2299395,40.6576842 Q0.2299395,40.984734 0.3772793,41.1583048 Q0.5246191,41.3318756 0.772418,41.3318756 Q1.0202168,41.3318756 1.1669985,41.1583048 Q1.3137803,40.984734 1.3137803,40.6576842 Z" style="fill:rgb(68,68,68);stroke:none" />
<path d="M14.5414694,42.6584986 Q14.6430446,42.7701197 14.6971808,42.9319702 Q14.7513171,43.0938208 14.7513171,43.2992036 Q14.7513171,43.5045865 14.6960646,43.6669951 Q14.6408122,43.8294038 14.5414694,43.9376763 Q14.438778,44.0504136 14.2986935,44.1073404 Q14.1586091,44.1642671 13.9788991,44.1642671 Q13.803654,44.1642671 13.6602209,44.1062241 Q13.5167878,44.0481812 13.4163288,43.9376763 Q13.3158698,43.8271714 13.2617336,43.666437 Q13.2075974,43.5057027 13.2075974,43.2992036 Q13.2075974,43.0960533 13.2611755,42.9347608 Q13.3147536,42.7734683 13.417445,42.6584986 Q13.5156716,42.5491099 13.6613371,42.4910669 Q13.8070026,42.433024 13.9788991,42.433024 Q14.1574929,42.433024 14.2998098,42.491625 Q14.4421266,42.5502261 14.5414694,42.6584986 Z M14.5213776,43.2992036 Q14.5213776,42.9755025 14.3762702,42.7996992 Q14.2311628,42.623896 13.9800153,42.623896 Q13.7266354,42.623896 13.5820861,42.7996992 Q13.4375368,42.9755025 13.4375368,43.2992036 Q13.4375368,43.6262534 13.5848766,43.7998242 Q13.7322165,43.973395 13.9800153,43.973395 Q14.2278141,43.973395 14.3745959,43.7998242 Q14.5213776,43.6262534 14.5213776,43.2992036 Z" style="fill:rgb(68,68,68);stroke:none" />
<path d="M16.213386,44.1296646 L15.9923762,44.1296646 L15.9923762,43.3159468 L15.1630315,43.3159468 L15.1630315,44.1296646 L14.9420217,44.1296646 L14.9420217,42.4676265 L15.1630315,42.4676265 L15.1630315,43.1194937 L15.9923762,43.1194937 L15.9923762,42.4676265 L16.213386,42.4676265 Z" style="fill:rgb(68,68,68);stroke:none" />
<path d="M41.0839122,18.6098881 Q41.0225206,18.6366772 40.9728492,18.6601176 Q40.9231778,18.683558 40.8428106,18.7092309 Q40.7747217,18.7304389 40.6949127,18.7455078 Q40.6151036,18.7605766 40.5191094,18.7605766 Q40.3382833,18.7605766 40.1903853,18.709789 Q40.0424874,18.6590014 39.9330987,18.5507289 Q39.8259424,18.4446889 39.7656671,18.281164 Q39.7053917,18.1176391 39.7053917,17.9010942 Q39.7053917,17.6957114 39.7634346,17.5338608 Q39.8214776,17.3720102 39.9308663,17.2603891 Q40.0369063,17.1521166 40.1870367,17.0951899 Q40.3371671,17.0382631 40.5202256,17.0382631 Q40.654171,17.0382631 40.7875582,17.0706332 Q40.9209454,17.1030034 41.0839122,17.1844868 L41.0839122,17.4467963 L41.067169,17.4467963 Q40.9298751,17.3318266 40.7948135,17.2793647 Q40.659752,17.2269028 40.5057149,17.2269028 Q40.3795831,17.2269028 40.278566,17.2676445 Q40.1775489,17.3083862 40.0982979,17.3943344 Q40.0212794,17.4780502 39.9783052,17.6058564 Q39.9353311,17.7336625 39.9353311,17.9010942 Q39.9353311,18.0763393 39.9827701,18.2024711 Q40.030209,18.328603 40.1049952,18.4078539 Q40.1831299,18.4904536 40.2874957,18.530079 Q40.3918614,18.5697045 40.5079473,18.5697045 Q40.6675655,18.5697045 40.8070919,18.5150102 Q40.9466182,18.4603159 41.0682852,18.3509272 L41.0839122,18.3509272 Z M41.5917881,18.7304389 L41.3819405,18.7304389 L41.3819405,16.9936147 L41.5917881,16.9936147 Z" style="fill:rgb(68,68,68);stroke:none" />
<path d="M49.6939978,22.1359242 Q49.7955729,22.2475453 49.8497092,22.4093959 Q49.9038454,22.5712465 49.9038454,22.7766293 Q49.9038454,22.9820121 49.848593,23.1444208 Q49.7933405,23.3068295 49.6939978,23.415102 Q49.5913063,23.5278393 49.4512219,23.584766 Q49.3111374,23.6416928 49.1314274,23.6416928 Q48.9561823,23.6416928 48.8127492,23.5836498 Q48.6693161,23.5256068 48.5688571,23.415102 Q48.4683981,23.3045971 48.4142619,23.1438627 Q48.3601257,22.9831283 48.3601257,22.7766293 Q48.3601257,22.5734789 48.4137038,22.4121864 Q48.4672819,22.2508939 48.5699733,22.1359242 Q48.6681999,22.0265355 48.8138654,21.9684926 Q48.959531,21.9104496 49.1314274,21.9104496 Q49.3100212,21.9104496 49.4523381,21.9690507 Q49.594655,22.0276518 49.6939978,22.1359242 Z M49.673906,22.7766293 Q49.673906,22.4529281 49.5287985,22.2771249 Q49.3836911,22.1013217 49.1325437,22.1013217 Q48.8791638,22.1013217 48.7346145,22.2771249 Q48.5900651,22.4529281 48.5900651,22.7766293 Q48.5900651,23.1036791 48.737405,23.2772499 Q48.8847448,23.4508207 49.1325437,23.4508207 Q49.3803425,23.4508207 49.5271242,23.2772499 Q49.673906,23.1036791 49.673906,22.7766293 Z" style="fill:rgb(68,68,68);stroke:none" />
<path d="M5.9313838,23.4865395 Q5.8699922,23.5133285 5.8203208,23.5367689 Q5.7706495,23.5602094 5.6902823,23.5858822 Q5.6221934,23.6070902 5.5423843,23.6221591 Q5.4625752,23.6372279 5.3665811,23.6372279 Q5.1857549,23.6372279 5.037857,23.5864403 Q4.889959,23.5356527 4.7805704,23.4273803 Q4.6734141,23.3213402 4.6131387,23.1578153 Q4.5528633,22.9942904 4.5528633,22.7777455 Q4.5528633,22.5723627 4.6109063,22.4105121 Q4.6689493,22.2486615 4.7783379,22.1370404 Q4.884378,22.028768 5.0345083,21.9718412 Q5.1846387,21.9149145 5.3676973,21.9149145 Q5.5016426,21.9149145 5.6350298,21.9472846 Q5.768417,21.9796547 5.9313838,22.0611381 L5.9313838,22.3234477 L5.9146407,22.3234477 Q5.7773467,22.2084779 5.6422852,22.156016 Q5.5072237,22.1035541 5.3531866,22.1035541 Q5.2270547,22.1035541 5.1260376,22.1442958 Q5.0250206,22.1850375 4.9457696,22.2709857 Q4.868751,22.3547016 4.8257769,22.4825077 Q4.7828028,22.6103139 4.7828028,22.7777455 Q4.7828028,22.9529906 4.8302417,23.0791225 Q4.8776807,23.2052543 4.9524668,23.2845053 Q5.0306016,23.3671049 5.1349673,23.4067304 Q5.2393331,23.4463559 5.355419,23.4463559 Q5.5150372,23.4463559 5.6545635,23.3916615 Q5.7940899,23.3369672 5.9157569,23.2275785 L5.9313838,23.2275785 Z" style="fill:rgb(68,68,68);stroke:none" />
<path d="M3.5144523,23.6070902 L3.2934425,23.6070902 L3.2934425,22.7933725 L2.4640978,22.7933725 L2.4640978,23.6070902 L2.243088,23.6070902 L2.243088,21.9450521 L2.4640978,21.9450521 L2.4640978,22.5969193 L3.2934425,22.5969193 L3.2934425,21.9450521 L3.5144523,21.9450521 Z" style="fill:rgb(68,68,68);stroke:none" />
<path d="M4.2884888,23.6255077 Q4.3206356,23.654306 4.3413972,23.6978382 Q4.3621587,23.7413704 4.3621587,23.8103522 Q4.3621587,23.8786644 4.3373788,23.9355911 Q4.3125989,23.9925179 4.2677272,24.0347106 Q4.2174978,24.0815915 4.1495205,24.1040273 Q4.0815433,24.1264632 4.0005063,24.1264632 Q3.9174603,24.1264632 3.8370931,24.1067062 Q3.7567259,24.0869493 3.7051569,24.0635089 L3.7051569,23.923536 L3.7152028,23.923536 Q3.7721296,23.9610407 3.8491481,23.9858206 Q3.9261667,24.0106005 3.9978274,24.0106005 Q4.0400202,24.0106005 4.0875708,23.9965362 Q4.1351214,23.982472 4.1645894,23.9550132 Q4.1953968,23.9255452 4.2104656,23.8900497 Q4.2255345,23.8545542 4.2255345,23.8003063 Q4.2255345,23.7467282 4.2084564,23.7115676 Q4.1913784,23.6764069 4.1612407,23.6563151 Q4.131103,23.6355536 4.0882405,23.6278518 Q4.045378,23.6201499 3.9958183,23.6201499 L3.9355429,23.6201499 L3.9355429,23.5089753 L3.9824237,23.5089753 Q4.0842222,23.5089753 4.1448324,23.4664477 Q4.2054427,23.42392 4.2054427,23.3422134 Q4.2054427,23.3060481 4.190039,23.2789242 Q4.1746353,23.2518003 4.1471765,23.2343874 Q4.1183782,23.2169745 4.0855616,23.2102772 Q4.052745,23.20358 4.011222,23.20358 Q3.9475979,23.20358 3.8759372,23.2263507 Q3.8042765,23.2491214 3.7406524,23.2906444 L3.7339552,23.2906444 L3.7339552,23.1506716 Q3.7815058,23.1272312 3.8608684,23.1074742 Q3.940231,23.0877173 4.0145706,23.0877173 Q4.0875708,23.0877173 4.1431581,23.1011118 Q4.1987454,23.1145063 4.2436171,23.1439743 Q4.2918374,23.1761212 4.3166173,23.2216626 Q4.3413972,23.267204 4.3413972,23.3281491 Q4.3413972,23.4111952 4.2827961,23.4731449 Q4.224195,23.5350946 4.1444976,23.5511681 L4.1444976,23.5605442 Q4.1766444,23.5659021 4.2181675,23.5829801 Q4.2596905,23.6000581 4.2884888,23.6255077 Z" style="fill:rgb(68,68,68);stroke:none" />
<path d="M19.0117331,45.0968242 Q19.1133083,45.2084453 19.1674446,45.3702959 Q19.2215808,45.5321465 19.2215808,45.7375293 Q19.2215808,45.9429121 19.1663284,46.1053208 Q19.1110759,46.2677295 19.0117331,46.376002 Q18.9090417,46.4887393 18.7689573,46.545666 Q18.6288728,46.6025928 18.4491628,46.6025928 Q18.2739177,46.6025928 18.1304846,46.5445498 Q17.9870515,46.4865068 17.8865925,46.376002 Q17.7861335,46.2654971 17.7319973,46.1047627 Q17.6778611,45.9440283 17.6778611,45.7375293 Q17.6778611,45.5343789 17.7314392,45.3730864 Q17.7850173,45.211794 17.8877087,45.0968242 Q17.9859353,44.9874356 18.1316008,44.9293926 Q18.2772663,44.8713496 18.4491628,44.8713496 Q18.6277566,44.8713496 18.7700735,44.9299507 Q18.9123904,44.9885518 19.0117331,45.0968242 Z M18.9916413,45.7375293 Q18.9916413,45.4138281 18.8465339,45.2380249 Q18.7014265,45.0622217 18.450279,45.0622217 Q18.1968992,45.0622217 18.0523498,45.2380249 Q17.9078005,45.4138281 17.9078005,45.7375293 Q17.9078005,46.0645791 18.0551404,46.2381499 Q18.2024802,46.4117207 18.450279,46.4117207 Q18.6980779,46.4117207 18.8448596,46.2381499 Q18.9916413,46.0645791 18.9916413,45.7375293 Z" style="fill:rgb(68,68,68);stroke:none" />
<path d="M36.6136484,46.4474395 Q36.5522568,46.4742285 36.5025855,46.497669 Q36.4529141,46.5211094 36.3725469,46.5467822 Q36.304458,46.5679902 36.2246489,46.5830591 Q36.1448399,46.5981279 36.0488457,46.5981279 Q35.8680195,46.5981279 35.7201216,46.5473403 Q35.5722236,46.4965527 35.462835,46.3882803 Q35.3556787,46.2822402 35.2954033,46.1187153 Q35.2351279,45.9551904 35.2351279,45.7386455 Q35.2351279,45.5332627 35.2931709,45.3714121 Q35.3512139,45.2095615 35.4606026,45.0979404 Q35.5666426,44.989668 35.716773,44.9327412 Q35.8669033,44.8758145 36.0499619,44.8758145 Q36.1839072,44.8758145 36.3172944,44.9081846 Q36.4506817,44.9405547 36.6136484,45.0220381 L36.6136484,45.2843477 L36.5969053,45.2843477 Q36.4596113,45.1693779 36.3245498,45.116916 Q36.1894883,45.0644541 36.0354512,45.0644541 Q35.9093193,45.0644541 35.8083023,45.1051958 Q35.7072852,45.1459375 35.6280342,45.2318858 Q35.5510156,45.3156016 35.5080415,45.4434077 Q35.4650674,45.5712139 35.4650674,45.7386455 Q35.4650674,45.9138906 35.5125064,46.0400225 Q35.5599453,46.1661543 35.6347315,46.2454053 Q35.7128662,46.3280049 35.8172319,46.3676304 Q35.9215977,46.4072559 36.0376836,46.4072559 Q36.1973018,46.4072559 36.3368281,46.3525615 Q36.4763545,46.2978672 36.5980215,46.1884785 L36.6136484,46.1884785 Z" style="fill:rgb(68,68,68);stroke:none" />
<path d="M38.0757173,46.5679902 L37.8547076,46.5679902 L37.8547076,45.7542725 L37.0253629,45.7542725 L37.0253629,46.5679902 L36.8043531,46.5679902 L36.8043531,44.9059522 L37.0253629,44.9059522 L37.0253629,45.5578193 L37.8547076,45.5578193 L37.8547076,44.9059522 L38.0757173,44.9059522 Z" style="fill:rgb(68,68,68);stroke:none" />
<path d="M38.8497538,46.5864077 Q38.8819007,46.615206 38.9026622,46.6587382 Q38.9234237,46.7022704 38.9234237,46.7712523 Q38.9234237,46.8395644 38.8986439,46.8964911 Q38.873864,46.9534179 38.8289923,46.9956107 Q38.7787628,47.0424915 38.7107856,47.0649274 Q38.6428083,47.0873632 38.5617714,47.0873632 Q38.4787253,47.0873632 38.3983581,47.0676063 Q38.3179909,47.0478493 38.266422,47.0244089 L38.266422,46.884436 L38.2764679,46.884436 Q38.3333946,46.9219407 38.4104132,46.9467206 Q38.4874318,46.9715005 38.5590925,46.9715005 Q38.6012853,46.9715005 38.6488359,46.9574362 Q38.6963864,46.943372 38.7258544,46.9159132 Q38.7566618,46.8864452 38.7717307,46.8509497 Q38.7867995,46.8154542 38.7867995,46.7612064 Q38.7867995,46.7076282 38.7697215,46.6724676 Q38.7526435,46.6373069 38.7225058,46.6172151 Q38.6923681,46.5964536 38.6495056,46.5887518 Q38.6066431,46.5810499 38.5570833,46.5810499 L38.4968079,46.5810499 L38.4968079,46.4698753 L38.5436888,46.4698753 Q38.6454872,46.4698753 38.7060975,46.4273477 Q38.7667077,46.38482 38.7667077,46.3031134 Q38.7667077,46.2669482 38.751304,46.2398242 Q38.7359003,46.2127003 38.7084415,46.1952874 Q38.6796433,46.1778745 38.6468267,46.1711773 Q38.6140101,46.16448 38.572487,46.16448 Q38.508863,46.16448 38.4372023,46.1872507 Q38.3655415,46.2100214 38.3019175,46.2515444 L38.2952202,46.2515444 L38.2952202,46.1115716 Q38.3427708,46.0881312 38.4221334,46.0683742 Q38.501496,46.0486173 38.5758357,46.0486173 Q38.6488359,46.0486173 38.7044232,46.0620118 Q38.7600105,46.0754064 38.8048821,46.1048743 Q38.8531025,46.1370212 38.8778823,46.1825626 Q38.9026622,46.228104 38.9026622,46.2890491 Q38.9026622,46.3720952 38.8440611,46.4340449 Q38.7854601,46.4959946 38.7057626,46.5120681 L38.7057626,46.5214442 Q38.7379095,46.5268021 38.7794325,46.5438801 Q38.8209556,46.5609581 38.8497538,46.5864077 Z" style="fill:rgb(68,68,68);stroke:none" />
<path d="M49.8212458,18.6098881 Q49.7598542,18.6366772 49.7101828,18.6601176 Q49.6605114,18.683558 49.5801442,18.7092309 Q49.5120554,18.7304389 49.4322463,18.7455078 Q49.3524372,18.7605766 49.2564431,18.7605766 Q49.0756169,18.7605766 48.9277189,18.709789 Q48.779821,18.6590014 48.6704323,18.5507289 Q48.5632761,18.4446889 48.5030007,18.281164 Q48.4427253,18.1176391 48.4427253,17.9010942 Q48.4427253,17.6957114 48.5007683,17.5338608 Q48.5588112,17.3720102 48.6681999,17.2603891 Q48.7742399,17.1521166 48.9243703,17.0951899 Q49.0745007,17.0382631 49.2575593,17.0382631 Q49.3915046,17.0382631 49.5248918,17.0706332 Q49.658279,17.1030034 49.8212458,17.1844868 L49.8212458,17.4467963 L49.8045026,17.4467963 Q49.6672087,17.3318266 49.5321472,17.2793647 Q49.3970856,17.2269028 49.2430485,17.2269028 Q49.1169167,17.2269028 49.0158996,17.2676445 Q48.9148825,17.3083862 48.8356315,17.3943344 Q48.758613,17.4780502 48.7156389,17.6058564 Q48.6726647,17.7336625 48.6726647,17.9010942 Q48.6726647,18.0763393 48.7201037,18.2024711 Q48.7675427,18.328603 48.8423288,18.4078539 Q48.9204636,18.4904536 49.0248293,18.530079 Q49.129195,18.5697045 49.245281,18.5697045 Q49.4048991,18.5697045 49.5444255,18.5150102 Q49.6839519,18.4603159 49.8056188,18.3509272 L49.8212458,18.3509272 Z" style="fill:rgb(68,68,68);stroke:none" />
<path d="M51.2833147,18.7304389 L51.0623049,18.7304389 L51.0623049,17.9167211 L50.2329602,17.9167211 L50.2329602,18.7304389 L50.0119504,18.7304389 L50.0119504,17.0684008 L50.2329602,17.0684008 L50.2329602,17.720268 L51.0623049,17.720268 L51.0623049,17.0684008 L51.2833147,17.0684008 Z" style="fill:rgb(68,68,68);stroke:none" />
<path d="M52.0573512,18.7488564 Q52.089498,18.7776546 52.1102596,18.8211869 Q52.1310211,18.8647191 52.1310211,18.9337009 Q52.1310211,19.002013 52.1062412,19.0589398 Q52.0814613,19.1158665 52.0365896,19.1580593 Q51.9863602,19.2049402 51.9183829,19.227376 Q51.8504057,19.2498119 51.7693687,19.2498119 Q51.6863227,19.2498119 51.6059555,19.2300549 Q51.5255883,19.210298 51.4740193,19.1868576 L51.4740193,19.0468847 L51.4840652,19.0468847 Q51.540992,19.0843894 51.6180105,19.1091693 Q51.6950291,19.1339492 51.7666898,19.1339492 Q51.8088826,19.1339492 51.8564332,19.1198849 Q51.9039838,19.1058206 51.9334518,19.0783619 Q51.9642592,19.0488939 51.979328,19.0133984 Q51.9943969,18.9779029 51.9943969,18.923655 Q51.9943969,18.8700769 51.9773188,18.8349162 Q51.9602408,18.7997556 51.9301031,18.7796638 Q51.8999654,18.7589023 51.8571029,18.7512004 Q51.8142404,18.7434986 51.7646807,18.7434986 L51.7044053,18.7434986 L51.7044053,18.632324 L51.7512861,18.632324 Q51.8530846,18.632324 51.9136948,18.5897963 Q51.9743051,18.5472687 51.9743051,18.465562 Q51.9743051,18.4293968 51.9589014,18.4022729 Q51.9434977,18.375149 51.9160389,18.3577361 Q51.8872406,18.3403232 51.854424,18.3336259 Q51.8216074,18.3269287 51.7800844,18.3269287 Q51.7164604,18.3269287 51.6447996,18.3496994 Q51.5731389,18.3724701 51.5095148,18.4139931 L51.5028176,18.4139931 L51.5028176,18.2740203 Q51.5503682,18.2505798 51.6297308,18.2308229 Q51.7090934,18.211066 51.783433,18.211066 Q51.8564332,18.211066 51.9120205,18.2244605 Q51.9676078,18.237855 52.0124795,18.267323 Q52.0606998,18.2994699 52.0854797,18.3450113 Q52.1102596,18.3905527 52.1102596,18.4514978 Q52.1102596,18.5345439 52.0516585,18.5964936 Q51.9930574,18.6584433 51.91336,18.6745167 L51.91336,18.6838929 Q51.9455068,18.6892507 51.9870299,18.7063287 Q52.0285529,18.7234068 52.0573512,18.7488564 Z" style="fill:rgb(68,68,68);stroke:none" />
<path d="M23.4060511,48.8857651 Q23.3446595,48.9125542 23.2949881,48.9359946 Q23.2453167,48.959435 23.1649495,48.9851079 Q23.0968607,49.0063159 23.0170516,49.0213848 Q22.9372425,49.0364536 22.8412484,49.0364536 Q22.6604222,49.0364536 22.5125242,48.985666 Q22.3646263,48.9348784 22.2552376,48.8266059 Q22.1480814,48.7205659 22.087806,48.557041 Q22.0275306,48.3935161 22.0275306,48.1769712 Q22.0275306,47.9715884 22.0855736,47.8097378 Q22.1436165,47.6478872 22.2530052,47.5362661 Q22.3590452,47.4279936 22.5091756,47.3710669 Q22.659306,47.3141401 22.8423646,47.3141401 Q22.9763099,47.3141401 23.1096971,47.3465102 Q23.2430843,47.3788804 23.4060511,47.4603638 L23.4060511,47.7226733 L23.3893079,47.7226733 Q23.252014,47.6077036 23.1169525,47.5552417 Q22.9818909,47.5027798 22.8278538,47.5027798 Q22.701722,47.5027798 22.6007049,47.5435215 Q22.4996878,47.5842632 22.4204368,47.6702114 Q22.3434183,47.7539272 22.3004442,47.8817334 Q22.25747,48.0095395 22.25747,48.1769712 Q22.25747,48.3522163 22.304909,48.4783481 Q22.352348,48.60448 22.4271341,48.6837309 Q22.5052689,48.7663306 22.6096346,48.805956 Q22.7140003,48.8455815 22.8300863,48.8455815 Q22.9897044,48.8455815 23.1292308,48.7908872 Q23.2687572,48.7361929 23.3904241,48.6268042 L23.4060511,48.6268042 Z" style="fill:rgb(68,68,68);stroke:none" />
<path d="M24.86812,49.0063159 L24.6471102,49.0063159 L24.6471102,48.1925981 L23.8177655,48.1925981 L23.8177655,49.0063159 L23.5967557,49.0063159 L23.5967557,47.3442778 L23.8177655,47.3442778 L23.8177655,47.996145 L24.6471102,47.996145 L24.6471102,47.3442778 L24.86812,47.3442778 Z" style="fill:rgb(68,68,68);stroke:none" />
<path d="M25.6421565,49.0247334 Q25.6743033,49.0535316 25.6950649,49.0970639 Q25.7158264,49.1405961 25.7158264,49.2095779 Q25.7158264,49.27789 25.6910465,49.3348168 Q25.6662666,49.3917435 25.6213949,49.4339363 Q25.5711655,49.4808172 25.5031882,49.503253 Q25.435211,49.5256889 25.354174,49.5256889 Q25.271128,49.5256889 25.1907608,49.5059319 Q25.1103936,49.486175 25.0588246,49.4627346 L25.0588246,49.3227617 L25.0688705,49.3227617 Q25.1257973,49.3602664 25.2028158,49.3850463 Q25.2798344,49.4098262 25.3514951,49.4098262 Q25.3936879,49.4098262 25.4412385,49.3957619 Q25.4887891,49.3816976 25.5182571,49.3542389 Q25.5490645,49.3247709 25.5641333,49.2892754 Q25.5792022,49.2537799 25.5792022,49.199532 Q25.5792022,49.1459539 25.5621241,49.1107933 Q25.5450461,49.0756326 25.5149084,49.0555408 Q25.4847707,49.0347793 25.4419082,49.0270774 Q25.3990457,49.0193756 25.349486,49.0193756 L25.2892106,49.0193756 L25.2892106,48.908201 L25.3360914,48.908201 Q25.4378899,48.908201 25.4985001,48.8656733 Q25.5591104,48.8231457 25.5591104,48.7414391 Q25.5591104,48.7052738 25.5437067,48.6781499 Q25.528303,48.651026 25.5008442,48.6336131 Q25.4720459,48.6162002 25.4392293,48.6095029 Q25.4064127,48.6028057 25.3648897,48.6028057 Q25.3012656,48.6028057 25.2296049,48.6255764 Q25.1579442,48.6483471 25.0943201,48.6898701 L25.0876229,48.6898701 L25.0876229,48.5498973 Q25.1351735,48.5264568 25.2145361,48.5066999 Q25.2938987,48.486943 25.3682383,48.486943 Q25.4412385,48.486943 25.4968258,48.5003375 Q25.5524131,48.513732 25.5972848,48.5432 Q25.6455051,48.5753469 25.670285,48.6208883 Q25.6950649,48.6664297 25.6950649,48.7273748 Q25.6950649,48.8104209 25.6364638,48.8723706 Q25.5778627,48.9343203 25.4981653,48.9503937 L25.4981653,48.9597699 Q25.5303121,48.9651277 25.5718352,48.9822058 Q25.6133582,48.9992838 25.6421565,49.0247334 Z" style="fill:rgb(68,68,68);stroke:none" />
<path d="M5.8778057,28.6869354 L5.6567959,28.6869354 L5.6567959,27.8732176 L4.8274512,27.8732176 L4.8274512,28.6869354 L4.6064415,28.6869354 L4.6064415,27.0248973 L4.8274512,27.0248973 L4.8274512,27.6767645 L5.6567959,27.6767645 L5.6567959,27.0248973 L5.8778057,27.0248973 Z" style="fill:rgb(68,68,68);stroke:none" />
<path d="M32.1343127,23.6680484 L31.860841,23.6680484 L31.0727961,22.1812554 L31.0727961,23.6680484 L30.8662971,23.6680484 L30.8662971,22.0060103 L31.2089738,22.0060103 L31.9278137,23.3633228 L31.9278137,22.0060103 L32.1343127,22.0060103 Z" style="fill:rgb(68,68,68);stroke:none" />
<path d="M27.6560902,29.7864789 Q27.7576654,29.8981 27.8118016,30.0599505 Q27.8659379,30.2218011 27.8659379,30.4271839 Q27.8659379,30.6325668 27.8106854,30.7949754 Q27.755433,30.9573841 27.6560902,31.0656566 Q27.5533988,31.1783939 27.4133143,31.2353207 Q27.2732299,31.2922474 27.0935199,31.2922474 Q26.9182748,31.2922474 26.7748417,31.2342044 Q26.6314086,31.1761615 26.5309496,31.0656566 Q26.4304906,30.9551517 26.3763544,30.7944173 Q26.3222181,30.633683 26.3222181,30.4271839 Q26.3222181,30.2240335 26.3757963,30.0627411 Q26.4293744,29.9014486 26.5320658,29.7864789 Q26.6302924,29.6770902 26.7759579,29.6190472 Q26.9216234,29.5610043 27.0935199,29.5610043 Q27.2721136,29.5610043 27.4144305,29.6196053 Q27.5567474,29.6782064 27.6560902,29.7864789 Z M27.6359984,30.4271839 Q27.6359984,30.1034828 27.490891,29.9276795 Q27.3457836,29.7518763 27.0946361,29.7518763 Q26.8412562,29.7518763 26.6967069,29.9276795 Q26.5521576,30.1034828 26.5521576,30.4271839 Q26.5521576,30.7542337 26.6994974,30.9278045 Q26.8468373,31.1013753 27.0946361,31.1013753 Q27.3424349,31.1013753 27.4892167,30.9278045 Q27.6359984,30.7542337 27.6359984,30.4271839 Z" style="fill:rgb(68,68,68);stroke:none" />
<path d="M10.9123049,18.6705462 Q11.0138801,18.7821673 11.0680163,18.9440179 Q11.1221526,19.1058685 11.1221526,19.3112513 Q11.1221526,19.5166341 11.0669001,19.6790428 Q11.0116477,19.8414515 10.9123049,19.949724 Q10.8096135,20.0624613 10.669529,20.119388 Q10.5294446,20.1763148 10.3497346,20.1763148 Q10.1744895,20.1763148 10.0310564,20.1182718 Q9.8876233,20.0602288 9.7871643,19.949724 Q9.6867053,19.8392191 9.6325691,19.6784847 Q9.5784328,19.5177503 9.5784328,19.3112513 Q9.5784328,19.1081009 9.632011,18.9468084 Q9.6855891,18.785516 9.7882805,18.6705462 Q9.8865071,18.5611576 10.0321726,18.5031146 Q10.1778381,18.4450716 10.3497346,18.4450716 Q10.5283283,18.4450716 10.6706452,18.5036727 Q10.8129621,18.5622738 10.9123049,18.6705462 Z M10.8922131,19.3112513 Q10.8922131,18.9875501 10.7471057,18.8117469 Q10.6019983,18.6359437 10.3508508,18.6359437 Q10.0974709,18.6359437 9.9529216,18.8117469 Q9.8083723,18.9875501 9.8083723,19.3112513 Q9.8083723,19.6383011 9.9557121,19.8118719 Q10.103052,19.9854427 10.3508508,19.9854427 Q10.5986496,19.9854427 10.7454314,19.8118719 Q10.8922131,19.6383011 10.8922131,19.3112513 Z" style="fill:rgb(68,68,68);stroke:none" />
<path d="M13.4618694,14.3058739 Q13.4004778,14.3326629 13.3508064,14.3561034 Q13.301135,14.3795438 13.2207678,14.4052167 Q13.152679,14.4264247 13.0728699,14.4414935 Q12.9930608,14.4565624 12.8970667,14.4565624 Q12.7162405,14.4565624 12.5683426,14.4057748 Q12.4204446,14.3549872 12.3110559,14.2467147 Q12.2038997,14.1406747 12.1436243,13.9771498 Q12.0833489,13.8136249 12.0833489,13.5970799 Q12.0833489,13.3916971 12.1413919,13.2298465 Q12.1994348,13.067996 12.3088235,12.9563749 Q12.4148636,12.8481024 12.5649939,12.7911756 Q12.7151243,12.7342489 12.8981829,12.7342489 Q13.0321282,12.7342489 13.1655154,12.766619 Q13.2989026,12.7989891 13.4618694,12.8804725 L13.4618694,13.1427821 L13.4451262,13.1427821 Q13.3078323,13.0278124 13.1727708,12.9753504 Q13.0377093,12.9228885 12.8836721,12.9228885 Q12.7575403,12.9228885 12.6565232,12.9636302 Q12.5555061,13.0043719 12.4762552,13.0903202 Q12.3992366,13.174036 12.3562625,13.3018421 Q12.3132884,13.4296483 12.3132884,13.5970799 Q12.3132884,13.7723251 12.3607273,13.8984569 Q12.4081663,14.0245887 12.4829524,14.1038397 Q12.5610872,14.1864393 12.6654529,14.2260648 Q12.7698186,14.2656903 12.8859046,14.2656903 Q13.0455227,14.2656903 13.1850491,14.210996 Q13.3245755,14.1563016 13.4462425,14.0469129 L13.4618694,14.0469129 Z" style="fill:rgb(68,68,68);stroke:none" />
<path d="M11.0449379,14.4264247 L10.8239281,14.4264247 L10.8239281,13.6127069 L9.9945834,13.6127069 L9.9945834,14.4264247 L9.7735736,14.4264247 L9.7735736,12.7643866 L9.9945834,12.7643866 L9.9945834,13.4162538 L10.8239281,13.4162538 L10.8239281,12.7643866 L11.0449379,12.7643866 Z" style="fill:rgb(68,68,68);stroke:none" />
<path d="M11.8189743,14.4448421 Q11.8511212,14.4736404 11.8718827,14.5171726 Q11.8926443,14.5607048 11.8926443,14.6296867 Q11.8926443,14.6979988 11.8678644,14.7549255 Q11.8430845,14.8118523 11.7982128,14.8540451 Q11.7479833,14.9009259 11.6800061,14.9233618 Q11.6120288,14.9457976 11.5309919,14.9457976 Q11.4479458,14.9457976 11.3675786,14.9260407 Q11.2872115,14.9062837 11.2356425,14.8828433 L11.2356425,14.7428705 L11.2456884,14.7428705 Q11.3026152,14.7803752 11.3796337,14.805155 Q11.4566523,14.8299349 11.528313,14.8299349 Q11.5705058,14.8299349 11.6180564,14.8158707 Q11.665607,14.8018064 11.6950749,14.7743476 Q11.7258824,14.7448796 11.7409512,14.7093841 Q11.75602,14.6738886 11.75602,14.6196408 Q11.75602,14.5660627 11.738942,14.530902 Q11.721864,14.4957414 11.6917263,14.4756496 Q11.6615886,14.454888 11.6187261,14.4471862 Q11.5758636,14.4394843 11.5263038,14.4394843 L11.4660284,14.4394843 L11.4660284,14.3283097 L11.5129093,14.3283097 Q11.6147077,14.3283097 11.675318,14.2857821 Q11.7359282,14.2432544 11.7359282,14.1615478 Q11.7359282,14.1253826 11.7205245,14.0982586 Q11.7051208,14.0711347 11.677662,14.0537218 Q11.6488638,14.0363089 11.6160472,14.0296117 Q11.5832306,14.0229144 11.5417075,14.0229144 Q11.4780835,14.0229144 11.4064228,14.0456851 Q11.334762,14.0684558 11.271138,14.1099789 L11.2644407,14.1099789 L11.2644407,13.970006 Q11.3119913,13.9465656 11.3913539,13.9268086 Q11.4707165,13.9070517 11.5450562,13.9070517 Q11.6180564,13.9070517 11.6736437,13.9204462 Q11.729231,13.9338408 11.7741027,13.9633087 Q11.822323,13.9954556 11.8471029,14.040997 Q11.8718827,14.0865384 11.8718827,14.1474835 Q11.8718827,14.2305296 11.8132817,14.2924794 Q11.7546806,14.3544291 11.6749831,14.3705025 L11.6749831,14.3798787 Q11.70713,14.3852365 11.7486531,14.4023145 Q11.7901761,14.4193925 11.8189743,14.4448421 Z" style="fill:rgb(68,68,68);stroke:none" />
<path d="M18.2430724,27.4018885 L18.0220626,27.4018885 L18.0220626,26.5881707 L17.1927179,26.5881707 L17.1927179,27.4018885 L16.9717081,27.4018885 L16.9717081,25.7398504 L17.1927179,25.7398504 L17.1927179,26.3917176 L18.0220626,26.3917176 L18.0220626,25.7398504 L18.2430724,25.7398504 Z" style="fill:rgb(68,68,68);stroke:none" />
<path d="M25.0859964,12.9558744 Q25.1875716,13.0674955 25.2417079,13.2293461 Q25.2958441,13.3911967 25.2958441,13.5965795 Q25.2958441,13.8019623 25.2405917,13.964371 Q25.1853392,14.1267797 25.0859964,14.2350521 Q24.983305,14.3477894 24.8432206,14.4047162 Q24.7031361,14.4616429 24.5234261,14.4616429 Q24.348181,14.4616429 24.2047479,14.4036 Q24.0613148,14.345557 23.9608558,14.2350521 Q23.8603968,14.1245472 23.8062606,13.9638129 Q23.7521244,13.8030785 23.7521244,13.5965795 Q23.7521244,13.3934291 23.8057025,13.2321366 Q23.8592806,13.0708441 23.961972,12.9558744 Q24.0601986,12.8464857 24.2058641,12.7884427 Q24.3515296,12.7303998 24.5234261,12.7303998 Q24.7020199,12.7303998 24.8443368,12.7890009 Q24.9866537,12.8476019 25.0859964,12.9558744 Z M25.0659046,13.5965795 Q25.0659046,13.2728783 24.9207972,13.0970751 Q24.7756898,12.9212718 24.5245423,12.9212718 Q24.2711625,12.9212718 24.1266131,13.0970751 Q23.9820638,13.2728783 23.9820638,13.5965795 Q23.9820638,13.9236293 24.1294037,14.0972001 Q24.2767435,14.2707709 24.5245423,14.2707709 Q24.7723412,14.2707709 24.9191229,14.0972001 Q25.0659046,13.9236293 25.0659046,13.5965795 Z" style="fill:rgb(68,68,68);stroke:none" />
<path d="M42.7858142,9.1958575 Q42.7244226,9.2226466 42.6747512,9.246087 Q42.6250798,9.2695275 42.5447127,9.2952003 Q42.4766238,9.3164083 42.3968147,9.3314772 Q42.3170056,9.346546 42.2210115,9.346546 Q42.0401853,9.346546 41.8922874,9.2957584 Q41.7443894,9.2449708 41.6350007,9.1366984 Q41.5278445,9.0306583 41.4675691,8.8671334 Q41.4072937,8.7036085 41.4072937,8.4870636 Q41.4072937,8.2816808 41.4653367,8.1198302 Q41.5233797,7.9579796 41.6327683,7.8463585 Q41.7388084,7.7380861 41.8889387,7.6811593 Q42.0390691,7.6242325 42.2221277,7.6242325 Q42.356073,7.6242325 42.4894602,7.6566027 Q42.6228474,7.6889728 42.7858142,7.7704562 L42.7858142,8.0327657 L42.7690711,8.0327657 Q42.6317771,7.917796 42.4967156,7.8653341 Q42.3616541,7.8128722 42.207617,7.8128722 Q42.0814851,7.8128722 41.980468,7.8536139 Q41.8794509,7.8943556 41.8002,7.9803038 Q41.7231814,8.0640197 41.6802073,8.1918258 Q41.6372332,8.319632 41.6372332,8.4870636 Q41.6372332,8.6623087 41.6846721,8.7884406 Q41.7321111,8.9145724 41.8068972,8.9938234 Q41.885032,9.076423 41.9893977,9.1160485 Q42.0937634,9.155674 42.2098494,9.155674 Q42.3694675,9.155674 42.5089939,9.1009796 Q42.6485203,9.0462853 42.7701873,8.9368966 L42.7858142,8.9368966 Z" style="fill:rgb(68,68,68);stroke:none" />
<path d="M44.2478831,9.3164083 L44.0268734,9.3164083 L44.0268734,8.5026906 L43.1975286,8.5026906 L43.1975286,9.3164083 L42.9765189,9.3164083 L42.9765189,7.6543702 L43.1975286,7.6543702 L43.1975286,8.3062374 L44.0268734,8.3062374 L44.0268734,7.6543702 L44.2478831,7.6543702 Z" style="fill:rgb(68,68,68);stroke:none" />
<path d="M45.0219196,9.3348258 Q45.0540665,9.363624 45.074828,9.4071563 Q45.0955895,9.4506885 45.0955895,9.5196703 Q45.0955895,9.5879824 45.0708096,9.6449092 Q45.0460298,9.701836 45.0011581,9.7440287 Q44.9509286,9.7909096 44.8829513,9.8133454 Q44.8149741,9.8357813 44.7339372,9.8357813 Q44.6508911,9.8357813 44.5705239,9.8160243 Q44.4901567,9.7962674 44.4385878,9.772827 L44.4385878,9.6328541 L44.4486337,9.6328541 Q44.5055604,9.6703588 44.582579,9.6951387 Q44.6595975,9.7199186 44.7312583,9.7199186 Q44.773451,9.7199186 44.8210016,9.7058543 Q44.8685522,9.6917901 44.8980202,9.6643313 Q44.9288276,9.6348633 44.9438964,9.5993678 Q44.9589653,9.5638723 44.9589653,9.5096244 Q44.9589653,9.4560463 44.9418873,9.4208857 Q44.9248092,9.385725 44.8946715,9.3656332 Q44.8645339,9.3448717 44.8216714,9.3371699 Q44.7788089,9.329468 44.7292491,9.329468 L44.6689737,9.329468 L44.6689737,9.2182934 L44.7158546,9.2182934 Q44.817653,9.2182934 44.8782632,9.1757657 Q44.9388735,9.1332381 44.9388735,9.0515315 Q44.9388735,9.0153662 44.9234698,8.9882423 Q44.9080661,8.9611184 44.8806073,8.9437055 Q44.851809,8.9262926 44.8189924,8.9195953 Q44.7861758,8.9128981 44.7446528,8.9128981 Q44.6810288,8.9128981 44.609368,8.9356688 Q44.5377073,8.9584395 44.4740833,8.9999625 L44.467386,8.9999625 L44.467386,8.8599897 Q44.5149366,8.8365492 44.5942992,8.8167923 Q44.6736618,8.7970354 44.7480014,8.7970354 Q44.8210016,8.7970354 44.8765889,8.8104299 Q44.9321762,8.8238244 44.9770479,8.8532924 Q45.0252682,8.8854393 45.0500481,8.9309807 Q45.074828,8.9765221 45.074828,9.0374672 Q45.074828,9.1205133 45.0162269,9.182463 Q44.9576258,9.2444127 44.8779284,9.2604862 L44.8779284,9.2698623 Q44.9100753,9.2752201 44.9515983,9.2922982 Q44.9931214,9.3093762 45.0219196,9.3348258 Z" style="fill:rgb(68,68,68);stroke:none" />
<path d="M33.9316543,9.3164083 L33.6581826,9.3164083 L32.8701377,7.8296154 L32.8701377,9.3164083 L32.6636386,9.3164083 L32.6636386,7.6543702 L33.0063154,7.6543702 L33.7251552,9.0116827 L33.7251552,7.6543702 L33.9316543,7.6543702 Z" style="fill:rgb(68,68,68);stroke:none" />
<path d="M38.2443347,0.2254746 Q38.3459099,0.3370957 38.4000461,0.4989463 Q38.4541823,0.6607969 38.4541823,0.8661797 Q38.4541823,1.0715625 38.3989299,1.2339712 Q38.3436775,1.3963799 38.2443347,1.5046523 Q38.1416433,1.6173896 38.0015588,1.6743164 Q37.8614743,1.7312432 37.6817644,1.7312432 Q37.5065193,1.7312432 37.3630862,1.6732002 Q37.219653,1.6151572 37.1191941,1.5046523 Q37.0187351,1.3941475 36.9645988,1.2334131 Q36.9104626,1.0726787 36.9104626,0.8661797 Q36.9104626,0.6630293 36.9640407,0.5017368 Q37.0176189,0.3404443 37.1203103,0.2254746 Q37.2185368,0.1160859 37.3642024,0.058043 Q37.5098679,0 37.6817644,0 Q37.8603581,0 38.002675,0.0586011 Q38.1449919,0.1172021 38.2443347,0.2254746 Z M38.2242429,0.8661797 Q38.2242429,0.5424785 38.0791355,0.3666753 Q37.934028,0.1908721 37.6828806,0.1908721 Q37.4295007,0.1908721 37.2849514,0.3666753 Q37.1404021,0.5424785 37.1404021,0.8661797 Q37.1404021,1.1932295 37.2877419,1.3668003 Q37.4350818,1.5403711 37.6828806,1.5403711 Q37.9306794,1.5403711 38.0774612,1.3668003 Q38.2242429,1.1932295 38.2242429,0.8661797 Z" style="fill:rgb(68,68,68);stroke:none" />
<path d="M33.9653559,14.3064896 Q33.9039643,14.3332787 33.8542929,14.3567191 Q33.8046215,14.3801595 33.7242543,14.4058324 Q33.6561654,14.4270404 33.5763563,14.4421092 Q33.4965473,14.4571781 33.4005531,14.4571781 Q33.2197269,14.4571781 33.071829,14.4063905 Q32.923931,14.3556029 32.8145424,14.2473304 Q32.7073861,14.1412904 32.6471107,13.9777655 Q32.5868353,13.8142406 32.5868353,13.5976957 Q32.5868353,13.3923129 32.6448783,13.2304623 Q32.7029213,13.0686117 32.81231,12.9569906 Q32.91835,12.8487181 33.0684804,12.7917914 Q33.2186107,12.7348646 33.4016693,12.7348646 Q33.5356146,12.7348646 33.6690018,12.7672347 Q33.8023891,12.7996049 33.9653559,12.8810883 L33.9653559,13.1433978 L33.9486127,13.1433978 Q33.8113187,13.0284281 33.6762572,12.9759662 Q33.5411957,12.9235043 33.3871586,12.9235043 Q33.2610268,12.9235043 33.1600097,12.964246 Q33.0589926,13.0049877 32.9797416,13.0909359 Q32.902723,13.1746517 32.8597489,13.3024579 Q32.8167748,13.430264 32.8167748,13.5976957 Q32.8167748,13.7729408 32.8642138,13.8990726 Q32.9116527,14.0252045 32.9864389,14.1044554 Q33.0645736,14.1870551 33.1689393,14.2266805 Q33.2733051,14.266306 33.389391,14.266306 Q33.5490092,14.266306 33.6885355,14.2116117 Q33.8280619,14.1569174 33.9497289,14.0475287 L33.9653559,14.0475287 Z" style="fill:rgb(68,68,68);stroke:none" />
<path d="M35.4274247,14.4270404 L35.206415,14.4270404 L35.206415,13.6133226 L34.3770703,13.6133226 L34.3770703,14.4270404 L34.1560605,14.4270404 L34.1560605,12.7650023 L34.3770703,12.7650023 L34.3770703,13.4168695 L35.206415,13.4168695 L35.206415,12.7650023 L35.4274247,12.7650023 Z" style="fill:rgb(68,68,68);stroke:none" />
<path d="M36.2014612,14.4454579 Q36.2336081,14.4742561 36.2543696,14.5177884 Q36.2751311,14.5613206 36.2751311,14.6303024 Q36.2751311,14.6986145 36.2503513,14.7555413 Q36.2255714,14.812468 36.1806997,14.8546608 Q36.1304702,14.9015417 36.062493,14.9239775 Q35.9945157,14.9464134 35.9134788,14.9464134 Q35.8304327,14.9464134 35.7500655,14.9266564 Q35.6696983,14.9068995 35.6181294,14.8834591 L35.6181294,14.7434862 L35.6281753,14.7434862 Q35.685102,14.7809909 35.7621206,14.8057708 Q35.8391392,14.8305507 35.9107999,14.8305507 Q35.9529927,14.8305507 36.0005433,14.8164864 Q36.0480938,14.8024221 36.0775618,14.7749634 Q36.1083692,14.7454954 36.1234381,14.7099999 Q36.1385069,14.6745044 36.1385069,14.6202565 Q36.1385069,14.5666784 36.1214289,14.5315177 Q36.1043509,14.4963571 36.0742132,14.4762653 Q36.0440755,14.4555038 36.001213,14.4478019 Q35.9583505,14.4401001 35.9087907,14.4401001 L35.8485153,14.4401001 L35.8485153,14.3289255 L35.8953962,14.3289255 Q35.9971946,14.3289255 36.0578049,14.2863978 Q36.1184151,14.2438702 36.1184151,14.1621635 Q36.1184151,14.1259983 36.1030114,14.0988744 Q36.0876077,14.0717505 36.0601489,14.0543376 Q36.0313507,14.0369247 35.9985341,14.0302274 Q35.9657175,14.0235301 35.9241944,14.0235301 Q35.8605704,14.0235301 35.7889097,14.0463009 Q35.7172489,14.0690716 35.6536249,14.1105946 L35.6469276,14.1105946 L35.6469276,13.9706217 Q35.6944782,13.9471813 35.7738408,13.9274244 Q35.8532034,13.9076675 35.9275431,13.9076675 Q36.0005433,13.9076675 36.0561306,13.921062 Q36.1117179,13.9344565 36.1565895,13.9639245 Q36.2048099,13.9960714 36.2295897,14.0416128 Q36.2543696,14.0871542 36.2543696,14.1480993 Q36.2543696,14.2311454 36.1957685,14.2930951 Q36.1371675,14.3550448 36.05747,14.3711182 L36.05747,14.3804944 Q36.0896169,14.3858522 36.1311399,14.4029302 Q36.172663,14.4200083 36.2014612,14.4454579 Z" style="fill:rgb(68,68,68);stroke:none" />
<path d="M29.5585132,1.5760898 Q29.4971216,1.6028789 29.4474502,1.6263193 Q29.3977789,1.6497598 29.3174117,1.6754326 Q29.2493228,1.6966406 29.1695137,1.7117095 Q29.0897046,1.7267783 28.9937105,1.7267783 Q28.8128843,1.7267783 28.6649864,1.6759907 Q28.5170884,1.6252031 28.4076998,1.5169307 Q28.3005435,1.4108906 28.2402681,1.2473657 Q28.1799927,1.0838408 28.1799927,0.8672959 Q28.1799927,0.6619131 28.2380357,0.5000625 Q28.2960787,0.3382119 28.4054673,0.2265908 Q28.5115074,0.1183184 28.6616377,0.0613916 Q28.8117681,0.0044648 28.9948267,0.0044648 Q29.128772,0.0044648 29.2621592,0.036835 Q29.3955464,0.0692051 29.5585132,0.1506885 L29.5585132,0.412998 L29.5417701,0.412998 Q29.4044761,0.2980283 29.2694146,0.2455664 Q29.1343531,0.1931045 28.980316,0.1931045 Q28.8541841,0.1931045 28.753167,0.2338462 Q28.6521499,0.2745879 28.572899,0.3605361 Q28.4958804,0.444252 28.4529063,0.5720581 Q28.4099322,0.6998643 28.4099322,0.8672959 Q28.4099322,1.042541 28.4573711,1.1686729 Q28.5048101,1.2948047 28.5795962,1.3740557 Q28.657731,1.4566553 28.7620967,1.4962808 Q28.8664624,1.5359063 28.9825484,1.5359063 Q29.1421666,1.5359063 29.2816929,1.4812119 Q29.4212193,1.4265176 29.5428863,1.3171289 L29.5585132,1.3171289 Z" style="fill:rgb(68,68,68);stroke:none" />
<path d="M31.0205821,1.6966406 L30.7995724,1.6966406 L30.7995724,0.8829229 L29.9702276,0.8829229 L29.9702276,1.6966406 L29.7492179,1.6966406 L29.7492179,0.0346025 L29.9702276,0.0346025 L29.9702276,0.6864697 L30.7995724,0.6864697 L30.7995724,0.0346025 L31.0205821,0.0346025 Z" style="fill:rgb(68,68,68);stroke:none" />
<path d="M31.7946186,1.7150581 Q31.8267655,1.7438563 31.847527,1.7873886 Q31.8682885,1.8309208 31.8682885,1.8999026 Q31.8682885,1.9682147 31.8435086,2.0251415 Q31.8187288,2.0820683 31.7738571,2.124261 Q31.7236276,2.1711419 31.6556503,2.1935777 Q31.5876731,2.2160136 31.5066362,2.2160136 Q31.4235901,2.2160136 31.3432229,2.1962566 Q31.2628557,2.1764997 31.2112868,2.1530593 L31.2112868,2.0130864 L31.2213327,2.0130864 Q31.2782594,2.0505911 31.355278,2.075371 Q31.4322965,2.1001509 31.5039573,2.1001509 Q31.54615,2.1001509 31.5937006,2.0860866 Q31.6412512,2.0720224 31.6707192,2.0445636 Q31.7015266,2.0150956 31.7165955,1.9796001 Q31.7316643,1.9441046 31.7316643,1.8898567 Q31.7316643,1.8362786 31.7145863,1.801118 Q31.6975083,1.7659573 31.6673706,1.7458655 Q31.6372329,1.725104 31.5943704,1.7174021 Q31.5515079,1.7097003 31.5019481,1.7097003 L31.4416727,1.7097003 L31.4416727,1.5985257 L31.4885536,1.5985257 Q31.590352,1.5985257 31.6509623,1.555998 Q31.7115725,1.5134704 31.7115725,1.4317638 Q31.7115725,1.3955985 31.6961688,1.3684746 Q31.6807651,1.3413507 31.6533063,1.3239378 Q31.6245081,1.3065249 31.5916915,1.2998276 Q31.5588749,1.2931304 31.5173518,1.2931304 Q31.4537278,1.2931304 31.382067,1.3159011 Q31.3104063,1.3386718 31.2467823,1.3801948 L31.240085,1.3801948 L31.240085,1.240222 Q31.2876356,1.2167815 31.3669982,1.1970246 Q31.4463608,1.1772677 31.5207004,1.1772677 Q31.5937006,1.1772677 31.6492879,1.1906622 Q31.7048752,1.2040567 31.7497469,1.2335247 Q31.7979672,1.2656716 31.8227471,1.311213 Q31.847527,1.3567544 31.847527,1.4176995 Q31.847527,1.5007456 31.7889259,1.5626953 Q31.7303249,1.624645 31.6506274,1.6407185 L31.6506274,1.6500946 Q31.6827743,1.6554524 31.7242973,1.6725305 Q31.7658204,1.6896085 31.7946186,1.7150581 Z" style="fill:rgb(68,68,68);stroke:none" />
<path d="M20.6791538,5.3053197 Q20.780729,5.4169408 20.8348652,5.5787914 Q20.8890015,5.740642 20.8890015,5.9460248 Q20.8890015,6.1514076 20.833749,6.3138163 Q20.7784966,6.476225 20.6791538,6.5844975 Q20.5764624,6.6972348 20.4363779,6.7541615 Q20.2962935,6.8110883 20.1165835,6.8110883 Q19.9413384,6.8110883 19.7979053,6.7530453 Q19.6544722,6.6950024 19.5540132,6.5844975 Q19.4535542,6.4739926 19.399418,6.3132582 Q19.3452818,6.1525238 19.3452818,5.9460248 Q19.3452818,5.7428744 19.3988599,5.581582 Q19.452438,5.4202895 19.5551294,5.3053197 Q19.653356,5.1959311 19.7990215,5.1378881 Q19.944687,5.0798451 20.1165835,5.0798451 Q20.2951773,5.0798451 20.4374942,5.1384462 Q20.579811,5.1970473 20.6791538,5.3053197 Z M20.659062,5.9460248 Q20.659062,5.6223237 20.5139546,5.4465204 Q20.3688472,5.2707172 20.1176997,5.2707172 Q19.8643198,5.2707172 19.7197705,5.4465204 Q19.5752212,5.6223237 19.5752212,5.9460248 Q19.5752212,6.2730746 19.722561,6.4466454 Q19.8699009,6.6202162 20.1176997,6.6202162 Q20.3654985,6.6202162 20.5122803,6.4466454 Q20.659062,6.2730746 20.659062,5.9460248 Z" style="fill:rgb(68,68,68);stroke:none" />
<path d="M32.1895651,18.4676525 Q32.1281735,18.4944415 32.0785022,18.517882 Q32.0288308,18.5413224 31.9484636,18.5669952 Q31.8803747,18.5882032 31.8005656,18.6032721 Q31.7207565,18.6183409 31.6247624,18.6183409 Q31.4439362,18.6183409 31.2960383,18.5675533 Q31.1481403,18.5167657 31.0387517,18.4084933 Q30.9315954,18.3024532 30.87132,18.1389283 Q30.8110446,17.9754034 30.8110446,17.7588585 Q30.8110446,17.5534757 30.8690876,17.3916251 Q30.9271306,17.2297745 31.0365192,17.1181534 Q31.1425593,17.009881 31.2926897,16.9529542 Q31.44282,16.8960275 31.6258786,16.8960275 Q31.7598239,16.8960275 31.8932111,16.9283976 Q32.0265983,16.9607677 32.1895651,17.0422511 L32.1895651,17.3045607 L32.172822,17.3045607 Q32.035528,17.1895909 31.9004665,17.137129 Q31.765405,17.0846671 31.6113679,17.0846671 Q31.485236,17.0846671 31.3842189,17.1254088 Q31.2832019,17.1661505 31.2039509,17.2520987 Q31.1269323,17.3358146 31.0839582,17.4636207 Q31.0409841,17.5914269 31.0409841,17.7588585 Q31.0409841,17.9341036 31.0884231,18.0602355 Q31.135862,18.1863673 31.2106481,18.2656183 Q31.2887829,18.3482179 31.3931486,18.3878434 Q31.4975144,18.4274689 31.6136003,18.4274689 Q31.7732185,18.4274689 31.9127448,18.3727745 Q32.0522712,18.3180802 32.1739382,18.2086915 L32.1895651,18.2086915 Z" style="fill:rgb(68,68,68);stroke:none" />
<path d="M33.651634,18.5882032 L33.4306243,18.5882032 L33.4306243,17.7744855 L32.6012795,17.7744855 L32.6012795,18.5882032 L32.3802698,18.5882032 L32.3802698,16.9261652 L32.6012795,16.9261652 L32.6012795,17.5780323 L33.4306243,17.5780323 L33.4306243,16.9261652 L33.651634,16.9261652 Z" style="fill:rgb(68,68,68);stroke:none" />
<path d="M34.4256705,18.6066207 Q34.4578174,18.635419 34.4785789,18.6789512 Q34.4993404,18.7224834 34.4993404,18.7914653 Q34.4993404,18.8597774 34.4745606,18.9167041 Q34.4497807,18.9736309 34.404909,19.0158237 Q34.3546795,19.0627045 34.2867023,19.0851404 Q34.218725,19.1075762 34.1376881,19.1075762 Q34.054642,19.1075762 33.9742748,19.0878193 Q33.8939076,19.0680623 33.8423387,19.0446219 L33.8423387,18.904649 L33.8523846,18.904649 Q33.9093113,18.9421537 33.9863299,18.9669336 Q34.0633484,18.9917135 34.1350092,18.9917135 Q34.177202,18.9917135 34.2247525,18.9776492 Q34.2723031,18.963585 34.3017711,18.9361262 Q34.3325785,18.9066582 34.3476474,18.8711627 Q34.3627162,18.8356672 34.3627162,18.7814194 Q34.3627162,18.7278412 34.3456382,18.6926806 Q34.3285602,18.6575199 34.2984225,18.6374281 Q34.2682848,18.6166666 34.2254223,18.6089648 Q34.1825598,18.6012629 34.133,18.6012629 L34.0727246,18.6012629 L34.0727246,18.4900883 L34.1196055,18.4900883 Q34.2214039,18.4900883 34.2820142,18.4475607 Q34.3426244,18.405033 34.3426244,18.3233264 Q34.3426244,18.2871612 34.3272207,18.2600372 Q34.311817,18.2329133 34.2843582,18.2155004 Q34.25556,18.1980875 34.2227434,18.1913903 Q34.1899268,18.184693 34.1484037,18.184693 Q34.0847797,18.184693 34.0131189,18.2074637 Q33.9414582,18.2302344 33.8778342,18.2717574 L33.8711369,18.2717574 L33.8711369,18.1317846 Q33.9186875,18.1083442 33.9980501,18.0885872 Q34.0774127,18.0688303 34.1517523,18.0688303 Q34.2247525,18.0688303 34.2803398,18.0822248 Q34.3359272,18.0956194 34.3807988,18.1250873 Q34.4290191,18.1572342 34.453799,18.2027756 Q34.4785789,18.248317 34.4785789,18.3092621 Q34.4785789,18.3923082 34.4199778,18.4542579 Q34.3613768,18.5162076 34.2816793,18.5322811 L34.2816793,18.5416572 Q34.3138262,18.5470151 34.3553492,18.5640931 Q34.3968723,18.5811711 34.4256705,18.6066207 Z" style="fill:rgb(68,68,68);stroke:none" />
</svg>
