<?xml version="1.0" encoding="UTF-8"?>
<!DOCTYPE svg PUBLIC "-//W3C//DTD SVG 1.1//EN" "http://www.w3.org/Graphics/SVG/1.1/DTD/svg11.dtd">
<svg version="1.2" xmlns="http://www.w3.org/2000/svg" xmlns:xlink="http://www.w3.org/1999/xlink" x="0mm" y="0mm" width="48.3601257mm" height="47.3096753mm" viewBox="0 0 48.3601257 47.3096753">
<style type="text/css"><![CDATA[
text { font:12px Dialog; }
]]></style>
<line x1="8.7373336" y1="24.5519691" x2="13.2075974" y2="22.1136434" style="fill:none;stroke:rgb(68,68,68);stroke-width:0.1942207;stroke-linecap:round;stroke-linejoin:round" />
<line x1="13.2075974" y1="32.0701399" x2="13.2075974" y2="37.3531788" style="fill:none;stroke:rgb(68,68,68);stroke-width:0.1942207;stroke-linecap:round;stroke-linejoin:round" />
<line x1="17.6778611" y1="39.7915045" x2="13.2075974" y2="37.3531788" style="fill:none;stroke:rgb(68,68,68);stroke-width:0.1942207;stroke-linecap:round;stroke-linejoin:round" />
<path d="M13.3047077,37.3531788 L13.110487,37.3531788 L12.7448036,41.178961 L13.2075974,41.178961 L13.6703911,41.178961 Z" style="fill:rgb(68,68,68);stroke:none" />
<line x1="9.7132285" y1="39.2591982" x2="13.2075974" y2="37.3531788" style="fill:none;stroke:rgb(68,68,68);stroke-width:0.1942207;stroke-linecap:round;stroke-linejoin:round" />
<line x1="4.4702637" y1="37.3531788" x2="7.7660642" y2="39.2364934" style="fill:none;stroke:rgb(68,68,68);stroke-width:0.1942207;stroke-linecap:round;stroke-linejoin:round" />
<line x1="39.6227921" y1="22.1136434" x2="35.1525283" y2="24.5519691" style="fill:none;stroke:rgb(68,68,68);stroke-width:0.1942207;stroke-linecap:round;stroke-linejoin:round" />
<line x1="39.6124244" y1="23.1608802" x2="36.0669283" y2="25.0947872" style="fill:none;stroke:rgb(68,68,68);stroke-width:0.1942207;stroke-linecap:round;stroke-linejoin:round" />
<line x1="35.1525283" y1="29.6318142" x2="35.1525283" y2="24.5519691" style="fill:none;stroke:rgb(68,68,68);stroke-width:0.1942207;stroke-linecap:round;stroke-linejoin:round" />
<line x1="4.4702637" y1="33.3242029" x2="4.4702637" y2="37.3531788" style="fill:none;stroke:rgb(68,68,68);stroke-width:0.1942207;stroke-linecap:round;stroke-linejoin:round" />
<line x1="0.8327852" y1="38.8164671" x2="4.4702637" y2="36.8323879" style="fill:none;stroke:rgb(68,68,68);stroke-width:0.1942207;stroke-linecap:round;stroke-linejoin:round" />
<line x1="1.2706476" y1="39.6192148" x2="4.9365532" y2="37.61963" style="fill:none;stroke:rgb(68,68,68);stroke-width:0.1942207;stroke-linecap:round;stroke-linejoin:round" />
<line x1="8.7373336" y1="24.5519691" x2="8.7373336" y2="29.6318142" style="fill:none;stroke:rgb(68,68,68);stroke-width:0.1942207;stroke-linecap:round;stroke-linejoin:round" />
<line x1="13.2075974" y1="32.0701399" x2="8.7373336" y2="29.6318142" style="fill:none;stroke:rgb(68,68,68);stroke-width:0.1942207;stroke-linecap:round;stroke-linejoin:round" />
<line x1="5.513047" y1="31.4742637" x2="8.7373336" y2="29.6318142" style="fill:none;stroke:rgb(68,68,68);stroke-width:0.1942207;stroke-linecap:round;stroke-linejoin:round" />
<path d="M8.6862192,29.7143838 L8.7884481,29.5492447 L5.6850556,27.1863115 L5.436224,27.5882702 L5.1873925,27.9902288 Z" style="fill:rgb(68,68,68);stroke:none" />
<path d="M8.6862192,24.6345386 L8.7884481,24.4693995 L5.7354247,22.1448176 L5.4898022,22.5415925 L5.2441796,22.9383673 Z" style="fill:rgb(68,68,68);stroke:none" />
<line x1="43.889862" y1="24.5519691" x2="39.6227921" y2="22.1136434" style="fill:none;stroke:rgb(68,68,68);stroke-width:0.1942207;stroke-linecap:round;stroke-linejoin:round" />
<line x1="39.6227921" y1="18.2833964" x2="39.6227921" y2="22.1136434" style="fill:none;stroke:rgb(68,68,68);stroke-width:0.1942207;stroke-linecap:round;stroke-linejoin:round" />
<line x1="47.3238023" y1="22.5228225" x2="43.889862" y2="24.5519691" style="fill:none;stroke:rgb(68,68,68);stroke-width:0.1942207;stroke-linecap:round;stroke-linejoin:round" />
<line x1="43.889862" y1="29.6318142" x2="43.889862" y2="24.5519691" style="fill:none;stroke:rgb(68,68,68);stroke-width:0.1942207;stroke-linecap:round;stroke-linejoin:round" />
<line x1="42.975462" y1="29.1011673" x2="42.975462" y2="25.082616" style="fill:none;stroke:rgb(68,68,68);stroke-width:0.1942207;stroke-linecap:round;stroke-linejoin:round" />
<line x1="35.1525283" y1="29.6318142" x2="39.6227921" y2="32.0701399" style="fill:none;stroke:rgb(68,68,68);stroke-width:0.1942207;stroke-linecap:round;stroke-linejoin:round" />
<line x1="36.0669283" y1="29.0889961" x2="39.6124244" y2="31.022903" style="fill:none;stroke:rgb(68,68,68);stroke-width:0.1942207;stroke-linecap:round;stroke-linejoin:round" />
<line x1="43.889862" y1="29.6318142" x2="39.6227921" y2="32.0701399" style="fill:none;stroke:rgb(68,68,68);stroke-width:0.1942207;stroke-linecap:round;stroke-linejoin:round" />
<line x1="39.6227921" y1="37.3531788" x2="39.6227921" y2="32.0701399" style="fill:none;stroke:rgb(68,68,68);stroke-width:0.1942207;stroke-linecap:round;stroke-linejoin:round" />
<line x1="21.944931" y1="37.3531788" x2="17.6778611" y2="39.7915045" style="fill:none;stroke:rgb(68,68,68);stroke-width:0.1942207;stroke-linecap:round;stroke-linejoin:round" />
<path d="M17.7749714,39.7915045 L17.5807507,39.7915045 L17.2150673,43.6172866 L17.6778611,43.6172866 L18.1406549,43.6172866 Z" style="fill:rgb(68,68,68);stroke:none" />
<line x1="26.4151947" y1="39.7915045" x2="21.944931" y2="37.3531788" style="fill:none;stroke:rgb(68,68,68);stroke-width:0.1942207;stroke-linecap:round;stroke-linejoin:round" />
<line x1="26.404827" y1="38.7442677" x2="22.8310234" y2="36.7949202" style="fill:none;stroke:rgb(68,68,68);stroke-width:0.1942207;stroke-linecap:round;stroke-linejoin:round" />
<line x1="30.6822646" y1="37.3531788" x2="26.4151947" y2="39.7915045" style="fill:none;stroke:rgb(68,68,68);stroke-width:0.1942207;stroke-linecap:round;stroke-linejoin:round" />
<line x1="39.6227921" y1="37.3531788" x2="35.1525283" y2="39.7915045" style="fill:none;stroke:rgb(68,68,68);stroke-width:0.1942207;stroke-linecap:round;stroke-linejoin:round" />
<line x1="35.1525283" y1="43.6217515" x2="35.1525283" y2="39.7915045" style="fill:none;stroke:rgb(68,68,68);stroke-width:0.1942207;stroke-linecap:round;stroke-linejoin:round" />
<line x1="35.1525283" y1="39.7915045" x2="30.6822646" y2="37.3531788" style="fill:none;stroke:rgb(68,68,68);stroke-width:0.1942207;stroke-linecap:round;stroke-linejoin:round" />
<line x1="35.1525283" y1="38.7499227" x2="31.5683571" y2="36.7949202" style="fill:none;stroke:rgb(68,68,68);stroke-width:0.1942207;stroke-linecap:round;stroke-linejoin:round" />
<line x1="48.3601257" y1="18.2939597" x2="48.3601257" y2="20.6563866" style="fill:none;stroke:rgb(68,68,68);stroke-width:0.1942207;stroke-linecap:round;stroke-linejoin:round" />
<line x1="20.9750046" y1="46.7554316" x2="18.7200119" y2="45.4668644" style="fill:none;stroke:rgb(68,68,68);stroke-width:0.1942207;stroke-linecap:round;stroke-linejoin:round" />
<line x1="35.1525283" y1="24.5519691" x2="31.6979854" y2="22.5369392" style="fill:none;stroke:rgb(68,68,68);stroke-width:0.1942207;stroke-linecap:round;stroke-linejoin:round" />
<line x1="29.7569089" y1="22.5247869" x2="26.3222181" y2="24.4811591" style="fill:none;stroke:rgb(68,68,68);stroke-width:0.1942207;stroke-linecap:round;stroke-linejoin:round" />
<line x1="26.7794181" y1="24.2207417" x2="26.7794181" y2="28.3069413" style="fill:none;stroke:rgb(68,68,68);stroke-width:0.1942207;stroke-linecap:round;stroke-linejoin:round" />
<line x1="25.8650181" y1="24.2207781" x2="25.8650181" y2="28.3069413" style="fill:none;stroke:rgb(68,68,68);stroke-width:0.1942207;stroke-linecap:round;stroke-linejoin:round" />
<line x1="26.3222181" y1="24.4811591" x2="21.9153755" y2="21.9714078" style="fill:none;stroke:rgb(68,68,68);stroke-width:0.1942207;stroke-linecap:round;stroke-linejoin:round" />
<line x1="14.5702273" y1="17.1366267" x2="20.5693705" y2="17.1366267" style="fill:none;stroke:rgb(68,68,68);stroke-width:0.1942207;stroke-linecap:round;stroke-linejoin:round" />
<line x1="21.9153755" y1="21.9714078" x2="20.5693705" y2="17.1366267" style="fill:none;stroke:rgb(68,68,68);stroke-width:0.1942207;stroke-linecap:round;stroke-linejoin:round" />
<path d="M13.1385602,22.181939 L13.2766345,22.0453478 L10.7790719,18.9955867 L10.4475107,19.3235863 L10.1159494,19.651586 Z" style="fill:rgb(68,68,68);stroke:none" />
<line x1="14.5702273" y1="17.1366267" x2="13.2075974" y2="22.1136434" style="fill:none;stroke:rgb(68,68,68);stroke-width:0.1942207;stroke-linecap:round;stroke-linejoin:round" />
<path d="M14.59485,17.2305636 L14.5456047,17.0426897 L10.606608,17.6886201 L10.7260404,18.1442617 L10.8454728,18.5999033 Z" style="fill:rgb(68,68,68);stroke:none" />
<line x1="14.5702273" y1="17.1366267" x2="12.6652854" y2="13.8695119" style="fill:none;stroke:rgb(68,68,68);stroke-width:0.1942207;stroke-linecap:round;stroke-linejoin:round" />
<line x1="13.2075974" y1="22.1136434" x2="15.9238001" y2="24.8026472" style="fill:none;stroke:rgb(68,68,68);stroke-width:0.1942207;stroke-linecap:round;stroke-linejoin:round" />
<line x1="36.9252403" y1="5.0798451" x2="40.3567344" y2="7.0609386" style="fill:none;stroke:rgb(68,68,68);stroke-width:0.1942207;stroke-linecap:round;stroke-linejoin:round" />
<line x1="33.496198" y1="7.0595232" x2="36.9252403" y2="5.0798451" style="fill:none;stroke:rgb(68,68,68);stroke-width:0.1942207;stroke-linecap:round;stroke-linejoin:round" />
<line x1="28.1269486" y1="5.0798451" x2="31.555387" y2="7.0594516" style="fill:none;stroke:rgb(68,68,68);stroke-width:0.1942207;stroke-linecap:round;stroke-linejoin:round" />
<line x1="23.7274948" y1="7.6197677" x2="28.1269486" y2="5.0798451" style="fill:none;stroke:rgb(68,68,68);stroke-width:0.1942207;stroke-linecap:round;stroke-linejoin:round" />
<line x1="36.468805" y1="5.3433575" x2="36.4569127" y2="1.2553914" style="fill:none;stroke:rgb(68,68,68);stroke-width:0.1942207;stroke-linecap:round;stroke-linejoin:round" />
<line x1="37.3832114" y1="5.3442441" x2="37.3713089" y2="1.2527313" style="fill:none;stroke:rgb(68,68,68);stroke-width:0.1942207;stroke-linecap:round;stroke-linejoin:round" />
<line x1="32.5206443" y1="8.8392247" x2="32.5095051" y2="11.4808051" style="fill:none;stroke:rgb(68,68,68);stroke-width:0.1942207;stroke-linecap:round;stroke-linejoin:round" />
<line x1="28.0298399" y1="5.0804101" x2="28.2240573" y2="5.0792801" style="fill:none;stroke:rgb(68,68,68);stroke-width:0.1942207;stroke-linecap:round;stroke-linejoin:round" />
<line x1="27.94399" y1="4.2342401" x2="28.3000553" y2="4.2321685" style="fill:none;stroke:rgb(68,68,68);stroke-width:0.1942207;stroke-linecap:round;stroke-linejoin:round" />
<line x1="27.8581402" y1="3.3880701" x2="28.3760533" y2="3.3850568" style="fill:none;stroke:rgb(68,68,68);stroke-width:0.1942207;stroke-linecap:round;stroke-linejoin:round" />
<line x1="27.7722904" y1="2.5419001" x2="28.4520513" y2="2.5379451" style="fill:none;stroke:rgb(68,68,68);stroke-width:0.1942207;stroke-linecap:round;stroke-linejoin:round" />
<line x1="27.6864405" y1="1.69573" x2="28.5280493" y2="1.6908334" style="fill:none;stroke:rgb(68,68,68);stroke-width:0.1942207;stroke-linecap:round;stroke-linejoin:round" />
<line x1="23.7274948" y1="7.6197677" x2="23.7460807" y2="11.4763413" style="fill:none;stroke:rgb(68,68,68);stroke-width:0.1942207;stroke-linecap:round;stroke-linejoin:round" />
<line x1="23.7300487" y1="8.1496916" x2="20.1553405" y2="6.0777974" style="fill:none;stroke:rgb(68,68,68);stroke-width:0.1942207;stroke-linecap:round;stroke-linejoin:round" />
<line x1="24.1842606" y1="7.3560646" x2="20.6138737" y2="5.286675" style="fill:none;stroke:rgb(68,68,68);stroke-width:0.1942207;stroke-linecap:round;stroke-linejoin:round" />
<path d="M20.4906492,17.0797638 L20.6480918,17.1934895 L23.3996799,14.0221629 L23.0181249,13.7465539 L22.6365698,13.4709448 Z" style="fill:rgb(68,68,68);stroke:none" />
<line x1="30.728445" y1="20.7519473" x2="30.728445" y2="18.151724" style="fill:none;stroke:rgb(68,68,68);stroke-width:0.1942207;stroke-linecap:round;stroke-linejoin:round" />
<path d="M9.3713414,40.6225235 L9.0978698,40.6225235 L8.3098248,39.1357306 L8.3098248,40.6225235 L8.1033258,40.6225235 L8.1033258,38.9604854 L8.4460026,38.9604854 L9.1648424,40.3177979 L9.1648424,38.9604854 L9.3713414,38.9604854 Z" style="fill:rgb(68,68,68);stroke:none" />
<path d="M9.3746901,42.4752663 L9.1536803,42.4752663 L9.1536803,41.6615485 L8.3243356,41.6615485 L8.3243356,42.4752663 L8.1033258,42.4752663 L8.1033258,40.8132282 L8.3243356,40.8132282 L8.3243356,41.4650954 L9.1536803,41.4650954 L9.1536803,40.8132282 L9.3746901,40.8132282 Z" style="fill:rgb(68,68,68);stroke:none" />
<path d="M5.0322759,31.4299929 Q5.1338511,31.541614 5.1879874,31.7034646 Q5.2421236,31.8653152 5.2421236,32.070698 Q5.2421236,32.2760808 5.1868711,32.4384895 Q5.1316187,32.6008982 5.0322759,32.7091706 Q4.9295845,32.8219079 4.7895,32.8788347 Q4.6494156,32.9357615 4.4697056,32.9357615 Q4.2944605,32.9357615 4.1510274,32.8777185 Q4.0075943,32.8196755 3.9071353,32.7091706 Q3.8066763,32.5986658 3.7525401,32.4379314 Q3.6984039,32.277197 3.6984039,32.070698 Q3.6984039,31.8675476 3.751982,31.7062551 Q3.8055601,31.5449626 3.9082515,31.4299929 Q4.0064781,31.3206042 4.1521436,31.2625613 Q4.2978091,31.2045183 4.4697056,31.2045183 Q4.6482994,31.2045183 4.7906163,31.2631194 Q4.9329332,31.3217204 5.0322759,31.4299929 Z M5.0121841,32.070698 Q5.0121841,31.7469968 4.8670767,31.5711936 Q4.7219693,31.3953904 4.4708218,31.3953904 Q4.2174419,31.3953904 4.0728926,31.5711936 Q3.9283433,31.7469968 3.9283433,32.070698 Q3.9283433,32.3977478 4.0756832,32.5713186 Q4.223023,32.7448894 4.4708218,32.7448894 Q4.7186207,32.7448894 4.8654024,32.5713186 Q5.0121841,32.3977478 5.0121841,32.070698 Z" style="fill:rgb(68,68,68);stroke:none" />
<path d="M0.5620122,39.1513575 Q0.6635874,39.2629786 0.7177236,39.4248292 Q0.7718599,39.5866798 0.7718599,39.7920626 Q0.7718599,39.9974454 0.7166074,40.1598541 Q0.661355,40.3222628 0.5620122,40.4305352 Q0.4593208,40.5432725 0.3192363,40.6001993 Q0.1791519,40.6571261 -0.0005581,40.6571261 Q-0.1758032,40.6571261 -0.3192363,40.5990831 Q-0.4626694,40.5410401 -0.5631284,40.4305352 Q-0.6635874,40.3200304 -0.7177236,40.159296 Q-0.7718599,39.9985616 -0.7718599,39.7920626 Q-0.7718599,39.5889122 -0.7182817,39.4276197 Q-0.6647036,39.2663272 -0.5620122,39.1513575 Q-0.4637856,39.0419688 -0.3181201,38.9839259 Q-0.1724546,38.9258829 -0.0005581,38.9258829 Q0.1780356,38.9258829 0.3203525,38.984484 Q0.4626694,39.043085 0.5620122,39.1513575 Z M0.5419204,39.7920626 Q0.5419204,39.4683614 0.396813,39.2925582 Q0.2517056,39.116755 0.0005581,39.116755 Q-0.2528218,39.116755 -0.3973711,39.2925582 Q-0.5419204,39.4683614 -0.5419204,39.7920626 Q-0.5419204,40.1191124 -0.3945806,40.2926832 Q-0.2472407,40.466254 0.0005581,40.466254 Q0.2483569,40.466254 0.3951387,40.2926832 Q0.5419204,40.1191124 0.5419204,39.7920626 Z" style="fill:rgb(68,68,68);stroke:none" />
<path d="M13.7696096,41.792877 Q13.8711848,41.9044981 13.925321,42.0663487 Q13.9794572,42.2281992 13.9794572,42.4335821 Q13.9794572,42.6389649 13.9242048,42.8013736 Q13.8689523,42.9637823 13.7696096,43.0720547 Q13.6669182,43.184792 13.5268337,43.2417188 Q13.3867492,43.2986455 13.2070392,43.2986455 Q13.0317941,43.2986455 12.888361,43.2406026 Q12.7449279,43.1825596 12.6444689,43.0720547 Q12.5440099,42.9615498 12.4898737,42.8008155 Q12.4357375,42.6400811 12.4357375,42.4335821 Q12.4357375,42.2304317 12.4893156,42.0691392 Q12.5428937,41.9078467 12.6455851,41.792877 Q12.7438117,41.6834883 12.8894772,41.6254453 Q13.0351428,41.5674024 13.2070392,41.5674024 Q13.385633,41.5674024 13.5279499,41.6260034 Q13.6702668,41.6846045 13.7696096,41.792877 Z M13.7495178,42.4335821 Q13.7495178,42.1098809 13.6044103,41.9340777 Q13.4593029,41.7582744 13.2081555,41.7582744 Q12.9547756,41.7582744 12.8102263,41.9340777 Q12.6656769,42.1098809 12.6656769,42.4335821 Q12.6656769,42.7606319 12.8130168,42.9342027 Q12.9603566,43.1077735 13.2081555,43.1077735 Q13.4559543,43.1077735 13.602736,42.9342027 Q13.7495178,42.7606319 13.7495178,42.4335821 Z" style="fill:rgb(68,68,68);stroke:none" />
<path d="M15.4415261,43.264043 L15.2205163,43.264043 L15.2205163,42.4503252 L14.3911716,42.4503252 L14.3911716,43.264043 L14.1701619,43.264043 L14.1701619,41.6020049 L14.3911716,41.6020049 L14.3911716,42.2538721 L15.2205163,42.2538721 L15.2205163,41.6020049 L15.4415261,41.6020049 Z" style="fill:rgb(68,68,68);stroke:none" />
<path d="M40.3120523,17.7442665 Q40.2506607,17.7710556 40.2009893,17.794496 Q40.1513179,17.8179365 40.0709507,17.8436093 Q40.0028619,17.8648173 39.9230528,17.8798862 Q39.8432437,17.894955 39.7472496,17.894955 Q39.5664234,17.894955 39.4185254,17.8441674 Q39.2706275,17.7933798 39.1612388,17.6851074 Q39.0540826,17.5790673 38.9938072,17.4155424 Q38.9335318,17.2520175 38.9335318,17.0354726 Q38.9335318,16.8300898 38.9915748,16.6682392 Q39.0496177,16.5063886 39.1590064,16.3947675 Q39.2650464,16.2864951 39.4151768,16.2295683 Q39.5653072,16.1726415 39.7483658,16.1726415 Q39.8823111,16.1726415 40.0156983,16.2050117 Q40.1490855,16.2373818 40.3120523,16.3188652 L40.3120523,16.5811747 L40.2953091,16.5811747 Q40.1580152,16.466205 40.0229537,16.4137431 Q39.8878921,16.3612812 39.733855,16.3612812 Q39.6077232,16.3612812 39.5067061,16.4020229 Q39.405689,16.4427646 39.326438,16.5287128 Q39.2494195,16.6124287 39.2064454,16.7402348 Q39.1634713,16.868041 39.1634713,17.0354726 Q39.1634713,17.2107177 39.2109102,17.3368495 Q39.2583492,17.4629814 39.3331353,17.5422324 Q39.4112701,17.624832 39.5156358,17.6644575 Q39.6200015,17.7040829 39.7360875,17.7040829 Q39.8957056,17.7040829 40.035232,17.6493886 Q40.1747584,17.5946943 40.2964254,17.4853056 L40.3120523,17.4853056 Z M40.8199283,17.8648173 L40.6100806,17.8648173 L40.6100806,16.1279931 L40.8199283,16.1279931 Z" style="fill:rgb(68,68,68);stroke:none" />
<path d="M48.9221379,21.2703026 Q49.0237131,21.3819237 49.0778493,21.5437743 Q49.1319855,21.7056249 49.1319855,21.9110077 Q49.1319855,22.1163905 49.0767331,22.2787992 Q49.0214807,22.4412079 48.9221379,22.5494804 Q48.8194465,22.6622177 48.679362,22.7191444 Q48.5392775,22.7760712 48.3595676,22.7760712 Q48.1843225,22.7760712 48.0408894,22.7180282 Q47.8974562,22.6599853 47.7969973,22.5494804 Q47.6965383,22.4389755 47.642402,22.2782411 Q47.5882658,22.1175067 47.5882658,21.9110077 Q47.5882658,21.7078573 47.6418439,21.5465648 Q47.6954221,21.3852724 47.7981135,21.2703026 Q47.89634,21.160914 48.0420056,21.102871 Q48.1876711,21.044828 48.3595676,21.044828 Q48.5381613,21.044828 48.6804782,21.1034291 Q48.8227951,21.1620302 48.9221379,21.2703026 Z M48.9020461,21.9110077 Q48.9020461,21.5873065 48.7569387,21.4115033 Q48.6118312,21.2357001 48.3606838,21.2357001 Q48.1073039,21.2357001 47.9627546,21.4115033 Q47.8182053,21.5873065 47.8182053,21.9110077 Q47.8182053,22.2380575 47.9655451,22.4116283 Q48.112885,22.5851991 48.3606838,22.5851991 Q48.6084826,22.5851991 48.7552644,22.4116283 Q48.9020461,22.2380575 48.9020461,21.9110077 Z" style="fill:rgb(68,68,68);stroke:none" />
<path d="M5.159524,22.6209179 Q5.0981324,22.6477069 5.048461,22.6711474 Q4.9987896,22.6945878 4.9184224,22.7202606 Q4.8503335,22.7414687 4.7705245,22.7565375 Q4.6907154,22.7716063 4.5947212,22.7716063 Q4.4138951,22.7716063 4.2659971,22.7208187 Q4.1180992,22.6700312 4.0087105,22.5617587 Q3.9015542,22.4557187 3.8412789,22.2921937 Q3.7810035,22.1286688 3.7810035,21.9121239 Q3.7810035,21.7067411 3.8390464,21.5448905 Q3.8970894,21.3830399 4.0064781,21.2714188 Q4.1125181,21.1631464 4.2626485,21.1062196 Q4.4127789,21.0492929 4.5958374,21.0492929 Q4.7297828,21.0492929 4.86317,21.081663 Q4.9965572,21.1140331 5.159524,21.1955165 L5.159524,21.4578261 L5.1427808,21.4578261 Q5.0054869,21.3428563 4.8704253,21.2903944 Q4.7353638,21.2379325 4.5813267,21.2379325 Q4.4551949,21.2379325 4.3541778,21.2786742 Q4.2531607,21.3194159 4.1739097,21.4053642 Q4.0968912,21.48908 4.053917,21.6168861 Q4.0109429,21.7446923 4.0109429,21.9121239 Q4.0109429,22.087369 4.0583819,22.2135009 Q4.1058208,22.3396327 4.180607,22.4188837 Q4.2587417,22.5014833 4.3631075,22.5411088 Q4.4674732,22.5807343 4.5835591,22.5807343 Q4.7431773,22.5807343 4.8827037,22.5260399 Q5.02223,22.4713456 5.143897,22.3619569 L5.159524,22.3619569 Z" style="fill:rgb(68,68,68);stroke:none" />
<path d="M2.7425924,22.7414687 L2.5215827,22.7414687 L2.5215827,21.9277509 L1.6922379,21.9277509 L1.6922379,22.7414687 L1.4712282,22.7414687 L1.4712282,21.0794306 L1.6922379,21.0794306 L1.6922379,21.7312978 L2.5215827,21.7312978 L2.5215827,21.0794306 L2.7425924,21.0794306 Z" style="fill:rgb(68,68,68);stroke:none" />
<path d="M3.5166289,22.7598861 Q3.5487758,22.7886844 3.5695373,22.8322166 Q3.5902988,22.8757488 3.5902988,22.9447307 Q3.5902988,23.0130428 3.5655189,23.0699695 Q3.5407391,23.1268963 3.4958674,23.1690891 Q3.4456379,23.2159699 3.3776606,23.2384058 Q3.3096834,23.2608416 3.2286465,23.2608416 Q3.1456004,23.2608416 3.0652332,23.2410847 Q2.984866,23.2213277 2.9332971,23.1978873 L2.9332971,23.0579145 L2.943343,23.0579145 Q3.0002697,23.0954191 3.0772883,23.120199 Q3.1543068,23.1449789 3.2259676,23.1449789 Q3.2681603,23.1449789 3.3157109,23.1309146 Q3.3632615,23.1168504 3.3927295,23.0893916 Q3.4235369,23.0599236 3.4386058,23.0244281 Q3.4536746,22.9889326 3.4536746,22.9346848 Q3.4536746,22.8811066 3.4365966,22.845946 Q3.4195186,22.8107854 3.3893809,22.7906936 Q3.3592432,22.769932 3.3163807,22.7622302 Q3.2735182,22.7545283 3.2239584,22.7545283 L3.163683,22.7545283 L3.163683,22.6433537 L3.2105639,22.6433537 Q3.3123623,22.6433537 3.3729726,22.6008261 Q3.4335828,22.5582984 3.4335828,22.4765918 Q3.4335828,22.4404266 3.4181791,22.4133026 Q3.4027754,22.3861787 3.3753166,22.3687658 Q3.3465184,22.3513529 3.3137018,22.3446557 Q3.2808852,22.3379584 3.2393621,22.3379584 Q3.1757381,22.3379584 3.1040773,22.3607291 Q3.0324166,22.3834998 2.9687926,22.4250229 L2.9620953,22.4250229 L2.9620953,22.28505 Q3.0096459,22.2616096 3.0890085,22.2418526 Q3.1683711,22.2220957 3.2427107,22.2220957 Q3.3157109,22.2220957 3.3712982,22.2354902 Q3.4268855,22.2488848 3.4717572,22.2783527 Q3.5199775,22.3104996 3.5447574,22.356041 Q3.5695373,22.4015824 3.5695373,22.4625275 Q3.5695373,22.5455736 3.5109362,22.6075233 Q3.4523352,22.669473 3.3726377,22.6855465 L3.3726377,22.6949227 Q3.4047846,22.7002805 3.4463076,22.7173585 Q3.4878307,22.7344365 3.5166289,22.7598861 Z" style="fill:rgb(68,68,68);stroke:none" />
<path d="M18.2398733,44.2312026 Q18.3414485,44.3428237 18.3955847,44.5046743 Q18.4497209,44.6665249 18.4497209,44.8719077 Q18.4497209,45.0772905 18.3944685,45.2396992 Q18.339216,45.4021079 18.2398733,45.5103804 Q18.1371819,45.6231177 17.9970974,45.6800444 Q17.8570129,45.7369712 17.677303,45.7369712 Q17.5020578,45.7369712 17.3586247,45.6789282 Q17.2151916,45.6208853 17.1147327,45.5103804 Q17.0142737,45.3998755 16.9601374,45.2391411 Q16.9060012,45.0784067 16.9060012,44.8719077 Q16.9060012,44.6687573 16.9595793,44.5074649 Q17.0131575,44.3461724 17.1158489,44.2312026 Q17.2140754,44.121814 17.359741,44.063771 Q17.5054065,44.005728 17.677303,44.005728 Q17.8558967,44.005728 17.9982136,44.0643291 Q18.1405305,44.1229302 18.2398733,44.2312026 Z M18.2197815,44.8719077 Q18.2197815,44.5482066 18.0746741,44.3724033 Q17.9295666,44.1966001 17.6784192,44.1966001 Q17.4250393,44.1966001 17.28049,44.3724033 Q17.1359407,44.5482066 17.1359407,44.8719077 Q17.1359407,45.1989575 17.2832805,45.3725283 Q17.4306203,45.5460991 17.6784192,45.5460991 Q17.926218,45.5460991 18.0729997,45.3725283 Q18.2197815,45.1989575 18.2197815,44.8719077 Z" style="fill:rgb(68,68,68);stroke:none" />
<path d="M35.8417886,45.5818179 Q35.780397,45.6086069 35.7307256,45.6320474 Q35.6810542,45.6554878 35.600687,45.6811607 Q35.5325982,45.7023687 35.4527891,45.7174375 Q35.37298,45.7325064 35.2769859,45.7325064 Q35.0961597,45.7325064 34.9482617,45.6817188 Q34.8003638,45.6309312 34.6909751,45.5226587 Q34.5838189,45.4166187 34.5235435,45.2530938 Q34.4632681,45.0895689 34.4632681,44.8730239 Q34.4632681,44.6676411 34.521311,44.5057905 Q34.579354,44.3439399 34.6887427,44.2323189 Q34.7947827,44.1240464 34.9449131,44.0671196 Q35.0950435,44.0101929 35.2781021,44.0101929 Q35.4120474,44.0101929 35.5454346,44.042563 Q35.6788218,44.0749331 35.8417886,44.1564165 L35.8417886,44.4187261 L35.8250454,44.4187261 Q35.6877515,44.3037564 35.55269,44.2512944 Q35.4176284,44.1988325 35.2635913,44.1988325 Q35.1374595,44.1988325 35.0364424,44.2395742 Q34.9354253,44.2803159 34.8561743,44.3662642 Q34.7791558,44.44998 34.7361817,44.5777861 Q34.6932075,44.7055923 34.6932075,44.8730239 Q34.6932075,45.0482691 34.7406465,45.1744009 Q34.7880855,45.3005327 34.8628716,45.3797837 Q34.9410064,45.4623833 35.0453721,45.5020088 Q35.1497378,45.5416343 35.2658237,45.5416343 Q35.4254419,45.5416343 35.5649683,45.4869399 Q35.7044946,45.4322456 35.8261616,45.3228569 L35.8417886,45.3228569 Z" style="fill:rgb(68,68,68);stroke:none" />
<path d="M37.3038575,45.7023687 L37.0828477,45.7023687 L37.0828477,44.8886509 L36.253503,44.8886509 L36.253503,45.7023687 L36.0324932,45.7023687 L36.0324932,44.0403306 L36.253503,44.0403306 L36.253503,44.6921978 L37.0828477,44.6921978 L37.0828477,44.0403306 L37.3038575,44.0403306 Z" style="fill:rgb(68,68,68);stroke:none" />
<path d="M38.077894,45.7207861 Q38.1100408,45.7495844 38.1308024,45.7931166 Q38.1515639,45.8366488 38.1515639,45.9056307 Q38.1515639,45.9739428 38.126784,46.0308695 Q38.1020041,46.0877963 38.0571324,46.1299891 Q38.0069029,46.1768699 37.9389257,46.1993058 Q37.8709484,46.2217416 37.7899115,46.2217416 Q37.7068654,46.2217416 37.6264983,46.2019847 Q37.5461311,46.1822277 37.4945621,46.1587873 L37.4945621,46.0188145 L37.504608,46.0188145 Q37.5615348,46.0563191 37.6385533,46.081099 Q37.7155719,46.1058789 37.7872326,46.1058789 Q37.8294254,46.1058789 37.876976,46.0918147 Q37.9245266,46.0777504 37.9539945,46.0502916 Q37.984802,46.0208236 37.9998708,45.9853281 Q38.0149397,45.9498326 38.0149397,45.8955848 Q38.0149397,45.8420066 37.9978616,45.806846 Q37.9807836,45.7716854 37.9506459,45.7515936 Q37.9205082,45.730832 37.8776457,45.7231302 Q37.8347832,45.7154283 37.7852234,45.7154283 L37.7249481,45.7154283 L37.7249481,45.6042537 L37.7718289,45.6042537 Q37.8736274,45.6042537 37.9342376,45.5617261 Q37.9948479,45.5191984 37.9948479,45.4374918 Q37.9948479,45.4013266 37.9794442,45.3742026 Q37.9640404,45.3470787 37.9365817,45.3296658 Q37.9077834,45.3122529 37.8749668,45.3055557 Q37.8421502,45.2988584 37.8006272,45.2988584 Q37.7370031,45.2988584 37.6653424,45.3216291 Q37.5936817,45.3443998 37.5300576,45.3859229 L37.5233604,45.3859229 L37.5233604,45.24595 Q37.5709109,45.2225096 37.6502735,45.2027526 Q37.7296361,45.1829957 37.8039758,45.1829957 Q37.876976,45.1829957 37.9325633,45.1963902 Q37.9881506,45.2097848 38.0330223,45.2392527 Q38.0812426,45.2713996 38.1060225,45.316941 Q38.1308024,45.3624824 38.1308024,45.4234275 Q38.1308024,45.5064736 38.0722013,45.5684233 Q38.0136002,45.6303731 37.9339027,45.6464465 L37.9339027,45.6558227 Q37.9660496,45.6611805 38.0075727,45.6782585 Q38.0490957,45.6953365 38.077894,45.7207861 Z" style="fill:rgb(68,68,68);stroke:none" />
<path d="M49.0493859,17.7442665 Q48.9879943,17.7710556 48.9383229,17.794496 Q48.8886516,17.8179365 48.8082844,17.8436093 Q48.7401955,17.8648173 48.6603864,17.8798862 Q48.5805773,17.894955 48.4845832,17.894955 Q48.303757,17.894955 48.1558591,17.8441674 Q48.0079611,17.7933798 47.8985725,17.6851074 Q47.7914162,17.5790673 47.7311408,17.4155424 Q47.6708654,17.2520175 47.6708654,17.0354726 Q47.6708654,16.8300898 47.7289084,16.6682392 Q47.7869514,16.5063886 47.89634,16.3947675 Q48.0023801,16.2864951 48.1525104,16.2295683 Q48.3026408,16.1726415 48.4856994,16.1726415 Q48.6196447,16.1726415 48.7530319,16.2050117 Q48.8864191,16.2373818 49.0493859,16.3188652 L49.0493859,16.5811747 L49.0326428,16.5811747 Q48.8953488,16.466205 48.7602873,16.4137431 Q48.6252258,16.3612812 48.4711887,16.3612812 Q48.3450568,16.3612812 48.2440397,16.4020229 Q48.1430227,16.4427646 48.0637717,16.5287128 Q47.9867531,16.6124287 47.943779,16.7402348 Q47.9008049,16.868041 47.9008049,17.0354726 Q47.9008049,17.2107177 47.9482438,17.3368495 Q47.9956828,17.4629814 48.0704689,17.5422324 Q48.1486037,17.624832 48.2529694,17.6644575 Q48.3573352,17.7040829 48.4734211,17.7040829 Q48.6330393,17.7040829 48.7725656,17.6493886 Q48.912092,17.5946943 49.033759,17.4853056 L49.0493859,17.4853056 Z" style="fill:rgb(68,68,68);stroke:none" />
<path d="M50.5114548,17.8648173 L50.2904451,17.8648173 L50.2904451,17.0510995 L49.4611003,17.0510995 L49.4611003,17.8648173 L49.2400906,17.8648173 L49.2400906,16.2027792 L49.4611003,16.2027792 L49.4611003,16.8546464 L50.2904451,16.8546464 L50.2904451,16.2027792 L50.5114548,16.2027792 Z" style="fill:rgb(68,68,68);stroke:none" />
<path d="M51.2854913,17.8832348 Q51.3176382,17.912033 51.3383997,17.9555653 Q51.3591612,17.9990975 51.3591612,18.0680793 Q51.3591612,18.1363914 51.3343813,18.1933182 Q51.3096015,18.250245 51.2647298,18.2924377 Q51.2145003,18.3393186 51.146523,18.3617544 Q51.0785458,18.3841903 50.9975089,18.3841903 Q50.9144628,18.3841903 50.8340956,18.3644333 Q50.7537284,18.3446764 50.7021595,18.321236 L50.7021595,18.1812631 L50.7122054,18.1812631 Q50.7691321,18.2187678 50.8461507,18.2435477 Q50.9231692,18.2683276 50.99483,18.2683276 Q51.0370228,18.2683276 51.0845733,18.2542633 Q51.1321239,18.2401991 51.1615919,18.2127403 Q51.1923993,18.1832723 51.2074682,18.1477768 Q51.222537,18.1122813 51.222537,18.0580334 Q51.222537,18.0044553 51.205459,17.9692947 Q51.188381,17.934134 51.1582433,17.9140422 Q51.1281056,17.8932807 51.0852431,17.8855788 Q51.0423806,17.877877 50.9928208,17.877877 L50.9325454,17.877877 L50.9325454,17.7667024 L50.9794263,17.7667024 Q51.0812247,17.7667024 51.141835,17.7241747 Q51.2024452,17.6816471 51.2024452,17.5999405 Q51.2024452,17.5637752 51.1870415,17.5366513 Q51.1716378,17.5095274 51.144179,17.4921145 Q51.1153808,17.4747016 51.0825642,17.4680043 Q51.0497476,17.4613071 51.0082245,17.4613071 Q50.9446005,17.4613071 50.8729397,17.4840778 Q50.801279,17.5068485 50.737655,17.5483715 L50.7309577,17.5483715 L50.7309577,17.4083987 Q50.7785083,17.3849582 50.8578709,17.3652013 Q50.9372335,17.3454444 51.0115731,17.3454444 Q51.0845733,17.3454444 51.1401606,17.3588389 Q51.1957479,17.3722334 51.2406196,17.4017014 Q51.2888399,17.4338483 51.3136198,17.4793897 Q51.3383997,17.5249311 51.3383997,17.5858762 Q51.3383997,17.6689223 51.2797986,17.730872 Q51.2211976,17.7928217 51.1415001,17.8088952 L51.1415001,17.8182713 Q51.173647,17.8236291 51.21517,17.8407072 Q51.2566931,17.8577852 51.2854913,17.8832348 Z" style="fill:rgb(68,68,68);stroke:none" />
<path d="M22.6341912,48.0201435 Q22.5727996,48.0469326 22.5231282,48.070373 Q22.4734569,48.0938135 22.3930897,48.1194863 Q22.3250008,48.1406943 22.2451917,48.1557632 Q22.1653826,48.170832 22.0693885,48.170832 Q21.8885623,48.170832 21.7406644,48.1200444 Q21.5927664,48.0692568 21.4833778,47.9609844 Q21.3762215,47.8549443 21.3159461,47.6914194 Q21.2556707,47.5278945 21.2556707,47.3113496 Q21.2556707,47.1059668 21.3137137,46.9441162 Q21.3717567,46.7822656 21.4811453,46.6706445 Q21.5871854,46.5623721 21.7373157,46.5054453 Q21.8874461,46.4485185 22.0705047,46.4485185 Q22.20445,46.4485185 22.3378372,46.4808887 Q22.4712244,46.5132588 22.6341912,46.5947422 L22.6341912,46.8570517 L22.6174481,46.8570517 Q22.4801541,46.742082 22.3450926,46.6896201 Q22.2100311,46.6371582 22.055994,46.6371582 Q21.9298621,46.6371582 21.828845,46.6778999 Q21.727828,46.7186416 21.648577,46.8045898 Q21.5715584,46.8883057 21.5285843,47.0161118 Q21.4856102,47.143918 21.4856102,47.3113496 Q21.4856102,47.4865947 21.5330491,47.6127266 Q21.5804881,47.7388584 21.6552742,47.8181094 Q21.733409,47.900709 21.8377747,47.9403345 Q21.9421405,47.97996 22.0582264,47.97996 Q22.2178446,47.97996 22.3573709,47.9252656 Q22.4968973,47.8705713 22.6185643,47.7611826 L22.6341912,47.7611826 Z" style="fill:rgb(68,68,68);stroke:none" />
<path d="M24.0962601,48.1406943 L23.8752504,48.1406943 L23.8752504,47.3269766 L23.0459056,47.3269766 L23.0459056,48.1406943 L22.8248959,48.1406943 L22.8248959,46.4786562 L23.0459056,46.4786562 L23.0459056,47.1305234 L23.8752504,47.1305234 L23.8752504,46.4786562 L24.0962601,46.4786562 Z" style="fill:rgb(68,68,68);stroke:none" />
<path d="M24.8702966,48.1591118 Q24.9024435,48.18791 24.923205,48.2314423 Q24.9439665,48.2749745 24.9439665,48.3439563 Q24.9439665,48.4122684 24.9191866,48.4691952 Q24.8944068,48.526122 24.8495351,48.5683147 Q24.7993056,48.6151956 24.7313283,48.6376314 Q24.6633511,48.6600673 24.5823142,48.6600673 Q24.4992681,48.6600673 24.4189009,48.6403103 Q24.3385337,48.6205534 24.2869648,48.597113 L24.2869648,48.4571401 L24.2970107,48.4571401 Q24.3539374,48.4946448 24.430956,48.5194247 Q24.5079745,48.5442046 24.5796353,48.5442046 Q24.6218281,48.5442046 24.6693786,48.5301403 Q24.7169292,48.5160761 24.7463972,48.4886173 Q24.7772046,48.4591493 24.7922735,48.4236538 Q24.8073423,48.3881583 24.8073423,48.3339104 Q24.8073423,48.2803323 24.7902643,48.2451717 Q24.7731863,48.210011 24.7430486,48.1899192 Q24.7129109,48.1691577 24.6700484,48.1614558 Q24.6271859,48.153754 24.5776261,48.153754 L24.5173507,48.153754 L24.5173507,48.0425794 L24.5642316,48.0425794 Q24.66603,48.0425794 24.7266403,48.0000517 Q24.7872505,47.9575241 24.7872505,47.8758175 Q24.7872505,47.8396522 24.7718468,47.8125283 Q24.7564431,47.7854044 24.7289843,47.7679915 Q24.7001861,47.7505786 24.6673695,47.7438813 Q24.6345529,47.7371841 24.5930298,47.7371841 Q24.5294058,47.7371841 24.457745,47.7599548 Q24.3860843,47.7827255 24.3224603,47.8242485 L24.315763,47.8242485 L24.315763,47.6842757 Q24.3633136,47.6608352 24.4426762,47.6410783 Q24.5220388,47.6213214 24.5963784,47.6213214 Q24.6693786,47.6213214 24.7249659,47.6347159 Q24.7805532,47.6481104 24.8254249,47.6775784 Q24.8736452,47.7097253 24.8984251,47.7552667 Q24.923205,47.8008081 24.923205,47.8617532 Q24.923205,47.9447993 24.8646039,48.006749 Q24.8060029,48.0686987 24.7263054,48.0847722 L24.7263054,48.0941483 Q24.7584523,48.0995061 24.7999753,48.1165842 Q24.8414984,48.1336622 24.8702966,48.1591118 Z" style="fill:rgb(68,68,68);stroke:none" />
<path d="M5.1059458,27.8213138 L4.8849361,27.8213138 L4.8849361,27.007596 L4.0555914,27.007596 L4.0555914,27.8213138 L3.8345816,27.8213138 L3.8345816,26.1592757 L4.0555914,26.1592757 L4.0555914,26.8111429 L4.8849361,26.8111429 L4.8849361,26.1592757 L5.1059458,26.1592757 Z" style="fill:rgb(68,68,68);stroke:none" />
<path d="M31.3624528,22.8024268 L31.0889812,22.8024268 L30.3009362,21.3156338 L30.3009362,22.8024268 L30.0944372,22.8024268 L30.0944372,21.1403887 L30.437114,21.1403887 L31.1559538,22.4977012 L31.1559538,21.1403887 L31.3624528,21.1403887 Z" style="fill:rgb(68,68,68);stroke:none" />
<path d="M26.8842303,28.9208573 Q26.9858055,29.0324784 27.0399418,29.194329 Q27.094078,29.3561795 27.094078,29.5615624 Q27.094078,29.7669452 27.0388256,29.9293539 Q26.9835731,30.0917626 26.8842303,30.200035 Q26.7815389,30.3127723 26.6414545,30.3696991 Q26.50137,30.4266258 26.32166,30.4266258 Q26.1464149,30.4266258 26.0029818,30.3685829 Q25.8595487,30.3105399 25.7590897,30.200035 Q25.6586307,30.0895301 25.6044945,29.9287958 Q25.5503583,29.7680614 25.5503583,29.5615624 Q25.5503583,29.358412 25.6039364,29.1971195 Q25.6575145,29.035827 25.7602059,28.9208573 Q25.8584325,28.8114686 26.004098,28.7534256 Q26.1497636,28.6953827 26.32166,28.6953827 Q26.5002538,28.6953827 26.6425707,28.7539837 Q26.7848876,28.8125848 26.8842303,28.9208573 Z M26.8641386,29.5615624 Q26.8641386,29.2378612 26.7190311,29.062058 Q26.5739237,28.8862547 26.3227762,28.8862547 Q26.0693964,28.8862547 25.924847,29.062058 Q25.7802977,29.2378612 25.7802977,29.5615624 Q25.7802977,29.8886122 25.9276376,30.062183 Q26.0749774,30.2357538 26.3227762,30.2357538 Q26.5705751,30.2357538 26.7173568,30.062183 Q26.8641386,29.8886122 26.8641386,29.5615624 Z" style="fill:rgb(68,68,68);stroke:none" />
<path d="M10.140445,17.8049246 Q10.2420202,17.9165457 10.2961565,18.0783963 Q10.3502927,18.2402469 10.3502927,18.4456297 Q10.3502927,18.6510125 10.2950403,18.8134212 Q10.2397878,18.9758299 10.140445,19.0841024 Q10.0377536,19.1968397 9.8976692,19.2537664 Q9.7575847,19.3106932 9.5778747,19.3106932 Q9.4026296,19.3106932 9.2591965,19.2526502 Q9.1157634,19.1946073 9.0153044,19.0841024 Q8.9148454,18.9735975 8.8607092,18.8128631 Q8.806573,18.6521287 8.806573,18.4456297 Q8.806573,18.2424793 8.8601511,18.0811869 Q8.9137292,17.9198944 9.0164206,17.8049246 Q9.1146472,17.695536 9.2603127,17.637493 Q9.4059782,17.57945 9.5778747,17.57945 Q9.7564685,17.57945 9.8987854,17.6380511 Q10.0411023,17.6966522 10.140445,17.8049246 Z M10.1203532,18.4456297 Q10.1203532,18.1219286 9.9752458,17.9461253 Q9.8301384,17.7703221 9.5789909,17.7703221 Q9.3256111,17.7703221 9.1810617,17.9461253 Q9.0365124,18.1219286 9.0365124,18.4456297 Q9.0365124,18.7726795 9.1838523,18.9462503 Q9.3311921,19.1198211 9.5789909,19.1198211 Q9.8267898,19.1198211 9.9735715,18.9462503 Q10.1203532,18.7726795 10.1203532,18.4456297 Z" style="fill:rgb(68,68,68);stroke:none" />
<path d="M12.6900095,13.4402523 Q12.6286179,13.4670414 12.5789466,13.4904818 Q12.5292752,13.5139222 12.448908,13.5395951 Q12.3808191,13.5608031 12.30101,13.5758719 Q12.221201,13.5909408 12.1252068,13.5909408 Q11.9443806,13.5909408 11.7964827,13.5401532 Q11.6485847,13.4893656 11.5391961,13.3810931 Q11.4320398,13.2750531 11.3717644,13.1115282 Q11.311489,12.9480033 11.311489,12.7314584 Q11.311489,12.5260755 11.369532,12.364225 Q11.427575,12.2023744 11.5369636,12.0907533 Q11.6430037,11.9824808 11.7931341,11.9255541 Q11.9432644,11.8686273 12.126323,11.8686273 Q12.2602683,11.8686273 12.3936555,11.9009974 Q12.5270428,11.9333675 12.6900095,12.0148509 L12.6900095,12.2771605 L12.6732664,12.2771605 Q12.5359724,12.1621908 12.4009109,12.1097289 Q12.2658494,12.0572669 12.1118123,12.0572669 Q11.9856804,12.0572669 11.8846634,12.0980086 Q11.7836463,12.1387503 11.7043953,12.2246986 Q11.6273767,12.3084144 11.5844026,12.4362206 Q11.5414285,12.5640267 11.5414285,12.7314584 Q11.5414285,12.9067035 11.5888675,13.0328353 Q11.6363064,13.1589671 11.7110926,13.2382181 Q11.7892273,13.3208177 11.893593,13.3604432 Q11.9979588,13.4000687 12.1140447,13.4000687 Q12.2736629,13.4000687 12.4131892,13.3453744 Q12.5527156,13.29068 12.6743826,13.1812914 L12.6900095,13.1812914 Z" style="fill:rgb(68,68,68);stroke:none" />
<path d="M10.273078,13.5608031 L10.0520682,13.5608031 L10.0520682,12.7470853 L9.2227235,12.7470853 L9.2227235,13.5608031 L9.0017137,13.5608031 L9.0017137,11.898765 L9.2227235,11.898765 L9.2227235,12.5506322 L10.0520682,12.5506322 L10.0520682,11.898765 L10.273078,11.898765 Z" style="fill:rgb(68,68,68);stroke:none" />
<path d="M11.0471145,13.5792206 Q11.0792614,13.6080188 11.1000229,13.651551 Q11.1207844,13.6950833 11.1207844,13.7640651 Q11.1207844,13.8323772 11.0960045,13.889304 Q11.0712246,13.9462307 11.026353,13.9884235 Q10.9761235,14.0353044 10.9081462,14.0577402 Q10.840169,14.080176 10.7591321,14.080176 Q10.676086,14.080176 10.5957188,14.0604191 Q10.5153516,14.0406622 10.4637826,14.0172217 L10.4637826,13.8772489 L10.4738285,13.8772489 Q10.5307553,13.9147536 10.6077739,13.9395335 Q10.6847924,13.9643133 10.7564532,13.9643133 Q10.7986459,13.9643133 10.8461965,13.9502491 Q10.8937471,13.9361848 10.9232151,13.908726 Q10.9540225,13.8792581 10.9690913,13.8437626 Q10.9841602,13.808267 10.9841602,13.7540192 Q10.9841602,13.7004411 10.9670822,13.6652804 Q10.9500041,13.6301198 10.9198664,13.610028 Q10.8897287,13.5892665 10.8468662,13.5815646 Q10.8040037,13.5738627 10.754444,13.5738627 L10.6941686,13.5738627 L10.6941686,13.4626881 L10.7410494,13.4626881 Q10.8428479,13.4626881 10.9034581,13.4201605 Q10.9640684,13.3776329 10.9640684,13.2959262 Q10.9640684,13.259761 10.9486647,13.2326371 Q10.933261,13.2055131 10.9058022,13.1881002 Q10.8770039,13.1706874 10.8441873,13.1639901 Q10.8113707,13.1572928 10.7698477,13.1572928 Q10.7062237,13.1572928 10.6345629,13.1800635 Q10.5629022,13.2028342 10.4992782,13.2443573 L10.4925809,13.2443573 L10.4925809,13.1043844 Q10.5401315,13.080944 10.6194941,13.0611871 Q10.6988567,13.0414301 10.7731963,13.0414301 Q10.8461965,13.0414301 10.9017838,13.0548247 Q10.9573711,13.0682192 11.0022428,13.0976872 Q11.0504631,13.129834 11.075243,13.1753754 Q11.1000229,13.2209169 11.1000229,13.281862 Q11.1000229,13.3649081 11.0414218,13.4268578 Q10.9828207,13.4888075 10.9031233,13.5048809 L10.9031233,13.5142571 Q10.9352701,13.5196149 10.9767932,13.5366929 Q11.0183162,13.553771 11.0471145,13.5792206 Z" style="fill:rgb(68,68,68);stroke:none" />
<path d="M17.4712125,26.5362669 L17.2502027,26.5362669 L17.2502027,25.7225491 L16.420858,25.7225491 L16.420858,26.5362669 L16.1998483,26.5362669 L16.1998483,24.8742288 L16.420858,24.8742288 L16.420858,25.526096 L17.2502027,25.526096 L17.2502027,24.8742288 L17.4712125,24.8742288 Z" style="fill:rgb(68,68,68);stroke:none" />
<path d="M24.3141366,12.0902528 Q24.4157118,12.2018739 24.469848,12.3637245 Q24.5239842,12.5255751 24.5239842,12.7309579 Q24.5239842,12.9363407 24.4687318,13.0987494 Q24.4134794,13.2611581 24.3141366,13.3694305 Q24.2114452,13.4821678 24.0713607,13.5390946 Q23.9312762,13.5960214 23.7515663,13.5960214 Q23.5763211,13.5960214 23.432888,13.5379784 Q23.2894549,13.4799354 23.188996,13.3694305 Q23.088537,13.2589257 23.0344007,13.0981913 Q22.9802645,12.9374569 22.9802645,12.7309579 Q22.9802645,12.5278075 23.0338426,12.366515 Q23.0874208,12.2052225 23.1901122,12.0902528 Q23.2883387,11.9808641 23.4340043,11.9228212 Q23.5796698,11.8647782 23.7515663,11.8647782 Q23.93016,11.8647782 24.0724769,11.9233793 Q24.2147938,11.9819803 24.3141366,12.0902528 Z M24.2940448,12.7309579 Q24.2940448,12.4072567 24.1489374,12.2314535 Q24.0038299,12.0556503 23.7526825,12.0556503 Q23.4993026,12.0556503 23.3547533,12.2314535 Q23.210204,12.4072567 23.210204,12.7309579 Q23.210204,13.0580077 23.3575438,13.2315785 Q23.5048836,13.4051493 23.7526825,13.4051493 Q24.0004813,13.4051493 24.147263,13.2315785 Q24.2940448,13.0580077 24.2940448,12.7309579 Z" style="fill:rgb(68,68,68);stroke:none" />
<path d="M42.0139544,8.330236 Q41.9525628,8.357025 41.9028914,8.3804655 Q41.85322,8.4039059 41.7728528,8.4295787 Q41.7047639,8.4507867 41.6249548,8.4658556 Q41.5451458,8.4809244 41.4491516,8.4809244 Q41.2683255,8.4809244 41.1204275,8.4301368 Q40.9725296,8.3793492 40.8631409,8.2710768 Q40.7559846,8.1650367 40.6957092,8.0015118 Q40.6354339,7.8379869 40.6354339,7.621442 Q40.6354339,7.4160592 40.6934768,7.2542086 Q40.7515198,7.092358 40.8609085,6.9807369 Q40.9669485,6.8724645 41.1170789,6.8155377 Q41.2672092,6.758611 41.4502678,6.758611 Q41.5842131,6.758611 41.7176004,6.7909811 Q41.8509876,6.8233512 42.0139544,6.9048346 L42.0139544,7.1671442 L41.9972112,7.1671442 Q41.8599173,7.0521744 41.7248557,6.9997125 Q41.5897942,6.9472506 41.4357571,6.9472506 Q41.3096253,6.9472506 41.2086082,6.9879923 Q41.1075911,7.028734 41.0283401,7.1146823 Q40.9513215,7.1983981 40.9083474,7.3262042 Q40.8653733,7.4540104 40.8653733,7.621442 Q40.8653733,7.7966871 40.9128123,7.922819 Q40.9602512,8.0489508 41.0350374,8.1282018 Q41.1131721,8.2108014 41.2175379,8.2504269 Q41.3219036,8.2900524 41.4379895,8.2900524 Q41.5976077,8.2900524 41.737134,8.235358 Q41.8766604,8.1806637 41.9983274,8.071275 L42.0139544,8.071275 Z" style="fill:rgb(68,68,68);stroke:none" />
<path d="M43.4760233,8.4507867 L43.2550135,8.4507867 L43.2550135,7.637069 L42.4256688,7.637069 L42.4256688,8.4507867 L42.204659,8.4507867 L42.204659,6.7887487 L42.4256688,6.7887487 L42.4256688,7.4406158 L43.2550135,7.4406158 L43.2550135,6.7887487 L43.4760233,6.7887487 Z" style="fill:rgb(68,68,68);stroke:none" />
<path d="M44.2500597,8.4692042 Q44.2822066,8.4980025 44.3029681,8.5415347 Q44.3237297,8.5850669 44.3237297,8.6540488 Q44.3237297,8.7223609 44.2989498,8.7792876 Q44.2741699,8.8362144 44.2292982,8.8784072 Q44.1790687,8.925288 44.1110915,8.9477239 Q44.0431142,8.9701597 43.9620773,8.9701597 Q43.8790312,8.9701597 43.798664,8.9504028 Q43.7182968,8.9306458 43.6667279,8.9072054 L43.6667279,8.7672325 L43.6767738,8.7672325 Q43.7337006,8.8047372 43.8107191,8.8295171 Q43.8877377,8.854297 43.9593984,8.854297 Q44.0015912,8.854297 44.0491418,8.8402327 Q44.0966923,8.8261685 44.1261603,8.7987097 Q44.1569677,8.7692417 44.1720366,8.7337462 Q44.1871054,8.6982507 44.1871054,8.6440029 Q44.1871054,8.5904247 44.1700274,8.5552641 Q44.1529494,8.5201034 44.1228117,8.5000116 Q44.092674,8.4792501 44.0498115,8.4715483 Q44.006949,8.4638464 43.9573892,8.4638464 L43.8971138,8.4638464 L43.8971138,8.3526718 L43.9439947,8.3526718 Q44.0457931,8.3526718 44.1064034,8.3101442 Q44.1670136,8.2676165 44.1670136,8.1859099 Q44.1670136,8.1497447 44.1516099,8.1226207 Q44.1362062,8.0954968 44.1087474,8.0780839 Q44.0799492,8.060671 44.0471326,8.0539738 Q44.014316,8.0472765 43.9727929,8.0472765 Q43.9091689,8.0472765 43.8375082,8.0700472 Q43.7658474,8.0928179 43.7022234,8.1343409 L43.6955261,8.1343409 L43.6955261,7.9943681 Q43.7430767,7.9709277 43.8224393,7.9511707 Q43.9018019,7.9314138 43.9761416,7.9314138 Q44.0491418,7.9314138 44.1047291,7.9448083 Q44.1603164,7.9582029 44.2051881,7.9876708 Q44.2534084,8.0198177 44.2781882,8.0653591 Q44.3029681,8.1109005 44.3029681,8.1718456 Q44.3029681,8.2548917 44.2443671,8.3168414 Q44.185766,8.3787911 44.1060685,8.3948646 L44.1060685,8.4042407 Q44.1382154,8.4095986 44.1797384,8.4266766 Q44.2212615,8.4437546 44.2500597,8.4692042 Z" style="fill:rgb(68,68,68);stroke:none" />
<path d="M33.1597944,8.4507867 L32.8863227,8.4507867 L32.0982778,6.9639938 L32.0982778,8.4507867 L31.8917788,8.4507867 L31.8917788,6.7887487 L32.2344555,6.7887487 L32.9532954,8.1460612 L32.9532954,6.7887487 L33.1597944,6.7887487 Z" style="fill:rgb(68,68,68);stroke:none" />
<path d="M37.4724748,-0.640147 Q37.57405,-0.5285259 37.6281863,-0.3666753 Q37.6823225,-0.2048247 37.6823225,0.0005581 Q37.6823225,0.2059409 37.62707,0.3683496 Q37.5718176,0.5307583 37.4724748,0.6390308 Q37.3697834,0.7517681 37.2296989,0.8086948 Q37.0896145,0.8656216 36.9099045,0.8656216 Q36.7346594,0.8656216 36.5912263,0.8075786 Q36.4477932,0.7495356 36.3473342,0.6390308 Q36.2468752,0.5285259 36.192739,0.3677915 Q36.1386028,0.2070571 36.1386028,0.0005581 Q36.1386028,-0.2025923 36.1921809,-0.3638848 Q36.245759,-0.5251772 36.3484504,-0.640147 Q36.446677,-0.7495356 36.5923425,-0.8075786 Q36.738008,-0.8656216 36.9099045,-0.8656216 Q37.0884983,-0.8656216 37.2308152,-0.8070205 Q37.3731321,-0.7484194 37.4724748,-0.640147 Z M37.452383,0.0005581 Q37.452383,-0.3231431 37.3072756,-0.4989463 Q37.1621682,-0.6747495 36.9110207,-0.6747495 Q36.6576408,-0.6747495 36.5130915,-0.4989463 Q36.3685422,-0.3231431 36.3685422,0.0005581 Q36.3685422,0.3276079 36.5158821,0.5011787 Q36.6632219,0.6747495 36.9110207,0.6747495 Q37.1588196,0.6747495 37.3056013,0.5011787 Q37.452383,0.3276079 37.452383,0.0005581 Z" style="fill:rgb(68,68,68);stroke:none" />
<path d="M33.193496,13.440868 Q33.1321044,13.4676571 33.082433,13.4910975 Q33.0327616,13.514538 32.9523944,13.5402108 Q32.8843056,13.5614188 32.8044965,13.5764877 Q32.7246874,13.5915565 32.6286933,13.5915565 Q32.4478671,13.5915565 32.2999691,13.5407689 Q32.1520712,13.4899813 32.0426825,13.3817089 Q31.9355263,13.2756688 31.8752509,13.1121439 Q31.8149755,12.948619 31.8149755,12.7320741 Q31.8149755,12.5266913 31.8730185,12.3648407 Q31.9310614,12.2029901 32.0404501,12.091369 Q32.1464901,11.9830966 32.2966205,11.9261698 Q32.4467509,11.869243 32.6298095,11.869243 Q32.7637548,11.869243 32.897142,11.9016132 Q33.0305292,11.9339833 33.193496,12.0154667 L33.193496,12.2777762 L33.1767528,12.2777762 Q33.0394589,12.1628065 32.9043974,12.1103446 Q32.7693358,12.0578827 32.6152987,12.0578827 Q32.4891669,12.0578827 32.3881498,12.0986244 Q32.2871327,12.1393661 32.2078817,12.2253143 Q32.1308632,12.3090301 32.0878891,12.4368363 Q32.0449149,12.5646425 32.0449149,12.7320741 Q32.0449149,12.9073192 32.0923539,13.033451 Q32.1397929,13.1595829 32.214579,13.2388339 Q32.2927138,13.3214335 32.3970795,13.361059 Q32.5014452,13.4006844 32.6175311,13.4006844 Q32.7771493,13.4006844 32.9166757,13.3459901 Q33.056202,13.2912958 33.177869,13.1819071 L33.193496,13.1819071 Z" style="fill:rgb(68,68,68);stroke:none" />
<path d="M34.6555649,13.5614188 L34.4345551,13.5614188 L34.4345551,12.747701 L33.6052104,12.747701 L33.6052104,13.5614188 L33.3842006,13.5614188 L33.3842006,11.8993807 L33.6052104,11.8993807 L33.6052104,12.5512479 L34.4345551,12.5512479 L34.4345551,11.8993807 L34.6555649,11.8993807 Z" style="fill:rgb(68,68,68);stroke:none" />
<path d="M35.4296014,13.5798363 Q35.4617482,13.6086345 35.4825098,13.6521668 Q35.5032713,13.695699 35.5032713,13.7646808 Q35.5032713,13.8329929 35.4784914,13.8899197 Q35.4537115,13.9468465 35.4088398,13.9890392 Q35.3586103,14.0359201 35.2906331,14.0583559 Q35.2226559,14.0807918 35.1416189,14.0807918 Q35.0585728,14.0807918 34.9782057,14.0610348 Q34.8978385,14.0412779 34.8462695,14.0178375 L34.8462695,13.8778646 L34.8563154,13.8778646 Q34.9132422,13.9153693 34.9902607,13.9401492 Q35.0672793,13.9649291 35.13894,13.9649291 Q35.1811328,13.9649291 35.2286834,13.9508648 Q35.276234,13.9368006 35.3057019,13.9093418 Q35.3365094,13.8798738 35.3515782,13.8443783 Q35.3666471,13.8088828 35.3666471,13.7546349 Q35.3666471,13.7010568 35.349569,13.6658962 Q35.332491,13.6307355 35.3023533,13.6106437 Q35.2722156,13.5898822 35.2293531,13.5821803 Q35.1864906,13.5744785 35.1369309,13.5744785 L35.0766555,13.5744785 L35.0766555,13.4633039 L35.1235363,13.4633039 Q35.2253348,13.4633039 35.285945,13.4207762 Q35.3465553,13.3782486 35.3465553,13.296542 Q35.3465553,13.2603767 35.3311516,13.2332528 Q35.3157478,13.2061289 35.2882891,13.188716 Q35.2594908,13.1713031 35.2266742,13.1646058 Q35.1938576,13.1579086 35.1523346,13.1579086 Q35.0887105,13.1579086 35.0170498,13.1806793 Q34.9453891,13.20345 34.881765,13.244973 L34.8750678,13.244973 L34.8750678,13.1050002 Q34.9226184,13.0815597 35.001981,13.0618028 Q35.0813435,13.0420459 35.1556832,13.0420459 Q35.2286834,13.0420459 35.2842707,13.0554404 Q35.339858,13.0688349 35.3847297,13.0983029 Q35.43295,13.1304498 35.4577299,13.1759912 Q35.4825098,13.2215326 35.4825098,13.2824777 Q35.4825098,13.3655238 35.4239087,13.4274735 Q35.3653076,13.4894232 35.2856101,13.5054967 L35.2856101,13.5148728 Q35.317757,13.5202306 35.3592801,13.5373087 Q35.4008031,13.5543867 35.4296014,13.5798363 Z" style="fill:rgb(68,68,68);stroke:none" />
<path d="M28.7866534,0.7104683 Q28.7252618,0.7372573 28.6755904,0.7606978 Q28.625919,0.7841382 28.5455518,0.809811 Q28.4774629,0.831019 28.3976539,0.8460879 Q28.3178448,0.8611567 28.2218506,0.8611567 Q28.0410245,0.8611567 27.8931265,0.8103691 Q27.7452286,0.7595815 27.6358399,0.6513091 Q27.5286836,0.545269 27.4684083,0.3817441 Q27.4081329,0.2182192 27.4081329,0.0016743 Q27.4081329,-0.2037085 27.4661758,-0.3655591 Q27.5242188,-0.5274097 27.6336075,-0.6390308 Q27.7396475,-0.7473032 27.8897779,-0.80423 Q28.0399083,-0.8611567 28.2229668,-0.8611567 Q28.3569122,-0.8611567 28.4902994,-0.8287866 Q28.6236866,-0.7964165 28.7866534,-0.7149331 L28.7866534,-0.4526235 L28.7699102,-0.4526235 Q28.6326163,-0.5675933 28.4975547,-0.6200552 Q28.3624932,-0.6725171 28.2084561,-0.6725171 Q28.0823243,-0.6725171 27.9813072,-0.6317754 Q27.8802901,-0.5910337 27.8010391,-0.5050854 Q27.7240206,-0.4213696 27.6810464,-0.2935635 Q27.6380723,-0.1657573 27.6380723,0.0016743 Q27.6380723,0.1769194 27.6855113,0.3030513 Q27.7329502,0.4291831 27.8077364,0.5084341 Q27.8858711,0.5910337 27.9902369,0.6306592 Q28.0946026,0.6702847 28.2106885,0.6702847 Q28.3703067,0.6702847 28.5098331,0.6155903 Q28.6493594,0.560896 28.7710264,0.4515073 L28.7866534,0.4515073 Z" style="fill:rgb(68,68,68);stroke:none" />
<path d="M30.2487223,0.831019 L30.0277125,0.831019 L30.0277125,0.0173013 L29.1983678,0.0173013 L29.1983678,0.831019 L28.977358,0.831019 L28.977358,-0.831019 L29.1983678,-0.831019 L29.1983678,-0.1791519 L30.0277125,-0.1791519 L30.0277125,-0.831019 L30.2487223,-0.831019 Z" style="fill:rgb(68,68,68);stroke:none" />
<path d="M31.0227587,0.8494365 Q31.0549056,0.8782348 31.0756671,0.921767 Q31.0964287,0.9652992 31.0964287,1.0342811 Q31.0964287,1.1025932 31.0716488,1.1595199 Q31.0468689,1.2164467 31.0019972,1.2586395 Q30.9517677,1.3055203 30.8837905,1.3279562 Q30.8158132,1.350392 30.7347763,1.350392 Q30.6517302,1.350392 30.571363,1.3306351 Q30.4909958,1.3108781 30.4394269,1.2874377 L30.4394269,1.1474648 L30.4494728,1.1474648 Q30.5063996,1.1849695 30.5834181,1.2097494 Q30.6604367,1.2345293 30.7320974,1.2345293 Q30.7742902,1.2345293 30.8218408,1.220465 Q30.8693914,1.2064008 30.8988593,1.178942 Q30.9296667,1.149474 30.9447356,1.1139785 Q30.9598044,1.078483 30.9598044,1.0242352 Q30.9598044,0.970657 30.9427264,0.9354964 Q30.9256484,0.9003357 30.8955107,0.8802439 Q30.865373,0.8594824 30.8225105,0.8517806 Q30.779648,0.8440787 30.7300882,0.8440787 L30.6698128,0.8440787 L30.6698128,0.7329041 L30.7166937,0.7329041 Q30.8184921,0.7329041 30.8791024,0.6903765 Q30.9397126,0.6478488 30.9397126,0.5661422 Q30.9397126,0.529977 30.9243089,0.502853 Q30.9089052,0.4757291 30.8814464,0.4583162 Q30.8526482,0.4409033 30.8198316,0.4342061 Q30.787015,0.4275088 30.7454919,0.4275088 Q30.6818679,0.4275088 30.6102072,0.4502795 Q30.5385464,0.4730502 30.4749224,0.5145732 L30.4682251,0.5145732 L30.4682251,0.3746004 Q30.5157757,0.35116 30.5951383,0.331403 Q30.6745009,0.3116461 30.7488406,0.3116461 Q30.8218408,0.3116461 30.8774281,0.3250406 Q30.9330154,0.3384352 30.9778871,0.3679031 Q31.0261074,0.40005 31.0508873,0.4455914 Q31.0756671,0.4911328 31.0756671,0.5520779 Q31.0756671,0.635124 31.0170661,0.6970737 Q30.958465,0.7590234 30.8787675,0.7750969 L30.8787675,0.784473 Q30.9109144,0.7898309 30.9524374,0.8069089 Q30.9939605,0.8239869 31.0227587,0.8494365 Z" style="fill:rgb(68,68,68);stroke:none" />
<path d="M19.907294,4.4396982 Q20.0088692,4.5513193 20.0630054,4.7131698 Q20.1171416,4.8750204 20.1171416,5.0804032 Q20.1171416,5.2857861 20.0618892,5.4481947 Q20.0066367,5.6106034 19.907294,5.7188759 Q19.8046026,5.8316132 19.6645181,5.88854 Q19.5244336,5.9454667 19.3447236,5.9454667 Q19.1694785,5.9454667 19.0260454,5.8874237 Q18.8826123,5.8293808 18.7821533,5.7188759 Q18.6816943,5.608371 18.6275581,5.4476366 Q18.5734219,5.2869023 18.5734219,5.0804032 Q18.5734219,4.8772528 18.627,4.7159604 Q18.6805781,4.5546679 18.7832695,4.4396982 Q18.8814961,4.3303095 19.0271616,4.2722665 Q19.1728272,4.2142236 19.3447236,4.2142236 Q19.5233174,4.2142236 19.6656343,4.2728246 Q19.8079512,4.3314257 19.907294,4.4396982 Z M19.8872022,5.0804032 Q19.8872022,4.7567021 19.7420947,4.5808988 Q19.5969873,4.4050956 19.3458399,4.4050956 Q19.09246,4.4050956 18.9479107,4.5808988 Q18.8033613,4.7567021 18.8033613,5.0804032 Q18.8033613,5.407453 18.9507012,5.5810238 Q19.098041,5.7545946 19.3458399,5.7545946 Q19.5936387,5.7545946 19.7404204,5.5810238 Q19.8872022,5.407453 19.8872022,5.0804032 Z" style="fill:rgb(68,68,68);stroke:none" />
<path d="M31.4177053,17.6020309 Q31.3563137,17.6288199 31.3066423,17.6522604 Q31.2569709,17.6757008 31.1766037,17.7013737 Q31.1085148,17.7225817 31.0287058,17.7376505 Q30.9488967,17.7527194 30.8529025,17.7527194 Q30.6720764,17.7527194 30.5241784,17.7019318 Q30.3762805,17.6511442 30.2668918,17.5428717 Q30.1597356,17.4368317 30.0994602,17.2733068 Q30.0391848,17.1097819 30.0391848,16.8932369 Q30.0391848,16.6878541 30.0972277,16.5260035 Q30.1552707,16.3641529 30.2646594,16.2525319 Q30.3706994,16.1442594 30.5208298,16.0873326 Q30.6709602,16.0304059 30.8540188,16.0304059 Q30.9879641,16.0304059 31.1213513,16.062776 Q31.2547385,16.0951461 31.4177053,16.1766295 L31.4177053,16.4389391 L31.4009621,16.4389391 Q31.2636682,16.3239694 31.1286066,16.2715074 Q30.9935451,16.2190455 30.839508,16.2190455 Q30.7133762,16.2190455 30.6123591,16.2597872 Q30.511342,16.3005289 30.432091,16.3864772 Q30.3550725,16.470193 30.3120983,16.5979991 Q30.2691242,16.7258053 30.2691242,16.8932369 Q30.2691242,17.068482 30.3165632,17.1946139 Q30.3640022,17.3207457 30.4387883,17.3999967 Q30.5169231,17.4825963 30.6212888,17.5222218 Q30.7256545,17.5618473 30.8417404,17.5618473 Q31.0013586,17.5618473 31.140885,17.5071529 Q31.2804113,17.4524586 31.4020783,17.3430699 L31.4177053,17.3430699 Z" style="fill:rgb(68,68,68);stroke:none" />
<path d="M32.8797742,17.7225817 L32.6587644,17.7225817 L32.6587644,16.9088639 L31.8294197,16.9088639 L31.8294197,17.7225817 L31.6084099,17.7225817 L31.6084099,16.0605436 L31.8294197,16.0605436 L31.8294197,16.7124108 L32.6587644,16.7124108 L32.6587644,16.0605436 L32.8797742,16.0605436 Z" style="fill:rgb(68,68,68);stroke:none" />
<path d="M33.6538106,17.7409991 Q33.6859575,17.7697974 33.706719,17.8133296 Q33.7274806,17.8568618 33.7274806,17.9258437 Q33.7274806,17.9941558 33.7027007,18.0510825 Q33.6779208,18.1080093 33.6330491,18.1502021 Q33.5828196,18.1970829 33.5148424,18.2195188 Q33.4468651,18.2419546 33.3658282,18.2419546 Q33.2827821,18.2419546 33.2024149,18.2221977 Q33.1220478,18.2024407 33.0704788,18.1790003 L33.0704788,18.0390275 L33.0805247,18.0390275 Q33.1374515,18.0765321 33.21447,18.101312 Q33.2914886,18.1260919 33.3631493,18.1260919 Q33.4053421,18.1260919 33.4528927,18.1120277 Q33.5004433,18.0979634 33.5299112,18.0705046 Q33.5607187,18.0410366 33.5757875,18.0055411 Q33.5908564,17.9700456 33.5908564,17.9157978 Q33.5908564,17.8622196 33.5737783,17.827059 Q33.5567003,17.7918984 33.5265626,17.7718066 Q33.4964249,17.751045 33.4535624,17.7433432 Q33.4106999,17.7356413 33.3611401,17.7356413 L33.3008648,17.7356413 L33.3008648,17.6244667 L33.3477456,17.6244667 Q33.449544,17.6244667 33.5101543,17.5819391 Q33.5707646,17.5394114 33.5707646,17.4577048 Q33.5707646,17.4215396 33.5553608,17.3944156 Q33.5399571,17.3672917 33.5124983,17.3498788 Q33.4837001,17.3324659 33.4508835,17.3257687 Q33.4180669,17.3190714 33.3765439,17.3190714 Q33.3129198,17.3190714 33.2412591,17.3418421 Q33.1695983,17.3646128 33.1059743,17.4061359 L33.0992771,17.4061359 L33.0992771,17.266163 Q33.1468276,17.2427226 33.2261902,17.2229656 Q33.3055528,17.2032087 33.3798925,17.2032087 Q33.4528927,17.2032087 33.50848,17.2166032 Q33.5640673,17.2299978 33.608939,17.2594657 Q33.6571593,17.2916126 33.6819392,17.337154 Q33.706719,17.3826954 33.706719,17.4436405 Q33.706719,17.5266866 33.648118,17.5886363 Q33.5895169,17.6505861 33.5098194,17.6666595 L33.5098194,17.6760357 Q33.5419663,17.6813935 33.5834894,17.6984715 Q33.6250124,17.7155495 33.6538106,17.7409991 Z" style="fill:rgb(68,68,68);stroke:none" />
</svg>
