<?xml version="1.0" encoding="UTF-8" standalone="no"?>
<!-- Created with Inkscape (http://www.inkscape.org/) -->

<svg
   xmlns:dc="http://purl.org/dc/elements/1.1/"
   xmlns:cc="http://creativecommons.org/ns#"
   xmlns:rdf="http://www.w3.org/1999/02/22-rdf-syntax-ns#"
   xmlns:svg="http://www.w3.org/2000/svg"
   xmlns="http://www.w3.org/2000/svg"
   xmlns:sodipodi="http://sodipodi.sourceforge.net/DTD/sodipodi-0.dtd"
   xmlns:inkscape="http://www.inkscape.org/namespaces/inkscape"
   id="svg2"
   version="1.1"
   inkscape:version="0.48.5 r10040"
   width="188.99393"
   height="187.53461"
   xml:space="preserve"
   sodipodi:docname="chebi-6701-bounds.svg"><metadata
     id="metadata8"><rdf:RDF><cc:Work
         rdf:about=""><dc:format>image/svg+xml</dc:format><dc:type
           rdf:resource="http://purl.org/dc/dcmitype/StillImage" /><dc:title></dc:title></cc:Work></rdf:RDF></metadata><defs
     id="defs6" /><sodipodi:namedview
     pagecolor="#ffffff"
     bordercolor="#666666"
     borderopacity="1"
     objecttolerance="10"
     gridtolerance="10"
     guidetolerance="10"
     inkscape:pageopacity="0"
     inkscape:pageshadow="2"
     inkscape:window-width="1920"
     inkscape:window-height="1032"
     id="namedview4"
     showgrid="false"
     inkscape:zoom="3.8677778"
     inkscape:cx="129.05702"
     inkscape:cy="109.45517"
     inkscape:window-x="0"
     inkscape:window-y="0"
     inkscape:window-maximized="1"
     inkscape:current-layer="g10"
     fit-margin-top="2"
     fit-margin-left="2"
     fit-margin-right="2"
     fit-margin-bottom="2" /><g
     id="g10"
     inkscape:groupmode="layer"
     inkscape:label="chebi-6701"
     transform="matrix(1.25,0,0,-1.25,0.12659609,187.81426)"><g
       id="g12"
       transform="matrix(2.8346457,0,0,-2.8346457,0,144)"><path
         d="m 10.069194,25.977591 4.470263,-2.438326"
         style="fill:none;stroke:#444444;stroke-width:0.19422071;stroke-linecap:round;stroke-linejoin:round;stroke-miterlimit:10;stroke-opacity:1;stroke-dasharray:none"
         id="path14"
         inkscape:connector-curvature="0" /><path
         d="m 14.539457,33.495761 0,5.283039"
         style="fill:none;stroke:#444444;stroke-width:0.19422071;stroke-linecap:round;stroke-linejoin:round;stroke-miterlimit:10;stroke-opacity:1;stroke-dasharray:none"
         id="path16"
         inkscape:connector-curvature="0" /><path
         d="M 19.009721,41.217126 14.539457,38.7788"
         style="fill:none;stroke:#444444;stroke-width:0.19422071;stroke-linecap:round;stroke-linejoin:round;stroke-miterlimit:10;stroke-opacity:1;stroke-dasharray:none"
         id="path18"
         inkscape:connector-curvature="0" /><path
         d="m 14.636568,38.7788 -0.194221,0 -0.365684,3.825782 0.462794,0 0.462794,0 -0.365683,-3.825782 z"
         style="fill:#444444;fill-opacity:1;fill-rule:nonzero;stroke:none"
         id="path20"
         inkscape:connector-curvature="0" /><path
         d="M 11.045088,40.68482 14.539457,38.7788"
         style="fill:none;stroke:#444444;stroke-width:0.19422071;stroke-linecap:round;stroke-linejoin:round;stroke-miterlimit:10;stroke-opacity:1;stroke-dasharray:none"
         id="path22"
         inkscape:connector-curvature="0" /><path
         d="m 5.8021236,38.7788 3.2958005,1.883315"
         style="fill:none;stroke:#444444;stroke-width:0.19422071;stroke-linecap:round;stroke-linejoin:round;stroke-miterlimit:10;stroke-opacity:1;stroke-dasharray:none"
         id="path24"
         inkscape:connector-curvature="0" /><path
         d="m 40.954652,23.539265 -4.470264,2.438326"
         style="fill:none;stroke:#444444;stroke-width:0.19422071;stroke-linecap:round;stroke-linejoin:round;stroke-miterlimit:10;stroke-opacity:1;stroke-dasharray:none"
         id="path26"
         inkscape:connector-curvature="0" /><path
         d="m 40.944284,24.586502 -3.545496,1.933907"
         style="fill:none;stroke:#444444;stroke-width:0.19422071;stroke-linecap:round;stroke-linejoin:round;stroke-miterlimit:10;stroke-opacity:1;stroke-dasharray:none"
         id="path28"
         inkscape:connector-curvature="0" /><path
         d="m 36.484388,31.057436 0,-5.079845"
         style="fill:none;stroke:#444444;stroke-width:0.19422071;stroke-linecap:round;stroke-linejoin:round;stroke-miterlimit:10;stroke-opacity:1;stroke-dasharray:none"
         id="path30"
         inkscape:connector-curvature="0" /><path
         d="m 5.8021236,34.749824 0,4.028976"
         style="fill:none;stroke:#444444;stroke-width:0.19422071;stroke-linecap:round;stroke-linejoin:round;stroke-miterlimit:10;stroke-opacity:1;stroke-dasharray:none"
         id="path32"
         inkscape:connector-curvature="0" /><path
         d="m 2.1646451,40.242089 3.6374785,-1.98408"
         style="fill:none;stroke:#444444;stroke-width:0.19422071;stroke-linecap:round;stroke-linejoin:round;stroke-miterlimit:10;stroke-opacity:1;stroke-dasharray:none"
         id="path34"
         inkscape:connector-curvature="0" /><path
         d="M 2.6025075,41.044836 6.2684131,39.045251"
         style="fill:none;stroke:#444444;stroke-width:0.19422071;stroke-linecap:round;stroke-linejoin:round;stroke-miterlimit:10;stroke-opacity:1;stroke-dasharray:none"
         id="path36"
         inkscape:connector-curvature="0" /><path
         d="m 10.069194,25.977591 0,5.079845"
         style="fill:none;stroke:#444444;stroke-width:0.19422071;stroke-linecap:round;stroke-linejoin:round;stroke-miterlimit:10;stroke-opacity:1;stroke-dasharray:none"
         id="path38"
         inkscape:connector-curvature="0" /><path
         d="M 14.539457,33.495761 10.069194,31.057436"
         style="fill:none;stroke:#444444;stroke-width:0.19422071;stroke-linecap:round;stroke-linejoin:round;stroke-miterlimit:10;stroke-opacity:1;stroke-dasharray:none"
         id="path40"
         inkscape:connector-curvature="0" /><path
         d="M 6.8449069,32.899885 10.069194,31.057436"
         style="fill:none;stroke:#444444;stroke-width:0.19422071;stroke-linecap:round;stroke-linejoin:round;stroke-miterlimit:10;stroke-opacity:1;stroke-dasharray:none"
         id="path42"
         inkscape:connector-curvature="0" /><path
         d="M 10.018079,31.140005 10.120308,30.974866 7.0169154,28.611933 6.7680839,29.013892 6.5192524,29.41585 10.018079,31.140005 z"
         style="fill:#444444;fill-opacity:1;fill-rule:nonzero;stroke:none"
         id="path44"
         inkscape:connector-curvature="0" /><path
         d="M 10.018079,26.06016 10.120308,25.895021 7.0672846,23.570439 6.821662,23.967214 6.5760395,24.363989 10.018079,26.06016 z"
         style="fill:#444444;fill-opacity:1;fill-rule:nonzero;stroke:none"
         id="path46"
         inkscape:connector-curvature="0" /><path
         d="m 45.221722,25.977591 -4.26707,-2.438326"
         style="fill:none;stroke:#444444;stroke-width:0.19422071;stroke-linecap:round;stroke-linejoin:round;stroke-miterlimit:10;stroke-opacity:1;stroke-dasharray:none"
         id="path48"
         inkscape:connector-curvature="0" /><path
         d="m 40.954652,19.709018 0,3.830247"
         style="fill:none;stroke:#444444;stroke-width:0.19422071;stroke-linecap:round;stroke-linejoin:round;stroke-miterlimit:10;stroke-opacity:1;stroke-dasharray:none"
         id="path50"
         inkscape:connector-curvature="0" /><path
         d="m 48.655662,23.948444 -3.43394,2.029147"
         style="fill:none;stroke:#444444;stroke-width:0.19422071;stroke-linecap:round;stroke-linejoin:round;stroke-miterlimit:10;stroke-opacity:1;stroke-dasharray:none"
         id="path52"
         inkscape:connector-curvature="0" /><path
         d="m 45.221722,31.057436 0,-5.079845"
         style="fill:none;stroke:#444444;stroke-width:0.19422071;stroke-linecap:round;stroke-linejoin:round;stroke-miterlimit:10;stroke-opacity:1;stroke-dasharray:none"
         id="path54"
         inkscape:connector-curvature="0" /><path
         d="m 44.307322,30.526789 0,-4.018551"
         style="fill:none;stroke:#444444;stroke-width:0.19422071;stroke-linecap:round;stroke-linejoin:round;stroke-miterlimit:10;stroke-opacity:1;stroke-dasharray:none"
         id="path56"
         inkscape:connector-curvature="0" /><path
         d="m 36.484388,31.057436 4.470264,2.438325"
         style="fill:none;stroke:#444444;stroke-width:0.19422071;stroke-linecap:round;stroke-linejoin:round;stroke-miterlimit:10;stroke-opacity:1;stroke-dasharray:none"
         id="path58"
         inkscape:connector-curvature="0" /><path
         d="m 37.398788,30.514618 3.545496,1.933907"
         style="fill:none;stroke:#444444;stroke-width:0.19422071;stroke-linecap:round;stroke-linejoin:round;stroke-miterlimit:10;stroke-opacity:1;stroke-dasharray:none"
         id="path60"
         inkscape:connector-curvature="0" /><path
         d="m 45.221722,31.057436 -4.26707,2.438325"
         style="fill:none;stroke:#444444;stroke-width:0.19422071;stroke-linecap:round;stroke-linejoin:round;stroke-miterlimit:10;stroke-opacity:1;stroke-dasharray:none"
         id="path62"
         inkscape:connector-curvature="0" /><path
         d="m 40.954652,38.7788 0,-5.283039"
         style="fill:none;stroke:#444444;stroke-width:0.19422071;stroke-linecap:round;stroke-linejoin:round;stroke-miterlimit:10;stroke-opacity:1;stroke-dasharray:none"
         id="path64"
         inkscape:connector-curvature="0" /><path
         d="m 23.276791,38.7788 -4.26707,2.438326"
         style="fill:none;stroke:#444444;stroke-width:0.19422071;stroke-linecap:round;stroke-linejoin:round;stroke-miterlimit:10;stroke-opacity:1;stroke-dasharray:none"
         id="path66"
         inkscape:connector-curvature="0" /><path
         d="m 19.106831,41.217126 -0.19422,0 -0.365684,3.825782 0.462794,0 0.462794,0 -0.365684,-3.825782 z"
         style="fill:#444444;fill-opacity:1;fill-rule:nonzero;stroke:none"
         id="path68"
         inkscape:connector-curvature="0" /><path
         d="M 27.747055,41.217126 23.276791,38.7788"
         style="fill:none;stroke:#444444;stroke-width:0.19422071;stroke-linecap:round;stroke-linejoin:round;stroke-miterlimit:10;stroke-opacity:1;stroke-dasharray:none"
         id="path70"
         inkscape:connector-curvature="0" /><path
         d="M 27.736687,40.169889 24.162883,38.220542"
         style="fill:none;stroke:#444444;stroke-width:0.19422071;stroke-linecap:round;stroke-linejoin:round;stroke-miterlimit:10;stroke-opacity:1;stroke-dasharray:none"
         id="path72"
         inkscape:connector-curvature="0" /><path
         d="m 32.014124,38.7788 -4.267069,2.438326"
         style="fill:none;stroke:#444444;stroke-width:0.19422071;stroke-linecap:round;stroke-linejoin:round;stroke-miterlimit:10;stroke-opacity:1;stroke-dasharray:none"
         id="path74"
         inkscape:connector-curvature="0" /><path
         d="m 40.954652,38.7788 -4.470264,2.438326"
         style="fill:none;stroke:#444444;stroke-width:0.19422071;stroke-linecap:round;stroke-linejoin:round;stroke-miterlimit:10;stroke-opacity:1;stroke-dasharray:none"
         id="path76"
         inkscape:connector-curvature="0" /><path
         d="m 36.484388,45.047373 0,-3.830247"
         style="fill:none;stroke:#444444;stroke-width:0.19422071;stroke-linecap:round;stroke-linejoin:round;stroke-miterlimit:10;stroke-opacity:1;stroke-dasharray:none"
         id="path78"
         inkscape:connector-curvature="0" /><path
         d="M 36.484388,41.217126 32.014124,38.7788"
         style="fill:none;stroke:#444444;stroke-width:0.19422071;stroke-linecap:round;stroke-linejoin:round;stroke-miterlimit:10;stroke-opacity:1;stroke-dasharray:none"
         id="path80"
         inkscape:connector-curvature="0" /><path
         d="M 36.484388,40.175544 32.900217,38.220542"
         style="fill:none;stroke:#444444;stroke-width:0.19422071;stroke-linecap:round;stroke-linejoin:round;stroke-miterlimit:10;stroke-opacity:1;stroke-dasharray:none"
         id="path82"
         inkscape:connector-curvature="0" /><path
         d="m 49.691985,19.719581 0,2.362427"
         style="fill:none;stroke:#444444;stroke-width:0.19422071;stroke-linecap:round;stroke-linejoin:round;stroke-miterlimit:10;stroke-opacity:1;stroke-dasharray:none"
         id="path84"
         inkscape:connector-curvature="0" /><path
         d="M 22.306865,48.181053 20.051872,46.892486"
         style="fill:none;stroke:#444444;stroke-width:0.19422071;stroke-linecap:round;stroke-linejoin:round;stroke-miterlimit:10;stroke-opacity:1;stroke-dasharray:none"
         id="path86"
         inkscape:connector-curvature="0" /><path
         d="m 36.484388,25.977591 -3.454543,-2.01503"
         style="fill:none;stroke:#444444;stroke-width:0.19422071;stroke-linecap:round;stroke-linejoin:round;stroke-miterlimit:10;stroke-opacity:1;stroke-dasharray:none"
         id="path88"
         inkscape:connector-curvature="0" /><path
         d="m 31.088769,23.950408 -3.434691,1.956373"
         style="fill:none;stroke:#444444;stroke-width:0.19422071;stroke-linecap:round;stroke-linejoin:round;stroke-miterlimit:10;stroke-opacity:1;stroke-dasharray:none"
         id="path90"
         inkscape:connector-curvature="0" /><path
         d="m 28.111278,25.646363 0,4.0862"
         style="fill:none;stroke:#444444;stroke-width:0.19422071;stroke-linecap:round;stroke-linejoin:round;stroke-miterlimit:10;stroke-opacity:1;stroke-dasharray:none"
         id="path92"
         inkscape:connector-curvature="0" /><path
         d="m 27.196878,25.6464 0,4.086163"
         style="fill:none;stroke:#444444;stroke-width:0.19422071;stroke-linecap:round;stroke-linejoin:round;stroke-miterlimit:10;stroke-opacity:1;stroke-dasharray:none"
         id="path94"
         inkscape:connector-curvature="0" /><path
         d="M 27.654078,25.906781 23.247235,23.397029"
         style="fill:none;stroke:#444444;stroke-width:0.19422071;stroke-linecap:round;stroke-linejoin:round;stroke-miterlimit:10;stroke-opacity:1;stroke-dasharray:none"
         id="path96"
         inkscape:connector-curvature="0" /><path
         d="m 15.902087,18.562248 5.999143,0"
         style="fill:none;stroke:#444444;stroke-width:0.19422071;stroke-linecap:round;stroke-linejoin:round;stroke-miterlimit:10;stroke-opacity:1;stroke-dasharray:none"
         id="path98"
         inkscape:connector-curvature="0" /><path
         d="M 23.247235,23.397029 21.90123,18.562248"
         style="fill:none;stroke:#444444;stroke-width:0.19422071;stroke-linecap:round;stroke-linejoin:round;stroke-miterlimit:10;stroke-opacity:1;stroke-dasharray:none"
         id="path100"
         inkscape:connector-curvature="0" /><path
         d="m 14.47042,23.607561 0.138074,-0.136592 -2.497562,-3.049761 -0.331562,0.328 -0.331561,0.328 3.022611,2.530353 z"
         style="fill:#444444;fill-opacity:1;fill-rule:nonzero;stroke:none"
         id="path102"
         inkscape:connector-curvature="0" /><path
         d="m 15.902087,18.562248 -1.36263,4.977017"
         style="fill:none;stroke:#444444;stroke-width:0.19422071;stroke-linecap:round;stroke-linejoin:round;stroke-miterlimit:10;stroke-opacity:1;stroke-dasharray:none"
         id="path104"
         inkscape:connector-curvature="0" /><path
         d="m 15.92671,18.656185 -0.04924,-0.187874 -3.938997,0.645931 0.119432,0.455641 0.119433,0.455642 3.749377,-1.36934 z"
         style="fill:#444444;fill-opacity:1;fill-rule:nonzero;stroke:none"
         id="path106"
         inkscape:connector-curvature="0" /><path
         d="M 15.902087,18.562248 13.997145,15.295134"
         style="fill:none;stroke:#444444;stroke-width:0.19422071;stroke-linecap:round;stroke-linejoin:round;stroke-miterlimit:10;stroke-opacity:1;stroke-dasharray:none"
         id="path108"
         inkscape:connector-curvature="0" /><path
         d="m 14.539457,23.539265 2.716203,2.689004"
         style="fill:none;stroke:#444444;stroke-width:0.19422071;stroke-linecap:round;stroke-linejoin:round;stroke-miterlimit:10;stroke-opacity:1;stroke-dasharray:none"
         id="path110"
         inkscape:connector-curvature="0" /><path
         d="m 38.2571,6.5054667 3.431494,1.9810935"
         style="fill:none;stroke:#444444;stroke-width:0.19422071;stroke-linecap:round;stroke-linejoin:round;stroke-miterlimit:10;stroke-opacity:1;stroke-dasharray:none"
         id="path112"
         inkscape:connector-curvature="0" /><path
         d="M 34.828058,8.4851448 38.2571,6.5054667"
         style="fill:none;stroke:#444444;stroke-width:0.19422071;stroke-linecap:round;stroke-linejoin:round;stroke-miterlimit:10;stroke-opacity:1;stroke-dasharray:none"
         id="path114"
         inkscape:connector-curvature="0" /><path
         d="m 29.458808,6.5054667 3.428439,1.9796065"
         style="fill:none;stroke:#444444;stroke-width:0.19422071;stroke-linecap:round;stroke-linejoin:round;stroke-miterlimit:10;stroke-opacity:1;stroke-dasharray:none"
         id="path116"
         inkscape:connector-curvature="0" /><path
         d="M 25.059355,9.0453893 29.458808,6.5054667"
         style="fill:none;stroke:#444444;stroke-width:0.19422071;stroke-linecap:round;stroke-linejoin:round;stroke-miterlimit:10;stroke-opacity:1;stroke-dasharray:none"
         id="path118"
         inkscape:connector-curvature="0" /><path
         d="M 37.800665,6.7689791 37.788773,2.681013"
         style="fill:none;stroke:#444444;stroke-width:0.19422071;stroke-linecap:round;stroke-linejoin:round;stroke-miterlimit:10;stroke-opacity:1;stroke-dasharray:none"
         id="path120"
         inkscape:connector-curvature="0" /><path
         d="m 38.715071,6.7698657 -0.0119,-4.0915128"
         style="fill:none;stroke:#444444;stroke-width:0.19422071;stroke-linecap:round;stroke-linejoin:round;stroke-miterlimit:10;stroke-opacity:1;stroke-dasharray:none"
         id="path122"
         inkscape:connector-curvature="0" /><path
         d="m 33.852504,10.264846 -0.01114,2.641581"
         style="fill:none;stroke:#444444;stroke-width:0.19422071;stroke-linecap:round;stroke-linejoin:round;stroke-miterlimit:10;stroke-opacity:1;stroke-dasharray:none"
         id="path124"
         inkscape:connector-curvature="0" /><path
         d="m 29.3617,6.5060317 0.194217,-0.00113"
         style="fill:none;stroke:#444444;stroke-width:0.19422071;stroke-linecap:round;stroke-linejoin:round;stroke-miterlimit:10;stroke-opacity:1;stroke-dasharray:none"
         id="path126"
         inkscape:connector-curvature="0" /><path
         d="M 29.27585,5.6598617 29.631915,5.65779"
         style="fill:none;stroke:#444444;stroke-width:0.19422071;stroke-linecap:round;stroke-linejoin:round;stroke-miterlimit:10;stroke-opacity:1;stroke-dasharray:none"
         id="path128"
         inkscape:connector-curvature="0" /><path
         d="m 29.19,4.8136917 0.517913,-0.00301"
         style="fill:none;stroke:#444444;stroke-width:0.19422071;stroke-linecap:round;stroke-linejoin:round;stroke-miterlimit:10;stroke-opacity:1;stroke-dasharray:none"
         id="path130"
         inkscape:connector-curvature="0" /><path
         d="m 29.10415,3.9675216 0.679761,-0.00395"
         style="fill:none;stroke:#444444;stroke-width:0.19422071;stroke-linecap:round;stroke-linejoin:round;stroke-miterlimit:10;stroke-opacity:1;stroke-dasharray:none"
         id="path132"
         inkscape:connector-curvature="0" /><path
         d="m 29.0183,3.1213516 0.841609,-0.0049"
         style="fill:none;stroke:#444444;stroke-width:0.19422071;stroke-linecap:round;stroke-linejoin:round;stroke-miterlimit:10;stroke-opacity:1;stroke-dasharray:none"
         id="path134"
         inkscape:connector-curvature="0" /><path
         d="m 25.059355,9.0453893 0.01859,3.8565737"
         style="fill:none;stroke:#444444;stroke-width:0.19422071;stroke-linecap:round;stroke-linejoin:round;stroke-miterlimit:10;stroke-opacity:1;stroke-dasharray:none"
         id="path136"
         inkscape:connector-curvature="0" /><path
         d="M 25.061908,9.5753132 21.4872,7.503419"
         style="fill:none;stroke:#444444;stroke-width:0.19422071;stroke-linecap:round;stroke-linejoin:round;stroke-miterlimit:10;stroke-opacity:1;stroke-dasharray:none"
         id="path138"
         inkscape:connector-curvature="0" /><path
         d="M 25.51612,8.7816862 21.945733,6.7122965"
         style="fill:none;stroke:#444444;stroke-width:0.19422071;stroke-linecap:round;stroke-linejoin:round;stroke-miterlimit:10;stroke-opacity:1;stroke-dasharray:none"
         id="path140"
         inkscape:connector-curvature="0" /><path
         d="m 21.822509,18.505385 0.157443,0.113726 2.751588,-3.171326 -0.381555,-0.27561 -0.381555,-0.275609 -2.145921,3.608819 z"
         style="fill:#444444;fill-opacity:1;fill-rule:nonzero;stroke:none"
         id="path142"
         inkscape:connector-curvature="0" /><path
         d="m 32.060305,22.177569 0,-2.600223"
         style="fill:none;stroke:#444444;stroke-width:0.19422071;stroke-linecap:round;stroke-linejoin:round;stroke-miterlimit:10;stroke-opacity:1;stroke-dasharray:none"
         id="path144"
         inkscape:connector-curvature="0" /><path
         d="m 10.703201,42.048145 -0.273471,0 -0.7880453,-1.486793 0,1.486793 -0.206499,0 0,-1.662038 0.3426767,0 0.7188396,1.357313 0,-1.357313 0.206499,0 0,1.662038 z"
         style="fill:#444444;fill-opacity:1;fill-rule:nonzero;stroke:none"
         id="path146"
         inkscape:connector-curvature="0" /><path
         d="m 10.70655,43.900888 -0.22101,0 0,-0.813718 -0.8293446,0 0,0.813718 -0.2210097,0 0,-1.662038 0.2210097,0 0,0.651867 0.8293446,0 0,-0.651867 0.22101,0 0,1.662038 z"
         style="fill:#444444;fill-opacity:1;fill-rule:nonzero;stroke:none"
         id="path148"
         inkscape:connector-curvature="0" /><path
         d="m 6.3641358,32.855614 c 0.067717,0.07441 0.1196206,0.165572 0.1557114,0.273472 0.036091,0.107901 0.054136,0.230312 0.054136,0.367234 0,0.136921 -0.018417,0.259519 -0.055252,0.367791 -0.036835,0.108272 -0.088367,0.1985 -0.1545952,0.270681 -0.068461,0.07516 -0.1493862,0.131713 -0.2427759,0.169664 -0.09339,0.03795 -0.1999878,0.05693 -0.3197944,0.05693 -0.1168301,0 -0.2230562,-0.01935 -0.3186782,-0.05804 -0.095622,-0.03869 -0.1769195,-0.09488 -0.2438921,-0.168548 -0.066973,-0.07367 -0.1185044,-0.164083 -0.1545953,-0.271239 -0.036091,-0.107156 -0.054136,-0.229567 -0.054136,-0.367233 0,-0.135434 0.017859,-0.256915 0.053578,-0.364443 0.035719,-0.107529 0.087809,-0.199616 0.1562696,-0.276263 0.065484,-0.07293 0.1467817,-0.128736 0.2438921,-0.167431 0.09711,-0.0387 0.2029643,-0.05804 0.317562,-0.05804 0.1190625,0 0.2260327,0.01953 0.3209106,0.0586 0.094878,0.03907 0.1754312,0.09469 0.2416597,0.166873 z M 6.344044,33.49632 c 0,-0.215801 -0.048369,-0.382303 -0.1451074,-0.499505 -0.096738,-0.117202 -0.2288233,-0.175803 -0.3962549,-0.175803 -0.1689199,0 -0.301563,0.0586 -0.3979292,0.175803 -0.096366,0.117202 -0.1445493,0.283704 -0.1445493,0.499505 0,0.218033 0.049113,0.384906 0.1473398,0.50062 0.098227,0.115714 0.2299395,0.173571 0.3951387,0.173571 0.1651992,0 0.2967261,-0.05786 0.3945806,-0.173571 0.097854,-0.115714 0.1467817,-0.282587 0.1467817,-0.50062 z"
         style="fill:#444444;fill-opacity:1;fill-rule:nonzero;stroke:none"
         id="path150"
         inkscape:connector-curvature="0" /><path
         d="m 1.8938721,40.576979 c 0.067717,0.07441 0.1196206,0.165571 0.1557114,0.273472 0.036091,0.1079 0.054136,0.230311 0.054136,0.367233 0,0.136922 -0.018417,0.259519 -0.055252,0.367792 -0.036835,0.108272 -0.088367,0.198499 -0.1545952,0.270681 -0.068461,0.07516 -0.1493863,0.131713 -0.2427759,0.169664 -0.09339,0.03795 -0.1999878,0.05693 -0.3197944,0.05693 -0.1168301,0 -0.2230562,-0.01935 -0.3186783,-0.05804 -0.095622,-0.0387 -0.1769194,-0.09488 -0.2438921,-0.168548 C 0.7017588,41.782487 0.6502271,41.692074 0.6141362,41.584918 0.5780454,41.477761 0.56,41.35535 0.56,41.217684 c 0,-0.135433 0.0178594,-0.256914 0.0535781,-0.364443 0.0357188,-0.107528 0.0878086,-0.199615 0.1562696,-0.276262 0.0654843,-0.07293 0.1467817,-0.128736 0.243892,-0.167432 0.09711,-0.0387 0.2029644,-0.05804 0.3175621,-0.05804 0.1190625,0 0.2260327,0.01953 0.3209106,0.0586 0.094878,0.03907 0.1754312,0.09469 0.2416597,0.166873 z m -0.020092,0.640705 c 0,-0.215801 -0.048369,-0.382302 -0.1451074,-0.499504 -0.096738,-0.117202 -0.2288233,-0.175803 -0.3962549,-0.175803 -0.16892,0 -0.301563,0.0586 -0.3979292,0.175803 -0.0963662,0.117202 -0.1445493,0.283703 -0.1445493,0.499504 0,0.218033 0.0491132,0.384907 0.1473398,0.500621 0.0982266,0.115714 0.2299395,0.173571 0.3951387,0.173571 0.1651992,0 0.296726,-0.05786 0.3945805,-0.173571 0.097854,-0.115714 0.1467818,-0.282588 0.1467818,-0.500621 z"
         style="fill:#444444;fill-opacity:1;fill-rule:nonzero;stroke:none"
         id="path152"
         inkscape:connector-curvature="0" /><path
         d="m 15.101469,43.218499 c 0.06772,0.07441 0.119621,0.165571 0.155712,0.273471 0.03609,0.107901 0.05414,0.230312 0.05414,0.367234 0,0.136922 -0.01842,0.259519 -0.05525,0.367791 -0.03683,0.108273 -0.08837,0.1985 -0.154596,0.270681 -0.06846,0.07516 -0.149386,0.131713 -0.242775,0.169664 -0.09339,0.03795 -0.199988,0.05693 -0.319795,0.05693 -0.11683,0 -0.223056,-0.01935 -0.318678,-0.05804 -0.09562,-0.03869 -0.17692,-0.09488 -0.243892,-0.168548 -0.06697,-0.07367 -0.118505,-0.164083 -0.154595,-0.271239 -0.03609,-0.107156 -0.05414,-0.229567 -0.05414,-0.367233 0,-0.135434 0.01786,-0.256915 0.05358,-0.364443 0.03572,-0.107529 0.08781,-0.199616 0.15627,-0.276262 0.06548,-0.07293 0.146782,-0.128737 0.243892,-0.167432 0.09711,-0.0387 0.202964,-0.05804 0.317562,-0.05804 0.119063,0 0.226033,0.01953 0.320911,0.0586 0.09488,0.03907 0.175431,0.09469 0.241659,0.166874 z m -0.02009,0.640705 c 0,-0.215801 -0.04837,-0.382303 -0.145108,-0.499505 -0.09674,-0.117202 -0.228823,-0.175803 -0.396255,-0.175803 -0.16892,0 -0.301563,0.0586 -0.397929,0.175803 -0.09637,0.117202 -0.144549,0.283704 -0.144549,0.499505 0,0.218033 0.04911,0.384906 0.14734,0.50062 0.09823,0.115714 0.229939,0.173571 0.395138,0.173571 0.1652,0 0.296726,-0.05786 0.394581,-0.173571 0.09785,-0.115714 0.146782,-0.282587 0.146782,-0.50062 z"
         style="fill:#444444;fill-opacity:1;fill-rule:nonzero;stroke:none"
         id="path154"
         inkscape:connector-curvature="0" /><path
         d="m 16.773386,44.689665 -0.22101,0 0,-0.813718 -0.829345,0 0,0.813718 -0.221009,0 0,-1.662039 0.221009,0 0,0.651868 0.829345,0 0,-0.651868 0.22101,0 0,1.662039 z"
         style="fill:#444444;fill-opacity:1;fill-rule:nonzero;stroke:none"
         id="path156"
         inkscape:connector-curvature="0" /><path
         d="m 41.643912,19.169888 c -0.04093,0.01786 -0.07795,0.0346 -0.111063,0.05023 -0.03311,0.01563 -0.07646,0.032 -0.130038,0.04911 -0.04539,0.01414 -0.09469,0.02623 -0.147898,0.03628 -0.05321,0.01005 -0.111807,0.01507 -0.175804,0.01507 -0.12055,0 -0.230125,-0.01693 -0.328724,-0.05079 -0.0986,-0.03386 -0.184361,-0.08688 -0.257286,-0.15906 -0.07144,-0.07069 -0.127248,-0.160548 -0.167432,-0.269565 -0.04018,-0.109017 -0.06028,-0.235707 -0.06028,-0.38007 0,-0.136922 0.01935,-0.259333 0.05804,-0.367233 0.03869,-0.107901 0.0945,-0.199058 0.167431,-0.273472 0.07069,-0.07218 0.156084,-0.127248 0.256171,-0.165199 0.100087,-0.03795 0.21115,-0.05693 0.333189,-0.05693 0.0893,0 0.178407,0.01079 0.267332,0.03237 0.08893,0.02158 0.18771,0.05953 0.296354,0.113854 l 0,0.262309 -0.01674,0 c -0.09153,-0.07665 -0.182314,-0.132457 -0.272356,-0.167431 -0.09004,-0.03497 -0.186407,-0.05246 -0.289098,-0.05246 -0.08409,0 -0.159804,0.01358 -0.227149,0.04074 -0.06735,0.02716 -0.127434,0.06939 -0.180268,0.12669 -0.05135,0.05581 -0.09134,0.126318 -0.119993,0.211522 -0.02865,0.0852 -0.04297,0.183617 -0.04297,0.295238 0,0.11683 0.01581,0.217289 0.04744,0.301377 0.03163,0.08409 0.07237,0.152549 0.122225,0.205383 0.05209,0.05507 0.112924,0.09581 0.182501,0.122225 0.06958,0.02642 0.143061,0.03963 0.220451,0.03963 0.106412,0 0.206127,-0.01823 0.299145,-0.05469 0.09302,-0.03646 0.180082,-0.09116 0.261193,-0.164083 l 0.01563,0 0,0.258961 z m 0.507876,0.120551 -0.209848,0 0,-1.736824 0.209848,0 0,1.736824 z"
         style="fill:#444444;fill-opacity:1;fill-rule:nonzero;stroke:none"
         id="path158"
         inkscape:connector-curvature="0" /><path
         d="m 50.253998,22.695924 c 0.06772,0.07441 0.11962,0.165571 0.155711,0.273472 0.03609,0.1079 0.05414,0.230311 0.05414,0.367233 0,0.136922 -0.01842,0.259519 -0.05525,0.367792 -0.03684,0.108272 -0.08837,0.198499 -0.154595,0.270681 -0.06846,0.07516 -0.149387,0.131713 -0.242776,0.169664 -0.09339,0.03795 -0.199988,0.05693 -0.319795,0.05693 -0.11683,0 -0.223056,-0.01935 -0.318678,-0.05804 -0.09562,-0.0387 -0.176919,-0.09488 -0.243892,-0.168548 -0.06697,-0.07367 -0.118504,-0.164083 -0.154595,-0.271239 -0.03609,-0.107157 -0.05414,-0.229568 -0.05414,-0.367234 0,-0.135433 0.01786,-0.256914 0.05358,-0.364443 0.03572,-0.107528 0.08781,-0.199615 0.156269,-0.276262 0.06549,-0.07293 0.146782,-0.128736 0.243892,-0.167431 0.09711,-0.0387 0.202965,-0.05804 0.317562,-0.05804 0.119063,0 0.226033,0.01953 0.320911,0.0586 0.09488,0.03907 0.175431,0.09469 0.24166,0.166873 z m -0.02009,0.640705 c 0,-0.2158 -0.04837,-0.382302 -0.145107,-0.499504 -0.09674,-0.117202 -0.228824,-0.175803 -0.396255,-0.175803 -0.16892,0 -0.301563,0.0586 -0.397929,0.175803 -0.09637,0.117202 -0.14455,0.283704 -0.14455,0.499504 0,0.218033 0.04911,0.384907 0.14734,0.500621 0.09823,0.115714 0.229939,0.173571 0.395139,0.173571 0.165199,0 0.296726,-0.05786 0.39458,-0.173571 0.09785,-0.115714 0.146782,-0.282588 0.146782,-0.500621 z"
         style="fill:#444444;fill-opacity:1;fill-rule:nonzero;stroke:none"
         id="path160"
         inkscape:connector-curvature="0" /><path
         d="m 6.4913838,24.046539 c -0.040928,0.01786 -0.077949,0.0346 -0.111063,0.05023 -0.033114,0.01563 -0.07646,0.032 -0.1300385,0.04911 -0.045393,0.01414 -0.094692,0.02623 -0.147898,0.03628 -0.053206,0.01005 -0.1118071,0.01507 -0.1758032,0.01507 -0.1205508,0 -0.2301255,-0.01693 -0.3287241,-0.05079 -0.098599,-0.03386 -0.1843609,-0.08688 -0.2572866,-0.15906 -0.071438,-0.07069 -0.1272481,-0.160548 -0.1674317,-0.269565 -0.040184,-0.109016 -0.060275,-0.235706 -0.060275,-0.38007 0,-0.136921 0.019348,-0.259333 0.058043,-0.367233 0.038695,-0.1079 0.094506,-0.199058 0.1674316,-0.273472 0.070693,-0.07218 0.1560835,-0.127248 0.2561704,-0.165199 0.100087,-0.03795 0.2111499,-0.05693 0.333189,-0.05693 0.089297,0 0.1784077,0.01079 0.2673325,0.03237 0.088925,0.02158 0.1877095,0.05953 0.296354,0.113853 l 0,0.26231 -0.016743,0 c -0.091529,-0.07665 -0.1823145,-0.132457 -0.2723555,-0.167432 -0.090041,-0.03497 -0.1864072,-0.05246 -0.2890986,-0.05246 -0.084088,0 -0.1598042,0.01358 -0.227149,0.04074 -0.067345,0.02716 -0.127434,0.06939 -0.180268,0.12669 -0.051346,0.05581 -0.091343,0.126318 -0.1199927,0.211522 -0.028649,0.0852 -0.042974,0.183616 -0.042974,0.295237 0,0.116831 0.015813,0.21729 0.047439,0.301377 0.031626,0.08409 0.072368,0.152549 0.1222251,0.205383 0.05209,0.05507 0.1129234,0.09581 0.1825005,0.122225 0.069577,0.02642 0.1430611,0.03963 0.2204517,0.03963 0.1064121,0 0.2061269,-0.01823 0.2991445,-0.05469 0.093018,-0.03646 0.1800821,-0.09116 0.2611934,-0.164083 l 0.015627,0 0,0.258961 z"
         style="fill:#444444;fill-opacity:1;fill-rule:nonzero;stroke:none"
         id="path162"
         inkscape:connector-curvature="0" /><path
         d="m 4.0744523,24.16709 -0.2210098,0 0,-0.813718 -0.8293447,0 0,0.813718 -0.2210098,0 0,-1.662038 0.2210098,0 0,0.651867 0.8293447,0 0,-0.651867 0.2210098,0 0,1.662038 z"
         style="fill:#444444;fill-opacity:1;fill-rule:nonzero;stroke:none"
         id="path164"
         inkscape:connector-curvature="0" /><path
         d="m 4.8484888,24.185508 c 0.021431,0.0192 0.039067,0.04331 0.052908,0.07233 0.013841,0.02902 0.020761,0.06653 0.020761,0.112514 0,0.04554 -0.00826,0.08729 -0.02478,0.125239 -0.01652,0.03795 -0.039737,0.07099 -0.069652,0.09912 -0.033486,0.03125 -0.072889,0.05436 -0.1182067,0.06932 -0.045318,0.01496 -0.094989,0.02244 -0.1490142,0.02244 -0.055364,0 -0.1098351,-0.0066 -0.1634132,-0.01976 -0.053578,-0.01317 -0.097557,-0.02757 -0.1319362,-0.0432 l 0,-0.139973 0.010046,0 c 0.037951,0.025 0.0826,0.04576 0.1339453,0.06228 0.051346,0.01652 0.1009055,0.02478 0.1486793,0.02478 0.028129,0 0.058043,-0.0047 0.089743,-0.01406 0.0317,-0.0094 0.057373,-0.02322 0.077019,-0.04152 0.020538,-0.01965 0.03583,-0.0413 0.045876,-0.06496 0.010046,-0.02366 0.015069,-0.05358 0.015069,-0.08974 0,-0.03572 -0.00569,-0.0653 -0.017078,-0.08874 -0.011385,-0.02344 -0.027124,-0.04186 -0.047216,-0.05525 -0.020092,-0.01384 -0.044425,-0.02333 -0.073,-0.02846 -0.028575,-0.0051 -0.059382,-0.0077 -0.092422,-0.0077 l -0.060275,0 0,-0.111175 0.046881,0 c 0.067866,0 0.1220019,-0.01418 0.1624087,-0.04253 0.040407,-0.02835 0.06061,-0.06976 0.06061,-0.124235 0,-0.02411 -0.00513,-0.04521 -0.015404,-0.06329 -0.010269,-0.01808 -0.024557,-0.03293 -0.042863,-0.04454 -0.019199,-0.01161 -0.039737,-0.01965 -0.061615,-0.02411 -0.021878,-0.0045 -0.046658,-0.0067 -0.07434,-0.0067 -0.042416,0 -0.087511,0.0076 -0.1352848,0.02277 -0.047774,0.01518 -0.092869,0.03661 -0.1352848,0.06429 l -0.0067,0 0,-0.139972 c 0.0317,-0.01563 0.074005,-0.03003 0.1269132,-0.0432 0.052908,-0.01317 0.1041424,-0.01976 0.1537022,-0.01976 0.048667,0 0.091529,0.0045 0.1285875,0.01339 0.037058,0.0089 0.070545,0.02322 0.100459,0.04286 0.032147,0.02143 0.05648,0.04733 0.073,0.07769 0.01652,0.03036 0.02478,0.06586 0.02478,0.106486 0,0.05536 -0.019534,0.103696 -0.058601,0.144996 -0.039067,0.0413 -0.085167,0.06731 -0.1382985,0.07802 l 0,0.0094 c 0.021431,0.0036 0.045988,0.01105 0.07367,0.02244 0.027682,0.01138 0.051122,0.02556 0.070321,0.04253 z"
         style="fill:#444444;fill-opacity:1;fill-rule:nonzero;stroke:none"
         id="path166"
         inkscape:connector-curvature="0" /><path
         d="m 19.571733,45.656824 c 0.06772,0.07441 0.119621,0.165572 0.155712,0.273472 0.03609,0.1079 0.05414,0.230311 0.05414,0.367233 0,0.136922 -0.01842,0.259519 -0.05525,0.367792 -0.03683,0.108272 -0.08837,0.198499 -0.154595,0.270681 -0.06846,0.07516 -0.149386,0.131713 -0.242776,0.169664 -0.09339,0.03795 -0.199988,0.05693 -0.319794,0.05693 -0.11683,0 -0.223056,-0.01935 -0.318678,-0.05804 -0.09562,-0.0387 -0.17692,-0.09488 -0.243893,-0.168548 -0.06697,-0.07367 -0.118504,-0.164083 -0.154595,-0.271239 -0.03609,-0.107157 -0.05414,-0.229568 -0.05414,-0.367234 0,-0.135433 0.01786,-0.256914 0.05358,-0.364443 0.03572,-0.107528 0.08781,-0.199615 0.15627,-0.276262 0.06548,-0.07293 0.146781,-0.128736 0.243892,-0.167431 0.09711,-0.0387 0.202964,-0.05804 0.317562,-0.05804 0.119062,0 0.226032,0.01953 0.32091,0.0586 0.09488,0.03907 0.175432,0.09469 0.24166,0.166873 z m -0.02009,0.640705 c 0,-0.215801 -0.04837,-0.382302 -0.145107,-0.499504 -0.09674,-0.117202 -0.228823,-0.175803 -0.396255,-0.175803 -0.16892,0 -0.301563,0.0586 -0.397929,0.175803 -0.09637,0.117202 -0.14455,0.283703 -0.14455,0.499504 0,0.218034 0.04911,0.384907 0.14734,0.500621 0.09823,0.115714 0.22994,0.173571 0.395139,0.173571 0.165199,0 0.296726,-0.05786 0.394581,-0.173571 0.09785,-0.115714 0.146781,-0.282587 0.146781,-0.500621 z"
         style="fill:#444444;fill-opacity:1;fill-rule:nonzero;stroke:none"
         id="path168"
         inkscape:connector-curvature="0" /><path
         d="m 37.173648,47.007439 c -0.04093,0.01786 -0.07795,0.0346 -0.111062,0.05023 -0.03312,0.01563 -0.07646,0.032 -0.130039,0.04911 -0.04539,0.01414 -0.09469,0.02623 -0.147898,0.03628 -0.05321,0.01005 -0.111807,0.01507 -0.175803,0.01507 -0.120551,0 -0.230126,-0.01693 -0.328724,-0.05079 -0.0986,-0.03386 -0.184361,-0.08688 -0.257287,-0.15906 -0.07144,-0.07069 -0.127248,-0.160548 -0.167432,-0.269565 -0.04018,-0.109016 -0.06028,-0.235706 -0.06028,-0.380069 0,-0.136922 0.01935,-0.259333 0.05804,-0.367234 0.03869,-0.1079 0.09451,-0.199057 0.167432,-0.273472 0.07069,-0.07218 0.156083,-0.127248 0.25617,-0.165199 0.100087,-0.03795 0.21115,-0.05693 0.333189,-0.05693 0.0893,0 0.178408,0.01079 0.267332,0.03237 0.08893,0.02158 0.18771,0.05953 0.296354,0.113853 l 0,0.26231 -0.01674,0 c -0.09153,-0.07665 -0.182314,-0.132457 -0.272355,-0.167432 -0.09004,-0.03497 -0.186407,-0.05246 -0.289099,-0.05246 -0.08409,0 -0.159804,0.01358 -0.227149,0.04074 -0.06735,0.02716 -0.127434,0.06939 -0.180268,0.12669 -0.05135,0.05581 -0.09134,0.126318 -0.119993,0.211522 -0.02865,0.0852 -0.04297,0.183616 -0.04297,0.295238 0,0.11683 0.01581,0.217289 0.04744,0.301377 0.03163,0.08409 0.07237,0.152548 0.122226,0.205382 0.05209,0.05507 0.112923,0.09581 0.1825,0.122225 0.06958,0.02642 0.143061,0.03963 0.220452,0.03963 0.106412,0 0.206127,-0.01823 0.299144,-0.0547 0.09302,-0.03646 0.180082,-0.09116 0.261193,-0.164082 l 0.01563,0 0,0.25896 z"
         style="fill:#444444;fill-opacity:1;fill-rule:nonzero;stroke:none"
         id="path170"
         inkscape:connector-curvature="0" /><path
         d="m 38.635717,47.12799 -0.221009,0 0,-0.813718 -0.829345,0 0,0.813718 -0.22101,0 0,-1.662038 0.22101,0 0,0.651867 0.829345,0 0,-0.651867 0.221009,0 0,1.662038 z"
         style="fill:#444444;fill-opacity:1;fill-rule:nonzero;stroke:none"
         id="path172"
         inkscape:connector-curvature="0" /><path
         d="m 39.409754,47.146408 c 0.02143,0.0192 0.03907,0.04331 0.05291,0.07233 0.01384,0.02902 0.02076,0.06653 0.02076,0.112514 0,0.04554 -0.0083,0.08729 -0.02478,0.125239 -0.01652,0.03795 -0.03974,0.07099 -0.06965,0.09912 -0.03349,0.03125 -0.07289,0.05436 -0.118206,0.06932 -0.04532,0.01496 -0.09499,0.02244 -0.149015,0.02244 -0.05536,0 -0.109835,-0.0066 -0.163413,-0.01976 -0.05358,-0.01317 -0.09756,-0.02757 -0.131936,-0.0432 l 0,-0.139973 0.01005,0 c 0.03795,0.025 0.0826,0.04576 0.133945,0.06228 0.05135,0.01652 0.100906,0.02478 0.148679,0.02478 0.02813,0 0.05804,-0.0047 0.08974,-0.01406 0.0317,-0.0094 0.05737,-0.02322 0.07702,-0.04152 0.02054,-0.01964 0.03583,-0.0413 0.04588,-0.06496 0.01005,-0.02366 0.01507,-0.05358 0.01507,-0.08974 0,-0.03572 -0.0057,-0.0653 -0.01708,-0.08874 -0.01138,-0.02344 -0.02712,-0.04186 -0.04722,-0.05525 -0.02009,-0.01384 -0.04442,-0.02333 -0.073,-0.02846 -0.02857,-0.0051 -0.05938,-0.0077 -0.09242,-0.0077 l -0.06028,0 0,-0.111175 0.04688,0 c 0.06786,0 0.122002,-0.01418 0.162408,-0.04253 0.04041,-0.02835 0.06061,-0.06976 0.06061,-0.124235 0,-0.02411 -0.0051,-0.04521 -0.0154,-0.06329 -0.01027,-0.01808 -0.02456,-0.03293 -0.04286,-0.04454 -0.0192,-0.01161 -0.03974,-0.01965 -0.06162,-0.02411 -0.02188,-0.0045 -0.04666,-0.0067 -0.07434,-0.0067 -0.04242,0 -0.08751,0.0076 -0.135285,0.02277 -0.04777,0.01518 -0.09287,0.03661 -0.135285,0.06429 l -0.0067,0 0,-0.139972 c 0.0317,-0.01563 0.074,-0.03003 0.126913,-0.0432 0.05291,-0.01317 0.104143,-0.01976 0.153703,-0.01976 0.04867,0 0.09153,0.0045 0.128587,0.01339 0.03706,0.0089 0.07055,0.02322 0.100459,0.04286 0.03215,0.02143 0.05648,0.04733 0.073,0.07769 0.01652,0.03036 0.02478,0.06586 0.02478,0.106486 0,0.05536 -0.01953,0.103696 -0.0586,0.144996 -0.03907,0.0413 -0.08517,0.06731 -0.138298,0.07802 l 0,0.0094 c 0.02143,0.0036 0.04599,0.01105 0.07367,0.02244 0.02768,0.01139 0.05112,0.02556 0.07032,0.04253 z"
         style="fill:#444444;fill-opacity:1;fill-rule:nonzero;stroke:none"
         id="path174"
         inkscape:connector-curvature="0" /><path
         d="m 50.381246,19.169888 c -0.04093,0.01786 -0.07795,0.0346 -0.111063,0.05023 -0.03311,0.01563 -0.07646,0.032 -0.130039,0.04911 -0.04539,0.01414 -0.09469,0.02623 -0.147898,0.03628 -0.05321,0.01005 -0.111807,0.01507 -0.175803,0.01507 -0.120551,0 -0.230125,-0.01693 -0.328724,-0.05079 -0.0986,-0.03386 -0.184361,-0.08688 -0.257287,-0.15906 -0.07144,-0.07069 -0.127248,-0.160548 -0.167431,-0.269565 -0.04018,-0.109017 -0.06028,-0.235707 -0.06028,-0.38007 0,-0.136922 0.01935,-0.259333 0.05804,-0.367233 0.0387,-0.107901 0.09451,-0.199058 0.167432,-0.273472 0.07069,-0.07218 0.156083,-0.127248 0.25617,-0.165199 0.100087,-0.03795 0.21115,-0.05693 0.333189,-0.05693 0.0893,0 0.178408,0.01079 0.267333,0.03237 0.08892,0.02158 0.187709,0.05953 0.296354,0.113854 l 0,0.262309 -0.01674,0 c -0.09153,-0.07665 -0.182315,-0.132457 -0.272356,-0.167431 -0.09004,-0.03497 -0.186407,-0.05246 -0.289099,-0.05246 -0.08409,0 -0.159804,0.01358 -0.227148,0.04074 -0.06734,0.02716 -0.127435,0.06939 -0.180269,0.12669 -0.05135,0.05581 -0.09134,0.126318 -0.119992,0.211522 -0.02865,0.0852 -0.04297,0.183617 -0.04297,0.295238 0,0.11683 0.01581,0.217289 0.04744,0.301377 0.03163,0.08409 0.07237,0.152549 0.122225,0.205383 0.05209,0.05507 0.112923,0.09581 0.1825,0.122225 0.06958,0.02642 0.143061,0.03963 0.220452,0.03963 0.106412,0 0.206127,-0.01823 0.299144,-0.05469 0.09302,-0.03646 0.180082,-0.09116 0.261194,-0.164083 l 0.01563,0 0,0.258961 z"
         style="fill:#444444;fill-opacity:1;fill-rule:nonzero;stroke:none"
         id="path176"
         inkscape:connector-curvature="0" /><path
         d="m 51.843315,19.290439 -0.22101,0 0,-0.813718 -0.829345,0 0,0.813718 -0.22101,0 0,-1.662038 0.22101,0 0,0.651867 0.829345,0 0,-0.651867 0.22101,0 0,1.662038 z"
         style="fill:#444444;fill-opacity:1;fill-rule:nonzero;stroke:none"
         id="path178"
         inkscape:connector-curvature="0" /><path
         d="m 52.617351,19.308856 c 0.02143,0.0192 0.03907,0.04331 0.05291,0.07233 0.01384,0.02902 0.02076,0.06653 0.02076,0.112514 0,0.04554 -0.0083,0.08729 -0.02478,0.125239 -0.01652,0.03795 -0.03974,0.07099 -0.06965,0.09912 -0.03349,0.03125 -0.07289,0.05436 -0.118207,0.06932 -0.04532,0.01496 -0.09499,0.02244 -0.149014,0.02244 -0.05536,0 -0.109835,-0.0066 -0.163413,-0.01976 -0.05358,-0.01317 -0.09756,-0.02757 -0.131937,-0.0432 l 0,-0.139973 0.01005,0 c 0.03795,0.025 0.0826,0.04576 0.133946,0.06228 0.05135,0.01652 0.100905,0.02478 0.148679,0.02478 0.02813,0 0.05804,-0.0047 0.08974,-0.01406 0.0317,-0.0094 0.05737,-0.02322 0.07702,-0.04152 0.02054,-0.01965 0.03583,-0.0413 0.04588,-0.06496 0.01005,-0.02366 0.01507,-0.05358 0.01507,-0.08974 0,-0.03572 -0.0057,-0.0653 -0.01708,-0.08874 -0.01138,-0.02344 -0.02712,-0.04186 -0.04722,-0.05525 -0.02009,-0.01384 -0.04442,-0.02333 -0.073,-0.02846 -0.02857,-0.0051 -0.05938,-0.0077 -0.09242,-0.0077 l -0.06028,0 0,-0.111175 0.04688,0 c 0.06787,0 0.122002,-0.01418 0.162409,-0.04253 0.04041,-0.02835 0.06061,-0.06976 0.06061,-0.124234 0,-0.02411 -0.0051,-0.04521 -0.0154,-0.06329 -0.01027,-0.01808 -0.02456,-0.03293 -0.04286,-0.04454 -0.0192,-0.01161 -0.03974,-0.01965 -0.06162,-0.02411 -0.02188,-0.0045 -0.04666,-0.0067 -0.07434,-0.0067 -0.04242,0 -0.08751,0.0076 -0.135284,0.02277 -0.04777,0.01518 -0.09287,0.03661 -0.135285,0.06429 l -0.0067,0 0,-0.139973 c 0.0317,-0.01563 0.074,-0.03003 0.126913,-0.0432 0.05291,-0.01317 0.104142,-0.01976 0.153702,-0.01976 0.04867,0 0.09153,0.0045 0.128587,0.01339 0.03706,0.0089 0.07055,0.02322 0.100459,0.04286 0.03215,0.02143 0.05648,0.04733 0.073,0.07769 0.01652,0.03036 0.02478,0.06586 0.02478,0.106487 0,0.05536 -0.01953,0.103696 -0.0586,0.144996 -0.03907,0.0413 -0.08517,0.06731 -0.138298,0.07802 l 0,0.0094 c 0.02143,0.0036 0.04599,0.01105 0.07367,0.02244 0.02768,0.01139 0.05112,0.02556 0.07032,0.04253 z"
         style="fill:#444444;fill-opacity:1;fill-rule:nonzero;stroke:none"
         id="path180"
         inkscape:connector-curvature="0" /><path
         d="m 23.966051,49.445765 c -0.04093,0.01786 -0.07795,0.0346 -0.111063,0.05023 -0.03311,0.01563 -0.07646,0.032 -0.130039,0.04911 -0.04539,0.01414 -0.09469,0.02623 -0.147897,0.03628 -0.05321,0.01005 -0.111808,0.01507 -0.175804,0.01507 -0.12055,0 -0.230125,-0.01693 -0.328724,-0.05079 -0.0986,-0.03386 -0.184361,-0.08688 -0.257286,-0.15906 -0.07144,-0.07069 -0.127248,-0.160548 -0.167432,-0.269565 -0.04018,-0.109017 -0.06028,-0.235707 -0.06028,-0.38007 0,-0.136922 0.01935,-0.259333 0.05804,-0.367233 0.0387,-0.107901 0.09451,-0.199058 0.167431,-0.273472 0.07069,-0.07218 0.156084,-0.127248 0.256171,-0.165199 0.100086,-0.03795 0.211149,-0.05693 0.333189,-0.05693 0.0893,0 0.178407,0.01079 0.267332,0.03237 0.08892,0.02158 0.18771,0.05953 0.296354,0.113854 l 0,0.262309 -0.01674,0 c -0.09153,-0.07665 -0.182315,-0.132457 -0.272355,-0.167431 -0.09004,-0.03498 -0.186408,-0.05246 -0.289099,-0.05246 -0.08409,0 -0.159804,0.01358 -0.227149,0.04074 -0.06734,0.02716 -0.127434,0.06939 -0.180268,0.12669 -0.05135,0.05581 -0.09134,0.126318 -0.119993,0.211522 -0.02865,0.08521 -0.04297,0.183617 -0.04297,0.295238 0,0.11683 0.01581,0.217289 0.04744,0.301377 0.03163,0.08409 0.07237,0.152549 0.122225,0.205383 0.05209,0.05507 0.112923,0.09581 0.182501,0.122225 0.06958,0.02642 0.143061,0.03963 0.220451,0.03963 0.106412,0 0.206127,-0.01823 0.299145,-0.05469 0.09302,-0.03646 0.180082,-0.09116 0.261193,-0.164083 l 0.01563,0 0,0.258961 z"
         style="fill:#444444;fill-opacity:1;fill-rule:nonzero;stroke:none"
         id="path182"
         inkscape:connector-curvature="0" /><path
         d="m 25.42812,49.566316 -0.22101,0 0,-0.813718 -0.829344,0 0,0.813718 -0.22101,0 0,-1.662038 0.22101,0 0,0.651867 0.829344,0 0,-0.651867 0.22101,0 0,1.662038 z"
         style="fill:#444444;fill-opacity:1;fill-rule:nonzero;stroke:none"
         id="path184"
         inkscape:connector-curvature="0" /><path
         d="m 26.202156,49.584733 c 0.02143,0.0192 0.03907,0.04331 0.05291,0.07233 0.01384,0.02902 0.02076,0.06653 0.02076,0.112514 0,0.04554 -0.0083,0.08729 -0.02478,0.125239 -0.01652,0.03795 -0.03974,0.07099 -0.06965,0.09912 -0.03349,0.03125 -0.07289,0.05436 -0.118207,0.06932 -0.04532,0.01496 -0.09499,0.02244 -0.149014,0.02244 -0.05536,0 -0.109835,-0.0066 -0.163413,-0.01976 -0.05358,-0.01317 -0.09756,-0.02757 -0.131936,-0.0432 l 0,-0.139973 0.01005,0 c 0.03795,0.025 0.0826,0.04576 0.133945,0.06228 0.05135,0.01652 0.100905,0.02478 0.148679,0.02478 0.02813,0 0.05804,-0.0047 0.08974,-0.01406 0.0317,-0.0094 0.05737,-0.02322 0.07702,-0.04152 0.02054,-0.01965 0.03583,-0.0413 0.04588,-0.06496 0.01005,-0.02366 0.01507,-0.05358 0.01507,-0.08974 0,-0.03572 -0.0057,-0.0653 -0.01708,-0.08874 -0.01139,-0.02344 -0.02712,-0.04186 -0.04722,-0.05525 -0.02009,-0.01384 -0.04443,-0.02333 -0.073,-0.02846 -0.02858,-0.0051 -0.05938,-0.0077 -0.09242,-0.0077 l -0.06028,0 0,-0.111175 0.04688,0 c 0.06787,0 0.122002,-0.01418 0.162409,-0.04253 0.04041,-0.02835 0.06061,-0.06976 0.06061,-0.124234 0,-0.02411 -0.0051,-0.04521 -0.0154,-0.06329 -0.01027,-0.01808 -0.02456,-0.03293 -0.04286,-0.04454 -0.0192,-0.01161 -0.03974,-0.01964 -0.06161,-0.02411 -0.02188,-0.0045 -0.04666,-0.0067 -0.07434,-0.0067 -0.04242,0 -0.08751,0.0076 -0.135285,0.02277 -0.04777,0.01518 -0.09287,0.03661 -0.135285,0.06429 l -0.0067,0 0,-0.139973 c 0.0317,-0.01563 0.074,-0.03003 0.126913,-0.0432 0.05291,-0.01317 0.104142,-0.01976 0.153702,-0.01976 0.04867,0 0.09153,0.0045 0.128588,0.0134 0.03706,0.0089 0.07054,0.02322 0.100459,0.04286 0.03215,0.02143 0.05648,0.04733 0.073,0.07769 0.01652,0.03036 0.02478,0.06586 0.02478,0.106487 0,0.05536 -0.01953,0.103696 -0.0586,0.144996 -0.03907,0.0413 -0.08517,0.06731 -0.138299,0.07802 l 0,0.0094 c 0.02143,0.0036 0.04599,0.01105 0.07367,0.02244 0.02768,0.01138 0.05112,0.02556 0.07032,0.04253 z"
         style="fill:#444444;fill-opacity:1;fill-rule:nonzero;stroke:none"
         id="path186"
         inkscape:connector-curvature="0" /><path
         d="m 6.4378057,29.246935 -0.2210098,0 0,-0.813717 -0.8293447,0 0,0.813717 -0.2210097,0 0,-1.662038 0.2210097,0 0,0.651867 0.8293447,0 0,-0.651867 0.2210098,0 0,1.662038 z"
         style="fill:#444444;fill-opacity:1;fill-rule:nonzero;stroke:none"
         id="path188"
         inkscape:connector-curvature="0" /><path
         d="m 32.694313,24.228048 -0.273472,0 -0.788045,-1.486793 0,1.486793 -0.206499,0 0,-1.662038 0.342677,0 0.71884,1.357313 0,-1.357313 0.206499,0 0,1.662038 z"
         style="fill:#444444;fill-opacity:1;fill-rule:nonzero;stroke:none"
         id="path190"
         inkscape:connector-curvature="0" /><path
         d="m 28.21609,30.346479 c 0.06772,0.07441 0.119621,0.165571 0.155712,0.273472 0.03609,0.1079 0.05414,0.230311 0.05414,0.367233 0,0.136922 -0.01842,0.259519 -0.05525,0.367791 -0.03683,0.108273 -0.08837,0.1985 -0.154595,0.270682 -0.06846,0.07516 -0.149386,0.131712 -0.242776,0.169664 -0.09339,0.03795 -0.199988,0.05693 -0.319794,0.05693 -0.11683,0 -0.223056,-0.01935 -0.318678,-0.05804 -0.09562,-0.0387 -0.17692,-0.09488 -0.243892,-0.168547 -0.06697,-0.07367 -0.118505,-0.164083 -0.154596,-0.27124 -0.03609,-0.107156 -0.05414,-0.229567 -0.05414,-0.367233 0,-0.135434 0.01786,-0.256915 0.05358,-0.364443 0.03572,-0.107528 0.08781,-0.199616 0.15627,-0.276262 0.06548,-0.07293 0.146781,-0.128737 0.243892,-0.167432 0.09711,-0.0387 0.202964,-0.05804 0.317562,-0.05804 0.119062,0 0.226033,0.01953 0.32091,0.0586 0.09488,0.03907 0.175432,0.09469 0.24166,0.166874 z M 28.196,30.987184 c 0,-0.215801 -0.04837,-0.382302 -0.145107,-0.499505 -0.09674,-0.117202 -0.228823,-0.175803 -0.396255,-0.175803 -0.16892,0 -0.301563,0.0586 -0.397929,0.175803 -0.09637,0.117203 -0.144549,0.283704 -0.144549,0.499505 0,0.218033 0.04911,0.384907 0.147339,0.50062 0.09823,0.115714 0.22994,0.173571 0.395139,0.173571 0.165199,0 0.296726,-0.05786 0.394581,-0.173571 0.09785,-0.115713 0.146781,-0.282587 0.146781,-0.50062 z"
         style="fill:#444444;fill-opacity:1;fill-rule:nonzero;stroke:none"
         id="path192"
         inkscape:connector-curvature="0" /><path
         d="m 11.472305,19.230546 c 0.06772,0.07441 0.11962,0.165571 0.155711,0.273472 0.03609,0.1079 0.05414,0.230311 0.05414,0.367233 0,0.136922 -0.01842,0.259519 -0.05525,0.367792 -0.03683,0.108272 -0.08837,0.198499 -0.154595,0.270681 -0.06846,0.07516 -0.149386,0.131713 -0.242776,0.169664 -0.09339,0.03795 -0.199988,0.05693 -0.319794,0.05693 -0.11683,0 -0.223057,-0.01935 -0.318679,-0.05804 -0.09562,-0.0387 -0.176919,-0.09488 -0.243892,-0.168548 -0.06697,-0.07367 -0.118504,-0.164083 -0.154595,-0.271239 -0.03609,-0.107156 -0.05414,-0.229568 -0.05414,-0.367234 0,-0.135433 0.01786,-0.256914 0.05358,-0.364443 0.03572,-0.107528 0.08781,-0.199615 0.15627,-0.276262 0.06548,-0.07293 0.146781,-0.128736 0.243892,-0.167431 0.09711,-0.0387 0.202964,-0.05804 0.317562,-0.05804 0.119062,0 0.226032,0.01953 0.32091,0.0586 0.09488,0.03907 0.175431,0.09469 0.24166,0.166873 z m -0.02009,0.640705 c 0,-0.215801 -0.04837,-0.382302 -0.145107,-0.499504 -0.09674,-0.117202 -0.228824,-0.175803 -0.396255,-0.175803 -0.16892,0 -0.301563,0.0586 -0.397929,0.175803 -0.09637,0.117202 -0.14455,0.283703 -0.14455,0.499504 0,0.218033 0.04911,0.384907 0.14734,0.500621 0.09823,0.115714 0.22994,0.173571 0.395139,0.173571 0.165199,0 0.296726,-0.05786 0.39458,-0.173571 0.09785,-0.115714 0.146782,-0.282588 0.146782,-0.500621 z"
         style="fill:#444444;fill-opacity:1;fill-rule:nonzero;stroke:none"
         id="path194"
         inkscape:connector-curvature="0" /><path
         d="m 14.021869,14.865874 c -0.04093,0.01786 -0.07795,0.0346 -0.111063,0.05023 -0.03311,0.01563 -0.07646,0.032 -0.130038,0.04911 -0.04539,0.01414 -0.09469,0.02623 -0.147898,0.03628 -0.05321,0.01005 -0.111807,0.01507 -0.175803,0.01507 -0.120551,0 -0.230126,-0.01693 -0.328724,-0.05079 -0.0986,-0.03386 -0.184361,-0.08688 -0.257287,-0.15906 -0.07144,-0.07069 -0.127248,-0.160549 -0.167432,-0.269565 -0.04018,-0.109017 -0.06027,-0.235707 -0.06027,-0.38007 0,-0.136922 0.01935,-0.259333 0.05804,-0.367233 0.0387,-0.107901 0.09451,-0.199058 0.167432,-0.273472 0.07069,-0.07218 0.156083,-0.127248 0.25617,-0.165199 0.100087,-0.03795 0.21115,-0.05693 0.333189,-0.05693 0.0893,0 0.178408,0.01079 0.267332,0.03237 0.08892,0.02158 0.18771,0.05953 0.296354,0.113854 l 0,0.262309 -0.01674,0 c -0.09153,-0.07665 -0.182314,-0.132457 -0.272355,-0.167432 -0.09004,-0.03497 -0.186407,-0.05246 -0.289099,-0.05246 -0.08409,0 -0.159804,0.01358 -0.227149,0.04074 -0.06735,0.02716 -0.127434,0.06939 -0.180268,0.12669 -0.05135,0.05581 -0.09134,0.126318 -0.119992,0.211522 -0.02865,0.0852 -0.04298,0.183617 -0.04298,0.295238 0,0.11683 0.01581,0.217289 0.04744,0.301377 0.03163,0.08409 0.07237,0.152549 0.122225,0.205383 0.05209,0.05507 0.112924,0.09581 0.182501,0.122225 0.06958,0.02642 0.143061,0.03962 0.220452,0.03962 0.106412,0 0.206127,-0.01823 0.299144,-0.05469 0.09302,-0.03646 0.180082,-0.09116 0.261194,-0.164083 l 0.01563,0 0,0.258961 z"
         style="fill:#444444;fill-opacity:1;fill-rule:nonzero;stroke:none"
         id="path196"
         inkscape:connector-curvature="0" /><path
         d="m 11.604938,14.986425 -0.22101,0 0,-0.813718 -0.829345,0 0,0.813718 -0.221009,0 0,-1.662038 0.221009,0 0,0.651867 0.829345,0 0,-0.651867 0.22101,0 0,1.662038 z"
         style="fill:#444444;fill-opacity:1;fill-rule:nonzero;stroke:none"
         id="path198"
         inkscape:connector-curvature="0" /><path
         d="m 12.378974,15.004842 c 0.02143,0.0192 0.03907,0.04331 0.05291,0.07233 0.01384,0.02902 0.02076,0.06653 0.02076,0.112514 0,0.04554 -0.0083,0.08729 -0.02478,0.125238 -0.01652,0.03795 -0.03974,0.07099 -0.06965,0.09912 -0.03349,0.03125 -0.07289,0.05436 -0.118207,0.06932 -0.04532,0.01496 -0.09499,0.02244 -0.149014,0.02244 -0.05536,0 -0.109835,-0.0066 -0.163413,-0.01976 -0.05358,-0.01317 -0.09756,-0.02757 -0.131936,-0.0432 l 0,-0.139972 0.01004,0 c 0.03795,0.025 0.0826,0.04576 0.133946,0.06228 0.05134,0.01652 0.100905,0.02478 0.148679,0.02478 0.02813,0 0.05804,-0.0047 0.08974,-0.01406 0.0317,-0.0094 0.05737,-0.02322 0.07702,-0.04152 0.02054,-0.01965 0.03583,-0.0413 0.04588,-0.06496 0.01005,-0.02366 0.01507,-0.05358 0.01507,-0.08974 0,-0.03572 -0.0057,-0.0653 -0.01708,-0.08874 -0.01139,-0.02344 -0.02712,-0.04186 -0.04722,-0.05525 -0.02009,-0.01384 -0.04443,-0.02333 -0.073,-0.02846 -0.02858,-0.0051 -0.05938,-0.0077 -0.09242,-0.0077 l -0.06028,0 0,-0.111174 0.04688,0 c 0.06787,0 0.122002,-0.01418 0.162409,-0.04253 0.04041,-0.02835 0.06061,-0.06976 0.06061,-0.124234 0,-0.02411 -0.0051,-0.04521 -0.0154,-0.06329 -0.01027,-0.01808 -0.02456,-0.03293 -0.04286,-0.04454 -0.0192,-0.01161 -0.03974,-0.01964 -0.06161,-0.02411 -0.02188,-0.0045 -0.04666,-0.0067 -0.07434,-0.0067 -0.04242,0 -0.08751,0.0076 -0.135285,0.02277 -0.04777,0.01518 -0.09287,0.03661 -0.135285,0.06429 l -0.0067,0 0,-0.139973 c 0.0317,-0.01563 0.074,-0.03003 0.126913,-0.0432 0.05291,-0.01317 0.104142,-0.01976 0.153702,-0.01976 0.04867,0 0.09153,0.0045 0.128588,0.01339 0.03706,0.0089 0.07054,0.02322 0.100459,0.04286 0.03215,0.02143 0.05648,0.04733 0.073,0.07769 0.01652,0.03036 0.02478,0.06586 0.02478,0.106487 0,0.05536 -0.01953,0.103696 -0.0586,0.144995 -0.03907,0.0413 -0.08517,0.06731 -0.138299,0.07802 l 0,0.0094 c 0.02143,0.0036 0.04599,0.01105 0.07367,0.02244 0.02768,0.01138 0.05112,0.02556 0.07032,0.04253 z"
         style="fill:#444444;fill-opacity:1;fill-rule:nonzero;stroke:none"
         id="path200"
         inkscape:connector-curvature="0" /><path
         d="m 18.803072,27.961888 -0.221009,0 0,-0.813717 -0.829345,0 0,0.813717 -0.22101,0 0,-1.662038 0.22101,0 0,0.651868 0.829345,0 0,-0.651868 0.221009,0 0,1.662038 z"
         style="fill:#444444;fill-opacity:1;fill-rule:nonzero;stroke:none"
         id="path202"
         inkscape:connector-curvature="0" /><path
         d="m 25.645996,13.515874 c 0.06772,0.07441 0.119621,0.165572 0.155712,0.273472 0.03609,0.107901 0.05414,0.230312 0.05414,0.367234 0,0.136921 -0.01842,0.259519 -0.05525,0.367791 -0.03684,0.108272 -0.08837,0.198499 -0.154596,0.270681 -0.06846,0.07516 -0.149386,0.131713 -0.242775,0.169664 -0.09339,0.03795 -0.199988,0.05693 -0.319795,0.05693 -0.11683,0 -0.223056,-0.01935 -0.318678,-0.05804 -0.09562,-0.03869 -0.17692,-0.09488 -0.243892,-0.168548 -0.06697,-0.07367 -0.118505,-0.164083 -0.154595,-0.271239 -0.03609,-0.107156 -0.05414,-0.229568 -0.05414,-0.367233 0,-0.135434 0.01786,-0.256915 0.05358,-0.364443 0.03572,-0.107529 0.08781,-0.199616 0.15627,-0.276263 0.06548,-0.07292 0.146782,-0.128736 0.243892,-0.167431 0.09711,-0.0387 0.202964,-0.05804 0.317562,-0.05804 0.119063,0 0.226033,0.01953 0.320911,0.0586 0.09488,0.03907 0.175431,0.09469 0.241659,0.166873 z m -0.02009,0.640706 c 0,-0.215801 -0.04837,-0.382303 -0.145108,-0.499505 -0.09674,-0.117202 -0.228823,-0.175803 -0.396255,-0.175803 -0.16892,0 -0.301563,0.0586 -0.397929,0.175803 -0.09637,0.117202 -0.144549,0.283704 -0.144549,0.499505 0,0.218033 0.04911,0.384906 0.14734,0.50062 0.09823,0.115714 0.229939,0.173571 0.395138,0.173571 0.1652,0 0.296726,-0.05786 0.394581,-0.173571 0.09785,-0.115714 0.146782,-0.282587 0.146782,-0.50062 z"
         style="fill:#444444;fill-opacity:1;fill-rule:nonzero;stroke:none"
         id="path204"
         inkscape:connector-curvature="0" /><path
         d="m 43.345814,9.7558575 c -0.04093,0.017859 -0.07795,0.034603 -0.111063,0.05023 -0.03311,0.015627 -0.07646,0.031998 -0.130038,0.049113 -0.04539,0.014139 -0.09469,0.026231 -0.147898,0.036277 -0.05321,0.010046 -0.111807,0.015069 -0.175804,0.015069 -0.12055,0 -0.230125,-0.016929 -0.328724,-0.050788 -0.0986,-0.033858 -0.18436,-0.086878 -0.257286,-0.15906 -0.07144,-0.070693 -0.127248,-0.1605484 -0.167432,-0.269565 -0.04018,-0.1090166 -0.06027,-0.2357065 -0.06027,-0.3800698 0,-0.1369219 0.01935,-0.259333 0.05804,-0.3672334 0.03869,-0.1079004 0.0945,-0.1990576 0.167431,-0.2734717 0.07069,-0.072182 0.156084,-0.127248 0.256171,-0.1651992 0.100087,-0.037951 0.21115,-0.056927 0.333189,-0.056927 0.0893,0 0.178407,0.01079 0.267332,0.03237 0.08892,0.02158 0.18771,0.059531 0.296354,0.1138535 l 0,0.2623095 -0.01674,0 c -0.09153,-0.076646 -0.182314,-0.132457 -0.272355,-0.1674316 -0.09004,-0.034975 -0.186408,-0.052462 -0.289099,-0.052462 -0.08409,0 -0.159804,0.013581 -0.227149,0.040742 -0.06734,0.027161 -0.127434,0.069391 -0.180268,0.1266899 -0.05135,0.055811 -0.09134,0.1263179 -0.119993,0.211522 -0.02865,0.085204 -0.04297,0.1836167 -0.04297,0.2952378 0,0.1168301 0.01581,0.2172891 0.04744,0.301377 0.03163,0.084088 0.07237,0.1525488 0.122225,0.2053828 0.05209,0.055066 0.112924,0.095808 0.182501,0.1222251 0.06958,0.026417 0.143061,0.039625 0.220451,0.039625 0.106412,0 0.206127,-0.018232 0.299145,-0.054694 0.09302,-0.036463 0.180082,-0.091157 0.261193,-0.164083 l 0.01563,0 0,0.2589609 z"
         style="fill:#444444;fill-opacity:1;fill-rule:nonzero;stroke:none"
         id="path206"
         inkscape:connector-curvature="0" /><path
         d="m 44.807883,9.8764083 -0.22101,0 0,-0.8137177 -0.829344,0 0,0.8137177 -0.22101,0 0,-1.6620381 0.22101,0 0,0.6518672 0.829344,0 0,-0.6518672 0.22101,0 0,1.6620381 z"
         style="fill:#444444;fill-opacity:1;fill-rule:nonzero;stroke:none"
         id="path208"
         inkscape:connector-curvature="0" /><path
         d="m 45.58192,9.8948258 c 0.02143,0.019199 0.03907,0.043309 0.05291,0.07233 0.01384,0.029022 0.02076,0.066526 0.02076,0.1125142 0,0.04554 -0.0083,0.08729 -0.02478,0.125239 -0.01652,0.03795 -0.03974,0.07099 -0.06965,0.09912 -0.03349,0.03125 -0.07289,0.05436 -0.118207,0.06932 -0.04532,0.01496 -0.09499,0.02244 -0.149014,0.02244 -0.05536,0 -0.109835,-0.0066 -0.163413,-0.01976 -0.05358,-0.01317 -0.09756,-0.02757 -0.131936,-0.0432 l 0,-0.139973 0.01005,0 c 0.03795,0.025 0.0826,0.04576 0.133945,0.06228 0.05135,0.01652 0.100905,0.02478 0.148679,0.02478 0.02813,0 0.05804,-0.0047 0.08974,-0.01407 0.0317,-0.0094 0.05737,-0.02322 0.07702,-0.04152 0.02054,-0.01964 0.03583,-0.0413 0.04588,-0.06496 0.01005,-0.02366 0.01507,-0.05358 0.01507,-0.08974 0,-0.03572 -0.0057,-0.0653 -0.01708,-0.088738 -0.01139,-0.02344 -0.02712,-0.041858 -0.04722,-0.055252 -0.02009,-0.013841 -0.04442,-0.023329 -0.073,-0.028463 -0.02857,-0.00513 -0.05938,-0.0077 -0.09242,-0.0077 l -0.06027,0 0,-0.1111746 0.04688,0 c 0.06786,0 0.122001,-0.014176 0.162408,-0.042528 0.04041,-0.028352 0.06061,-0.069763 0.06061,-0.1242342 0,-0.02411 -0.0051,-0.045207 -0.0154,-0.063289 -0.01027,-0.018083 -0.02456,-0.032928 -0.04286,-0.044537 -0.0192,-0.011609 -0.03974,-0.019645 -0.06162,-0.02411 -0.02188,-0.00446 -0.04666,-0.0067 -0.07434,-0.0067 -0.04242,0 -0.08751,0.00759 -0.135285,0.022771 -0.04777,0.01518 -0.09287,0.036612 -0.135285,0.064294 l -0.0067,0 0,-0.1399728 c 0.0317,-0.015627 0.074,-0.030026 0.126913,-0.043197 0.05291,-0.013171 0.104143,-0.019757 0.153702,-0.019757 0.04867,0 0.09153,0.00446 0.128588,0.013395 0.03706,0.00893 0.07055,0.023217 0.100459,0.042863 0.03215,0.021431 0.05648,0.047327 0.073,0.077688 0.01652,0.030361 0.02478,0.065856 0.02478,0.1064865 0,0.055364 -0.01953,0.103696 -0.0586,0.1449958 -0.03907,0.0413 -0.08517,0.067308 -0.138299,0.078023 l 0,0.00938 c 0.02143,0.00357 0.04599,0.01105 0.07367,0.022436 0.02768,0.011385 0.05112,0.025561 0.07032,0.042528 z"
         style="fill:#444444;fill-opacity:1;fill-rule:nonzero;stroke:none"
         id="path210"
         inkscape:connector-curvature="0" /><path
         d="m 34.491654,9.8764083 -0.273471,0 -0.788045,-1.4867929 0,1.4867929 -0.206499,0 0,-1.6620381 0.342676,0 0.71884,1.3573125 0,-1.3573125 0.206499,0 0,1.6620381 z"
         style="fill:#444444;fill-opacity:1;fill-rule:nonzero;stroke:none"
         id="path212"
         inkscape:connector-curvature="0" /><path
         d="m 38.804335,0.7854746 c 0.06772,0.0744141 0.11962,0.1655713 0.155711,0.2734717 0.03609,0.1079004 0.05414,0.2303115 0.05414,0.3672334 0,0.1369219 -0.01842,0.259519 -0.05525,0.3677915 -0.03684,0.1082725 -0.08837,0.1984995 -0.154595,0.2706811 -0.06846,0.075158 -0.149387,0.1317129 -0.242776,0.1696641 -0.09339,0.037951 -0.199988,0.056927 -0.319795,0.056927 -0.11683,0 -0.223056,-0.019348 -0.318678,-0.058043 -0.09562,-0.038695 -0.176919,-0.094878 -0.243892,-0.1685479 -0.06697,-0.07367 -0.118504,-0.164083 -0.154595,-0.2712392 -0.03609,-0.1071563 -0.05414,-0.2295674 -0.05414,-0.3672334 0,-0.1354336 0.01786,-0.2569146 0.05358,-0.3644429 0.03572,-0.1075283 0.08781,-0.1996157 0.156269,-0.2762622 0.06548,-0.072926 0.146778,-0.1287365 0.243888,-0.1674318 C 38.021313,0.5793477 38.127167,0.56 38.241764,0.56 c 0.119063,0 0.226033,0.0195337 0.320911,0.0586011 0.09488,0.0390674 0.175431,0.0946919 0.24166,0.1668735 z m -0.02009,0.6407051 c 0,-0.2158008 -0.04837,-0.3823023 -0.145107,-0.4995044 -0.09674,-0.1172022 -0.228824,-0.1758032 -0.396255,-0.1758032 -0.16892,0 -0.301563,0.058601 -0.39793,0.1758032 -0.09637,0.1172021 -0.144549,0.2837036 -0.144549,0.4995044 0,0.2180332 0.04911,0.3849067 0.14734,0.5006206 0.09823,0.1157139 0.229939,0.1735708 0.395139,0.1735708 0.165199,0 0.296726,-0.057857 0.39458,-0.1735708 0.09785,-0.1157139 0.146782,-0.2825874 0.146782,-0.5006206 z"
         style="fill:#444444;fill-opacity:1;fill-rule:nonzero;stroke:none"
         id="path214"
         inkscape:connector-curvature="0" /><path
         d="m 34.525356,14.86649 c -0.04093,0.01786 -0.07795,0.0346 -0.111063,0.05023 -0.03311,0.01563 -0.07646,0.032 -0.130039,0.04911 -0.04539,0.01414 -0.09469,0.02623 -0.147898,0.03628 -0.05321,0.01005 -0.111807,0.01507 -0.175803,0.01507 -0.120551,0 -0.230125,-0.01693 -0.328724,-0.05079 -0.0986,-0.03386 -0.184361,-0.08688 -0.257287,-0.159061 -0.07144,-0.07069 -0.127248,-0.160548 -0.167431,-0.269565 -0.04018,-0.109016 -0.06028,-0.235706 -0.06028,-0.380069 0,-0.136922 0.01935,-0.259333 0.05804,-0.367234 0.0387,-0.1079 0.09451,-0.199057 0.167432,-0.273471 0.07069,-0.07218 0.156084,-0.127248 0.25617,-0.1652 0.100087,-0.03795 0.21115,-0.05693 0.333189,-0.05693 0.0893,0 0.178408,0.01079 0.267333,0.03237 0.08892,0.02158 0.187709,0.05953 0.296354,0.113853 l 0,0.26231 -0.01674,0 c -0.09153,-0.07665 -0.182315,-0.132457 -0.272356,-0.167432 -0.09004,-0.03497 -0.186407,-0.05246 -0.289098,-0.05246 -0.08409,0 -0.159805,0.01358 -0.227149,0.04074 -0.06735,0.02716 -0.127434,0.06939 -0.180268,0.12669 -0.05135,0.05581 -0.09134,0.126318 -0.119993,0.211522 -0.02865,0.0852 -0.04297,0.183617 -0.04297,0.295238 0,0.11683 0.01581,0.217289 0.04744,0.301377 0.03163,0.08409 0.07237,0.152548 0.122225,0.205382 0.05209,0.05507 0.112923,0.09581 0.1825,0.122226 0.06958,0.02642 0.143061,0.03963 0.220452,0.03963 0.106412,0 0.206127,-0.01823 0.299145,-0.05469 0.09302,-0.03646 0.180082,-0.09116 0.261193,-0.164083 l 0.01563,0 0,0.258961 z"
         style="fill:#444444;fill-opacity:1;fill-rule:nonzero;stroke:none"
         id="path216"
         inkscape:connector-curvature="0" /><path
         d="m 35.987425,14.98704 -0.22101,0 0,-0.813717 -0.829345,0 0,0.813717 -0.22101,0 0,-1.662038 0.22101,0 0,0.651868 0.829345,0 0,-0.651868 0.22101,0 0,1.662038 z"
         style="fill:#444444;fill-opacity:1;fill-rule:nonzero;stroke:none"
         id="path218"
         inkscape:connector-curvature="0" /><path
         d="m 36.761461,15.005458 c 0.02143,0.0192 0.03907,0.04331 0.05291,0.07233 0.01384,0.02902 0.02076,0.06653 0.02076,0.112514 0,0.04554 -0.0083,0.08729 -0.02478,0.125239 -0.01652,0.03795 -0.03974,0.07099 -0.06965,0.09912 -0.03349,0.03125 -0.07289,0.05436 -0.118207,0.06932 -0.04532,0.01496 -0.09499,0.02243 -0.149014,0.02243 -0.05536,0 -0.109835,-0.0066 -0.163414,-0.01976 -0.05358,-0.01317 -0.09756,-0.02757 -0.131936,-0.0432 l 0,-0.139973 0.01005,0 c 0.03795,0.025 0.0826,0.04577 0.133946,0.06229 0.05134,0.01652 0.100905,0.02478 0.148679,0.02478 0.02813,0 0.05804,-0.0047 0.08974,-0.01407 0.0317,-0.0094 0.05737,-0.02322 0.07702,-0.04152 0.02054,-0.01965 0.03583,-0.0413 0.04588,-0.06496 0.01005,-0.02366 0.01507,-0.05358 0.01507,-0.08974 0,-0.03572 -0.0057,-0.0653 -0.01708,-0.08874 -0.01139,-0.02344 -0.02712,-0.04186 -0.04722,-0.05525 -0.02009,-0.01384 -0.04443,-0.02333 -0.073,-0.02846 -0.02858,-0.0051 -0.05938,-0.0077 -0.09242,-0.0077 l -0.06028,0 0,-0.111175 0.04688,0 c 0.06787,0 0.122002,-0.01417 0.162409,-0.04253 0.04041,-0.02835 0.06061,-0.06976 0.06061,-0.124235 0,-0.02411 -0.0051,-0.04521 -0.0154,-0.06329 -0.01027,-0.01808 -0.02456,-0.03293 -0.04286,-0.04454 -0.0192,-0.01161 -0.03974,-0.01965 -0.06161,-0.02411 -0.02188,-0.0045 -0.04666,-0.0067 -0.07434,-0.0067 -0.04242,0 -0.08751,0.0076 -0.135284,0.02277 -0.04777,0.01518 -0.09287,0.03661 -0.135285,0.06429 l -0.0067,0 0,-0.139973 c 0.0317,-0.01563 0.074,-0.03003 0.126913,-0.0432 0.05291,-0.01317 0.104142,-0.01976 0.153702,-0.01976 0.04867,0 0.09153,0.0045 0.128588,0.01339 0.03706,0.0089 0.07054,0.02322 0.100458,0.04286 0.03215,0.02143 0.05648,0.04733 0.073,0.07769 0.01652,0.03036 0.02478,0.06586 0.02478,0.106486 0,0.05536 -0.01953,0.103696 -0.0586,0.144996 -0.03907,0.0413 -0.08517,0.06731 -0.138299,0.07802 l 0,0.0094 c 0.02143,0.0036 0.04599,0.01105 0.07367,0.02244 0.02768,0.01139 0.05112,0.02556 0.07032,0.04253 z"
         style="fill:#444444;fill-opacity:1;fill-rule:nonzero;stroke:none"
         id="path220"
         inkscape:connector-curvature="0" /><path
         d="m 30.118513,2.1360898 c -0.04093,0.017859 -0.07795,0.034603 -0.111063,0.050229 -0.03311,0.015627 -0.07646,0.031998 -0.130038,0.049113 -0.04539,0.014139 -0.09469,0.026231 -0.147898,0.036277 -0.05321,0.010046 -0.111807,0.015069 -0.175804,0.015069 -0.12055,0 -0.230125,-0.016929 -0.328724,-0.050788 -0.0986,-0.033858 -0.184361,-0.086878 -0.257286,-0.15906 -0.07144,-0.070693 -0.127248,-0.1605484 -0.167432,-0.269565 -0.04018,-0.1090166 -0.06028,-0.2357065 -0.06028,-0.3800698 0,-0.1369219 0.01935,-0.259333 0.05804,-0.3672334 0.0387,-0.1079004 0.09451,-0.1990576 0.167431,-0.2734717 0.07069,-0.0721816 0.156084,-0.127248 0.256171,-0.1651992 0.100087,-0.0379512 0.21115,-0.0569268 0.333189,-0.0569268 0.0893,0 0.178407,0.0107901 0.267332,0.0323702 0.08892,0.02158 0.18771,0.0595312 0.296354,0.1138535 l 0,0.2623095 -0.01674,0 C 30.010241,0.8963516 29.919456,0.840541 29.829415,0.8055664 29.739374,0.7705918 29.643007,0.7531045 29.540316,0.7531045 c -0.08409,0 -0.159804,0.0135806 -0.227149,0.0407417 -0.06734,0.0271611 -0.127434,0.0693911 -0.180268,0.1266899 -0.05135,0.0558106 -0.09134,0.1263179 -0.119993,0.211522 -0.02865,0.085204 -0.04297,0.1836167 -0.04297,0.2952378 0,0.1168301 0.01581,0.2172891 0.04744,0.301377 0.03163,0.084088 0.07237,0.1525488 0.122225,0.2053828 0.05209,0.055066 0.112924,0.095808 0.182501,0.1222251 0.06958,0.026417 0.143061,0.039626 0.220451,0.039626 0.106412,0 0.206127,-0.018232 0.299145,-0.054694 0.09302,-0.036463 0.180082,-0.091157 0.261193,-0.164083 l 0.01563,0 0,0.2589609 z"
         style="fill:#444444;fill-opacity:1;fill-rule:nonzero;stroke:none"
         id="path222"
         inkscape:connector-curvature="0" /><path
         d="m 31.580582,2.2566406 -0.22101,0 0,-0.8137177 -0.829344,0 0,0.8137177 -0.22101,0 0,-1.6620381 0.22101,0 0,0.6518672 0.829344,0 0,-0.6518672 0.22101,0 0,1.6620381 z"
         style="fill:#444444;fill-opacity:1;fill-rule:nonzero;stroke:none"
         id="path224"
         inkscape:connector-curvature="0" /><path
         d="m 32.354619,2.2750581 c 0.02143,0.019199 0.03907,0.043309 0.05291,0.072331 0.01384,0.029022 0.02076,0.066526 0.02076,0.112514 0,0.045541 -0.0083,0.087288 -0.02478,0.1252389 -0.01652,0.037951 -0.03974,0.070991 -0.06965,0.099119 -0.03349,0.031254 -0.07289,0.05436 -0.118207,0.069317 -0.04532,0.014957 -0.09499,0.022436 -0.149014,0.022436 -0.05536,0 -0.109835,-0.00659 -0.163413,-0.019757 -0.05358,-0.013171 -0.09756,-0.02757 -0.131936,-0.043197 l 0,-0.1399729 0.01005,0 c 0.03795,0.025003 0.0826,0.045765 0.133945,0.062285 0.05135,0.01652 0.100905,0.02478 0.148679,0.02478 0.02813,0 0.05804,-0.00469 0.08974,-0.014064 0.0317,-0.00938 0.05737,-0.023217 0.07702,-0.041523 0.02054,-0.019645 0.03583,-0.0413 0.04588,-0.064964 0.01005,-0.023664 0.01507,-0.053578 0.01507,-0.089743 0,-0.035719 -0.0057,-0.065298 -0.01708,-0.088739 -0.01138,-0.02344 -0.02712,-0.041858 -0.04722,-0.055252 -0.02009,-0.013841 -0.04443,-0.023329 -0.073,-0.028463 -0.02858,-0.00513 -0.05938,-0.0077 -0.09242,-0.0077 l -0.06028,0 0,-0.1111746 0.04688,0 c 0.06786,0 0.122001,-0.014176 0.162408,-0.042528 0.04041,-0.028352 0.06061,-0.069763 0.06061,-0.1242342 0,-0.02411 -0.0051,-0.045207 -0.0154,-0.063289 -0.01027,-0.018083 -0.02456,-0.032928 -0.04286,-0.044537 -0.0192,-0.011609 -0.03974,-0.019645 -0.06162,-0.02411 -0.02188,-0.00446 -0.04666,-0.0067 -0.07434,-0.0067 -0.04242,0 -0.08751,0.00759 -0.135285,0.022771 -0.04777,0.01518 -0.09287,0.036612 -0.135285,0.064294 l -0.0067,0 0,-0.1399728 c 0.0317,-0.015627 0.074,-0.030026 0.126913,-0.043197 0.05291,-0.013171 0.104143,-0.019757 0.153702,-0.019757 0.04867,0 0.09153,0.00446 0.128588,0.013394 0.03706,0.00893 0.07055,0.023217 0.100459,0.042863 0.03215,0.021431 0.05648,0.047327 0.073,0.077688 0.01652,0.030361 0.02478,0.065856 0.02478,0.1064865 0,0.055364 -0.01953,0.103696 -0.0586,0.1449958 -0.03907,0.0413 -0.08517,0.067307 -0.138299,0.078023 l 0,0.00938 c 0.02143,0.00357 0.04599,0.011051 0.07367,0.022436 0.02768,0.011385 0.05112,0.025561 0.07032,0.042528 z"
         style="fill:#444444;fill-opacity:1;fill-rule:nonzero;stroke:none"
         id="path226"
         inkscape:connector-curvature="0" /><path
         d="m 21.239154,5.8653197 c 0.06772,0.074414 0.11962,0.1655713 0.155711,0.2734717 0.03609,0.1079004 0.05414,0.2303115 0.05414,0.3672334 0,0.1369219 -0.01842,0.2595191 -0.05525,0.3677915 -0.03683,0.1082725 -0.08837,0.1984995 -0.154595,0.2706812 -0.06846,0.075158 -0.149386,0.1317129 -0.242776,0.169664 -0.09339,0.037951 -0.199988,0.056927 -0.319795,0.056927 -0.11683,0 -0.223056,-0.019348 -0.318678,-0.058043 -0.09562,-0.038695 -0.176919,-0.094878 -0.243892,-0.1685478 -0.06697,-0.07367 -0.118504,-0.164083 -0.154595,-0.2712393 -0.03609,-0.1071562 -0.05414,-0.2295674 -0.05414,-0.3672334 0,-0.1354336 0.01786,-0.2569145 0.05358,-0.3644428 0.03572,-0.1075284 0.08781,-0.1996158 0.156269,-0.2762623 0.06548,-0.072926 0.146782,-0.1287363 0.243892,-0.1674316 0.09711,-0.038695 0.202965,-0.058043 0.317562,-0.058043 0.119063,0 0.226033,0.019534 0.320911,0.058601 0.09488,0.039067 0.175431,0.094692 0.24166,0.1668735 z m -0.02009,0.6407051 c 0,-0.2158008 -0.04837,-0.3823022 -0.145107,-0.4995044 -0.09674,-0.1172021 -0.228824,-0.1758032 -0.396255,-0.1758032 -0.16892,0 -0.301563,0.058601 -0.39793,0.1758032 -0.09637,0.1172022 -0.144549,0.2837036 -0.144549,0.4995044 0,0.2180332 0.04911,0.3849068 0.14734,0.5006206 0.09823,0.1157139 0.229939,0.1735708 0.395139,0.1735708 0.165199,0 0.296726,-0.057857 0.39458,-0.1735708 0.09785,-0.1157138 0.146782,-0.2825874 0.146782,-0.5006206 z"
         style="fill:#444444;fill-opacity:1;fill-rule:nonzero;stroke:none"
         id="path228"
         inkscape:connector-curvature="0" /><path
         d="m 32.749565,19.027652 c -0.04093,0.01786 -0.07795,0.0346 -0.111063,0.05023 -0.03311,0.01563 -0.07646,0.032 -0.130038,0.04911 -0.04539,0.01414 -0.09469,0.02623 -0.147898,0.03628 -0.05321,0.01005 -0.111807,0.01507 -0.175804,0.01507 -0.12055,0 -0.230125,-0.01693 -0.328724,-0.05079 -0.0986,-0.03386 -0.184361,-0.08688 -0.257286,-0.15906 -0.07144,-0.07069 -0.127248,-0.160548 -0.167432,-0.269565 -0.04018,-0.109016 -0.06028,-0.235706 -0.06028,-0.380069 0,-0.136922 0.01935,-0.259334 0.05804,-0.367234 0.0387,-0.1079 0.09451,-0.199058 0.167431,-0.273472 0.07069,-0.07218 0.156084,-0.127248 0.256171,-0.165199 0.100087,-0.03795 0.21115,-0.05693 0.333189,-0.05693 0.0893,0 0.178407,0.01079 0.267332,0.03237 0.08892,0.02158 0.18771,0.05953 0.296354,0.113853 l 0,0.26231 -0.01674,0 c -0.09153,-0.07665 -0.182315,-0.132457 -0.272356,-0.167432 -0.09004,-0.03497 -0.186407,-0.05246 -0.289098,-0.05246 -0.08409,0 -0.159804,0.01358 -0.227149,0.04074 -0.06734,0.02716 -0.127434,0.06939 -0.180268,0.12669 -0.05135,0.05581 -0.09134,0.126318 -0.119993,0.211522 -0.02865,0.0852 -0.04297,0.183616 -0.04297,0.295238 0,0.11683 0.01581,0.217289 0.04744,0.301376 0.03163,0.08409 0.07237,0.152549 0.122225,0.205383 0.05209,0.05507 0.112923,0.09581 0.182501,0.122225 0.06958,0.02642 0.143061,0.03963 0.220451,0.03963 0.106412,0 0.206127,-0.01823 0.299145,-0.0547 0.09302,-0.03646 0.180082,-0.09116 0.261193,-0.164083 l 0.01563,0 0,0.258961 z"
         style="fill:#444444;fill-opacity:1;fill-rule:nonzero;stroke:none"
         id="path230"
         inkscape:connector-curvature="0" /><path
         d="m 34.211634,19.148203 -0.22101,0 0,-0.813717 -0.829345,0 0,0.813717 -0.221009,0 0,-1.662038 0.221009,0 0,0.651867 0.829345,0 0,-0.651867 0.22101,0 0,1.662038 z"
         style="fill:#444444;fill-opacity:1;fill-rule:nonzero;stroke:none"
         id="path232"
         inkscape:connector-curvature="0" /><path
         d="m 34.98567,19.166621 c 0.02143,0.0192 0.03907,0.04331 0.05291,0.07233 0.01384,0.02902 0.02076,0.06653 0.02076,0.112514 0,0.04554 -0.0083,0.08729 -0.02478,0.125239 -0.01652,0.03795 -0.03974,0.07099 -0.06965,0.09912 -0.03349,0.03125 -0.07289,0.05436 -0.118207,0.06932 -0.04532,0.01496 -0.09499,0.02244 -0.149014,0.02244 -0.05536,0 -0.109835,-0.0066 -0.163413,-0.01976 -0.05358,-0.01317 -0.09756,-0.02757 -0.131936,-0.0432 l 0,-0.139973 0.01005,0 c 0.03795,0.025 0.0826,0.04576 0.133945,0.06228 0.05135,0.01652 0.100905,0.02478 0.148679,0.02478 0.02813,0 0.05804,-0.0047 0.08974,-0.01406 0.0317,-0.0094 0.05737,-0.02322 0.07702,-0.04152 0.02054,-0.01965 0.03583,-0.0413 0.04588,-0.06496 0.01005,-0.02366 0.01507,-0.05358 0.01507,-0.08974 0,-0.03572 -0.0057,-0.0653 -0.01708,-0.08874 -0.01139,-0.02344 -0.02712,-0.04186 -0.04722,-0.05525 -0.02009,-0.01384 -0.04442,-0.02333 -0.073,-0.02846 -0.02857,-0.0051 -0.05938,-0.0077 -0.09242,-0.0077 l -0.06027,0 0,-0.111175 0.04688,0 c 0.06787,0 0.122002,-0.01418 0.162409,-0.04253 0.04041,-0.02835 0.06061,-0.06976 0.06061,-0.124235 0,-0.02411 -0.0051,-0.04521 -0.0154,-0.06329 -0.01027,-0.01808 -0.02456,-0.03293 -0.04286,-0.04454 -0.0192,-0.01161 -0.03974,-0.01965 -0.06161,-0.02411 -0.02188,-0.0045 -0.04666,-0.0067 -0.07434,-0.0067 -0.04242,0 -0.08751,0.0076 -0.135285,0.02277 -0.04777,0.01518 -0.09287,0.03661 -0.135285,0.06429 l -0.0067,0 0,-0.139972 c 0.0317,-0.01563 0.074,-0.03003 0.126913,-0.0432 0.05291,-0.01317 0.104143,-0.01976 0.153702,-0.01976 0.04867,0 0.09153,0.0045 0.128588,0.01339 0.03706,0.0089 0.07054,0.02322 0.100459,0.04286 0.03215,0.02143 0.05648,0.04733 0.073,0.07769 0.01652,0.03036 0.02478,0.06586 0.02478,0.106486 0,0.05536 -0.01953,0.103696 -0.0586,0.144996 -0.03907,0.0413 -0.08517,0.06731 -0.138299,0.07802 l 0,0.0094 c 0.02143,0.0036 0.04599,0.01105 0.07367,0.02244 0.02768,0.01139 0.05112,0.02556 0.07032,0.04253 z"
         style="fill:#444444;fill-opacity:1;fill-rule:nonzero;stroke:none"
         id="path234"
         inkscape:connector-curvature="0" /></g><rect
       style="fill:none;stroke:#ff4444;stroke-width:0.4;stroke-miterlimit:10;stroke-opacity:1;stroke-dasharray:none"
       id="rect3211"
       width="136.98697"
       height="134.64449"
       x="3.8830948"
       y="5.5975189" /><rect
       style="fill:none;stroke:#45a23e;stroke-width:0.4;stroke-miterlimit:10;stroke-opacity:1;stroke-dasharray:none"
       id="rect3211-8"
       width="147.75668"
       height="140.45247"
       x="1.6179506"
       y="1.9429471" /><text
       xml:space="preserve"
       style="font-size:9.60000038px;font-style:normal;font-variant:normal;font-weight:normal;font-stretch:normal;line-height:125%;letter-spacing:0px;word-spacing:0px;fill:#45a23e;fill-opacity:1;stroke:none;font-family:Verdana;-inkscape-font-specification:Verdana"
       x="0.86291033"
       y="-143.68341"
       id="text3999"
       sodipodi:linespacing="125%"
       transform="scale(1,-1)"><tspan
         sodipodi:role="line"
         id="tspan4001"
         x="0.86291033"
         y="-143.68341"
         style="font-size:8px;fill:#45a23e;fill-opacity:1;font-family:Courier;-inkscape-font-specification:Courier">8.46x8.03</tspan></text>
<text
       xml:space="preserve"
       style="font-size:9.60000038px;font-style:normal;font-variant:normal;font-weight:normal;font-stretch:normal;line-height:125%;letter-spacing:0px;word-spacing:0px;fill:#ff4444;fill-opacity:1;stroke:none;font-family:Verdana;-inkscape-font-specification:Verdana"
       x="4.096806"
       y="-134.3084"
       id="text3999-0"
       sodipodi:linespacing="125%"
       transform="scale(1,-1)"><tspan
         sodipodi:role="line"
         id="tspan4001-5"
         x="4.096806"
         y="-134.3084"
         style="font-size:8px;font-style:normal;font-variant:normal;font-weight:normal;font-stretch:normal;fill:#ff4444;fill-opacity:1;font-family:Courier;-inkscape-font-specification:Courier">7.85x7.68</tspan></text>
</g></svg>