<?xml version="1.0" encoding="UTF-8"?>
<!DOCTYPE svg PUBLIC "-//W3C//DTD SVG 1.1//EN" "http://www.w3.org/Graphics/SVG/1.1/DTD/svg11.dtd">
<svg version="1.2" xmlns="http://www.w3.org/2000/svg" xmlns:xlink="http://www.w3.org/1999/xlink" x="0mm" y="0mm" width="25mm" height="22mm" viewBox="0 0 25 22">
<style type="text/css"><![CDATA[
text { font:12px Dialog; }
]]></style>
<line x1="7.4773307" y1="13.1368244" x2="4.22856" y2="15.0124755" style="fill:none;stroke:rgb(68,68,68);stroke-width:0.2167546;stroke-linecap:round;stroke-linejoin:round" />
<line x1="7.4773307" y1="13.1368244" x2="7.4773307" y2="9.4019479" style="fill:none;stroke:rgb(68,68,68);stroke-width:0.2167546;stroke-linecap:round;stroke-linejoin:round" />
<line x1="6.699976" y1="7.9635308" x2="4.2145242" y2="6.5285756" style="fill:none;stroke:rgb(68,68,68);stroke-width:0.2167546;stroke-linecap:round;stroke-linejoin:round" />
<line x1="8.2546834" y1="7.9635122" x2="11.5687427" y2="6.0500831" style="fill:none;stroke:rgb(68,68,68);stroke-width:0.2167546;stroke-linecap:round;stroke-linejoin:round" />
<line x1="11.5687427" y1="6.0500831" x2="15.6601546" y2="8.4123302" style="fill:none;stroke:rgb(68,68,68);stroke-width:0.2167546;stroke-linecap:round;stroke-linejoin:round" />
<line x1="15.6601546" y1="8.4123302" x2="15.6601546" y2="13.1368244" style="fill:none;stroke:rgb(68,68,68);stroke-width:0.2167546;stroke-linecap:round;stroke-linejoin:round" />
<line x1="15.6601546" y1="13.1368244" x2="19.3589105" y2="14.3369112" style="fill:none;stroke:rgb(68,68,68);stroke-width:0.2167546;stroke-linecap:round;stroke-linejoin:round" />
<line x1="20.8441616" y1="13.6469453" x2="22.932726" y2="10.7745773" style="fill:none;stroke:rgb(68,68,68);stroke-width:0.2167546;stroke-linecap:round;stroke-linejoin:round" />
<line x1="22.932726" y1="10.7745773" x2="20.84363" y2="7.8991095" style="fill:none;stroke:rgb(68,68,68);stroke-width:0.2167546;stroke-linecap:round;stroke-linejoin:round" />
<line x1="15.6601546" y1="8.4123302" x2="19.3589529" y2="7.2096375" style="fill:none;stroke:rgb(68,68,68);stroke-width:0.2167546;stroke-linecap:round;stroke-linejoin:round" />
<line x1="20.4727151" y1="5.9718708" x2="21.3079636" y2="3.4003519" style="fill:none;stroke:rgb(68,68,68);stroke-width:0.2167546;stroke-linecap:round;stroke-linejoin:round" />
<line x1="15.6601546" y1="13.1368244" x2="12.3460953" y2="15.0502535" style="fill:none;stroke:rgb(68,68,68);stroke-width:0.2167546;stroke-linecap:round;stroke-linejoin:round" />
<line x1="7.4773307" y1="13.1368244" x2="10.79139" y2="15.0502535" style="fill:none;stroke:rgb(68,68,68);stroke-width:0.2167546;stroke-linecap:round;stroke-linejoin:round" />
<line x1="11.5687427" y1="16.4886892" x2="11.5687427" y2="19.2059193" style="fill:none;stroke:rgb(68,68,68);stroke-width:0.2167546;stroke-linecap:round;stroke-linejoin:round" />
<line x1="11.5687427" y1="6.0500831" x2="11.5687427" y2="2.3473876" style="fill:none;stroke:rgb(68,68,68);stroke-width:0.2167546;stroke-linecap:round;stroke-linejoin:round" />
<path d="M3.9084655,14.9036969 Q4.0029323,15.0075066 4.05328,15.1580306 Q4.1036277,15.3085547 4.1036277,15.4995645 Q4.1036277,15.6905743 4.0522419,15.8416174 Q4.0008561,15.9926605 3.9084655,16.0933559 Q3.8129606,16.1982037 3.6826794,16.2511466 Q3.5523983,16.3040896 3.3852647,16.3040896 Q3.2222835,16.3040896 3.088888,16.2501086 Q2.9554926,16.1961275 2.8620638,16.0933559 Q2.7686351,15.9905843 2.7182874,15.8410984 Q2.6679397,15.6916124 2.6679397,15.4995645 Q2.6679397,15.3106309 2.7177684,15.1606259 Q2.767597,15.0106209 2.8631019,14.9036969 Q2.9544545,14.8019634 3.0899261,14.7479824 Q3.2253978,14.6940013 3.3852647,14.6940013 Q3.5513602,14.6940013 3.6837175,14.7485014 Q3.8160749,14.8030015 3.9084655,14.9036969 Z M3.8897797,15.4995645 Q3.8897797,15.1985164 3.7548272,15.0350162 Q3.6198746,14.8715159 3.3863028,14.8715159 Q3.1506548,14.8715159 3.0162212,15.0350162 Q2.8817877,15.1985164 2.8817877,15.4995645 Q2.8817877,15.8037269 3.0188165,15.965151 Q3.1558453,16.126575 3.3863028,16.126575 Q3.6167603,16.126575 3.75327,15.965151 Q3.8897797,15.8037269 3.8897797,15.4995645 Z" style="fill:rgb(68,68,68);stroke:none" />
<path d="M8.0669697,9.1851933 L7.812636,9.1851933 L7.0797396,7.8024483 L7.0797396,9.1851933 L6.8876917,9.1851933 L6.8876917,7.6394671 L7.2063874,7.6394671 L7.8749218,8.9017928 L7.8749218,7.6394671 L8.0669697,7.6394671 Z" style="fill:rgb(68,68,68);stroke:none" />
<path d="M4.0268085,6.7108577 Q3.9697132,6.735772 3.9235179,6.7575721 Q3.8773226,6.7793721 3.8025796,6.8032483 Q3.7392557,6.8229722 3.6650318,6.8369865 Q3.5908079,6.8510008 3.5015315,6.8510008 Q3.3333598,6.8510008 3.195812,6.8037674 Q3.0582642,6.756534 2.9565307,6.6558386 Q2.8568734,6.5572194 2.8008161,6.4051382 Q2.7447589,6.253057 2.7447589,6.0516662 Q2.7447589,5.8606564 2.7987399,5.7101323 Q2.852721,5.5596083 2.9544545,5.4557986 Q3.0530737,5.3551032 3.1926977,5.3021603 Q3.3323217,5.2492173 3.5025696,5.2492173 Q3.6271412,5.2492173 3.7511938,5.2793221 Q3.8752464,5.3094269 4.0268085,5.385208 L4.0268085,5.6291608 L4.0112371,5.6291608 Q3.8835512,5.5222368 3.7579414,5.4734463 Q3.6323317,5.4246557 3.4890744,5.4246557 Q3.3717694,5.4246557 3.2778216,5.4625462 Q3.1838739,5.5004368 3.110169,5.5803702 Q3.0385403,5.6582275 2.9985736,5.7770896 Q2.9586069,5.8959517 2.9586069,6.0516662 Q2.9586069,6.2146474 3.002726,6.3319524 Q3.0468451,6.4492573 3.1163976,6.5229622 Q3.1890644,6.5997814 3.2861264,6.6366338 Q3.3831885,6.6734862 3.4911506,6.6734862 Q3.6395984,6.6734862 3.7693605,6.6226195 Q3.8991226,6.5717527 4.0122752,6.4700192 L4.0268085,6.4700192 Z" style="fill:rgb(68,68,68);stroke:none" />
<path d="M1.7790174,6.8229722 L1.5734742,6.8229722 L1.5734742,6.0661996 L0.8021682,6.0661996 L0.8021682,6.8229722 L0.5966251,6.8229722 L0.5966251,5.2772459 L0.8021682,5.2772459 L0.8021682,5.8834945 L1.5734742,5.8834945 L1.5734742,5.2772459 L1.7790174,5.2772459 Z" style="fill:rgb(68,68,68);stroke:none" />
<path d="M2.4988857,6.8401008 Q2.5287828,6.8668837 2.5480915,6.9073695 Q2.5674001,6.9478552 2.5674001,7.0120096 Q2.5674001,7.0755411 2.5443543,7.1284841 Q2.5213086,7.181427 2.4795771,7.2206671 Q2.4328627,7.2642672 2.3696426,7.2851329 Q2.3064225,7.3059987 2.2310567,7.3059987 Q2.1538223,7.3059987 2.0790793,7.2876243 Q2.0043363,7.26925 1.9563762,7.24745 L1.9563762,7.1172726 L1.9657191,7.1172726 Q2.018662,7.1521527 2.0902907,7.1751984 Q2.1619194,7.1982442 2.2285652,7.1982442 Q2.2678053,7.1982442 2.3120282,7.1851642 Q2.3562512,7.1720842 2.3836569,7.146547 Q2.4123084,7.1191412 2.4263227,7.0861297 Q2.440337,7.0531183 2.440337,7.0026667 Q2.440337,6.9528381 2.4244541,6.920138 Q2.4085712,6.887438 2.3805426,6.8687523 Q2.352514,6.8494437 2.3126511,6.8422808 Q2.2727882,6.8351179 2.2266967,6.8351179 L2.1706394,6.8351179 L2.1706394,6.7317235 L2.2142395,6.7317235 Q2.3089139,6.7317235 2.3652826,6.692172 Q2.4216513,6.6526205 2.4216513,6.5766318 Q2.4216513,6.5429975 2.4073255,6.5177717 Q2.3929998,6.4925459 2.3674626,6.4763516 Q2.3406797,6.4601573 2.3101596,6.4539287 Q2.2796396,6.4477002 2.2410224,6.4477002 Q2.1818509,6.4477002 2.1152051,6.4688773 Q2.0485592,6.4900545 1.9893877,6.5286717 L1.9831591,6.5286717 L1.9831591,6.3984944 Q2.0273821,6.3766943 2.1011908,6.35832 Q2.1749994,6.3399457 2.2441367,6.3399457 Q2.3120282,6.3399457 2.3637254,6.3524029 Q2.4154227,6.36486 2.4571542,6.3922658 Q2.502,6.422163 2.5250457,6.4645173 Q2.5480915,6.5068717 2.5480915,6.5635518 Q2.5480915,6.6407862 2.4935914,6.6984006 Q2.4390913,6.7560149 2.3649712,6.7709635 L2.3649712,6.7796835 Q2.3948684,6.7846664 2.4334856,6.8005493 Q2.4721028,6.8164322 2.4988857,6.8401008 Z" style="fill:rgb(68,68,68);stroke:none" />
<path d="M20.7443625,15.3679813 L20.4900287,15.3679813 L19.7571323,13.9852363 L19.7571323,15.3679813 L19.5650844,15.3679813 L19.5650844,13.8222551 L19.8837802,13.8222551 L20.5523145,15.0845809 L20.5523145,13.8222551 L20.7443625,13.8222551 Z" style="fill:rgb(68,68,68);stroke:none" />
<path d="M20.7443625,7.7237498 L20.4900287,7.7237498 L19.7571323,6.3410047 L19.7571323,7.7237498 L19.5650844,7.7237498 L19.5650844,6.1780235 L19.8837802,6.1780235 L20.5523145,7.4403493 L20.5523145,6.1780235 L20.7443625,6.1780235 Z" style="fill:rgb(68,68,68);stroke:none" />
<path d="M22.2552411,3.1182261 Q22.1981458,3.1431404 22.1519505,3.1649405 Q22.1057551,3.1867405 22.0310122,3.2106167 Q21.9676883,3.2303406 21.8934643,3.2443549 Q21.8192404,3.2583692 21.7299641,3.2583692 Q21.5617924,3.2583692 21.4242446,3.2111358 Q21.2866967,3.1639024 21.1849632,3.063207 Q21.0853059,2.9645878 21.0292487,2.8125066 Q20.9731915,2.6604254 20.9731915,2.4590346 Q20.9731915,2.2680248 21.0271725,2.1175007 Q21.0811535,1.9669767 21.182887,1.863167 Q21.2815062,1.7624716 21.4211303,1.7095287 Q21.5607543,1.6565857 21.7310022,1.6565857 Q21.8555738,1.6565857 21.9796264,1.6866905 Q22.103679,1.7167953 22.2552411,1.7925764 L22.2552411,2.0365292 L22.2396696,2.0365292 Q22.1119837,1.9296052 21.986374,1.8808147 Q21.8607643,1.8320241 21.7175069,1.8320241 Q21.600202,1.8320241 21.5062542,1.8699146 Q21.4123064,1.9078052 21.3386016,1.9877386 Q21.2669729,2.0655959 21.2270061,2.184458 Q21.1870394,2.3033201 21.1870394,2.4590346 Q21.1870394,2.6220158 21.2311585,2.7393208 Q21.2752777,2.8566257 21.3448301,2.9303306 Q21.4174969,3.0071498 21.514559,3.0440022 Q21.611621,3.0808546 21.7195831,3.0808546 Q21.868031,3.0808546 21.9977931,3.0299879 Q22.1275552,2.9791211 22.2407077,2.8773876 L22.2552411,2.8773876 Z" style="fill:rgb(68,68,68);stroke:none" />
<path d="M23.6149923,3.2303406 L23.4094491,3.2303406 L23.4094491,2.473568 L22.6381431,2.473568 L22.6381431,3.2303406 L22.4325999,3.2303406 L22.4325999,1.6846143 L22.6381431,1.6846143 L22.6381431,2.2908629 L23.4094491,2.2908629 L23.4094491,1.6846143 L23.6149923,1.6846143 Z" style="fill:rgb(68,68,68);stroke:none" />
<path d="M24.3348606,3.2474692 Q24.3647577,3.2742521 24.3840663,3.3147379 Q24.4033749,3.3552236 24.4033749,3.419378 Q24.4033749,3.4829095 24.3803292,3.5358525 Q24.3572834,3.5887954 24.3155519,3.6280355 Q24.2688376,3.6716356 24.2056175,3.6925013 Q24.1423974,3.7133671 24.0670316,3.7133671 Q23.9897972,3.7133671 23.9150542,3.6949927 Q23.8403112,3.6766184 23.7923511,3.6548184 L23.7923511,3.524641 L23.801694,3.524641 Q23.8546369,3.5595211 23.9262656,3.5825668 Q23.9978943,3.6056126 24.0645401,3.6056126 Q24.1037802,3.6056126 24.1480031,3.5925326 Q24.192226,3.5794526 24.2196318,3.5539154 Q24.2482833,3.5265096 24.2622976,3.4934981 Q24.2763119,3.4604867 24.2763119,3.4100351 Q24.2763119,3.3602065 24.260429,3.3275064 Q24.2445461,3.2948064 24.2165175,3.2761207 Q24.1884889,3.2568121 24.148626,3.2496492 Q24.1087631,3.2424863 24.0626716,3.2424863 L24.0066143,3.2424863 L24.0066143,3.1390919 L24.0502144,3.1390919 Q24.1448888,3.1390919 24.2012575,3.0995404 Q24.2576261,3.0599889 24.2576261,2.9840002 Q24.2576261,2.9503659 24.2433004,2.9251401 Q24.2289747,2.8999143 24.2034375,2.88372 Q24.1766546,2.8675257 24.1461345,2.8612971 Q24.1156145,2.8550686 24.0769973,2.8550686 Q24.0178258,2.8550686 23.9511799,2.8762457 Q23.8845341,2.8974229 23.8253626,2.9360401 L23.819134,2.9360401 L23.819134,2.8058628 Q23.863357,2.7840627 23.9371656,2.7656884 Q24.0109743,2.7473141 24.0801116,2.7473141 Q24.1480031,2.7473141 24.1997003,2.7597713 Q24.2513976,2.7722284 24.2931291,2.7996342 Q24.3379748,2.8295314 24.3610206,2.8718857 Q24.3840663,2.9142401 24.3840663,2.9709202 Q24.3840663,3.0481546 24.3295663,3.105769 Q24.2750662,3.1633833 24.2009461,3.1783319 L24.2009461,3.1870519 Q24.2308432,3.1920348 24.2694604,3.2079177 Q24.3080777,3.2238006 24.3348606,3.2474692 Z" style="fill:rgb(68,68,68);stroke:none" />
<path d="M12.1583817,16.2719346 L11.904048,16.2719346 L11.1711516,14.8891895 L11.1711516,16.2719346 L10.9791037,16.2719346 L10.9791037,14.7262083 L11.2977994,14.7262083 L11.9663338,15.9885341 L11.9663338,14.7262083 L12.1583817,14.7262083 Z" style="fill:rgb(68,68,68);stroke:none" />
<path d="M12.2097675,20.8843143 Q12.1526722,20.9092286 12.1064769,20.9310287 Q12.0602815,20.9528287 11.9855386,20.9767049 Q11.9222147,20.9964288 11.8479907,21.0104431 Q11.7737668,21.0244574 11.6844905,21.0244574 Q11.5163188,21.0244574 11.3787709,20.977224 Q11.2412231,20.9299906 11.1394896,20.8292952 Q11.0398323,20.730676 10.9837751,20.5785948 Q10.9277179,20.4265136 10.9277179,20.2251228 Q10.9277179,20.034113 10.9816989,19.8835889 Q11.0356799,19.7330649 11.1374134,19.6292552 Q11.2360326,19.5285598 11.3756567,19.4756168 Q11.5152807,19.4226739 11.6855286,19.4226739 Q11.8101002,19.4226739 11.9341528,19.4527787 Q12.0582053,19.4828835 12.2097675,19.5586646 L12.2097675,19.8026174 L12.194196,19.8026174 Q12.0665101,19.6956934 11.9409004,19.6469028 Q11.8152907,19.5981123 11.6720333,19.5981123 Q11.5547284,19.5981123 11.4607806,19.6360028 Q11.3668328,19.6738933 11.293128,19.7538268 Q11.2214993,19.8316841 11.1815325,19.9505462 Q11.1415658,20.0694083 11.1415658,20.2251228 Q11.1415658,20.388104 11.1856849,20.5054089 Q11.229804,20.6227139 11.2993565,20.6964188 Q11.3720233,20.7732379 11.4690854,20.8100904 Q11.5661474,20.8469428 11.6741095,20.8469428 Q11.8225574,20.8469428 11.9523195,20.7960761 Q12.0820816,20.7452093 12.1952341,20.6434758 L12.2097675,20.6434758 Z" style="fill:rgb(68,68,68);stroke:none" />
<path d="M13.5695187,20.9964288 L13.3639755,20.9964288 L13.3639755,20.2396561 L12.5926695,20.2396561 L12.5926695,20.9964288 L12.3871263,20.9964288 L12.3871263,19.4507025 L12.5926695,19.4507025 L12.5926695,20.0569511 L13.3639755,20.0569511 L13.3639755,19.4507025 L13.5695187,19.4507025 Z" style="fill:rgb(68,68,68);stroke:none" />
<path d="M14.2893869,21.0135574 Q14.3192841,21.0403403 14.3385927,21.080826 Q14.3579013,21.1213118 14.3579013,21.1854662 Q14.3579013,21.2489977 14.3348556,21.3019407 Q14.3118098,21.3548836 14.2700783,21.3941237 Q14.223364,21.4377237 14.1601439,21.4585895 Q14.0969238,21.4794552 14.021558,21.4794552 Q13.9443235,21.4794552 13.8695806,21.4610809 Q13.7948376,21.4427066 13.7468775,21.4209066 L13.7468775,21.2907292 L13.7562204,21.2907292 Q13.8091633,21.3256093 13.880792,21.348655 Q13.9524207,21.3717008 14.0190665,21.3717008 Q14.0583066,21.3717008 14.1025295,21.3586208 Q14.1467524,21.3455407 14.1741582,21.3200036 Q14.2028097,21.2925978 14.216824,21.2595863 Q14.2308383,21.2265748 14.2308383,21.1761233 Q14.2308383,21.1262947 14.2149554,21.0935946 Q14.1990725,21.0608946 14.1710439,21.0422088 Q14.1430153,21.0229002 14.1031524,21.0157374 Q14.0632894,21.0085745 14.0171979,21.0085745 L13.9611407,21.0085745 L13.9611407,20.90518 L14.0047408,20.90518 Q14.0994152,20.90518 14.1557839,20.8656286 Q14.2121525,20.8260771 14.2121525,20.7500884 Q14.2121525,20.716454 14.1978268,20.6912283 Q14.1835011,20.6660025 14.1579639,20.6498082 Q14.131181,20.6336139 14.1006609,20.6273853 Q14.0701409,20.6211567 14.0315237,20.6211567 Q13.9723522,20.6211567 13.9057063,20.6423339 Q13.8390605,20.6635111 13.779889,20.7021283 L13.7736604,20.7021283 L13.7736604,20.5719509 Q13.8178833,20.5501509 13.891692,20.5317766 Q13.9655007,20.5134023 14.034638,20.5134023 Q14.1025295,20.5134023 14.1542267,20.5258594 Q14.205924,20.5383166 14.2476555,20.5657224 Q14.2925012,20.5956196 14.315547,20.6379739 Q14.3385927,20.6803283 14.3385927,20.7370084 Q14.3385927,20.8142428 14.2840927,20.8718571 Q14.2295926,20.9294715 14.1554724,20.9444201 L14.1554724,20.9531401 Q14.1853696,20.958123 14.2239868,20.9740059 Q14.262604,20.9898887 14.2893869,21.0135574 Z" style="fill:rgb(68,68,68);stroke:none" />
<path d="M12.0914244,0.7302403 Q12.1858913,0.83405 12.236239,0.9845741 Q12.2865867,1.1350981 12.2865867,1.3261079 Q12.2865867,1.5171178 12.2352009,1.6681609 Q12.1838151,1.819204 12.0914244,1.9198993 Q11.9959195,2.0247471 11.8656384,2.0776901 Q11.7353572,2.130633 11.5682236,2.130633 Q11.4052424,2.130633 11.271847,2.076652 Q11.1384515,2.0226709 11.0450228,1.9198993 Q10.9515941,1.8171278 10.9012464,1.6676418 Q10.8508987,1.5181559 10.8508987,1.3261079 Q10.8508987,1.1371743 10.9007273,0.9871693 Q10.950556,0.8371643 11.0460609,0.7302403 Q11.1374134,0.6285068 11.2728851,0.5745258 Q11.4083567,0.5205448 11.5682236,0.5205448 Q11.7343191,0.5205448 11.8666765,0.5750449 Q11.9990338,0.6295449 12.0914244,0.7302403 Z M12.0727387,1.3261079 Q12.0727387,1.0250598 11.9377861,0.8615596 Q11.8028335,0.6980593 11.5692617,0.6980593 Q11.3336137,0.6980593 11.1991802,0.8615596 Q11.0647466,1.0250598 11.0647466,1.3261079 Q11.0647466,1.6302703 11.2017754,1.7916944 Q11.3388042,1.9531184 11.5692617,1.9531184 Q11.7997192,1.9531184 11.936229,1.7916944 Q12.0727387,1.6302703 12.0727387,1.3261079 Z" style="fill:rgb(68,68,68);stroke:none" />
</svg>
