<?xml version="1.0" encoding="UTF-8"?>
<!DOCTYPE svg PUBLIC "-//W3C//DTD SVG 1.1//EN" "http://www.w3.org/Graphics/SVG/1.1/DTD/svg11.dtd">
<svg version="1.2" xmlns="http://www.w3.org/2000/svg" xmlns:xlink="http://www.w3.org/1999/xlink" x="0mm" y="0mm" width="21mm" height="22mm" viewBox="0 0 21 22">
<style type="text/css"><![CDATA[
text { font:12px Dialog; }
]]></style>
<line x1="5.253417" y1="13.3303801" x2="2.0512869" y2="15.1791036" style="fill:none;stroke:rgb(68,68,68);stroke-width:0.2136428;stroke-linecap:round;stroke-linejoin:round" />
<line x1="5.253417" y1="13.3303801" x2="5.253417" y2="9.6491231" style="fill:none;stroke:rgb(68,68,68);stroke-width:0.2136428;stroke-linecap:round;stroke-linejoin:round" />
<line x1="4.4872223" y1="8.2313564" x2="2.0374527" y2="6.8170021" style="fill:none;stroke:rgb(68,68,68);stroke-width:0.2136428;stroke-linecap:round;stroke-linejoin:round" />
<line x1="6.0196097" y1="8.2313382" x2="9.286091" y2="6.345379" style="fill:none;stroke:rgb(68,68,68);stroke-width:0.2136428;stroke-linecap:round;stroke-linejoin:round" />
<line x1="9.286091" y1="6.345379" x2="13.318765" y2="8.6737127" style="fill:none;stroke:rgb(68,68,68);stroke-width:0.2136428;stroke-linecap:round;stroke-linejoin:round" />
<line x1="13.318765" y1="8.6737127" x2="13.318765" y2="13.3303801" style="fill:none;stroke:rgb(68,68,68);stroke-width:0.2136428;stroke-linecap:round;stroke-linejoin:round" />
<line x1="13.318765" y1="13.3303801" x2="16.96442" y2="14.513238" style="fill:none;stroke:rgb(68,68,68);stroke-width:0.2136428;stroke-linecap:round;stroke-linejoin:round" />
<line x1="18.4283483" y1="13.8331776" x2="20.4869284" y2="11.0020464" style="fill:none;stroke:rgb(68,68,68);stroke-width:0.2136428;stroke-linecap:round;stroke-linejoin:round" />
<line x1="20.4869284" y1="11.0020464" x2="18.4278243" y2="8.16786" style="fill:none;stroke:rgb(68,68,68);stroke-width:0.2136428;stroke-linecap:round;stroke-linejoin:round" />
<line x1="13.318765" y1="8.6737127" x2="16.9644618" y2="7.4882864" style="fill:none;stroke:rgb(68,68,68);stroke-width:0.2136428;stroke-linecap:round;stroke-linejoin:round" />
<line x1="18.0622344" y1="6.2682896" x2="18.8854917" y2="3.7336884" style="fill:none;stroke:rgb(68,68,68);stroke-width:0.2136428;stroke-linecap:round;stroke-linejoin:round" />
<line x1="13.318765" y1="13.3303801" x2="10.0522837" y2="15.2163393" style="fill:none;stroke:rgb(68,68,68);stroke-width:0.2136428;stroke-linecap:round;stroke-linejoin:round" />
<line x1="5.253417" y1="13.3303801" x2="8.5198983" y2="15.2163393" style="fill:none;stroke:rgb(68,68,68);stroke-width:0.2136428;stroke-linecap:round;stroke-linejoin:round" />
<line x1="9.286091" y1="16.6341242" x2="9.286091" y2="19.3123446" style="fill:none;stroke:rgb(68,68,68);stroke-width:0.2136428;stroke-linecap:round;stroke-linejoin:round" />
<line x1="9.286091" y1="6.345379" x2="9.286091" y2="2.6958409" style="fill:none;stroke:rgb(68,68,68);stroke-width:0.2136428;stroke-linecap:round;stroke-linejoin:round" />
<path d="M1.7357879,15.0718867 Q1.8288985,15.1742061 1.8785234,15.3225691 Q1.9281483,15.4709322 1.9281483,15.6591998 Q1.9281483,15.8474674 1.8775002,15.9963421 Q1.8268521,16.1452167 1.7357879,16.2444665 Q1.6416541,16.347809 1.5132433,16.3999919 Q1.3848325,16.4521748 1.2200983,16.4521748 Q1.059457,16.4521748 0.9279766,16.3989687 Q0.7964962,16.3457627 0.7044088,16.2444665 Q0.6123214,16.1431703 0.5626965,15.9958305 Q0.5130716,15.8484906 0.5130716,15.6591998 Q0.5130716,15.4729786 0.5621849,15.3251271 Q0.6112982,15.1772756 0.705432,15.0718867 Q0.795473,14.9716137 0.9289998,14.9184077 Q1.0625265,14.8652016 1.2200983,14.8652016 Q1.3838093,14.8652016 1.5142665,14.9189193 Q1.6447237,14.9726369 1.7357879,15.0718867 Z M1.7173704,15.6591998 Q1.7173704,15.3624737 1.5843552,15.2013207 Q1.4513401,15.0401677 1.2211215,15.0401677 Q0.9888566,15.0401677 0.856353,15.2013207 Q0.7238495,15.3624737 0.7238495,15.6591998 Q0.7238495,15.9589955 0.858911,16.1181021 Q0.9939726,16.2772087 1.2211215,16.2772087 Q1.4482705,16.2772087 1.5828204,16.1181021 Q1.7173704,15.9589955 1.7173704,15.6591998 Z" style="fill:rgb(68,68,68);stroke:none" />
<path d="M5.8345909,9.4354803 L5.5839085,9.4354803 L4.8615339,8.0725865 L4.8615339,9.4354803 L4.6722431,9.4354803 L4.6722431,7.9119451 L4.9863635,7.9119451 L5.6453001,9.1561484 L5.6453001,7.9119451 L5.8345909,7.9119451 Z" style="fill:rgb(68,68,68);stroke:none" />
<path d="M1.8524319,6.9966673 Q1.7961563,7.0212239 1.7506242,7.042711 Q1.7050921,7.064198 1.6314221,7.0877315 Q1.5690073,7.1071722 1.495849,7.1209853 Q1.4226907,7.1347984 1.334696,7.1347984 Q1.1689387,7.1347984 1.0333655,7.0882431 Q0.8977924,7.0416878 0.7975194,6.942438 Q0.6992928,6.8452346 0.6440404,6.6953368 Q0.5887879,6.5454389 0.5887879,6.3469394 Q0.5887879,6.1586718 0.641994,6.0103087 Q0.6952001,5.8619456 0.795473,5.7596263 Q0.8926764,5.6603765 1.0302959,5.6081936 Q1.1679155,5.5560108 1.3357192,5.5560108 Q1.4585024,5.5560108 1.5807741,5.5856834 Q1.7030457,5.615356 1.8524319,5.6900491 L1.8524319,5.9304996 L1.837084,5.9304996 Q1.7112312,5.8251107 1.5874248,5.7770206 Q1.4636184,5.7289305 1.3224177,5.7289305 Q1.2067968,5.7289305 1.1141978,5.766277 Q1.0215988,5.8036236 0.9489521,5.8824095 Q0.8783517,5.959149 0.8389588,6.0763047 Q0.7995658,6.1934603 0.7995658,6.3469394 Q0.7995658,6.5075807 0.8430515,6.6232016 Q0.8865373,6.7388225 0.9550912,6.8114692 Q1.0267148,6.8871855 1.1223834,6.9235089 Q1.218052,6.9598323 1.3244641,6.9598323 Q1.4707808,6.9598323 1.5986799,6.9096958 Q1.7265791,6.8595593 1.8381072,6.7592864 L1.8524319,6.7592864 Z" style="fill:rgb(68,68,68);stroke:none" />
<path d="M18.3299819,15.5295057 L18.0792994,15.5295057 L17.3569248,14.1666119 L17.3569248,15.5295057 L17.167634,15.5295057 L17.167634,14.0059705 L17.4817544,14.0059705 L18.1406911,15.2501739 L18.1406911,14.0059705 L18.3299819,14.0059705 Z" style="fill:rgb(68,68,68);stroke:none" />
<path d="M18.3299819,7.9950178 L18.0792994,7.9950178 L17.3569248,6.632124 L17.3569248,7.9950178 L17.167634,7.9950178 L17.167634,6.4714826 L17.4817544,6.4714826 L18.1406911,7.715686 L18.1406911,6.4714826 L18.3299819,6.4714826 Z" style="fill:rgb(68,68,68);stroke:none" />
<path d="M19.8191697,3.4556129 Q19.7628941,3.4801696 19.7173619,3.5016566 Q19.6718298,3.5231437 19.5981599,3.5466772 Q19.5357451,3.5661178 19.4625868,3.579931 Q19.3894284,3.5937441 19.3014338,3.5937441 Q19.1356764,3.5937441 19.0001033,3.5471888 Q18.8645301,3.5006335 18.7642572,3.4013837 Q18.6660306,3.3041803 18.6107781,3.1542824 Q18.5555257,3.0043846 18.5555257,2.805885 Q18.5555257,2.6176174 18.6087318,2.4692544 Q18.6619378,2.3208913 18.7622108,2.218572 Q18.8594142,2.1193222 18.9970337,2.0671393 Q19.1346532,2.0149565 19.302457,2.0149565 Q19.4252402,2.0149565 19.5475118,2.0446291 Q19.6697834,2.0743017 19.8191697,2.1489948 L19.8191697,2.3894453 L19.8038218,2.3894453 Q19.677969,2.2840564 19.5541626,2.2359663 Q19.4303562,2.1878762 19.2891555,2.1878762 Q19.1735346,2.1878762 19.0809356,2.2252227 Q18.9883366,2.2625693 18.9156898,2.3413552 Q18.8450895,2.4180947 18.8056965,2.5352504 Q18.7663036,2.652406 18.7663036,2.805885 Q18.7663036,2.9665264 18.8097893,3.0821473 Q18.853275,3.1977682 18.921829,3.2704149 Q18.9934525,3.3461312 19.0891211,3.3824546 Q19.1847897,3.418778 19.2912018,3.418778 Q19.4375185,3.418778 19.5654177,3.3686415 Q19.6933169,3.318505 19.804845,3.218232 L19.8191697,3.218232 Z" style="fill:rgb(68,68,68);stroke:none" />
<path d="M9.8672649,16.4204814 L9.6165825,16.4204814 L8.8942079,15.0575876 L8.8942079,16.4204814 L8.7049171,16.4204814 L8.7049171,14.8969462 L9.0190375,14.8969462 L9.6779741,16.1411496 L9.6779741,14.8969462 L9.8672649,14.8969462 Z" style="fill:rgb(68,68,68);stroke:none" />
<path d="M9.917913,20.9666439 Q9.8616374,20.9912006 9.8161053,21.0126876 Q9.7705731,21.0341747 9.6969032,21.0577081 Q9.6344884,21.0771488 9.5613301,21.0909619 Q9.4881717,21.104775 9.4001771,21.104775 Q9.2344197,21.104775 9.0988466,21.0582197 Q8.9632734,21.0116644 8.8630005,20.9124147 Q8.7647739,20.8152113 8.7095215,20.6653134 Q8.654269,20.5154156 8.654269,20.316916 Q8.654269,20.1286484 8.7074751,19.9802854 Q8.7606811,19.8319223 8.8609541,19.7296029 Q8.9581575,19.6303532 9.095777,19.5781703 Q9.2333965,19.5259874 9.4012003,19.5259874 Q9.5239835,19.5259874 9.6462551,19.55566 Q9.7685268,19.5853327 9.917913,19.6600258 L9.917913,19.9004763 L9.9025651,19.9004763 Q9.7767123,19.7950873 9.6529059,19.7469972 Q9.5290995,19.6989071 9.3878988,19.6989071 Q9.2722779,19.6989071 9.1796789,19.7362537 Q9.0870799,19.7736003 9.0144331,19.8523862 Q8.9438328,19.9291257 8.9044398,20.0462813 Q8.8650469,20.163437 8.8650469,20.316916 Q8.8650469,20.4775574 8.9085326,20.5931783 Q8.9520183,20.7087991 9.0205723,20.7814459 Q9.0921958,20.8571622 9.1878644,20.8934856 Q9.283533,20.9298089 9.3899451,20.9298089 Q9.5362618,20.9298089 9.664161,20.8796725 Q9.7920602,20.829536 9.9035883,20.729263 L9.917913,20.729263 Z" style="fill:rgb(68,68,68);stroke:none" />
<path d="M9.8012689,1.1019101 Q9.8943796,1.2042294 9.9440044,1.3525925 Q9.9936293,1.5009555 9.9936293,1.6892231 Q9.9936293,1.8774907 9.9429812,2.0263654 Q9.8923332,2.1752401 9.8012689,2.2744898 Q9.7071351,2.3778324 9.5787244,2.4300152 Q9.4503136,2.4821981 9.2855794,2.4821981 Q9.124938,2.4821981 8.9934577,2.4289921 Q8.8619773,2.375786 8.7698899,2.2744898 Q8.6778025,2.1731937 8.6281776,2.0258538 Q8.5785527,1.8785139 8.5785527,1.6892231 Q8.5785527,1.5030019 8.627666,1.3551504 Q8.6767793,1.207299 8.7709131,1.1019101 Q8.8609541,1.0016371 8.9944808,0.948431 Q9.1280076,0.895225 9.2855794,0.895225 Q9.4492904,0.895225 9.5797475,0.9489426 Q9.7102047,1.0026603 9.8012689,1.1019101 Z M9.7828515,1.6892231 Q9.7828515,1.392497 9.6498363,1.231344 Q9.5168211,1.0701911 9.2866026,1.0701911 Q9.0543377,1.0701911 8.9218341,1.231344 Q8.7893305,1.392497 8.7893305,1.6892231 Q8.7893305,1.9890188 8.9243921,2.1481254 Q9.0594536,2.307232 9.2866026,2.307232 Q9.5137516,2.307232 9.6483015,2.1481254 Q9.7828515,1.9890188 9.7828515,1.6892231 Z" style="fill:rgb(68,68,68);stroke:none" />
</svg>
